; OM File Header - Saved 2020/11/05 6:27:14
; (6.17 :patc (om-make-point 373 9) (om-make-point 157 23) (om-make-point 1123 647) "" 183 0 "2011/10/18 16:57:23" "2020/11/05 6:27:14")
; End File Header
; External resources 
; (list (list (quote :picture) "#P\"../../resources/pict/Screen shot 2011-10-18 at 5.03.10 PM\""))
(in-package :om)(load-lib-for (quote nil))(setf *om-current-persistent* (om-load-patch1 "harm-spect" (quote ((let ((box (om-load-boxcomment "comment 2" (om-make-point 100 60) (quote "<= om^") "" (om-make-point 288 295) nil (om-make-color 0 0 0) (om-make-font "Verdana" 12 :family "Verdana" :style (quote (:plain)) :mode (quote nil))))) (when (fboundp (quote set-active)) (set-active box nil)) box) (let ((box (om-load-boxcall (quote genfun) "PITCHWHEEL" (quote pitchwheel) (quote ((om-load-inputfun (quote input-funbox) "pitch wheel value(s)" "VALS" 0) (om-load-inputfun (quote input-funbox) "MIDI channel(s) (1-16)" "CHANS" 1))) (om-make-point 582 274) nil nil nil nil 1))) (when (fboundp (quote set-active)) (set-active box nil)) box) (let ((box (om-load-boxcall (quote bastype) "aux 5" (quote t) (quote nil) (om-make-point 668 181) (om-make-point 64 30) (list 1 2 3 4) "(1 2 3 4)" nil))) (when (fboundp (quote set-active)) (set-active box nil)) box) (let ((box (om-load-boxcall (quote bastype) "aux 4" (quote t) (quote nil) (om-make-point 504 207) (om-make-point 127 30) (list 0 1024 2048 3072) "(0 1024 2048 3072)" nil))) (when (fboundp (quote set-active)) (set-active box nil)) box) (let ((box (om-load-boxcall (quote genfun) "PGMOUT" (quote pgmout) (quote ((om-load-inputfun (quote input-funbox) "program number" "PROGM" 2) (om-load-inputfun (quote input-funbox) "MIDI channel(s)" "CHANS" 1))) (om-make-point 766 272) nil nil nil nil 1))) (when (fboundp (quote set-active)) (set-active box nil)) box) (let ((box (om-load-boxcall (quote genfun) "GM-PROGRAM" (quote gm-program) (quote ((om-load-inputfunmenu1 (quote input-funmenu) "Instrument name" "PROGNAME" 0 (list (list "0 - Acoustic Grand Piano" 0) (list "1 - Bright Acoustic Piano" 1) (list "2 - Electric Grand Piano" 2) (list "3 - Honki Tonk Piano" 3) (list "4 - Electric Piano 1" 4) (list "5 - Electric Piano 2" 5) (list "6 - Harpsichord" 6) (list "7 - Clavinet" 7) (list "8 - Celesta" 8) (list "9 - Glockenspiel" 9) (list "10 - Music Box" 10) (list "11 - Vibraphone" 11) (list "12 - Marimba" 12) (list "13 - Xylophone" 13) (list "14 - Tubular bells" 14) (list "15 - Dulcimer" 15) (list "16 - Drawbar Organ" 16) (list "17 - Percussive Organ" 17) (list "18 - Rock Organ" 18) (list "19 - Church Organ" 19) (list "20 - Reed Organ" 20) (list "21 - Accordion" 21) (list "22 - Harmonica" 22) (list "23 - Tango Accordion" 23) (list "24 - Nylon Acoustic Guitar" 24) (list "25 - Steel Acoustic Guitar" 25) (list "26 - Jazz Electric Guitar" 26) (list "27 - Clean Electric Guitar" 27) (list "28 - Muted Electric Guitar" 28) (list "29 - Overdrive Guitar" 29) (list "30 - Distorted Guitar" 30) (list "31 - Guitar Harmonics" 31) (list "32 - Acoustic Bass" 32) (list "33 - Electric Fingered Bass" 33) (list "34 - Electric Picked Bass" 34) (list "35 - Fretless Bass" 35) (list "36 - Slap Bass 1" 36) (list "37 - Slap Bass 2" 37) (list "38 - Synth Bass 1" 38) (list "39 - Synth Bass 2" 39) (list "40 - Violin" 40) (list "41 - Viola" 41) (list "42 - Cello" 42) (list "43 - Contrabass" 43) (list "44 - Tremolo Strings" 44) (list "45 - Pizzicato Strings" 45) (list "46 - Orchestral Harp" 46) (list "47 - Timpani" 47) (list "48 - String Ensemble 1" 48) (list "49 - String Ensemble 2" 49) (list "50 - Synth Strings 1" 50) (list "51 - Synth Strings 2" 51) (list "52 - Choir Aahs" 52) (list "53 - Voice Oohs" 53) (list "54 - Synth Voice" 54) (list "55 - Orchestra Hit" 55) (list "56 - Trumpet" 56) (list "57 - Trombone" 57) (list "58 - Tuba" 58) (list "59 - Muted Trumpet" 59) (list "60 - French Horn" 60) (list "61 - Brass Section" 61) (list "62 - Synth Brass 1" 62) (list "63 - Synth Brass 2" 63) (list "64 - Soprano Sax" 64) (list "65 - Alto Sax" 65) (list "66 - Tenor Sax" 66) (list "67 - Baritone Sax" 67) (list "68 - Oboe" 68) (list "69 - English Horn" 69) (list "70 - Bassoon" 70) (list "71 - Clarinet" 71) (list "72 - Piccolo" 72) (list "73 - Flute" 73) (list "74 - Recorder" 74) (list "75 - Pan Flute" 75) (list "76 - Bottle Blow" 76) (list "77 - Shakuhachi" 77) (list "78 - Whistle" 78) (list "79 - Ocarina" 79) (list "80 - Syn Square Wave" 80) (list "81 - Syn Sawtooth Wave" 81) (list "82 - Syn Calliope" 82) (list "83 - Syn Chiff" 83) (list "84 - Syn Charang" 84) (list "85 - Syn Voice" 85) (list "86 - Syn Fifths Sawtooth w-Wave" 86) (list "87 - Syn Brass and Lead" 87) (list "88 - New Age Syn Pad" 88) (list "89 - Warm Syn Pad" 89) (list "90 - Polysynth Syn Pad" 90) (list "91 - Choir Syn Pad" 91) (list "92 - Bowed Syn Pad" 92) (list "93 - Metal Syn Pad" 93) (list "94 - Halo Syn Pad" 94) (list "95 - Sweep Syn Pad" 95) (list "96 - FX Rain" 96) (list "97 - FX Soundtrack" 97) (list "98 - FX Crystal" 98) (list "99 - FX Atmosphere" 99) (list "100 - FX Brightness" 100) (list "101 - FX Goblins" 101) (list "102 - FX Echoes" 102) (list "103 - FX Sci-fi" 103) (list "104 - Sitar" 104) (list "105 - Banjo" 105) (list "106 - Shamisen" 106) (list "107 - Koto" 107) (list "108 - Kalimba" 108) (list "109 - Bag Pipe" 109) (list "110 - Fiddle" 110) (list "111 - Shanai" 111) (list "112 - Tinkle Bell" 112) (list "113 - Agogo" 113) (list "114 - Steel Drums" 114) (list "115 - Woodblock" 115) (list "116 - Taiko Drum" 116) (list "117 - Melodic Tom" 117) (list "118 - Syn Drum" 118) (list "119 - Reverse Cymbal" 119) (list "120 - Guitar Fret Noise" 120) (list "121 - Breath Noise" 121) (list "122 - Seashore" 122) (list "123 - Bird Tweet" 123) (list "124 - Telephone Ring" 124) (list "125 - Helicopter" 125) (list "126 - Applause" 126) (list "127 - Gun Shot" 127))))) (om-make-point 745 166) nil nil nil nil 1))) (when (fboundp (quote set-active)) (set-active box nil)) box) (let ((box (om-load-seqbox "SEQUENCE" (quote sequence) (quote ((om-load-inputfun (quote input-funbox) "something" "PATCH" nil) (om-load-inputfun (quote input-funbox) "more things" "OPPATCH" nil))) (om-make-point 679 377) nil nil nil 2))) (when (fboundp (quote set-active)) (set-active box nil)) box) (let ((box (om-load-editor-box1 "CHORD" (quote chord) (quote ((om-load-inputfun (quote input-funbox) "object" "self" nil) (om-load-inputfun (quote input-funbox) "pitches (list of midicents)" "lmidic" (list 6000)) (om-load-inputfun (quote input-funbox) "velocities (list of values 0-127)" "lvel" (list 100)) (om-load-inputfun (quote input-funbox) "offsets (list of values in ms)" "loffset" (list 0)) (om-load-inputfun (quote input-funbox) "durations (list of values in ms)" "ldur" (list 1000)) (om-load-inputfun (quote input-funbox) "MIDI channels (list of values 0-16)" "lchan" (list 1)))) (om-make-point 184 540) (om-make-point 387 159) (let ((thechord (make-instance (quote chord) :lmidic (quote (7232 8012 8564 9344 10324 10972 11454)) :ldur (quote (1000 1000 1000 1000 1000 1000 1000)) :lvel (quote (100 100 100 100 100 100 100)) :loffset (quote (0 0 0 0 0 0 0)) :lchan (quote (1 1 1 1 1 1 1))))) (load-port-info thechord (quote (0 0 0 0 0 0 0))) (init-mus-color thechord (quote nil)) (set-extra-pairs thechord (quote nil)) (set-tonalite thechord nil) thechord) nil nil (pairlis (quote (palette-mode scale show-stems obj-mode score-mode winpos winsize mode grillestep notechancolor? zoom player inport outport deltapict cmnpref staff fontsize approx)) (list 0 nil (quote t) 0 0 (om-make-point 10 0) (om-make-point 616 318) 1 1000 nil 1 (quote :midishare) 0 nil (om-make-point 0 0) (let ((newobj (make-instance (quote edition-values)))) (setf (paper-size newobj) (om-make-point 600 800)) (setf (top-margin newobj) 2) (setf (left-margin newobj) 1) (setf (right-margin newobj) 1) (setf (bottom-margin newobj) 1) (setf (orientation newobj) nil) (setf (scale newobj) nil) (setf (system-space newobj) (quote (1))) (setf (system-color newobj) (quote nil)) (setf (line-space newobj) 1) (setf (title newobj) nil) (setf (show-title? newobj) nil) (setf (show-page? newobj) nil) (setf (sheet-id newobj) nil) (setf (page-mode newobj) nil) newobj) (quote ggf) 24 8)) t nil nil nil))) (when (fboundp (quote set-active)) (set-active box nil)) box) (let ((box (om-load-boxcomment "comment" (om-make-point 26 28) (quote "n") "" (om-make-point 158 146) nil (om-make-color 0 0 0) (om-make-font "Verdana" 12 :family "Verdana" :style (quote (:plain)) :mode (quote nil))))) (when (fboundp (quote set-active)) (set-active box nil)) box) (let ((box (om-load-editor-box1 "NOTE" (quote note) (quote ((om-load-inputfun (quote input-funbox) "object" "self" nil) (om-load-inputfun (quote input-funbox) "pitch (midicents)" "midic" 6000) (om-load-inputfun (quote input-funbox) "velocity (0-127)" "vel" 80) (om-load-inputfun (quote input-funbox) "duration (ms)" "dur" 1000) (om-load-inputfun (quote input-funbox) "MIDI channel (1-16)" "chan" 1))) (om-make-point 36 170) (om-make-point 75 86) (if (find-class (quote note) nil) (let ((newobj (make-instance (quote note) :midic 5900 :vel 80 :dur 1000 :chan 1 :from-file t))) (load-port-info newobj (quote 0)) (init-mus-color newobj (quote nil)) (set-extra-pairs newobj (quote nil)) (set-patch-pairs newobj (quote ((nil (om-load-patch-abs1 "patch" (quote nil) (quote nil) 6.17 nil "" (om-make-point 200 200) (om-make-point 400 500)))))) (set-name newobj nil) (set-tonalite newobj nil) newobj)) "x" nil (pairlis (quote (palette-mode scale show-stems obj-mode score-mode winpos winsize mode grillestep notechancolor? zoom player inport outport deltapict cmnpref staff fontsize approx)) (list 0 nil (quote t) 0 0 (om-make-point 300 20) (om-make-point 370 280) 0 1000 nil 1 (quote :midishare) 0 nil (om-make-point 0 0) (let ((newobj (make-instance (quote edition-values)))) (setf (paper-size newobj) (om-make-point 600 800)) (setf (top-margin newobj) 2) (setf (left-margin newobj) 1) (setf (right-margin newobj) 1) (setf (bottom-margin newobj) 1) (setf (orientation newobj) nil) (setf (scale newobj) nil) (setf (system-space newobj) (quote (1))) (setf (system-color newobj) (quote nil)) (setf (line-space newobj) 1) (setf (title newobj) nil) (setf (show-title? newobj) nil) (setf (show-page? newobj) nil) (setf (sheet-id newobj) nil) (setf (page-mode newobj) nil) newobj) (quote g) 24 2)) t nil nil nil))) (when (fboundp (quote set-active)) (set-active box nil)) box) (let ((box (om-load-boxcall (quote genfun) "F->MC" (quote f->mc) (quote ((om-load-inputfun (quote input-funbox) "frequency (Hz)" "FREQ" 440))) (om-make-point 191 451) nil nil nil nil 1))) (when (fboundp (quote set-active)) (set-active box nil)) box) (let ((box (om-load-boxcall (quote genfun) "MC->F" (quote mc->f) (quote ((om-load-inputfun (quote input-funbox) "pitch or pitch list (midicents)" "MIDICS?" 6000))) (om-make-point 134 308) nil nil nil nil 1))) (when (fboundp (quote set-active)) (set-active box nil)) box) (let ((box (om-load-boxcall (quote genfun) "OM*" (quote om*) (quote ((om-load-inputfun (quote input-funbox) "number or list" "ARG1" 0) (om-load-inputfun (quote input-funbox) "number or list" "ARG2" 0))) (om-make-point 181 379) (om-make-point 62 35) nil nil nil 1))) (when (fboundp (quote set-active)) (set-active box nil)) box) (let ((box (om-load-boxcomment "comment" (om-make-point 100 60) (quote "<= dist.") "" (om-make-point 295 255) nil (om-make-color 0 0 0) (om-make-font "Verdana" 12 :family "Verdana" :style (quote (:plain)) :mode (quote nil))))) (when (fboundp (quote set-active)) (set-active box nil)) box) (let ((box (om-load-boxcall (quote bastype) "aux 3" (quote t) (quote nil) (om-make-point 260 258) (om-make-point 39 30) 1.11 "1.11" nil))) (when (fboundp (quote set-active)) (set-active box nil)) box) (let ((box (om-load-boxcall (quote genfun) "OM^" (quote om^) (quote ((om-load-inputfun (quote input-funbox) "number or list" "A" 1) (om-load-inputfun (quote input-funbox) "number or list" "B" 1))) (om-make-point 231 288) (om-make-point 52 39) nil nil nil 1))) (when (fboundp (quote set-active)) (set-active box nil)) box) (let ((box (om-load-boxcall (quote bastype) "aux 2" (quote t) (quote nil) (om-make-point 249 205) (om-make-point 21 30) 1 "1" nil))) (when (fboundp (quote set-active)) (set-active box nil)) box) (let ((box (om-load-boxcall (quote bastype) "aux" (quote t) (quote nil) (om-make-point 162 172) (om-make-point 111 30) (list 1 2 3 5 9 13 17) "(1 2 3 5 9 13 17)" nil))) (when (fboundp (quote set-active)) (set-active box nil)) box) (let ((box (om-load-boxcall (quote genfun) "OM+" (quote om+) (quote ((om-load-inputfun (quote input-funbox) "number or list" "ARG1" 0) (om-load-inputfun (quote input-funbox) "number or list" "ARG2" 0))) (om-make-point 209 247) nil nil nil nil 1))) (when (fboundp (quote set-active)) (set-active box nil)) box) (let ((box (om-load-boxcomment "comment" (om-make-point 298 44) (quote "Série harmonique distordue") "" (om-make-point 62 4) nil (om-make-color 0.8104839 0.0 0.0) (om-make-font "Verdana" 14 :family "Verdana" :style (quote (:bold)) :mode (quote nil))))) (when (fboundp (quote set-active)) (set-active box nil)) box) (let ((box (om-load-boxcomment "comment" (om-make-point 146 60) (quote "Formule générale$$Tristan Murail") "" (om-make-point 226 81) nil (om-make-color 0 0 0) (om-make-font "Verdana" 12 :family "Verdana" :style (quote (:plain)) :mode (quote nil))))) (when (fboundp (quote set-active)) (set-active box nil)) box))) (quote ((3 0 1 0 nil 0) (2 0 1 1 nil 0) (5 0 4 0 nil 0) (2 0 4 1 nil 0) (1 0 6 0 nil 0) (4 0 6 1 nil 0) (10 0 7 1 nil 0) (12 0 10 0 nil 0) (9 1 11 0 nil 0) (11 0 12 0 nil 0) (15 0 12 1 nil 0) (18 0 15 0 nil 0) (14 0 15 1 nil 0) (17 0 18 0 nil 0) (16 0 18 1 nil 0))) (list (let ((newpict (make-instance (quote patch-picture) :name "Screen shot 2011-10-18 at 5.03.10 PM" :source (quote user) :pict-pathname (restore-pict-path (restore-path nil)) :thepict (om-get-picture "Screen shot 2011-10-18 at 5.03.10 PM" (quote user)) :storemode :external :draw-params (quote (p 0 0 100 100)) :extraobjs nil))) (setf (pict-pos newpict) (om-make-point 80 73)) (setf (pict-size newpict) (om-make-point 145 70)) newpict)) 6.17))
