; OM File Header - Saved 2017/04/13 12:36:11
; (6.120001 :patc (om-make-point 64 60) (om-make-point 0 23) (om-make-point 1278 414) "" 183 0 "2011/10/17 11:12:31" "2017/04/13 12:36:11")
; End File Header
(in-package :om)(load-lib-for (quote nil))(setf *om-current-persistent* (om-load-patch1 "midi" (quote ((let ((box (om-load-boxcomment "comment" (om-make-point 406 76) (quote "nas configurações:$midi-player$IAC Bus 1$in 0 / out 0 ") "" (om-make-point 125 6) nil (om-make-color 0.5604839 0.0 0.0) (om-make-font "American Typewriter" 14 :family "American Typewriter" :style (quote (:plain)) :mode (quote nil))))) (when (fboundp (quote set-active)) (set-active box nil)) box) (let ((box (om-load-boxcomment "comment" (om-make-point 117 108) (quote "=> alt + click$no input para ver a lista de instrumentos") "" (om-make-point 953 3) nil (om-make-color 0.5604839 0.0 0.0) (om-make-font "American Typewriter" 14 :family "American Typewriter" :style (quote (:plain)) :mode (quote nil))))) (when (fboundp (quote set-active)) (set-active box nil)) box) (let ((box (om-load-boxcall (quote genfun) "GM-PROGRAM 5" (quote gm-program) (quote ((om-load-inputfunmenu1 (quote input-funmenu) "Instrument name" "PROGNAME" nil (list (list "0 - Acoustic Grand Piano" 0) (list "1 - Bright Acoustic Piano" 1) (list "2 - Electric Grand Piano" 2) (list "3 - Honki Tonk Piano" 3) (list "4 - Electric Piano 1" 4) (list "5 - Electric Piano 2" 5) (list "6 - Harpsichord" 6) (list "7 - Clavinet" 7) (list "8 - Celesta" 8) (list "9 - Glockenspiel" 9) (list "10 - Music Box" 10) (list "11 - Vibraphone" 11) (list "12 - Marimba" 12) (list "13 - Xylophone" 13) (list "14 - Tubular bells" 14) (list "15 - Dulcimer" 15) (list "16 - Drawbar Organ" 16) (list "17 - Percussive Organ" 17) (list "18 - Rock Organ" 18) (list "19 - Church Organ" 19) (list "20 - Reed Organ" 20) (list "21 - Accordion" 21) (list "22 - Harmonica" 22) (list "23 - Tango Accordion" 23) (list "24 - Nylon Acoustic Guitar" 24) (list "25 - Steel Acoustic Guitar" 25) (list "26 - Jazz Electric Guitar" 26) (list "27 - Clean Electric Guitar" 27) (list "28 - Muted Electric Guitar" 28) (list "29 - Overdrive Guitar" 29) (list "30 - Distorted Guitar" 30) (list "31 - Guitar Harmonics" 31) (list "32 - Acoustic Bass" 32) (list "33 - Electric Fingered Bass" 33) (list "34 - Electric Picked Bass" 34) (list "35 - Fretless Bass" 35) (list "36 - Slap Bass 1" 36) (list "37 - Slap Bass 2" 37) (list "38 - Synth Bass 1" 38) (list "39 - Synth Bass 2" 39) (list "40 - Violin" 40) (list "41 - Viola" 41) (list "42 - Cello" 42) (list "43 - Contrabass" 43) (list "44 - Tremolo Strings" 44) (list "45 - Pizzicato Strings" 45) (list "46 - Orchestral Harp" 46) (list "47 - Timpani" 47) (list "48 - String Ensemble 1" 48) (list "49 - String Ensemble 2" 49) (list "50 - Synth Strings 1" 50) (list "51 - Synth Strings 2" 51) (list "52 - Choir Aahs" 52) (list "53 - Voice Oohs" 53) (list "54 - Synth Voice" 54) (list "55 - Orchestra Hit" 55) (list "56 - Trumpet" 56) (list "57 - Trombone" 57) (list "58 - Tuba" 58) (list "59 - Muted Trumpet" 59) (list "60 - French Horn" 60) (list "61 - Brass Section" 61) (list "62 - Synth Brass 1" 62) (list "63 - Synth Brass 2" 63) (list "64 - Soprano Sax" 64) (list "65 - Alto Sax" 65) (list "66 - Tenor Sax" 66) (list "67 - Baritone Sax" 67) (list "68 - Oboe" 68) (list "69 - English Horn" 69) (list "70 - Bassoon" 70) (list "71 - Clarinet" 71) (list "72 - Piccolo" 72) (list "73 - Flute" 73) (list "74 - Recorder" 74) (list "75 - Pan Flute" 75) (list "76 - Bottle Blow" 76) (list "77 - Shakuhachi" 77) (list "78 - Whistle" 78) (list "79 - Ocarina" 79) (list "80 - Syn Square Wave" 80) (list "81 - Syn Sawtooth Wave" 81) (list "82 - Syn Calliope" 82) (list "83 - Syn Chiff" 83) (list "84 - Syn Charang" 84) (list "85 - Syn Voice" 85) (list "86 - Syn Fifths Sawtooth w-Wave" 86) (list "87 - Syn Brass and Lead" 87) (list "88 - New Age Syn Pad" 88) (list "89 - Warm Syn Pad" 89) (list "90 - Polysynth Syn Pad" 90) (list "91 - Choir Syn Pad" 91) (list "92 - Bowed Syn Pad" 92) (list "93 - Metal Syn Pad" 93) (list "94 - Halo Syn Pad" 94) (list "95 - Sweep Syn Pad" 95) (list "96 - FX Rain" 96) (list "97 - FX Soundtrack" 97) (list "98 - FX Crystal" 98) (list "99 - FX Atmosphere" 99) (list "100 - FX Brightness" 100) (list "101 - FX Goblins" 101) (list "102 - FX Echoes" 102) (list "103 - FX Sci-fi" 103) (list "104 - Sitar" 104) (list "105 - Banjo" 105) (list "106 - Shamisen" 106) (list "107 - Koto" 107) (list "108 - Kalimba" 108) (list "109 - Bag Pipe" 109) (list "110 - Fiddle" 110) (list "111 - Shanai" 111) (list "112 - Tinkle Bell" 112) (list "113 - Agogo" 113) (list "114 - Steel Drums" 114) (list "115 - Woodblock" 115) (list "116 - Taiko Drum" 116) (list "117 - Melodic Tom" 117) (list "118 - Syn Drum" 118) (list "119 - Reverse Cymbal" 119) (list "120 - Guitar Fret Noise" 120) (list "121 - Breath Noise" 121) (list "122 - Seashore" 122) (list "123 - Bird Tweet" 123) (list "124 - Telephone Ring" 124) (list "125 - Helicopter" 125) (list "126 - Applause" 126) (list "127 - Gun Shot" 127))))) (om-make-point 873 9) nil nil nil nil 1))) (when (fboundp (quote set-active)) (set-active box nil)) box) (let ((box (om-load-boxcall (quote bastype) "aux 7" (quote t) (quote nil) (om-make-point 1114 279) (om-make-point 64 30) (list 1 2 3 4) "(1 2 3 4)" nil))) (when (fboundp (quote set-active)) (set-active box nil)) box) (let ((box (om-load-boxcall (quote genfun) "PGMOUT 2" (quote pgmout) (quote ((om-load-inputfun (quote input-funbox) "program number" "PROGM" 2) (om-load-inputfun (quote input-funbox) "MIDI channel(s)" "CHANS" 1))) (om-make-point 1084 309) nil nil nil nil 1))) (when (fboundp (quote set-active)) (set-active box nil)) box) (let ((box (om-load-boxcall (quote genfun) "X-APPEND" (quote x-append) (quote ((om-load-inputfun (quote input-funbox) "first element" "L1?" nil) (om-load-inputfun (quote input-funbox) "second element" "L2?" nil) (om-load-inputfun (quote input-funbox) "additional elements" "LST?" nil) (om-load-inputfun (quote input-funbox) "additional elements" "LST?" nil))) (om-make-point 1031 207) nil nil nil nil 1))) (when (fboundp (quote set-active)) (set-active box nil)) box) (let ((box (om-load-boxcall (quote genfun) "GM-PROGRAM 4" (quote gm-program) (quote ((om-load-inputfunmenu1 (quote input-funmenu) "Instrument name" "PROGNAME" 19 (list (list "0 - Acoustic Grand Piano" 0) (list "1 - Bright Acoustic Piano" 1) (list "2 - Electric Grand Piano" 2) (list "3 - Honki Tonk Piano" 3) (list "4 - Electric Piano 1" 4) (list "5 - Electric Piano 2" 5) (list "6 - Harpsichord" 6) (list "7 - Clavinet" 7) (list "8 - Celesta" 8) (list "9 - Glockenspiel" 9) (list "10 - Music Box" 10) (list "11 - Vibraphone" 11) (list "12 - Marimba" 12) (list "13 - Xylophone" 13) (list "14 - Tubular bells" 14) (list "15 - Dulcimer" 15) (list "16 - Drawbar Organ" 16) (list "17 - Percussive Organ" 17) (list "18 - Rock Organ" 18) (list "19 - Church Organ" 19) (list "20 - Reed Organ" 20) (list "21 - Accordion" 21) (list "22 - Harmonica" 22) (list "23 - Tango Accordion" 23) (list "24 - Nylon Acoustic Guitar" 24) (list "25 - Steel Acoustic Guitar" 25) (list "26 - Jazz Electric Guitar" 26) (list "27 - Clean Electric Guitar" 27) (list "28 - Muted Electric Guitar" 28) (list "29 - Overdrive Guitar" 29) (list "30 - Distorted Guitar" 30) (list "31 - Guitar Harmonics" 31) (list "32 - Acoustic Bass" 32) (list "33 - Electric Fingered Bass" 33) (list "34 - Electric Picked Bass" 34) (list "35 - Fretless Bass" 35) (list "36 - Slap Bass 1" 36) (list "37 - Slap Bass 2" 37) (list "38 - Synth Bass 1" 38) (list "39 - Synth Bass 2" 39) (list "40 - Violin" 40) (list "41 - Viola" 41) (list "42 - Cello" 42) (list "43 - Contrabass" 43) (list "44 - Tremolo Strings" 44) (list "45 - Pizzicato Strings" 45) (list "46 - Orchestral Harp" 46) (list "47 - Timpani" 47) (list "48 - String Ensemble 1" 48) (list "49 - String Ensemble 2" 49) (list "50 - Synth Strings 1" 50) (list "51 - Synth Strings 2" 51) (list "52 - Choir Aahs" 52) (list "53 - Voice Oohs" 53) (list "54 - Synth Voice" 54) (list "55 - Orchestra Hit" 55) (list "56 - Trumpet" 56) (list "57 - Trombone" 57) (list "58 - Tuba" 58) (list "59 - Muted Trumpet" 59) (list "60 - French Horn" 60) (list "61 - Brass Section" 61) (list "62 - Synth Brass 1" 62) (list "63 - Synth Brass 2" 63) (list "64 - Soprano Sax" 64) (list "65 - Alto Sax" 65) (list "66 - Tenor Sax" 66) (list "67 - Baritone Sax" 67) (list "68 - Oboe" 68) (list "69 - English Horn" 69) (list "70 - Bassoon" 70) (list "71 - Clarinet" 71) (list "72 - Piccolo" 72) (list "73 - Flute" 73) (list "74 - Recorder" 74) (list "75 - Pan Flute" 75) (list "76 - Bottle Blow" 76) (list "77 - Shakuhachi" 77) (list "78 - Whistle" 78) (list "79 - Ocarina" 79) (list "80 - Syn Square Wave" 80) (list "81 - Syn Sawtooth Wave" 81) (list "82 - Syn Calliope" 82) (list "83 - Syn Chiff" 83) (list "84 - Syn Charang" 84) (list "85 - Syn Voice" 85) (list "86 - Syn Fifths Sawtooth w-Wave" 86) (list "87 - Syn Brass and Lead" 87) (list "88 - New Age Syn Pad" 88) (list "89 - Warm Syn Pad" 89) (list "90 - Polysynth Syn Pad" 90) (list "91 - Choir Syn Pad" 91) (list "92 - Bowed Syn Pad" 92) (list "93 - Metal Syn Pad" 93) (list "94 - Halo Syn Pad" 94) (list "95 - Sweep Syn Pad" 95) (list "96 - FX Rain" 96) (list "97 - FX Soundtrack" 97) (list "98 - FX Crystal" 98) (list "99 - FX Atmosphere" 99) (list "100 - FX Brightness" 100) (list "101 - FX Goblins" 101) (list "102 - FX Echoes" 102) (list "103 - FX Sci-fi" 103) (list "104 - Sitar" 104) (list "105 - Banjo" 105) (list "106 - Shamisen" 106) (list "107 - Koto" 107) (list "108 - Kalimba" 108) (list "109 - Bag Pipe" 109) (list "110 - Fiddle" 110) (list "111 - Shanai" 111) (list "112 - Tinkle Bell" 112) (list "113 - Agogo" 113) (list "114 - Steel Drums" 114) (list "115 - Woodblock" 115) (list "116 - Taiko Drum" 116) (list "117 - Melodic Tom" 117) (list "118 - Syn Drum" 118) (list "119 - Reverse Cymbal" 119) (list "120 - Guitar Fret Noise" 120) (list "121 - Breath Noise" 121) (list "122 - Seashore" 122) (list "123 - Bird Tweet" 123) (list "124 - Telephone Ring" 124) (list "125 - Helicopter" 125) (list "126 - Applause" 126) (list "127 - Gun Shot" 127))))) (om-make-point 1167 103) nil nil nil nil 1))) (when (fboundp (quote set-active)) (set-active box nil)) box) (let ((box (om-load-boxcall (quote genfun) "GM-PROGRAM 3" (quote gm-program) (quote ((om-load-inputfunmenu1 (quote input-funmenu) "Instrument name" "PROGNAME" 14 (list (list "0 - Acoustic Grand Piano" 0) (list "1 - Bright Acoustic Piano" 1) (list "2 - Electric Grand Piano" 2) (list "3 - Honki Tonk Piano" 3) (list "4 - Electric Piano 1" 4) (list "5 - Electric Piano 2" 5) (list "6 - Harpsichord" 6) (list "7 - Clavinet" 7) (list "8 - Celesta" 8) (list "9 - Glockenspiel" 9) (list "10 - Music Box" 10) (list "11 - Vibraphone" 11) (list "12 - Marimba" 12) (list "13 - Xylophone" 13) (list "14 - Tubular bells" 14) (list "15 - Dulcimer" 15) (list "16 - Drawbar Organ" 16) (list "17 - Percussive Organ" 17) (list "18 - Rock Organ" 18) (list "19 - Church Organ" 19) (list "20 - Reed Organ" 20) (list "21 - Accordion" 21) (list "22 - Harmonica" 22) (list "23 - Tango Accordion" 23) (list "24 - Nylon Acoustic Guitar" 24) (list "25 - Steel Acoustic Guitar" 25) (list "26 - Jazz Electric Guitar" 26) (list "27 - Clean Electric Guitar" 27) (list "28 - Muted Electric Guitar" 28) (list "29 - Overdrive Guitar" 29) (list "30 - Distorted Guitar" 30) (list "31 - Guitar Harmonics" 31) (list "32 - Acoustic Bass" 32) (list "33 - Electric Fingered Bass" 33) (list "34 - Electric Picked Bass" 34) (list "35 - Fretless Bass" 35) (list "36 - Slap Bass 1" 36) (list "37 - Slap Bass 2" 37) (list "38 - Synth Bass 1" 38) (list "39 - Synth Bass 2" 39) (list "40 - Violin" 40) (list "41 - Viola" 41) (list "42 - Cello" 42) (list "43 - Contrabass" 43) (list "44 - Tremolo Strings" 44) (list "45 - Pizzicato Strings" 45) (list "46 - Orchestral Harp" 46) (list "47 - Timpani" 47) (list "48 - String Ensemble 1" 48) (list "49 - String Ensemble 2" 49) (list "50 - Synth Strings 1" 50) (list "51 - Synth Strings 2" 51) (list "52 - Choir Aahs" 52) (list "53 - Voice Oohs" 53) (list "54 - Synth Voice" 54) (list "55 - Orchestra Hit" 55) (list "56 - Trumpet" 56) (list "57 - Trombone" 57) (list "58 - Tuba" 58) (list "59 - Muted Trumpet" 59) (list "60 - French Horn" 60) (list "61 - Brass Section" 61) (list "62 - Synth Brass 1" 62) (list "63 - Synth Brass 2" 63) (list "64 - Soprano Sax" 64) (list "65 - Alto Sax" 65) (list "66 - Tenor Sax" 66) (list "67 - Baritone Sax" 67) (list "68 - Oboe" 68) (list "69 - English Horn" 69) (list "70 - Bassoon" 70) (list "71 - Clarinet" 71) (list "72 - Piccolo" 72) (list "73 - Flute" 73) (list "74 - Recorder" 74) (list "75 - Pan Flute" 75) (list "76 - Bottle Blow" 76) (list "77 - Shakuhachi" 77) (list "78 - Whistle" 78) (list "79 - Ocarina" 79) (list "80 - Syn Square Wave" 80) (list "81 - Syn Sawtooth Wave" 81) (list "82 - Syn Calliope" 82) (list "83 - Syn Chiff" 83) (list "84 - Syn Charang" 84) (list "85 - Syn Voice" 85) (list "86 - Syn Fifths Sawtooth w-Wave" 86) (list "87 - Syn Brass and Lead" 87) (list "88 - New Age Syn Pad" 88) (list "89 - Warm Syn Pad" 89) (list "90 - Polysynth Syn Pad" 90) (list "91 - Choir Syn Pad" 91) (list "92 - Bowed Syn Pad" 92) (list "93 - Metal Syn Pad" 93) (list "94 - Halo Syn Pad" 94) (list "95 - Sweep Syn Pad" 95) (list "96 - FX Rain" 96) (list "97 - FX Soundtrack" 97) (list "98 - FX Crystal" 98) (list "99 - FX Atmosphere" 99) (list "100 - FX Brightness" 100) (list "101 - FX Goblins" 101) (list "102 - FX Echoes" 102) (list "103 - FX Sci-fi" 103) (list "104 - Sitar" 104) (list "105 - Banjo" 105) (list "106 - Shamisen" 106) (list "107 - Koto" 107) (list "108 - Kalimba" 108) (list "109 - Bag Pipe" 109) (list "110 - Fiddle" 110) (list "111 - Shanai" 111) (list "112 - Tinkle Bell" 112) (list "113 - Agogo" 113) (list "114 - Steel Drums" 114) (list "115 - Woodblock" 115) (list "116 - Taiko Drum" 116) (list "117 - Melodic Tom" 117) (list "118 - Syn Drum" 118) (list "119 - Reverse Cymbal" 119) (list "120 - Guitar Fret Noise" 120) (list "121 - Breath Noise" 121) (list "122 - Seashore" 122) (list "123 - Bird Tweet" 123) (list "124 - Telephone Ring" 124) (list "125 - Helicopter" 125) (list "126 - Applause" 126) (list "127 - Gun Shot" 127))))) (om-make-point 1071 103) nil nil nil nil 1))) (when (fboundp (quote set-active)) (set-active box nil)) box) (let ((box (om-load-boxcall (quote genfun) "GM-PROGRAM 2" (quote gm-program) (quote ((om-load-inputfunmenu1 (quote input-funmenu) "Instrument name" "PROGNAME" 13 (list (list "0 - Acoustic Grand Piano" 0) (list "1 - Bright Acoustic Piano" 1) (list "2 - Electric Grand Piano" 2) (list "3 - Honki Tonk Piano" 3) (list "4 - Electric Piano 1" 4) (list "5 - Electric Piano 2" 5) (list "6 - Harpsichord" 6) (list "7 - Clavinet" 7) (list "8 - Celesta" 8) (list "9 - Glockenspiel" 9) (list "10 - Music Box" 10) (list "11 - Vibraphone" 11) (list "12 - Marimba" 12) (list "13 - Xylophone" 13) (list "14 - Tubular bells" 14) (list "15 - Dulcimer" 15) (list "16 - Drawbar Organ" 16) (list "17 - Percussive Organ" 17) (list "18 - Rock Organ" 18) (list "19 - Church Organ" 19) (list "20 - Reed Organ" 20) (list "21 - Accordion" 21) (list "22 - Harmonica" 22) (list "23 - Tango Accordion" 23) (list "24 - Nylon Acoustic Guitar" 24) (list "25 - Steel Acoustic Guitar" 25) (list "26 - Jazz Electric Guitar" 26) (list "27 - Clean Electric Guitar" 27) (list "28 - Muted Electric Guitar" 28) (list "29 - Overdrive Guitar" 29) (list "30 - Distorted Guitar" 30) (list "31 - Guitar Harmonics" 31) (list "32 - Acoustic Bass" 32) (list "33 - Electric Fingered Bass" 33) (list "34 - Electric Picked Bass" 34) (list "35 - Fretless Bass" 35) (list "36 - Slap Bass 1" 36) (list "37 - Slap Bass 2" 37) (list "38 - Synth Bass 1" 38) (list "39 - Synth Bass 2" 39) (list "40 - Violin" 40) (list "41 - Viola" 41) (list "42 - Cello" 42) (list "43 - Contrabass" 43) (list "44 - Tremolo Strings" 44) (list "45 - Pizzicato Strings" 45) (list "46 - Orchestral Harp" 46) (list "47 - Timpani" 47) (list "48 - String Ensemble 1" 48) (list "49 - String Ensemble 2" 49) (list "50 - Synth Strings 1" 50) (list "51 - Synth Strings 2" 51) (list "52 - Choir Aahs" 52) (list "53 - Voice Oohs" 53) (list "54 - Synth Voice" 54) (list "55 - Orchestra Hit" 55) (list "56 - Trumpet" 56) (list "57 - Trombone" 57) (list "58 - Tuba" 58) (list "59 - Muted Trumpet" 59) (list "60 - French Horn" 60) (list "61 - Brass Section" 61) (list "62 - Synth Brass 1" 62) (list "63 - Synth Brass 2" 63) (list "64 - Soprano Sax" 64) (list "65 - Alto Sax" 65) (list "66 - Tenor Sax" 66) (list "67 - Baritone Sax" 67) (list "68 - Oboe" 68) (list "69 - English Horn" 69) (list "70 - Bassoon" 70) (list "71 - Clarinet" 71) (list "72 - Piccolo" 72) (list "73 - Flute" 73) (list "74 - Recorder" 74) (list "75 - Pan Flute" 75) (list "76 - Bottle Blow" 76) (list "77 - Shakuhachi" 77) (list "78 - Whistle" 78) (list "79 - Ocarina" 79) (list "80 - Syn Square Wave" 80) (list "81 - Syn Sawtooth Wave" 81) (list "82 - Syn Calliope" 82) (list "83 - Syn Chiff" 83) (list "84 - Syn Charang" 84) (list "85 - Syn Voice" 85) (list "86 - Syn Fifths Sawtooth w-Wave" 86) (list "87 - Syn Brass and Lead" 87) (list "88 - New Age Syn Pad" 88) (list "89 - Warm Syn Pad" 89) (list "90 - Polysynth Syn Pad" 90) (list "91 - Choir Syn Pad" 91) (list "92 - Bowed Syn Pad" 92) (list "93 - Metal Syn Pad" 93) (list "94 - Halo Syn Pad" 94) (list "95 - Sweep Syn Pad" 95) (list "96 - FX Rain" 96) (list "97 - FX Soundtrack" 97) (list "98 - FX Crystal" 98) (list "99 - FX Atmosphere" 99) (list "100 - FX Brightness" 100) (list "101 - FX Goblins" 101) (list "102 - FX Echoes" 102) (list "103 - FX Sci-fi" 103) (list "104 - Sitar" 104) (list "105 - Banjo" 105) (list "106 - Shamisen" 106) (list "107 - Koto" 107) (list "108 - Kalimba" 108) (list "109 - Bag Pipe" 109) (list "110 - Fiddle" 110) (list "111 - Shanai" 111) (list "112 - Tinkle Bell" 112) (list "113 - Agogo" 113) (list "114 - Steel Drums" 114) (list "115 - Woodblock" 115) (list "116 - Taiko Drum" 116) (list "117 - Melodic Tom" 117) (list "118 - Syn Drum" 118) (list "119 - Reverse Cymbal" 119) (list "120 - Guitar Fret Noise" 120) (list "121 - Breath Noise" 121) (list "122 - Seashore" 122) (list "123 - Bird Tweet" 123) (list "124 - Telephone Ring" 124) (list "125 - Helicopter" 125) (list "126 - Applause" 126) (list "127 - Gun Shot" 127))))) (om-make-point 975 105) nil nil nil nil 1))) (when (fboundp (quote set-active)) (set-active box nil)) box) (let ((box (om-load-boxcall (quote genfun) "GM-PROGRAM" (quote gm-program) (quote ((om-load-inputfunmenu1 (quote input-funmenu) "Instrument name" "PROGNAME" 6 (list (list "0 - Acoustic Grand Piano" 0) (list "1 - Bright Acoustic Piano" 1) (list "2 - Electric Grand Piano" 2) (list "3 - Honki Tonk Piano" 3) (list "4 - Electric Piano 1" 4) (list "5 - Electric Piano 2" 5) (list "6 - Harpsichord" 6) (list "7 - Clavinet" 7) (list "8 - Celesta" 8) (list "9 - Glockenspiel" 9) (list "10 - Music Box" 10) (list "11 - Vibraphone" 11) (list "12 - Marimba" 12) (list "13 - Xylophone" 13) (list "14 - Tubular bells" 14) (list "15 - Dulcimer" 15) (list "16 - Drawbar Organ" 16) (list "17 - Percussive Organ" 17) (list "18 - Rock Organ" 18) (list "19 - Church Organ" 19) (list "20 - Reed Organ" 20) (list "21 - Accordion" 21) (list "22 - Harmonica" 22) (list "23 - Tango Accordion" 23) (list "24 - Nylon Acoustic Guitar" 24) (list "25 - Steel Acoustic Guitar" 25) (list "26 - Jazz Electric Guitar" 26) (list "27 - Clean Electric Guitar" 27) (list "28 - Muted Electric Guitar" 28) (list "29 - Overdrive Guitar" 29) (list "30 - Distorted Guitar" 30) (list "31 - Guitar Harmonics" 31) (list "32 - Acoustic Bass" 32) (list "33 - Electric Fingered Bass" 33) (list "34 - Electric Picked Bass" 34) (list "35 - Fretless Bass" 35) (list "36 - Slap Bass 1" 36) (list "37 - Slap Bass 2" 37) (list "38 - Synth Bass 1" 38) (list "39 - Synth Bass 2" 39) (list "40 - Violin" 40) (list "41 - Viola" 41) (list "42 - Cello" 42) (list "43 - Contrabass" 43) (list "44 - Tremolo Strings" 44) (list "45 - Pizzicato Strings" 45) (list "46 - Orchestral Harp" 46) (list "47 - Timpani" 47) (list "48 - String Ensemble 1" 48) (list "49 - String Ensemble 2" 49) (list "50 - Synth Strings 1" 50) (list "51 - Synth Strings 2" 51) (list "52 - Choir Aahs" 52) (list "53 - Voice Oohs" 53) (list "54 - Synth Voice" 54) (list "55 - Orchestra Hit" 55) (list "56 - Trumpet" 56) (list "57 - Trombone" 57) (list "58 - Tuba" 58) (list "59 - Muted Trumpet" 59) (list "60 - French Horn" 60) (list "61 - Brass Section" 61) (list "62 - Synth Brass 1" 62) (list "63 - Synth Brass 2" 63) (list "64 - Soprano Sax" 64) (list "65 - Alto Sax" 65) (list "66 - Tenor Sax" 66) (list "67 - Baritone Sax" 67) (list "68 - Oboe" 68) (list "69 - English Horn" 69) (list "70 - Bassoon" 70) (list "71 - Clarinet" 71) (list "72 - Piccolo" 72) (list "73 - Flute" 73) (list "74 - Recorder" 74) (list "75 - Pan Flute" 75) (list "76 - Bottle Blow" 76) (list "77 - Shakuhachi" 77) (list "78 - Whistle" 78) (list "79 - Ocarina" 79) (list "80 - Syn Square Wave" 80) (list "81 - Syn Sawtooth Wave" 81) (list "82 - Syn Calliope" 82) (list "83 - Syn Chiff" 83) (list "84 - Syn Charang" 84) (list "85 - Syn Voice" 85) (list "86 - Syn Fifths Sawtooth w-Wave" 86) (list "87 - Syn Brass and Lead" 87) (list "88 - New Age Syn Pad" 88) (list "89 - Warm Syn Pad" 89) (list "90 - Polysynth Syn Pad" 90) (list "91 - Choir Syn Pad" 91) (list "92 - Bowed Syn Pad" 92) (list "93 - Metal Syn Pad" 93) (list "94 - Halo Syn Pad" 94) (list "95 - Sweep Syn Pad" 95) (list "96 - FX Rain" 96) (list "97 - FX Soundtrack" 97) (list "98 - FX Crystal" 98) (list "99 - FX Atmosphere" 99) (list "100 - FX Brightness" 100) (list "101 - FX Goblins" 101) (list "102 - FX Echoes" 102) (list "103 - FX Sci-fi" 103) (list "104 - Sitar" 104) (list "105 - Banjo" 105) (list "106 - Shamisen" 106) (list "107 - Koto" 107) (list "108 - Kalimba" 108) (list "109 - Bag Pipe" 109) (list "110 - Fiddle" 110) (list "111 - Shanai" 111) (list "112 - Tinkle Bell" 112) (list "113 - Agogo" 113) (list "114 - Steel Drums" 114) (list "115 - Woodblock" 115) (list "116 - Taiko Drum" 116) (list "117 - Melodic Tom" 117) (list "118 - Syn Drum" 118) (list "119 - Reverse Cymbal" 119) (list "120 - Guitar Fret Noise" 120) (list "121 - Breath Noise" 121) (list "122 - Seashore" 122) (list "123 - Bird Tweet" 123) (list "124 - Telephone Ring" 124) (list "125 - Helicopter" 125) (list "126 - Applause" 126) (list "127 - Gun Shot" 127))))) (om-make-point 878 107) nil nil nil nil 1))) (when (fboundp (quote set-active)) (set-active box nil)) box) (let ((box (om-load-boxcomment "comment" (om-make-point 113 78) (quote "évaluer pgmout para ele funcionar") "" (om-make-point 716 156) nil (om-make-color 0 0 0) (om-make-font "Verdana" 12 :family "Verdana" :style (quote (:plain)) :mode (quote nil))))) (when (fboundp (quote set-active)) (set-active box nil)) box) (let ((box (om-load-boxcall (quote bastype) "aux 6" (quote t) (quote nil) (om-make-point 675 117) (om-make-point 64 30) (list 1 2 3 4) "(1 2 3 4)" nil))) (when (fboundp (quote set-active)) (set-active box nil)) box) (let ((box (om-load-boxcall (quote bastype) "aux 5" (quote t) (quote nil) (om-make-point 569 115) (om-make-point 92 30) (list 13 33 45 80) "(13 33 45 80)" nil))) (when (fboundp (quote set-active)) (set-active box nil)) box) (let ((box (om-load-boxcall (quote genfun) "PGMOUT" (quote pgmout) (quote ((om-load-inputfun (quote input-funbox) "program number" "PROGM" 2) (om-load-inputfun (quote input-funbox) "MIDI channel(s)" "CHANS" 1))) (om-make-point 645 153) nil nil nil nil 1))) (when (fboundp (quote set-active)) (set-active box nil)) box) (let ((box (om-load-boxcall (quote bastype) "aux 4" (quote t) (quote nil) (om-make-point 436 158) (om-make-point 70 30) (list 1 2 3 4) "(1 2 3 4)" nil))) (when (fboundp (quote set-active)) (set-active box nil)) box) (let ((box (om-load-boxcomment "comment" (om-make-point 56 29) (quote "durées") "" (om-make-point 368 87) nil (om-make-color 0 0 0) (om-make-font "Verdana" 12 :family "Verdana" :style (quote (:plain)) :mode (quote nil))))) (when (fboundp (quote set-active)) (set-active box nil)) box) (let ((box (om-load-boxcall (quote bastype) "aux 3" (quote t) (quote nil) (om-make-point 363 119) (om-make-point 127 30) (list 250 500 750 1000) "(250 500 750 1000)" nil))) (when (fboundp (quote set-active)) (set-active box nil)) box) (let ((box (om-load-boxcomment "comment" (om-make-point 57 30) (quote "velocité") "" (om-make-point 281 86) nil (om-make-color 0 0 0) (om-make-font "Verdana" 12 :family "Verdana" :style (quote (:plain)) :mode (quote nil))))) (when (fboundp (quote set-active)) (set-active box nil)) box) (let ((box (om-load-boxcomment "comment" (om-make-point 96 23) (quote "midic") "" (om-make-point 130 88) nil (om-make-color 0 0 0) (om-make-font "Verdana" 12 :family "Verdana" :style (quote (:plain)) :mode (quote nil))))) (when (fboundp (quote set-active)) (set-active box nil)) box) (let ((box (om-load-boxcall (quote bastype) "aux 2" (quote t) (quote nil) (om-make-point 290 119) (om-make-point 45 30) (list 100) "(100)" nil))) (when (fboundp (quote set-active)) (set-active box nil)) box) (let ((box (om-load-boxcall (quote bastype) "aux" (quote t) (quote nil) (om-make-point 131 119) (om-make-point 148 30) (list 6000 6400 6800 7100) "(6000 6400 6800 7100)" nil))) (when (fboundp (quote set-active)) (set-active box nil)) box) (let ((box (om-load-boxcomment "comment" (om-make-point 73 34) (quote "chord =>") "" (om-make-point 93 209) nil (om-make-color 0 0 0) (om-make-font "Verdana" 12 :family "Verdana" :style (quote (:plain)) :mode (quote nil))))) (when (fboundp (quote set-active)) (set-active box nil)) box) (let ((box (om-load-editor-box1 "CHORD" (quote chord) (quote ((om-load-inputfun (quote input-funbox) "object" "self" nil) (om-load-inputfun (quote input-funbox) "pitches (list of midicents)" "lmidic" (list 6000)) (om-load-inputfun (quote input-funbox) "velocities (list of values 0-127)" "lvel" (list 100)) (om-load-inputfun (quote input-funbox) "offsets (list of values in ms)" "loffset" (list 0)) (om-load-inputfun (quote input-funbox) "durations (list of values in ms)" "ldur" (list 1000)) (om-load-inputfun (quote input-funbox) "MIDI channels (list of values 0-16)" "lchan" (list 1)))) (om-make-point 181 188) (om-make-point 312 82) (let ((thechord (make-instance (quote chord) :lmidic (quote (6400 6800 7100)) :ldur (quote (500 750 1000)) :lvel (quote (100 100 100)) :loffset (quote (0 0 0)) :lchan (quote (2 3 4))))) (load-port-info thechord (quote (0 0 0))) (init-mus-color thechord (quote nil)) (set-extra-pairs thechord (quote nil)) (set-tonalite thechord nil) thechord) "x" nil (pairlis (quote (palette-mode scale show-stems obj-mode score-mode winpos winsize mode grillestep notechancolor? zoom player inport outport deltapict cmnpref staff fontsize approx cursor-mode)) (list 0 nil (quote t) 0 0 (om-make-point 404 248) (om-make-point 716 329) 1 1000 nil 1 (quote :midishare) 0 nil (om-make-point 0 0) (let ((newobj (make-instance (quote edition-values)))) (setf (paper-size newobj) (om-make-point 600 800)) (setf (top-margin newobj) 2) (setf (left-margin newobj) 1) (setf (right-margin newobj) 1) (setf (bottom-margin newobj) 1) (setf (orientation newobj) nil) (setf (scale newobj) nil) (setf (system-space newobj) (quote (1))) (setf (system-color newobj) (quote nil)) (setf (line-space newobj) 1) (setf (title newobj) nil) (setf (show-title? newobj) nil) (setf (show-page? newobj) nil) (setf (sheet-id newobj) nil) (setf (page-mode newobj) nil) newobj) (quote g) 24 2 (quote :normal))) t nil nil nil))) (when (fboundp (quote set-active)) (set-active box nil)) box))) (quote ((5 0 4 0 nil 0) (3 0 4 1 nil 0) (9 0 5 0 nil 0) (8 0 5 1 nil 0) (7 0 5 2 nil 0) (6 0 5 3 nil 0) (12 0 13 0 nil 0) (11 0 13 1 nil 0) (20 0 22 1 nil 0) (19 0 22 2 nil 0) (16 0 22 4 nil 0) (14 0 22 5 nil 0))) nil 6.120001))
