; OM File Header - Saved 2021/09/02 0:15:06
; (6.070005 :patc (om-make-point 32 10) (om-make-point 322 394) (om-make-point 859 431) "" 183 0 nil "2021/09/02 0:15:06")
; End File Header
; External resources 
; (list (list (quote :picture) "#P\"../../../resources/pict/omsox\"") (list (quote :sound) "#P\"../../../../../../../Research/OM-SoX/OM-SoX 1.0/resources/sounds/seagull.wav\"" "#P\"../../../../../../../Research/OM-SoX/OM-SoX 1.0/resources/sounds/sax-tenor-multi.wav\"" "#P\"../../../../../../../Research/OM-SoX/OM-SoX 1.0/resources/sounds/altosax-multi-1.wav\""))
(in-package :om)(load-lib-for (quote nil))(setf *om-current-persistent* (om-load-patch1 "1-sox-player" (quote ((om-load-boxcall (quote abstraction) "OpenMusic version >= 6.7" (om-load-patch-abs1 "OpenMusic version >= 6.7" (quote ((om-load-editor-box1 "seagull.wav" (quote sound) (quote ((om-load-inputfun (quote input-funbox) "object" "self" nil) (om-load-inputfun (quote input-funbox) "a track index for multichannel mixing" "tracknum" 0) (om-load-inputfun (quote input-funbox) "a list of markers (s)" "markers" nil))) (om-make-point 537 387) (om-make-point 80 50) (let ((newobj (let ((thesound (load-sound (om-make-pathname :directory (quote (:absolute "Users" "Marlon_MBPro3" "Research" "OM-SoX" "OM-SoX 1.0" "resources" "sounds")) :device nil :host nil :name "seagull" :type "wav") 2 100 0.0))) (when thesound (setf (markers thesound) (quote nil))) thesound))) (load-port-info newobj (quote nil)) (init-mus-color newobj (quote nil)) (set-extra-pairs newobj (quote nil)) (set-patch-pairs newobj (quote nil)) (set-name newobj "seagull.wav") (set-tonalite newobj nil) newobj) "x" nil (pairlis (quote (approx fontsize staff cmnpref deltapict outport inport player zoom notechancolor? grillestep mode winsize winpos score-mode obj-mode show-stems scale palette-mode)) (list 2 24 (quote g) (let ((newobj (make-instance (quote edition-values)))) (setf (paper-size newobj) (om-make-point 600 800)) (setf (top-margin newobj) 2) (setf (left-margin newobj) 1) (setf (right-margin newobj) 1) (setf (bottom-margin newobj) 1) (setf (orientation newobj) nil) (setf (scale newobj) nil) (setf (system-space newobj) (quote (1))) (setf (system-color newobj) (quote nil)) (setf (line-space newobj) 1) (setf (title newobj) nil) (setf (show-title? newobj) nil) (setf (show-page? newobj) nil) (setf (sheet-id newobj) nil) (setf (page-mode newobj) nil) newobj) (om-make-point 0 0) nil 0 (quote :soxplayer) 1 nil 1000 0 (om-make-point 670 305) (om-make-point 400 22) 0 1 (quote t) nil 0)) t nil nil nil) (om-load-editor-box1 "seagull.wav" (quote sound) (quote ((om-load-inputfun (quote input-funbox) "object" "self" nil) (om-load-inputfun (quote input-funbox) "a track index for multichannel mixing" "tracknum" 0) (om-load-inputfun (quote input-funbox) "a list of markers (s)" "markers" nil))) (om-make-point 375 387) (om-make-point 80 50) (let ((newobj (let ((thesound (load-sound (om-make-pathname :directory (quote (:absolute "Users" "Marlon_MBPro3" "Research" "OM-SoX" "OM-SoX 1.0" "resources" "sounds")) :device nil :host nil :name "seagull" :type "wav") 1 100 0.0))) (when thesound (setf (markers thesound) (quote nil))) thesound))) (load-port-info newobj (quote nil)) (init-mus-color newobj (quote nil)) (set-extra-pairs newobj (quote nil)) (set-patch-pairs newobj (quote nil)) (set-name newobj "seagull.wav") (set-tonalite newobj nil) newobj) "x" nil (pairlis (quote (approx fontsize staff cmnpref deltapict outport inport player zoom notechancolor? grillestep mode winsize winpos score-mode obj-mode show-stems scale palette-mode)) (list 2 24 (quote g) (let ((newobj (make-instance (quote edition-values)))) (setf (paper-size newobj) (om-make-point 600 800)) (setf (top-margin newobj) 2) (setf (left-margin newobj) 1) (setf (right-margin newobj) 1) (setf (bottom-margin newobj) 1) (setf (orientation newobj) nil) (setf (scale newobj) nil) (setf (system-space newobj) (quote (1))) (setf (system-color newobj) (quote nil)) (setf (line-space newobj) 1) (setf (title newobj) nil) (setf (show-title? newobj) nil) (setf (show-page? newobj) nil) (setf (sheet-id newobj) nil) (setf (page-mode newobj) nil) newobj) (om-make-point 0 0) nil 0 (quote :soxplayer) 1 nil 1000 0 (om-make-point 622 308) (om-make-point 400 22) 0 1 (quote t) nil 0)) t nil nil nil) (om-load-editor-box1 "seagull.wav" (quote sound) (quote ((om-load-inputfun (quote input-funbox) "object" "self" nil) (om-load-inputfun (quote input-funbox) "a track index for multichannel mixing" "tracknum" 0) (om-load-inputfun (quote input-funbox) "a list of markers (s)" "markers" nil))) (om-make-point 217 387) (om-make-point 80 50) (let ((newobj (let ((thesound (load-sound (om-make-pathname :directory (quote (:absolute "Users" "Marlon_MBPro3" "Research" "OM-SoX" "OM-SoX 1.0" "resources" "sounds")) :device nil :host nil :name "seagull" :type "wav") 0 100 0))) (when thesound (setf (markers thesound) (quote nil))) thesound))) (load-port-info newobj (quote nil)) (init-mus-color newobj (quote nil)) (set-extra-pairs newobj (quote nil)) (set-patch-pairs newobj (quote nil)) (set-name newobj "seagull.wav") (set-tonalite newobj nil) newobj) "x" nil (pairlis (quote (approx fontsize staff cmnpref deltapict outport inport player zoom notechancolor? grillestep mode winsize winpos score-mode obj-mode show-stems scale palette-mode)) (list 2 24 (quote g) (let ((newobj (make-instance (quote edition-values)))) (setf (paper-size newobj) (om-make-point 600 800)) (setf (top-margin newobj) 2) (setf (left-margin newobj) 1) (setf (right-margin newobj) 1) (setf (bottom-margin newobj) 1) (setf (orientation newobj) nil) (setf (scale newobj) nil) (setf (system-space newobj) (quote (1))) (setf (system-color newobj) (quote nil)) (setf (line-space newobj) 1) (setf (title newobj) nil) (setf (show-title? newobj) nil) (setf (show-page? newobj) nil) (setf (sheet-id newobj) nil) (setf (page-mode newobj) nil) newobj) (om-make-point 0 0) nil 0 (quote :soxplayer) 1 nil 1000 0 (om-make-point 593 301) (om-make-point 400 22) 0 1 (quote t) nil 0)) t nil nil nil) (om-load-boxcomment "comment" (om-make-point 90 30) (quote "Panning = 2") "" (om-make-point 537 354) nil (om-make-color 0.0 0.0 1.0) (om-make-font "Verdana" 12.0 :family "Verdana" :style (quote (:italic)) :mode (quote nil))) (om-load-boxcomment "comment" (om-make-point 90 30) (quote "Panning = 1") "" (om-make-point 376 354) nil (om-make-color 0.0 0.0 1.0) (om-make-font "Verdana" 12.0 :family "Verdana" :style (quote (:italic)) :mode (quote nil))) (om-load-boxcomment "comment" (om-make-point 90 30) (quote "Panning = 0") "" (om-make-point 210 354) nil (om-make-color 0.0 0.0 1.0) (om-make-font "Verdana" 12.0 :family "Verdana" :style (quote (:italic)) :mode (quote nil))) (om-load-boxcomment "comment 7" (om-make-point 605 34) (quote "NB: What follows applies to the audio system in OpenMusic versions 6.7 and higher") "" (om-make-point 63 5) nil (om-make-color 0.0 0.19194556 1.0) (om-make-font "Verdana" 14.0 :family "Verdana" :style (quote (:italic)) :mode (quote nil))) (om-load-boxcomment "comment 6" (om-make-point 540 60) (quote "In OM6.7 and higher the sound editor will have its own interface elements for OM-SoX: $$<spectrogram> , <gain> , <panning> ") "" (om-make-point 63 57) nil (om-make-color 0.0 0.19194556 1.0) (om-make-font "Verdana" 12.0 :family "Verdana" :style (quote (:italic)) :mode (quote nil))) (om-load-boxcomment "comment 5" (om-make-point 801 135) (quote "<sonagram> allows you to calculate and plot a sonagram directly into the sound object. NB: Works for multichannel files as well!$$<gain> is a value in dB (between -76 and +18)$$<panning> is a decimal number indicating the panning position between two adjacent audio channels.$E.g. the value 1.5 means that the audio is being equally distributed (panned according to a power-law) between channels 1 and 2.$NB: a value of '0' for panning, means no panning, i.e. the audio is left unchanged.") "" (om-make-point 35 167) nil (om-make-color 0.0 0.19194556 1.0) (om-make-font "Verdana" 12.0 :family "Verdana" :style (quote (:italic)) :mode (quote nil))) (om-load-boxcomment "comment" (om-make-point 78 30) (quote "Examples:") "" (om-make-point 52 327) nil (om-make-color 0.0 0.0 1.0) (om-make-font "Verdana" 12.0 :family "Verdana" :style (quote (:italic)) :mode (quote nil))))) (quote nil) 6.070005 nil "" (om-make-point 355 214) (om-make-point 913 488)) (quote nil) (om-make-point 375 334) nil nil nil "OpenMusic version >= 6.7") (om-load-boxcall (quote abstraction) "OpenMusic version < 6.7" (om-load-patch-abs1 "OpenMusic version < 6.7" (quote ((om-load-boxcomment "comment 8" (om-make-point 813 30) (quote "OM-SoX allows for panning of sounds in a multi-channel configuration using <tracknum> and <pan> of the standard 'sound' object.") "" (om-make-point 27 96) nil (om-make-color 0.0 0.19194556 1.0) (om-make-font "Verdana" 12.0 :family "Verdana" :style (quote (:italic)) :mode (quote nil))) (om-load-boxcomment "comment 7" (om-make-point 569 34) (quote "NB: What follows applies to the audio system in OpenMusic versions below 6.7") "" (om-make-point 63 5) nil (om-make-color 0.0 0.19194556 1.0) (om-make-font "Verdana" 14.0 :family "Verdana" :style (quote (:italic)) :mode (quote nil))) (om-load-boxcomment "comment 5" (om-make-point 661 180) (quote "When <tracknum> is set to 0 no panning is applied and audio is left unchanged$When <tracknum> is set to a number different from 0, this value is taken as the reference output channel.$In this case <pan> will control the panning between the reference channel and an adjacent channel: $- A negative value means panning between reference channel and the next-lower channel. $  (A value of -100 means the sound will be completely panned to the lower channel)$$- A positive value means panning between reference channel and the next-higher channel number. $  (A value of 100 means the sound will be completely panned to the higher channel)$$- A value of 0 means no panning, i.e. the sound wil be rendered only on the reference channel.$NB: Multichannel audio will be mixed down into a single channel before panning.") "" (om-make-point 29 166) nil (om-make-color 0.0 0.19194556 1.0) (om-make-font "Verdana" 12.0 :family "Verdana" :style (quote (:italic)) :mode (quote nil))) (om-load-editor-box1 "seagull.wav" (quote sound) (quote ((om-load-inputfun (quote input-funbox) "object" "self" nil) (om-load-inputfun (quote input-funbox) "a track index for multichannel mixing" "tracknum" 0) (om-load-inputfun (quote input-funbox) "a list of markers (s)" "markers" nil))) (om-make-point 155 396) (om-make-point 80 50) (let ((newobj (let ((thesound (load-sound (om-make-pathname :directory (quote (:absolute "Users" "Marlon_MBPro3" "Research" "OM-SoX" "OM-SoX 1.0" "resources" "sounds")) :device nil :host nil :name "seagull" :type "wav") 0 100 0))) (when thesound (setf (markers thesound) (quote nil))) thesound))) (load-port-info newobj (quote nil)) (init-mus-color newobj (quote nil)) (set-extra-pairs newobj (quote nil)) (set-patch-pairs newobj (quote nil)) (set-name newobj "seagull.wav") (set-tonalite newobj nil) newobj) "x" nil (pairlis (quote (palette-mode scale show-stems obj-mode score-mode winpos winsize mode grillestep notechancolor? zoom player inport outport deltapict cmnpref staff fontsize approx)) (list 0 nil (quote t) 1 0 (om-make-point 400 22) (om-make-point 590 298) 0 1000 nil 1 (quote :soxplayer) 0 nil (om-make-point 0 0) (let ((newobj (make-instance (quote edition-values)))) (setf (paper-size newobj) (om-make-point 600 800)) (setf (top-margin newobj) 2) (setf (left-margin newobj) 1) (setf (right-margin newobj) 1) (setf (bottom-margin newobj) 1) (setf (orientation newobj) nil) (setf (scale newobj) nil) (setf (system-space newobj) (quote (1))) (setf (system-color newobj) (quote nil)) (setf (line-space newobj) 1) (setf (title newobj) nil) (setf (show-title? newobj) nil) (setf (show-page? newobj) nil) (setf (sheet-id newobj) nil) (setf (page-mode newobj) nil) newobj) (quote g) 24 2)) t nil nil nil) (om-load-editor-box1 "" (quote sound) (quote ((om-load-inputfun (quote input-funbox) "object" "self" nil) (om-load-inputfun (quote input-funbox) "a track index for multichannel mixing" "tracknum" 0) (om-load-inputfun (quote input-funbox) "a list of markers (s)" "markers" nil))) (om-make-point 153 510) (om-make-point 80 50) (let ((newobj nil)) (load-port-info newobj (quote nil)) (init-mus-color newobj (quote nil)) (set-extra-pairs newobj (quote nil)) (set-patch-pairs newobj (quote nil)) (set-name newobj "") (set-tonalite newobj nil) newobj) nil nil (pairlis (quote (palette-mode scale show-stems obj-mode score-mode winpos winsize mode grillestep notechancolor? zoom player inport outport deltapict cmnpref staff fontsize approx)) (list 0 nil (quote t) 1 0 (om-make-point 400 22) (om-make-point 812 340) 0 1000 nil 1 (quote :soxplayer) 0 nil (om-make-point 0 0) (let ((newobj (make-instance (quote edition-values)))) (setf (paper-size newobj) (om-make-point 600 800)) (setf (top-margin newobj) 2) (setf (left-margin newobj) 1) (setf (right-margin newobj) 1) (setf (bottom-margin newobj) 1) (setf (orientation newobj) nil) (setf (scale newobj) nil) (setf (system-space newobj) (quote (1))) (setf (system-color newobj) (quote nil)) (setf (line-space newobj) 1) (setf (title newobj) nil) (setf (show-title? newobj) nil) (setf (show-page? newobj) nil) (setf (sheet-id newobj) nil) (setf (page-mode newobj) nil) newobj) (quote g) 24 2)) t nil nil nil) (om-load-editor-box1 "" (quote sound) (quote ((om-load-inputfun (quote input-funbox) "object" "self" nil) (om-load-inputfun (quote input-funbox) "a track index for multichannel mixing" "tracknum" 0) (om-load-inputfun (quote input-funbox) "a list of markers (s)" "markers" nil))) (om-make-point 314 511) (om-make-point 80 50) (let ((newobj nil)) (load-port-info newobj (quote nil)) (init-mus-color newobj (quote nil)) (set-extra-pairs newobj (quote nil)) (set-patch-pairs newobj (quote nil)) (set-name newobj "") (set-tonalite newobj nil) newobj) nil nil (pairlis (quote (palette-mode scale show-stems obj-mode score-mode winpos winsize mode grillestep notechancolor? zoom player inport outport deltapict cmnpref staff fontsize approx)) (list 0 nil (quote t) 1 0 (om-make-point 400 22) (om-make-point 370 280) 0 1000 nil 1 (quote :soxplayer) 0 nil (om-make-point 0 0) (let ((newobj (make-instance (quote edition-values)))) (setf (paper-size newobj) (om-make-point 600 800)) (setf (top-margin newobj) 2) (setf (left-margin newobj) 1) (setf (right-margin newobj) 1) (setf (bottom-margin newobj) 1) (setf (orientation newobj) nil) (setf (scale newobj) nil) (setf (system-space newobj) (quote (1))) (setf (system-color newobj) (quote nil)) (setf (line-space newobj) 1) (setf (title newobj) nil) (setf (show-title? newobj) nil) (setf (show-page? newobj) nil) (setf (sheet-id newobj) nil) (setf (page-mode newobj) nil) newobj) (quote g) 24 2)) t nil nil nil) (om-load-boxcall (quote bastype) "aux 3" (quote t) (quote nil) (om-make-point 181 481) (om-make-point 27 30) 0 "0" nil) (om-load-boxcomment "comment 4" (om-make-point 107 60) (quote "tracknum=0$$--> no panning") "" (om-make-point 144 562) nil (om-make-color 0.0 0.0 1.0) (om-make-font "Verdana" 12.0 :family "Verdana" :style (quote (:italic)) :mode (quote nil))) (om-load-boxcomment "comment 3" (om-make-point 107 60) (quote "tracknum=1$$--> channel 1") "" (om-make-point 308 564) nil (om-make-color 0.0 0.0 1.0) (om-make-font "Verdana" 12.0 :family "Verdana" :style (quote (:italic)) :mode (quote nil))) (om-load-editor-box1 "" (quote sound) (quote ((om-load-inputfun (quote input-funbox) "object" "self" nil) (om-load-inputfun (quote input-funbox) "a track index for multichannel mixing" "tracknum" 0) (om-load-inputfun (quote input-funbox) "a list of markers (s)" "markers" nil))) (om-make-point 480 512) (om-make-point 80 50) (let ((newobj nil)) (load-port-info newobj (quote nil)) (init-mus-color newobj (quote nil)) (set-extra-pairs newobj (quote nil)) (set-patch-pairs newobj (quote nil)) (set-name newobj "") (set-tonalite newobj nil) newobj) nil nil (pairlis (quote (palette-mode scale show-stems obj-mode score-mode winpos winsize mode grillestep notechancolor? zoom player inport outport deltapict cmnpref staff fontsize approx)) (list 0 nil (quote t) 1 0 (om-make-point 400 22) (om-make-point 759 309) 0 1000 nil 1 (quote :soxplayer) 0 nil (om-make-point 0 0) (let ((newobj (make-instance (quote edition-values)))) (setf (paper-size newobj) (om-make-point 600 800)) (setf (top-margin newobj) 2) (setf (left-margin newobj) 1) (setf (right-margin newobj) 1) (setf (bottom-margin newobj) 1) (setf (orientation newobj) nil) (setf (scale newobj) nil) (setf (system-space newobj) (quote (1))) (setf (system-color newobj) (quote nil)) (setf (line-space newobj) 1) (setf (title newobj) nil) (setf (show-title? newobj) nil) (setf (show-page? newobj) nil) (setf (sheet-id newobj) nil) (setf (page-mode newobj) nil) newobj) (quote g) 24 2)) t nil nil nil) (om-load-boxcomment "comment 2" (om-make-point 107 60) (quote "tracknum=2$$--> channel 2") "" (om-make-point 474 565) nil (om-make-color 0.0 0.0 1.0) (om-make-font "Verdana" 12.0 :family "Verdana" :style (quote (:italic)) :mode (quote nil))) (om-load-boxcall (quote bastype) "aux 2" (quote t) (quote nil) (om-make-point 342 481) (om-make-point 27 30) 1 "1" nil) (om-load-boxcall (quote bastype) "aux" (quote t) (quote nil) (om-make-point 508 481) (om-make-point 27 30) 2 "2" nil) (om-load-boxcomment "comment" (om-make-point 72 30) (quote "Example:") "" (om-make-point 70 406) nil (om-make-color 0.0 0.0 1.0) (om-make-font "Verdana" 12.0 :family "Verdana" :style (quote (:italic)) :mode (quote nil))))) (quote ((3 0 4 0 nil 0) (6 0 4 1 nil 0) (3 0 5 0 nil 0) (11 0 5 1 nil 0) (3 0 9 0 nil 0) (12 0 9 1 nil 0))) 6.070005 nil "" (om-make-point 212 246) (om-make-point 874 667)) (quote nil) (om-make-point 120 332) nil nil nil "OpenMusic version < 6.7") (om-load-boxcomment "comment" (om-make-point 293 30) (quote "-> right-click on sound object to choose player") "" (om-make-point 342 125) nil (om-make-color 0.0 0.19194556 1.0) (om-make-font "Verdana" 12.0 :family "Verdana" :style (quote (:italic)) :mode (quote nil))) (om-load-editor-box1 "sax-tenor-multi.wav" (quote sound) (quote ((om-load-inputfun (quote input-funbox) "object" "self" nil) (om-load-inputfun (quote input-funbox) "a track index for multichannel mixing" "tracknum" 0) (om-load-inputfun (quote input-funbox) "a list of markers (s)" "markers" nil))) (om-make-point 263 115) (om-make-point 80 50) (let ((newobj (let ((thesound (load-sound (om-make-pathname :directory (quote (:absolute "Users" "Marlon_MBPro3" "Research" "OM-SoX" "OM-SoX 1.0" "resources" "sounds")) :device nil :host nil :name "sax-tenor-multi" :type "wav") 0 100 0))) (when thesound (setf (markers thesound) (quote nil))) thesound))) (load-port-info newobj (quote nil)) (init-mus-color newobj (quote nil)) (set-extra-pairs newobj (quote nil)) (set-patch-pairs newobj (quote nil)) (set-name newobj "sax-tenor-multi.wav") (set-tonalite newobj nil) newobj) "x" nil (pairlis (quote (palette-mode scale show-stems obj-mode score-mode winpos winsize mode grillestep notechancolor? zoom player inport outport deltapict cmnpref staff fontsize approx)) (list 0 nil (quote t) 1 0 (om-make-point 400 22) (om-make-point 764 280) 0 1000 nil 1 (quote :soxplayer) 0 nil (om-make-point 0 0) (let ((newobj (make-instance (quote edition-values)))) (setf (paper-size newobj) (om-make-point 600 800)) (setf (top-margin newobj) 2) (setf (left-margin newobj) 1) (setf (right-margin newobj) 1) (setf (bottom-margin newobj) 1) (setf (orientation newobj) nil) (setf (scale newobj) nil) (setf (system-space newobj) (quote (1))) (setf (system-color newobj) (quote nil)) (setf (line-space newobj) 1) (setf (title newobj) nil) (setf (show-title? newobj) nil) (setf (show-page? newobj) nil) (setf (sheet-id newobj) nil) (setf (page-mode newobj) nil) newobj) (quote g) 24 2)) t nil nil nil) (om-load-boxcall (quote maqabs) "mymaquette" (om-load-maq-abs1 "mymaquette" (quote ((om-load-tempobj1 "sax-tenor-multi.wav" (quote nil) (list (quote yourobj) (let ((ominst (make-instance (quote ominstance) :name "sax-tenor-multi.wav" :icon 287))) (setf (instance ominst) (let ((newobj (let ((thesound (load-sound (om-make-pathname :directory (quote (:absolute "Users" "Marlon_MBPro3" "Research" "OM-SoX" "OM-SoX 1.0" "resources" "sounds")) :device nil :host nil :name "sax-tenor-multi" :type "wav") 0 6.30957 0))) (when thesound (setf (markers thesound) (quote nil))) thesound))) (load-port-info newobj (quote nil)) (init-mus-color newobj (quote nil)) (set-extra-pairs newobj (quote nil)) (set-patch-pairs newobj (quote nil)) (set-name newobj "sax-tenor-multi.wav") (set-tonalite newobj nil) newobj)) (setf (doc ominst) (str-with-nl "")) (setf (edition-params ominst) (pairlis (quote (scale show-stems obj-mode score-mode winpos winsize mode grillestep notechancolor? zoom player inport outport deltapict cmnpref staff fontsize approx)) (list nil (quote t) 1 0 (om-make-point 400 20) (om-make-point 370 280) 0 1000 nil 1 (quote :soxplayer) 0 nil (om-make-point 0 0) (let ((newobj (make-instance (quote edition-values)))) (setf (paper-size newobj) (om-make-point 600 800)) (setf (top-margin newobj) 2) (setf (left-margin newobj) 1) (setf (right-margin newobj) 1) (setf (bottom-margin newobj) 1) (setf (orientation newobj) nil) (setf (scale newobj) nil) (setf (system-space newobj) (quote (1))) (setf (system-color newobj) (quote nil)) (setf (line-space newobj) 1) (setf (title newobj) nil) (setf (show-title? newobj) nil) (setf (show-page? newobj) nil) (setf (sheet-id newobj) nil) (setf (page-mode newobj) nil) newobj) (quote g) 24 2))) (setf (create-info ominst) (quote ("2013/11/09 15:00:15" "2013/11/09 15:05:41"))) ominst)) 1 3602 4885 (om-make-color 0.5 0.6 0.5) nil t 20 71 1 0 (pairlis (quote (palette-mode scale show-stems obj-mode score-mode winpos winsize mode grillestep notechancolor? zoom player inport outport deltapict cmnpref staff fontsize approx)) (list 0 nil (quote t) 1 0 (om-make-point 400 22) (om-make-point 764 280) 0 1000 nil 1 (quote :soxplayer) 0 nil (om-make-point 0 0) (let ((newobj (make-instance (quote edition-values)))) (setf (paper-size newobj) (om-make-point 600 800)) (setf (top-margin newobj) 2) (setf (left-margin newobj) 1) (setf (right-margin newobj) 1) (setf (bottom-margin newobj) 1) (setf (orientation newobj) nil) (setf (scale newobj) nil) (setf (system-space newobj) (quote (1))) (setf (system-color newobj) (quote nil)) (setf (line-space newobj) 1) (setf (title newobj) nil) (setf (show-title? newobj) nil) (setf (show-page? newobj) nil) (setf (sheet-id newobj) nil) (setf (page-mode newobj) nil) newobj) (quote g) 24 2)) nil nil t nil nil nil "no documentation") (om-load-tempobj1 "altosax-multi-1.wav" (quote nil) (list (quote yourobj) (let ((ominst (make-instance (quote ominstance) :name "altosax-multi-1.wav" :icon 287))) (setf (instance ominst) (let ((newobj (let ((thesound (load-sound (om-make-pathname :directory (quote (:absolute "Users" "Marlon_MBPro3" "Research" "OM-SoX" "OM-SoX 1.0" "resources" "sounds")) :device nil :host nil :name "altosax-multi-1" :type "wav") 0 100 0))) (when thesound (setf (markers thesound) (quote nil))) thesound))) (load-port-info newobj (quote nil)) (init-mus-color newobj (quote nil)) (set-extra-pairs newobj (quote nil)) (set-patch-pairs newobj (quote nil)) (set-name newobj "altosax-multi-1.wav") (set-tonalite newobj nil) newobj)) (setf (doc ominst) (str-with-nl "")) (setf (edition-params ominst) (pairlis (quote (scale show-stems obj-mode score-mode winpos winsize mode grillestep notechancolor? zoom player inport outport deltapict cmnpref staff fontsize approx)) (list nil (quote t) 1 0 (om-make-point 400 20) (om-make-point 370 280) 0 1000 nil 1 (quote :soxplayer) 0 nil (om-make-point 0 0) (let ((newobj (make-instance (quote edition-values)))) (setf (paper-size newobj) (om-make-point 600 800)) (setf (top-margin newobj) 2) (setf (left-margin newobj) 1) (setf (right-margin newobj) 1) (setf (bottom-margin newobj) 1) (setf (orientation newobj) nil) (setf (scale newobj) nil) (setf (system-space newobj) (quote (1))) (setf (system-color newobj) (quote nil)) (setf (line-space newobj) 1) (setf (title newobj) nil) (setf (show-title? newobj) nil) (setf (show-page? newobj) nil) (setf (sheet-id newobj) nil) (setf (page-mode newobj) nil) newobj) (quote g) 24 2))) (setf (create-info ominst) (quote ("2013/11/09 15:00:07" "2013/11/09 15:05:41"))) ominst)) 1 826 7616 (om-make-color 0.5 0.6 0.5) nil t 20 34 1 0 (pairlis (quote (palette-mode scale show-stems obj-mode score-mode winpos winsize mode grillestep notechancolor? zoom player inport outport deltapict cmnpref staff fontsize approx)) (list 0 nil (quote t) 1 0 (om-make-point 400 22) (om-make-point 843 283) 0 1000 nil 1 (quote :soxplayer) 0 nil (om-make-point 0 0) (let ((newobj (make-instance (quote edition-values)))) (setf (paper-size newobj) (om-make-point 600 800)) (setf (top-margin newobj) 2) (setf (left-margin newobj) 1) (setf (right-margin newobj) 1) (setf (bottom-margin newobj) 1) (setf (orientation newobj) nil) (setf (scale newobj) nil) (setf (system-space newobj) (quote (1))) (setf (system-color newobj) (quote nil)) (setf (line-space newobj) 1) (setf (title newobj) nil) (setf (show-title? newobj) nil) (setf (show-page? newobj) nil) (setf (sheet-id newobj) nil) (setf (page-mode newobj) nil) newobj) (quote g) 24 2)) nil nil t nil nil nil "no documentation"))) (quote nil) (quote (0 10000 0 100)) (quote nil) (om-make-color 0.85 0.85 0.83) (quote ((4 60) ((4 4)) 16 t)) t 6.070005 nil "" "off" (quote (1)) (quote (1)) nil (om-make-point 817 190) (om-make-point 500 200)) (quote ((om-load-inputfun (quote input-funbox) "time rate number of offsets list" "time" 1000) (om-load-inputfun (quote input-funbox) "objects to put in maquette" "objs" nil))) (om-make-point 265 178) nil nil nil nil) (om-load-editor-box1 "altosax-multi-1.wav" (quote sound) (quote ((om-load-inputfun (quote input-funbox) "object" "self" nil) (om-load-inputfun (quote input-funbox) "a track index for multichannel mixing" "tracknum" 0) (om-load-inputfun (quote input-funbox) "a list of markers (s)" "markers" nil))) (om-make-point 173 115) (om-make-point 80 50) (let ((newobj (let ((thesound (load-sound (om-make-pathname :directory (quote (:absolute "Users" "Marlon_MBPro3" "Research" "OM-SoX" "OM-SoX 1.0" "resources" "sounds")) :device nil :host nil :name "altosax-multi-1" :type "wav") 0 100 0))) (when thesound (setf (markers thesound) (quote nil))) thesound))) (load-port-info newobj (quote nil)) (init-mus-color newobj (quote nil)) (set-extra-pairs newobj (quote nil)) (set-patch-pairs newobj (quote nil)) (set-name newobj "altosax-multi-1.wav") (set-tonalite newobj nil) newobj) "x" nil (pairlis (quote (palette-mode scale show-stems obj-mode score-mode winpos winsize mode grillestep notechancolor? zoom player inport outport deltapict cmnpref staff fontsize approx)) (list 0 nil (quote t) 1 0 (om-make-point 400 22) (om-make-point 843 283) 0 1000 nil 1 (quote :soxplayer) 0 nil (om-make-point 0 0) (let ((newobj (make-instance (quote edition-values)))) (setf (paper-size newobj) (om-make-point 600 800)) (setf (top-margin newobj) 2) (setf (left-margin newobj) 1) (setf (right-margin newobj) 1) (setf (bottom-margin newobj) 1) (setf (orientation newobj) nil) (setf (scale newobj) nil) (setf (system-space newobj) (quote (1))) (setf (system-color newobj) (quote nil)) (setf (line-space newobj) 1) (setf (title newobj) nil) (setf (show-title? newobj) nil) (setf (show-page? newobj) nil) (setf (sheet-id newobj) nil) (setf (page-mode newobj) nil) newobj) (quote g) 24 2)) t nil nil nil) (om-load-boxcomment "comment" (om-make-point 725 45) (quote "OM-SoX brings additional features to the sound editor, such as sonagram display (OM6.7), and multi-channel panning. $This is handled differently, depending on OpenMusic versions:") "" (om-make-point 92 274) nil (om-make-color 0.0 0.19194556 1.0) (om-make-font "Verdana" 12.0 :family "Verdana" :style (quote (:italic)) :mode (quote nil))) (om-load-boxcomment "comment" (om-make-point 514 34) (quote "OM-SoX integration into OM's audio system and player architecture. ") "" (om-make-point 138 16) nil (om-make-color 0.0 0.0 0.0) (om-make-font "Verdana" 14.0 :family "Verdana" :style (quote (:plain)) :mode (quote nil))) (om-load-boxcomment "comment" (om-make-point 628 45) (quote "After loading the library sox can be used as a standard audio player (sound objects, maquettes, etc.)$(You can also choose 'sox' as the default normalizer in OM's audio preferences)") "" (om-make-point 140 63) nil (om-make-color 0.0 0.19194556 1.0) (om-make-font "Verdana" 12.0 :family "Verdana" :style (quote (:plain)) :mode (quote nil))))) (quote nil) (list (let ((newpict (make-instance (quote patch-picture) :name "omsox" :source (quote user) :pict-pathname (restore-pict-path (restore-path nil)) :thepict (om-get-picture "omsox" (quote user)) :storemode :external :draw-params (quote (p 0 0 100 100)) :extraobjs nil))) (setf (pict-pos newpict) (om-make-point 59 8)) (setf (pict-size newpict) (om-make-point 62 55)) newpict)) 6.070005))
