; OM File Header - Saved 2021/08/05 18:54:15
; (6.130002 :patc (om-make-point 10 160) (om-make-point 0 22) (om-make-point 1280 718) "" 183 0 nil "2021/08/05 18:54:15")
; End File Header
(in-package :om)(load-lib-for (quote ("FDSDB_XXth_CT")))(setf *om-current-persistent* (om-load-patch1 "10 symmetric_series_4" (quote ((let ((box (om-load-boxcomment "comment" (om-make-point 267 315) (quote "Same of the precedent example, but now$the combinations are different.$So, in order, you have that the three$chromatic permuted tetrachords have$respectively the following relations:$$O - R - RI$O - RI - R$$O - I - R$O - R - I$$O - I - RI$O - RI - I$$References:$$Babbitt, Milton (1961), Set Structure as$Compositional Determinants, «Journal of$Music Theory», Vol. 5, No. 1.") nil (om-make-point 746 106) nil (om-make-color 0 0 0) (om-make-font "Verdana" 12 :family "Verdana" :style (quote (:plain)) :mode (quote nil))))) (when (fboundp (quote set-active)) (set-active box nil)) box) (let ((box (om-load-boxcall (quote genfun) "4+4+4_O+RI+I" (quote fdsdb_xxth_ct::4+4+4_o+ri+i) (quote ((om-load-inputfun (quote input-funbox) "Lower pitch" "LOWER-PITCH" 6000))) (om-make-point 580 40) nil nil nil nil 1))) (when (fboundp (quote set-active)) (set-active box nil)) box) (let ((box (om-load-boxcall (quote genfun) "4+4+4_O+I+RI" (quote fdsdb_xxth_ct::4+4+4_o+i+ri) (quote ((om-load-inputfun (quote input-funbox) "Lower pitch" "LOWER-PITCH" 6000))) (om-make-point 480 40) nil nil nil nil 1))) (when (fboundp (quote set-active)) (set-active box nil)) box) (let ((box (om-load-boxcall (quote genfun) "4+4+4_O+R+I" (quote fdsdb_xxth_ct::|4+4+4_O+R+I|) (quote ((om-load-inputfun (quote input-funbox) "Lower pitch" "LOWER-PITCH" 6000))) (om-make-point 390 40) nil nil nil nil 1))) (when (fboundp (quote set-active)) (set-active box nil)) box) (let ((box (om-load-boxcall (quote genfun) "4+4+4_O+I+R" (quote fdsdb_xxth_ct::|4+4+4_O+I+R|) (quote ((om-load-inputfun (quote input-funbox) "Lower pitch" "LOWER-PITCH" 6000))) (om-make-point 290 40) nil nil nil nil 1))) (when (fboundp (quote set-active)) (set-active box nil)) box) (let ((box (om-load-boxcall (quote genfun) "4+4+4_O+RI+R" (quote fdsdb_xxth_ct::4+4+4_o+ri+r) (quote ((om-load-inputfun (quote input-funbox) "Lower pitch" "LOWER-PITCH" 6000))) (om-make-point 190 40) nil nil nil nil 1))) (when (fboundp (quote set-active)) (set-active box nil)) box) (let ((box (om-load-boxcall (quote genfun) "4+4+4_O+R+RI" (quote fdsdb_xxth_ct::4+4+4_o+r+ri) (quote ((om-load-inputfun (quote input-funbox) "Lower pitch" "LOWER-PITCH" 6000))) (om-make-point 90 40) nil nil nil nil 1))) (when (fboundp (quote set-active)) (set-active box nil)) box) (let ((box (om-load-boxcall (quote genfun) "POSN-MATCH" (quote posn-match) (quote ((om-load-inputfun (quote input-funbox) "a list" "LIST" (list 10 20 30 40 50 60 70 80 90)) (om-load-inputfun (quote input-funbox) "a list positions" "POSITIONS" (list (list 0 1) 4 (list 6))))) (om-make-point 350 261) nil nil nil nil 1))) (when (fboundp (quote set-active)) (set-active box nil)) box) (let ((box (om-load-boxcall (quote lispfun) "LIST" (quote list) (quote ((om-load-inputfun (quote input-funbox) "add-input" "add-input" nil) (om-load-inputfun (quote input-funbox) "add-input" "add-input" nil) (om-load-inputfun (quote input-funbox) "add-input" "add-input" nil) (om-load-inputfun (quote input-funbox) "add-input" "add-input" nil) (om-load-inputfun (quote input-funbox) "add-input" "add-input" nil) (om-load-inputfun (quote input-funbox) "add-input" "add-input" nil))) (om-make-point 274 190) nil nil nil nil 1))) (when (fboundp (quote set-active)) (set-active box nil)) box) (let ((box (om-load-editor-box1 "POP-UP-MENU" (quote pop-up-menu) (quote ((om-load-inputfun (quote input-funbox) "list of choices" "items" (list "yes" "no")) (om-load-inputfun (quote input-funbox) "a function or box in lambda mode" "action" nil))) (om-make-point 450 181) (om-make-point 167 50) (let ((rep (om-make-dialog-item (quote pop-up-menu) (om-make-point 1 1) (om-make-point 147 26) "untitled" :range (quote ("4+4+4_o+r+ri" "4+4+4_o+ri+r" "4+4+4_o+i+r" "4+4+4_o+r+i" "4+4+4_o+i+ri" "4+4+4_o+ri+i"))))) (om-set-selected-item-index rep (quote 3)) rep) "x" nil (pairlis (quote (winpos winsize)) (list (om-make-point 10 40) (om-make-point 335 275))) t nil nil nil))) (when (fboundp (quote set-active)) (set-active box nil)) box) (let ((box (om-load-editor-box1 "CHORD-SEQ" (quote chord-seq) (quote ((om-load-inputfun (quote input-funbox) "object" "self" nil) (om-load-inputfun (quote input-funbox) "pitches (mc): list or list of lists" "lmidic" (list 6000)) (om-load-inputfun (quote input-funbox) "onsets (ms): list" "lonset" (list 0 1000)) (om-load-inputfun (quote input-funbox) "durations (ms): list or list of lists" "ldur" (list 1000)) (om-load-inputfun (quote input-funbox) "velocities (0-127): list or list of lists" "lvel" (list 100)) (om-load-inputfun (quote input-funbox) "offsets (ms): list or list of lists" "loffset" (list 0)) (om-load-inputfun (quote input-funbox) "MIDI channels (1-16): list or list of lists" "lchan" (list 1)) (om-load-inputfun (quote input-funbox) "relative chords duration (0-100)" "legato" 0))) (om-make-point 95 362) (om-make-point 602 121) (let ((newobj (when (find-class (quote chord-seq) nil) (make-instance (quote chord-seq) :lmidic (quote ((6300) (6100) (6000) (6200) (6600) (6400) (6500) (6700) (6800) (7000) (7100) (6900))) :lonset (quote (0 1000 2000 3000 4000 5000 6000 7000 8000 9000 10000 11000 12000)) :ldur (quote ((1000) (1000) (1000) (1000) (1000) (1000) (1000) (1000) (1000) (1000) (1000) (1000))) :lvel (quote ((100) (100) (100) (100) (100) (100) (100) (100) (100) (100) (100) (100))) :loffset (quote ((0) (0) (0) (0) (0) (0) (0) (0) (0) (0) (0) (0))) :lchan (quote ((1) (1) (1) (1) (1) (1) (1) (1) (1) (1) (1) (1))) :legato 0)))) (load-port-info newobj (quote ((0) (0) (0) (0) (0) (0) (0) (0) (0) (0) (0) (0)))) (init-mus-color newobj (quote nil)) (set-extra-pairs newobj (quote nil)) (set-patch-pairs newobj (quote nil)) (set-name newobj nil) (set-tonalite newobj nil) newobj) nil nil (pairlis (quote (approx fontsize staff cmnpref deltapict outport inport player zoom notechancolor? grillestep mode winsize winpos score-mode obj-mode cursor-mode show-stems scale)) (list 2 24 (quote g) (let ((newobj (make-instance (quote edition-values)))) (setf (paper-size newobj) (om-make-point 600 800)) (setf (top-margin newobj) 2) (setf (left-margin newobj) 1) (setf (right-margin newobj) 1) (setf (bottom-margin newobj) 1) (setf (orientation newobj) nil) (setf (scale newobj) nil) (setf (system-space newobj) (quote (1))) (setf (system-color newobj) (quote nil)) (setf (line-space newobj) 1) (setf (title newobj) nil) (setf (show-title? newobj) nil) (setf (show-page? newobj) nil) (setf (sheet-id newobj) nil) (setf (page-mode newobj) nil) newobj) (om-make-point 0 0) nil nil (quote :midi-player) 73/100 nil 1000 0 (om-make-point 736 470) (om-make-point 400 22) 0 1 (quote :normal) (quote t) nil)) t nil nil nil))) (when (fboundp (quote set-active)) (set-active box nil)) box))) (quote ((8 0 7 0 nil 0) (9 0 7 1 nil 0) (6 0 8 0 nil 0) (5 0 8 1 nil 0) (4 0 8 2 nil 0) (3 0 8 3 nil 0) (2 0 8 4 nil 0) (1 0 8 5 nil 0) (7 0 10 1 nil 0))) nil 6.130002))
