; OM File Header - Saved 2013/08/28 21:44:30
; (6.0602 :patc (om-make-point 238 468) (om-make-point 44 22) (om-make-point 1151 692) "" 183 0 "2013/08/01 19:37:39" "2013/08/01 19:37:39")
; End File Header
(in-package :om)(load-lib-for (quote ("Profile")))(setf *om-current-persistent* (om-load-patch1 "bpf-interpolprof_000 - by Mikhail Malt" (quote ((om-load-boxcomment "comment" (om-make-point 358 28) (quote "<= approx.: 2 = semitom; 1/4 = quarto de tom; 8 = 1/8") "" (om-make-point 523 280) nil (om-make-color 0 0 0) (om-make-font "Verdana" 12 :family "Verdana" :style (quote (:plain)) :mode (quote nil))) (om-load-boxcomment "comment" (om-make-point 399 74) (quote "Cria uma interpolação entre uma melodia e o inverso de seu contorno") "" (om-make-point 528 10) nil (om-make-color 0 0 0) (om-make-font "Verdana" 18.0 :family "Verdana" :style (quote (:plain)) :mode (quote nil))) (om-load-boxcomment "comment" (om-make-point 225 78) (quote "<= detalhe importante: o onset a mais que sobra de um chord-seq - é preciso retirá-lo com um \"butlast\"!") "" (om-make-point 366 114) nil (om-make-color 0 0 0) (om-make-font "Verdana" 12 :family "Verdana" :style (quote (:plain)) :mode (quote nil))) (om-load-boxcall (quote abstraction) "mypatch" (om-load-patch-abs1 "mypatch" (quote ((om-load-boxin "input 2" 1 (om-make-point 282 6) "" nil nil nil) (om-load-editor-box1 "BPF" (quote bpf) (quote ((om-load-inputfun (quote input-funbox) "object" "self" nil) (om-load-inputfun (quote input-funbox) "X coordinates (list)" "x-points" (list 0 100)) (om-load-inputfun (quote input-funbox) "Y coordinates (list)" "y-points" (list 0 100)) (om-load-inputfun (quote input-funbox) "precision (integer) [0 - 10]" "decimals" 0))) (om-make-point 344 506) (om-make-point 105 48) (let ((newobj (when (find-class (quote bpf) nil) (let ((newbpf (simple-bpf-from-list (quote (0 1000 1089 1178 1381 1589 1770 2053 2356 2734 3195 3759 4309 4853 5414 6022 6778)) (quote (8500 8400 8300 8200 8000 7900 7800 7600 7400 7200 7000 6700 6400 6000 5500 4800 3600)) (quote bpf) 0))) (setf (bpfcolor newbpf) (om-make-color 0 0 0)) (set-name newbpf nil) newbpf)))) newobj) nil nil (pairlis (quote (picture winpos winsize)) (list nil (om-make-point 10 40) (om-make-point 335 275))) t nil nil nil) (om-load-boxcall (quote lispfun) "REVERSE 2" (quote reverse) (quote ((om-load-inputfun (quote input-funbox) "SEQUENCE" "SEQUENCE" nil))) (om-make-point 469 374) nil nil nil nil 1) (om-load-boxcall (quote genfun) "FLAT" (quote flat) (quote ((om-load-inputfun (quote input-funbox) "a list" "LST" nil))) (om-make-point 175 94) nil nil nil nil 1) (om-load-boxcall (quote genfun) "X->DX" (quote x->dx) (quote ((om-load-inputfun (quote input-funbox) "a list of numbers" "SELF" 0))) (om-make-point 274 188) nil nil nil nil 1) (om-load-boxcall (quote lispfun) "REVERSE" (quote reverse) (quote ((om-load-inputfun (quote input-funbox) "SEQUENCE" "SEQUENCE" nil))) (om-make-point 271 282) nil nil nil nil 1) (om-load-boxcall (quote genfun) "DX->X" (quote dx->x) (quote ((om-load-inputfun (quote input-funbox) "a number" "START" 0) (om-load-inputfun (quote input-funbox) "a list of numbers" "LIST" (list 1 1)))) (om-make-point 309 358) nil nil nil nil 1) (om-load-boxout "output" 0 (om-make-point 187 506) (quote ((om-load-inputfun (quote input-funbox) "" "out" nil))) nil nil) (om-load-boxin "input" 0 (om-make-point 172 0) "" nil nil nil))) (quote ((6 0 1 1 nil 0) (2 0 1 2 nil 0) (3 0 2 0 nil 2) (8 0 3 0 nil 0) (0 0 4 0 nil 0) (4 0 5 0 nil 0) (5 0 6 1 nil 0) (1 0 7 0 nil 0))) 6.050102 nil "" (om-make-point 200 200) (om-make-point 500 400)) (quote ((om-load-inputfun (quote input-funbox) "" "input" nil) (om-load-inputfun (quote input-funbox) "" "input 2" nil))) (om-make-point 174 161) nil nil nil nil) (om-load-boxcall (quote lispfun) "LENGTH" (quote length) (quote ((om-load-inputfun (quote input-funbox) "SEQUENCE" "SEQUENCE" nil))) (om-make-point 326 257) nil nil nil nil 1) (om-load-boxcall (quote lispfun) "BUTLAST" (quote butlast) (quote ((om-load-inputfun (quote input-funbox) "LIST" "LIST" nil))) (om-make-point 322 108) nil nil nil nil 1) (om-load-boxcall (quote genfun) "FLAT" (quote flat) (quote ((om-load-inputfun (quote input-funbox) "a list" "LST" nil))) (om-make-point 304 424) nil nil nil nil 1) (om-load-editor-box1 "CHORD-SEQ" (quote chord-seq) (quote ((om-load-inputfun (quote input-funbox) "object" "self" nil) (om-load-inputfun (quote input-funbox) "pitches (mc): list or list of lists" "lmidic" (list 6000)) (om-load-inputfun (quote input-funbox) "onsets (ms): list" "lonset" (list 0 100)) (om-load-inputfun (quote input-funbox) "durations (ms): list or list of lists" "ldur" (list 100)) (om-load-inputfun (quote input-funbox) "velocities (0-127): list or list of lists" "lvel" (list 100)) (om-load-inputfun (quote input-funbox) "offsets (ms): list or list of lists" "loffset" (list 0)) (om-load-inputfun (quote input-funbox) "MIDI channels (1-16): list or list of lists" "lchan" (list 1)) (om-load-inputfun (quote input-funbox) "relative chords duration (0-100)" "legato" 0))) (om-make-point 99 489) (om-make-point 1025 164) (let ((newobj (when (find-class (quote chord-seq) nil) (make-instance (quote chord-seq) :lmidic (quote ((3600) (4800) (5500) (6000) (6400) (6700) (7000) (7200) (7400) (7600) (7800) (7900) (8000) (8200) (8300) (8400) (4100) (5100) (5800) (6200) (6600) (6800) (7100) (7200) (7400) (7500) (7700) (7700) (7800) (7900) (7900) (7900) (4600) (5500) (6000) (6400) (6700) (6900) (7100) (7200) (7400) (7500) (7600) (7600) (7600) (7700) (7600) (7400) (5000) (5800) (6300) (6600) (6800) (7000) (7200) (7300) (7300) (7400) (7500) (7500) (7400) (7400) (7200) (7000) (5500) (6200) (6600) (6800) (7000) (7100) (7200) (7300) (7300) (7400) (7400) (7300) (7200) (7100) (6900) (6500) (6000) (6500) (6800) (7000) (7200) (7200) (7300) (7300) (7300) (7300) (7200) (7200) (7000) (6800) (6500) (6000) (6500) (6900) (7100) (7200) (7300) (7400) (7400) (7300) (7300) (7200) (7100) (7000) (6800) (6600) (6200) (5500) (7000) (7200) (7400) (7400) (7500) (7500) (7400) (7300) (7300) (7200) (7000) (6800) (6600) (6300) (5800) (5000) (7400) (7600) (7700) (7600) (7600) (7600) (7500) (7400) (7200) (7100) (6900) (6700) (6400) (6000) (5500) (4600))) :lonset (quote (0 100 200 300 400 500 600 700 800 900 1000 1100 1200 1300 1400 1500 1600 1700 1800 1900 2000 2100 2200 2300 2400 2500 2600 2700 2800 2900 3000 3100 3200 3300 3400 3500 3600 3700 3800 3900 4000 4100 4200 4300 4400 4500 4600 4700 4800 4900 5000 5100 5200 5300 5400 5500 5600 5700 5800 5900 6000 6100 6200 6300 6400 6500 6600 6700 6800 6900 7000 7100 7200 7300 7400 7500 7600 7700 7800 7900 8000 8100 8200 8300 8400 8500 8600 8700 8800 8900 9000 9100 9200 9300 9400 9500 9600 9700 9800 9900 10000 10100 10200 10300 10400 10500 10600 10700 10800 10900 11000 11100 11200 11300 11400 11500 11600 11700 11800 11900 12000 12100 12200 12300 12400 12500 12600 12700 12800 12900 13000 13100 13200 13300 13400 13500 13600 13700 13800 13900 14000 14100 14200 14300 14400)) :ldur (quote ((100) (100) (100) (100) (100) (100) (100) (100) (100) (100) (100) (100) (100) (100) (100) (100) (100) (100) (100) (100) (100) (100) (100) (100) (100) (100) (100) (100) (100) (100) (100) (100) (100) (100) (100) (100) (100) (100) (100) (100) (100) (100) (100) (100) (100) (100) (100) (100) (100) (100) (100) (100) (100) (100) (100) (100) (100) (100) (100) (100) (100) (100) (100) (100) (100) (100) (100) (100) (100) (100) (100) (100) (100) (100) (100) (100) (100) (100) (100) (100) (100) (100) (100) (100) (100) (100) (100) (100) (100) (100) (100) (100) (100) (100) (100) (100) (100) (100) (100) (100) (100) (100) (100) (100) (100) (100) (100) (100) (100) (100) (100) (100) (100) (100) (100) (100) (100) (100) (100) (100) (100) (100) (100) (100) (100) (100) (100) (100) (100) (100) (100) (100) (100) (100) (100) (100) (100) (100) (100) (100) (100) (100) (100) (100))) :lvel (quote ((100) (100) (100) (100) (100) (100) (100) (100) (100) (100) (100) (100) (100) (100) (100) (100) (100) (100) (100) (100) (100) (100) (100) (100) (100) (100) (100) (100) (100) (100) (100) (100) (100) (100) (100) (100) (100) (100) (100) (100) (100) (100) (100) (100) (100) (100) (100) (100) (100) (100) (100) (100) (100) (100) (100) (100) (100) (100) (100) (100) (100) (100) (100) (100) (100) (100) (100) (100) (100) (100) (100) (100) (100) (100) (100) (100) (100) (100) (100) (100) (100) (100) (100) (100) (100) (100) (100) (100) (100) (100) (100) (100) (100) (100) (100) (100) (100) (100) (100) (100) (100) (100) (100) (100) (100) (100) (100) (100) (100) (100) (100) (100) (100) (100) (100) (100) (100) (100) (100) (100) (100) (100) (100) (100) (100) (100) (100) (100) (100) (100) (100) (100) (100) (100) (100) (100) (100) (100) (100) (100) (100) (100) (100) (100))) :loffset (quote ((0) (0) (0) (0) (0) (0) (0) (0) (0) (0) (0) (0) (0) (0) (0) (0) (0) (0) (0) (0) (0) (0) (0) (0) (0) (0) (0) (0) (0) (0) (0) (0) (0) (0) (0) (0) (0) (0) (0) (0) (0) (0) (0) (0) (0) (0) (0) (0) (0) (0) (0) (0) (0) (0) (0) (0) (0) (0) (0) (0) (0) (0) (0) (0) (0) (0) (0) (0) (0) (0) (0) (0) (0) (0) (0) (0) (0) (0) (0) (0) (0) (0) (0) (0) (0) (0) (0) (0) (0) (0) (0) (0) (0) (0) (0) (0) (0) (0) (0) (0) (0) (0) (0) (0) (0) (0) (0) (0) (0) (0) (0) (0) (0) (0) (0) (0) (0) (0) (0) (0) (0) (0) (0) (0) (0) (0) (0) (0) (0) (0) (0) (0) (0) (0) (0) (0) (0) (0) (0) (0) (0) (0) (0) (0))) :lchan (quote ((1) (1) (1) (1) (1) (1) (1) (1) (1) (1) (1) (1) (1) (1) (1) (1) (1) (1) (1) (1) (1) (1) (1) (1) (1) (1) (1) (1) (1) (1) (1) (1) (1) (1) (1) (1) (1) (1) (1) (1) (1) (1) (1) (1) (1) (1) (1) (1) (1) (1) (1) (1) (1) (1) (1) (1) (1) (1) (1) (1) (1) (1) (1) (1) (1) (1) (1) (1) (1) (1) (1) (1) (1) (1) (1) (1) (1) (1) (1) (1) (1) (1) (1) (1) (1) (1) (1) (1) (1) (1) (1) (1) (1) (1) (1) (1) (1) (1) (1) (1) (1) (1) (1) (1) (1) (1) (1) (1) (1) (1) (1) (1) (1) (1) (1) (1) (1) (1) (1) (1) (1) (1) (1) (1) (1) (1) (1) (1) (1) (1) (1) (1) (1) (1) (1) (1) (1) (1) (1) (1) (1) (1) (1) (1))) :legato 0)))) (load-port-info newobj (quote ((0) (0) (0) (0) (0) (0) (0) (0) (0) (0) (0) (0) (0) (0) (0) (0) (0) (0) (0) (0) (0) (0) (0) (0) (0) (0) (0) (0) (0) (0) (0) (0) (0) (0) (0) (0) (0) (0) (0) (0) (0) (0) (0) (0) (0) (0) (0) (0) (0) (0) (0) (0) (0) (0) (0) (0) (0) (0) (0) (0) (0) (0) (0) (0) (0) (0) (0) (0) (0) (0) (0) (0) (0) (0) (0) (0) (0) (0) (0) (0) (0) (0) (0) (0) (0) (0) (0) (0) (0) (0) (0) (0) (0) (0) (0) (0) (0) (0) (0) (0) (0) (0) (0) (0) (0) (0) (0) (0) (0) (0) (0) (0) (0) (0) (0) (0) (0) (0) (0) (0) (0) (0) (0) (0) (0) (0) (0) (0) (0) (0) (0) (0) (0) (0) (0) (0) (0) (0) (0) (0) (0) (0) (0) (0)))) (init-mus-color newobj (quote nil)) (set-extra-pairs newobj (quote nil)) (set-patch-pairs newobj (quote nil)) (set-name newobj nil) (set-tonalite newobj nil) newobj) nil nil (pairlis (quote (palette-mode scale show-stems obj-mode score-mode winpos winsize mode grillestep notechancolor? zoom player inport outport deltapict cmnpref staff fontsize approx)) (list 0 nil (quote t) 1 0 (om-make-point 95 298) (om-make-point 1242 399) 0 1000 nil 237/100 (quote :midishare) 0 nil (om-make-point 0 0) (let ((newobj (make-instance (quote edition-values)))) (setf (paper-size newobj) (om-make-point 600 800)) (setf (top-margin newobj) 2) (setf (left-margin newobj) 1) (setf (right-margin newobj) 1) (setf (bottom-margin newobj) 1) (setf (orientation newobj) nil) (setf (scale newobj) nil) (setf (system-space newobj) (quote (1))) (setf (system-color newobj) (quote nil)) (setf (line-space newobj) 1) (setf (title newobj) nil) (setf (show-title? newobj) nil) (setf (show-page? newobj) nil) (setf (sheet-id newobj) nil) (setf (page-mode newobj) nil) newobj) (quote ggff) 24 2)) t nil nil nil) (om-load-boxcall (quote bastype) "aux" (quote t) (quote nil) (om-make-point 497 283) (om-make-point 21 30) 2 "2" nil) (om-load-boxcall (quote genfun) "INTERPOL-PROF" (quote |Profile|::interpol-prof) (quote ((om-load-inputfun (quote input-funbox) "" "PROF1" (list 6000 6600 7100)) (om-load-inputfun (quote input-funbox) "" "PROF2" (list 4200 3200 5000 6400 7200)) (om-load-inputfun (quote input-funbox) "" "STEPS" 10) (om-load-inputfun (quote input-funbox) "" "NBR-N" nil) (om-load-inputfun (quote input-funbox) "" "TAB" (let ((newobj (when (find-class (quote bpf) nil) (let ((newbpf (simple-bpf-from-list (quote (0 100)) (quote (0 100)) (quote bpf) 0))) (setf (bpfcolor newbpf) (om-make-color 0 0 0)) (set-name newbpf nil) newbpf)))) newobj)) (om-load-inputfun (quote input-funbox) "" "NOTE?" nil) (om-load-inputfun (quote input-funbox) "" "PRECIS" 20) (om-load-inputfun (quote input-funbox) "" "APPROX" 2))) (om-make-point 95 355) (om-make-point 400 59) nil nil nil 1) (om-load-boxcomment "comment" (om-make-point 49 25) (quote "<=A") "" (om-make-point 399 29) nil (om-make-color 0 0 0) (om-make-font "Verdana" 12 :family "Verdana" :style (quote (:plain)) :mode (quote nil))) (om-load-boxcall (quote genfun) "FLAT 3" (quote flat) (quote ((om-load-inputfun (quote input-funbox) "a list" "LST" nil))) (om-make-point 118 108) nil nil nil nil 1) (om-load-editor-box1 "CHORD-SEQ 2" (quote chord-seq) (quote ((om-load-inputfun (quote input-funbox) "object" "self" nil) (om-load-inputfun (quote input-funbox) "pitches (mc): list or list of lists" "lmidic" (list 6000)) (om-load-inputfun (quote input-funbox) "onsets (ms): list" "lonset" (list 0 1000)) (om-load-inputfun (quote input-funbox) "durations (ms): list or list of lists" "ldur" (list 1000)) (om-load-inputfun (quote input-funbox) "velocities (0-127): list or list of lists" "lvel" (list 100)) (om-load-inputfun (quote input-funbox) "offsets (ms): list or list of lists" "loffset" (list 0)) (om-load-inputfun (quote input-funbox) "MIDI channels (1-16): list or list of lists" "lchan" (list 1)) (om-load-inputfun (quote input-funbox) "relative chords duration (0-100)" "legato" 0))) (om-make-point 64 0) (om-make-point 335 97) (let ((newobj (when (find-class (quote chord-seq) nil) (make-instance (quote chord-seq) :lmidic (quote ((3600) (4800) (5500) (6000) (6400) (6700) (7000) (7200) (7400) (7600) (7800) (7900) (8000) (8200) (8300) (8400))) :lonset (quote (0 756 1364 1925 2469 3019 3583 4044 4422 4725 5008 5189 5397 5600 5689 5778 6778)) :ldur (quote ((1000) (1000) (1000) (1000) (1000) (1000) (1000) (1000) (1000) (1000) (1000) (1000) (1000) (1000) (1000) (1000))) :lvel (quote ((100) (100) (100) (100) (100) (100) (100) (100) (100) (100) (100) (100) (100) (100) (100) (100))) :loffset (quote ((0) (0) (0) (0) (0) (0) (0) (0) (0) (0) (0) (0) (0) (0) (0) (0))) :lchan (quote ((1) (1) (1) (1) (1) (1) (1) (1) (1) (1) (1) (1) (1) (1) (1) (1))) :legato 0)))) (load-port-info newobj (quote ((0) (0) (0) (0) (0) (0) (0) (0) (0) (0) (0) (0) (0) (0) (0) (0)))) (init-mus-color newobj (quote nil)) (set-extra-pairs newobj (quote nil)) (set-patch-pairs newobj (quote ((nil (om-load-patch-abs1 "patch" (quote nil) (quote nil) 6.050102 nil "" (om-make-point 200 200) (om-make-point 400 500)))))) (set-name newobj nil) (set-tonalite newobj nil) newobj) "x" nil (pairlis (quote (palette-mode scale show-stems obj-mode score-mode winpos winsize mode grillestep notechancolor? zoom player inport outport deltapict cmnpref staff fontsize approx)) (list 0 nil (quote t) 1 0 (om-make-point -72 -557) (om-make-point 837 375) 0 1000 nil 167/100 (quote :midishare) 0 nil (om-make-point 0 0) (let ((newobj (make-instance (quote edition-values)))) (setf (paper-size newobj) (om-make-point 600 800)) (setf (top-margin newobj) 2) (setf (left-margin newobj) 1) (setf (right-margin newobj) 1) (setf (bottom-margin newobj) 1) (setf (orientation newobj) nil) (setf (scale newobj) nil) (setf (system-space newobj) (quote (1))) (setf (system-color newobj) (quote nil)) (setf (line-space newobj) 1) (setf (title newobj) nil) (setf (show-title? newobj) nil) (setf (show-page? newobj) nil) (setf (sheet-id newobj) nil) (setf (page-mode newobj) nil) newobj) (quote gf) 24 2)) t nil nil nil) (om-load-boxcall (quote bastype) "list 2" (quote list) (quote nil) (om-make-point 273 309) (om-make-point 21 30) 9 "9" nil) (om-load-editor-box1 "BPF 2" (quote bpf) (quote ((om-load-inputfun (quote input-funbox) "object" "self" nil) (om-load-inputfun (quote input-funbox) "X coordinates (list)" "x-points" (list 0 100)) (om-load-inputfun (quote input-funbox) "Y coordinates (list)" "y-points" (list 0 100)) (om-load-inputfun (quote input-funbox) "precision (integer) [0 - 10]" "decimals" 0))) (om-make-point 154 252) (om-make-point 105 48) (let ((newobj (when (find-class (quote bpf) nil) (let ((newbpf (simple-bpf-from-list (quote (0 89 178 381 589 770 1053 1356 1734 2195 2759 3309 3853 4414 5022 5778)) (quote (8400 8300 8200 8000 7900 7800 7600 7400 7200 7000 6700 6400 6000 5500 4800 3600)) (quote bpf) 0))) (setf (bpfcolor newbpf) (om-make-color 0 0 0)) (set-name newbpf nil) newbpf)))) newobj) nil nil (pairlis (quote (picture winpos winsize)) (list nil (om-make-point 150 100) (om-make-point 1019 519))) t nil nil nil))) (quote ((11 0 3 0 nil 0) (5 0 3 1 nil 0) (14 2 4 0 nil 0) (12 2 5 0 nil 0) (9 0 6 0 nil 0) (6 0 7 1 nil 0) (11 0 9 0 nil 0) (14 2 9 1 nil 0) (13 0 9 2 nil 0) (8 0 9 7 nil 0) (12 1 11 0 nil 0) (3 0 14 0 nil 0))) nil 6.050102))
