; OM File Header - Saved 2013/10/13 0:13:47
; (6.0602 :patc (om-make-point 496 60) (om-make-point 39 22) (om-make-point 1241 675) "" 183 0 "2013/10/12 23:28:13" "2013/10/12 23:55:45")
; End File Header
(in-package :om)(load-lib-for (quote nil))(setf *om-current-persistent* (om-load-patch1 "musica processual 2" (quote ((om-load-boxcall (quote lispfun) "LIST 8" (quote list) (quote ((om-load-inputfun (quote input-funbox) "add-input" "add-input" nil) (om-load-inputfun (quote input-funbox) "add-input" "add-input" nil))) (om-make-point 367 605) nil nil nil nil 1) (om-load-editor-box1 "MULTI-SEQ" (quote multi-seq) (quote ((om-load-inputfun (quote input-funbox) "object" "self" nil) (om-load-inputfun (quote input-funbox) "list of CHORD-SEQ objects" "chord-seqs" (list (let ((newobj (when (find-class (quote chord-seq) nil) (make-instance (quote chord-seq) :lmidic (quote ((6000))) :lonset (quote (0 1000)) :ldur (quote ((1000))) :lvel (quote ((100))) :loffset (quote ((0))) :lchan (quote ((1))) :legato 0)))) (load-port-info newobj (quote ((0)))) (init-mus-color newobj (quote nil)) (set-extra-pairs newobj (quote nil)) (set-patch-pairs newobj (quote nil)) (set-name newobj nil) (set-tonalite newobj nil) newobj))))) (om-make-point 479 388) (om-make-point 760 192) (if (find-class (quote multi-seq) nil) (let ((newobj (make-instance (quote multi-seq) :chord-seqs (list (let ((newobj (when (find-class (quote chord-seq) nil) (make-instance (quote chord-seq) :lmidic (quote ((6000) (6200) (6400) (6700) (6900) (6700) (6200) (6400) (6000) (6200) (6400) (6700) (6900) (6700) (6200) (6400) (6000) (6200) (6400) (6700) (6900) (6700) (6200) (6400) (6000) (6200) (6400) (6700) (6900) (6700) (6200) (6400) (6000) (6200) (6400) (6700) (6900) (6700) (6200) (6400) (6000) (6200) (6400) (6700) (6900) (6700) (6200) (6400) (6000) (6200) (6400) (6700) (6900) (6700) (6200) (6400) (6000) (6200) (6400) (6700) (6900) (6700) (6200) (6400) (6000) (6200) (6400) (6700) (6900) (6700) (6200) (6400) (6000) (6200) (6400) (6700) (6900) (6700) (6200) (6400) (6000) (6200) (6400) (6700) (6900) (6700) (6200) (6400))) :lonset (quote (0 100 200 300 400 500 600 700 825 950 1075 1200 1325 1450 1575 1725 1875 2025 2175 2325 2475 2625 2800 2975 3150 3325 3500 3675 3850 4050 4250 4450 4650 4850 5050 5250 5475 5700 5925 6150 6375 6600 6825 7075 7325 7575 7825 8075 8325 8575 8850 9125 9400 9675 9950 10225 10500 10800 11100 11400 11700 12000 12300 12600 12925 13250 13575 13900 14225 14550 14875 15225 15575 15925 16275 16625 16975 17325 17675 18025 18375 18725 19075 19425 19775 20125 20475 20825 21825)) :ldur (quote ((1000) (1000) (1000) (1000) (1000) (1000) (1000) (1000) (1000) (1000) (1000) (1000) (1000) (1000) (1000) (1000) (1000) (1000) (1000) (1000) (1000) (1000) (1000) (1000) (1000) (1000) (1000) (1000) (1000) (1000) (1000) (1000) (1000) (1000) (1000) (1000) (1000) (1000) (1000) (1000) (1000) (1000) (1000) (1000) (1000) (1000) (1000) (1000) (1000) (1000) (1000) (1000) (1000) (1000) (1000) (1000) (1000) (1000) (1000) (1000) (1000) (1000) (1000) (1000) (1000) (1000) (1000) (1000) (1000) (1000) (1000) (1000) (1000) (1000) (1000) (1000) (1000) (1000) (1000) (1000) (1000) (1000) (1000) (1000) (1000) (1000) (1000) (1000))) :lvel (quote ((100) (100) (100) (100) (100) (100) (100) (100) (100) (100) (100) (100) (100) (100) (100) (100) (100) (100) (100) (100) (100) (100) (100) (100) (100) (100) (100) (100) (100) (100) (100) (100) (100) (100) (100) (100) (100) (100) (100) (100) (100) (100) (100) (100) (100) (100) (100) (100) (100) (100) (100) (100) (100) (100) (100) (100) (100) (100) (100) (100) (100) (100) (100) (100) (100) (100) (100) (100) (100) (100) (100) (100) (100) (100) (100) (100) (100) (100) (100) (100) (100) (100) (100) (100) (100) (100) (100) (100))) :loffset (quote ((0) (0) (0) (0) (0) (0) (0) (0) (0) (0) (0) (0) (0) (0) (0) (0) (0) (0) (0) (0) (0) (0) (0) (0) (0) (0) (0) (0) (0) (0) (0) (0) (0) (0) (0) (0) (0) (0) (0) (0) (0) (0) (0) (0) (0) (0) (0) (0) (0) (0) (0) (0) (0) (0) (0) (0) (0) (0) (0) (0) (0) (0) (0) (0) (0) (0) (0) (0) (0) (0) (0) (0) (0) (0) (0) (0) (0) (0) (0) (0) (0) (0) (0) (0) (0) (0) (0) (0))) :lchan (quote ((1) (1) (1) (1) (1) (1) (1) (1) (1) (1) (1) (1) (1) (1) (1) (1) (1) (1) (1) (1) (1) (1) (1) (1) (1) (1) (1) (1) (1) (1) (1) (1) (1) (1) (1) (1) (1) (1) (1) (1) (1) (1) (1) (1) (1) (1) (1) (1) (1) (1) (1) (1) (1) (1) (1) (1) (1) (1) (1) (1) (1) (1) (1) (1) (1) (1) (1) (1) (1) (1) (1) (1) (1) (1) (1) (1) (1) (1) (1) (1) (1) (1) (1) (1) (1) (1) (1) (1))) :legato 0)))) (load-port-info newobj (quote ((0) (0) (0) (0) (0) (0) (0) (0) (0) (0) (0) (0) (0) (0) (0) (0) (0) (0) (0) (0) (0) (0) (0) (0) (0) (0) (0) (0) (0) (0) (0) (0) (0) (0) (0) (0) (0) (0) (0) (0) (0) (0) (0) (0) (0) (0) (0) (0) (0) (0) (0) (0) (0) (0) (0) (0) (0) (0) (0) (0) (0) (0) (0) (0) (0) (0) (0) (0) (0) (0) (0) (0) (0) (0) (0) (0) (0) (0) (0) (0) (0) (0) (0) (0) (0) (0) (0) (0)))) (init-mus-color newobj (quote nil)) (set-extra-pairs newobj (quote nil)) (set-patch-pairs newobj (quote nil)) (set-name newobj nil) (set-tonalite newobj nil) newobj) (let ((newobj (when (find-class (quote chord-seq) nil) (make-instance (quote chord-seq) :lmidic (quote ((4800) (5000) (5200) (5500) (5700) (5500) (5000) (5200) (4800) (5000) (5200) (5500) (5700) (5500) (5000) (5200) (4800) (5000) (5200) (5500) (5700) (5500) (5000) (5200) (4800) (5000) (5200) (5500) (5700) (5500) (5000) (5200) (4800) (5000) (5200) (5500) (5700) (5500) (5000) (5200) (4800) (5000) (5200) (5500) (5700) (5500) (5000) (5200) (4800) (5000) (5200) (5500) (5700) (5500) (5000) (5200) (4800) (5000) (5200) (5500) (5700) (5500) (5000) (5200) (4800) (5000) (5200) (5500) (5700) (5500) (5000) (5200) (4800) (5000) (5200) (5500) (5700) (5500) (5000) (5200) (4800) (5000) (5200) (5500) (5700) (5500) (5000) (5200))) :lonset (quote (0 350 700 1050 1400 1750 2100 2450 2775 3100 3425 3750 4075 4400 4725 5025 5325 5625 5925 6225 6525 6825 7100 7375 7650 7925 8200 8475 8750 9000 9250 9500 9750 10000 10250 10500 10725 10950 11175 11400 11625 11850 12075 12275 12475 12675 12875 13075 13275 13475 13650 13825 14000 14175 14350 14525 14700 14850 15000 15150 15300 15450 15600 15750 15875 16000 16125 16250 16375 16500 16625 16725 16825 16925 17025 17125 17225 17325 17425 17525 17625 17725 17825 17925 18025 18125 18225 18325 19325)) :ldur (quote ((1000) (1000) (1000) (1000) (1000) (1000) (1000) (1000) (1000) (1000) (1000) (1000) (1000) (1000) (1000) (1000) (1000) (1000) (1000) (1000) (1000) (1000) (1000) (1000) (1000) (1000) (1000) (1000) (1000) (1000) (1000) (1000) (1000) (1000) (1000) (1000) (1000) (1000) (1000) (1000) (1000) (1000) (1000) (1000) (1000) (1000) (1000) (1000) (1000) (1000) (1000) (1000) (1000) (1000) (1000) (1000) (1000) (1000) (1000) (1000) (1000) (1000) (1000) (1000) (1000) (1000) (1000) (1000) (1000) (1000) (1000) (1000) (1000) (1000) (1000) (1000) (1000) (1000) (1000) (1000) (1000) (1000) (1000) (1000) (1000) (1000) (1000) (1000))) :lvel (quote ((100) (100) (100) (100) (100) (100) (100) (100) (100) (100) (100) (100) (100) (100) (100) (100) (100) (100) (100) (100) (100) (100) (100) (100) (100) (100) (100) (100) (100) (100) (100) (100) (100) (100) (100) (100) (100) (100) (100) (100) (100) (100) (100) (100) (100) (100) (100) (100) (100) (100) (100) (100) (100) (100) (100) (100) (100) (100) (100) (100) (100) (100) (100) (100) (100) (100) (100) (100) (100) (100) (100) (100) (100) (100) (100) (100) (100) (100) (100) (100) (100) (100) (100) (100) (100) (100) (100) (100))) :loffset (quote ((0) (0) (0) (0) (0) (0) (0) (0) (0) (0) (0) (0) (0) (0) (0) (0) (0) (0) (0) (0) (0) (0) (0) (0) (0) (0) (0) (0) (0) (0) (0) (0) (0) (0) (0) (0) (0) (0) (0) (0) (0) (0) (0) (0) (0) (0) (0) (0) (0) (0) (0) (0) (0) (0) (0) (0) (0) (0) (0) (0) (0) (0) (0) (0) (0) (0) (0) (0) (0) (0) (0) (0) (0) (0) (0) (0) (0) (0) (0) (0) (0) (0) (0) (0) (0) (0) (0) (0))) :lchan (quote ((1) (1) (1) (1) (1) (1) (1) (1) (1) (1) (1) (1) (1) (1) (1) (1) (1) (1) (1) (1) (1) (1) (1) (1) (1) (1) (1) (1) (1) (1) (1) (1) (1) (1) (1) (1) (1) (1) (1) (1) (1) (1) (1) (1) (1) (1) (1) (1) (1) (1) (1) (1) (1) (1) (1) (1) (1) (1) (1) (1) (1) (1) (1) (1) (1) (1) (1) (1) (1) (1) (1) (1) (1) (1) (1) (1) (1) (1) (1) (1) (1) (1) (1) (1) (1) (1) (1) (1))) :legato 0)))) (load-port-info newobj (quote ((0) (0) (0) (0) (0) (0) (0) (0) (0) (0) (0) (0) (0) (0) (0) (0) (0) (0) (0) (0) (0) (0) (0) (0) (0) (0) (0) (0) (0) (0) (0) (0) (0) (0) (0) (0) (0) (0) (0) (0) (0) (0) (0) (0) (0) (0) (0) (0) (0) (0) (0) (0) (0) (0) (0) (0) (0) (0) (0) (0) (0) (0) (0) (0) (0) (0) (0) (0) (0) (0) (0) (0) (0) (0) (0) (0) (0) (0) (0) (0) (0) (0) (0) (0) (0) (0) (0) (0)))) (init-mus-color newobj (quote nil)) (set-extra-pairs newobj (quote nil)) (set-patch-pairs newobj (quote nil)) (set-name newobj nil) (set-tonalite newobj nil) newobj)) :from-file t))) (load-port-info newobj (quote (((0) (0) (0) (0) (0) (0) (0) (0) (0) (0) (0) (0) (0) (0) (0) (0) (0) (0) (0) (0) (0) (0) (0) (0) (0) (0) (0) (0) (0) (0) (0) (0) (0) (0) (0) (0) (0) (0) (0) (0) (0) (0) (0) (0) (0) (0) (0) (0) (0) (0) (0) (0) (0) (0) (0) (0) (0) (0) (0) (0) (0) (0) (0) (0) (0) (0) (0) (0) (0) (0) (0) (0) (0) (0) (0) (0) (0) (0) (0) (0) (0) (0) (0) (0) (0) (0) (0) (0)) ((0) (0) (0) (0) (0) (0) (0) (0) (0) (0) (0) (0) (0) (0) (0) (0) (0) (0) (0) (0) (0) (0) (0) (0) (0) (0) (0) (0) (0) (0) (0) (0) (0) (0) (0) (0) (0) (0) (0) (0) (0) (0) (0) (0) (0) (0) (0) (0) (0) (0) (0) (0) (0) (0) (0) (0) (0) (0) (0) (0) (0) (0) (0) (0) (0) (0) (0) (0) (0) (0) (0) (0) (0) (0) (0) (0) (0) (0) (0) (0) (0) (0) (0) (0) (0) (0) (0) (0))))) (init-mus-color newobj (quote nil)) (set-extra-pairs newobj (quote nil)) (set-patch-pairs newobj (quote ((nil (om-load-patch-abs1 "patch" (quote nil) (quote nil) 6.0602 nil "" (om-make-point 200 200) (om-make-point 400 500)))))) (set-name newobj nil) (set-tonalite newobj nil) newobj)) nil nil (pairlis (quote (palette-mode scale show-stems obj-mode score-mode winpos winsize mode grillestep notechancolor? zoom player inport outport deltapict cmnpref staff fontsize approx)) (list 0 nil (quote t) 1 0 (om-make-point 61 182) (om-make-point 1214 366) 0 1000 nil 73/100 (quote :midishare) 0 nil (om-make-point 0 0) (let ((newobj (make-instance (quote edition-values)))) (setf (paper-size newobj) (om-make-point 600 800)) (setf (top-margin newobj) 2) (setf (left-margin newobj) 1) (setf (right-margin newobj) 1) (setf (bottom-margin newobj) 1) (setf (orientation newobj) nil) (setf (scale newobj) nil) (setf (system-space newobj) (quote (1 1))) (setf (system-color newobj) (quote nil)) (setf (line-space newobj) 1) (setf (title newobj) nil) (setf (show-title? newobj) nil) (setf (show-page? newobj) nil) (setf (sheet-id newobj) nil) (setf (page-mode newobj) nil) newobj) (list (quote gf) (quote gf)) 24 2)) t nil nil nil) (om-load-boxcomment "comment 3" (om-make-point 173 29) (quote "<= 1o onset (em miliseg.)") "" (om-make-point 238 246) nil (om-make-color 0 0 0) (om-make-font "Verdana" 12 :family "Verdana" :style (quote (:plain)) :mode (quote nil))) (om-load-boxcall (quote genfun) "FLAT 3" (quote flat) (quote ((om-load-inputfun (quote input-funbox) "a list" "LST" nil))) (om-make-point 287 407) nil nil nil nil 1) (om-load-boxcall (quote bastype) "list 7" (quote list) (quote nil) (om-make-point 328 339) (om-make-point 48 30) 1200 "1200" nil) (om-load-boxcall (quote genfun) "OM- 12" (quote om-) (quote ((om-load-inputfun (quote input-funbox) "number or list" "ARG1" 0) (om-load-inputfun (quote input-funbox) "number or list" "ARG2" 0))) (om-make-point 305 373) nil nil nil nil 1) (om-load-editor-box1 "CHORD-SEQ 3" (quote chord-seq) (quote ((om-load-inputfun (quote input-funbox) "object" "self" nil) (om-load-inputfun (quote input-funbox) "pitches (mc): list or list of lists" "lmidic" (list 6000)) (om-load-inputfun (quote input-funbox) "onsets (ms): list" "lonset" (list 0 1000)) (om-load-inputfun (quote input-funbox) "durations (ms): list or list of lists" "ldur" (list 1000)) (om-load-inputfun (quote input-funbox) "velocities (0-127): list or list of lists" "lvel" (list 100)) (om-load-inputfun (quote input-funbox) "offsets (ms): list or list of lists" "loffset" (list 0)) (om-load-inputfun (quote input-funbox) "MIDI channels (1-16): list or list of lists" "lchan" (list 1)) (om-load-inputfun (quote input-funbox) "relative chords duration (0-100)" "legato" 0))) (om-make-point 263 468) (om-make-point 188 109) (let ((newobj (when (find-class (quote chord-seq) nil) (make-instance (quote chord-seq) :lmidic (quote ((4800) (5000) (5200) (5500) (5700) (5500) (5000) (5200) (4800) (5000) (5200) (5500) (5700) (5500) (5000) (5200) (4800) (5000) (5200) (5500) (5700) (5500) (5000) (5200) (4800) (5000) (5200) (5500) (5700) (5500) (5000) (5200) (4800) (5000) (5200) (5500) (5700) (5500) (5000) (5200) (4800) (5000) (5200) (5500) (5700) (5500) (5000) (5200) (4800) (5000) (5200) (5500) (5700) (5500) (5000) (5200) (4800) (5000) (5200) (5500) (5700) (5500) (5000) (5200) (4800) (5000) (5200) (5500) (5700) (5500) (5000) (5200) (4800) (5000) (5200) (5500) (5700) (5500) (5000) (5200) (4800) (5000) (5200) (5500) (5700) (5500) (5000) (5200))) :lonset (quote (0 350 700 1050 1400 1750 2100 2450 2775 3100 3425 3750 4075 4400 4725 5025 5325 5625 5925 6225 6525 6825 7100 7375 7650 7925 8200 8475 8750 9000 9250 9500 9750 10000 10250 10500 10725 10950 11175 11400 11625 11850 12075 12275 12475 12675 12875 13075 13275 13475 13650 13825 14000 14175 14350 14525 14700 14850 15000 15150 15300 15450 15600 15750 15875 16000 16125 16250 16375 16500 16625 16725 16825 16925 17025 17125 17225 17325 17425 17525 17625 17725 17825 17925 18025 18125 18225 18325 19325)) :ldur (quote ((1000) (1000) (1000) (1000) (1000) (1000) (1000) (1000) (1000) (1000) (1000) (1000) (1000) (1000) (1000) (1000) (1000) (1000) (1000) (1000) (1000) (1000) (1000) (1000) (1000) (1000) (1000) (1000) (1000) (1000) (1000) (1000) (1000) (1000) (1000) (1000) (1000) (1000) (1000) (1000) (1000) (1000) (1000) (1000) (1000) (1000) (1000) (1000) (1000) (1000) (1000) (1000) (1000) (1000) (1000) (1000) (1000) (1000) (1000) (1000) (1000) (1000) (1000) (1000) (1000) (1000) (1000) (1000) (1000) (1000) (1000) (1000) (1000) (1000) (1000) (1000) (1000) (1000) (1000) (1000) (1000) (1000) (1000) (1000) (1000) (1000) (1000) (1000))) :lvel (quote ((100) (100) (100) (100) (100) (100) (100) (100) (100) (100) (100) (100) (100) (100) (100) (100) (100) (100) (100) (100) (100) (100) (100) (100) (100) (100) (100) (100) (100) (100) (100) (100) (100) (100) (100) (100) (100) (100) (100) (100) (100) (100) (100) (100) (100) (100) (100) (100) (100) (100) (100) (100) (100) (100) (100) (100) (100) (100) (100) (100) (100) (100) (100) (100) (100) (100) (100) (100) (100) (100) (100) (100) (100) (100) (100) (100) (100) (100) (100) (100) (100) (100) (100) (100) (100) (100) (100) (100))) :loffset (quote ((0) (0) (0) (0) (0) (0) (0) (0) (0) (0) (0) (0) (0) (0) (0) (0) (0) (0) (0) (0) (0) (0) (0) (0) (0) (0) (0) (0) (0) (0) (0) (0) (0) (0) (0) (0) (0) (0) (0) (0) (0) (0) (0) (0) (0) (0) (0) (0) (0) (0) (0) (0) (0) (0) (0) (0) (0) (0) (0) (0) (0) (0) (0) (0) (0) (0) (0) (0) (0) (0) (0) (0) (0) (0) (0) (0) (0) (0) (0) (0) (0) (0) (0) (0) (0) (0) (0) (0))) :lchan (quote ((1) (1) (1) (1) (1) (1) (1) (1) (1) (1) (1) (1) (1) (1) (1) (1) (1) (1) (1) (1) (1) (1) (1) (1) (1) (1) (1) (1) (1) (1) (1) (1) (1) (1) (1) (1) (1) (1) (1) (1) (1) (1) (1) (1) (1) (1) (1) (1) (1) (1) (1) (1) (1) (1) (1) (1) (1) (1) (1) (1) (1) (1) (1) (1) (1) (1) (1) (1) (1) (1) (1) (1) (1) (1) (1) (1) (1) (1) (1) (1) (1) (1) (1) (1) (1) (1) (1) (1))) :legato 0)))) (load-port-info newobj (quote ((0) (0) (0) (0) (0) (0) (0) (0) (0) (0) (0) (0) (0) (0) (0) (0) (0) (0) (0) (0) (0) (0) (0) (0) (0) (0) (0) (0) (0) (0) (0) (0) (0) (0) (0) (0) (0) (0) (0) (0) (0) (0) (0) (0) (0) (0) (0) (0) (0) (0) (0) (0) (0) (0) (0) (0) (0) (0) (0) (0) (0) (0) (0) (0) (0) (0) (0) (0) (0) (0) (0) (0) (0) (0) (0) (0) (0) (0) (0) (0) (0) (0) (0) (0) (0) (0) (0) (0)))) (init-mus-color newobj (quote nil)) (set-extra-pairs newobj (quote nil)) (set-patch-pairs newobj (quote nil)) (set-name newobj nil) (set-tonalite newobj nil) newobj) nil nil (pairlis (quote (approx fontsize staff cmnpref deltapict outport inport player zoom notechancolor? grillestep mode winsize winpos score-mode obj-mode show-stems scale palette-mode)) (list 2 24 (quote gf) (let ((newobj (make-instance (quote edition-values)))) (setf (paper-size newobj) (om-make-point 600 800)) (setf (top-margin newobj) 2) (setf (left-margin newobj) 1) (setf (right-margin newobj) 1) (setf (bottom-margin newobj) 1) (setf (orientation newobj) nil) (setf (scale newobj) nil) (setf (system-space newobj) (quote (1))) (setf (system-color newobj) (quote nil)) (setf (line-space newobj) 1) (setf (title newobj) nil) (setf (show-title? newobj) nil) (setf (show-page? newobj) nil) (setf (sheet-id newobj) nil) (setf (page-mode newobj) nil) newobj) (om-make-point 0 0) nil 0 (quote :midishare) 1 nil 1000 0 (om-make-point 370 280) (om-make-point 400 20) 0 1 (quote t) nil 0)) t nil nil nil) (om-load-boxcall (quote genfun) "OM- 11" (quote om-) (quote ((om-load-inputfun (quote input-funbox) "number or list" "ARG1" 0) (om-load-inputfun (quote input-funbox) "number or list" "ARG2" 0))) (om-make-point 1111 242) nil nil nil nil 1) (om-load-boxcall (quote genfun) "OM- 10" (quote om-) (quote ((om-load-inputfun (quote input-funbox) "number or list" "ARG1" 0) (om-load-inputfun (quote input-funbox) "number or list" "ARG2" 0))) (om-make-point 1023 248) nil nil nil nil 1) (om-load-boxcall (quote genfun) "OM- 9" (quote om-) (quote ((om-load-inputfun (quote input-funbox) "number or list" "ARG1" 0) (om-load-inputfun (quote input-funbox) "number or list" "ARG2" 0))) (om-make-point 946 251) nil nil nil nil 1) (om-load-boxcall (quote genfun) "OM- 8" (quote om-) (quote ((om-load-inputfun (quote input-funbox) "number or list" "ARG1" 0) (om-load-inputfun (quote input-funbox) "number or list" "ARG2" 0))) (om-make-point 884 250) nil nil nil nil 1) (om-load-boxcall (quote genfun) "OM- 7" (quote om-) (quote ((om-load-inputfun (quote input-funbox) "number or list" "ARG1" 0) (om-load-inputfun (quote input-funbox) "number or list" "ARG2" 0))) (om-make-point 821 253) nil nil nil nil 1) (om-load-boxcall (quote genfun) "OM- 6" (quote om-) (quote ((om-load-inputfun (quote input-funbox) "number or list" "ARG1" 0) (om-load-inputfun (quote input-funbox) "number or list" "ARG2" 0))) (om-make-point 750 253) nil nil nil nil 1) (om-load-boxcall (quote genfun) "OM- 5" (quote om-) (quote ((om-load-inputfun (quote input-funbox) "number or list" "ARG1" 0) (om-load-inputfun (quote input-funbox) "number or list" "ARG2" 0))) (om-make-point 678 249) nil nil nil nil 1) (om-load-boxcall (quote genfun) "OM- 4" (quote om-) (quote ((om-load-inputfun (quote input-funbox) "number or list" "ARG1" 0) (om-load-inputfun (quote input-funbox) "number or list" "ARG2" 0))) (om-make-point 611 261) nil nil nil nil 1) (om-load-boxcall (quote genfun) "OM- 3" (quote om-) (quote ((om-load-inputfun (quote input-funbox) "number or list" "ARG1" 0) (om-load-inputfun (quote input-funbox) "number or list" "ARG2" 0))) (om-make-point 536 260) nil nil nil nil 1) (om-load-boxcall (quote genfun) "OM- 2" (quote om-) (quote ((om-load-inputfun (quote input-funbox) "number or list" "ARG1" 0) (om-load-inputfun (quote input-funbox) "number or list" "ARG2" 0))) (om-make-point 474 230) nil nil nil nil 1) (om-load-boxcall (quote bastype) "list 6" (quote list) (quote nil) (om-make-point 198 250) (om-make-point 41 30) 100 "100" nil) (om-load-boxcall (quote genfun) "X->DX" (quote x->dx) (quote ((om-load-inputfun (quote input-funbox) "a list of numbers" "SELF" 0))) (om-make-point 349 64) nil nil nil nil 1) (om-load-boxcall (quote lispfun) "LAST" (quote last) (quote ((om-load-inputfun (quote input-funbox) "LIST" "LIST" nil))) (om-make-point 415 67) nil nil nil nil 1) (om-load-boxcall (quote abstraction) "Ralentando em 11 passos" (om-load-patch-abs1 "Ralentando em 11 passos" (quote ((om-load-boxin "Incremento" 2 (om-make-point 502 24) "" "Incremento" nil nil) (om-load-boxin "1o onset" 1 (om-make-point 237 14) "" "1o onset" nil nil) (om-load-boxout "output" 0 (om-make-point 147 455) (quote ((om-load-inputfun (quote input-funbox) "" "out" nil))) nil nil) (om-load-boxin "length-1" 0 (om-make-point 5 45) "" "length-1" nil nil) (om-load-boxcall (quote lispfun) "LIST 3" (quote list) (quote ((om-load-inputfun (quote input-funbox) "add-input" "add-input" nil) (om-load-inputfun (quote input-funbox) "add-input" "add-input" nil) (om-load-inputfun (quote input-funbox) "add-input" "add-input" nil) (om-load-inputfun (quote input-funbox) "add-input" "add-input" nil) (om-load-inputfun (quote input-funbox) "add-input" "add-input" nil) (om-load-inputfun (quote input-funbox) "add-input" "add-input" nil) (om-load-inputfun (quote input-funbox) "add-input" "add-input" nil) (om-load-inputfun (quote input-funbox) "add-input" "add-input" nil) (om-load-inputfun (quote input-funbox) "add-input" "add-input" nil) (om-load-inputfun (quote input-funbox) "add-input" "add-input" nil) (om-load-inputfun (quote input-funbox) "add-input" "add-input" nil))) (om-make-point 101 312) (om-make-point 799 43) nil nil nil 1) (om-load-boxcall (quote genfun) "OM+ 10" (quote om+) (quote ((om-load-inputfun (quote input-funbox) "number or list" "ARG1" 0) (om-load-inputfun (quote input-funbox) "number or list" "ARG2" 0))) (om-make-point 190 253) nil nil nil nil 1) (om-load-boxcall (quote genfun) "OM+ 9" (quote om+) (quote ((om-load-inputfun (quote input-funbox) "number or list" "ARG1" 0) (om-load-inputfun (quote input-funbox) "number or list" "ARG2" 0))) (om-make-point 254 283) nil nil nil nil 1) (om-load-boxcall (quote genfun) "OM+ 8" (quote om+) (quote ((om-load-inputfun (quote input-funbox) "number or list" "ARG1" 0) (om-load-inputfun (quote input-funbox) "number or list" "ARG2" 0))) (om-make-point 325 279) nil nil nil nil 1) (om-load-boxcall (quote genfun) "OM+ 7" (quote om+) (quote ((om-load-inputfun (quote input-funbox) "number or list" "ARG1" 0) (om-load-inputfun (quote input-funbox) "number or list" "ARG2" 0))) (om-make-point 407 278) nil nil nil nil 1) (om-load-boxcall (quote genfun) "OM+ 6" (quote om+) (quote ((om-load-inputfun (quote input-funbox) "number or list" "ARG1" 0) (om-load-inputfun (quote input-funbox) "number or list" "ARG2" 0))) (om-make-point 475 279) nil nil nil nil 1) (om-load-boxcall (quote genfun) "OM+ 5" (quote om+) (quote ((om-load-inputfun (quote input-funbox) "number or list" "ARG1" 0) (om-load-inputfun (quote input-funbox) "number or list" "ARG2" 0))) (om-make-point 538 273) nil nil nil nil 1) (om-load-boxcall (quote genfun) "OM+ 4" (quote om+) (quote ((om-load-inputfun (quote input-funbox) "number or list" "ARG1" 0) (om-load-inputfun (quote input-funbox) "number or list" "ARG2" 0))) (om-make-point 609 280) nil nil nil nil 1) (om-load-boxcall (quote genfun) "OM+ 3" (quote om+) (quote ((om-load-inputfun (quote input-funbox) "number or list" "ARG1" 0) (om-load-inputfun (quote input-funbox) "number or list" "ARG2" 0))) (om-make-point 675 279) nil nil nil nil 1) (om-load-boxcall (quote genfun) "OM+ 2" (quote om+) (quote ((om-load-inputfun (quote input-funbox) "number or list" "ARG1" 0) (om-load-inputfun (quote input-funbox) "number or list" "ARG2" 0))) (om-make-point 745 278) nil nil nil nil 1) (om-load-boxcall (quote genfun) "FLAT" (quote flat) (quote ((om-load-inputfun (quote input-funbox) "a list" "LST" nil))) (om-make-point 305 403) nil nil nil nil 1) (om-load-boxcall (quote genfun) "DX->X" (quote dx->x) (quote ((om-load-inputfun (quote input-funbox) "a number" "START" 0) (om-load-inputfun (quote input-funbox) "a list of numbers" "LIST" (list 1 1)))) (om-make-point 217 413) nil nil nil nil 1) (om-load-boxcall (quote genfun) "CREATE-LIST" (quote create-list) (quote ((om-load-inputfun (quote input-funbox) "number of elements" "COUNT" 10) (om-load-inputfun (quote input-funbox) "initial element" "ELEM" nil))) (om-make-point 126 81) nil nil nil nil 1) (om-load-boxcall (quote genfun) "ARITHM-SER" (quote arithm-ser) (quote ((om-load-inputfun (quote input-funbox) "begin" "BEGIN" 0) (om-load-inputfun (quote input-funbox) "end " "END" 10) (om-load-inputfun (quote input-funbox) "step" "STEP" 1))) (om-make-point 887 109) nil nil nil nil 1) (om-load-boxcall (quote bastype) "list 2" (quote list) (quote nil) (om-make-point 878 78) (om-make-point 27 30) 2 "2" nil) (om-load-boxcall (quote bastype) "list" (quote list) (quote nil) (om-make-point 908 74) (om-make-point 34 30) 10 "10" nil) (om-load-boxcall (quote genfun) "OM* 9" (quote om*) (quote ((om-load-inputfun (quote input-funbox) "number or list" "ARG1" 0) (om-load-inputfun (quote input-funbox) "number or list" "ARG2" 0))) (om-make-point 267 244) nil nil nil nil 1) (om-load-boxcall (quote lispfun) "FIRST" (quote first) (quote ((om-load-inputfun (quote input-funbox) "LIST" "LIST" nil))) (om-make-point 294 202) nil nil nil nil 1) (om-load-boxcall (quote genfun) "OM* 8" (quote om*) (quote ((om-load-inputfun (quote input-funbox) "number or list" "ARG1" 0) (om-load-inputfun (quote input-funbox) "number or list" "ARG2" 0))) (om-make-point 349 245) nil nil nil nil 1) (om-load-boxcall (quote genfun) "OM* 7" (quote om*) (quote ((om-load-inputfun (quote input-funbox) "number or list" "ARG1" 0) (om-load-inputfun (quote input-funbox) "number or list" "ARG2" 0))) (om-make-point 425 240) nil nil nil nil 1) (om-load-boxcall (quote genfun) "OM* 6" (quote om*) (quote ((om-load-inputfun (quote input-funbox) "number or list" "ARG1" 0) (om-load-inputfun (quote input-funbox) "number or list" "ARG2" 0))) (om-make-point 496 242) nil nil nil nil 1) (om-load-boxcall (quote genfun) "OM* 5" (quote om*) (quote ((om-load-inputfun (quote input-funbox) "number or list" "ARG1" 0) (om-load-inputfun (quote input-funbox) "number or list" "ARG2" 0))) (om-make-point 564 245) nil nil nil nil 1) (om-load-boxcall (quote genfun) "OM* 4" (quote om*) (quote ((om-load-inputfun (quote input-funbox) "number or list" "ARG1" 0) (om-load-inputfun (quote input-funbox) "number or list" "ARG2" 0))) (om-make-point 632 241) nil nil nil nil 1) (om-load-boxcall (quote genfun) "OM* 3" (quote om*) (quote ((om-load-inputfun (quote input-funbox) "number or list" "ARG1" 0) (om-load-inputfun (quote input-funbox) "number or list" "ARG2" 0))) (om-make-point 697 249) nil nil nil nil 1) (om-load-boxcall (quote genfun) "OM* 2" (quote om*) (quote ((om-load-inputfun (quote input-funbox) "number or list" "ARG1" 0) (om-load-inputfun (quote input-funbox) "number or list" "ARG2" 0))) (om-make-point 774 245) nil nil nil nil 1) (om-load-boxcall (quote lispfun) "SECOND" (quote second) (quote ((om-load-inputfun (quote input-funbox) "LIST" "LIST" nil))) (om-make-point 358 197) nil nil nil nil 1) (om-load-boxcall (quote lispfun) "THIRD" (quote third) (quote ((om-load-inputfun (quote input-funbox) "LIST" "LIST" nil))) (om-make-point 443 194) nil nil nil nil 1) (om-load-boxcall (quote lispfun) "FOURTH" (quote fourth) (quote ((om-load-inputfun (quote input-funbox) "LIST" "LIST" nil))) (om-make-point 504 195) nil nil nil nil 1) (om-load-boxcall (quote lispfun) "FIFTH" (quote fifth) (quote ((om-load-inputfun (quote input-funbox) "LIST" "LIST" nil))) (om-make-point 575 194) nil nil nil nil 1) (om-load-boxcall (quote lispfun) "SIXTH" (quote sixth) (quote ((om-load-inputfun (quote input-funbox) "LIST" "LIST" nil))) (om-make-point 642 192) nil nil nil nil 1) (om-load-boxcall (quote lispfun) "SEVENTH" (quote seventh) (quote ((om-load-inputfun (quote input-funbox) "LIST" "LIST" nil))) (om-make-point 701 195) nil nil nil nil 1) (om-load-boxcall (quote lispfun) "EIGHTH" (quote eighth) (quote ((om-load-inputfun (quote input-funbox) "LIST" "LIST" nil))) (om-make-point 786 199) nil nil nil nil 1) (om-load-boxcall (quote genfun) "OM+" (quote om+) (quote ((om-load-inputfun (quote input-funbox) "number or list" "ARG1" 0) (om-load-inputfun (quote input-funbox) "number or list" "ARG2" 0))) (om-make-point 838 264) nil nil nil nil 1) (om-load-boxcall (quote genfun) "OM*" (quote om*) (quote ((om-load-inputfun (quote input-funbox) "number or list" "ARG1" 0) (om-load-inputfun (quote input-funbox) "number or list" "ARG2" 0))) (om-make-point 867 231) nil nil nil nil 1) (om-load-boxcall (quote lispfun) "NINTH" (quote ninth) (quote ((om-load-inputfun (quote input-funbox) "LIST" "LIST" nil))) (om-make-point 884 184) nil nil nil nil 1))) (quote ((15 0 2 0 nil 0) (16 0 4 0 nil 0) (5 0 4 1 nil 0) (6 0 4 2 nil 0) (7 0 4 3 nil 0) (8 0 4 4 nil 0) (9 0 4 5 nil 0) (10 0 4 6 nil 0) (11 0 4 7 nil 0) (12 0 4 8 nil 0) (13 0 4 9 nil 0) (36 0 4 10 nil 0) (16 0 5 0 nil 0) (0 0 5 1 nil 0) (16 0 6 0 nil 0) (20 0 6 1 nil 0) (16 0 7 0 nil 0) (22 0 7 1 nil 0) (16 0 8 0 nil 0) (23 0 8 1 nil 0) (16 0 9 0 nil 0) (24 0 9 1 nil 0) (16 0 10 0 nil 0) (25 0 10 1 nil 0) (16 0 11 0 nil 0) (26 0 11 1 nil 0) (16 0 12 0 nil 0) (27 0 12 1 nil 0) (16 0 13 0 nil 0) (28 0 13 1 nil 0) (4 0 14 0 nil 0) (14 0 15 1 nil 0) (3 0 16 0 nil 0) (1 0 16 1 nil 0) (18 0 17 0 nil 0) (19 0 17 1 nil 0) (0 0 20 0 nil 0) (21 0 20 1 nil 0) (17 0 21 0 nil 0) (0 0 22 0 nil 0) (29 0 22 1 nil 0) (0 0 23 0 nil 0) (30 0 23 1 nil 0) (0 0 24 0 nil 0) (31 0 24 1 nil 0) (0 0 25 0 nil 0) (32 0 25 1 nil 0) (0 0 26 0 nil 0) (33 0 26 1 nil 0) (0 0 27 0 nil 0) (34 0 27 1 nil 0) (0 0 28 0 nil 0) (35 0 28 1 nil 0) (17 0 29 0 nil 0) (17 0 30 0 nil 0) (17 0 31 0 nil 0) (17 0 32 0 nil 0) (17 0 33 0 nil 0) (17 0 34 0 nil 0) (17 0 35 0 nil 0) (16 0 36 0 nil 0) (37 0 36 1 nil 0) (0 0 37 0 nil 0) (38 0 37 1 nil 0) (17 0 38 0 nil 0))) 6.0602 nil "" (om-make-point 200 200) (om-make-point 1024 524)) (quote ((om-load-inputfun (quote input-funbox) "" "length-1" nil) (om-load-inputfun (quote input-funbox) "" "1o onset" nil) (om-load-inputfun (quote input-funbox) "" "input" nil))) (om-make-point 134 338) nil (list (list 0 100 200 300 400 500 600 700 825 950 1075 1200 1325 1450 1575 1725 1875 2025 2175 2325 2475 2625 2800 2975 3150 3325 3500 3675 3850 4050 4250 4450 4650 4850 5050 5250 5475 5700 5925 6150 6375 6600 6825 7075 7325 7575 7825 8075 8325 8575 8850 9125 9400 9675 9950 10225 10500 10800 11100 11400 11700 12000 12300 12600 12925 13250 13575 13900 14225 14550 14875 15225 15575 15925 16275 16625 16975 17325)) nil "Ralentando em 11 passos") (om-load-boxcall (quote lispfun) "NINTH" (quote ninth) (quote ((om-load-inputfun (quote input-funbox) "LIST" "LIST" nil))) (om-make-point 1162 162) nil nil nil nil 1) (om-load-boxcall (quote genfun) "OM* 9" (quote om*) (quote ((om-load-inputfun (quote input-funbox) "number or list" "ARG1" 0) (om-load-inputfun (quote input-funbox) "number or list" "ARG2" 0))) (om-make-point 1145 209) nil nil nil nil 1) (om-load-boxcall (quote lispfun) "EIGHTH" (quote eighth) (quote ((om-load-inputfun (quote input-funbox) "LIST" "LIST" nil))) (om-make-point 1064 177) nil nil nil nil 1) (om-load-boxcall (quote lispfun) "SEVENTH" (quote seventh) (quote ((om-load-inputfun (quote input-funbox) "LIST" "LIST" nil))) (om-make-point 979 173) nil nil nil nil 1) (om-load-boxcall (quote lispfun) "SIXTH" (quote sixth) (quote ((om-load-inputfun (quote input-funbox) "LIST" "LIST" nil))) (om-make-point 920 170) nil nil nil nil 1) (om-load-boxcall (quote lispfun) "FIFTH" (quote fifth) (quote ((om-load-inputfun (quote input-funbox) "LIST" "LIST" nil))) (om-make-point 853 172) nil nil nil nil 1) (om-load-boxcall (quote lispfun) "FOURTH" (quote fourth) (quote ((om-load-inputfun (quote input-funbox) "LIST" "LIST" nil))) (om-make-point 782 173) nil nil nil nil 1) (om-load-boxcall (quote lispfun) "THIRD" (quote third) (quote ((om-load-inputfun (quote input-funbox) "LIST" "LIST" nil))) (om-make-point 721 172) nil nil nil nil 1) (om-load-boxcall (quote lispfun) "SECOND" (quote second) (quote ((om-load-inputfun (quote input-funbox) "LIST" "LIST" nil))) (om-make-point 636 184) nil nil nil nil 1) (om-load-boxcall (quote genfun) "OM* 8" (quote om*) (quote ((om-load-inputfun (quote input-funbox) "number or list" "ARG1" 0) (om-load-inputfun (quote input-funbox) "number or list" "ARG2" 0))) (om-make-point 1052 223) nil nil nil nil 1) (om-load-boxcall (quote genfun) "OM* 7" (quote om*) (quote ((om-load-inputfun (quote input-funbox) "number or list" "ARG1" 0) (om-load-inputfun (quote input-funbox) "number or list" "ARG2" 0))) (om-make-point 975 227) nil nil nil nil 1) (om-load-boxcall (quote genfun) "OM* 6" (quote om*) (quote ((om-load-inputfun (quote input-funbox) "number or list" "ARG1" 0) (om-load-inputfun (quote input-funbox) "number or list" "ARG2" 0))) (om-make-point 910 219) nil nil nil nil 1) (om-load-boxcall (quote genfun) "OM* 5" (quote om*) (quote ((om-load-inputfun (quote input-funbox) "number or list" "ARG1" 0) (om-load-inputfun (quote input-funbox) "number or list" "ARG2" 0))) (om-make-point 842 223) nil nil nil nil 1) (om-load-boxcall (quote genfun) "OM* 4" (quote om*) (quote ((om-load-inputfun (quote input-funbox) "number or list" "ARG1" 0) (om-load-inputfun (quote input-funbox) "number or list" "ARG2" 0))) (om-make-point 774 220) nil nil nil nil 1) (om-load-boxcall (quote genfun) "OM* 3" (quote om*) (quote ((om-load-inputfun (quote input-funbox) "number or list" "ARG1" 0) (om-load-inputfun (quote input-funbox) "number or list" "ARG2" 0))) (om-make-point 703 218) nil nil nil nil 1) (om-load-boxcall (quote genfun) "OM* 2" (quote om*) (quote ((om-load-inputfun (quote input-funbox) "number or list" "ARG1" 0) (om-load-inputfun (quote input-funbox) "number or list" "ARG2" 0))) (om-make-point 627 223) nil nil nil nil 1) (om-load-boxcall (quote lispfun) "FIRST" (quote first) (quote ((om-load-inputfun (quote input-funbox) "LIST" "LIST" nil))) (om-make-point 572 180) nil nil nil nil 1) (om-load-boxcall (quote genfun) "OM*" (quote om*) (quote ((om-load-inputfun (quote input-funbox) "number or list" "ARG1" 0) (om-load-inputfun (quote input-funbox) "number or list" "ARG2" 0))) (om-make-point 545 222) nil nil nil nil 1) (om-load-boxcall (quote bastype) "list 5" (quote list) (quote nil) (om-make-point 1168 40) (om-make-point 34 30) 10 "10" nil) (om-load-boxcall (quote bastype) "list 2" (quote list) (quote nil) (om-make-point 1138 44) (om-make-point 27 30) 2 "2" nil) (om-load-boxcall (quote genfun) "ARITHM-SER" (quote arithm-ser) (quote ((om-load-inputfun (quote input-funbox) "begin" "BEGIN" 0) (om-load-inputfun (quote input-funbox) "end " "END" 10) (om-load-inputfun (quote input-funbox) "step" "STEP" 1))) (om-make-point 1151 87) nil nil nil nil 1) (om-load-boxcomment "comment 2" (om-make-point 366 29) (quote "<= Incremento nos onsets a cada repetição (em miliseg.)") "" (om-make-point 656 13) nil (om-make-color 0 0 0) (om-make-font "Verdana" 12 :family "Verdana" :style (quote (:plain)) :mode (quote nil))) (om-load-boxcomment "comment" (om-make-point 173 29) (quote "<= 1o onset (em miliseg.)") "" (om-make-point 441 79) nil (om-make-color 0 0 0) (om-make-font "Verdana" 12 :family "Verdana" :style (quote (:plain)) :mode (quote nil))) (om-load-boxcall (quote bastype) "list 14" (quote list) (quote nil) (om-make-point 199 146) (om-make-point 27 30) 1 "1" nil) (om-load-boxcall (quote genfun) "OM-" (quote om-) (quote ((om-load-inputfun (quote input-funbox) "number or list" "ARG1" 0) (om-load-inputfun (quote input-funbox) "number or list" "ARG2" 0))) (om-make-point 185 172) nil nil nil nil 1) (om-load-boxcall (quote lispfun) "LENGTH" (quote length) (quote ((om-load-inputfun (quote input-funbox) "SEQUENCE" "SEQUENCE" nil))) (om-make-point 133 170) nil nil nil nil 1) (om-load-boxcall (quote genfun) "CREATE-LIST 2" (quote create-list) (quote ((om-load-inputfun (quote input-funbox) "number of elements" "COUNT" 10) (om-load-inputfun (quote input-funbox) "initial element" "ELEM" nil))) (om-make-point 354 153) nil nil nil nil 1) (om-load-boxcall (quote genfun) "DX->X" (quote dx->x) (quote ((om-load-inputfun (quote input-funbox) "a number" "START" 0) (om-load-inputfun (quote input-funbox) "a list of numbers" "LIST" (list 1 1)))) (om-make-point 389 377) nil nil nil nil 1) (om-load-boxcall (quote genfun) "FLAT 2" (quote flat) (quote ((om-load-inputfun (quote input-funbox) "a list" "LST" nil))) (om-make-point 438 376) nil nil nil nil 1) (om-load-boxcall (quote bastype) "list 4" (quote list) (quote nil) (om-make-point 621 17) (om-make-point 34 30) 25 "25" nil) (om-load-boxcall (quote lispfun) "LIST 3" (quote list) (quote ((om-load-inputfun (quote input-funbox) "add-input" "add-input" nil) (om-load-inputfun (quote input-funbox) "add-input" "add-input" nil) (om-load-inputfun (quote input-funbox) "add-input" "add-input" nil) (om-load-inputfun (quote input-funbox) "add-input" "add-input" nil) (om-load-inputfun (quote input-funbox) "add-input" "add-input" nil) (om-load-inputfun (quote input-funbox) "add-input" "add-input" nil) (om-load-inputfun (quote input-funbox) "add-input" "add-input" nil) (om-load-inputfun (quote input-funbox) "add-input" "add-input" nil) (om-load-inputfun (quote input-funbox) "add-input" "add-input" nil) (om-load-inputfun (quote input-funbox) "add-input" "add-input" nil) (om-load-inputfun (quote input-funbox) "add-input" "add-input" nil))) (om-make-point 379 290) (om-make-point 799 43) nil nil nil 1) (om-load-boxcall (quote genfun) "FLAT" (quote flat) (quote ((om-load-inputfun (quote input-funbox) "a list" "LST" nil))) (om-make-point 80 339) nil nil nil nil 1) (om-load-boxcall (quote bastype) "list" (quote list) (quote nil) (om-make-point 15 190) (om-make-point 34 30) 11 "11" nil) (om-load-boxcall (quote genfun) "CREATE-LIST" (quote create-list) (quote ((om-load-inputfun (quote input-funbox) "number of elements" "COUNT" 10) (om-load-inputfun (quote input-funbox) "initial element" "ELEM" nil))) (om-make-point 54 237) nil nil nil nil 1) (om-load-editor-box1 "CHORD-SEQ 2" (quote chord-seq) (quote ((om-load-inputfun (quote input-funbox) "object" "self" nil) (om-load-inputfun (quote input-funbox) "pitches (mc): list or list of lists" "lmidic" (list 6000)) (om-load-inputfun (quote input-funbox) "onsets (ms): list" "lonset" (list 0 1000)) (om-load-inputfun (quote input-funbox) "durations (ms): list or list of lists" "ldur" (list 1000)) (om-load-inputfun (quote input-funbox) "velocities (0-127): list or list of lists" "lvel" (list 100)) (om-load-inputfun (quote input-funbox) "offsets (ms): list or list of lists" "loffset" (list 0)) (om-load-inputfun (quote input-funbox) "MIDI channels (1-16): list or list of lists" "lchan" (list 1)) (om-load-inputfun (quote input-funbox) "relative chords duration (0-100)" "legato" 0))) (om-make-point 39 459) (om-make-point 211 122) (let ((newobj (when (find-class (quote chord-seq) nil) (make-instance (quote chord-seq) :lmidic (quote ((6000) (6200) (6400) (6700) (6900) (6700) (6200) (6400) (6000) (6200) (6400) (6700) (6900) (6700) (6200) (6400) (6000) (6200) (6400) (6700) (6900) (6700) (6200) (6400) (6000) (6200) (6400) (6700) (6900) (6700) (6200) (6400) (6000) (6200) (6400) (6700) (6900) (6700) (6200) (6400) (6000) (6200) (6400) (6700) (6900) (6700) (6200) (6400) (6000) (6200) (6400) (6700) (6900) (6700) (6200) (6400) (6000) (6200) (6400) (6700) (6900) (6700) (6200) (6400) (6000) (6200) (6400) (6700) (6900) (6700) (6200) (6400) (6000) (6200) (6400) (6700) (6900) (6700) (6200) (6400) (6000) (6200) (6400) (6700) (6900) (6700) (6200) (6400))) :lonset (quote (0 100 200 300 400 500 600 700 825 950 1075 1200 1325 1450 1575 1725 1875 2025 2175 2325 2475 2625 2800 2975 3150 3325 3500 3675 3850 4050 4250 4450 4650 4850 5050 5250 5475 5700 5925 6150 6375 6600 6825 7075 7325 7575 7825 8075 8325 8575 8850 9125 9400 9675 9950 10225 10500 10800 11100 11400 11700 12000 12300 12600 12925 13250 13575 13900 14225 14550 14875 15225 15575 15925 16275 16625 16975 17325 17675 18025 18375 18725 19075 19425 19775 20125 20475 20825 21825)) :ldur (quote ((1000) (1000) (1000) (1000) (1000) (1000) (1000) (1000) (1000) (1000) (1000) (1000) (1000) (1000) (1000) (1000) (1000) (1000) (1000) (1000) (1000) (1000) (1000) (1000) (1000) (1000) (1000) (1000) (1000) (1000) (1000) (1000) (1000) (1000) (1000) (1000) (1000) (1000) (1000) (1000) (1000) (1000) (1000) (1000) (1000) (1000) (1000) (1000) (1000) (1000) (1000) (1000) (1000) (1000) (1000) (1000) (1000) (1000) (1000) (1000) (1000) (1000) (1000) (1000) (1000) (1000) (1000) (1000) (1000) (1000) (1000) (1000) (1000) (1000) (1000) (1000) (1000) (1000) (1000) (1000) (1000) (1000) (1000) (1000) (1000) (1000) (1000) (1000))) :lvel (quote ((100) (100) (100) (100) (100) (100) (100) (100) (100) (100) (100) (100) (100) (100) (100) (100) (100) (100) (100) (100) (100) (100) (100) (100) (100) (100) (100) (100) (100) (100) (100) (100) (100) (100) (100) (100) (100) (100) (100) (100) (100) (100) (100) (100) (100) (100) (100) (100) (100) (100) (100) (100) (100) (100) (100) (100) (100) (100) (100) (100) (100) (100) (100) (100) (100) (100) (100) (100) (100) (100) (100) (100) (100) (100) (100) (100) (100) (100) (100) (100) (100) (100) (100) (100) (100) (100) (100) (100))) :loffset (quote ((0) (0) (0) (0) (0) (0) (0) (0) (0) (0) (0) (0) (0) (0) (0) (0) (0) (0) (0) (0) (0) (0) (0) (0) (0) (0) (0) (0) (0) (0) (0) (0) (0) (0) (0) (0) (0) (0) (0) (0) (0) (0) (0) (0) (0) (0) (0) (0) (0) (0) (0) (0) (0) (0) (0) (0) (0) (0) (0) (0) (0) (0) (0) (0) (0) (0) (0) (0) (0) (0) (0) (0) (0) (0) (0) (0) (0) (0) (0) (0) (0) (0) (0) (0) (0) (0) (0) (0))) :lchan (quote ((1) (1) (1) (1) (1) (1) (1) (1) (1) (1) (1) (1) (1) (1) (1) (1) (1) (1) (1) (1) (1) (1) (1) (1) (1) (1) (1) (1) (1) (1) (1) (1) (1) (1) (1) (1) (1) (1) (1) (1) (1) (1) (1) (1) (1) (1) (1) (1) (1) (1) (1) (1) (1) (1) (1) (1) (1) (1) (1) (1) (1) (1) (1) (1) (1) (1) (1) (1) (1) (1) (1) (1) (1) (1) (1) (1) (1) (1) (1) (1) (1) (1) (1) (1) (1) (1) (1) (1))) :legato 0)))) (load-port-info newobj (quote ((0) (0) (0) (0) (0) (0) (0) (0) (0) (0) (0) (0) (0) (0) (0) (0) (0) (0) (0) (0) (0) (0) (0) (0) (0) (0) (0) (0) (0) (0) (0) (0) (0) (0) (0) (0) (0) (0) (0) (0) (0) (0) (0) (0) (0) (0) (0) (0) (0) (0) (0) (0) (0) (0) (0) (0) (0) (0) (0) (0) (0) (0) (0) (0) (0) (0) (0) (0) (0) (0) (0) (0) (0) (0) (0) (0) (0) (0) (0) (0) (0) (0) (0) (0) (0) (0) (0) (0)))) (init-mus-color newobj (quote nil)) (set-extra-pairs newobj (quote nil)) (set-patch-pairs newobj (quote nil)) (set-name newobj nil) (set-tonalite newobj nil) newobj) nil nil (pairlis (quote (approx fontsize staff cmnpref deltapict outport inport player zoom notechancolor? grillestep mode winsize winpos score-mode obj-mode show-stems scale palette-mode)) (list 2 24 (quote gf) (let ((newobj (make-instance (quote edition-values)))) (setf (paper-size newobj) (om-make-point 600 800)) (setf (top-margin newobj) 2) (setf (left-margin newobj) 1) (setf (right-margin newobj) 1) (setf (bottom-margin newobj) 1) (setf (orientation newobj) nil) (setf (scale newobj) nil) (setf (system-space newobj) (quote (1))) (setf (system-color newobj) (quote nil)) (setf (line-space newobj) 1) (setf (title newobj) nil) (setf (show-title? newobj) nil) (setf (show-page? newobj) nil) (setf (sheet-id newobj) nil) (setf (page-mode newobj) nil) newobj) (om-make-point 0 0) nil 0 (quote :midishare) 1 nil 1000 0 (om-make-point 370 280) (om-make-point 400 20) 0 1 (quote t) nil 0)) t nil nil nil) (om-load-editor-box1 "CHORD-SEQ" (quote chord-seq) (quote ((om-load-inputfun (quote input-funbox) "object" "self" nil) (om-load-inputfun (quote input-funbox) "pitches (mc): list or list of lists" "lmidic" (list 6000)) (om-load-inputfun (quote input-funbox) "onsets (ms): list" "lonset" (list 0 1000)) (om-load-inputfun (quote input-funbox) "durations (ms): list or list of lists" "ldur" (list 1000)) (om-load-inputfun (quote input-funbox) "velocities (0-127): list or list of lists" "lvel" (list 100)) (om-load-inputfun (quote input-funbox) "offsets (ms): list or list of lists" "loffset" (list 0)) (om-load-inputfun (quote input-funbox) "MIDI channels (1-16): list or list of lists" "lchan" (list 1)) (om-load-inputfun (quote input-funbox) "relative chords duration (0-100)" "legato" 0))) (om-make-point 80 28) (om-make-point 194 102) (let ((newobj (when (find-class (quote chord-seq) nil) (make-instance (quote chord-seq) :lmidic (quote ((6000) (6200) (6400) (6700) (6900) (6700) (6200) (6400))) :lonset (quote (0 486 903 1458 1806 2111 2403 2708 3708)) :ldur (quote ((1000) (1000) (1000) (1000) (1000) (1000) (1000) (1000))) :lvel (quote ((100) (100) (100) (100) (100) (100) (100) (100))) :loffset (quote ((0) (0) (0) (0) (0) (0) (0) (0))) :lchan (quote ((1) (1) (1) (1) (1) (1) (1) (1))) :legato 0)))) (load-port-info newobj (quote ((0) (0) (0) (0) (0) (0) (0) (0)))) (init-mus-color newobj (quote nil)) (set-extra-pairs newobj (quote nil)) (set-patch-pairs newobj (quote ((nil (om-load-patch-abs1 "patch" (quote nil) (quote nil) 6.0602 nil "" (om-make-point 200 200) (om-make-point 400 500)))))) (set-name newobj nil) (set-tonalite newobj nil) newobj) "x" nil (pairlis (quote (approx fontsize staff cmnpref deltapict outport inport player zoom notechancolor? grillestep mode winsize winpos score-mode obj-mode show-stems scale palette-mode)) (list 2 24 (quote gf) (let ((newobj (make-instance (quote edition-values)))) (setf (paper-size newobj) (om-make-point 600 800)) (setf (top-margin newobj) 2) (setf (left-margin newobj) 1) (setf (right-margin newobj) 1) (setf (bottom-margin newobj) 1) (setf (orientation newobj) nil) (setf (scale newobj) nil) (setf (system-space newobj) (quote (1))) (setf (system-color newobj) (quote nil)) (setf (line-space newobj) 1) (setf (title newobj) nil) (setf (show-title? newobj) nil) (setf (show-page? newobj) nil) (setf (sheet-id newobj) nil) (setf (page-mode newobj) nil) newobj) (om-make-point 0 0) nil 0 (quote :midishare) 1 nil 1000 0 (om-make-point 370 280) (om-make-point 400 22) 0 1 (quote t) nil 0)) t nil nil nil))) (quote ((55 0 0 0 nil 0) (6 0 0 1 nil 0) (0 0 1 1 nil 0) (5 0 3 0 nil 0) (54 0 5 0 nil 0) (4 0 5 1 nil 0) (3 0 6 1 nil 0) (48 0 6 2 nil 0) (47 0 7 0 nil 0) (22 0 7 1 nil 0) (47 0 8 0 nil 0) (30 0 8 1 nil 0) (47 0 9 0 nil 0) (31 0 9 1 nil 0) (47 0 10 0 nil 0) (32 0 10 1 nil 0) (47 0 11 0 nil 0) (33 0 11 1 nil 0) (47 0 12 0 nil 0) (34 0 12 1 nil 0) (47 0 13 0 nil 0) (35 0 13 1 nil 0) (47 0 14 0 nil 0) (36 0 14 1 nil 0) (47 0 15 0 nil 0) (38 0 15 1 nil 0) (47 0 16 0 nil 0) (50 0 16 1 nil 0) (20 0 18 0 nil 0) (18 0 19 0 nil 0) (45 0 20 0 nil 0) (17 0 20 1 nil 0) (50 0 20 2 nil 2) (41 0 21 0 nil 0) (50 0 22 0 nil 0) (21 0 22 1 nil 0) (41 0 23 0 nil 0) (41 0 24 0 nil 0) (41 0 25 0 nil 0) (41 0 26 0 nil 0) (41 0 27 0 nil 0) (41 0 28 0 nil 0) (41 0 29 0 nil 0) (50 0 30 0 nil 0) (23 0 30 1 nil 0) (50 0 31 0 nil 0) (24 0 31 1 nil 0) (50 0 32 0 nil 0) (25 0 32 1 nil 0) (50 0 33 0 nil 0) (26 0 33 1 nil 0) (50 0 34 0 nil 0) (27 0 34 1 nil 0) (50 0 35 0 nil 0) (28 0 35 1 nil 0) (50 0 36 0 nil 0) (29 0 36 1 nil 0) (41 0 37 0 nil 0) (50 0 38 0 nil 0) (37 0 38 1 nil 0) (40 0 41 0 nil 0) (39 0 41 1 nil 0) (46 0 45 0 nil 0) (44 0 45 1 nil 0) (56 1 46 0 nil 0) (45 0 47 0 nil 0) (19 0 47 1 nil 0) (49 0 48 1 nil 0) (51 0 49 0 nil 0) (47 0 51 0 nil 0) (16 0 51 1 nil 0) (15 0 51 2 nil 0) (14 0 51 3 nil 0) (13 0 51 4 nil 0) (12 0 51 5 nil 0) (11 0 51 6 nil 0) (10 0 51 7 nil 0) (9 0 51 8 nil 0) (8 0 51 9 nil 0) (7 0 51 10 nil 0) (54 0 52 0 nil 0) (53 0 54 0 nil 0) (56 1 54 1 nil 0) (52 0 55 1 nil 0) (20 0 55 2 nil 0))) nil 6.0602))
