; OM File Header - Saved 2020/07/10 15:12:22
; (6.16 :patc (om-make-point 93 38) (om-make-point 236 0) (om-make-point 566 729) "" 183 0 nil "2020/07/10 15:12:22")
; End File Header
(in-package :om)(load-lib-for (quote ("OMCollider")))(setf *om-current-persistent* (om-load-patch1 "additive-array-fill" (quote ((let ((box (om-load-boxcall (quote genfun) "SYNTHESIZER" (quote omsc::synthesizer) (quote ((om-load-inputfun (quote input-funbox) "" "DATA" nil))) (om-make-point 367 602) nil nil nil nil 1))) (when (fboundp (quote set-active)) (set-active box nil)) box) (let ((box (om-load-boxcomment "comment 2" (om-make-point 93 33) (quote "parziali") "" (om-make-point 345 58) nil (om-make-color 0 0 0) (om-make-font "Verdana" 12 :family "Verdana" :style (quote (:plain)) :mode (quote nil))))) (when (fboundp (quote set-active)) (set-active box nil)) box) (let ((box (om-load-boxcall (quote bastype) "list 5" (quote list) (quote nil) (om-make-point 339 96) (om-make-point 34 30) 20 "20" nil))) (when (fboundp (quote set-active)) (set-active box nil)) box) (let ((box (om-load-boxcomment "comment" (om-make-point 100 60) (quote "amplitude") "" (om-make-point 40 49) nil (om-make-color 0 0 0) (om-make-font "Verdana" 12 :family "Verdana" :style (quote (:plain)) :mode (quote nil))))) (when (fboundp (quote set-active)) (set-active box nil)) box) (let ((box (om-load-boxcall (quote genfun) "X-APPEND" (quote x-append) (quote ((om-load-inputfun (quote input-funbox) "first element" "L1?" nil) (om-load-inputfun (quote input-funbox) "second element" "L2?" nil))) (om-make-point 82 162) nil nil nil nil 1))) (when (fboundp (quote set-active)) (set-active box nil)) box) (let ((box (om-load-boxcall (quote bastype) "list 4" (quote list) (quote nil) (om-make-point 78 96) (om-make-point 30 28) (list (quote |1/|)) "(1/)" nil))) (when (fboundp (quote set-active)) (set-active box nil)) box) (let ((box (om-load-boxcall (quote bastype) "list 3" (quote list) (quote nil) (om-make-point 244 154) (om-make-point 28 28) 440 "440" nil))) (when (fboundp (quote set-active)) (set-active box nil)) box) (let ((box (om-load-boxcall (quote genfun) "A*B" (quote omsc::a*b) (quote ((om-load-inputfun (quote input-funbox) "" "A" nil) (om-load-inputfun (quote input-funbox) "" "B" nil))) (om-make-point 296 201) nil nil nil nil 1))) (when (fboundp (quote set-active)) (set-active box nil)) box) (let ((box (om-load-boxcall (quote genfun) "MIX-NEW" (quote omsc::mix-new) (quote ((om-load-inputfun (quote input-funbox) "" "IN" nil))) (om-make-point 237 352) nil nil nil nil 1))) (when (fboundp (quote set-active)) (set-active box nil)) box) (let ((box (om-load-boxcall (quote genfun) "SINOSC_AR" (quote omsc::sinosc_ar) (quote ((om-load-inputfun (quote input-funbox) "" "FREQ" 440) (om-load-inputfun (quote input-funbox) "" "PHASE" 0) (om-load-inputfun (quote input-funbox) "" "MUL" 1/20) (om-load-inputfun (quote input-funbox) "" "ADD" 0))) (om-make-point 169 261) nil nil nil nil 1))) (when (fboundp (quote set-active)) (set-active box nil)) box) (let ((box (om-load-boxcall (quote bastype) "list 2" (quote list) (quote nil) (om-make-point 463 98) (om-make-point 38 30) 0.4 "0.4" nil))) (when (fboundp (quote set-active)) (set-active box nil)) box) (let ((box (om-load-boxcall (quote genfun) "ARRAY-FILL" (quote omsc::array-fill) (quote ((om-load-inputfun (quote input-funbox) "" "SIZE" nil) (om-load-inputfun (quote input-funbox) "" "FUNCTION" nil))) (om-make-point 388 145) nil nil nil nil 1))) (when (fboundp (quote set-active)) (set-active box nil)) box) (let ((box (om-load-boxcall (quote genfun) "FUNCTION-PLAY" (quote omsc::function-play) (quote ((om-load-inputfun (quote input-funbox) "" "IN" nil))) (om-make-point 185 491) nil nil nil nil 1))) (when (fboundp (quote set-active)) (set-active box nil)) box) (let ((box (om-load-boxcall (quote genfun) "GUI" (quote omsc::gui) (quote ((om-load-inputfun (quote input-funbox) "" "IN" nil))) (om-make-point 348 497) nil nil nil nil 1))) (when (fboundp (quote set-active)) (set-active box nil)) box) (let ((box (om-load-boxcall (quote genfun) "PAN2_AR" (quote omsc::pan2_ar) (quote ((om-load-inputfun (quote input-funbox) "" "IN" 0) (om-load-inputfun (quote input-funbox) "" "POS" 0) (om-load-inputfun (quote input-funbox) "" "LEVEL" 1))) (om-make-point 174 398) nil nil nil nil 1))) (when (fboundp (quote set-active)) (set-active box nil)) box))) (quote ((13 0 0 0 nil 0) (5 0 4 0 nil 0) (2 0 4 1 nil 0) (6 0 7 0 nil 0) (11 0 7 1 nil 0) (9 0 8 0 nil 0) (7 0 9 0 nil 0) (4 0 9 2 nil 0) (2 0 11 0 nil 0) (10 0 11 1 nil 0) (14 0 12 0 nil 0) (12 0 13 0 nil 0) (8 0 14 0 nil 0))) nil 6.16))
