; OM File Header - Saved 2020/02/26 20:06:02
; (6.0401 :patc (om-make-point 118 17) (om-make-point 953 298) (om-make-point 500 400) "" 183 0 nil "2020/02/26 20:06:02")
; End File Header
(in-package :om)(load-lib-for (quote ("OM-Gecode")))(setf *om-current-persistent* (om-load-patch1 "createintegervars" (quote ((om-load-boxcomment "comment" (om-make-point 106 76) (quote "Creates 10 distinct variables with domain [0..3]") nil (om-make-point 234 203) nil (om-make-color 0 0 0) (om-make-font "Verdana" 12 :family "Verdana" :style (quote (:plain)) :mode (quote nil))) (om-load-boxcall (quote bastype) "list2" (quote list) (quote nil) (om-make-point 186 165) (om-make-point 36 26) 3 "3" nil) (om-load-boxcall (quote bastype) "list1" (quote list) (quote nil) (om-make-point 156 166) (om-make-point 22 26) 0 "0" nil) (om-load-boxcall (quote bastype) "list" (quote list) (quote nil) (om-make-point 116 169) (om-make-point 26 30) 10 "10" nil) (om-load-boxcall (quote genfun) "CREATEINTEGERVARS" (quote createintegervars) (quote ((om-load-inputfun (quote input-funbox) "number of variables" "N" 10) (om-load-inputfun (quote input-funbox) "low val" "FROM" 0) (om-load-inputfun (quote input-funbox) "high val" "TO" 9) (om-load-inputfunmenu1 (quote input-funmenu) "constraint" "CONSTRAINTED" 1 (list (list "non-constrainted" 0) (list "distinct" 1))))) (om-make-point 131 206) nil nil nil nil 1) (om-load-boxcomment "comment" (om-make-point 146 36) (quote "CREATEINTEGERVARS$") "" (om-make-point 183 35) nil (om-make-color 0 0 0) (om-make-font "Verdana" 12 :family "Verdana" :style (quote (:plain)) :mode (quote nil))) (om-load-boxcomment "comment" (om-make-point 344 44) (quote "This method can only be used inside a OMCSP box") "" (om-make-point 59 336) nil (om-make-color 0 0 0) (om-make-font "Verdana" 12 :family "Verdana" :style (quote (:plain)) :mode (quote nil))))) (quote ((3 0 4 0 nil 0) (2 0 4 1 nil 0) (1 0 4 2 nil 0))) nil 6.0401))
