; OM File Header - Saved 2020/02/26 20:06:02
; (6.0401 :patc (om-make-point 434 118) (om-make-point 901 231) (om-make-point 500 400) "" 183 0 nil "2020/02/26 20:06:02")
; End File Header
(in-package :om)(load-lib-for (quote ("OMGelisp")))(setf *om-current-persistent* (om-load-patch1 "omsearch-next" (quote ((om-load-boxcomment "comment" (om-make-point 120 35) (quote "OMSEARCH-NEXT") "" (om-make-point 157 45) nil (om-make-color 0 0 0) (om-make-font "Verdana" 12 :family "Verdana" :style (quote (:plain)) :mode (quote nil))) (om-load-boxcomment "comment" (om-make-point 211 72) (quote "This method search the next solution. If you want to find different solutions, block the omcsp box.") "" (om-make-point 218 219) nil (om-make-color 0 0 0) (om-make-font "Verdana" 12 :family "Verdana" :style (quote (:plain)) :mode (quote nil))) (om-load-boxcall (quote lispfun) "PRINT" (quote print) (quote ((om-load-inputfun (quote input-funbox) "SOMETHING" "SOMETHING" nil))) (om-make-point 155 319) nil nil nil nil 1) (om-load-boxwithed1 (quote box-with-win) "OMCSP" (quote omcsp) (quote nil) (om-make-point 152 151) nil nil "x" (list (om-load-boxcall (quote genfun) "createIntegerVars" (quote createintegervars) (quote ((om-load-inputfun (quote input-funbox) "number of variables" "N" 10) (om-load-inputfun (quote input-funbox) "low val" "FROM" 0) (om-load-inputfun (quote input-funbox) "high val" "TO" 9) (om-load-inputfunmenu1 (quote input-funmenu) "constraint" "CONSTRAINTED" 0 (list (list "non-constrainted" 0) (list "distinct" 1))))) (om-make-point 127 85) nil nil nil nil 1) (om-load-seqbox "output" (quote g-output) (quote ((om-load-inputfun (quote input-funbox) "patch" "PATCH" nil))) (om-make-point 150 170) nil nil nil 0)) (quote ((0 0 1 0 nil 0))) 1 "omcsp" nil) (om-load-boxcall (quote genfun) "OMSEARCH-NEXT" (quote omsearch-next) (quote ((om-load-inputfun (quote input-funbox) "no documentation" "SELF" nil))) (om-make-point 127 228) nil nil nil nil 1) (om-load-boxcomment "comment" (om-make-point 124 68) (quote "The Csp creates an array of 10 variables with domain [0 9].$$") "" (om-make-point 217 127) nil (om-make-color 0 0 0) (om-make-font "Verdana" 12 :family "Verdana" :style (quote (:plain)) :mode (quote nil))))) (quote ((4 0 2 0 nil 0) (3 0 4 0 nil 0))) nil 6.0401))
