; OM File Header - Saved 2020/04/17 7:55:09
; (6.16 :patc (om-make-point 118 60) (om-make-point 50 50) (om-make-point 500 400) "" 183 0 "2020/04/16 16:02:54" "2020/04/17 7:55:09")
; End File Header
; External resources 
; (list (list (quote :abstraction) "#P\"Finder.omp\""))
(in-package :om)(load-lib-for (quote nil))(setf *om-current-persistent* (om-load-patch1 "ScaleReader" (quote ((let ((box (om-load-boxcall (quote genfun) "FLAT" (quote flat) (quote ((om-load-inputfun (quote input-funbox) "a list" "LST" nil))) (om-make-point 352 268) nil nil nil nil 1))) (when (fboundp (quote set-active)) (set-active box nil)) box) (let ((box (om-load-editor-box1 "TEXT-BOX" (quote text-box) (quote ((om-load-inputfun (quote input-funbox) "dialog-item text (string)" "text" "untitled"))) (om-make-point 358 552) (om-make-point 130 40) (om-make-dialog-item (quote text-box) (om-make-point 1 1) (om-make-point 102 20) "6" :font (om-make-font "Liberation Sans" 11.0D0 :family "Liberation Sans" :style (quote (:plain)) :mode (quote nil))) nil nil (pairlis (quote (winpos winsize)) (list (om-make-point 10 40) (om-make-point 335 275))) nil nil nil nil))) (when (fboundp (quote set-active)) (set-active box nil)) box) (let ((box (om-load-boxcall (quote lispfun) "FIRST 2" (quote first) (quote ((om-load-inputfun (quote input-funbox) "LIST" "LIST" nil))) (om-make-point 583 339) nil nil nil nil 1))) (when (fboundp (quote set-active)) (set-active box nil)) box) (let ((box (om-load-boxcall (quote genfun) "OM//" (quote om//) (quote ((om-load-inputfun (quote input-funbox) "number or list" "N" 1) (om-load-inputfun (quote input-funbox) "number or list" "DIVISOR" 1200))) (om-make-point 859 537) nil nil nil nil 2))) (when (fboundp (quote set-active)) (set-active box nil)) box) (let ((box (om-load-boxcall (quote patch-box) "Finder" (quote ("elements" "Finder")) (quote ((om-load-inputfun (quote input-funbox) "" "Scale" nil) (om-load-inputfun (quote input-funbox) "" "Note" nil) (om-load-inputfun (quote input-funbox) "" "lastValue" -1))) (om-make-point 436 427) nil nil nil nil 1))) (when (fboundp (quote set-active)) (set-active box nil)) box) (let ((box (om-load-boxcall (quote genfun) "OM+" (quote om+) (quote ((om-load-inputfun (quote input-funbox) "number or list" "ARG1" 0) (om-load-inputfun (quote input-funbox) "number or list" "ARG2" 0))) (om-make-point 864 630) nil nil nil nil 1))) (when (fboundp (quote set-active)) (set-active box nil)) box) (let ((box (om-load-boxcall (quote genfun) "OM-ABS" (quote om-abs) (quote ((om-load-inputfun (quote input-funbox) "number or tree" "SELF" 1))) (om-make-point 847 456) nil nil nil nil 1))) (when (fboundp (quote set-active)) (set-active box nil)) box) (let ((box (om-load-boxcall (quote genfun) "OM-" (quote om-) (quote ((om-load-inputfun (quote input-funbox) "number or list" "ARG1" 0) (om-load-inputfun (quote input-funbox) "number or list" "ARG2" 0))) (om-make-point 860 377) nil nil nil nil 1))) (when (fboundp (quote set-active)) (set-active box nil)) box) (let ((box (om-load-boxcall (quote lispfun) "SECOND" (quote second) (quote ((om-load-inputfun (quote input-funbox) "LIST" "LIST" nil))) (om-make-point 881 285) nil nil nil nil 1))) (when (fboundp (quote set-active)) (set-active box nil)) box) (let ((box (om-load-boxcall (quote lispfun) "FIRST" (quote first) (quote ((om-load-inputfun (quote input-funbox) "LIST" "LIST" nil))) (om-make-point 820 282) nil nil nil nil 1))) (when (fboundp (quote set-active)) (set-active box nil)) box) (let ((box (om-load-boxcomment "comment" (om-make-point 100 60) (quote "Input Intervall") "" (om-make-point 857 35) nil (om-make-color 0 0 0) (om-make-font "Liberation Sans" 12 :family "Liberation Sans" :style (quote (:plain)) :mode (quote nil))))) (when (fboundp (quote set-active)) (set-active box nil)) box) (let ((box (om-load-boxcomment "comment" (om-make-point 100 60) (quote "Given Scale") "" (om-make-point 412 33) nil (om-make-color 0 0 0) (om-make-font "Liberation Sans" 12 :family "Liberation Sans" :style (quote (:plain)) :mode (quote nil))))) (when (fboundp (quote set-active)) (set-active box nil)) box) (let ((box (om-load-editor-box1 "CHORD" (quote chord) (quote ((om-load-inputfun (quote input-funbox) "object" "self" nil) (om-load-inputfun (quote input-funbox) "pitches (list of midicents)" "lmidic" (list 6000)) (om-load-inputfun (quote input-funbox) "velocities (list of values 0-127)" "lvel" (list 100)) (om-load-inputfun (quote input-funbox) "offsets (list of values in ms)" "loffset" (list 0)) (om-load-inputfun (quote input-funbox) "durations (list of values in ms)" "ldur" (list 1000)) (om-load-inputfun (quote input-funbox) "MIDI channels (list of values 0-16)" "lchan" (list 1)))) (om-make-point 814 96) (om-make-point 115 114) (let ((thechord (make-instance (quote chord) :lmidic (quote (6500 7100)) :ldur (quote (1000 1000)) :lvel (quote (100 100)) :loffset (quote (0 0)) :lchan (quote (1 1))))) (load-port-info thechord (quote (0 0))) (init-mus-color thechord (quote nil)) (set-extra-pairs thechord (quote nil)) (set-tonalite thechord nil) thechord) "x" nil (pairlis (quote (approx fontsize staff cmnpref deltapict outport inport player zoom notechancolor? grillestep mode winsize winpos score-mode obj-mode cursor-mode show-stems scale)) (list 2 24 (quote g) (let ((newobj (make-instance (quote edition-values)))) (setf (paper-size newobj) (om-make-point 600 800)) (setf (top-margin newobj) 2) (setf (left-margin newobj) 1) (setf (right-margin newobj) 1) (setf (bottom-margin newobj) 1) (setf (orientation newobj) nil) (setf (scale newobj) nil) (setf (system-space newobj) (quote (1))) (setf (system-color newobj) (quote nil)) (setf (line-space newobj) 1) (setf (title newobj) nil) (setf (show-title? newobj) nil) (setf (show-page? newobj) nil) (setf (sheet-id newobj) nil) (setf (page-mode newobj) nil) newobj) (om-make-point 0 0) nil nil (quote :midi-player) 1 nil 1000 0 (om-make-point 370 280) (om-make-point 400 20) 0 0 (quote :normal) (quote t) nil)) t nil nil nil))) (when (fboundp (quote set-active)) (set-active box nil)) box) (let ((box (om-load-editor-box1 "CHORD-SEQ" (quote chord-seq) (quote ((om-load-inputfun (quote input-funbox) "object" "self" nil) (om-load-inputfun (quote input-funbox) "pitches (mc): list or list of lists" "lmidic" (list 6000)) (om-load-inputfun (quote input-funbox) "onsets (ms): list" "lonset" (list 0 1000)) (om-load-inputfun (quote input-funbox) "durations (ms): list or list of lists" "ldur" (list 1000)) (om-load-inputfun (quote input-funbox) "velocities (0-127): list or list of lists" "lvel" (list 100)) (om-load-inputfun (quote input-funbox) "offsets (ms): list or list of lists" "loffset" (list 0)) (om-load-inputfun (quote input-funbox) "MIDI channels (1-16): list or list of lists" "lchan" (list 1)) (om-load-inputfun (quote input-funbox) "relative chords duration (0-100)" "legato" 0))) (om-make-point 157 95) (om-make-point 514 118) (let ((newobj (when (find-class (quote chord-seq) nil) (make-instance (quote chord-seq) :lmidic (quote ((6500) (7000) (6300) (6800) (6100) (6600) (7100) (6400) (6900) (6200) (6700) (6000))) :lonset (quote (0 1000 2000 3000 4000 5000 6000 7000 8000 9000 10000 11000 11998)) :ldur (quote ((998) (998) (998) (998) (998) (998) (998) (998) (998) (998) (998) (998))) :lvel (quote ((100) (100) (100) (100) (100) (100) (100) (100) (100) (100) (100) (100))) :loffset (quote ((0) (0) (0) (0) (0) (0) (0) (0) (0) (0) (0) (0))) :lchan (quote ((1) (1) (1) (1) (1) (1) (1) (1) (1) (1) (1) (1))) :legato 0)))) (load-port-info newobj (quote ((0) (0) (0) (0) (0) (0) (0) (0) (0) (0) (0) (0)))) (init-mus-color newobj (quote nil)) (set-extra-pairs newobj (quote nil)) (set-patch-pairs newobj (quote nil)) (set-name newobj nil) (set-tonalite newobj nil) newobj) "x" nil (pairlis (quote (approx fontsize staff cmnpref deltapict outport inport player zoom notechancolor? grillestep mode winsize winpos score-mode obj-mode cursor-mode show-stems scale)) (list 2 24 (quote g) (let ((newobj (make-instance (quote edition-values)))) (setf (paper-size newobj) (om-make-point 600 800)) (setf (top-margin newobj) 2) (setf (left-margin newobj) 1) (setf (right-margin newobj) 1) (setf (bottom-margin newobj) 1) (setf (orientation newobj) nil) (setf (scale newobj) nil) (setf (system-space newobj) (quote (1))) (setf (system-color newobj) (quote nil)) (setf (line-space newobj) 1) (setf (title newobj) nil) (setf (show-title? newobj) nil) (setf (show-page? newobj) nil) (setf (sheet-id newobj) nil) (setf (page-mode newobj) nil) newobj) (om-make-point 0 0) nil nil (quote :midi-player) 1 nil 1000 0 (om-make-point 370 280) (om-make-point 400 20) 0 1 (quote :normal) (quote t) nil)) t nil nil nil))) (when (fboundp (quote set-active)) (set-active box nil)) box))) (quote ((13 1 0 0 nil 0) (4 0 1 0 nil 0) (0 0 2 0 nil 0) (6 0 3 0 nil 0) (0 0 4 0 nil 0) (5 0 4 1 nil 0) (3 1 5 0 nil 0) (2 0 5 1 nil 0) (7 0 6 0 nil 0) (9 0 7 0 nil 0) (8 0 7 1 nil 0) (12 1 8 0 nil 0) (12 1 9 0 nil 0))) nil 6.16))