; OM File Header - Saved 2021/09/02 0:15:06
; (6.070005 :patc (om-make-point 349 28) (om-make-point 50 50) (om-make-point 613 446) "" 183 0 nil "2021/09/02 0:15:06")
; End File Header
; External resources 
; (list (list (quote :picture) "#P\"../../../../resources/pict/omsox\"") (list (quote :sound) "#P\"../../../../../../../../Research/OM-SoX/OM-SoX 1.0/resources/sounds/amen-break.wav\""))
(in-package :om)(load-lib-for (quote ("OM-SoX")))(setf *om-current-persistent* (om-load-patch1 "3-speed" (quote ((om-load-boxcomment "comment" (om-make-point 234 36) (quote "change pitch and duration$as a ratio or transposition in midicent") "" (om-make-point 288 183) nil (om-make-color 0.0 0.0 1.0) (om-make-font "Verdana" 10.0 :family "Verdana" :style (quote (:italic)) :mode (quote nil))) (om-load-boxcomment "comment 2" (om-make-point 435 34) (quote "Use \"sox-speed\" to change both pitch and duration of audio") "" (om-make-point 128 23) nil (om-make-color 0.0 0.0 0.0) (om-make-font "Verdana" 14.0 :family "Verdana" :style (quote (:plain)) :mode (quote nil))) (om-load-boxcall (quote genfun) "SOX-SPEED" (quote sox-speed) (quote ((om-load-inputfun (quote input-funbox) "speed-factor / midicents (depending on mode)" "SPEED" 0.7) (om-load-inputkeyword (quote input-keyword) "ratio or midicent to control change in speed (default = ratio)" "mode" (quote :mode) "ratio" (list (list "ratio" "ratio") (list "midicent" "midicent"))))) (om-make-point 217 171) nil nil nil nil 1) (om-load-boxcall (quote genfun) "SOX-PROCESS" (quote sox-process) (quote ((om-load-inputfun (quote input-funbox) "" "SND" nil) (om-load-inputfun (quote input-funbox) "" "COMMANDS" nil))) (om-make-point 160 259) nil nil nil nil 1) (om-load-editor-box1 "2" (quote sound) (quote ((om-load-inputfun (quote input-funbox) "object" "SELF" nil) (om-load-inputfun (quote input-funbox) "a track index for multichannel mixing" "TRACKNUM" 1) (om-load-inputfun (quote input-funbox) "a list of markers (s)" "MARKERS" nil))) (om-make-point 176 350) (om-make-point 80 50) (let ((newobj nil)) (load-port-info newobj (quote nil)) (init-mus-color newobj (quote nil)) (set-extra-pairs newobj (quote nil)) (set-patch-pairs newobj (quote nil)) (set-name newobj "") (set-tonalite newobj nil) newobj) nil nil (pairlis (quote (palette-mode scale show-stems obj-mode score-mode winpos winsize mode grillestep notechancolor? zoom player inport outport deltapict cmnpref staff fontsize approx)) (list 0 nil (quote t) 1 0 (om-make-point 400 22) (om-make-point 720 315) 0 1000 nil 1 (quote :soxplayer) 0 nil (om-make-point 0 0) (let ((newobj (make-instance (quote edition-values)))) (setf (paper-size newobj) (om-make-point 600 800)) (setf (top-margin newobj) 2) (setf (left-margin newobj) 1) (setf (right-margin newobj) 1) (setf (bottom-margin newobj) 1) (setf (orientation newobj) nil) (setf (scale newobj) nil) (setf (system-space newobj) (quote (1))) (setf (system-color newobj) (quote nil)) (setf (line-space newobj) 1) (setf (title newobj) nil) (setf (show-title? newobj) nil) (setf (show-page? newobj) nil) (setf (sheet-id newobj) nil) (setf (page-mode newobj) nil) newobj) (quote g) 24 2)) t nil nil nil) (om-load-boxcall (quote bastype) "aux" (quote t) (quote nil) (om-make-point 198 132) (om-make-point 52 30) 0.7071 ".7071" nil) (om-load-editor-box1 "amen-break.wav" (quote sound) (quote ((om-load-inputfun (quote input-funbox) "object" "self" nil) (om-load-inputfun (quote input-funbox) "a track index for multichannel mixing" "tracknum" 0) (om-load-inputfun (quote input-funbox) "a list of markers (s)" "markers" nil))) (om-make-point 87 181) (om-make-point 80 50) (let ((newobj (let ((thesound (load-sound (om-make-pathname :directory (quote (:absolute "Users" "Marlon_MBPro3" "Research" "OM-SoX" "OM-SoX 1.0" "resources" "sounds")) :device nil :host nil :name "amen-break" :type "wav") 0 100 0))) (when thesound (setf (markers thesound) (quote nil))) thesound))) (load-port-info newobj (quote nil)) (init-mus-color newobj (quote nil)) (set-extra-pairs newobj (quote nil)) (set-patch-pairs newobj (quote nil)) (set-name newobj "amen-break.wav") (set-tonalite newobj nil) newobj) "x" nil (pairlis (quote (palette-mode scale show-stems obj-mode score-mode winpos winsize mode grillestep notechancolor? zoom player inport outport deltapict cmnpref staff fontsize approx)) (list 0 nil (quote t) 1 0 (om-make-point 400 22) (om-make-point 581 318) 0 1000 nil 1 (quote :soxplayer) 0 nil (om-make-point 0 0) (let ((newobj (make-instance (quote edition-values)))) (setf (paper-size newobj) (om-make-point 600 800)) (setf (top-margin newobj) 2) (setf (left-margin newobj) 1) (setf (right-margin newobj) 1) (setf (bottom-margin newobj) 1) (setf (orientation newobj) nil) (setf (scale newobj) nil) (setf (system-space newobj) (quote (1))) (setf (system-color newobj) (quote nil)) (setf (line-space newobj) 1) (setf (title newobj) nil) (setf (show-title? newobj) nil) (setf (show-page? newobj) nil) (setf (sheet-id newobj) nil) (setf (page-mode newobj) nil) newobj) (quote g) 24 2)) t nil nil nil))) (quote ((5 0 2 0 nil 0) (6 0 3 0 nil 0) (2 0 3 1 nil 0) (3 0 4 0 nil 0))) (list (let ((newpict (make-instance (quote patch-picture) :name "omsox" :source (quote user) :pict-pathname (restore-pict-path (restore-path nil)) :thepict (om-get-picture "omsox" (quote user)) :storemode :external :draw-params (quote (p 0 0 100 100)) :extraobjs nil))) (setf (pict-pos newpict) (om-make-point 59 9)) (setf (pict-size newpict) (om-make-point 64 55)) newpict)) 6.070005))
