; OM File Header - Saved 2020/11/18 23:49:56
; (6.120003 :patc (om-make-point 172 10) (om-make-point 639 149) (om-make-point 647 723) "" 183 0 nil "2020/11/18 23:49:56")
; End File Header
(in-package :om)(load-lib-for (quote ("OMCollider")))(setf *om-current-persistent* (om-load-patch1 "Blip" (quote ((let ((box (om-load-boxcall (quote genfun) "SYNTHESIZER" (quote omsc::synthesizer) (quote ((om-load-inputfun (quote input-funbox) "" "DATA" nil))) (om-make-point 415 598) nil nil nil nil 1))) (when (fboundp (quote set-active)) (set-active box nil)) box) (let ((box (om-load-boxcall (quote genfun) "LFNOISE0_KR" (quote omsc::lfnoise0_kr) (quote ((om-load-inputfun (quote input-funbox) "" "FREQ" 4) (om-load-inputfun (quote input-funbox) "" "MUL" (list 1)) (om-load-inputfun (quote input-funbox) "" "ADD" (list 0)))) (om-make-point 523 63) nil nil nil nil 1))) (when (fboundp (quote set-active)) (set-active box nil)) box) (let ((box (om-load-boxcall (quote bastype) "list 4" (quote list) (quote nil) (om-make-point 128 139) (om-make-point 31 30) 120 "120" nil))) (when (fboundp (quote set-active)) (set-active box nil)) box) (let ((box (om-load-boxcall (quote bastype) "list 3" (quote list) (quote nil) (om-make-point 426 59) (om-make-point 28 30) 0.2 "0.2" nil))) (when (fboundp (quote set-active)) (set-active box nil)) box) (let ((box (om-load-boxcall (quote genfun) "A*B" (quote omsc::a*b) (quote ((om-load-inputfun (quote input-funbox) "" "A" nil) (om-load-inputfun (quote input-funbox) "" "B" nil))) (om-make-point 435 126) nil nil nil nil 1))) (when (fboundp (quote set-active)) (set-active box nil)) box) (let ((box (om-load-boxcall (quote genfun) "BLIP" (quote omsc::blip) (quote ((om-load-inputfun (quote input-funbox) "" "FREQ" (list 440)) (om-load-inputfun (quote input-funbox) "" "NUMHARM" (list 0)) (om-load-inputfun (quote input-funbox) "" "MUL" (list 1)) (om-load-inputfun (quote input-funbox) "" "ADD" (list 0)))) (om-make-point 266 166) nil nil nil nil 1))) (when (fboundp (quote set-active)) (set-active box nil)) box) (let ((box (om-load-boxcall (quote bastype) "list 2" (quote list) (quote nil) (om-make-point 53 282) (om-make-point 35 28) (list 0 1) "(0 1)" nil))) (when (fboundp (quote set-active)) (set-active box nil)) box) (let ((box (om-load-boxcall (quote genfun) "ARRAY-SC" (quote omsc::array-sc) (quote ((om-load-inputfun (quote input-funbox) "" "IN" nil))) (om-make-point 119 312) nil nil nil nil 1))) (when (fboundp (quote set-active)) (set-active box nil)) box) (let ((box (om-load-boxcall (quote genfun) "OUT" (quote omsc::out) (quote ((om-load-inputfun (quote input-funbox) "" "BUS" (list (quote omsc::bus))) (om-load-inputfun (quote input-funbox) "" "IN" (list (quote omsc::in))))) (om-make-point 247 356) nil nil nil nil 1))) (when (fboundp (quote set-active)) (set-active box nil)) box) (let ((box (om-load-boxcall (quote genfun) "FUNCTION-PLAY" (quote omsc::function-play) (quote ((om-load-inputfun (quote input-funbox) "" "IN" nil))) (om-make-point 266 428) nil nil nil nil 1))) (when (fboundp (quote set-active)) (set-active box nil)) box) (let ((box (om-load-boxcall (quote genfun) "GUI" (quote omsc::gui) (quote ((om-load-inputfun (quote input-funbox) "" "IN" nil))) (om-make-point 320 519) nil nil nil nil 1))) (when (fboundp (quote set-active)) (set-active box nil)) box) (let ((box (om-load-boxcall (quote genfun) "MOUSE-Y" (quote omsc::mouse-y) (quote ((om-load-inputfun (quote input-funbox) "" "MINVAL" 2) (om-load-inputfun (quote input-funbox) "" "MAXVAL" 100) (om-load-inputfun (quote input-funbox) "" "WARP" 2) (om-load-inputfun (quote input-funbox) "" "LAG" 0.2))) (om-make-point 261 56) nil nil nil nil 1))) (when (fboundp (quote set-active)) (set-active box nil)) box))) (quote ((10 0 0 0 nil 0) (3 0 4 0 nil 0) (1 0 4 1 nil 0) (2 0 5 0 nil 0) (11 0 5 1 nil 0) (4 0 5 2 nil 0) (6 0 7 0 nil 0) (7 0 8 0 nil 0) (5 0 8 1 nil 0) (8 0 9 0 nil 0) (9 0 10 0 nil 0))) nil 6.120003))
