; OM File Header - Saved 2020/11/18 23:49:56
; (6.120003 :patc (om-make-point 220 405) (om-make-point 390 44) (om-make-point 1376 837) "" 183 0 nil "2020/11/18 23:49:56")
; End File Header
(in-package :om)(load-lib-for (quote ("OMCollider" "Esquisse")))(setf *om-current-persistent* (om-load-patch1 "spectrum-arpeggio" (quote ((let ((box (om-load-boxcall (quote bastype) "list 7" (quote list) (quote nil) (om-make-point 722 59) (om-make-point 25 30) 1 "1" nil))) (when (fboundp (quote set-active)) (set-active box nil)) box) (let ((box (om-load-boxcall (quote genfun) "OM/ 2" (quote om/) (quote ((om-load-inputfun (quote input-funbox) "number or list" "ARG1" 1) (om-load-inputfun (quote input-funbox) "number or list" "ARG2" 1))) (om-make-point 795 84) nil nil nil nil 1))) (when (fboundp (quote set-active)) (set-active box nil)) box) (let ((box (om-load-boxcall (quote lispfun) "LENGTH" (quote length) (quote ((om-load-inputfun (quote input-funbox) "SEQUENCE" "SEQUENCE" nil))) (om-make-point 847 36) nil nil nil nil 1))) (when (fboundp (quote set-active)) (set-active box nil)) box) (let ((box (om-load-boxcall (quote bastype) "list 5" (quote list) (quote nil) (om-make-point 1187 95) (om-make-point 24 30) 50 "50" nil))) (when (fboundp (quote set-active)) (set-active box nil)) box) (let ((box (om-load-boxcall (quote genfun) "HARM-SERIES" (quote harm-series) (quote ((om-load-inputfun (quote input-funbox) "Fundamental" "FUND" 3600) (om-load-inputfun (quote input-funbox) "Numerator" "NUMER" 1) (om-load-inputfun (quote input-funbox) "Denominator" "DENOM" 1) (om-load-inputfun (quote input-funbox) "Begin" "BEGIN" 1) (om-load-inputfun (quote input-funbox) "End" "END" 7) (om-load-inputfunmenu1 (quote input-funmenu) "Unit" "UNIT" 1 (list (list "Midics" 1) (list "Freqs" 2))) (om-load-inputfunmenu1 (quote input-funmenu) "Type" "TYPE" 2 (list (list "Chord" 1) (list "ChordSeq" 2))))) (om-make-point 1104 144) nil nil nil nil 1))) (when (fboundp (quote set-active)) (set-active box nil)) box) (let ((box (om-load-editor-box1 "CHORD-SEQ" (quote chord-seq) (quote ((om-load-inputfun (quote input-funbox) "object" "self" nil) (om-load-inputfun (quote input-funbox) "pitches (mc): list or list of lists" "lmidic" (list 6000)) (om-load-inputfun (quote input-funbox) "onsets (ms): list" "lonset" (list 100 200)) (om-load-inputfun (quote input-funbox) "durations (ms): list or list of lists" "ldur" (list 1000)) (om-load-inputfun (quote input-funbox) "velocities (0-127): list or list of lists" "lvel" (list 100)) (om-load-inputfun (quote input-funbox) "offsets (ms): list or list of lists" "loffset" (list 0)) (om-load-inputfun (quote input-funbox) "MIDI channels (1-16): list or list of lists" "lchan" (list 1)) (om-load-inputfun (quote input-funbox) "relative chords duration (0-100)" "legato" 0))) (om-make-point 928 286) (om-make-point 331 118) (let ((newobj (when (find-class (quote chord-seq) nil) (make-instance (quote chord-seq) :lmidic (quote ((3100) (4300) (5002) (5500) (5886) (6202) (6468) (6700) (6904) (7086) (7252) (7402) (7540) (7668) (7788) (7900) (8004) (8104) (8198) (8286) (8370) (8452) (8528) (8602) (8672) (8740) (8806) (8868) (8930) (8988) (9046) (9100) (9154) (9204) (9256) (9304) (9352) (9398) (9442) (9486) (9530) (9570) (9612) (9652) (9690) (9728) (9766) (9802) (9838) (9872))) :lonset (quote (100 200 300 400 500 600 700 800 900 1000 1100 1200 1300 1400 1500 1600 1700 1800 1900 2000 2100 2200 2300 2400 2500 2600 2700 2800 2900 3000 3100 3200 3300 3400 3500 3600 3700 3800 3900 4000 4100 4200 4300 4400 4500 4600 4700 4800 4900 5000 6000)) :ldur (quote ((1000) (1000) (1000) (1000) (1000) (1000) (1000) (1000) (1000) (1000) (1000) (1000) (1000) (1000) (1000) (1000) (1000) (1000) (1000) (1000) (1000) (1000) (1000) (1000) (1000) (1000) (1000) (1000) (1000) (1000) (1000) (1000) (1000) (1000) (1000) (1000) (1000) (1000) (1000) (1000) (1000) (1000) (1000) (1000) (1000) (1000) (1000) (1000) (1000) (1000))) :lvel (quote ((100) (100) (100) (100) (100) (100) (100) (100) (100) (100) (100) (100) (100) (100) (100) (100) (100) (100) (100) (100) (100) (100) (100) (100) (100) (100) (100) (100) (100) (100) (100) (100) (100) (100) (100) (100) (100) (100) (100) (100) (100) (100) (100) (100) (100) (100) (100) (100) (100) (100))) :loffset (quote ((0) (0) (0) (0) (0) (0) (0) (0) (0) (0) (0) (0) (0) (0) (0) (0) (0) (0) (0) (0) (0) (0) (0) (0) (0) (0) (0) (0) (0) (0) (0) (0) (0) (0) (0) (0) (0) (0) (0) (0) (0) (0) (0) (0) (0) (0) (0) (0) (0) (0))) :lchan (quote ((1) (1) (1) (1) (1) (1) (1) (1) (1) (1) (1) (1) (1) (1) (1) (1) (1) (1) (1) (1) (1) (1) (1) (1) (1) (1) (1) (1) (1) (1) (1) (1) (1) (1) (1) (1) (1) (1) (1) (1) (1) (1) (1) (1) (1) (1) (1) (1) (1) (1))) :legato 0)))) (load-port-info newobj (quote ((0) (0) (0) (0) (0) (0) (0) (0) (0) (0) (0) (0) (0) (0) (0) (0) (0) (0) (0) (0) (0) (0) (0) (0) (0) (0) (0) (0) (0) (0) (0) (0) (0) (0) (0) (0) (0) (0) (0) (0) (0) (0) (0) (0) (0) (0) (0) (0) (0) (0)))) (init-mus-color newobj (quote nil)) (set-extra-pairs newobj (quote nil)) (set-patch-pairs newobj (quote ((nil (om-load-patch-abs1 "patch" (quote nil) (quote nil) 6.120003 nil "" (om-make-point 200 200) (om-make-point 400 500)))))) (set-name newobj nil) (set-tonalite newobj nil) newobj) "x" nil (pairlis (quote (scale show-stems cursor-mode obj-mode score-mode winpos winsize mode grillestep notechancolor? zoom player inport outport deltapict cmnpref staff fontsize approx)) (list nil (quote t) (quote :normal) 1 0 (om-make-point 591 260) (om-make-point 1125 541) 0 1000 nil 1 (quote :microplayer) nil nil (om-make-point 0 0) (let ((newobj (make-instance (quote edition-values)))) (setf (paper-size newobj) (om-make-point 600 800)) (setf (top-margin newobj) 2) (setf (left-margin newobj) 1) (setf (right-margin newobj) 1) (setf (bottom-margin newobj) 1) (setf (orientation newobj) nil) (setf (scale newobj) nil) (setf (system-space newobj) (quote (1))) (setf (system-color newobj) (quote nil)) (setf (line-space newobj) 1) (setf (title newobj) nil) (setf (show-title? newobj) nil) (setf (show-page? newobj) nil) (setf (sheet-id newobj) nil) (setf (page-mode newobj) nil) newobj) (quote g) 28 2)) t nil nil nil))) (when (fboundp (quote set-active)) (set-active box nil)) box) (let ((box (om-load-editor-box1 "NOTE" (quote note) (quote ((om-load-inputfun (quote input-funbox) "object" "self" nil) (om-load-inputfun (quote input-funbox) "pitch (midicents)" "midic" 6000) (om-load-inputfun (quote input-funbox) "velocity (0-127)" "vel" 80) (om-load-inputfun (quote input-funbox) "duration (ms)" "dur" 1000) (om-load-inputfun (quote input-funbox) "MIDI channel (1-16)" "chan" 1))) (om-make-point 938 44) (om-make-point 80 109) (if (find-class (quote note) nil) (let ((newobj (make-instance (quote note) :midic 3100 :vel 80 :dur 1000 :chan 1 :from-file t))) (load-port-info newobj (quote nil)) (init-mus-color newobj (quote nil)) (set-extra-pairs newobj (quote nil)) (set-patch-pairs newobj (quote ((nil (om-load-patch-abs1 "patch" (quote nil) (quote nil) 6.120003 nil "" (om-make-point 200 200) (om-make-point 400 500)))))) (set-name newobj nil) (set-tonalite newobj nil) newobj)) "x" nil (pairlis (quote (scale show-stems cursor-mode obj-mode score-mode winpos winsize mode grillestep notechancolor? zoom player inport outport deltapict cmnpref staff fontsize approx)) (list nil (quote t) (quote :normal) 0 0 (om-make-point 300 23) (om-make-point 723 407) 0 1000 nil 1 (quote :microplayer) nil nil (om-make-point 0 0) (let ((newobj (make-instance (quote edition-values)))) (setf (paper-size newobj) (om-make-point 600 800)) (setf (top-margin newobj) 2) (setf (left-margin newobj) 1) (setf (right-margin newobj) 1) (setf (bottom-margin newobj) 1) (setf (orientation newobj) nil) (setf (scale newobj) nil) (setf (system-space newobj) (quote (1))) (setf (system-color newobj) (quote nil)) (setf (line-space newobj) 1) (setf (title newobj) nil) (setf (show-title? newobj) nil) (setf (show-page? newobj) nil) (setf (sheet-id newobj) nil) (setf (page-mode newobj) nil) newobj) (quote gf) 24 2)) t nil nil nil))) (when (fboundp (quote set-active)) (set-active box nil)) box) (let ((box (om-load-boxcall (quote genfun) "OM-TO-PATTERN" (quote omsc::om-to-pattern) (quote ((om-load-inputfun (quote input-funbox) "" "SYNTHNAME" "test") (om-load-inputfun (quote input-funbox) "" "MIDINOTE" (list 60)) (om-load-inputfun (quote input-funbox) "" "DUR" (list 0.2)) (om-load-inputfun (quote input-funbox) "" "LENGTH" "inf"))) (om-make-point 1008 643) nil nil nil nil 1))) (when (fboundp (quote set-active)) (set-active box nil)) box) (let ((box (om-load-boxcomment "comment" (om-make-point 49 24) (quote "Dur.") "" (om-make-point 708 175) nil (om-make-color 0 0 0) (om-make-font "Verdana" 12 :family "Verdana" :style (quote (:plain)) :mode (quote nil))))) (when (fboundp (quote set-active)) (set-active box nil)) box) (let ((box (om-load-boxcall (quote bastype) "list 8" (quote list) (quote nil) (om-make-point 1188 621) (om-make-point 48 30) (list 0.8) "(0.8)" nil))) (when (fboundp (quote set-active)) (set-active box nil)) box) (let ((box (om-load-boxcall (quote lispfun) "LIST 6" (quote list) (quote ((om-load-inputfun (quote input-funbox) "add-input" "add-input" nil) (om-load-inputfun (quote input-funbox) "add-input" "add-input" nil))) (om-make-point 613 624) nil nil nil nil 1))) (when (fboundp (quote set-active)) (set-active box nil)) box) (let ((box (om-load-boxcall (quote genfun) "ENVGEN" (quote omsc::envgen) (quote ((om-load-inputfun (quote input-funbox) "" "ENVELOPE" nil) (om-load-inputfun (quote input-funbox) "" "GATE" 0.1) (om-load-inputfun (quote input-funbox) "" "LEVELSCALE" 1) (om-load-inputfun (quote input-funbox) "" "LEVELBIAS" 0) (om-load-inputfun (quote input-funbox) "" "TIMESCALE" 1) (om-load-inputfun (quote input-funbox) "" "DONEACTION" 2))) (om-make-point 580 234) nil nil nil nil 1))) (when (fboundp (quote set-active)) (set-active box nil)) box) (let ((box (om-load-boxcall (quote genfun) "ENV-SINE" (quote omsc::env-sine) (quote ((om-load-inputfun (quote input-funbox) "" "DUR" 0.5) (om-load-inputfun (quote input-funbox) "" "LEVEL" 1) (om-load-inputfun (quote input-funbox) "" "CURVE" "0.5"))) (om-make-point 697 251) nil nil nil nil 1))) (when (fboundp (quote set-active)) (set-active box nil)) box) (let ((box (om-load-boxcall (quote bastype) "list 9" (quote list) (quote nil) (om-make-point 714 206) (om-make-point 34 30) 30 "30" nil))) (when (fboundp (quote set-active)) (set-active box nil)) box) (let ((box (om-load-boxcall (quote genfun) "A*B" (quote omsc::a*b) (quote ((om-load-inputfun (quote input-funbox) "" "A" nil) (om-load-inputfun (quote input-funbox) "" "B" nil))) (om-make-point 456 284) nil nil nil nil 1))) (when (fboundp (quote set-active)) (set-active box nil)) box) (let ((box (om-load-boxcall (quote bastype) "list 3" (quote list) (quote nil) (om-make-point 413 37) (om-make-point 42 30) "freq" "\"freq\"" nil))) (when (fboundp (quote set-active)) (set-active box nil)) box) (let ((box (om-load-boxcall (quote genfun) "SINOSC_AR" (quote omsc::sinosc_ar) (quote ((om-load-inputfun (quote input-funbox) "" "FREQ" 440) (om-load-inputfun (quote input-funbox) "" "PHASE" 0) (om-load-inputfun (quote input-funbox) "" "MUL" 0) (om-load-inputfun (quote input-funbox) "" "ADD" 0))) (om-make-point 456 75) nil nil nil nil 1))) (when (fboundp (quote set-active)) (set-active box nil)) box) (let ((box (om-load-boxcall (quote genfun) "SYNTHESIZER" (quote omsc::synthesizer) (quote ((om-load-inputfun (quote input-funbox) "" "DATA" nil))) (om-make-point 596 722) nil nil nil nil 1))) (when (fboundp (quote set-active)) (set-active box nil)) box) (let ((box (om-load-boxcomment "comment" (om-make-point 54 24) (quote "Delay") "" (om-make-point 1182 584) nil (om-make-color 0 0 0) (om-make-font "Verdana" 12 :family "Verdana" :style (quote (:plain)) :mode (quote nil))))) (when (fboundp (quote set-active)) (set-active box nil)) box) (let ((box (om-load-boxcall (quote genfun) "GUI" (quote omsc::gui) (quote ((om-load-inputfun (quote input-funbox) "" "IN" nil))) (om-make-point 506 631) nil nil nil nil 1))) (when (fboundp (quote set-active)) (set-active box nil)) box) (let ((box (om-load-boxcall (quote genfun) "OM/" (quote om/) (quote ((om-load-inputfun (quote input-funbox) "number or list" "ARG1" 1) (om-load-inputfun (quote input-funbox) "number or list" "ARG2" 1))) (om-make-point 925 562) nil nil nil nil 1))) (when (fboundp (quote set-active)) (set-active box nil)) box) (let ((box (om-load-boxcall (quote bastype) "list 4" (quote list) (quote nil) (om-make-point 981 544) (om-make-point 41 30) 100 "100" nil))) (when (fboundp (quote set-active)) (set-active box nil)) box) (let ((box (om-load-boxcall (quote bastype) "list 2" (quote list) (quote nil) (om-make-point 112 107) (om-make-point 35 28) (list 0 1) "(0 1)" nil))) (when (fboundp (quote set-active)) (set-active box nil)) box) (let ((box (om-load-boxcall (quote genfun) "SYNTHDEF" (quote omsc::synthdef) (quote ((om-load-inputfun (quote input-funbox) "" "SYNTHNAME" nil) (om-load-inputfun (quote input-funbox) "" "IN" nil))) (om-make-point 52 428) nil nil nil nil 1))) (when (fboundp (quote set-active)) (set-active box nil)) box) (let ((box (om-load-boxcall (quote bastype) "list" (quote list) (quote nil) (om-make-point 610 471) (om-make-point 78 30) "arpeggio" "\"arpeggio\"" nil))) (when (fboundp (quote set-active)) (set-active box nil)) box) (let ((box (om-load-editor-box1 "TEXTFILE" (quote textfile) (quote ((om-load-inputfun (quote input-funbox) "object" "self" nil) (om-load-inputfun (quote input-funbox) "input data or text" "exp-list" nil) (om-load-inputfunmenu1 (quote input-funmenu) "append or supersede" "ed-mode" "supersede" (list (list "append" "append") (list "supersede" "supersede"))) (om-load-inputfunmenu1 (quote input-funmenu) "eval interpretation mode" "eval-mode" "list" (list (list "text" "text") (list "data list" "data") (list "list" "list") (list "value" "value"))))) (om-make-point 62 247) (om-make-point 129 55) (load-buffer-textfile (quote ("\"" "arg freq ;" "\"" "" "" "" "" "" "" "" "" "" "" "" "" "" "" "" "" "" "" "" "" "" "" "" "" "" "" "" "" "" "" "" "" "" "" "" "" "" "" "")) (quote textfile) "supersede" "list") "x" nil (pairlis (quote (winsize winpos)) (list (om-make-point 335 275) (om-make-point 10 40))) t nil nil nil))) (when (fboundp (quote set-active)) (set-active box nil)) box) (let ((box (om-load-boxcall (quote lispfun) "APPEND" (quote append) (quote ((om-load-inputfun (quote input-funbox) "add-input" "add-input" nil) (om-load-inputfun (quote input-funbox) "add-input" "add-input" nil))) (om-make-point 245 334) nil nil nil nil 1))) (when (fboundp (quote set-active)) (set-active box nil)) box) (let ((box (om-load-boxcall (quote genfun) "OUT" (quote omsc::out) (quote ((om-load-inputfun (quote input-funbox) "" "BUS" 0) (om-load-inputfun (quote input-funbox) "" "IN" 0))) (om-make-point 285 233) nil nil nil nil 1))) (when (fboundp (quote set-active)) (set-active box nil)) box) (let ((box (om-load-boxcall (quote genfun) "ARRAY-SC" (quote omsc::array-sc) (quote ((om-load-inputfun (quote input-funbox) "" "IN" nil))) (om-make-point 197 167) nil nil nil nil 1))) (when (fboundp (quote set-active)) (set-active box nil)) box))) (quote ((0 0 1 0 nil 0) (2 0 1 1 nil 0) (4 0 2 0 nil 0) (6 1 4 0 nil 0) (3 0 4 4 nil 0) (4 0 5 1 nil 0) (24 0 7 0 nil 0) (20 0 7 1 nil 0) (9 0 7 2 nil 0) (23 0 10 0 nil 0) (7 0 10 1 nil 0) (12 0 11 0 nil 0) (13 0 12 0 nil 0) (16 0 14 0 nil 0) (11 0 14 1 nil 0) (15 0 16 0 nil 0) (1 0 16 2 nil 0) (19 0 17 0 nil 0) (10 0 19 0 nil 0) (5 1 20 0 nil 0) (21 0 20 1 nil 0) (24 0 23 0 nil 0) (26 0 23 1 nil 0) (25 1 26 0 nil 0) (27 0 26 1 nil 0) (28 0 27 0 nil 0) (14 0 27 1 nil 0) (22 0 28 0 nil 0))) nil 6.120003))
