; OM File Header - Saved 2013/11/04 13:39:34
; (6.0602 :patc (om-make-point 118 210) (om-make-point 64 22) (om-make-point 1216 676) "" 183 0 "2013/10/22 14:13:16" "2013/11/04 13:38:36")
; End File Header
(in-package :om)(load-lib-for (quote nil))(setf *om-current-persistent* (om-load-patch1 "fazedor de series em ate 1 oitavo de tom 2 - expandido para demais parametros e incuindo repeticoes variadas da serie" (quote ((om-load-boxcall (quote abstraction) "Repetidor de serie de dyns (com multiplicador)" (om-load-patch-abs1 "Repetidor de serie de dyns (com multiplicador)" (quote ((om-load-boxin "dyn_max" 4 (om-make-point 788 192) "" "dyn_max" nil nil) (om-load-boxin "dyn_min" 3 (om-make-point 707 166) "" "dyn_min" nil nil) (om-load-boxcall (quote genfun) "OM-SCALE" (quote om-scale) (quote ((om-load-inputfun (quote input-funbox) "number or list" "SELF" 1) (om-load-inputfun (quote input-funbox) "a number" "MINOUT" 0) (om-load-inputfun (quote input-funbox) "a number" "MAXOUT" 0))) (om-make-point 621 315) nil nil nil nil 1) (om-load-boxcall (quote genfun) "OM-ROUND" (quote om-round) (quote ((om-load-inputfun (quote input-funbox) "number or list" "N" 1))) (om-make-point 197 346) nil nil nil nil 1) (om-load-boxwithed1 (quote box-with-win) "Repetidor de serie de durs (com multiplicador)" (quote omloop) (quote ((om-load-inputfun (quote input-funbox) "" "serie_de_onsets" nil) (om-load-inputfun (quote input-funbox) "" "coeficientes de onsets" nil))) (om-make-point 336 234) nil nil nil (list (om-load-boxcall (quote genfun) "PERMUT-RANDOM 2" (quote permut-random) (quote ((om-load-inputfun (quote input-funbox) "a list" "LIST" nil))) (om-make-point 504 106) nil nil "&" nil 1) (om-load-boxcall (quote genfun) "FLAT" (quote flat) (quote ((om-load-inputfun (quote input-funbox) "a list" "LST" nil))) (om-make-point 335 509) nil nil nil nil 1) (om-load-boxcall (quote lispfun) "THIRD" (quote third) (quote ((om-load-inputfun (quote input-funbox) "LIST" "LIST" nil))) (om-make-point 589 184) nil nil nil nil 1) (om-load-boxcall (quote lispfun) "SECOND" (quote second) (quote ((om-load-inputfun (quote input-funbox) "LIST" "LIST" nil))) (om-make-point 424 185) nil nil nil nil 1) (om-load-boxcall (quote genfun) "OM* 3" (quote om*) (quote ((om-load-inputfun (quote input-funbox) "number or list" "ARG1" 0) (om-load-inputfun (quote input-funbox) "number or list" "ARG2" 0))) (om-make-point 566 246) nil nil nil nil 1) (om-load-boxcall (quote genfun) "OM* 2" (quote om*) (quote ((om-load-inputfun (quote input-funbox) "number or list" "ARG1" 0) (om-load-inputfun (quote input-funbox) "number or list" "ARG2" 0))) (om-make-point 413 246) nil nil nil nil 1) (om-load-boxin "coeficientes de onsets" 1 (om-make-point 469 23) "" "coeficientes de onsets" nil nil) (om-load-boxcall (quote lispfun) "FIRST 2" (quote first) (quote ((om-load-inputfun (quote input-funbox) "LIST" "LIST" nil))) (om-make-point 337 158) nil nil nil nil 1) (om-load-boxcall (quote genfun) "OM*" (quote om*) (quote ((om-load-inputfun (quote input-funbox) "number or list" "ARG1" 0) (om-load-inputfun (quote input-funbox) "number or list" "ARG2" 0))) (om-make-point 347 231) nil nil nil nil 1) (om-load-boxcall (quote lispfun) "FIRST" (quote first) (quote ((om-load-inputfun (quote input-funbox) "LIST" "LIST" nil))) (om-make-point 409 416) nil nil nil nil 1) (om-load-boxcall (quote genfun) "PERMUT-RANDOM" (quote permut-random) (quote ((om-load-inputfun (quote input-funbox) "a list" "LIST" nil))) (om-make-point 385 346) nil nil nil nil 1) (om-load-boxcall (quote genfun) "collect" (quote listing) (quote ((om-load-inputfun (quote input-funbox) "anything" "DATA" nil))) (om-make-point 299 434) nil nil nil nil 3) (om-load-boxcall (quote lispfun) "LIST" (quote list) (quote ((om-load-inputfun (quote input-funbox) "add-input" "add-input" nil) (om-load-inputfun (quote input-funbox) "add-input" "add-input" nil) (om-load-inputfun (quote input-funbox) "add-input" "add-input" nil) (om-load-inputfun (quote input-funbox) "add-input" "add-input" nil))) (om-make-point 264 295) (om-make-point 207 43) nil nil nil 1) (om-load-boxcall (quote genfun) "inlist" (quote listloop) (quote ((om-load-inputfun (quote input-funbox) "list to iterate" "LIST" nil))) (om-make-point 190 153) nil nil nil nil 1) (om-load-boxin "serie_de_onsets" 0 (om-make-point 155 46) "" "serie_de_onsets" nil nil) (om-load-seqbox "finally" (quote finaldo) (quote ((om-load-inputfun (quote input-funbox) "value to return" "VAL" nil))) (om-make-point 355 586) nil nil nil 0) (om-load-seqbox "eachTime" (quote loopdo) (quote ((om-load-inputfun (quote input-funbox) "operations to do" "OP" nil))) (om-make-point 255 586) nil nil nil 0)) (quote ((6 0 0 0 nil 0) (11 1 1 0 nil 0) (0 0 2 0 nil 0) (0 0 3 0 nil 0) (13 0 4 0 nil 0) (2 0 4 1 nil 0) (13 0 5 0 nil 0) (3 0 5 1 nil 0) (0 0 7 0 nil 0) (13 0 8 0 nil 0) (7 0 8 1 nil 0) (10 0 9 0 nil 0) (12 0 10 0 nil 0) (9 0 11 0 nil 0) (13 0 12 0 nil 0) (8 0 12 1 nil 0) (5 0 12 2 nil 0) (4 0 12 3 nil 0) (14 0 13 0 nil 0) (1 0 15 0 nil 0) (11 0 16 0 nil 0))) 1 "repetidor de serie de durs (com multiplicador)" nil) (om-load-boxout "output" 0 (om-make-point 65 372) (quote ((om-load-inputfun (quote input-funbox) "" "out" nil))) nil nil) (om-load-boxin "Lista_de_possiveis_coeficientes_para_as_dyns" 2 (om-make-point 500 62) "" "Lista_de_possiveis_coeficientes_para_as_dyns" nil nil) (om-load-boxin "no_de_repeticoes_da_serie" 1 (om-make-point 250 66) "" "no_de_repeticoes_da_serie" nil nil) (om-load-boxin "serie_de_dyns" 0 (om-make-point 5 45) "" "serie_de_dyns" nil nil) (om-load-boxcall (quote genfun) "REPEAT-N" (quote repeat-n) (quote ((om-load-inputfun (quote input-funbox) "something" "SELF" nil) (om-load-inputfun (quote input-funbox) "times" "N" 0))) (om-make-point 220 172) nil nil nil nil 1))) (quote ((4 0 2 0 nil 0) (1 0 2 1 nil 0) (0 0 2 2 nil 0) (2 0 3 0 nil 0) (9 0 4 0 nil 0) (6 0 4 1 nil 0) (3 0 5 0 nil 0) (8 0 9 0 nil 0) (7 0 9 1 nil 0))) 6.0602 nil "" (om-make-point 200 200) (om-make-point 902 444)) (quote ((om-load-inputfun (quote input-funbox) "" "serie_de_dyns" nil) (om-load-inputfun (quote input-funbox) "" "no_de_repeticoes_da_serie" nil) (om-load-inputfun (quote input-funbox) "" "Lista_de_possiveis_coeficientes_para_as_dyns" nil) (om-load-inputfun (quote input-funbox) "" "input" nil) (om-load-inputfun (quote input-funbox) "" "input 2" nil))) (om-make-point 668 385) nil (list (list 62 52 51 49 45 76 47 54 71 69 67 56 72 65 59 74 63 42 38 43 58 40 78 36 38 34 34 33 31 44 32 35 42 41 40 36 42 39 37 43 39 30 28 31 36 29 44 28 62 52 51 49 45 76 47 54 71 69 67 56 72 65 59 74 63 42 38 43 58 40 78 36 77 64 62 60 54 98 57 67 90 88 84 70 92 82 74 95 80 49 44 52 72 47 100 42 30 28 28 28 27 33 27 29 32 32 31 29 32 31 30 33 30 26 25 26 29 26 33 25 38 34 34 33 31 44 32 35 42 41 40 36 42 39 37 43 39 30 28 31 36 29 44 28 54 46 45 44 40 65 42 48 61 60 58 49 62 56 52 64 55 38 35 39 51 36 67 33)) nil "Repetidor de serie de dyns (com multiplicador)") (om-load-boxcall (quote genfun) "FLAT" (quote flat) (quote ((om-load-inputfun (quote input-funbox) "a list" "LST" nil))) (om-make-point 1090 361) nil nil nil nil 1) (om-load-boxcall (quote abstraction) "Repetidor de serie de durs (com multiplicador)" (om-load-patch-abs1 "Repetidor de serie de durs (com multiplicador)" (quote ((om-load-boxcall (quote genfun) "OM-ROUND" (quote om-round) (quote ((om-load-inputfun (quote input-funbox) "number or list" "N" 1))) (om-make-point 276 296) nil nil nil nil 1) (om-load-boxwithed1 (quote box-with-win) "Repetidor de serie de durs (com multiplicador)" (quote omloop) (quote ((om-load-inputfun (quote input-funbox) "" "serie_de_onsets" nil) (om-load-inputfun (quote input-funbox) "" "coeficientes de onsets" nil))) (om-make-point 336 234) nil nil nil (list (om-load-boxcall (quote genfun) "PERMUT-RANDOM 2" (quote permut-random) (quote ((om-load-inputfun (quote input-funbox) "a list" "LIST" nil))) (om-make-point 504 106) nil nil "&" nil 1) (om-load-boxcall (quote genfun) "FLAT" (quote flat) (quote ((om-load-inputfun (quote input-funbox) "a list" "LST" nil))) (om-make-point 335 509) nil nil nil nil 1) (om-load-boxcall (quote lispfun) "THIRD" (quote third) (quote ((om-load-inputfun (quote input-funbox) "LIST" "LIST" nil))) (om-make-point 589 184) nil nil nil nil 1) (om-load-boxcall (quote lispfun) "SECOND" (quote second) (quote ((om-load-inputfun (quote input-funbox) "LIST" "LIST" nil))) (om-make-point 424 185) nil nil nil nil 1) (om-load-boxcall (quote genfun) "OM* 3" (quote om*) (quote ((om-load-inputfun (quote input-funbox) "number or list" "ARG1" 0) (om-load-inputfun (quote input-funbox) "number or list" "ARG2" 0))) (om-make-point 566 246) nil nil nil nil 1) (om-load-boxcall (quote genfun) "OM* 2" (quote om*) (quote ((om-load-inputfun (quote input-funbox) "number or list" "ARG1" 0) (om-load-inputfun (quote input-funbox) "number or list" "ARG2" 0))) (om-make-point 413 246) nil nil nil nil 1) (om-load-boxin "coeficientes de onsets" 1 (om-make-point 469 23) "" "coeficientes de onsets" nil nil) (om-load-boxcall (quote lispfun) "FIRST 2" (quote first) (quote ((om-load-inputfun (quote input-funbox) "LIST" "LIST" nil))) (om-make-point 337 158) nil nil nil nil 1) (om-load-boxcall (quote genfun) "OM*" (quote om*) (quote ((om-load-inputfun (quote input-funbox) "number or list" "ARG1" 0) (om-load-inputfun (quote input-funbox) "number or list" "ARG2" 0))) (om-make-point 347 231) nil nil nil nil 1) (om-load-boxcall (quote lispfun) "FIRST" (quote first) (quote ((om-load-inputfun (quote input-funbox) "LIST" "LIST" nil))) (om-make-point 409 416) nil nil nil nil 1) (om-load-boxcall (quote genfun) "PERMUT-RANDOM" (quote permut-random) (quote ((om-load-inputfun (quote input-funbox) "a list" "LIST" nil))) (om-make-point 385 346) nil nil nil nil 1) (om-load-boxcall (quote genfun) "collect" (quote listing) (quote ((om-load-inputfun (quote input-funbox) "anything" "DATA" nil))) (om-make-point 299 434) nil nil nil nil 3) (om-load-boxcall (quote lispfun) "LIST" (quote list) (quote ((om-load-inputfun (quote input-funbox) "add-input" "add-input" nil) (om-load-inputfun (quote input-funbox) "add-input" "add-input" nil) (om-load-inputfun (quote input-funbox) "add-input" "add-input" nil) (om-load-inputfun (quote input-funbox) "add-input" "add-input" nil))) (om-make-point 264 295) (om-make-point 207 43) nil nil nil 1) (om-load-boxcall (quote genfun) "inlist" (quote listloop) (quote ((om-load-inputfun (quote input-funbox) "list to iterate" "LIST" nil))) (om-make-point 190 153) nil nil nil nil 1) (om-load-boxin "serie_de_onsets" 0 (om-make-point 155 46) "" "serie_de_onsets" nil nil) (om-load-seqbox "finally" (quote finaldo) (quote ((om-load-inputfun (quote input-funbox) "value to return" "VAL" nil))) (om-make-point 355 586) nil nil nil 0) (om-load-seqbox "eachTime" (quote loopdo) (quote ((om-load-inputfun (quote input-funbox) "operations to do" "OP" nil))) (om-make-point 255 586) nil nil nil 0)) (quote ((6 0 0 0 nil 0) (11 1 1 0 nil 0) (0 0 2 0 nil 0) (0 0 3 0 nil 0) (13 0 4 0 nil 0) (2 0 4 1 nil 0) (13 0 5 0 nil 0) (3 0 5 1 nil 0) (0 0 7 0 nil 0) (13 0 8 0 nil 0) (7 0 8 1 nil 0) (10 0 9 0 nil 0) (12 0 10 0 nil 0) (9 0 11 0 nil 0) (13 0 12 0 nil 0) (8 0 12 1 nil 0) (5 0 12 2 nil 0) (4 0 12 3 nil 0) (14 0 13 0 nil 0) (1 0 15 0 nil 0) (11 0 16 0 nil 0))) 1 "repetidor de serie de durs (com multiplicador)" nil) (om-load-boxout "output" 0 (om-make-point 167 352) (quote ((om-load-inputfun (quote input-funbox) "" "out" nil))) nil nil) (om-load-boxin "Lista_de_possiveis_coeficientes_para_as_durs" 2 (om-make-point 500 62) "" "Lista_de_possiveis_coeficientes_para_as_durs" nil nil) (om-load-boxin "no_de_repeticoes_da_serie" 1 (om-make-point 250 66) "" "no_de_repeticoes_da_serie" nil nil) (om-load-boxin "serie_de_durs" 0 (om-make-point 5 45) "" "serie_de_durs" nil nil) (om-load-boxcall (quote genfun) "REPEAT-N" (quote repeat-n) (quote ((om-load-inputfun (quote input-funbox) "something" "SELF" nil) (om-load-inputfun (quote input-funbox) "times" "N" 0))) (om-make-point 220 172) nil nil nil nil 1))) (quote ((1 0 0 0 nil 0) (6 0 1 0 nil 0) (3 0 1 1 nil 0) (0 0 2 0 nil 0) (5 0 6 0 nil 0) (4 0 6 1 nil 0))) 6.0602 nil "" (om-make-point 217 247) (om-make-point 804 484)) (quote ((om-load-inputfun (quote input-funbox) "" "serie_de_onsets" nil) (om-load-inputfun (quote input-funbox) "" "no_de_repeticoes_da_serie" nil) (om-load-inputfun (quote input-funbox) "" "Lista de possiveis coeficientes para os onsets" nil))) (om-make-point 371 372) nil (list (list 100 1012 1332 956 420 316 848 528 476 260 1224 208 636 584 904 1116 1280 152 688 368 1064 796 1172 744 25 253 333 239 105 79 212 132 119 65 306 52 159 146 226 279 320 38 172 92 266 199 293 186 175 1771 2331 1673 735 553 1484 924 833 455 2142 364 1113 1022 1582 1953 2240 266 1204 644 1862 1393 2051 1302 25 253 333 239 105 79 212 132 119 65 306 52 159 146 226 279 320 38 172 92 266 199 293 186 175 1771 2331 1673 735 553 1484 924 833 455 2142 364 1113 1022 1582 1953 2240 266 1204 644 1862 1393 2051 1302 175 1771 2331 1673 735 553 1484 924 833 455 2142 364 1113 1022 1582 1953 2240 266 1204 644 1862 1393 2051 1302 175 1771 2331 1673 735 553 1484 924 833 455 2142 364 1113 1022 1582 1953 2240 266 1204 644 1862 1393 2051 1302)) nil "Repetidor de serie de durs (com multiplicador)") (om-load-boxcall (quote abstraction) "Repetidor de serie de onsets (com multiplicador)" (om-load-patch-abs1 "Repetidor de serie de onsets (com multiplicador)" (quote ((om-load-boxcall (quote genfun) "OM-ROUND" (quote om-round) (quote ((om-load-inputfun (quote input-funbox) "number or list" "N" 1))) (om-make-point 256 265) nil nil nil nil 1) (om-load-boxout "output" 0 (om-make-point 164 401) (quote ((om-load-inputfun (quote input-funbox) "" "out" nil))) nil nil) (om-load-boxin "Lista_de_possiveis_coeficientes_para_os_onsets" 2 (om-make-point 500 62) "" "Lista_de_possiveis_coeficientes_para_os_onsets" nil nil) (om-load-boxin "no_de_repeticoes_da_serie" 1 (om-make-point 250 66) "" "no_de_repeticoes_da_serie" nil nil) (om-load-boxin "serie_de_onsets" 0 (om-make-point 5 45) "" "serie_de_onsets" nil nil) (om-load-boxwithed1 (quote box-with-win) "Repetidor de serie de onsets (com multiplicador)" (quote omloop) (quote ((om-load-inputfun (quote input-funbox) "" "serie_de_onsets" nil) (om-load-inputfun (quote input-funbox) "" "coeficientes de onsets" nil))) (om-make-point 338 214) nil nil nil (list (om-load-boxcall (quote genfun) "PERMUT-RANDOM 2" (quote permut-random) (quote ((om-load-inputfun (quote input-funbox) "a list" "LIST" nil))) (om-make-point 504 106) nil nil "&" nil 1) (om-load-boxcall (quote genfun) "FLAT" (quote flat) (quote ((om-load-inputfun (quote input-funbox) "a list" "LST" nil))) (om-make-point 335 509) nil nil nil nil 1) (om-load-boxcall (quote lispfun) "THIRD" (quote third) (quote ((om-load-inputfun (quote input-funbox) "LIST" "LIST" nil))) (om-make-point 589 184) nil nil nil nil 1) (om-load-boxcall (quote lispfun) "SECOND" (quote second) (quote ((om-load-inputfun (quote input-funbox) "LIST" "LIST" nil))) (om-make-point 424 185) nil nil nil nil 1) (om-load-boxcall (quote genfun) "OM* 3" (quote om*) (quote ((om-load-inputfun (quote input-funbox) "number or list" "ARG1" 0) (om-load-inputfun (quote input-funbox) "number or list" "ARG2" 0))) (om-make-point 566 246) nil nil nil nil 1) (om-load-boxcall (quote genfun) "OM* 2" (quote om*) (quote ((om-load-inputfun (quote input-funbox) "number or list" "ARG1" 0) (om-load-inputfun (quote input-funbox) "number or list" "ARG2" 0))) (om-make-point 413 246) nil nil nil nil 1) (om-load-boxin "coeficientes de onsets" 1 (om-make-point 469 23) "" "coeficientes de onsets" nil nil) (om-load-boxcall (quote lispfun) "FIRST 2" (quote first) (quote ((om-load-inputfun (quote input-funbox) "LIST" "LIST" nil))) (om-make-point 337 158) nil nil nil nil 1) (om-load-boxcall (quote genfun) "OM*" (quote om*) (quote ((om-load-inputfun (quote input-funbox) "number or list" "ARG1" 0) (om-load-inputfun (quote input-funbox) "number or list" "ARG2" 0))) (om-make-point 347 231) nil nil nil nil 1) (om-load-boxcall (quote lispfun) "FIRST" (quote first) (quote ((om-load-inputfun (quote input-funbox) "LIST" "LIST" nil))) (om-make-point 409 416) nil nil nil nil 1) (om-load-boxcall (quote genfun) "PERMUT-RANDOM" (quote permut-random) (quote ((om-load-inputfun (quote input-funbox) "a list" "LIST" nil))) (om-make-point 385 346) nil nil nil nil 1) (om-load-boxcall (quote genfun) "collect" (quote listing) (quote ((om-load-inputfun (quote input-funbox) "anything" "DATA" nil))) (om-make-point 299 434) nil nil nil nil 3) (om-load-boxcall (quote lispfun) "LIST" (quote list) (quote ((om-load-inputfun (quote input-funbox) "add-input" "add-input" nil) (om-load-inputfun (quote input-funbox) "add-input" "add-input" nil) (om-load-inputfun (quote input-funbox) "add-input" "add-input" nil) (om-load-inputfun (quote input-funbox) "add-input" "add-input" nil))) (om-make-point 264 295) (om-make-point 207 43) nil nil nil 1) (om-load-boxcall (quote genfun) "inlist" (quote listloop) (quote ((om-load-inputfun (quote input-funbox) "list to iterate" "LIST" nil))) (om-make-point 190 153) nil nil nil nil 1) (om-load-boxin "serie_de_onsets" 0 (om-make-point 155 46) "" "serie_de_onsets" nil nil) (om-load-seqbox "finally" (quote finaldo) (quote ((om-load-inputfun (quote input-funbox) "value to return" "VAL" nil))) (om-make-point 355 586) nil nil nil 0) (om-load-seqbox "eachTime" (quote loopdo) (quote ((om-load-inputfun (quote input-funbox) "operations to do" "OP" nil))) (om-make-point 255 586) nil nil nil 0)) (quote ((6 0 0 0 nil 0) (11 1 1 0 nil 0) (0 0 2 0 nil 0) (0 0 3 0 nil 0) (13 0 4 0 nil 0) (2 0 4 1 nil 0) (13 0 5 0 nil 0) (3 0 5 1 nil 0) (0 0 7 0 nil 0) (13 0 8 0 nil 0) (7 0 8 1 nil 0) (10 0 9 0 nil 0) (12 0 10 0 nil 0) (9 0 11 0 nil 0) (13 0 12 0 nil 0) (8 0 12 1 nil 0) (5 0 12 2 nil 0) (4 0 12 3 nil 0) (14 0 13 0 nil 0) (1 0 15 0 nil 0) (11 0 16 0 nil 0))) 1 "repetidor de serie de onsets (com multiplicador)" nil) (om-load-boxcall (quote genfun) "REPEAT-N" (quote repeat-n) (quote ((om-load-inputfun (quote input-funbox) "something" "SELF" nil) (om-load-inputfun (quote input-funbox) "times" "N" 0))) (om-make-point 220 172) nil nil nil nil 1) (om-load-boxcall (quote genfun) "DX->X" (quote dx->x) (quote ((om-load-inputfun (quote input-funbox) "a number" "START" 0) (om-load-inputfun (quote input-funbox) "a list of numbers" "LIST" (list 1 1)))) (om-make-point 108 297) nil nil nil nil 1) (om-load-boxcall (quote genfun) "X->DX" (quote x->dx) (quote ((om-load-inputfun (quote input-funbox) "a list of numbers" "SELF" 0))) (om-make-point 116 145) nil nil nil nil 1))) (quote ((5 0 0 0 nil 0) (7 0 1 0 nil 0) (6 0 5 0 nil 0) (2 0 5 1 nil 0) (8 0 6 0 nil 0) (3 0 6 1 nil 0) (0 0 7 1 nil 0) (4 0 8 0 nil 0))) 6.0602 nil "" (om-make-point 200 200) (om-make-point 796 510)) (quote ((om-load-inputfun (quote input-funbox) "" "serie_de_onsets" nil) (om-load-inputfun (quote input-funbox) "" "no_de_repeticoes_da_serie" nil) (om-load-inputfun (quote input-funbox) "" "Lista de possiveis coeficientes para os onsets" nil))) (om-make-point 165 350) nil (list (list 0 558 608 1032 1376 2042 2252 2328 2806 2910 3228 3734 4106 4718 4902 5140 5726 5990 6282 6680 7212 7852 8304 8462 8890 9448 9498 9922 10266 10932 11142 11218 11696 11800 12118 12624 12996 13608 13792 14030 14616 14880 15172 15570 16102 16742 17194 17352 17780 18896 18996 19844 20532 21864 22284 22436 23392 23600 24236 25248 25992 27216 27584 28060 29232 29760 30344 31140 32204 33484 34388 34704 35560 35839 35864 36076 36248 36581 36686 36724 36963 37015 37174 37427 37613 37919 38011 38130 38423 38555 38701 38900 39166 39486 39712 39791 40005 40284 40309 40521 40693 41026 41131 41169 41408 41460 41619 41872 42058 42364 42456 42575 42868 43000 43146 43345 43611 43931 44157 44236 44450 44729 44754 44966 45138 45471 45576 45614 45853 45905 46064 46317 46503 46809 46901 47020 47313 47445 47591 47790 48056 48376 48602 48681 48895 50569 50719 51991 53023 55021 55651 55879 57313 57625 58579 60097 61213 63049 63601 64315 66073 66865 67741 68935 70531 72451 73807 74281 75565)) nil "Repetidor de serie de onsets (com multiplicador)") (om-load-boxcomment "comment" (om-make-point 245 61) (quote "<= Lista com possíveis coeficientes para os onsets, durs e dyns das ocorrências da série") "" (om-make-point 924 251) nil (om-make-color 0 0 0) (om-make-font "Verdana" 12 :family "Verdana" :style (quote (:plain)) :mode (quote nil))) (om-load-boxcall (quote bastype) "list 4" (quote list) (quote nil) (om-make-point 834 255) (om-make-point 92 30) (list 2 3 4 5 6 7) "(2 3 4 5 6 7)" nil) (om-load-boxcomment "comment 3" (om-make-point 203 59) (quote "<= no. de repetições da série") "" (om-make-point 701 194) nil (om-make-color 0 0 0) (om-make-font "Verdana" 12 :family "Verdana" :style (quote (:plain)) :mode (quote nil))) (om-load-boxcall (quote bastype) "list 3" (quote list) (quote nil) (om-make-point 671 198) (om-make-point 27 30) 7 "7" nil) (om-load-boxcall (quote abstraction) "Repetidor de serie de alturas (com oitavador)" (om-load-patch-abs1 "Repetidor de serie de alturas (com oitavador)" (quote ((om-load-boxout "output" 0 (om-make-point 266 298) (quote ((om-load-inputfun (quote input-funbox) "" "out" nil))) nil nil) (om-load-boxin "numero_de_repeticoes" 1 (om-make-point 143 47) "" "numero_de_repeticoes" nil nil) (om-load-boxin "serie" 0 (om-make-point 48 44) "" "serie" nil nil) (om-load-boxwithed1 (quote box-with-win) "oitavador" (quote omloop) (quote ((om-load-inputfun (quote input-funbox) "" "input" nil))) (om-make-point 257 160) nil nil nil (list (om-load-boxcall (quote bastype) "list 4" (quote list) (quote nil) (om-make-point 469 140) (om-make-point 48 30) 3600 "3600" nil) (om-load-boxcall (quote genfun) "OM+ 3" (quote om+) (quote ((om-load-inputfun (quote input-funbox) "number or list" "ARG1" 0) (om-load-inputfun (quote input-funbox) "number or list" "ARG2" 0))) (om-make-point 439 191) (om-make-point 16 35) nil nil nil 1) (om-load-boxcall (quote genfun) "OM- 3" (quote om-) (quote ((om-load-inputfun (quote input-funbox) "number or list" "ARG1" 0) (om-load-inputfun (quote input-funbox) "number or list" "ARG2" 0))) (om-make-point 480 219) nil nil nil nil 1) (om-load-boxcall (quote genfun) "OM+ 2" (quote om+) (quote ((om-load-inputfun (quote input-funbox) "number or list" "ARG1" 0) (om-load-inputfun (quote input-funbox) "number or list" "ARG2" 0))) (om-make-point 343 197) (om-make-point 16 35) nil nil nil 1) (om-load-boxcall (quote bastype) "list 3" (quote list) (quote nil) (om-make-point 373 146) (om-make-point 48 30) 2400 "2400" nil) (om-load-boxcall (quote genfun) "OM- 2" (quote om-) (quote ((om-load-inputfun (quote input-funbox) "number or list" "ARG1" 0) (om-load-inputfun (quote input-funbox) "number or list" "ARG2" 0))) (om-make-point 384 225) nil nil nil nil 1) (om-load-boxcall (quote lispfun) "FIRST" (quote first) (quote ((om-load-inputfun (quote input-funbox) "LIST" "LIST" nil))) (om-make-point 267 442) nil nil nil nil 1) (om-load-boxcall (quote genfun) "PERMUT-RANDOM" (quote permut-random) (quote ((om-load-inputfun (quote input-funbox) "a list" "LIST" nil))) (om-make-point 228 360) nil nil nil nil 1) (om-load-boxcall (quote genfun) "OM-" (quote om-) (quote ((om-load-inputfun (quote input-funbox) "number or list" "ARG1" 0) (om-load-inputfun (quote input-funbox) "number or list" "ARG2" 0))) (om-make-point 290 218) nil nil nil nil 1) (om-load-boxcall (quote bastype) "list 2" (quote list) (quote nil) (om-make-point 279 139) (om-make-point 48 30) 1200 "1200" nil) (om-load-boxcall (quote genfun) "OM+" (quote om+) (quote ((om-load-inputfun (quote input-funbox) "number or list" "ARG1" 0) (om-load-inputfun (quote input-funbox) "number or list" "ARG2" 0))) (om-make-point 249 190) (om-make-point 16 35) nil nil nil 1) (om-load-boxcall (quote lispfun) "LIST" (quote list) (quote ((om-load-inputfun (quote input-funbox) "add-input" "add-input" nil) (om-load-inputfun (quote input-funbox) "add-input" "add-input" nil) (om-load-inputfun (quote input-funbox) "add-input" "add-input" nil) (om-load-inputfun (quote input-funbox) "add-input" "add-input" nil) (om-load-inputfun (quote input-funbox) "add-input" "add-input" nil) (om-load-inputfun (quote input-funbox) "add-input" "add-input" nil) (om-load-inputfun (quote input-funbox) "add-input" "add-input" nil))) (om-make-point 179 287) (om-make-point 338 43) nil nil nil 1) (om-load-boxcall (quote genfun) "collect" (quote listing) (quote ((om-load-inputfun (quote input-funbox) "anything" "DATA" nil))) (om-make-point 207 520) nil nil nil nil 3) (om-load-boxcall (quote genfun) "inlist" (quote listloop) (quote ((om-load-inputfun (quote input-funbox) "list to iterate" "LIST" nil))) (om-make-point 155 95) nil nil nil nil 1) (om-load-boxin "input" 0 (om-make-point 5 45) "" nil nil nil) (om-load-seqbox "finally" (quote finaldo) (quote ((om-load-inputfun (quote input-funbox) "value to return" "VAL" nil))) (om-make-point 282 606) nil nil nil 0) (om-load-seqbox "eachTime" (quote loopdo) (quote ((om-load-inputfun (quote input-funbox) "operations to do" "OP" nil))) (om-make-point 182 606) nil nil nil 0)) (quote ((13 0 1 0 nil 0) (0 0 1 1 nil 1) (13 0 2 0 nil 0) (0 0 2 1 nil 1) (13 0 3 0 nil 0) (4 0 3 1 nil 1) (13 0 5 0 nil 0) (4 0 5 1 nil 1) (7 0 6 0 nil 0) (11 0 7 0 nil 0) (13 0 8 0 nil 0) (9 0 8 1 nil 1) (13 0 10 0 nil 0) (9 0 10 1 nil 1) (13 0 11 0 nil 0) (10 0 11 1 nil 0) (8 0 11 2 nil 0) (3 0 11 3 nil 0) (5 0 11 4 nil 0) (1 0 11 5 nil 0) (2 0 11 6 nil 0) (6 0 12 0 nil 0) (14 0 13 0 nil 0) (12 1 15 0 nil 0) (12 0 16 0 nil 0))) 1 "oitavador" nil) (om-load-boxcall (quote genfun) "FLAT" (quote flat) (quote ((om-load-inputfun (quote input-funbox) "a list" "LST" nil))) (om-make-point 168 187) nil nil nil nil 1) (om-load-boxcall (quote genfun) "REPEAT-N" (quote repeat-n) (quote ((om-load-inputfun (quote input-funbox) "something" "SELF" nil) (om-load-inputfun (quote input-funbox) "times" "N" 0))) (om-make-point 82 144) nil nil nil nil 1))) (quote ((3 0 0 0 nil 0) (4 0 3 0 nil 0) (5 0 4 0 nil 0) (2 0 5 0 nil 0) (1 0 5 1 nil 0))) 6.0602 nil "" (om-make-point 200 200) (om-make-point 400 500)) (quote ((om-load-inputfun (quote input-funbox) "" "serie" nil) (om-load-inputfun (quote input-funbox) "" "numero_de_repeticoes" nil))) (om-make-point 15 322) nil (list (list 9300 2700 6100 9450 10000 6050 3750 5400 6750 3500 10250 9100 10550 10400 7750 8650 8850 4750 5150 2900 6850 4600 8400 8600 5700 8700 7300 9450 6400 4850 7350 9000 5550 9500 3050 4300 9350 5600 5350 8650 8850 10750 6350 10100 9250 5800 3600 8600 9300 2700 8500 3450 4000 7250 8550 4200 3150 7100 10250 9100 4550 6800 8950 3850 8850 8350 3950 2900 6850 7000 6000 6200 9300 6300 3700 3450 10000 3650 2550 10200 9150 9500 3050 7900 8150 4400 2950 2650 2850 4750 3950 10100 3250 8200 7200 5000 10500 2700 7300 3450 2800 2450 6150 6600 4350 10700 3050 7900 8150 8000 10150 6250 5250 3550 6350 2900 3250 7000 6000 6200 8100 3900 9700 3450 10000 6050 2550 6600 10350 4700 5450 7900 3350 9200 6550 7450 2850 10750 6350 7700 3250 10600 2400 2600 3300 5100 4900 8250 5200 4850 2550 3000 3150 4700 3050 9100 9350 10400 10150 7450 5250 5950 9950 8900 6850 10600 8400 6200)) nil "Repetidor de serie de alturas (com oitavador)") (om-load-editor-box1 "CHORD-SEQ 2" (quote chord-seq) (quote ((om-load-inputfun (quote input-funbox) "object" "self" nil) (om-load-inputfun (quote input-funbox) "pitches (mc): list or list of lists" "lmidic" (list 6000)) (om-load-inputfun (quote input-funbox) "onsets (ms): list" "lonset" (list 0 1000)) (om-load-inputfun (quote input-funbox) "durations (ms): list or list of lists" "ldur" (list 1000)) (om-load-inputfun (quote input-funbox) "velocities (0-127): list or list of lists" "lvel" (list 100)) (om-load-inputfun (quote input-funbox) "offsets (ms): list or list of lists" "loffset" (list 0)) (om-load-inputfun (quote input-funbox) "MIDI channels (1-16): list or list of lists" "lchan" (list 1)) (om-load-inputfun (quote input-funbox) "relative chords duration (0-100)" "legato" 0))) (om-make-point 20 472) (om-make-point 1164 184) (let ((newobj (when (find-class (quote chord-seq) nil) (make-instance (quote chord-seq) :lmidic (quote ((9300) (2700) (6100) (9450) (10000) (6050) (3750) (5400) (6750) (3500) (10250) (9100) (10550) (10400) (7750) (8650) (8850) (4750) (5150) (2900) (6850) (4600) (8400) (8600) (5700) (8700) (7300) (9450) (6400) (4850) (7350) (9000) (5550) (9500) (3050) (4300) (9350) (5600) (5350) (8650) (8850) (10750) (6350) (10100) (9250) (5800) (3600) (8600) (9300) (2700) (8500) (3450) (4000) (7250) (8550) (4200) (3150) (7100) (10250) (9100) (4550) (6800) (8950) (3850) (8850) (8350) (3950) (2900) (6850) (7000) (6000) (6200) (9300) (6300) (3700) (3450) (10000) (3650) (2550) (10200) (9150) (9500) (3050) (7900) (8150) (4400) (2950) (2650) (2850) (4750) (3950) (10100) (3250) (8200) (7200) (5000) (10500) (2700) (7300) (3450) (2800) (2450) (6150) (6600) (4350) (10700) (3050) (7900) (8150) (8000) (10150) (6250) (5250) (3550) (6350) (2900) (3250) (7000) (6000) (6200) (8100) (3900) (9700) (3450) (10000) (6050) (2550) (6600) (10350) (4700) (5450) (7900) (3350) (9200) (6550) (7450) (2850) (10750) (6350) (7700) (3250) (10600) (2400) (2600) (3300) (5100) (4900) (8250) (5200) (4850) (2550) (3000) (3150) (4700) (3050) (9100) (9350) (10400) (10150) (7450) (5250) (5950) (9950) (8900) (6850) (10600) (8400) (6200))) :lonset (quote (0 558 608 1032 1376 2042 2252 2328 2806 2910 3228 3734 4106 4718 4902 5140 5726 5990 6282 6680 7212 7852 8304 8462 8890 9448 9498 9922 10266 10932 11142 11218 11696 11800 12118 12624 12996 13608 13792 14030 14616 14880 15172 15570 16102 16742 17194 17352 17780 18896 18996 19844 20532 21864 22284 22436 23392 23600 24236 25248 25992 27216 27584 28060 29232 29760 30344 31140 32204 33484 34388 34704 35560 35839 35864 36076 36248 36581 36686 36724 36963 37015 37174 37427 37613 37919 38011 38130 38423 38555 38701 38900 39166 39486 39712 39791 40005 40284 40309 40521 40693 41026 41131 41169 41408 41460 41619 41872 42058 42364 42456 42575 42868 43000 43146 43345 43611 43931 44157 44236 44450 44729 44754 44966 45138 45471 45576 45614 45853 45905 46064 46317 46503 46809 46901 47020 47313 47445 47591 47790 48056 48376 48602 48681 48895 50569 50719 51991 53023 55021 55651 55879 57313 57625 58579 60097 61213 63049 63601 64315 66073 66865 67741 68935 70531 72451 73807 74281 75858)) :ldur (quote ((100) (1012) (1332) (956) (420) (316) (848) (528) (476) (260) (1224) (208) (636) (584) (904) (1116) (1280) (152) (688) (368) (1064) (796) (1172) (744) (25) (253) (333) (239) (105) (79) (212) (132) (119) (65) (306) (52) (159) (146) (226) (279) (320) (38) (172) (92) (266) (199) (293) (186) (175) (1771) (2331) (1673) (735) (553) (1484) (924) (833) (455) (2142) (364) (1113) (1022) (1582) (1953) (2240) (266) (1204) (644) (1862) (1393) (2051) (1302) (25) (253) (333) (239) (105) (79) (212) (132) (119) (65) (306) (52) (159) (146) (226) (279) (320) (38) (172) (92) (266) (199) (293) (186) (175) (1771) (2331) (1673) (735) (553) (1484) (924) (833) (455) (2142) (364) (1113) (1022) (1582) (1953) (2240) (266) (1204) (644) (1862) (1393) (2051) (1302) (175) (1771) (2331) (1673) (735) (553) (1484) (924) (833) (455) (2142) (364) (1113) (1022) (1582) (1953) (2240) (266) (1204) (644) (1862) (1393) (2051) (1302) (175) (1771) (2331) (1673) (735) (553) (1484) (924) (833) (455) (2142) (364) (1113) (1022) (1582) (1953) (2240) (266) (1204) (644) (1862) (1393) (2051) (1302))) :lvel (quote ((62) (52) (51) (49) (45) (76) (47) (54) (71) (69) (67) (56) (72) (65) (59) (74) (63) (42) (38) (43) (58) (40) (78) (36) (38) (34) (34) (33) (31) (44) (32) (35) (42) (41) (40) (36) (42) (39) (37) (43) (39) (30) (28) (31) (36) (29) (44) (28) (62) (52) (51) (49) (45) (76) (47) (54) (71) (69) (67) (56) (72) (65) (59) (74) (63) (42) (38) (43) (58) (40) (78) (36) (77) (64) (62) (60) (54) (98) (57) (67) (90) (88) (84) (70) (92) (82) (74) (95) (80) (49) (44) (52) (72) (47) (100) (42) (30) (28) (28) (28) (27) (33) (27) (29) (32) (32) (31) (29) (32) (31) (30) (33) (30) (26) (25) (26) (29) (26) (33) (25) (38) (34) (34) (33) (31) (44) (32) (35) (42) (41) (40) (36) (42) (39) (37) (43) (39) (30) (28) (31) (36) (29) (44) (28) (54) (46) (45) (44) (40) (65) (42) (48) (61) (60) (58) (49) (62) (56) (52) (64) (55) (38) (35) (39) (51) (36) (67) (33))) :loffset (quote ((0) (0) (0) (0) (0) (0) (0) (0) (0) (0) (0) (0) (0) (0) (0) (0) (0) (0) (0) (0) (0) (0) (0) (0) (0) (0) (0) (0) (0) (0) (0) (0) (0) (0) (0) (0) (0) (0) (0) (0) (0) (0) (0) (0) (0) (0) (0) (0) (0) (0) (0) (0) (0) (0) (0) (0) (0) (0) (0) (0) (0) (0) (0) (0) (0) (0) (0) (0) (0) (0) (0) (0) (0) (0) (0) (0) (0) (0) (0) (0) (0) (0) (0) (0) (0) (0) (0) (0) (0) (0) (0) (0) (0) (0) (0) (0) (0) (0) (0) (0) (0) (0) (0) (0) (0) (0) (0) (0) (0) (0) (0) (0) (0) (0) (0) (0) (0) (0) (0) (0) (0) (0) (0) (0) (0) (0) (0) (0) (0) (0) (0) (0) (0) (0) (0) (0) (0) (0) (0) (0) (0) (0) (0) (0) (0) (0) (0) (0) (0) (0) (0) (0) (0) (0) (0) (0) (0) (0) (0) (0) (0) (0) (0) (0) (0) (0) (0) (0))) :lchan (quote ((1) (1) (1) (1) (1) (1) (1) (1) (1) (1) (1) (1) (1) (1) (1) (1) (1) (1) (1) (1) (1) (1) (1) (1) (1) (1) (1) (1) (1) (1) (1) (1) (1) (1) (1) (1) (1) (1) (1) (1) (1) (1) (1) (1) (1) (1) (1) (1) (1) (1) (1) (1) (1) (1) (1) (1) (1) (1) (1) (1) (1) (1) (1) (1) (1) (1) (1) (1) (1) (1) (1) (1) (1) (1) (1) (1) (1) (1) (1) (1) (1) (1) (1) (1) (1) (1) (1) (1) (1) (1) (1) (1) (1) (1) (1) (1) (1) (1) (1) (1) (1) (1) (1) (1) (1) (1) (1) (1) (1) (1) (1) (1) (1) (1) (1) (1) (1) (1) (1) (1) (1) (1) (1) (1) (1) (1) (1) (1) (1) (1) (1) (1) (1) (1) (1) (1) (1) (1) (1) (1) (1) (1) (1) (1) (1) (1) (1) (1) (1) (1) (1) (1) (1) (1) (1) (1) (1) (1) (1) (1) (1) (1) (1) (1) (1) (1) (1) (1))) :legato 0)))) (load-port-info newobj (quote ((0) (0) (0) (0) (0) (0) (0) (0) (0) (0) (0) (0) (0) (0) (0) (0) (0) (0) (0) (0) (0) (0) (0) (0) (0) (0) (0) (0) (0) (0) (0) (0) (0) (0) (0) (0) (0) (0) (0) (0) (0) (0) (0) (0) (0) (0) (0) (0) (0) (0) (0) (0) (0) (0) (0) (0) (0) (0) (0) (0) (0) (0) (0) (0) (0) (0) (0) (0) (0) (0) (0) (0) (0) (0) (0) (0) (0) (0) (0) (0) (0) (0) (0) (0) (0) (0) (0) (0) (0) (0) (0) (0) (0) (0) (0) (0) (0) (0) (0) (0) (0) (0) (0) (0) (0) (0) (0) (0) (0) (0) (0) (0) (0) (0) (0) (0) (0) (0) (0) (0) (0) (0) (0) (0) (0) (0) (0) (0) (0) (0) (0) (0) (0) (0) (0) (0) (0) (0) (0) (0) (0) (0) (0) (0) (0) (0) (0) (0) (0) (0) (0) (0) (0) (0) (0) (0) (0) (0) (0) (0) (0) (0) (0) (0) (0) (0) (0) (0)))) (init-mus-color newobj (quote nil)) (set-extra-pairs newobj (quote nil)) (set-patch-pairs newobj (quote nil)) (set-name newobj nil) (set-tonalite newobj nil) newobj) nil nil (pairlis (quote (approx fontsize staff cmnpref deltapict outport inport player zoom notechancolor? grillestep mode winsize winpos score-mode obj-mode show-stems scale palette-mode)) (list 8 36 (quote ggff) (let ((newobj (make-instance (quote edition-values)))) (setf (paper-size newobj) (om-make-point 600 800)) (setf (top-margin newobj) 2) (setf (left-margin newobj) 1) (setf (right-margin newobj) 1) (setf (bottom-margin newobj) 1) (setf (orientation newobj) nil) (setf (scale newobj) nil) (setf (system-space newobj) (quote (1))) (setf (system-color newobj) (quote nil)) (setf (line-space newobj) 1) (setf (title newobj) nil) (setf (show-title? newobj) nil) (setf (show-page? newobj) nil) (setf (sheet-id newobj) nil) (setf (page-mode newobj) nil) newobj) (om-make-point 0 0) nil 0 (quote :midishare) 127/100 nil 250 0 (om-make-point 1024 324) (om-make-point 0 223) 0 1 (quote t) nil 0)) t nil nil nil) (om-load-boxcall (quote bastype) "list 2" (quote list) (quote nil) (om-make-point 539 31) (om-make-point 28 30) 25 "25" nil) (om-load-boxcall (quote bastype) "list" (quote list) (quote nil) (om-make-point 572 30) (om-make-point 41 30) 100 "100" nil) (om-load-boxcomment "comment 2" (om-make-point 100 60) (quote "<= dyns mín. e máx.") "" (om-make-point 611 29) nil (om-make-color 0 0 0) (om-make-font "Verdana" 12 :family "Verdana" :style (quote (:plain)) :mode (quote nil))) (om-load-boxcomment "comment" (om-make-point 100 60) (quote "<= onsets e durs mín. e máx.") "" (om-make-point 325 2) nil (om-make-color 0 0 0) (om-make-font "Verdana" 12 :family "Verdana" :style (quote (:plain)) :mode (quote nil))) (om-load-boxcall (quote abstraction) "Series ALEA - de 1/2 a 1/8 de tom " (om-load-patch-abs1 "Series ALEA - de 1/2 a 1/8 de tom " (quote ((om-load-boxcall (quote genfun) "PERMUT-RANDOM 2" (quote permut-random) (quote ((om-load-inputfun (quote input-funbox) "a list" "LIST" nil))) (om-make-point 717 446) nil nil nil nil 1) (om-load-boxin "input 4" 3 (om-make-point 794 244) "" nil nil nil) (om-load-boxin "input 3" 2 (om-make-point 744 244) "" nil nil nil) (om-load-boxcall (quote genfun) "OM-SCALE 2" (quote om-scale) (quote ((om-load-inputfun (quote input-funbox) "number or list" "SELF" 1) (om-load-inputfun (quote input-funbox) "a number" "MINOUT" 0) (om-load-inputfun (quote input-funbox) "a number" "MAXOUT" 0))) (om-make-point 746 375) nil nil nil nil 1) (om-load-boxout "output 4" 3 (om-make-point 778 512) (quote ((om-load-inputfun (quote input-funbox) "" "out" nil))) nil nil) (om-load-boxcall (quote lispfun) "SECOND" (quote second) (quote ((om-load-inputfun (quote input-funbox) "LIST" "LIST" nil))) (om-make-point 590 513) nil nil nil nil 1) (om-load-boxcall (quote lispfun) "FIRST" (quote first) (quote ((om-load-inputfun (quote input-funbox) "LIST" "LIST" nil))) (om-make-point 286 522) nil nil nil nil 1) (om-load-boxcall (quote genfun) "PERMUT-RANDOM" (quote permut-random) (quote ((om-load-inputfun (quote input-funbox) "a list" "LIST" nil))) (om-make-point 434 514) nil nil "&" nil 1) (om-load-boxcall (quote lispfun) "LIST 2" (quote list) (quote ((om-load-inputfun (quote input-funbox) "add-input" "add-input" nil) (om-load-inputfun (quote input-funbox) "add-input" "add-input" nil))) (om-make-point 393 458) (om-make-point 113 43) nil nil nil 1) (om-load-boxcall (quote lispfun) "REVERSE" (quote reverse) (quote ((om-load-inputfun (quote input-funbox) "SEQUENCE" "SEQUENCE" nil))) (om-make-point 485 411) nil nil nil nil 1) (om-load-boxin "onsetdurmax." 1 (om-make-point 571 219) "" "onsetdurmax." nil nil) (om-load-boxin "onsetdurmin." 0 (om-make-point 481 220) "" "onsetdurmin." nil nil) (om-load-boxout "output 3" 2 (om-make-point 680 533) (quote ((om-load-inputfun (quote input-funbox) "" "out" nil))) nil nil) (om-load-boxout "output 2" 1 (om-make-point 122 532) (quote ((om-load-inputfun (quote input-funbox) "" "out" nil))) nil nil) (om-load-boxout "output" 0 (om-make-point 47 422) (quote ((om-load-inputfun (quote input-funbox) "" "out" nil))) nil nil) (om-load-boxcall (quote genfun) "FLAT" (quote flat) (quote ((om-load-inputfun (quote input-funbox) "a list" "LST" nil))) (om-make-point 333 231) nil nil nil nil 1) (om-load-boxcall (quote genfun) "OM+" (quote om+) (quote ((om-load-inputfun (quote input-funbox) "number or list" "ARG1" 0) (om-load-inputfun (quote input-funbox) "number or list" "ARG2" 0))) (om-make-point 242 327) nil nil nil nil 1) (om-load-boxcall (quote bastype) "list 5" (quote list) (quote nil) (om-make-point 274 280) (om-make-point 42 30) 6000 "6000" nil) (om-load-boxcall (quote genfun) "OM* 2" (quote om*) (quote ((om-load-inputfun (quote input-funbox) "number or list" "ARG1" 0) (om-load-inputfun (quote input-funbox) "number or list" "ARG2" 0))) (om-make-point 409 292) nil nil nil nil 1) (om-load-boxcall (quote bastype) "list 4" (quote list) (quote nil) (om-make-point 658 24) (om-make-point 28 30) 50 "50" nil) (om-load-boxwithed1 (quote box-with-win) "OMLOOP" (quote omloop) (quote ((om-load-inputfun (quote input-funbox) "" "input" nil))) (om-make-point 332 169) nil nil nil (list (om-load-boxcall (quote genfun) "REMOVE-DUP" (quote remove-dup) (quote ((om-load-inputfun (quote input-funbox) "list" "LIST" (list 1 2 3 4)) (om-load-inputfun (quote input-funbox) "equality test (function or function name)" "TEST" (quote eq)) (om-load-inputfun (quote input-funbox) "an integer" "DEPTH" 1))) (om-make-point 456 316) nil nil nil nil 1) (om-load-boxcall (quote genfun) "FLAT" (quote flat) (quote ((om-load-inputfun (quote input-funbox) "a list" "LST" nil))) (om-make-point 405 300) nil nil nil nil 1) (om-load-boxcall (quote genfun) "PERMUT-RANDOM" (quote permut-random) (quote ((om-load-inputfun (quote input-funbox) "a list" "LIST" nil))) (om-make-point 225 92) nil nil nil nil 1) (om-load-boxin "input" 0 (om-make-point 213 35) "" nil nil nil) (om-load-boxcall (quote genfun) "collect" (quote listing) (quote ((om-load-inputfun (quote input-funbox) "anything" "DATA" nil))) (om-make-point 402 163) nil nil nil nil 3) (om-load-boxcall (quote genfun) "inlist" (quote listloop) (quote ((om-load-inputfun (quote input-funbox) "list to iterate" "LIST" nil))) (om-make-point 133 127) nil nil nil nil 1) (om-load-seqbox "finally" (quote finaldo) (quote ((om-load-inputfun (quote input-funbox) "value to return" "VAL" nil))) (om-make-point 383 410) nil nil nil 0) (om-load-seqbox "eachTime" (quote loopdo) (quote ((om-load-inputfun (quote input-funbox) "operations to do" "OP" nil) (om-load-inputfun (quote input-funbox) "other oprations" "MORE" nil))) (om-make-point 126 319) nil nil nil 0)) (quote ((1 0 0 0 nil 0) (4 1 1 0 nil 0) (3 0 2 0 nil 0) (2 0 4 0 nil 0) (3 0 5 0 ((om-make-point 229 92) (om-make-point 203 99) (om-make-point 157 110) (om-make-point 157 127)) 0) (0 0 6 0 nil 0) (5 0 7 0 nil 0) (4 0 7 1 nil 0))) 1 "omloop 4" nil) (om-load-boxcall (quote genfun) "OM-SCALE" (quote om-scale) (quote ((om-load-inputfun (quote input-funbox) "number or list" "SELF" 1) (om-load-inputfun (quote input-funbox) "a number" "MINOUT" 0) (om-load-inputfun (quote input-funbox) "a number" "MAXOUT" 0))) (om-make-point 521 330) nil nil nil nil 1) (om-load-boxcall (quote genfun) "OM-ROUND 2" (quote om-round) (quote ((om-load-inputfun (quote input-funbox) "number or list" "N" 1))) (om-make-point 454 335) nil nil nil nil 1) (om-load-boxcall (quote genfun) "DX->X" (quote dx->x) (quote ((om-load-inputfun (quote input-funbox) "a number" "START" 0) (om-load-inputfun (quote input-funbox) "a list of numbers" "LIST" (list 1 1)))) (om-make-point 186 466) nil nil nil nil 1) (om-load-boxcall (quote abstraction) "fazedor de series em até 1/8 de tom" (om-load-patch-abs1 "fazedor de series em até 1/8 de tom" (quote ((om-load-boxcall (quote bastype) "list 11" (quote list) (quote nil) (om-make-point 515 257) (om-make-point 27 30) 3 "3" nil) (om-load-boxcall (quote genfun) "OM+ 2" (quote om+) (quote ((om-load-inputfun (quote input-funbox) "number or list" "ARG1" 0) (om-load-inputfun (quote input-funbox) "number or list" "ARG2" 0))) (om-make-point 490 292) nil nil nil nil 1) (om-load-boxcall (quote bastype) "list 9" (quote list) (quote nil) (om-make-point 429 174) (om-make-point 27 30) 1 "1" nil) (om-load-boxcall (quote genfun) "OM+" (quote om+) (quote ((om-load-inputfun (quote input-funbox) "number or list" "ARG1" 0) (om-load-inputfun (quote input-funbox) "number or list" "ARG2" 0))) (om-make-point 400 190) nil nil nil nil 1) (om-load-boxout "output" 0 (om-make-point 73 460) (quote ((om-load-inputfun (quote input-funbox) "" "out" nil))) nil nil) (om-load-boxcall (quote genfun) "FLAT" (quote flat) (quote ((om-load-inputfun (quote input-funbox) "a list" "LST" nil))) (om-make-point 150 375) nil nil nil nil 1) (om-load-boxcall (quote bastype) "list 10" (quote list) (quote nil) (om-make-point 41 362) (om-make-point 27 30) nil "nil" nil) (om-load-boxcall (quote lispfun) "REMOVE" (quote remove) (quote ((om-load-inputfun (quote input-funbox) "ITEM" "ITEM" nil) (om-load-inputfun (quote input-funbox) "SEQUENCE" "SEQUENCE" nil))) (om-make-point 71 397) nil nil nil nil 1) (om-load-boxcall (quote bastype) "list 8" (quote list) (quote nil) (om-make-point 495 223) (om-make-point 21 30) 4 "4" nil) (om-load-boxcall (quote genfun) "OM* 2" (quote om*) (quote ((om-load-inputfun (quote input-funbox) "number or list" "ARG1" 0) (om-load-inputfun (quote input-funbox) "number or list" "ARG2" 0))) (om-make-point 462 237) nil nil nil nil 1) (om-load-boxcall (quote bastype) "list 7" (quote list) (quote nil) (om-make-point 310 338) (om-make-point 28 30) 25 "25" nil) (om-load-boxcall (quote genfun) "ARITHM-SER 3" (quote arithm-ser) (quote ((om-load-inputfun (quote input-funbox) "begin" "BEGIN" 0) (om-load-inputfun (quote input-funbox) "end " "END" 10) (om-load-inputfun (quote input-funbox) "step" "STEP" 1))) (om-make-point 437 347) nil nil nil nil 1) (om-load-boxcall (quote genfun) "OM= 3" (quote om=) (quote ((om-load-inputfun (quote input-funbox) "a number" "NUM1" 0) (om-load-inputfun (quote input-funbox) "a number" "NUM2" 0))) (om-make-point 367 343) nil nil nil nil 1) (om-load-boxcall (quote genfun) "OMIF 3" (quote omif) (quote ((om-load-inputfun (quote input-funbox) "IF" "TEST" nil) (om-load-inputfun (quote input-funbox) "THEN" "ACTION" nil))) (om-make-point 368 386) nil nil nil nil 1) (om-load-boxcall (quote lispfun) "LIST 6" (quote list) (quote ((om-load-inputfun (quote input-funbox) "add-input" "add-input" nil) (om-load-inputfun (quote input-funbox) "add-input" "add-input" nil) (om-load-inputfun (quote input-funbox) "add-input" "add-input" nil))) (om-make-point 83 335) (om-make-point 67 43) nil nil nil 1) (om-load-boxcall (quote bastype) "list 5" (quote list) (quote nil) (om-make-point 390 129) (om-make-point 21 30) 2 "2" nil) (om-load-boxcall (quote genfun) "OM*" (quote om*) (quote ((om-load-inputfun (quote input-funbox) "number or list" "ARG1" 0) (om-load-inputfun (quote input-funbox) "number or list" "ARG2" 0))) (om-make-point 357 143) nil nil nil nil 1) (om-load-boxcall (quote bastype) "list 4" (quote list) (quote nil) (om-make-point 209 294) (om-make-point 28 30) 50 "50" nil) (om-load-boxcall (quote genfun) "ARITHM-SER 2" (quote arithm-ser) (quote ((om-load-inputfun (quote input-funbox) "begin" "BEGIN" 0) (om-load-inputfun (quote input-funbox) "end " "END" 10) (om-load-inputfun (quote input-funbox) "step" "STEP" 1))) (om-make-point 327 272) nil nil nil nil 1) (om-load-boxcall (quote genfun) "OM= 2" (quote om=) (quote ((om-load-inputfun (quote input-funbox) "a number" "NUM1" 0) (om-load-inputfun (quote input-funbox) "a number" "NUM2" 0))) (om-make-point 257 268) nil nil nil nil 1) (om-load-boxcall (quote genfun) "OMIF 2" (quote omif) (quote ((om-load-inputfun (quote input-funbox) "IF" "TEST" nil) (om-load-inputfun (quote input-funbox) "THEN" "ACTION" nil))) (om-make-point 258 311) nil nil nil nil 1) (om-load-boxcall (quote bastype) "list 3" (quote list) (quote nil) (om-make-point 31 197) (om-make-point 35 30) 100 "100" nil) (om-load-boxcall (quote bastype) "list 2" (quote list) (quote nil) (om-make-point 162 193) (om-make-point 28 30) 11 "11" nil) (om-load-boxcall (quote bastype) "list" (quote list) (quote nil) (om-make-point 134 193) (om-make-point 21 30) 0 "0" nil) (om-load-boxcall (quote genfun) "ARITHM-SER" (quote arithm-ser) (quote ((om-load-inputfun (quote input-funbox) "begin" "BEGIN" 0) (om-load-inputfun (quote input-funbox) "end " "END" 10) (om-load-inputfun (quote input-funbox) "step" "STEP" 1))) (om-make-point 141 268) nil nil nil nil 1) (om-load-boxcall (quote genfun) "OM=" (quote om=) (quote ((om-load-inputfun (quote input-funbox) "a number" "NUM1" 0) (om-load-inputfun (quote input-funbox) "a number" "NUM2" 0))) (om-make-point 91 198) nil nil nil nil 1) (om-load-boxcall (quote genfun) "OMIF" (quote omif) (quote ((om-load-inputfun (quote input-funbox) "IF" "TEST" nil) (om-load-inputfun (quote input-funbox) "THEN" "ACTION" nil))) (om-make-point 68 245) nil nil nil nil 1) (om-load-boxin "input" 0 (om-make-point 62 34) "" nil nil nil))) (quote ((9 0 1 0 nil 0) (0 0 1 1 nil 0) (16 0 3 0 nil 0) (2 0 3 1 nil 0) (7 0 4 0 nil 0) (14 0 5 0 nil 0) (6 0 7 0 nil 0) (5 0 7 1 nil 0) (22 0 9 0 nil 0) (8 0 9 1 nil 0) (23 0 11 0 nil 0) (1 0 11 1 nil 0) (10 0 12 0 nil 0) (27 0 12 1 nil 0) (12 0 13 0 nil 0) (11 0 13 1 nil 0) (26 0 14 0 nil 0) (20 0 14 1 nil 0) (13 0 14 2 nil 0) (22 0 16 0 nil 0) (15 0 16 1 nil 0) (23 0 18 0 nil 0) (3 0 18 1 nil 0) (17 0 19 0 nil 0) (27 0 19 1 nil 0) (19 0 20 0 nil 0) (18 0 20 1 nil 0) (23 0 24 0 nil 0) (22 0 24 1 nil 0) (21 0 25 0 nil 0) (27 0 25 1 nil 0) (25 0 26 0 nil 0) (24 0 26 1 nil 0))) 6.0602 nil "" (om-make-point 200 200) (om-make-point 500 400)) (quote ((om-load-inputfun (quote input-funbox) "" "input" nil))) (om-make-point 232 100) nil (list (list 0 1 2 3 4 5 6 7 8 9 10 11 12 13 14 15 16 17 18 19 20 21 22 23)) nil "fazedor de series em até 1/8 de tom") (om-load-boxcall (quote bastype) "list" (quote list) (quote nil) (om-make-point 589 20) (om-make-point 64 30) (list 2 1 0.5) "(2 1 0.5)" nil) (om-load-boxcall (quote genfun) "OM*" (quote om*) (quote ((om-load-inputfun (quote input-funbox) "number or list" "ARG1" 0) (om-load-inputfun (quote input-funbox) "number or list" "ARG2" 0))) (om-make-point 647 129) nil nil nil nil 1) (om-load-boxcall (quote genfun) "NTH-RANDOM" (quote nth-random) (quote ((om-load-inputfun (quote input-funbox) "a list" "LIST" nil))) (om-make-point 581 56) nil nil nil nil 1) (om-load-boxcall (quote genfun) "OM-ROUND" (quote om-round) (quote ((om-load-inputfun (quote input-funbox) "number or list" "N" 1))) (om-make-point 455 66) nil nil "&" nil 1))) (quote ((3 0 0 0 nil 0) (16 0 3 0 nil 2) (2 0 3 1 nil 0) (1 0 3 2 nil 0) (0 0 4 0 nil 0) (7 0 5 0 nil 0) (7 0 6 0 nil 0) (8 0 7 0 nil 0) (22 0 8 0 nil 0) (9 0 8 1 nil 0) (22 0 9 0 nil 0) (5 0 12 0 nil 0) (23 0 13 0 nil 0) (16 0 14 0 nil 0) (20 0 15 0 nil 0) (17 0 16 0 nil 0) (18 0 16 1 nil 0) (15 0 18 0 nil 0) (28 0 18 1 nil 0) (24 0 20 0 nil 0) (16 0 21 0 nil 2) (11 0 21 1 nil 0) (10 0 21 2 nil 0) (21 0 22 0 nil 0) (6 0 23 1 nil 0) (28 0 24 0 nil 0) (27 0 26 0 nil 0) (19 0 26 1 nil 0) (25 0 27 0 nil 0) (26 0 28 0 nil 0))) 6.0602 nil "" (om-make-point 402 22) (om-make-point 878 625)) (quote ((om-load-inputfun (quote input-funbox) "" "input" nil) (om-load-inputfun (quote input-funbox) "" "input 2" nil) (om-load-inputfun (quote input-funbox) "" "input 3" nil) (om-load-inputfun (quote input-funbox) "" "input 4" nil))) (om-make-point 158 85) nil nil "&" "Series ALEA - de 1/2 a 1/8 de tom ") (om-load-boxcall (quote bastype) "list 7" (quote list) (quote nil) (om-make-point 286 3) (om-make-point 35 30) 333 "333" nil) (om-load-boxcall (quote bastype) "list 6" (quote list) (quote nil) (om-make-point 253 4) (om-make-point 28 30) 25 "25" nil) (om-load-boxcall (quote bastype) "list 5" (quote list) (quote nil) (om-make-point 1082 147) (om-make-point 59 30) (list 1 2 3 4) "(1 2 3 4)" nil) (om-load-boxcall (quote bastype) "aux31" (quote t) (quote nil) (om-make-point 1047 149) (om-make-point 27 30) 8 "8" nil) (om-load-boxcall (quote genfun) "PGMOUT" (quote pgmout) (quote ((om-load-inputfun (quote input-funbox) "program number" "PROG" 1) (om-load-inputfun (quote input-funbox) "channel" "CHANS" 1) (om-load-inputfun (quote input-funbox) "optional port" "PORT" 0))) (om-make-point 1071 182) nil nil nil nil 1) (om-load-boxcall (quote genfun) "PITCHWHEEL" (quote pitchwheel) (quote ((om-load-inputfun (quote input-funbox) "wheel value" "VALUES" 0) (om-load-inputfun (quote input-funbox) "channel" "CHANS" 1) (om-load-inputfun (quote input-funbox) "optional port" "PORT" 0))) (om-make-point 1028 59) (om-make-point 126 67) nil nil nil 1) (om-load-boxcall (quote bastype) "aux3" (quote t) (quote nil) (om-make-point 952 7) (om-make-point 118 32) (list 0 1024 2048 3072) "(0 1024 2048 3072)" nil) (om-load-boxcall (quote bastype) "aux4" (quote t) (quote nil) (om-make-point 1074 9) (om-make-point 58 29) (list 1 2 3 4) "(1 2 3 4)" nil) (om-load-boxcomment "comment3" (om-make-point 132 19) (quote " if  pitchbend setup  range = 1") "" (om-make-point 1026 119) nil (om-make-color 0 0 0) (om-make-font "Helvetica" 9 :family "Helvetica" :style (quote (:plain)) :mode (quote nil))) (om-load-boxcall (quote bastype) "aux11" (quote t) (quote nil) (om-make-point 1139 8) (om-make-point 23 28) 0 "0" nil) (om-load-editor-box1 "CHORD-SEQ" (quote chord-seq) (quote ((om-load-inputfun (quote input-funbox) "object" "self" nil) (om-load-inputfun (quote input-funbox) "pitches (mc): list or list of lists" "lmidic" (list 6000)) (om-load-inputfun (quote input-funbox) "onsets (ms): list" "lonset" (list 0 1000)) (om-load-inputfun (quote input-funbox) "durations (ms): list or list of lists" "ldur" (list 1000)) (om-load-inputfun (quote input-funbox) "velocities (0-127): list or list of lists" "lvel" (list 100)) (om-load-inputfun (quote input-funbox) "offsets (ms): list or list of lists" "loffset" (list 0)) (om-load-inputfun (quote input-funbox) "MIDI channels (1-16): list or list of lists" "lchan" (list 1)) (om-load-inputfun (quote input-funbox) "relative chords duration (0-100)" "legato" 0))) (om-make-point 2 171) (om-make-point 652 97) (let ((newobj (when (find-class (quote chord-seq) nil) (make-instance (quote chord-seq) :lmidic (quote ((6900) (6300) (6100) (7050) (6400) (6050) (6150) (6600) (6750) (7100) (6650) (6700) (6950) (6800) (6550) (6250) (6450) (7150) (6350) (6500) (6850) (7000) (6000) (6200))) :lonset (quote (0 279 304 516 688 1021 1126 1164 1403 1455 1614 1867 2053 2359 2451 2570 2863 2995 3141 3340 3606 3926 4152 4231 4445)) :ldur (quote ((25) (253) (333) (239) (105) (79) (212) (132) (119) (65) (306) (52) (159) (146) (226) (279) (320) (38) (172) (92) (266) (199) (293) (186))) :lvel (quote ((71) (54) (51) (48) (41) (97) (45) (58) (87) (84) (80) (61) (90) (77) (67) (93) (74) (35) (28) (38) (64) (32) (100) (25))) :loffset (quote ((0) (0) (0) (0) (0) (0) (0) (0) (0) (0) (0) (0) (0) (0) (0) (0) (0) (0) (0) (0) (0) (0) (0) (0))) :lchan (quote ((1) (1) (1) (1) (1) (1) (1) (1) (1) (1) (1) (1) (1) (1) (1) (1) (1) (1) (1) (1) (1) (1) (1) (1))) :legato 0)))) (load-port-info newobj (quote ((0) (0) (0) (0) (0) (0) (0) (0) (0) (0) (0) (0) (0) (0) (0) (0) (0) (0) (0) (0) (0) (0) (0) (0)))) (init-mus-color newobj (quote nil)) (set-extra-pairs newobj (quote nil)) (set-patch-pairs newobj (quote nil)) (set-name newobj nil) (set-tonalite newobj nil) newobj) "&" nil (pairlis (quote (approx fontsize staff cmnpref deltapict outport inport player zoom notechancolor? grillestep mode winsize winpos score-mode obj-mode show-stems scale palette-mode)) (list 8 36 (quote g) (let ((newobj (make-instance (quote edition-values)))) (setf (paper-size newobj) (om-make-point 600 800)) (setf (top-margin newobj) 2) (setf (left-margin newobj) 1) (setf (right-margin newobj) 1) (setf (bottom-margin newobj) 1) (setf (orientation newobj) nil) (setf (scale newobj) nil) (setf (system-space newobj) (quote (1))) (setf (system-color newobj) (quote nil)) (setf (line-space newobj) 1) (setf (title newobj) nil) (setf (show-title? newobj) nil) (setf (show-page? newobj) nil) (setf (sheet-id newobj) nil) (setf (page-mode newobj) nil) newobj) (om-make-point 0 0) nil 0 (quote :midishare) 127/100 nil 250 0 (om-make-point 1024 324) (om-make-point 0 223) 0 1 (quote t) nil 0)) t nil nil nil))) (quote ((25 4 0 0 nil 0) (7 0 0 1 nil 0) (5 0 0 2 nil 0) (10 0 0 3 nil 0) (11 0 0 4 nil 0) (25 3 2 0 nil 0) (7 0 2 1 nil 0) (5 0 2 2 nil 0) (25 2 3 0 nil 0) (7 0 3 1 nil 0) (5 0 3 2 nil 0) (25 1 8 0 nil 0) (7 0 8 1 nil 0) (8 0 9 1 nil 0) (3 0 9 2 nil 0) (2 0 9 3 nil 0) (0 0 9 4 nil 0) (16 0 14 0 nil 0) (15 0 14 1 nil 0) (10 0 14 2 nil 0) (11 0 14 3 nil 0) (18 0 19 0 nil 0) (17 0 19 1 nil 0) (21 0 20 0 nil 0) (22 0 20 1 nil 0) (24 0 20 2 nil 0) (14 0 25 1 nil 0) (14 1 25 2 nil 0) (14 2 25 3 nil 0) (14 3 25 4 nil 0))) nil 6.0602))
