; OM File Header - Saved 2020/02/11 20:53:59
; (6.16 :patc (om-make-point 145 41) (om-make-point 18 22) (om-make-point 1226 642) "" 183 0 "2013/08/03 14:56:17" "2020/02/11 20:53:59")
; End File Header
(in-package :om)(load-lib-for (quote ("Repmus")))(setf *om-current-persistent* (om-load-patch1 "1 - transcricao de audio " (quote ((let ((box (om-load-boxcall (quote genfun) "X-APPEND" (quote x-append) (quote ((om-load-inputfun (quote input-funbox) "first element" "L1?" nil) (om-load-inputfun (quote input-funbox) "second element" "L2?" nil))) (om-make-point 888 577) nil nil nil nil 1))) (when (fboundp (quote set-active)) (set-active box nil)) box) (let ((box (om-load-editor-box1 "CHORD-SEQ 3" (quote chord-seq) (quote ((om-load-inputfun (quote input-funbox) "object" "self" nil) (om-load-inputfun (quote input-funbox) "pitches (mc): list or list of lists" "lmidic" (list 6000)) (om-load-inputfun (quote input-funbox) "onsets (ms): list" "lonset" (list 0 1000)) (om-load-inputfun (quote input-funbox) "durations (ms): list or list of lists" "ldur" (list 1000)) (om-load-inputfun (quote input-funbox) "velocities (0-127): list or list of lists" "lvel" (list 100)) (om-load-inputfun (quote input-funbox) "offsets (ms): list or list of lists" "loffset" (list 0)) (om-load-inputfun (quote input-funbox) "MIDI channels (1-16): list or list of lists" "lchan" (list 1)) (om-load-inputfun (quote input-funbox) "relative chords duration (0-100)" "legato" 0))) (om-make-point 831 641) (om-make-point 130 70) (let ((newobj (when (find-class (quote chord-seq) nil) (make-instance (quote chord-seq) :lmidic (quote ((6000))) :lonset (quote (0 1000)) :ldur (quote ((1000))) :lvel (quote ((100))) :loffset (quote ((0))) :lchan (quote ((1))) :legato 0)))) (load-port-info newobj (quote ((0)))) (init-mus-color newobj (quote nil)) (set-extra-pairs newobj (quote nil)) (set-patch-pairs newobj (quote nil)) (set-name newobj nil) (set-tonalite newobj nil) newobj) nil nil (pairlis (quote (approx fontsize staff cmnpref deltapict outport inport player zoom notechancolor? grillestep mode winsize winpos score-mode obj-mode show-stems scale palette-mode)) (list 2 24 (quote g) (let ((newobj (make-instance (quote edition-values)))) (setf (paper-size newobj) (om-make-point 600 800)) (setf (top-margin newobj) 2) (setf (left-margin newobj) 1) (setf (right-margin newobj) 1) (setf (bottom-margin newobj) 1) (setf (orientation newobj) nil) (setf (scale newobj) nil) (setf (system-space newobj) (quote (1))) (setf (system-color newobj) (quote nil)) (setf (line-space newobj) 1) (setf (title newobj) nil) (setf (show-title? newobj) nil) (setf (show-page? newobj) nil) (setf (sheet-id newobj) nil) (setf (page-mode newobj) nil) newobj) (om-make-point 0 0) nil 0 (quote :midishare) 1 nil 1000 0 (om-make-point 370 280) (om-make-point 400 20) 0 1 (quote t) nil 0)) t nil nil nil))) (when (fboundp (quote set-active)) (set-active box nil)) box) (let ((box (om-load-editor-box1 "dragged 8" (quote chord) (quote ((om-load-inputfun (quote input-funbox) "object" "self" nil) (om-load-inputfun (quote input-funbox) "pitches (list of midicents)" "lmidic" (list 6000)) (om-load-inputfun (quote input-funbox) "velocities (list of values 0-127)" "lvel" (list 100)) (om-load-inputfun (quote input-funbox) "offsets (list of values in ms)" "loffset" (list 0)) (om-load-inputfun (quote input-funbox) "durations (list of values in ms)" "ldur" (list 1000)) (om-load-inputfun (quote input-funbox) "MIDI channels (list of values 0-16)" "lchan" (list 1)))) (om-make-point 1147 454) (om-make-point 100 70) (let ((thechord (make-instance (quote chord) :lmidic (quote (6300 7475 6275 6750 6225 5325 6800 6250 5575 5375 7200 7175 3375 5825 4250 3425 3350 3325 7500 5600 5500 3750 7550 9750)) :ldur (quote (100 100 100 100 100 100 100 100 100 100 100 100 100 100 100 100 100 100 100 100 100 100 100 100)) :lvel (quote (113 112 112 111 111 111 111 111 111 111 111 111 111 111 111 111 111 111 110 110 110 110 110 110)) :loffset (quote (0 0 0 0 0 0 0 0 0 0 0 0 0 0 0 0 0 0 0 0 0 0 0 0)) :lchan (quote (1 1 1 1 1 1 1 1 1 1 1 1 1 1 1 1 1 1 1 1 1 1 1 1))))) (load-port-info thechord (quote (0 0 0 0 0 0 0 0 0 0 0 0 0 0 0 0 0 0 0 0 0 0 0 0))) (init-mus-color thechord (quote nil)) (set-extra-pairs thechord (quote nil)) (set-tonalite thechord nil) thechord) "x" nil (pairlis (quote (approx fontsize staff cmnpref deltapict outport inport player zoom notechancolor? grillestep mode winsize winpos score-mode obj-mode show-stems scale palette-mode)) (list 8 24 (quote g) (let ((newobj (make-instance (quote edition-values)))) (setf (paper-size newobj) (om-make-point 600 800)) (setf (top-margin newobj) 2) (setf (left-margin newobj) 1) (setf (right-margin newobj) 1) (setf (bottom-margin newobj) 1) (setf (orientation newobj) nil) (setf (scale newobj) nil) (setf (system-space newobj) (quote (1))) (setf (system-color newobj) (quote nil)) (setf (line-space newobj) 1) (setf (title newobj) nil) (setf (show-title? newobj) nil) (setf (show-page? newobj) nil) (setf (sheet-id newobj) nil) (setf (page-mode newobj) nil) newobj) (om-make-point 0 0) nil 0 (quote :midishare) 1 nil 1000 0 (om-make-point 676 406) (om-make-point 400 20) 0 0 (quote t) nil 0)) t nil nil nil))) (when (fboundp (quote set-active)) (set-active box nil)) box) (let ((box (om-load-editor-box1 "dragged 7" (quote chord) (quote ((om-load-inputfun (quote input-funbox) "object" "self" nil) (om-load-inputfun (quote input-funbox) "pitches (list of midicents)" "lmidic" (list 6000)) (om-load-inputfun (quote input-funbox) "velocities (list of values 0-127)" "lvel" (list 100)) (om-load-inputfun (quote input-funbox) "offsets (list of values in ms)" "loffset" (list 0)) (om-load-inputfun (quote input-funbox) "durations (list of values in ms)" "ldur" (list 1000)) (om-load-inputfun (quote input-funbox) "MIDI channels (list of values 0-16)" "lchan" (list 1)))) (om-make-point 1041 425) (om-make-point 100 70) (let ((thechord (make-instance (quote chord) :lmidic (quote (6800 7025 6825 5375 4375 7500 5525 4300 7225 7750 6075 4450 7450 5900 7075 6625 7200 5425 5925 5500 7550 7100 6775 6225)) :ldur (quote (100 100 100 100 100 100 100 100 100 100 100 100 100 100 100 100 100 100 100 100 100 100 100 100)) :lvel (quote (120 119 119 119 117 117 116 115 115 115 115 114 114 113 113 113 113 113 113 113 113 113 112 112)) :loffset (quote (0 0 0 0 0 0 0 0 0 0 0 0 0 0 0 0 0 0 0 0 0 0 0 0)) :lchan (quote (1 1 1 1 1 1 1 1 1 1 1 1 1 1 1 1 1 1 1 1 1 1 1 1))))) (load-port-info thechord (quote (0 0 0 0 0 0 0 0 0 0 0 0 0 0 0 0 0 0 0 0 0 0 0 0))) (init-mus-color thechord (quote nil)) (set-extra-pairs thechord (quote nil)) (set-tonalite thechord nil) thechord) "x" nil (pairlis (quote (approx fontsize staff cmnpref deltapict outport inport player zoom notechancolor? grillestep mode winsize winpos score-mode obj-mode show-stems scale palette-mode)) (list 8 24 (quote g) (let ((newobj (make-instance (quote edition-values)))) (setf (paper-size newobj) (om-make-point 600 800)) (setf (top-margin newobj) 2) (setf (left-margin newobj) 1) (setf (right-margin newobj) 1) (setf (bottom-margin newobj) 1) (setf (orientation newobj) nil) (setf (scale newobj) nil) (setf (system-space newobj) (quote (1))) (setf (system-color newobj) (quote nil)) (setf (line-space newobj) 1) (setf (title newobj) nil) (setf (show-title? newobj) nil) (setf (show-page? newobj) nil) (setf (sheet-id newobj) nil) (setf (page-mode newobj) nil) newobj) (om-make-point 0 0) nil 0 (quote :midishare) 1 nil 1000 0 (om-make-point 613 435) (om-make-point 400 20) 0 0 (quote t) nil 0)) t nil nil nil))) (when (fboundp (quote set-active)) (set-active box nil)) box) (let ((box (om-load-editor-box1 "dragged 6" (quote chord) (quote ((om-load-inputfun (quote input-funbox) "object" "self" nil) (om-load-inputfun (quote input-funbox) "pitches (list of midicents)" "lmidic" (list 6000)) (om-load-inputfun (quote input-funbox) "velocities (list of values 0-127)" "lvel" (list 100)) (om-load-inputfun (quote input-funbox) "offsets (list of values in ms)" "loffset" (list 0)) (om-load-inputfun (quote input-funbox) "durations (list of values in ms)" "ldur" (list 1000)) (om-load-inputfun (quote input-funbox) "MIDI channels (list of values 0-16)" "lchan" (list 1)))) (om-make-point 931 411) (om-make-point 100 70) (let ((thechord (make-instance (quote chord) :lmidic (quote (6875 6850 5550 4975 5725 4725 4375 6225 4750 6300 5700 4450 7075 7725 7350 9125 5600 6200 7700 4500 6950 5350 7225 5900)) :ldur (quote (100 100 100 100 100 100 100 100 100 100 100 100 100 100 100 100 100 100 100 100 100 100 100 100)) :lvel (quote (121 116 116 116 115 115 114 114 113 113 112 112 112 112 111 111 111 111 111 111 111 111 110 110)) :loffset (quote (0 0 0 0 0 0 0 0 0 0 0 0 0 0 0 0 0 0 0 0 0 0 0 0)) :lchan (quote (1 1 1 1 1 1 1 1 1 1 1 1 1 1 1 1 1 1 1 1 1 1 1 1))))) (load-port-info thechord (quote (0 0 0 0 0 0 0 0 0 0 0 0 0 0 0 0 0 0 0 0 0 0 0 0))) (init-mus-color thechord (quote nil)) (set-extra-pairs thechord (quote nil)) (set-tonalite thechord nil) thechord) "x" nil (pairlis (quote (approx fontsize staff cmnpref deltapict outport inport player zoom notechancolor? grillestep mode winsize winpos score-mode obj-mode show-stems scale palette-mode)) (list 8 24 (quote g) (let ((newobj (make-instance (quote edition-values)))) (setf (paper-size newobj) (om-make-point 600 800)) (setf (top-margin newobj) 2) (setf (left-margin newobj) 1) (setf (right-margin newobj) 1) (setf (bottom-margin newobj) 1) (setf (orientation newobj) nil) (setf (scale newobj) nil) (setf (system-space newobj) (quote (1))) (setf (system-color newobj) (quote nil)) (setf (line-space newobj) 1) (setf (title newobj) nil) (setf (show-title? newobj) nil) (setf (show-page? newobj) nil) (setf (sheet-id newobj) nil) (setf (page-mode newobj) nil) newobj) (om-make-point 0 0) nil 0 (quote :midishare) 1 nil 1000 0 (om-make-point 612 433) (om-make-point 400 20) 0 0 (quote t) nil 0)) t nil nil nil))) (when (fboundp (quote set-active)) (set-active box nil)) box) (let ((box (om-load-editor-box1 "dragged 5" (quote chord) (quote ((om-load-inputfun (quote input-funbox) "object" "self" nil) (om-load-inputfun (quote input-funbox) "pitches (list of midicents)" "lmidic" (list 6000)) (om-load-inputfun (quote input-funbox) "velocities (list of values 0-127)" "lvel" (list 100)) (om-load-inputfun (quote input-funbox) "offsets (list of values in ms)" "loffset" (list 0)) (om-load-inputfun (quote input-funbox) "durations (list of values in ms)" "ldur" (list 1000)) (om-load-inputfun (quote input-funbox) "MIDI channels (list of values 0-16)" "lchan" (list 1)))) (om-make-point 820 411) (om-make-point 100 70) (let ((thechord (make-instance (quote chord) :lmidic (quote (6000 5975 6675 6725 5950 7075 6825 7100 7025 7225 7050 5225 7525 7500 6700 6375 7275 7125 5025 8075 8050 7675 7425 7300)) :ldur (quote (100 100 100 100 100 100 100 100 100 100 100 100 100 100 100 100 100 100 100 100 100 100 100 100)) :lvel (quote (124 121 121 118 118 117 116 115 115 114 114 112 111 111 111 111 111 111 111 111 111 111 111 111)) :loffset (quote (0 0 0 0 0 0 0 0 0 0 0 0 0 0 0 0 0 0 0 0 0 0 0 0)) :lchan (quote (1 1 1 1 1 1 1 1 1 1 1 1 1 1 1 1 1 1 1 1 1 1 1 1))))) (load-port-info thechord (quote (0 0 0 0 0 0 0 0 0 0 0 0 0 0 0 0 0 0 0 0 0 0 0 0))) (init-mus-color thechord (quote nil)) (set-extra-pairs thechord (quote nil)) (set-tonalite thechord nil) thechord) "x" nil (pairlis (quote (approx fontsize staff cmnpref deltapict outport inport player zoom notechancolor? grillestep mode winsize winpos score-mode obj-mode show-stems scale palette-mode)) (list 8 24 (quote g) (let ((newobj (make-instance (quote edition-values)))) (setf (paper-size newobj) (om-make-point 600 800)) (setf (top-margin newobj) 2) (setf (left-margin newobj) 1) (setf (right-margin newobj) 1) (setf (bottom-margin newobj) 1) (setf (orientation newobj) nil) (setf (scale newobj) nil) (setf (system-space newobj) (quote (1))) (setf (system-color newobj) (quote nil)) (setf (line-space newobj) 1) (setf (title newobj) nil) (setf (show-title? newobj) nil) (setf (show-page? newobj) nil) (setf (sheet-id newobj) nil) (setf (page-mode newobj) nil) newobj) (om-make-point 0 0) nil 0 (quote :midishare) 1 nil 1000 0 (om-make-point 634 429) (om-make-point 400 20) 0 0 (quote t) nil 0)) t nil nil nil))) (when (fboundp (quote set-active)) (set-active box nil)) box) (let ((box (om-load-editor-box1 "dragged 4" (quote chord) (quote ((om-load-inputfun (quote input-funbox) "object" "self" nil) (om-load-inputfun (quote input-funbox) "pitches (list of midicents)" "lmidic" (list 6000)) (om-load-inputfun (quote input-funbox) "velocities (list of values 0-127)" "lvel" (list 100)) (om-load-inputfun (quote input-funbox) "offsets (list of values in ms)" "loffset" (list 0)) (om-load-inputfun (quote input-funbox) "durations (list of values in ms)" "ldur" (list 1000)) (om-load-inputfun (quote input-funbox) "MIDI channels (list of values 0-16)" "lchan" (list 1)))) (om-make-point 1138 308) (om-make-point 100 129) (let ((thechord (make-instance (quote chord) :lmidic (quote (8150 7600 7650 7925 7000 7200 8325 7625 7525 7500 7400 7375 6800 5375 8275 7300 6925 6900 6875 3300 3350 4900 6400 6250)) :ldur (quote (100 100 100 100 100 100 100 100 100 100 100 100 100 100 100 100 100 100 100 100 100 100 100 100)) :lvel (quote (121 119 119 117 116 115 115 111 111 111 111 111 111 111 111 110 110 110 110 110 110 110 110 110)) :loffset (quote (0 0 0 0 0 0 0 0 0 0 0 0 0 0 0 0 0 0 0 0 0 0 0 0)) :lchan (quote (1 1 1 1 1 1 1 1 1 1 1 1 1 1 1 1 1 1 1 1 1 1 1 1))))) (load-port-info thechord (quote (0 0 0 0 0 0 0 0 0 0 0 0 0 0 0 0 0 0 0 0 0 0 0 0))) (init-mus-color thechord (quote nil)) (set-extra-pairs thechord (quote nil)) (set-tonalite thechord nil) thechord) "x" nil (pairlis (quote (palette-mode scale show-stems obj-mode score-mode winpos winsize mode grillestep notechancolor? zoom player inport outport deltapict cmnpref staff fontsize approx)) (list 0 nil (quote t) 0 0 (om-make-point 400 20) (om-make-point 570 427) 0 1000 nil 1 (quote :midishare) 0 nil (om-make-point 0 0) (let ((newobj (make-instance (quote edition-values)))) (setf (paper-size newobj) (om-make-point 600 800)) (setf (top-margin newobj) 2) (setf (left-margin newobj) 1) (setf (right-margin newobj) 1) (setf (bottom-margin newobj) 1) (setf (orientation newobj) nil) (setf (scale newobj) nil) (setf (system-space newobj) (quote (1))) (setf (system-color newobj) (quote nil)) (setf (line-space newobj) 1) (setf (title newobj) nil) (setf (show-title? newobj) nil) (setf (show-page? newobj) nil) (setf (sheet-id newobj) nil) (setf (page-mode newobj) nil) newobj) (quote g) 24 8)) t nil nil nil))) (when (fboundp (quote set-active)) (set-active box nil)) box) (let ((box (om-load-editor-box1 "dragged 3" (quote chord) (quote ((om-load-inputfun (quote input-funbox) "object" "self" nil) (om-load-inputfun (quote input-funbox) "pitches (list of midicents)" "lmidic" (list 6000)) (om-load-inputfun (quote input-funbox) "velocities (list of values 0-127)" "lvel" (list 100)) (om-load-inputfun (quote input-funbox) "offsets (list of values in ms)" "loffset" (list 0)) (om-load-inputfun (quote input-funbox) "durations (list of values in ms)" "ldur" (list 1000)) (om-load-inputfun (quote input-funbox) "MIDI channels (list of values 0-16)" "lchan" (list 1)))) (om-make-point 1032 315) (om-make-point 100 70) (let ((thechord (make-instance (quote chord) :lmidic (quote (6800 6825 5575 6300 7025 5900 7050 6500 5600 7525 4250 5850 5325 7075 4350 7550 6275 7250 5475 7225 3950 4225 6375 4900)) :ldur (quote (100 100 100 100 100 100 100 100 100 100 100 100 100 100 100 100 100 100 100 100 100 100 100 100)) :lvel (quote (124 121 118 118 117 117 115 115 115 115 114 114 114 113 113 113 113 113 112 112 112 112 112 112)) :loffset (quote (0 0 0 0 0 0 0 0 0 0 0 0 0 0 0 0 0 0 0 0 0 0 0 0)) :lchan (quote (1 1 1 1 1 1 1 1 1 1 1 1 1 1 1 1 1 1 1 1 1 1 1 1))))) (load-port-info thechord (quote (0 0 0 0 0 0 0 0 0 0 0 0 0 0 0 0 0 0 0 0 0 0 0 0))) (init-mus-color thechord (quote nil)) (set-extra-pairs thechord (quote nil)) (set-tonalite thechord nil) thechord) "x" nil (pairlis (quote (palette-mode scale show-stems obj-mode score-mode winpos winsize mode grillestep notechancolor? zoom player inport outport deltapict cmnpref staff fontsize approx)) (list 0 nil (quote t) 0 0 (om-make-point 400 20) (om-make-point 537 402) 0 1000 nil 1 (quote :midishare) 0 nil (om-make-point 0 0) (let ((newobj (make-instance (quote edition-values)))) (setf (paper-size newobj) (om-make-point 600 800)) (setf (top-margin newobj) 2) (setf (left-margin newobj) 1) (setf (right-margin newobj) 1) (setf (bottom-margin newobj) 1) (setf (orientation newobj) nil) (setf (scale newobj) nil) (setf (system-space newobj) (quote (1))) (setf (system-color newobj) (quote nil)) (setf (line-space newobj) 1) (setf (title newobj) nil) (setf (show-title? newobj) nil) (setf (show-page? newobj) nil) (setf (sheet-id newobj) nil) (setf (page-mode newobj) nil) newobj) (quote g) 24 8)) t nil nil nil))) (when (fboundp (quote set-active)) (set-active box nil)) box) (let ((box (om-load-boxcomment "comment" (om-make-point 175 32) (quote "Seleção de acordes") "" (om-make-point 832 284) nil (om-make-color 0 0 0) (om-make-font "Verdana" 12 :family "Verdana" :style (quote (:plain)) :mode (quote nil))))) (when (fboundp (quote set-active)) (set-active box nil)) box) (let ((box (om-load-editor-box1 "dragged 2" (quote chord) (quote ((om-load-inputfun (quote input-funbox) "object" "self" nil) (om-load-inputfun (quote input-funbox) "pitches (list of midicents)" "lmidic" (list 6000)) (om-load-inputfun (quote input-funbox) "velocities (list of values 0-127)" "lvel" (list 100)) (om-load-inputfun (quote input-funbox) "offsets (list of values in ms)" "loffset" (list 0)) (om-load-inputfun (quote input-funbox) "durations (list of values in ms)" "ldur" (list 1000)) (om-load-inputfun (quote input-funbox) "MIDI channels (list of values 0-16)" "lchan" (list 1)))) (om-make-point 924 315) (om-make-point 100 70) (let ((thechord (make-instance (quote chord) :lmidic (quote (6900 6875 7075 5825 5725 5475 5700 4300 5400 7200 4425 5925 5875 5750 6350 5550 4325 6275 6300 4450 7225 5775 7150 6575)) :ldur (quote (100 100 100 100 100 100 100 100 100 100 100 100 100 100 100 100 100 100 100 100 100 100 100 100)) :lvel (quote (121 119 115 115 114 114 114 113 113 113 113 112 112 112 112 112 112 112 112 111 111 111 111 111)) :loffset (quote (0 0 0 0 0 0 0 0 0 0 0 0 0 0 0 0 0 0 0 0 0 0 0 0)) :lchan (quote (1 1 1 1 1 1 1 1 1 1 1 1 1 1 1 1 1 1 1 1 1 1 1 1))))) (load-port-info thechord (quote (0 0 0 0 0 0 0 0 0 0 0 0 0 0 0 0 0 0 0 0 0 0 0 0))) (init-mus-color thechord (quote nil)) (set-extra-pairs thechord (quote nil)) (set-tonalite thechord nil) thechord) "x" nil (pairlis (quote (palette-mode scale show-stems obj-mode score-mode winpos winsize mode grillestep notechancolor? zoom player inport outport deltapict cmnpref staff fontsize approx)) (list 0 nil (quote t) 0 0 (om-make-point 400 20) (om-make-point 597 453) 0 1000 nil 1 (quote :midishare) 0 nil (om-make-point 0 0) (let ((newobj (make-instance (quote edition-values)))) (setf (paper-size newobj) (om-make-point 600 800)) (setf (top-margin newobj) 2) (setf (left-margin newobj) 1) (setf (right-margin newobj) 1) (setf (bottom-margin newobj) 1) (setf (orientation newobj) nil) (setf (scale newobj) nil) (setf (system-space newobj) (quote (1))) (setf (system-color newobj) (quote nil)) (setf (line-space newobj) 1) (setf (title newobj) nil) (setf (show-title? newobj) nil) (setf (show-page? newobj) nil) (setf (sheet-id newobj) nil) (setf (page-mode newobj) nil) newobj) (quote g) 24 8)) t nil nil nil))) (when (fboundp (quote set-active)) (set-active box nil)) box) (let ((box (om-load-editor-box1 "dragged" (quote chord) (quote ((om-load-inputfun (quote input-funbox) "object" "self" nil) (om-load-inputfun (quote input-funbox) "pitches (list of midicents)" "lmidic" (list 6000)) (om-load-inputfun (quote input-funbox) "velocities (list of values 0-127)" "lvel" (list 100)) (om-load-inputfun (quote input-funbox) "offsets (list of values in ms)" "loffset" (list 0)) (om-load-inputfun (quote input-funbox) "durations (list of values in ms)" "ldur" (list 1000)) (om-load-inputfun (quote input-funbox) "MIDI channels (list of values 0-16)" "lchan" (list 1)))) (om-make-point 816 316) (om-make-point 100 70) (let ((thechord (make-instance (quote chord) :lmidic (quote (6850 5900 6725 6650 6425 5850 5350 5650 6950 6700 4275 5575 5950 5800 5325 6075 5425 4325 7575 6975 5500 4300 7275 5550)) :ldur (quote (100 100 100 100 100 100 100 100 100 100 100 100 100 100 100 100 100 100 100 100 100 100 100 100)) :lvel (quote (121 121 121 119 118 117 117 116 116 116 116 115 115 115 115 115 115 115 114 114 114 114 114 114)) :loffset (quote (0 0 0 0 0 0 0 0 0 0 0 0 0 0 0 0 0 0 0 0 0 0 0 0)) :lchan (quote (1 1 1 1 1 1 1 1 1 1 1 1 1 1 1 1 1 1 1 1 1 1 1 1))))) (load-port-info thechord (quote (0 0 0 0 0 0 0 0 0 0 0 0 0 0 0 0 0 0 0 0 0 0 0 0))) (init-mus-color thechord (quote nil)) (set-extra-pairs thechord (quote nil)) (set-tonalite thechord nil) thechord) "x" nil (pairlis (quote (palette-mode scale show-stems obj-mode score-mode winpos winsize mode grillestep notechancolor? zoom player inport outport deltapict cmnpref staff fontsize approx)) (list 0 nil (quote t) 0 0 (om-make-point 400 20) (om-make-point 578 400) 0 1000 nil 1 (quote :osc-scoreplayer) 0 nil (om-make-point 0 0) (let ((newobj (make-instance (quote edition-values)))) (setf (paper-size newobj) (om-make-point 600 800)) (setf (top-margin newobj) 2) (setf (left-margin newobj) 1) (setf (right-margin newobj) 1) (setf (bottom-margin newobj) 1) (setf (orientation newobj) nil) (setf (scale newobj) nil) (setf (system-space newobj) (quote (1))) (setf (system-color newobj) (quote nil)) (setf (line-space newobj) 1) (setf (title newobj) nil) (setf (show-title? newobj) nil) (setf (show-page? newobj) nil) (setf (sheet-id newobj) nil) (setf (page-mode newobj) nil) newobj) (quote g) 24 8)) t nil nil nil))) (when (fboundp (quote set-active)) (set-active box nil)) box) (let ((box (om-load-boxcall (quote genfun) "OM* 3" (quote om*) (quote ((om-load-inputfun (quote input-funbox) "number or list" "ARG1" 0) (om-load-inputfun (quote input-funbox) "number or list" "ARG2" 0))) (om-make-point 89 491) nil nil nil nil 1))) (when (fboundp (quote set-active)) (set-active box nil)) box) (let ((box (om-load-boxcall (quote bastype) "list 8" (quote list) (quote nil) (om-make-point 98 398) (om-make-point 28 30) 25 "25" nil))) (when (fboundp (quote set-active)) (set-active box nil)) box) (let ((box (om-load-boxcall (quote genfun) "OM-ROUND" (quote om-round) (quote ((om-load-inputfun (quote input-funbox) "number or list" "N" 1) (om-load-inputfun (quote input-funbox) "number of decimals" "DECIMALS" 0) (om-load-inputfun (quote input-funbox) "divisor" "DIVISOR" 1))) (om-make-point 26 429) nil nil nil nil 1))) (when (fboundp (quote set-active)) (set-active box nil)) box) (let ((box (om-load-boxcall (quote bastype) "list 7" (quote list) (quote nil) (om-make-point 186 473) (om-make-point 21 30) 2 "2" nil))) (when (fboundp (quote set-active)) (set-active box nil)) box) (let ((box (om-load-boxcall (quote genfun) "REMOVE-DUP" (quote remove-dup) (quote ((om-load-inputfun (quote input-funbox) "list" "LIST" (list 1 2 3 4)) (om-load-inputfun (quote input-funbox) "equality test (function or function name)" "TEST" (quote eq)) (om-load-inputfun (quote input-funbox) "an integer" "DEPTH" 1))) (om-make-point 107 505) nil nil nil nil 1))) (when (fboundp (quote set-active)) (set-active box nil)) box) (let ((box (om-load-boxcall (quote bastype) "list 5" (quote list) (quote nil) (om-make-point 404 495) (om-make-point 35 30) 100 "100" nil))) (when (fboundp (quote set-active)) (set-active box nil)) box) (let ((box (om-load-boxcall (quote genfun) "OM* 2" (quote om*) (quote ((om-load-inputfun (quote input-funbox) "number or list" "ARG1" 0) (om-load-inputfun (quote input-funbox) "number or list" "ARG2" 0))) (om-make-point 355 507) nil nil nil nil 1))) (when (fboundp (quote set-active)) (set-active box nil)) box) (let ((box (om-load-boxcall (quote bastype) "list 4" (quote list) (quote nil) (om-make-point 316 485) (om-make-point 34 30) 11 "11" nil))) (when (fboundp (quote set-active)) (set-active box nil)) box) (let ((box (om-load-boxcall (quote genfun) "OM*" (quote om*) (quote ((om-load-inputfun (quote input-funbox) "number or list" "ARG1" 0) (om-load-inputfun (quote input-funbox) "number or list" "ARG2" 0))) (om-make-point 268 500) nil nil nil nil 1))) (when (fboundp (quote set-active)) (set-active box nil)) box) (let ((box (om-load-boxcall (quote bastype) "list 3" (quote list) (quote nil) (om-make-point 534 477) (om-make-point 35 30) 127 "127" nil))) (when (fboundp (quote set-active)) (set-active box nil)) box) (let ((box (om-load-boxcall (quote bastype) "list 2" (quote list) (quote nil) (om-make-point 481 476) (om-make-point 35 30) 110 "110" nil))) (when (fboundp (quote set-active)) (set-active box nil)) box) (let ((box (om-load-boxcall (quote genfun) "OM-SCALE" (quote om-scale) (quote ((om-load-inputfun (quote input-funbox) "number or list" "SELF" 1) (om-load-inputfun (quote input-funbox) "a number" "MINOUT" 0) (om-load-inputfun (quote input-funbox) "a number" "MAXOUT" 0))) (om-make-point 424 531) nil nil nil nil 1))) (when (fboundp (quote set-active)) (set-active box nil)) box) (let ((box (om-load-editor-box1 "CHORD-SEQ 2" (quote chord-seq) (quote ((om-load-inputfun (quote input-funbox) "object" "SELF" nil) (om-load-inputfun (quote input-funbox) "pitches (mc): list or list of lists" "LMIDIC" (list 6000)) (om-load-inputfun (quote input-funbox) "onsets (ms): list" "LONSET" (list 0 1000)) (om-load-inputfun (quote input-funbox) "durations (ms): list or list of lists" "LDUR" (list 1000)) (om-load-inputfun (quote input-funbox) "velocities (0-127): list or list of lists" "LVEL" (list 100)) (om-load-inputfun (quote input-funbox) "offsets (ms): list or list of lists" "LOFFSET" (list 0)) (om-load-inputfun (quote input-funbox) "MIDI channels (1-16): list or list of lists" "LCHAN" (list 1)) (om-load-inputfun (quote input-funbox) "relative chords duration (0-100)" "LEGATO" 0))) (om-make-point 100 264) (om-make-point 683 119) (let ((newobj (when (find-class (quote chord-seq) nil) (make-instance (quote chord-seq) :lmidic (quote ((6770 6288 6284 9078 7158 6318 9504 8858 3338 3308) (6774 6282 7156 6288 9500 8856 3318 3292 3278 9076) (6768 7152 6268 3374 3338 3288 3258 9804 9770 9076) (6654 6674 6764 7234 7052 6788 6692 9974 6868 7170) (6646 7038 8972 7240 6164 9164 7356 6146 3366 3316) (6654 7044 7356 9164 3370 3334 3490 3480 3400 3356) (6656 7044 7358 7364 9164 6796 3326 3288 3282 3168) (6654 7040 7222 6814 7070 6978 6840 7354 6750 7242) (6648 7046 7362 7364 9572 9168 8870 8414 6764 7858) (6638 9648 6750 7376 6632 9930 3338 9876 7048 3300) (9970 9962 9656 9582 3362 3264 3260 2928 2728 9926) (3318 3206 3012 2808 2764 3552 3416 3402 3020 2756) (9490 9650 3332 3250 9576 3340 3190 2612 9896 6668) (9490 9674 9840 9398 9072 8846 6764 3200 3376 3318) (6744 7420 7114 6770 6298 6268 6736 6314 6262 7402) (7116 7422 6764 7108 6726 6264 6738 6712 6288 6260) (7098 6764 7416 6718 6690 7692 8848 7924 7410) (6624 7094 6764 6826 7002 6728 6670 6694 7274 6788) (6638 7326 7016 7590 7010 7106 6800 7142 6896 6634) (6652 7324 6664 7014 7594 7006 6614 6118 8220 6612) (7324 6652 7014 7006 6668 7592 6616 7820 6114 6104) (6650 7314 7312 7038 7250 7168 6696 6846 6600 6668) (6654 7322 7040 7590 7252 7014 6880 6992 7064 6894) (6654 7314 7018 7588 6626 7386 7396 6996 7414 7064) (7598 6988 6760 6664 6566 6774 6590 7400 6638 9640) (6654 6148 6128 3238 2920 7614 2982) (6154 6216 6650 5490 9488 6196 5574 5516 5462 3272) (9492 6152 9104 6736 6698 6664 9074 6748 6128 5466) (6764 9074 9494 6240 6232 5514 5508 3382))) :lonset (quote (0 100 210 320 450 570 690 810 920 1060 1160 1260 1360 1490 1610 1710 1810 1910 2010 2110 2220 2320 2450 2560 2660 2780 2880 3010 3110 3190)) :ldur (quote ((180 180 180 180 180 120 180 180 180 120) (120 120 120 100 40 120 120 40 40 120) (160 160 160 80 80 160 160 160 80 80) (180 160 160 180 180 180 140 180 160 160) (180 180 60 0 0 180 180 180 180 180) (180 180 180 180 80 60 0 40 60 80) (180 180 180 180 180 180 180 180 0 140) (180 180 20 20 20 20 20 180 20 100) (180 180 180 180 140 180 180 180 100 120) (20 160 20 0 0 140 20 160 0 160) (120 120 120 0 120 100 0 0 120 100) (0 140 0 80 100 120 120 80 140 120) (80 80 80 0 80 60 0 60 60 60) (160 60 100 0 160 160 160 60 100 80) (180 180 180 100 80 180 180 100 180 80) (40 160 160 160 120 160 160 40 40 0) (180 180 100 100 180 180 180 180 180) (180 180 20 180 180 100 20 0 180 100) (180 180 180 180 180 0 0 0 120 180) (160 160 160 160 160 160 160 160 80 160) (160 100 160 160 160 160 160 160 100 160) (180 180 180 180 180 180 160 180 160 120) (180 180 100 180 20 180 20 180 80 20) (100 100 100 100 100 100 100 100 100 20) (120 60 0 0 40 40 100 0 40 100) (0 160 0 160 0 0 0) (160 140 160 60 0 20 140 60 20 60) (180 0 60 60 0 0 180 180 0 140) (20 20 20 20 0 20 0 20))) :lvel (quote ((32 27 20 9 8 8 7 6 4 3) (34 15 8 6 5 5 4 4 4 3) (24 6 3 3 3 3 3 2 2 2) (87 22 14 12 12 12 9 8 8 7) (120 18 7 7 7 6 6 4 4 4) (62 10 6 4 4 4 3 3 3 3) (33 7 5 4 3 3 3 3 3 3) (105 22 17 17 15 13 13 12 11 10) (82 16 10 8 5 5 4 4 4 3) (38 9 7 6 5 4 4 3 3 3) (6 6 5 3 3 3 2 2 2 1) (4 4 4 4 4 3 3 3 3 3) (10 8 3 3 2 2 2 2 1 1) (10 5 4 4 4 4 4 4 3 3) (63 54 53 51 41 40 28 17 13 12) (57 54 53 35 21 20 13 12 11 11) (35 35 23 11 11 8 6 5 3) (37 19 19 17 16 14 12 11 10 10) (127 69 48 32 30 24 19 18 18 16) (97 65 44 36 32 28 17 11 10 9) (53 38 20 20 20 16 11 8 6 6) (57 52 48 36 31 27 27 22 22 20) (99 72 40 32 31 30 22 21 18 18) (78 64 23 20 17 16 15 15 11 10) (17 14 14 14 11 9 9 8 7 6) (6 6 5 5 5 4 4) (13 8 7 6 5 5 5 5 5 5) (16 15 13 10 10 10 9 9 9 6) (9 7 6 3 3 3 3 3))) :loffset (quote ((0 0 0 0 0 0 0 0 0 0) (0 0 0 0 0 0 0 0 0 0) (0 0 0 0 0 0 0 0 0 0) (0 0 0 0 0 0 0 0 0 0) (0 0 0 0 0 0 0 0 0 0) (0 0 0 0 0 0 0 0 0 0) (0 0 0 0 0 0 0 0 0 0) (0 0 0 0 0 0 0 0 0 0) (0 0 0 0 0 0 0 0 0 0) (0 0 0 0 0 0 0 0 0 0) (0 0 0 0 0 0 0 0 0 0) (0 0 0 0 0 0 0 0 0 0) (0 0 0 0 0 0 0 0 0 0) (0 0 0 0 0 0 0 0 0 0) (0 0 0 0 0 0 0 0 0 0) (0 0 0 0 0 0 0 0 0 0) (0 0 0 0 0 0 0 0 0) (0 0 0 0 0 0 0 0 0 0) (0 0 0 0 0 0 0 0 0 0) (0 0 0 0 0 0 0 0 0 0) (0 0 0 0 0 0 0 0 0 0) (0 0 0 0 0 0 0 0 0 0) (0 0 0 0 0 0 0 0 0 0) (0 0 0 0 0 0 0 0 0 0) (0 0 0 0 0 0 0 0 0 0) (0 0 0 0 0 0 0) (0 0 0 0 0 0 0 0 0 0) (0 0 0 0 0 0 0 0 0 0) (0 0 0 0 0 0 0 0))) :lchan (quote ((1 1 1 1 1 1 1 1 1 1) (1 1 1 1 1 1 1 1 1 1) (1 1 1 1 1 1 1 1 1 1) (1 1 1 1 1 1 1 1 1 1) (1 1 1 1 1 1 1 1 1 1) (1 1 1 1 1 1 1 1 1 1) (1 1 1 1 1 1 1 1 1 1) (1 1 1 1 1 1 1 1 1 1) (1 1 1 1 1 1 1 1 1 1) (1 1 1 1 1 1 1 1 1 1) (1 1 1 1 1 1 1 1 1 1) (1 1 1 1 1 1 1 1 1 1) (1 1 1 1 1 1 1 1 1 1) (1 1 1 1 1 1 1 1 1 1) (1 1 1 1 1 1 1 1 1 1) (1 1 1 1 1 1 1 1 1 1) (1 1 1 1 1 1 1 1 1) (1 1 1 1 1 1 1 1 1 1) (1 1 1 1 1 1 1 1 1 1) (1 1 1 1 1 1 1 1 1 1) (1 1 1 1 1 1 1 1 1 1) (1 1 1 1 1 1 1 1 1 1) (1 1 1 1 1 1 1 1 1 1) (1 1 1 1 1 1 1 1 1 1) (1 1 1 1 1 1 1 1 1 1) (1 1 1 1 1 1 1) (1 1 1 1 1 1 1 1 1 1) (1 1 1 1 1 1 1 1 1 1) (1 1 1 1 1 1 1 1))) :legato 0)))) (load-port-info newobj (quote ((0 0 0 0 0 0 0 0 0 0) (0 0 0 0 0 0 0 0 0 0) (0 0 0 0 0 0 0 0 0 0) (0 0 0 0 0 0 0 0 0 0) (0 0 0 0 0 0 0 0 0 0) (0 0 0 0 0 0 0 0 0 0) (0 0 0 0 0 0 0 0 0 0) (0 0 0 0 0 0 0 0 0 0) (0 0 0 0 0 0 0 0 0 0) (0 0 0 0 0 0 0 0 0 0) (0 0 0 0 0 0 0 0 0 0) (0 0 0 0 0 0 0 0 0 0) (0 0 0 0 0 0 0 0 0 0) (0 0 0 0 0 0 0 0 0 0) (0 0 0 0 0 0 0 0 0 0) (0 0 0 0 0 0 0 0 0 0) (0 0 0 0 0 0 0 0 0) (0 0 0 0 0 0 0 0 0 0) (0 0 0 0 0 0 0 0 0 0) (0 0 0 0 0 0 0 0 0 0) (0 0 0 0 0 0 0 0 0 0) (0 0 0 0 0 0 0 0 0 0) (0 0 0 0 0 0 0 0 0 0) (0 0 0 0 0 0 0 0 0 0) (0 0 0 0 0 0 0 0 0 0) (0 0 0 0 0 0 0) (0 0 0 0 0 0 0 0 0 0) (0 0 0 0 0 0 0 0 0 0) (0 0 0 0 0 0 0 0)))) (init-mus-color newobj (quote nil)) (set-extra-pairs newobj (quote nil)) (set-patch-pairs newobj (quote nil)) (set-name newobj nil) (set-tonalite newobj nil) newobj) nil nil (pairlis (quote (approx fontsize staff cmnpref deltapict outport inport player zoom notechancolor? grillestep mode winsize winpos score-mode obj-mode show-stems scale palette-mode)) (list 2 24 (quote gf) (let ((newobj (make-instance (quote edition-values)))) (setf (paper-size newobj) (om-make-point 600 800)) (setf (top-margin newobj) 2) (setf (left-margin newobj) 1) (setf (right-margin newobj) 1) (setf (bottom-margin newobj) 1) (setf (orientation newobj) nil) (setf (scale newobj) nil) (setf (system-space newobj) (quote (1))) (setf (system-color newobj) (quote nil)) (setf (line-space newobj) 1) (setf (title newobj) nil) (setf (show-title? newobj) nil) (setf (show-page? newobj) nil) (setf (sheet-id newobj) nil) (setf (page-mode newobj) nil) newobj) (om-make-point 0 0) nil 0 (quote :midishare) 10 nil 1000 0 (om-make-point 1086 244) (om-make-point 12 382) 0 1 (quote t) nil 0)) t nil nil nil))) (when (fboundp (quote set-active)) (set-active box nil)) box) (let ((box (om-load-editor-box1 "CHORD-SEQ" (quote chord-seq) (quote ((om-load-inputfun (quote input-funbox) "object" "SELF" nil) (om-load-inputfun (quote input-funbox) "" "LMIDIC" (list 6000)) (om-load-inputfun (quote input-funbox) "" "LONSET" (list 0 1000)) (om-load-inputfun (quote input-funbox) "" "LDUR" (list 1000)) (om-load-inputfun (quote input-funbox) "" "LVEL" (list 100)) (om-load-inputfun (quote input-funbox) "" "LOFFSET" (list 0)) (om-load-inputfun (quote input-funbox) "" "LCHAN" (list 1)) (om-load-inputfun (quote input-funbox) "" "LEGATO" 0))) (om-make-point 77 579) (om-make-point 681 114) (let ((newobj (when (find-class (quote chord-seq) nil) (make-instance (quote chord-seq) :lmidic (quote ((6850 5900 6725 6650 6425 5850 5350 5650 6950 6700 4275 5575 5950 5800 5325 6075 5425 4325 7575 6975 5500 4300 7275 5550) (6900 6875 7075 5825 5725 5475 5700 4300 5400 7200 4425 5925 5875 5750 6350 5550 4325 6275 6300 4450 7225 5775 7150 6575) (6875 5875 6850 5350 4325 6500 5375 6225 6900 6250 5825 5675 7575 7275 4375 7500 7225 6300 5300 3425 3400 7475 7250 5750) (6800 6825 5575 6300 7025 5900 7050 6500 5600 7525 4250 5850 5325 7075 4350 7550 6275 7250 5475 7225 3950 4225 6375 4900) (7250 7000 7025 6725 6425 7550 6000 5525 7700 5400 6850 6875 5325 4375 5375 7500 6225 4275 3425 6200) (7075 7700 7275 7250 7225 6775 6875 7100 6425 7000 6850 5625 7325 7200 6975 6900 7675 5400 5350 5300 7050 6475 5925 5875) (7275 6900 7000 6950 6850 7325 7025 7550 7700 7250 6425 7500 7300 5375 5350 3350 3300 3375 7900 6475 5925 5325 4450 3825) (8150 7600 7650 7925 7000 7200 8325 7625 7525 7500 7400 7375 6800 5375 8275 7300 6925 6900 6875 3300 3350 4900 6400 6250) (8150 7700 5925 7450 6925 7225 7575 7950 8350 9850 5850 8200 7650 9800 8175 8125 6200 10100 9650 9225 7675 6950 5350 7925) (9750 9675 9325 6975 6025 6475 7200 9250 10000 7225 8100 7625 7475 7950 8150 8425 5950 7700 7175 5375 7500) (9125 9275 9800 5075 10000 5450 4250 9975 8050 9300 7200 7225 8325 8350 8025 5850 4275 9650 6950 9325 8175 9225 7575 5375) (6000 5975 6675 6725 5950 7075 6825 7100 7025 7225 7050 5225 7525 7500 6700 6375 7275 7125 5025 8075 8050 7675 7425 7300) (6875 6850 5550 4975 5725 4725 4375 6225 4750 6300 5700 4450 7075 7725 7350 9125 5600 6200 7700 4500 6950 5350 7225 5900) (6650 6675 7000 5325 5950 5525 4550 5550 4600 5975 4500 6925 5450 4575 7525 6875 5400 5350 6825 7925 5500 6775 8025 6175) (6825 5350 8050 6900 6850 5325 6375 5800 6600 6200 5925 6325 7550 7225 3425 3400 7525 6275 4775 4700 3375 7500) (6800 7025 6825 5375 4375 7500 5525 4300 7225 7750 6075 4450 7450 5900 7075 6625 7200 5425 5925 5500 7550 7100 6775 6225) (6775 7050 5800 6600 6300 6825 6625 6275 6050 5825 5525 5400 4800 6375 7725 7475 6250 5875 7950 6325 6000 4325 6550 6225) (5975 5950 7125 6675 7175 6700 6750 6800 6275 7500 6875 6200 7000 5850 5375 4375 7725 7750 6775 7900 7525 6400 5425 4175) (5900 6625 5875 6600 5275 7025 5250 7225 7200 6675 5850 6225 5925 7475 7450 7175 5375 6650 6875 5350 5300 3400 3375 6975) (9750 9225 10325 9775 9975 7550 7525 9650 6925 6850 6400 8150 10075 9875 9375 9800 5975 5900 6900 6275 6200 5350 10000 9950) (9750 9225 10750 9975 5375 10350 9250 5350 9300 6175 5800 9950 3400 3350 10600 10100 9850 3425 3375) (7500 7125 6325 7150 6725 5975 5550 7725 5475 5375 10325 9875 3350 3325 9750 9300 9225 9625 9600 6925 6875 9975 9150) (6300 7475 6275 6750 6225 5325 6800 6250 5575 5375 7200 7175 3375 5825 4250 3425 3350 3325 7500 5600 5500 3750 7550 9750))) :lonset (quote (0 1100 2200 3410 4840 6050 7260 8360 9790 10890 12320 13640 14740 16170 17270 18370 19800 21010 22330 23540 25080 26400 27940 28040)) :ldur (quote ((100 100 100 100 100 100 100 100 100 100 100 100 100 100 100 100 100 100 100 100 100 100 100 100) (100 100 100 100 100 100 100 100 100 100 100 100 100 100 100 100 100 100 100 100 100 100 100 100) (100 100 100 100 100 100 100 100 100 100 100 100 100 100 100 100 100 100 100 100 100 100 100 100) (100 100 100 100 100 100 100 100 100 100 100 100 100 100 100 100 100 100 100 100 100 100 100 100) (100 100 100 100 100 100 100 100 100 100 100 100 100 100 100 100 100 100 100 100) (100 100 100 100 100 100 100 100 100 100 100 100 100 100 100 100 100 100 100 100 100 100 100 100) (100 100 100 100 100 100 100 100 100 100 100 100 100 100 100 100 100 100 100 100 100 100 100 100) (100 100 100 100 100 100 100 100 100 100 100 100 100 100 100 100 100 100 100 100 100 100 100 100) (100 100 100 100 100 100 100 100 100 100 100 100 100 100 100 100 100 100 100 100 100 100 100 100) (100 100 100 100 100 100 100 100 100 100 100 100 100 100 100 100 100 100 100 100 100) (100 100 100 100 100 100 100 100 100 100 100 100 100 100 100 100 100 100 100 100 100 100 100 100) (100 100 100 100 100 100 100 100 100 100 100 100 100 100 100 100 100 100 100 100 100 100 100 100) (100 100 100 100 100 100 100 100 100 100 100 100 100 100 100 100 100 100 100 100 100 100 100 100) (100 100 100 100 100 100 100 100 100 100 100 100 100 100 100 100 100 100 100 100 100 100 100 100) (100 100 100 100 100 100 100 100 100 100 100 100 100 100 100 100 100 100 100 100 100 100) (100 100 100 100 100 100 100 100 100 100 100 100 100 100 100 100 100 100 100 100 100 100 100 100) (100 100 100 100 100 100 100 100 100 100 100 100 100 100 100 100 100 100 100 100 100 100 100 100) (100 100 100 100 100 100 100 100 100 100 100 100 100 100 100 100 100 100 100 100 100 100 100 100) (100 100 100 100 100 100 100 100 100 100 100 100 100 100 100 100 100 100 100 100 100 100 100 100) (100 100 100 100 100 100 100 100 100 100 100 100 100 100 100 100 100 100 100 100 100 100 100 100) (100 100 100 100 100 100 100 100 100 100 100 100 100 100 100 100 100 100 100) (100 100 100 100 100 100 100 100 100 100 100 100 100 100 100 100 100 100 100 100 100 100 100) (100 100 100 100 100 100 100 100 100 100 100 100 100 100 100 100 100 100 100 100 100 100 100 100))) :lvel (quote ((121 121 121 119 118 117 117 116 116 116 116 115 115 115 115 115 115 115 114 114 114 114 114 114) (121 119 115 115 114 114 114 113 113 113 113 112 112 112 112 112 112 112 112 111 111 111 111 111) (114 113 113 112 112 112 112 111 111 111 111 111 111 111 111 111 111 111 110 110 110 110 110 110) (124 121 118 118 117 117 115 115 115 115 114 114 114 113 113 113 113 113 112 112 112 112 112 112) (125 120 118 115 115 114 114 114 114 113 111 111 111 111 110 110 110 110 110 110) (112 112 112 112 112 112 112 111 111 111 111 111 111 111 111 111 111 111 111 111 111 111 111 111) (114 113 112 112 111 111 111 111 111 111 111 111 111 111 111 110 110 110 110 110 110 110 110 110) (121 119 119 117 116 115 115 111 111 111 111 111 111 111 111 110 110 110 110 110 110 110 110 110) (118 117 114 113 113 113 113 112 112 111 111 111 111 111 111 111 111 111 111 111 111 111 111 110) (116 116 116 115 115 113 113 113 113 113 113 113 113 113 112 112 111 111 111 111 111) (116 114 113 113 113 113 113 112 112 112 112 112 112 112 111 111 111 111 111 111 111 111 111 111) (124 121 121 118 118 117 116 115 115 114 114 112 111 111 111 111 111 111 111 111 111 111 111 111) (121 116 116 116 115 115 114 114 113 113 112 112 112 112 111 111 111 111 111 111 111 111 110 110) (127 126 125 118 117 116 116 115 115 115 114 114 114 114 114 113 113 113 113 113 113 112 112 112) (114 112 111 111 111 111 111 111 111 111 111 111 111 111 111 111 110 110 110 110 110 110) (120 119 119 119 117 117 116 115 115 115 115 114 114 113 113 113 113 113 113 113 113 113 112 112) (124 121 116 115 115 115 114 114 114 114 114 114 114 113 113 113 113 113 112 112 112 111 111 111) (125 120 118 118 117 115 113 112 112 111 111 111 111 111 111 111 111 111 111 111 111 111 111 111) (119 117 115 114 114 113 112 112 112 111 111 111 111 111 111 111 111 111 111 111 111 111 111 110) (119 117 117 116 116 116 116 116 116 115 114 114 114 114 114 113 113 112 111 111 111 111 111 111) (111 111 111 111 111 111 111 111 111 111 111 111 111 111 110 110 110 110 110) (118 116 114 114 113 112 112 111 111 111 111 111 111 111 111 111 111 110 110 110 110 110 110) (113 112 112 111 111 111 111 111 111 111 111 111 111 111 111 111 111 111 110 110 110 110 110 110))) :loffset (quote ((0 0 0 0 0 0 0 0 0 0 0 0 0 0 0 0 0 0 0 0 0 0 0 0) (0 0 0 0 0 0 0 0 0 0 0 0 0 0 0 0 0 0 0 0 0 0 0 0) (0 0 0 0 0 0 0 0 0 0 0 0 0 0 0 0 0 0 0 0 0 0 0 0) (0 0 0 0 0 0 0 0 0 0 0 0 0 0 0 0 0 0 0 0 0 0 0 0) (0 0 0 0 0 0 0 0 0 0 0 0 0 0 0 0 0 0 0 0) (0 0 0 0 0 0 0 0 0 0 0 0 0 0 0 0 0 0 0 0 0 0 0 0) (0 0 0 0 0 0 0 0 0 0 0 0 0 0 0 0 0 0 0 0 0 0 0 0) (0 0 0 0 0 0 0 0 0 0 0 0 0 0 0 0 0 0 0 0 0 0 0 0) (0 0 0 0 0 0 0 0 0 0 0 0 0 0 0 0 0 0 0 0 0 0 0 0) (0 0 0 0 0 0 0 0 0 0 0 0 0 0 0 0 0 0 0 0 0) (0 0 0 0 0 0 0 0 0 0 0 0 0 0 0 0 0 0 0 0 0 0 0 0) (0 0 0 0 0 0 0 0 0 0 0 0 0 0 0 0 0 0 0 0 0 0 0 0) (0 0 0 0 0 0 0 0 0 0 0 0 0 0 0 0 0 0 0 0 0 0 0 0) (0 0 0 0 0 0 0 0 0 0 0 0 0 0 0 0 0 0 0 0 0 0 0 0) (0 0 0 0 0 0 0 0 0 0 0 0 0 0 0 0 0 0 0 0 0 0) (0 0 0 0 0 0 0 0 0 0 0 0 0 0 0 0 0 0 0 0 0 0 0 0) (0 0 0 0 0 0 0 0 0 0 0 0 0 0 0 0 0 0 0 0 0 0 0 0) (0 0 0 0 0 0 0 0 0 0 0 0 0 0 0 0 0 0 0 0 0 0 0 0) (0 0 0 0 0 0 0 0 0 0 0 0 0 0 0 0 0 0 0 0 0 0 0 0) (0 0 0 0 0 0 0 0 0 0 0 0 0 0 0 0 0 0 0 0 0 0 0 0) (0 0 0 0 0 0 0 0 0 0 0 0 0 0 0 0 0 0 0) (0 0 0 0 0 0 0 0 0 0 0 0 0 0 0 0 0 0 0 0 0 0 0) (0 0 0 0 0 0 0 0 0 0 0 0 0 0 0 0 0 0 0 0 0 0 0 0))) :lchan (quote ((1 1 1 1 1 1 1 1 1 1 1 1 1 1 1 1 1 1 1 1 1 1 1 1) (1 1 1 1 1 1 1 1 1 1 1 1 1 1 1 1 1 1 1 1 1 1 1 1) (1 1 1 1 1 1 1 1 1 1 1 1 1 1 1 1 1 1 1 1 1 1 1 1) (1 1 1 1 1 1 1 1 1 1 1 1 1 1 1 1 1 1 1 1 1 1 1 1) (1 1 1 1 1 1 1 1 1 1 1 1 1 1 1 1 1 1 1 1) (1 1 1 1 1 1 1 1 1 1 1 1 1 1 1 1 1 1 1 1 1 1 1 1) (1 1 1 1 1 1 1 1 1 1 1 1 1 1 1 1 1 1 1 1 1 1 1 1) (1 1 1 1 1 1 1 1 1 1 1 1 1 1 1 1 1 1 1 1 1 1 1 1) (1 1 1 1 1 1 1 1 1 1 1 1 1 1 1 1 1 1 1 1 1 1 1 1) (1 1 1 1 1 1 1 1 1 1 1 1 1 1 1 1 1 1 1 1 1) (1 1 1 1 1 1 1 1 1 1 1 1 1 1 1 1 1 1 1 1 1 1 1 1) (1 1 1 1 1 1 1 1 1 1 1 1 1 1 1 1 1 1 1 1 1 1 1 1) (1 1 1 1 1 1 1 1 1 1 1 1 1 1 1 1 1 1 1 1 1 1 1 1) (1 1 1 1 1 1 1 1 1 1 1 1 1 1 1 1 1 1 1 1 1 1 1 1) (1 1 1 1 1 1 1 1 1 1 1 1 1 1 1 1 1 1 1 1 1 1) (1 1 1 1 1 1 1 1 1 1 1 1 1 1 1 1 1 1 1 1 1 1 1 1) (1 1 1 1 1 1 1 1 1 1 1 1 1 1 1 1 1 1 1 1 1 1 1 1) (1 1 1 1 1 1 1 1 1 1 1 1 1 1 1 1 1 1 1 1 1 1 1 1) (1 1 1 1 1 1 1 1 1 1 1 1 1 1 1 1 1 1 1 1 1 1 1 1) (1 1 1 1 1 1 1 1 1 1 1 1 1 1 1 1 1 1 1 1 1 1 1 1) (1 1 1 1 1 1 1 1 1 1 1 1 1 1 1 1 1 1 1) (1 1 1 1 1 1 1 1 1 1 1 1 1 1 1 1 1 1 1 1 1 1 1) (1 1 1 1 1 1 1 1 1 1 1 1 1 1 1 1 1 1 1 1 1 1 1 1))) :legato 0)))) (load-port-info newobj (quote ((0 0 0 0 0 0 0 0 0 0 0 0 0 0 0 0 0 0 0 0 0 0 0 0) (0 0 0 0 0 0 0 0 0 0 0 0 0 0 0 0 0 0 0 0 0 0 0 0) (0 0 0 0 0 0 0 0 0 0 0 0 0 0 0 0 0 0 0 0 0 0 0 0) (0 0 0 0 0 0 0 0 0 0 0 0 0 0 0 0 0 0 0 0 0 0 0 0) (0 0 0 0 0 0 0 0 0 0 0 0 0 0 0 0 0 0 0 0) (0 0 0 0 0 0 0 0 0 0 0 0 0 0 0 0 0 0 0 0 0 0 0 0) (0 0 0 0 0 0 0 0 0 0 0 0 0 0 0 0 0 0 0 0 0 0 0 0) (0 0 0 0 0 0 0 0 0 0 0 0 0 0 0 0 0 0 0 0 0 0 0 0) (0 0 0 0 0 0 0 0 0 0 0 0 0 0 0 0 0 0 0 0 0 0 0 0) (0 0 0 0 0 0 0 0 0 0 0 0 0 0 0 0 0 0 0 0 0) (0 0 0 0 0 0 0 0 0 0 0 0 0 0 0 0 0 0 0 0 0 0 0 0) (0 0 0 0 0 0 0 0 0 0 0 0 0 0 0 0 0 0 0 0 0 0 0 0) (0 0 0 0 0 0 0 0 0 0 0 0 0 0 0 0 0 0 0 0 0 0 0 0) (0 0 0 0 0 0 0 0 0 0 0 0 0 0 0 0 0 0 0 0 0 0 0 0) (0 0 0 0 0 0 0 0 0 0 0 0 0 0 0 0 0 0 0 0 0 0) (0 0 0 0 0 0 0 0 0 0 0 0 0 0 0 0 0 0 0 0 0 0 0 0) (0 0 0 0 0 0 0 0 0 0 0 0 0 0 0 0 0 0 0 0 0 0 0 0) (0 0 0 0 0 0 0 0 0 0 0 0 0 0 0 0 0 0 0 0 0 0 0 0) (0 0 0 0 0 0 0 0 0 0 0 0 0 0 0 0 0 0 0 0 0 0 0 0) (0 0 0 0 0 0 0 0 0 0 0 0 0 0 0 0 0 0 0 0 0 0 0 0) (0 0 0 0 0 0 0 0 0 0 0 0 0 0 0 0 0 0 0) (0 0 0 0 0 0 0 0 0 0 0 0 0 0 0 0 0 0 0 0 0 0 0) (0 0 0 0 0 0 0 0 0 0 0 0 0 0 0 0 0 0 0 0 0 0 0 0)))) (init-mus-color newobj (quote nil)) (set-extra-pairs newobj (quote nil)) (set-patch-pairs newobj (quote ((nil (om-load-patch-abs1 "patch" (quote nil) (quote nil) 6.16 nil "" (om-make-point 200 200) (om-make-point 400 500)))))) (set-name newobj nil) (set-tonalite newobj nil) newobj) nil nil (pairlis (quote (cursor-mode palette-mode scale show-stems obj-mode score-mode winpos winsize mode grillestep notechancolor? zoom player inport outport deltapict cmnpref staff fontsize approx)) (list (quote :normal) 0 nil (quote t) 1 0 (om-make-point 25 125) (om-make-point 1255 375) 0 1000 nil 37/100 (quote :osc-scoreplayer) 0 nil (om-make-point 0 0) (let ((newobj (make-instance (quote edition-values)))) (setf (paper-size newobj) (om-make-point 600 800)) (setf (top-margin newobj) 2) (setf (left-margin newobj) 1) (setf (right-margin newobj) 1) (setf (bottom-margin newobj) 1) (setf (orientation newobj) nil) (setf (scale newobj) nil) (setf (system-space newobj) (quote (1))) (setf (system-color newobj) (quote nil)) (setf (line-space newobj) 1) (setf (title newobj) nil) (setf (show-title? newobj) nil) (setf (show-page? newobj) nil) (setf (sheet-id newobj) nil) (setf (page-mode newobj) nil) newobj) (quote gf) 36 8)) t nil nil nil))) (when (fboundp (quote set-active)) (set-active box nil)) box) (let ((box (om-load-editor-box1 "perc Capoeira - Quando Eu Morrer, Disse Bezouro-cs.sdif" (quote sdiffile) (quote ((om-load-inputfun (quote input-funbox) "objs" "SELF" nil))) (om-make-point 39 27) (om-make-point 460 82) (let ((newobj (make-instance (quote sdiffile)))) (when newobj) newobj) "x" nil (pairlis (quote (winpos winsize)) (list (om-make-point 400 20) (om-make-point 370 280))) t nil nil t))) (when (fboundp (quote set-active)) (set-active box nil)) box) (let ((box (om-load-boxcall (quote genfun) "AS->OM" (quote as->om) (quote ((om-load-inputfun (quote input-funbox) "Analyse" "ANALYSE" nil) (om-load-inputfun (quote input-funbox) "vel min" "VMIN" 40) (om-load-inputfun (quote input-funbox) "vel max" "VMAX" 100) (om-load-inputfun (quote input-funbox) "delta" "DELTA" 5) (om-load-inputfun (quote input-funbox) "midic min" "MMIN" 4000) (om-load-inputfun (quote input-funbox) "midic max" "MMAX" 8600) (om-load-inputfun (quote input-funbox) "approx" "APPROX" 8) (om-load-inputfun (quote input-funbox) "poly. density" "NPOLY" 1))) (om-make-point 285 183) nil nil nil nil 1))) (when (fboundp (quote set-active)) (set-active box nil)) box) (let ((box (om-load-boxcall (quote bastype) "list11" (quote list) (quote nil) (om-make-point 574 115) (om-make-point 26 30) 1 "1" nil))) (when (fboundp (quote set-active)) (set-active box nil)) box) (let ((box (om-load-boxcall (quote bastype) "list1" (quote list) (quote nil) (om-make-point 606 116) (om-make-point 34 30) 127 "127" nil))) (when (fboundp (quote set-active)) (set-active box nil)) box) (let ((box (om-load-boxcall (quote bastype) "list2" (quote list) (quote nil) (om-make-point 647 116) (om-make-point 34 30) 100 "100" nil))) (when (fboundp (quote set-active)) (set-active box nil)) box) (let ((box (om-load-boxcall (quote bastype) "list3" (quote list) (quote nil) (om-make-point 687 116) (om-make-point 34 30) 300 "300" nil))) (when (fboundp (quote set-active)) (set-active box nil)) box) (let ((box (om-load-boxcall (quote bastype) "list4" (quote list) (quote nil) (om-make-point 724 117) (om-make-point 55 30) 10000 "10000" nil))) (when (fboundp (quote set-active)) (set-active box nil)) box) (let ((box (om-load-boxcall (quote bastype) "list5" (quote list) (quote nil) (om-make-point 780 125) (om-make-point 21 30) 8 "8" nil))) (when (fboundp (quote set-active)) (set-active box nil)) box) (let ((box (om-load-boxcall (quote bastype) "list6" (quote list) (quote nil) (om-make-point 818 128) (om-make-point 34 30) 10 "10" nil))) (when (fboundp (quote set-active)) (set-active box nil)) box) (let ((box (om-load-boxcall (quote bastype) "aux11" (quote t) (quote nil) (om-make-point 1315 41) (om-make-point 21 23) 0 "0" nil))) (when (fboundp (quote set-active)) (set-active box nil)) box) (let ((box (om-load-boxcomment "comment3" (om-make-point 132 19) (quote " if  pitchbend setup  range = 1") "" (om-make-point 1219 145) nil (om-make-color 0 0 0) (om-make-font "Helvetica" 9 :family "Helvetica" :style (quote (:plain)) :mode (quote nil))))) (when (fboundp (quote set-active)) (set-active box nil)) box) (let ((box (om-load-boxcall (quote bastype) "aux4" (quote t) (quote nil) (om-make-point 1250 42) (om-make-point 58 29) (list 1 2 3 4) "(1 2 3 4)" nil))) (when (fboundp (quote set-active)) (set-active box nil)) box) (let ((box (om-load-boxcall (quote bastype) "aux3" (quote t) (quote nil) (om-make-point 1128 40) (om-make-point 108 27) (list 0 1024 2048 3072) "(0 1024 2048 3072)" nil))) (when (fboundp (quote set-active)) (set-active box nil)) box) (let ((box (om-load-boxcall (quote genfun) "PITCHWHEEL" (quote pitchwheel) (quote ((om-load-inputfun (quote input-funbox) "wheel value" "VALUES" 0) (om-load-inputfun (quote input-funbox) "channel" "CHANS" 1) (om-load-inputfun (quote input-funbox) "optional port" "PORT" 0))) (om-make-point 1195 89) (om-make-point 163 53) nil nil nil 1))) (when (fboundp (quote set-active)) (set-active box nil)) box) (let ((box (om-load-boxcall (quote genfun) "PGMOUT" (quote pgmout) (quote ((om-load-inputfun (quote input-funbox) "program number" "PROG" 1) (om-load-inputfun (quote input-funbox) "channel" "CHANS" 1) (om-load-inputfun (quote input-funbox) "optional port" "PORT" 0))) (om-make-point 1251 226) nil nil nil nil 1))) (when (fboundp (quote set-active)) (set-active box nil)) box) (let ((box (om-load-boxcall (quote bastype) "aux31" (quote t) (quote nil) (om-make-point 1201 192) (om-make-point 28 30) 50 "50" nil))) (when (fboundp (quote set-active)) (set-active box nil)) box) (let ((box (om-load-boxcall (quote bastype) "list" (quote list) (quote nil) (om-make-point 1253 166) (om-make-point 59 24) (list 1 2 3 4) "(1 2 3 4)" nil))) (when (fboundp (quote set-active)) (set-active box nil)) box) (let ((box (om-load-boxcomment "comment1" (om-make-point 253 55) (quote "HARMONICITY OF EACH CHORD measured by means of virtual fundamentals: the closer the virtual fundamental is from the actual fundamentals, the more harmonic the chord will be") "" (om-make-point 875 182) nil (om-make-color 0 0 0) (om-make-font "Helvetica" 9 :family "Helvetica" :style (quote (:plain)) :mode (quote nil))))) (when (fboundp (quote set-active)) (set-active box nil)) box) (let ((box (om-load-boxcomment "comment" (om-make-point 73 59) (quote "Fineberg punha 10 (dens.)") "" (om-make-point 808 74) nil (om-make-color 0 0 0) (om-make-font "Verdana" 12 :family "Verdana" :style (quote (:plain)) :mode (quote nil))))) (when (fboundp (quote set-active)) (set-active box nil)) box) (let ((box (om-load-boxcomment "comment2" (om-make-point 73 86) (quote "Fineberg punha 10000 (midic max.)") "" (om-make-point 725 24) nil (om-make-color 0 0 0) (om-make-font "Verdana" 12 :family "Verdana" :style (quote (:plain)) :mode (quote nil))))) (when (fboundp (quote set-active)) (set-active box nil)) box))) (quote ((13 0 11 0 nil 0) (12 0 11 1 nil 0) (23 1 13 0 nil 2) (12 0 13 2 nil 0) (11 0 15 0 nil 0) (14 0 15 2 nil 0) (23 3 17 0 nil 0) (23 2 19 0 nil 0) (18 0 19 1 nil 0) (23 4 22 0 nil 0) (21 0 22 1 nil 0) (20 0 22 2 nil 0) (26 0 23 0 nil 0) (15 0 24 1 nil 0) (19 0 24 2 nil 0) (16 0 24 3 nil 0) (22 0 24 4 nil 0) (23 6 24 6 nil 0) (25 0 26 0 nil 0) (27 0 26 1 nil 0) (28 0 26 2 nil 0) (29 0 26 3 nil 0) (30 0 26 4 nil 0) (31 0 26 5 nil 0) (32 0 26 6 nil 0) (33 0 26 7 nil 0) (37 0 38 0 nil 0) (36 0 38 1 nil 0) (34 0 38 2 nil 0) (40 0 39 0 nil 0) (41 0 39 1 nil 0))) nil 6.16))
