; OM File Header - Saved 2020/02/11 20:53:59
; (6.16 :patc (om-make-point 10 10) (om-make-point 52 42) (om-make-point 1255 691) "" 183 0 "2013/10/07 12:49:03" "2020/02/11 20:53:59")
; End File Header
; External resources 
; (list (list (quote :sound) "#P\"C:../../../../in-files/Bassclarinet1.aif\""))
(in-package :om)(load-lib-for (quote nil))(setf *om-current-persistent* (om-load-patch1 "envelope para bpf e para um chord-seq - so com numeros absolutos" (quote ((let ((box (om-load-boxcall (quote abstraction) "Orq. 5 reg.=>15ch." (om-load-patch-abs1 "Orq. 5 reg.=>15ch." (quote ((let ((box (om-load-boxcomment "comment 5" (om-make-point 423 52) (quote "<= o 4o omloop encaminha o midi ch 1 (correspondente ao registro sub-grave) aos midi chs 1 a 3") "" (om-make-point 118 412) nil (om-make-color 0 0 0) (om-make-font "Verdana" 12 :family "Verdana" :style (quote (:plain)) :mode (quote nil))))) (when (fboundp (quote set-active)) (set-active box nil)) box) (let ((box (om-load-boxwithed1 (quote box-with-win) "omloop5" (quote omloop) (quote ((om-load-inputfun (quote input-funbox) "" "input" nil))) (om-make-point 60 403) nil nil nil (list (let ((box (om-load-boxcall (quote bastype) "list 5" (quote list) (quote nil) (om-make-point 238 104) (om-make-point 21 30) 1 "1" nil))) (when (fboundp (quote set-active)) (set-active box nil)) box) (let ((box (om-load-boxcall (quote lispfun) "NTHCDR" (quote nthcdr) (quote ((om-load-inputfun (quote input-funbox) "ORIG-N" "ORIG-N" nil) (om-load-inputfun (quote input-funbox) "ORIG-LIST" "ORIG-LIST" nil))) (om-make-point 237 138) nil nil "l" nil 1))) (when (fboundp (quote set-active)) (set-active box nil)) box) (let ((box (om-load-boxcall (quote genfun) "inlist" (quote listloop) (quote ((om-load-inputfun (quote input-funbox) "list to iterate" "LIST" nil) (om-load-inputfun (quote input-funbox) "step function" "BY" nil))) (om-make-point 173 182) (om-make-point 93 59) nil nil nil 1))) (when (fboundp (quote set-active)) (set-active box nil)) box) (let ((box (om-load-boxcall (quote genfun) "collect" (quote listing) (quote ((om-load-inputfun (quote input-funbox) "anything" "DATA" nil))) (om-make-point 446 239) nil nil nil nil 3))) (when (fboundp (quote set-active)) (set-active box nil)) box) (let ((box (om-load-boxcall (quote bastype) "list 3" (quote list) (quote nil) (om-make-point 129 240) (om-make-point 21 30) 1 "1" nil))) (when (fboundp (quote set-active)) (set-active box nil)) box) (let ((box (om-load-boxcall (quote bastype) "list 2" (quote list) (quote nil) (om-make-point 77 283) (om-make-point 27 30) 3 "3" nil))) (when (fboundp (quote set-active)) (set-active box nil)) box) (let ((box (om-load-boxcall (quote bastype) "list" (quote list) (quote nil) (om-make-point 49 280) (om-make-point 21 30) 1 "1" nil))) (when (fboundp (quote set-active)) (set-active box nil)) box) (let ((box (om-load-boxcall (quote genfun) "OM-RANDOM" (quote om-random) (quote ((om-load-inputfun (quote input-funbox) "min" "LOW" 0) (om-load-inputfun (quote input-funbox) "max" "HIGH" 1))) (om-make-point 41 313) nil nil nil nil 1))) (when (fboundp (quote set-active)) (set-active box nil)) box) (let ((box (om-load-boxcall (quote lispfun) "SUBST" (quote subst) (quote ((om-load-inputfun (quote input-funbox) "NEW" "NEW" nil) (om-load-inputfun (quote input-funbox) "OLD" "OLD" nil) (om-load-inputfun (quote input-funbox) "TREE" "TREE" nil))) (om-make-point 82 383) (om-make-point 127 43) nil nil nil 1))) (when (fboundp (quote set-active)) (set-active box nil)) box) (let ((box (om-load-boxin "input" 0 (om-make-point 374 54) "" nil nil nil))) (when (fboundp (quote set-active)) (set-active box nil)) box) (let ((box (om-load-seqbox "finally" (quote finaldo) (quote ((om-load-inputfun (quote input-funbox) "value to return" "VAL" nil) (om-load-inputfun (quote input-funbox) "other values" "MORE" nil))) (om-make-point 429 469) nil nil nil 0))) (when (fboundp (quote set-active)) (set-active box nil)) box) (let ((box (om-load-seqbox "eachTime" (quote loopdo) (quote ((om-load-inputfun (quote input-funbox) "operations to do" "OP" nil))) (om-make-point 355 305) nil nil nil 0))) (when (fboundp (quote set-active)) (set-active box nil)) box)) (quote ((0 0 1 0 nil 0) (9 0 2 0 ((om-make-point 390 111) (om-make-point 390 150) (om-make-point 230 72) (om-make-point 204 182)) 0) (1 0 2 1 nil 0) (8 0 3 0 nil 0) (6 0 7 0 nil 0) (5 0 7 1 nil 0) (7 0 8 0 nil 0) (4 0 8 1 nil 0) (2 0 8 2 nil 0) (8 0 10 0 nil 0) (3 1 10 1 nil 0) (3 0 11 0 nil 0))) 2 "omloop5" nil))) (when (fboundp (quote set-active)) (set-active box nil)) box) (let ((box (om-load-boxcomment "comment 4" (om-make-point 423 52) (quote "<= o 4o omloop encaminha o midi ch 2 (correspondente ao registro sub-grave) aos midi chs 4 a 6") "" (om-make-point 150 336) nil (om-make-color 0 0 0) (om-make-font "Verdana" 12 :family "Verdana" :style (quote (:plain)) :mode (quote nil))))) (when (fboundp (quote set-active)) (set-active box nil)) box) (let ((box (om-load-boxwithed1 (quote box-with-win) "omloop4" (quote omloop) (quote ((om-load-inputfun (quote input-funbox) "" "input" nil))) (om-make-point 87 330) nil nil nil (list (let ((box (om-load-boxcall (quote bastype) "list 5" (quote list) (quote nil) (om-make-point 238 104) (om-make-point 21 30) 1 "1" nil))) (when (fboundp (quote set-active)) (set-active box nil)) box) (let ((box (om-load-boxcall (quote lispfun) "NTHCDR" (quote nthcdr) (quote ((om-load-inputfun (quote input-funbox) "ORIG-N" "ORIG-N" nil) (om-load-inputfun (quote input-funbox) "ORIG-LIST" "ORIG-LIST" nil))) (om-make-point 237 138) nil nil "l" nil 1))) (when (fboundp (quote set-active)) (set-active box nil)) box) (let ((box (om-load-boxcall (quote genfun) "inlist" (quote listloop) (quote ((om-load-inputfun (quote input-funbox) "list to iterate" "LIST" nil) (om-load-inputfun (quote input-funbox) "step function" "BY" nil))) (om-make-point 173 182) (om-make-point 93 59) nil nil nil 1))) (when (fboundp (quote set-active)) (set-active box nil)) box) (let ((box (om-load-boxcall (quote genfun) "collect" (quote listing) (quote ((om-load-inputfun (quote input-funbox) "anything" "DATA" nil))) (om-make-point 446 239) nil nil nil nil 3))) (when (fboundp (quote set-active)) (set-active box nil)) box) (let ((box (om-load-boxcall (quote bastype) "list 3" (quote list) (quote nil) (om-make-point 129 240) (om-make-point 27 30) 2 "2" nil))) (when (fboundp (quote set-active)) (set-active box nil)) box) (let ((box (om-load-boxcall (quote bastype) "list 2" (quote list) (quote nil) (om-make-point 77 283) (om-make-point 27 30) 6 "6" nil))) (when (fboundp (quote set-active)) (set-active box nil)) box) (let ((box (om-load-boxcall (quote bastype) "list" (quote list) (quote nil) (om-make-point 49 280) (om-make-point 27 30) 4 "4" nil))) (when (fboundp (quote set-active)) (set-active box nil)) box) (let ((box (om-load-boxcall (quote genfun) "OM-RANDOM" (quote om-random) (quote ((om-load-inputfun (quote input-funbox) "min" "LOW" 0) (om-load-inputfun (quote input-funbox) "max" "HIGH" 1))) (om-make-point 41 313) nil nil nil nil 1))) (when (fboundp (quote set-active)) (set-active box nil)) box) (let ((box (om-load-boxcall (quote lispfun) "SUBST" (quote subst) (quote ((om-load-inputfun (quote input-funbox) "NEW" "NEW" nil) (om-load-inputfun (quote input-funbox) "OLD" "OLD" nil) (om-load-inputfun (quote input-funbox) "TREE" "TREE" nil))) (om-make-point 82 383) (om-make-point 127 43) nil nil nil 1))) (when (fboundp (quote set-active)) (set-active box nil)) box) (let ((box (om-load-boxin "input" 0 (om-make-point 374 54) "" nil nil nil))) (when (fboundp (quote set-active)) (set-active box nil)) box) (let ((box (om-load-seqbox "finally" (quote finaldo) (quote ((om-load-inputfun (quote input-funbox) "value to return" "VAL" nil) (om-load-inputfun (quote input-funbox) "other values" "MORE" nil))) (om-make-point 429 469) nil nil nil 0))) (when (fboundp (quote set-active)) (set-active box nil)) box) (let ((box (om-load-seqbox "eachTime" (quote loopdo) (quote ((om-load-inputfun (quote input-funbox) "operations to do" "OP" nil))) (om-make-point 355 305) nil nil nil 0))) (when (fboundp (quote set-active)) (set-active box nil)) box)) (quote ((0 0 1 0 nil 0) (9 0 2 0 ((om-make-point 390 111) (om-make-point 390 150) (om-make-point 230 72) (om-make-point 204 182)) 0) (1 0 2 1 nil 0) (8 0 3 0 nil 0) (6 0 7 0 nil 0) (5 0 7 1 nil 0) (7 0 8 0 nil 0) (4 0 8 1 nil 0) (2 0 8 2 nil 0) (8 0 10 0 nil 0) (3 1 10 1 nil 0) (3 0 11 0 nil 0))) 2 "omloop4" nil))) (when (fboundp (quote set-active)) (set-active box nil)) box) (let ((box (om-load-boxcomment "comment" (om-make-point 577 65) (quote "Atenção: os omloops devem ser encadeados SEMPRE do midi ch mais alto para o mais baixo, de forma a não alterar a divisão em registros original (e pretendida para a orquestração)") "" (om-make-point 396 507) nil (om-make-color 0 0 0) (om-make-font "Verdana" 14 :family "Verdana" :style (quote (:bold)) :mode (quote nil))))) (when (fboundp (quote set-active)) (set-active box nil)) box) (let ((box (om-load-boxcomment "comment 3" (om-make-point 423 52) (quote "<= o 3o omloop encaminha o midi ch 3 (correspondente ao registro médio-grave) aos midi chs 7 a 9") "" (om-make-point 153 263) nil (om-make-color 0 0 0) (om-make-font "Verdana" 12 :family "Verdana" :style (quote (:plain)) :mode (quote nil))))) (when (fboundp (quote set-active)) (set-active box nil)) box) (let ((box (om-load-boxcomment "comment 2" (om-make-point 423 52) (quote "<= o 1o omloop encaminha o midi ch 5 (correspondente ao registro mais agudo) aos midi chs 14 a 16") "" (om-make-point 155 126) nil (om-make-color 0 0 0) (om-make-font "Verdana" 12 :family "Verdana" :style (quote (:plain)) :mode (quote nil))))) (when (fboundp (quote set-active)) (set-active box nil)) box) (let ((box (om-load-boxcomment "comment" (om-make-point 423 52) (quote "<= o 2o omloop encaminha o midi ch 4 (correspondente ao registro médio) aos midi chs 11 e 13") "" (om-make-point 150 191) nil (om-make-color 0 0 0) (om-make-font "Verdana" 12 :family "Verdana" :style (quote (:plain)) :mode (quote nil))))) (when (fboundp (quote set-active)) (set-active box nil)) box) (let ((box (om-load-boxout "output" 0 (om-make-point 26 516) (quote ((om-load-inputfun (quote input-funbox) "" "out" nil))) "midich - conecte no input de midich do chord-seq" nil))) (when (fboundp (quote set-active)) (set-active box nil)) box) (let ((box (om-load-boxcall (quote genfun) "OM-SCALE" (quote om-scale) (quote ((om-load-inputfun (quote input-funbox) "number or list" "SELF" 1) (om-load-inputfun (quote input-funbox) "a number" "MINOUT" 0) (om-load-inputfun (quote input-funbox) "a number" "MAXOUT" 0))) (om-make-point 495 59) nil nil nil nil 1))) (when (fboundp (quote set-active)) (set-active box nil)) box) (let ((box (om-load-boxwithed1 (quote box-with-win) "omloop3" (quote omloop) (quote ((om-load-inputfun (quote input-funbox) "" "input" nil))) (om-make-point 89 257) nil nil nil (list (let ((box (om-load-boxcall (quote bastype) "list 5" (quote list) (quote nil) (om-make-point 238 104) (om-make-point 21 30) 1 "1" nil))) (when (fboundp (quote set-active)) (set-active box nil)) box) (let ((box (om-load-boxcall (quote lispfun) "NTHCDR" (quote nthcdr) (quote ((om-load-inputfun (quote input-funbox) "ORIG-N" "ORIG-N" nil) (om-load-inputfun (quote input-funbox) "ORIG-LIST" "ORIG-LIST" nil))) (om-make-point 237 138) nil nil "l" nil 1))) (when (fboundp (quote set-active)) (set-active box nil)) box) (let ((box (om-load-boxcall (quote genfun) "inlist" (quote listloop) (quote ((om-load-inputfun (quote input-funbox) "list to iterate" "LIST" nil) (om-load-inputfun (quote input-funbox) "step function" "BY" nil))) (om-make-point 173 182) (om-make-point 93 59) nil nil nil 1))) (when (fboundp (quote set-active)) (set-active box nil)) box) (let ((box (om-load-boxcall (quote genfun) "collect" (quote listing) (quote ((om-load-inputfun (quote input-funbox) "anything" "DATA" nil))) (om-make-point 446 239) nil nil nil nil 3))) (when (fboundp (quote set-active)) (set-active box nil)) box) (let ((box (om-load-boxcall (quote bastype) "list 3" (quote list) (quote nil) (om-make-point 129 240) (om-make-point 27 30) 3 "3" nil))) (when (fboundp (quote set-active)) (set-active box nil)) box) (let ((box (om-load-boxcall (quote bastype) "list 2" (quote list) (quote nil) (om-make-point 77 283) (om-make-point 27 30) 9 "9" nil))) (when (fboundp (quote set-active)) (set-active box nil)) box) (let ((box (om-load-boxcall (quote bastype) "list" (quote list) (quote nil) (om-make-point 49 280) (om-make-point 27 30) 7 "7" nil))) (when (fboundp (quote set-active)) (set-active box nil)) box) (let ((box (om-load-boxcall (quote genfun) "OM-RANDOM" (quote om-random) (quote ((om-load-inputfun (quote input-funbox) "min" "LOW" 0) (om-load-inputfun (quote input-funbox) "max" "HIGH" 1))) (om-make-point 41 313) nil nil nil nil 1))) (when (fboundp (quote set-active)) (set-active box nil)) box) (let ((box (om-load-boxcall (quote lispfun) "SUBST" (quote subst) (quote ((om-load-inputfun (quote input-funbox) "NEW" "NEW" nil) (om-load-inputfun (quote input-funbox) "OLD" "OLD" nil) (om-load-inputfun (quote input-funbox) "TREE" "TREE" nil))) (om-make-point 82 383) (om-make-point 127 43) nil nil nil 1))) (when (fboundp (quote set-active)) (set-active box nil)) box) (let ((box (om-load-boxin "input" 0 (om-make-point 374 54) "" nil nil nil))) (when (fboundp (quote set-active)) (set-active box nil)) box) (let ((box (om-load-seqbox "finally" (quote finaldo) (quote ((om-load-inputfun (quote input-funbox) "value to return" "VAL" nil) (om-load-inputfun (quote input-funbox) "other values" "MORE" nil))) (om-make-point 429 469) nil nil nil 0))) (when (fboundp (quote set-active)) (set-active box nil)) box) (let ((box (om-load-seqbox "eachTime" (quote loopdo) (quote ((om-load-inputfun (quote input-funbox) "operations to do" "OP" nil))) (om-make-point 355 305) nil nil nil 0))) (when (fboundp (quote set-active)) (set-active box nil)) box)) (quote ((0 0 1 0 nil 0) (9 0 2 0 ((om-make-point 390 111) (om-make-point 390 150) (om-make-point 230 72) (om-make-point 204 182)) 0) (1 0 2 1 nil 0) (8 0 3 0 nil 0) (6 0 7 0 nil 0) (5 0 7 1 nil 0) (7 0 8 0 nil 0) (4 0 8 1 nil 0) (2 0 8 2 nil 0) (8 0 10 0 nil 0) (3 1 10 1 nil 0) (3 0 11 0 nil 0))) 2 "omloop3" nil))) (when (fboundp (quote set-active)) (set-active box nil)) box) (let ((box (om-load-boxwithed1 (quote box-with-win) "omloop2" (quote omloop) (quote ((om-load-inputfun (quote input-funbox) "" "input" nil))) (om-make-point 91 182) nil nil nil (list (let ((box (om-load-boxcall (quote bastype) "list 5" (quote list) (quote nil) (om-make-point 238 104) (om-make-point 21 30) 1 "1" nil))) (when (fboundp (quote set-active)) (set-active box nil)) box) (let ((box (om-load-boxcall (quote lispfun) "NTHCDR" (quote nthcdr) (quote ((om-load-inputfun (quote input-funbox) "ORIG-N" "ORIG-N" nil) (om-load-inputfun (quote input-funbox) "ORIG-LIST" "ORIG-LIST" nil))) (om-make-point 237 138) nil nil "l" nil 1))) (when (fboundp (quote set-active)) (set-active box nil)) box) (let ((box (om-load-boxcall (quote genfun) "inlist" (quote listloop) (quote ((om-load-inputfun (quote input-funbox) "list to iterate" "LIST" nil) (om-load-inputfun (quote input-funbox) "step function" "BY" nil))) (om-make-point 173 182) (om-make-point 93 59) nil nil nil 1))) (when (fboundp (quote set-active)) (set-active box nil)) box) (let ((box (om-load-boxcall (quote genfun) "collect" (quote listing) (quote ((om-load-inputfun (quote input-funbox) "anything" "DATA" nil))) (om-make-point 446 239) nil nil nil nil 3))) (when (fboundp (quote set-active)) (set-active box nil)) box) (let ((box (om-load-boxcall (quote bastype) "list 3" (quote list) (quote nil) (om-make-point 129 240) (om-make-point 27 30) 4 "4" nil))) (when (fboundp (quote set-active)) (set-active box nil)) box) (let ((box (om-load-boxcall (quote bastype) "list 2" (quote list) (quote nil) (om-make-point 90 275) (om-make-point 34 30) 13 "13" nil))) (when (fboundp (quote set-active)) (set-active box nil)) box) (let ((box (om-load-boxcall (quote bastype) "list" (quote list) (quote nil) (om-make-point 49 280) (om-make-point 34 30) 11 "11" nil))) (when (fboundp (quote set-active)) (set-active box nil)) box) (let ((box (om-load-boxcall (quote genfun) "OM-RANDOM" (quote om-random) (quote ((om-load-inputfun (quote input-funbox) "min" "LOW" 0) (om-load-inputfun (quote input-funbox) "max" "HIGH" 1))) (om-make-point 41 313) nil nil nil nil 1))) (when (fboundp (quote set-active)) (set-active box nil)) box) (let ((box (om-load-boxcall (quote lispfun) "SUBST" (quote subst) (quote ((om-load-inputfun (quote input-funbox) "NEW" "NEW" nil) (om-load-inputfun (quote input-funbox) "OLD" "OLD" nil) (om-load-inputfun (quote input-funbox) "TREE" "TREE" nil))) (om-make-point 82 383) (om-make-point 127 43) nil nil nil 1))) (when (fboundp (quote set-active)) (set-active box nil)) box) (let ((box (om-load-boxin "input" 0 (om-make-point 374 54) "" nil nil nil))) (when (fboundp (quote set-active)) (set-active box nil)) box) (let ((box (om-load-seqbox "finally" (quote finaldo) (quote ((om-load-inputfun (quote input-funbox) "value to return" "VAL" nil) (om-load-inputfun (quote input-funbox) "other values" "MORE" nil))) (om-make-point 429 469) nil nil nil 0))) (when (fboundp (quote set-active)) (set-active box nil)) box) (let ((box (om-load-seqbox "eachTime" (quote loopdo) (quote ((om-load-inputfun (quote input-funbox) "operations to do" "OP" nil))) (om-make-point 355 305) nil nil nil 0))) (when (fboundp (quote set-active)) (set-active box nil)) box)) (quote ((0 0 1 0 nil 0) (9 0 2 0 ((om-make-point 390 111) (om-make-point 390 150) (om-make-point 230 72) (om-make-point 204 182)) 0) (1 0 2 1 nil 0) (8 0 3 0 nil 0) (6 0 7 0 nil 0) (5 0 7 1 nil 0) (7 0 8 0 nil 0) (4 0 8 1 nil 0) (2 0 8 2 nil 0) (8 0 10 0 nil 0) (3 1 10 1 nil 0) (3 0 11 0 nil 0))) 2 "omloop2" nil))) (when (fboundp (quote set-active)) (set-active box nil)) box) (let ((box (om-load-boxcall (quote genfun) "FLAT" (quote flat) (quote ((om-load-inputfun (quote input-funbox) "a list" "LST" nil))) (om-make-point 35 467) nil nil nil nil 1))) (when (fboundp (quote set-active)) (set-active box nil)) box) (let ((box (om-load-boxwithed1 (quote box-with-win) "omloop1" (quote omloop) (quote ((om-load-inputfun (quote input-funbox) "" "input" nil))) (om-make-point 98 102) nil nil nil (list (let ((box (om-load-boxcall (quote bastype) "list 5" (quote list) (quote nil) (om-make-point 238 104) (om-make-point 21 30) 1 "1" nil))) (when (fboundp (quote set-active)) (set-active box nil)) box) (let ((box (om-load-boxcall (quote lispfun) "NTHCDR" (quote nthcdr) (quote ((om-load-inputfun (quote input-funbox) "ORIG-N" "ORIG-N" nil) (om-load-inputfun (quote input-funbox) "ORIG-LIST" "ORIG-LIST" nil))) (om-make-point 237 138) nil nil "l" nil 1))) (when (fboundp (quote set-active)) (set-active box nil)) box) (let ((box (om-load-boxcall (quote genfun) "inlist" (quote listloop) (quote ((om-load-inputfun (quote input-funbox) "list to iterate" "LIST" nil) (om-load-inputfun (quote input-funbox) "step function" "BY" nil))) (om-make-point 173 182) (om-make-point 93 59) nil nil nil 1))) (when (fboundp (quote set-active)) (set-active box nil)) box) (let ((box (om-load-boxcall (quote genfun) "collect" (quote listing) (quote ((om-load-inputfun (quote input-funbox) "anything" "DATA" nil))) (om-make-point 446 239) nil nil nil nil 3))) (when (fboundp (quote set-active)) (set-active box nil)) box) (let ((box (om-load-boxcall (quote bastype) "list 3" (quote list) (quote nil) (om-make-point 129 240) (om-make-point 27 30) 5 "5" nil))) (when (fboundp (quote set-active)) (set-active box nil)) box) (let ((box (om-load-boxcall (quote bastype) "list 2" (quote list) (quote nil) (om-make-point 95 277) (om-make-point 34 30) 16 "16" nil))) (when (fboundp (quote set-active)) (set-active box nil)) box) (let ((box (om-load-boxcall (quote bastype) "list" (quote list) (quote nil) (om-make-point 49 280) (om-make-point 34 30) 14 "14" nil))) (when (fboundp (quote set-active)) (set-active box nil)) box) (let ((box (om-load-boxcall (quote genfun) "OM-RANDOM" (quote om-random) (quote ((om-load-inputfun (quote input-funbox) "min" "LOW" 0) (om-load-inputfun (quote input-funbox) "max" "HIGH" 1))) (om-make-point 41 313) nil nil nil nil 1))) (when (fboundp (quote set-active)) (set-active box nil)) box) (let ((box (om-load-boxcall (quote lispfun) "SUBST" (quote subst) (quote ((om-load-inputfun (quote input-funbox) "NEW" "NEW" nil) (om-load-inputfun (quote input-funbox) "OLD" "OLD" nil) (om-load-inputfun (quote input-funbox) "TREE" "TREE" nil))) (om-make-point 82 383) (om-make-point 127 43) nil nil nil 1))) (when (fboundp (quote set-active)) (set-active box nil)) box) (let ((box (om-load-boxin "input" 0 (om-make-point 374 54) "" nil nil nil))) (when (fboundp (quote set-active)) (set-active box nil)) box) (let ((box (om-load-seqbox "finally" (quote finaldo) (quote ((om-load-inputfun (quote input-funbox) "value to return" "VAL" nil) (om-load-inputfun (quote input-funbox) "other values" "MORE" nil))) (om-make-point 429 469) nil nil nil 0))) (when (fboundp (quote set-active)) (set-active box nil)) box) (let ((box (om-load-seqbox "eachTime" (quote loopdo) (quote ((om-load-inputfun (quote input-funbox) "operations to do" "OP" nil))) (om-make-point 355 305) nil nil nil 0))) (when (fboundp (quote set-active)) (set-active box nil)) box)) (quote ((0 0 1 0 nil 0) (9 0 2 0 ((om-make-point 390 111) (om-make-point 390 150) (om-make-point 230 72) (om-make-point 204 182)) 0) (1 0 2 1 nil 0) (8 0 3 0 nil 0) (6 0 7 0 nil 0) (5 0 7 1 nil 0) (7 0 8 0 nil 0) (4 0 8 1 nil 0) (2 0 8 2 nil 0) (8 0 10 0 nil 0) (3 1 10 1 nil 0) (3 0 11 0 nil 0))) 2 "omloop1" nil))) (when (fboundp (quote set-active)) (set-active box nil)) box) (let ((box (om-load-boxcall (quote bastype) "list 2" (quote list) (quote nil) (om-make-point 575 19) (om-make-point 27 30) 5 "5" nil))) (when (fboundp (quote set-active)) (set-active box nil)) box) (let ((box (om-load-boxcall (quote bastype) "list" (quote list) (quote nil) (om-make-point 554 19) (om-make-point 21 30) 1 "1" nil))) (when (fboundp (quote set-active)) (set-active box nil)) box) (let ((box (om-load-boxcall (quote genfun) "OM-ROUND" (quote om-round) (quote ((om-load-inputfun (quote input-funbox) "number or list" "N" 1))) (om-make-point 410 62) nil nil nil nil 1))) (when (fboundp (quote set-active)) (set-active box nil)) box) (let ((box (om-load-boxin "midics - ponha aqui o output de midics da secao A" 0 (om-make-point 108 2) "" "midics - ponha aqui o output de midics da secao A" nil nil))) (when (fboundp (quote set-active)) (set-active box nil)) box))) (quote ((3 1 1 0 nil 0) (10 1 3 0 nil 0) (12 0 8 0 nil 0) (17 0 9 0 nil 0) (15 0 9 1 nil 0) (14 0 9 2 nil 0) (11 1 10 0 nil 0) (13 1 11 0 nil 0) (1 1 12 0 nil 0) (16 0 13 0 nil 0) (9 0 16 0 nil 0))) 6.16 nil "" (om-make-point 200 200) (om-make-point 500 400)) (quote ((om-load-inputfun (quote input-funbox) "" "midics - ponha aqui o output de midics da secao A" nil))) (om-make-point 925 455) nil (list (list 3 3 3 1 1 2 6 3 1 3 6 1 3 1 2 3 3 2 3 2 2 1 1 5 1 5 2 3 2 4 6 1 1 4 4 6 3 3 2 9 4 3 4 5 6 1 9 6 8 12 2 2 6 3 4 5 1 5 3 1 3 1 3 2 1 5 1 3 4 4 4 5 1 6 9 1 6 7 4 9 6 7 5 15 5 13 2 6 7 5 4 1 3 5 3 8 1 5 3 5 6 6 2 3 3 3 5 2 4 1 2 2 2 8 3 3 4 6 3 4 4 2 1 1 2 6 3 2 2 1 4 5 6 4 3 4 3 3 2 3 2 4 3 3 3 5 3 3 1 2 2 2 3 3 1 2 5 2 2 2 3 3 1 2 2 1 1 1 3 2 3 1 1 3 2 1 6 1 3 3 1 3 4 6 3 2 1 2 3 3 3 2 3 2 2 1 2 1 3 3 3 2 3 2 1 1 2 2 2 2 3 1 1 1 1 2 2 3 2 2 1 3 2)) nil "Orq. 5 reg.=>15ch."))) (when (fboundp (quote set-active)) (set-active box nil)) box) (let ((box (om-load-boxcall (quote abstraction) "Orq. 5 reg.=>8ch." (om-load-patch-abs1 "Orq. 5 reg.=>8ch." (quote ((let ((box (om-load-boxcomment "comment 5" (om-make-point 423 52) (quote "<= o 4o omloop encaminha o midi ch 1 (correspondente ao registro sub-grave) aos midi chs 1") "" (om-make-point 118 412) nil (om-make-color 0 0 0) (om-make-font "Verdana" 12 :family "Verdana" :style (quote (:plain)) :mode (quote nil))))) (when (fboundp (quote set-active)) (set-active box nil)) box) (let ((box (om-load-boxwithed1 (quote box-with-win) "omloop5" (quote omloop) (quote ((om-load-inputfun (quote input-funbox) "" "input" nil))) (om-make-point 60 403) nil nil nil (list (let ((box (om-load-boxcall (quote bastype) "list 5" (quote list) (quote nil) (om-make-point 238 104) (om-make-point 21 30) 1 "1" nil))) (when (fboundp (quote set-active)) (set-active box nil)) box) (let ((box (om-load-boxcall (quote lispfun) "NTHCDR" (quote nthcdr) (quote ((om-load-inputfun (quote input-funbox) "ORIG-N" "ORIG-N" nil) (om-load-inputfun (quote input-funbox) "ORIG-LIST" "ORIG-LIST" nil))) (om-make-point 237 138) nil nil "l" nil 1))) (when (fboundp (quote set-active)) (set-active box nil)) box) (let ((box (om-load-boxcall (quote genfun) "inlist" (quote listloop) (quote ((om-load-inputfun (quote input-funbox) "list to iterate" "LIST" nil) (om-load-inputfun (quote input-funbox) "step function" "BY" nil))) (om-make-point 173 182) (om-make-point 93 59) nil nil nil 1))) (when (fboundp (quote set-active)) (set-active box nil)) box) (let ((box (om-load-boxcall (quote genfun) "collect" (quote listing) (quote ((om-load-inputfun (quote input-funbox) "anything" "DATA" nil))) (om-make-point 446 239) nil nil nil nil 3))) (when (fboundp (quote set-active)) (set-active box nil)) box) (let ((box (om-load-boxcall (quote bastype) "list 3" (quote list) (quote nil) (om-make-point 129 240) (om-make-point 21 30) 1 "1" nil))) (when (fboundp (quote set-active)) (set-active box nil)) box) (let ((box (om-load-boxcall (quote bastype) "list 2" (quote list) (quote nil) (om-make-point 77 283) (om-make-point 27 30) 1 "1" nil))) (when (fboundp (quote set-active)) (set-active box nil)) box) (let ((box (om-load-boxcall (quote bastype) "list" (quote list) (quote nil) (om-make-point 49 280) (om-make-point 21 30) 1 "1" nil))) (when (fboundp (quote set-active)) (set-active box nil)) box) (let ((box (om-load-boxcall (quote genfun) "OM-RANDOM" (quote om-random) (quote ((om-load-inputfun (quote input-funbox) "min" "LOW" 0) (om-load-inputfun (quote input-funbox) "max" "HIGH" 1))) (om-make-point 41 313) nil nil nil nil 1))) (when (fboundp (quote set-active)) (set-active box nil)) box) (let ((box (om-load-boxcall (quote lispfun) "SUBST" (quote subst) (quote ((om-load-inputfun (quote input-funbox) "NEW" "NEW" nil) (om-load-inputfun (quote input-funbox) "OLD" "OLD" nil) (om-load-inputfun (quote input-funbox) "TREE" "TREE" nil))) (om-make-point 82 383) (om-make-point 127 43) nil nil nil 1))) (when (fboundp (quote set-active)) (set-active box nil)) box) (let ((box (om-load-boxin "input" 0 (om-make-point 374 54) "" nil nil nil))) (when (fboundp (quote set-active)) (set-active box nil)) box) (let ((box (om-load-seqbox "finally" (quote finaldo) (quote ((om-load-inputfun (quote input-funbox) "value to return" "VAL" nil) (om-load-inputfun (quote input-funbox) "other values" "MORE" nil))) (om-make-point 429 469) nil nil nil 0))) (when (fboundp (quote set-active)) (set-active box nil)) box) (let ((box (om-load-seqbox "eachTime" (quote loopdo) (quote ((om-load-inputfun (quote input-funbox) "operations to do" "OP" nil))) (om-make-point 355 305) nil nil nil 0))) (when (fboundp (quote set-active)) (set-active box nil)) box)) (quote ((0 0 1 0 nil 0) (9 0 2 0 ((om-make-point 390 111) (om-make-point 390 150) (om-make-point 230 72) (om-make-point 204 182)) 0) (1 0 2 1 nil 0) (8 0 3 0 nil 0) (6 0 7 0 nil 0) (5 0 7 1 nil 0) (7 0 8 0 nil 0) (4 0 8 1 nil 0) (2 0 8 2 nil 0) (8 0 10 0 nil 0) (3 1 10 1 nil 0) (3 0 11 0 nil 0))) 2 "omloop5" nil))) (when (fboundp (quote set-active)) (set-active box nil)) box) (let ((box (om-load-boxcomment "comment 4" (om-make-point 423 52) (quote "<= o 4o omloop encaminha o midi ch 2 (correspondente ao registro grave) aos midi chs 2") "" (om-make-point 150 336) nil (om-make-color 0 0 0) (om-make-font "Verdana" 12 :family "Verdana" :style (quote (:plain)) :mode (quote nil))))) (when (fboundp (quote set-active)) (set-active box nil)) box) (let ((box (om-load-boxwithed1 (quote box-with-win) "omloop4" (quote omloop) (quote ((om-load-inputfun (quote input-funbox) "" "input" nil))) (om-make-point 87 330) nil nil nil (list (let ((box (om-load-boxcall (quote bastype) "list 5" (quote list) (quote nil) (om-make-point 238 104) (om-make-point 21 30) 1 "1" nil))) (when (fboundp (quote set-active)) (set-active box nil)) box) (let ((box (om-load-boxcall (quote lispfun) "NTHCDR" (quote nthcdr) (quote ((om-load-inputfun (quote input-funbox) "ORIG-N" "ORIG-N" nil) (om-load-inputfun (quote input-funbox) "ORIG-LIST" "ORIG-LIST" nil))) (om-make-point 237 138) nil nil "l" nil 1))) (when (fboundp (quote set-active)) (set-active box nil)) box) (let ((box (om-load-boxcall (quote genfun) "inlist" (quote listloop) (quote ((om-load-inputfun (quote input-funbox) "list to iterate" "LIST" nil) (om-load-inputfun (quote input-funbox) "step function" "BY" nil))) (om-make-point 173 182) (om-make-point 93 59) nil nil nil 1))) (when (fboundp (quote set-active)) (set-active box nil)) box) (let ((box (om-load-boxcall (quote genfun) "collect" (quote listing) (quote ((om-load-inputfun (quote input-funbox) "anything" "DATA" nil))) (om-make-point 446 239) nil nil nil nil 3))) (when (fboundp (quote set-active)) (set-active box nil)) box) (let ((box (om-load-boxcall (quote bastype) "list 3" (quote list) (quote nil) (om-make-point 129 240) (om-make-point 27 30) 2 "2" nil))) (when (fboundp (quote set-active)) (set-active box nil)) box) (let ((box (om-load-boxcall (quote bastype) "list 2" (quote list) (quote nil) (om-make-point 77 283) (om-make-point 27 30) 2 "2" nil))) (when (fboundp (quote set-active)) (set-active box nil)) box) (let ((box (om-load-boxcall (quote bastype) "list" (quote list) (quote nil) (om-make-point 49 280) (om-make-point 27 30) 2 "2" nil))) (when (fboundp (quote set-active)) (set-active box nil)) box) (let ((box (om-load-boxcall (quote genfun) "OM-RANDOM" (quote om-random) (quote ((om-load-inputfun (quote input-funbox) "min" "LOW" 0) (om-load-inputfun (quote input-funbox) "max" "HIGH" 1))) (om-make-point 41 313) nil nil nil nil 1))) (when (fboundp (quote set-active)) (set-active box nil)) box) (let ((box (om-load-boxcall (quote lispfun) "SUBST" (quote subst) (quote ((om-load-inputfun (quote input-funbox) "NEW" "NEW" nil) (om-load-inputfun (quote input-funbox) "OLD" "OLD" nil) (om-load-inputfun (quote input-funbox) "TREE" "TREE" nil))) (om-make-point 82 383) (om-make-point 127 43) nil nil nil 1))) (when (fboundp (quote set-active)) (set-active box nil)) box) (let ((box (om-load-boxin "input" 0 (om-make-point 374 54) "" nil nil nil))) (when (fboundp (quote set-active)) (set-active box nil)) box) (let ((box (om-load-seqbox "finally" (quote finaldo) (quote ((om-load-inputfun (quote input-funbox) "value to return" "VAL" nil) (om-load-inputfun (quote input-funbox) "other values" "MORE" nil))) (om-make-point 429 469) nil nil nil 0))) (when (fboundp (quote set-active)) (set-active box nil)) box) (let ((box (om-load-seqbox "eachTime" (quote loopdo) (quote ((om-load-inputfun (quote input-funbox) "operations to do" "OP" nil))) (om-make-point 355 305) nil nil nil 0))) (when (fboundp (quote set-active)) (set-active box nil)) box)) (quote ((0 0 1 0 nil 0) (9 0 2 0 ((om-make-point 390 111) (om-make-point 390 150) (om-make-point 230 72) (om-make-point 204 182)) 0) (1 0 2 1 nil 0) (8 0 3 0 nil 0) (6 0 7 0 nil 0) (5 0 7 1 nil 0) (7 0 8 0 nil 0) (4 0 8 1 nil 0) (2 0 8 2 nil 0) (8 0 10 0 nil 0) (3 1 10 1 nil 0) (3 0 11 0 nil 0))) 2 "omloop4" nil))) (when (fboundp (quote set-active)) (set-active box nil)) box) (let ((box (om-load-boxcomment "comment" (om-make-point 577 65) (quote "Atenção: os omloops devem ser encadeados SEMPRE do midi ch mais alto para o mais baixo, de forma a não alterar a divisão em registros original (e pretendida para a orquestração)") "" (om-make-point 396 507) nil (om-make-color 0 0 0) (om-make-font "Verdana" 14 :family "Verdana" :style (quote (:bold)) :mode (quote nil))))) (when (fboundp (quote set-active)) (set-active box nil)) box) (let ((box (om-load-boxcomment "comment 3" (om-make-point 423 52) (quote "<= o 3o omloop encaminha o midi ch 3 (correspondente ao registro médio-grave) aos midi chs 3 a 4") "" (om-make-point 153 263) nil (om-make-color 0 0 0) (om-make-font "Verdana" 12 :family "Verdana" :style (quote (:plain)) :mode (quote nil))))) (when (fboundp (quote set-active)) (set-active box nil)) box) (let ((box (om-load-boxcomment "comment 2" (om-make-point 423 52) (quote "<= o 1o omloop encaminha o midi ch 5 (correspondente ao registro mais agudo) aos midi chs 7 a 8") "" (om-make-point 155 126) nil (om-make-color 0 0 0) (om-make-font "Verdana" 12 :family "Verdana" :style (quote (:plain)) :mode (quote nil))))) (when (fboundp (quote set-active)) (set-active box nil)) box) (let ((box (om-load-boxcomment "comment" (om-make-point 423 52) (quote "<= o 2o omloop encaminha o midi ch 4 (correspondente ao registro médio) aos midi chs 5 a 6") "" (om-make-point 150 191) nil (om-make-color 0 0 0) (om-make-font "Verdana" 12 :family "Verdana" :style (quote (:plain)) :mode (quote nil))))) (when (fboundp (quote set-active)) (set-active box nil)) box) (let ((box (om-load-boxout "output" 0 (om-make-point 26 516) (quote ((om-load-inputfun (quote input-funbox) "" "out" nil))) "midich - conecte no input de midich do chord-seq" nil))) (when (fboundp (quote set-active)) (set-active box nil)) box) (let ((box (om-load-boxcall (quote genfun) "OM-SCALE" (quote om-scale) (quote ((om-load-inputfun (quote input-funbox) "number or list" "SELF" 1) (om-load-inputfun (quote input-funbox) "a number" "MINOUT" 0) (om-load-inputfun (quote input-funbox) "a number" "MAXOUT" 0))) (om-make-point 495 59) nil nil nil nil 1))) (when (fboundp (quote set-active)) (set-active box nil)) box) (let ((box (om-load-boxwithed1 (quote box-with-win) "omloop3" (quote omloop) (quote ((om-load-inputfun (quote input-funbox) "" "input" nil))) (om-make-point 89 257) nil nil nil (list (let ((box (om-load-boxcall (quote bastype) "list 5" (quote list) (quote nil) (om-make-point 238 104) (om-make-point 21 30) 1 "1" nil))) (when (fboundp (quote set-active)) (set-active box nil)) box) (let ((box (om-load-boxcall (quote lispfun) "NTHCDR" (quote nthcdr) (quote ((om-load-inputfun (quote input-funbox) "ORIG-N" "ORIG-N" nil) (om-load-inputfun (quote input-funbox) "ORIG-LIST" "ORIG-LIST" nil))) (om-make-point 237 138) nil nil "l" nil 1))) (when (fboundp (quote set-active)) (set-active box nil)) box) (let ((box (om-load-boxcall (quote genfun) "inlist" (quote listloop) (quote ((om-load-inputfun (quote input-funbox) "list to iterate" "LIST" nil) (om-load-inputfun (quote input-funbox) "step function" "BY" nil))) (om-make-point 173 182) (om-make-point 93 59) nil nil nil 1))) (when (fboundp (quote set-active)) (set-active box nil)) box) (let ((box (om-load-boxcall (quote genfun) "collect" (quote listing) (quote ((om-load-inputfun (quote input-funbox) "anything" "DATA" nil))) (om-make-point 446 239) nil nil nil nil 3))) (when (fboundp (quote set-active)) (set-active box nil)) box) (let ((box (om-load-boxcall (quote bastype) "list 3" (quote list) (quote nil) (om-make-point 129 240) (om-make-point 27 30) 3 "3" nil))) (when (fboundp (quote set-active)) (set-active box nil)) box) (let ((box (om-load-boxcall (quote bastype) "list 2" (quote list) (quote nil) (om-make-point 77 283) (om-make-point 27 30) 4 "4" nil))) (when (fboundp (quote set-active)) (set-active box nil)) box) (let ((box (om-load-boxcall (quote bastype) "list" (quote list) (quote nil) (om-make-point 49 280) (om-make-point 27 30) 3 "3" nil))) (when (fboundp (quote set-active)) (set-active box nil)) box) (let ((box (om-load-boxcall (quote genfun) "OM-RANDOM" (quote om-random) (quote ((om-load-inputfun (quote input-funbox) "min" "LOW" 0) (om-load-inputfun (quote input-funbox) "max" "HIGH" 1))) (om-make-point 41 313) nil nil nil nil 1))) (when (fboundp (quote set-active)) (set-active box nil)) box) (let ((box (om-load-boxcall (quote lispfun) "SUBST" (quote subst) (quote ((om-load-inputfun (quote input-funbox) "NEW" "NEW" nil) (om-load-inputfun (quote input-funbox) "OLD" "OLD" nil) (om-load-inputfun (quote input-funbox) "TREE" "TREE" nil))) (om-make-point 82 383) (om-make-point 127 43) nil nil nil 1))) (when (fboundp (quote set-active)) (set-active box nil)) box) (let ((box (om-load-boxin "input" 0 (om-make-point 374 54) "" nil nil nil))) (when (fboundp (quote set-active)) (set-active box nil)) box) (let ((box (om-load-seqbox "finally" (quote finaldo) (quote ((om-load-inputfun (quote input-funbox) "value to return" "VAL" nil) (om-load-inputfun (quote input-funbox) "other values" "MORE" nil))) (om-make-point 429 469) nil nil nil 0))) (when (fboundp (quote set-active)) (set-active box nil)) box) (let ((box (om-load-seqbox "eachTime" (quote loopdo) (quote ((om-load-inputfun (quote input-funbox) "operations to do" "OP" nil))) (om-make-point 355 305) nil nil nil 0))) (when (fboundp (quote set-active)) (set-active box nil)) box)) (quote ((0 0 1 0 nil 0) (9 0 2 0 ((om-make-point 390 111) (om-make-point 390 150) (om-make-point 230 72) (om-make-point 204 182)) 0) (1 0 2 1 nil 0) (8 0 3 0 nil 0) (6 0 7 0 nil 0) (5 0 7 1 nil 0) (7 0 8 0 nil 0) (4 0 8 1 nil 0) (2 0 8 2 nil 0) (8 0 10 0 nil 0) (3 1 10 1 nil 0) (3 0 11 0 nil 0))) 2 "omloop3" nil))) (when (fboundp (quote set-active)) (set-active box nil)) box) (let ((box (om-load-boxwithed1 (quote box-with-win) "omloop2" (quote omloop) (quote ((om-load-inputfun (quote input-funbox) "" "input" nil))) (om-make-point 91 182) nil nil nil (list (let ((box (om-load-boxcall (quote bastype) "list 5" (quote list) (quote nil) (om-make-point 238 104) (om-make-point 21 30) 1 "1" nil))) (when (fboundp (quote set-active)) (set-active box nil)) box) (let ((box (om-load-boxcall (quote lispfun) "NTHCDR" (quote nthcdr) (quote ((om-load-inputfun (quote input-funbox) "ORIG-N" "ORIG-N" nil) (om-load-inputfun (quote input-funbox) "ORIG-LIST" "ORIG-LIST" nil))) (om-make-point 237 138) nil nil "l" nil 1))) (when (fboundp (quote set-active)) (set-active box nil)) box) (let ((box (om-load-boxcall (quote genfun) "inlist" (quote listloop) (quote ((om-load-inputfun (quote input-funbox) "list to iterate" "LIST" nil) (om-load-inputfun (quote input-funbox) "step function" "BY" nil))) (om-make-point 173 182) (om-make-point 93 59) nil nil nil 1))) (when (fboundp (quote set-active)) (set-active box nil)) box) (let ((box (om-load-boxcall (quote genfun) "collect" (quote listing) (quote ((om-load-inputfun (quote input-funbox) "anything" "DATA" nil))) (om-make-point 446 239) nil nil nil nil 3))) (when (fboundp (quote set-active)) (set-active box nil)) box) (let ((box (om-load-boxcall (quote bastype) "list 3" (quote list) (quote nil) (om-make-point 129 240) (om-make-point 27 30) 4 "4" nil))) (when (fboundp (quote set-active)) (set-active box nil)) box) (let ((box (om-load-boxcall (quote bastype) "list 2" (quote list) (quote nil) (om-make-point 90 275) (om-make-point 27 30) 6 "6" nil))) (when (fboundp (quote set-active)) (set-active box nil)) box) (let ((box (om-load-boxcall (quote bastype) "list" (quote list) (quote nil) (om-make-point 49 280) (om-make-point 27 30) 5 "5" nil))) (when (fboundp (quote set-active)) (set-active box nil)) box) (let ((box (om-load-boxcall (quote genfun) "OM-RANDOM" (quote om-random) (quote ((om-load-inputfun (quote input-funbox) "min" "LOW" 0) (om-load-inputfun (quote input-funbox) "max" "HIGH" 1))) (om-make-point 41 313) nil nil nil nil 1))) (when (fboundp (quote set-active)) (set-active box nil)) box) (let ((box (om-load-boxcall (quote lispfun) "SUBST" (quote subst) (quote ((om-load-inputfun (quote input-funbox) "NEW" "NEW" nil) (om-load-inputfun (quote input-funbox) "OLD" "OLD" nil) (om-load-inputfun (quote input-funbox) "TREE" "TREE" nil))) (om-make-point 82 383) (om-make-point 127 43) nil nil nil 1))) (when (fboundp (quote set-active)) (set-active box nil)) box) (let ((box (om-load-boxin "input" 0 (om-make-point 374 54) "" nil nil nil))) (when (fboundp (quote set-active)) (set-active box nil)) box) (let ((box (om-load-seqbox "finally" (quote finaldo) (quote ((om-load-inputfun (quote input-funbox) "value to return" "VAL" nil) (om-load-inputfun (quote input-funbox) "other values" "MORE" nil))) (om-make-point 429 469) nil nil nil 0))) (when (fboundp (quote set-active)) (set-active box nil)) box) (let ((box (om-load-seqbox "eachTime" (quote loopdo) (quote ((om-load-inputfun (quote input-funbox) "operations to do" "OP" nil))) (om-make-point 355 305) nil nil nil 0))) (when (fboundp (quote set-active)) (set-active box nil)) box)) (quote ((0 0 1 0 nil 0) (9 0 2 0 ((om-make-point 390 111) (om-make-point 390 150) (om-make-point 230 72) (om-make-point 204 182)) 0) (1 0 2 1 nil 0) (8 0 3 0 nil 0) (6 0 7 0 nil 0) (5 0 7 1 nil 0) (7 0 8 0 nil 0) (4 0 8 1 nil 0) (2 0 8 2 nil 0) (8 0 10 0 nil 0) (3 1 10 1 nil 0) (3 0 11 0 nil 0))) 2 "omloop2" nil))) (when (fboundp (quote set-active)) (set-active box nil)) box) (let ((box (om-load-boxcall (quote genfun) "FLAT" (quote flat) (quote ((om-load-inputfun (quote input-funbox) "a list" "LST" nil))) (om-make-point 35 467) nil nil nil nil 1))) (when (fboundp (quote set-active)) (set-active box nil)) box) (let ((box (om-load-boxwithed1 (quote box-with-win) "omloop1" (quote omloop) (quote ((om-load-inputfun (quote input-funbox) "" "input" nil))) (om-make-point 98 102) nil nil nil (list (let ((box (om-load-boxcall (quote bastype) "list 5" (quote list) (quote nil) (om-make-point 238 104) (om-make-point 21 30) 1 "1" nil))) (when (fboundp (quote set-active)) (set-active box nil)) box) (let ((box (om-load-boxcall (quote lispfun) "NTHCDR" (quote nthcdr) (quote ((om-load-inputfun (quote input-funbox) "ORIG-N" "ORIG-N" nil) (om-load-inputfun (quote input-funbox) "ORIG-LIST" "ORIG-LIST" nil))) (om-make-point 237 138) nil nil "l" nil 1))) (when (fboundp (quote set-active)) (set-active box nil)) box) (let ((box (om-load-boxcall (quote genfun) "inlist" (quote listloop) (quote ((om-load-inputfun (quote input-funbox) "list to iterate" "LIST" nil) (om-load-inputfun (quote input-funbox) "step function" "BY" nil))) (om-make-point 173 182) (om-make-point 93 59) nil nil nil 1))) (when (fboundp (quote set-active)) (set-active box nil)) box) (let ((box (om-load-boxcall (quote genfun) "collect" (quote listing) (quote ((om-load-inputfun (quote input-funbox) "anything" "DATA" nil))) (om-make-point 446 239) nil nil nil nil 3))) (when (fboundp (quote set-active)) (set-active box nil)) box) (let ((box (om-load-boxcall (quote bastype) "list 3" (quote list) (quote nil) (om-make-point 129 240) (om-make-point 27 30) 5 "5" nil))) (when (fboundp (quote set-active)) (set-active box nil)) box) (let ((box (om-load-boxcall (quote bastype) "list 2" (quote list) (quote nil) (om-make-point 95 277) (om-make-point 27 30) 8 "8" nil))) (when (fboundp (quote set-active)) (set-active box nil)) box) (let ((box (om-load-boxcall (quote bastype) "list" (quote list) (quote nil) (om-make-point 49 280) (om-make-point 27 30) 7 "7" nil))) (when (fboundp (quote set-active)) (set-active box nil)) box) (let ((box (om-load-boxcall (quote genfun) "OM-RANDOM" (quote om-random) (quote ((om-load-inputfun (quote input-funbox) "min" "LOW" 0) (om-load-inputfun (quote input-funbox) "max" "HIGH" 1))) (om-make-point 41 313) nil nil nil nil 1))) (when (fboundp (quote set-active)) (set-active box nil)) box) (let ((box (om-load-boxcall (quote lispfun) "SUBST" (quote subst) (quote ((om-load-inputfun (quote input-funbox) "NEW" "NEW" nil) (om-load-inputfun (quote input-funbox) "OLD" "OLD" nil) (om-load-inputfun (quote input-funbox) "TREE" "TREE" nil))) (om-make-point 82 383) (om-make-point 127 43) nil nil nil 1))) (when (fboundp (quote set-active)) (set-active box nil)) box) (let ((box (om-load-boxin "input" 0 (om-make-point 374 54) "" nil nil nil))) (when (fboundp (quote set-active)) (set-active box nil)) box) (let ((box (om-load-seqbox "finally" (quote finaldo) (quote ((om-load-inputfun (quote input-funbox) "value to return" "VAL" nil) (om-load-inputfun (quote input-funbox) "other values" "MORE" nil))) (om-make-point 429 469) nil nil nil 0))) (when (fboundp (quote set-active)) (set-active box nil)) box) (let ((box (om-load-seqbox "eachTime" (quote loopdo) (quote ((om-load-inputfun (quote input-funbox) "operations to do" "OP" nil))) (om-make-point 355 305) nil nil nil 0))) (when (fboundp (quote set-active)) (set-active box nil)) box)) (quote ((0 0 1 0 nil 0) (9 0 2 0 ((om-make-point 390 111) (om-make-point 390 150) (om-make-point 230 72) (om-make-point 204 182)) 0) (1 0 2 1 nil 0) (8 0 3 0 nil 0) (6 0 7 0 nil 0) (5 0 7 1 nil 0) (7 0 8 0 nil 0) (4 0 8 1 nil 0) (2 0 8 2 nil 0) (8 0 10 0 nil 0) (3 1 10 1 nil 0) (3 0 11 0 nil 0))) 2 "omloop1" nil))) (when (fboundp (quote set-active)) (set-active box nil)) box) (let ((box (om-load-boxcall (quote bastype) "list 2" (quote list) (quote nil) (om-make-point 575 19) (om-make-point 27 30) 5 "5" nil))) (when (fboundp (quote set-active)) (set-active box nil)) box) (let ((box (om-load-boxcall (quote bastype) "list" (quote list) (quote nil) (om-make-point 554 19) (om-make-point 21 30) 1 "1" nil))) (when (fboundp (quote set-active)) (set-active box nil)) box) (let ((box (om-load-boxcall (quote genfun) "OM-ROUND" (quote om-round) (quote ((om-load-inputfun (quote input-funbox) "number or list" "N" 1))) (om-make-point 410 62) nil nil nil nil 1))) (when (fboundp (quote set-active)) (set-active box nil)) box) (let ((box (om-load-boxin "midics - ponha aqui o output de midics da secao A" 0 (om-make-point 108 2) "" "midics - ponha aqui o output de midics da secao A" nil nil))) (when (fboundp (quote set-active)) (set-active box nil)) box))) (quote ((3 1 1 0 nil 0) (10 1 3 0 nil 0) (12 0 8 0 nil 0) (17 0 9 0 nil 0) (15 0 9 1 nil 0) (14 0 9 2 nil 0) (11 1 10 0 nil 0) (13 1 11 0 nil 0) (1 1 12 0 nil 0) (16 0 13 0 nil 0) (9 0 16 0 nil 0))) 6.16 nil "" (om-make-point 200 200) (om-make-point 648 493)) (quote ((om-load-inputfun (quote input-funbox) "" "midics - ponha aqui o output de midics da secao A" nil))) (om-make-point 1082 586) nil (list (list 1 1 1 1 1 1 1 1 1 2 1 1 1 1 1 1 1 2 1 1 1 7 1 1 2 1 1 1 1 1 2 1 1 1 2 1 2 1 1 2 1 1 2 1 1 1 1 2 1 2 1 1 1 2 2 2 2 1 2 2 1 2 1 2 1 1 2 2 2 2 2 1 2 1 2 1 1 2 1 1 1 2 1 2 3 2 1 1 1 3 1 2 2 1 1 2 1 1 2 1 1 2 1 1 2 4 2 4 1 2 2 1 1 1 2 1 1 1 2 2 2 2 2 1 2 2 1 1 1 1 1 1 1 1 1 2 1 4 1 2 4 1 2 1 2 2 1 1 1 1 1 1 2 3 6 3 4 1 2 2 1 1 2 2 1 1 1 2 1 7 2 1 2 2 1 1 2 2 1 4 6 2 1 2 1 2 2 3 2 2 2 1 1 1 1 1 2 2 1 2 2 1 2 1 1 4 4 2 1 2 2 1 8 8 2 2 1 2 2 2 1 2)) nil "Orq. 5 reg.=>8ch."))) (when (fboundp (quote set-active)) (set-active box nil)) box) (let ((box (om-load-boxcall (quote abstraction) "Orq. 3 reg.=>8 ch." (om-load-patch-abs1 "Orq. 3 reg.=>8 ch." (quote ((let ((box (om-load-boxcomment "comment" (om-make-point 577 65) (quote "Atenção: os omloops devem ser encadeados SEMPRE do midi ch mais alto para o mais baixo, de forma a não alterar a divisão em registros original (e pretendida para a orquestração)") "" (om-make-point 163 425) nil (om-make-color 0 0 0) (om-make-font "Verdana" 14 :family "Verdana" :style (quote (:bold)) :mode (quote nil))))) (when (fboundp (quote set-active)) (set-active box nil)) box) (let ((box (om-load-boxcomment "comment 3" (om-make-point 423 52) (quote "<= o 3o omloop encaminha o midi ch 1 (correspondente ao registro grave) aos midi chs 1 a 2") "" (om-make-point 167 355) nil (om-make-color 0 0 0) (om-make-font "Verdana" 12 :family "Verdana" :style (quote (:plain)) :mode (quote nil))))) (when (fboundp (quote set-active)) (set-active box nil)) box) (let ((box (om-load-boxcomment "comment 2" (om-make-point 423 52) (quote "<= o 1o omloop encaminha o midi ch 3 (correspondente ao registro mais agudo) aos midi chs 6 a 8") "" (om-make-point 156 157) nil (om-make-color 0 0 0) (om-make-font "Verdana" 12 :family "Verdana" :style (quote (:plain)) :mode (quote nil))))) (when (fboundp (quote set-active)) (set-active box nil)) box) (let ((box (om-load-boxcomment "comment" (om-make-point 423 52) (quote "<= o 2o omloop encaminha o midi ch 2 (correspondente ao registro médio) aos midi chs 3 a 5") "" (om-make-point 163 256) nil (om-make-color 0 0 0) (om-make-font "Verdana" 12 :family "Verdana" :style (quote (:plain)) :mode (quote nil))))) (when (fboundp (quote set-active)) (set-active box nil)) box) (let ((box (om-load-boxout "output" 0 (om-make-point 26 516) (quote ((om-load-inputfun (quote input-funbox) "" "out" nil))) "midich - conecte no input de midich do chord-seq" nil))) (when (fboundp (quote set-active)) (set-active box nil)) box) (let ((box (om-load-boxcall (quote genfun) "OM-SCALE" (quote om-scale) (quote ((om-load-inputfun (quote input-funbox) "number or list" "SELF" 1) (om-load-inputfun (quote input-funbox) "a number" "MINOUT" 0) (om-load-inputfun (quote input-funbox) "a number" "MAXOUT" 0))) (om-make-point 495 59) nil nil nil nil 1))) (when (fboundp (quote set-active)) (set-active box nil)) box) (let ((box (om-load-boxwithed1 (quote box-with-win) "omloop3" (quote omloop) (quote ((om-load-inputfun (quote input-funbox) "" "input" nil))) (om-make-point 102 347) nil nil nil (list (let ((box (om-load-boxcall (quote bastype) "list 5" (quote list) (quote nil) (om-make-point 238 104) (om-make-point 21 30) 1 "1" nil))) (when (fboundp (quote set-active)) (set-active box nil)) box) (let ((box (om-load-boxcall (quote lispfun) "NTHCDR" (quote nthcdr) (quote ((om-load-inputfun (quote input-funbox) "ORIG-N" "ORIG-N" nil) (om-load-inputfun (quote input-funbox) "ORIG-LIST" "ORIG-LIST" nil))) (om-make-point 237 138) nil nil "l" nil 1))) (when (fboundp (quote set-active)) (set-active box nil)) box) (let ((box (om-load-boxcall (quote genfun) "inlist" (quote listloop) (quote ((om-load-inputfun (quote input-funbox) "list to iterate" "LIST" nil) (om-load-inputfun (quote input-funbox) "step function" "BY" nil))) (om-make-point 173 182) (om-make-point 93 59) nil nil nil 1))) (when (fboundp (quote set-active)) (set-active box nil)) box) (let ((box (om-load-boxcall (quote genfun) "collect" (quote listing) (quote ((om-load-inputfun (quote input-funbox) "anything" "DATA" nil))) (om-make-point 446 239) nil nil nil nil 3))) (when (fboundp (quote set-active)) (set-active box nil)) box) (let ((box (om-load-boxcall (quote bastype) "list 3" (quote list) (quote nil) (om-make-point 129 240) (om-make-point 21 30) 1 "1" nil))) (when (fboundp (quote set-active)) (set-active box nil)) box) (let ((box (om-load-boxcall (quote bastype) "list 2" (quote list) (quote nil) (om-make-point 77 283) (om-make-point 27 30) 2 "2" nil))) (when (fboundp (quote set-active)) (set-active box nil)) box) (let ((box (om-load-boxcall (quote bastype) "list" (quote list) (quote nil) (om-make-point 49 280) (om-make-point 21 30) 1 "1" nil))) (when (fboundp (quote set-active)) (set-active box nil)) box) (let ((box (om-load-boxcall (quote genfun) "OM-RANDOM" (quote om-random) (quote ((om-load-inputfun (quote input-funbox) "min" "LOW" 0) (om-load-inputfun (quote input-funbox) "max" "HIGH" 1))) (om-make-point 41 313) nil nil nil nil 1))) (when (fboundp (quote set-active)) (set-active box nil)) box) (let ((box (om-load-boxcall (quote lispfun) "SUBST" (quote subst) (quote ((om-load-inputfun (quote input-funbox) "NEW" "NEW" nil) (om-load-inputfun (quote input-funbox) "OLD" "OLD" nil) (om-load-inputfun (quote input-funbox) "TREE" "TREE" nil))) (om-make-point 82 383) (om-make-point 127 43) nil nil nil 1))) (when (fboundp (quote set-active)) (set-active box nil)) box) (let ((box (om-load-boxin "input" 0 (om-make-point 374 54) "" nil nil nil))) (when (fboundp (quote set-active)) (set-active box nil)) box) (let ((box (om-load-seqbox "finally" (quote finaldo) (quote ((om-load-inputfun (quote input-funbox) "value to return" "VAL" nil) (om-load-inputfun (quote input-funbox) "other values" "MORE" nil))) (om-make-point 429 469) nil nil nil 0))) (when (fboundp (quote set-active)) (set-active box nil)) box) (let ((box (om-load-seqbox "eachTime" (quote loopdo) (quote ((om-load-inputfun (quote input-funbox) "operations to do" "OP" nil))) (om-make-point 355 305) nil nil nil 0))) (when (fboundp (quote set-active)) (set-active box nil)) box)) (quote ((0 0 1 0 nil 0) (9 0 2 0 ((om-make-point 390 111) (om-make-point 390 150) (om-make-point 230 72) (om-make-point 204 182)) 0) (1 0 2 1 nil 0) (8 0 3 0 nil 0) (6 0 7 0 nil 0) (5 0 7 1 nil 0) (7 0 8 0 nil 0) (4 0 8 1 nil 0) (2 0 8 2 nil 0) (8 0 10 0 nil 0) (3 1 10 1 nil 0) (3 0 11 0 nil 0))) 2 "omloop3" nil))) (when (fboundp (quote set-active)) (set-active box nil)) box) (let ((box (om-load-boxwithed1 (quote box-with-win) "omloop2" (quote omloop) (quote ((om-load-inputfun (quote input-funbox) "" "input" nil))) (om-make-point 100 247) nil nil nil (list (let ((box (om-load-boxcall (quote bastype) "list 5" (quote list) (quote nil) (om-make-point 238 104) (om-make-point 21 30) 1 "1" nil))) (when (fboundp (quote set-active)) (set-active box nil)) box) (let ((box (om-load-boxcall (quote lispfun) "NTHCDR" (quote nthcdr) (quote ((om-load-inputfun (quote input-funbox) "ORIG-N" "ORIG-N" nil) (om-load-inputfun (quote input-funbox) "ORIG-LIST" "ORIG-LIST" nil))) (om-make-point 237 138) nil nil "l" nil 1))) (when (fboundp (quote set-active)) (set-active box nil)) box) (let ((box (om-load-boxcall (quote genfun) "inlist" (quote listloop) (quote ((om-load-inputfun (quote input-funbox) "list to iterate" "LIST" nil) (om-load-inputfun (quote input-funbox) "step function" "BY" nil))) (om-make-point 173 182) (om-make-point 93 59) nil nil nil 1))) (when (fboundp (quote set-active)) (set-active box nil)) box) (let ((box (om-load-boxcall (quote genfun) "collect" (quote listing) (quote ((om-load-inputfun (quote input-funbox) "anything" "DATA" nil))) (om-make-point 446 239) nil nil nil nil 3))) (when (fboundp (quote set-active)) (set-active box nil)) box) (let ((box (om-load-boxcall (quote bastype) "list 3" (quote list) (quote nil) (om-make-point 129 240) (om-make-point 21 30) 2 "2" nil))) (when (fboundp (quote set-active)) (set-active box nil)) box) (let ((box (om-load-boxcall (quote bastype) "list 2" (quote list) (quote nil) (om-make-point 77 283) (om-make-point 27 30) 5 "5" nil))) (when (fboundp (quote set-active)) (set-active box nil)) box) (let ((box (om-load-boxcall (quote bastype) "list" (quote list) (quote nil) (om-make-point 49 280) (om-make-point 27 30) 3 "3" nil))) (when (fboundp (quote set-active)) (set-active box nil)) box) (let ((box (om-load-boxcall (quote genfun) "OM-RANDOM" (quote om-random) (quote ((om-load-inputfun (quote input-funbox) "min" "LOW" 0) (om-load-inputfun (quote input-funbox) "max" "HIGH" 1))) (om-make-point 41 313) nil nil nil nil 1))) (when (fboundp (quote set-active)) (set-active box nil)) box) (let ((box (om-load-boxcall (quote lispfun) "SUBST" (quote subst) (quote ((om-load-inputfun (quote input-funbox) "NEW" "NEW" nil) (om-load-inputfun (quote input-funbox) "OLD" "OLD" nil) (om-load-inputfun (quote input-funbox) "TREE" "TREE" nil))) (om-make-point 82 383) (om-make-point 127 43) nil nil nil 1))) (when (fboundp (quote set-active)) (set-active box nil)) box) (let ((box (om-load-boxin "input" 0 (om-make-point 374 54) "" nil nil nil))) (when (fboundp (quote set-active)) (set-active box nil)) box) (let ((box (om-load-seqbox "finally" (quote finaldo) (quote ((om-load-inputfun (quote input-funbox) "value to return" "VAL" nil) (om-load-inputfun (quote input-funbox) "other values" "MORE" nil))) (om-make-point 429 469) nil nil nil 0))) (when (fboundp (quote set-active)) (set-active box nil)) box) (let ((box (om-load-seqbox "eachTime" (quote loopdo) (quote ((om-load-inputfun (quote input-funbox) "operations to do" "OP" nil))) (om-make-point 355 305) nil nil nil 0))) (when (fboundp (quote set-active)) (set-active box nil)) box)) (quote ((0 0 1 0 nil 0) (9 0 2 0 ((om-make-point 390 111) (om-make-point 390 150) (om-make-point 230 72) (om-make-point 204 182)) 0) (1 0 2 1 nil 0) (8 0 3 0 nil 0) (6 0 7 0 nil 0) (5 0 7 1 nil 0) (7 0 8 0 nil 0) (4 0 8 1 nil 0) (2 0 8 2 nil 0) (8 0 10 0 nil 0) (3 1 10 1 nil 0) (3 0 11 0 nil 0))) 2 "omloop2" nil))) (when (fboundp (quote set-active)) (set-active box nil)) box) (let ((box (om-load-boxcall (quote genfun) "FLAT" (quote flat) (quote ((om-load-inputfun (quote input-funbox) "a list" "LST" nil))) (om-make-point 38 438) nil nil nil nil 1))) (when (fboundp (quote set-active)) (set-active box nil)) box) (let ((box (om-load-boxwithed1 (quote box-with-win) "omloop1" (quote omloop) (quote ((om-load-inputfun (quote input-funbox) "" "input" nil))) (om-make-point 97 148) nil nil nil (list (let ((box (om-load-boxcall (quote bastype) "list 5" (quote list) (quote nil) (om-make-point 238 104) (om-make-point 21 30) 1 "1" nil))) (when (fboundp (quote set-active)) (set-active box nil)) box) (let ((box (om-load-boxcall (quote lispfun) "NTHCDR" (quote nthcdr) (quote ((om-load-inputfun (quote input-funbox) "ORIG-N" "ORIG-N" nil) (om-load-inputfun (quote input-funbox) "ORIG-LIST" "ORIG-LIST" nil))) (om-make-point 237 138) nil nil "l" nil 1))) (when (fboundp (quote set-active)) (set-active box nil)) box) (let ((box (om-load-boxcall (quote genfun) "inlist" (quote listloop) (quote ((om-load-inputfun (quote input-funbox) "list to iterate" "LIST" nil) (om-load-inputfun (quote input-funbox) "step function" "BY" nil))) (om-make-point 173 182) (om-make-point 93 59) nil nil nil 1))) (when (fboundp (quote set-active)) (set-active box nil)) box) (let ((box (om-load-boxcall (quote genfun) "collect" (quote listing) (quote ((om-load-inputfun (quote input-funbox) "anything" "DATA" nil))) (om-make-point 446 239) nil nil nil nil 3))) (when (fboundp (quote set-active)) (set-active box nil)) box) (let ((box (om-load-boxcall (quote bastype) "list 3" (quote list) (quote nil) (om-make-point 129 240) (om-make-point 21 30) 3 "3" nil))) (when (fboundp (quote set-active)) (set-active box nil)) box) (let ((box (om-load-boxcall (quote bastype) "list 2" (quote list) (quote nil) (om-make-point 77 283) (om-make-point 27 30) 8 "8" nil))) (when (fboundp (quote set-active)) (set-active box nil)) box) (let ((box (om-load-boxcall (quote bastype) "list" (quote list) (quote nil) (om-make-point 49 280) (om-make-point 27 30) 6 "6" nil))) (when (fboundp (quote set-active)) (set-active box nil)) box) (let ((box (om-load-boxcall (quote genfun) "OM-RANDOM" (quote om-random) (quote ((om-load-inputfun (quote input-funbox) "min" "LOW" 0) (om-load-inputfun (quote input-funbox) "max" "HIGH" 1))) (om-make-point 41 313) nil nil nil nil 1))) (when (fboundp (quote set-active)) (set-active box nil)) box) (let ((box (om-load-boxcall (quote lispfun) "SUBST" (quote subst) (quote ((om-load-inputfun (quote input-funbox) "NEW" "NEW" nil) (om-load-inputfun (quote input-funbox) "OLD" "OLD" nil) (om-load-inputfun (quote input-funbox) "TREE" "TREE" nil))) (om-make-point 82 383) (om-make-point 127 43) nil nil nil 1))) (when (fboundp (quote set-active)) (set-active box nil)) box) (let ((box (om-load-boxin "input" 0 (om-make-point 374 54) "" nil nil nil))) (when (fboundp (quote set-active)) (set-active box nil)) box) (let ((box (om-load-seqbox "finally" (quote finaldo) (quote ((om-load-inputfun (quote input-funbox) "value to return" "VAL" nil) (om-load-inputfun (quote input-funbox) "other values" "MORE" nil))) (om-make-point 429 469) nil nil nil 0))) (when (fboundp (quote set-active)) (set-active box nil)) box) (let ((box (om-load-seqbox "eachTime" (quote loopdo) (quote ((om-load-inputfun (quote input-funbox) "operations to do" "OP" nil))) (om-make-point 355 305) nil nil nil 0))) (when (fboundp (quote set-active)) (set-active box nil)) box)) (quote ((0 0 1 0 nil 0) (9 0 2 0 ((om-make-point 390 111) (om-make-point 390 150) (om-make-point 230 72) (om-make-point 204 182)) 0) (1 0 2 1 nil 0) (8 0 3 0 nil 0) (6 0 7 0 nil 0) (5 0 7 1 nil 0) (7 0 8 0 nil 0) (4 0 8 1 nil 0) (2 0 8 2 nil 0) (8 0 10 0 nil 0) (3 1 10 1 nil 0) (3 0 11 0 nil 0))) 2 "omloop1" nil))) (when (fboundp (quote set-active)) (set-active box nil)) box) (let ((box (om-load-boxcall (quote bastype) "list 2" (quote list) (quote nil) (om-make-point 575 19) (om-make-point 21 30) 3 "3" nil))) (when (fboundp (quote set-active)) (set-active box nil)) box) (let ((box (om-load-boxcall (quote bastype) "list" (quote list) (quote nil) (om-make-point 554 19) (om-make-point 21 30) 1 "1" nil))) (when (fboundp (quote set-active)) (set-active box nil)) box) (let ((box (om-load-boxcall (quote genfun) "OM-ROUND" (quote om-round) (quote ((om-load-inputfun (quote input-funbox) "number or list" "N" 1))) (om-make-point 409 75) nil nil nil nil 1))) (when (fboundp (quote set-active)) (set-active box nil)) box) (let ((box (om-load-boxin "midics - ponha aqui o output de midics da secao A" 0 (om-make-point 108 2) "" "midics - ponha aqui o output de midics da secao A" nil nil))) (when (fboundp (quote set-active)) (set-active box nil)) box))) (quote ((8 0 4 0 nil 0) (13 0 5 0 nil 0) (11 0 5 1 nil 0) (10 0 5 2 nil 0) (7 1 6 0 nil 0) (9 1 7 0 nil 0) (6 1 8 0 nil 0) (12 0 9 0 nil 0) (5 0 12 0 nil 0))) 6.16 nil "" (om-make-point 200 200) (om-make-point 500 400)) (quote ((om-load-inputfun (quote input-funbox) "" "midics - ponha aqui o output de midics da secao A" nil))) (om-make-point 1087 437) nil (list (list 6 7 5 7 8 9 7 4 5 6 5 7 7 6 5 5 6 7 7 7 5 7 6 5 7 5 5 7 6 5 6 5 5 6 6 6 7 5 7 6 5 5 6 5 8 5 5 7 5 7 6 1 6 6 1 7 6 5 5 5 7 7 6 6 5 5 7 6 5 5 5 7 6 5 6 5 7 6 6 6 5 7 6 7 5 6 8 6 6 5 5 5 7 6 7 6 6 6 5 7 6 5 6 7 5 7 5 6 7 5 7 6 5 5 7 6 7 5 6 6 5 6 7 6 5 5 5 5 5 5 3 5 6 5 6 7 6 6 6 5 6 7 7 5 6 7 5 6 7 6 6 6 5 7 6 6 6 5 7 5 6 7 7 6 6 5 5 6 6 6 5 7 7 7 1 6 6 7 6 6 9 7 5 6 9 7 7 6 6 7 7 7 7 5 5 6 6 6 7 5 7 7 5 6 5 6 6 6 5 5 7 6 6 7 5 6 7 6 7 6 6 5 6 5 7 7 5 7 9 7 7 7 6 5 6 5 7 6 5 6 5 5 7 5 7 5 7 7 7 6 5 5 6 7 6 5 5 7 5 5 7 6 3 5 7 5 6 6 5 5 6 5 5 1 6 6 5 6 7 7 7 7 7 6 5 5 6 7 6 6 5 6 5 7 5 5 5 6 5 5 5 6 6 8 7 7 7 7 6 6 7 5 6 5 5 6 5 5 7 5 7 6 5 5 7 6 5 5 5 5 7 7 5 6 7 5 7 6 6 5 6 6 6 5 6 6 5 6 6 5 5 6 5 7 7 6 7 8 7 6 5 9 6 7 5 6 6 6 6 6 6 6 7 5 5 6 7 7 5 5 7 7 6 5 7 5 7 6 5 6 9 7 7 6 7 5 6 5 7 5 7 6 6 7 7 7 5 6 7 5 5 7 5 6 7 7 7 6 5 7 9 9 6 5 7 7 6 7 7 6 5 6 5 5 6 7 7 7 6 7 5 6 7 7)) nil "Orq. 3 reg.=>8 ch."))) (when (fboundp (quote set-active)) (set-active box nil)) box) (let ((box (om-load-boxcall (quote genfun) "SORT." (quote sort.) (quote ((om-load-inputfun (quote input-funbox) "the list" "LST" nil))) (om-make-point 1147 343) nil nil nil nil 1))) (when (fboundp (quote set-active)) (set-active box nil)) box) (let ((box (om-load-boxcall (quote bastype) "list 11" (quote list) (quote nil) (om-make-point 1137 86) (om-make-point 114 30) (list 1 2 3 4 5 6 7 8) "(1 2 3 4 5 6 7 8)" nil))) (when (fboundp (quote set-active)) (set-active box nil)) box) (let ((box (om-load-boxcall (quote bastype) "aux31 2" (quote t) (quote nil) (om-make-point 982 157) (om-make-point 184 30) (list 105 106 99 32 12 11 9 112) "(105 106 99 32 12 11 9 112)" nil))) (when (fboundp (quote set-active)) (set-active box nil)) box) (let ((box (om-load-boxcomment "comment" (om-make-point 243 112) (quote "=> Esta versão transforma os valores negativos da representação do envelope em positivos") "" (om-make-point 700 247) nil (om-make-color 0 0 0) (om-make-font "Verdana" 14.000001 :family "Verdana" :style (quote (:bold)) :mode (quote nil))))) (when (fboundp (quote set-active)) (set-active box nil)) box) (let ((box (om-load-boxcall (quote genfun) "OM-ABS" (quote om-abs) (quote ((om-load-inputfun (quote input-funbox) "number or tree" "SELF" 1))) (om-make-point 454 190) nil nil nil nil 1))) (when (fboundp (quote set-active)) (set-active box nil)) box) (let ((box (om-load-boxcall (quote genfun) "OM-ROUND 4" (quote om-round) (quote ((om-load-inputfun (quote input-funbox) "number or list" "N" 1))) (om-make-point 651 486) nil nil nil nil 1))) (when (fboundp (quote set-active)) (set-active box nil)) box) (let ((box (om-load-boxcall (quote genfun) "OM-ROUND 3" (quote om-round) (quote ((om-load-inputfun (quote input-funbox) "number or list" "N" 1))) (om-make-point 162 475) nil nil nil nil 1))) (when (fboundp (quote set-active)) (set-active box nil)) box) (let ((box (om-load-boxcall (quote bastype) "list 10" (quote list) (quote nil) (om-make-point 439 287) (om-make-point 34 30) 10 "10" nil))) (when (fboundp (quote set-active)) (set-active box nil)) box) (let ((box (om-load-boxcall (quote genfun) "OM-ROUND 2" (quote om-round) (quote ((om-load-inputfun (quote input-funbox) "number or list" "N" 1))) (om-make-point 372 494) nil nil nil nil 1))) (when (fboundp (quote set-active)) (set-active box nil)) box) (let ((box (om-load-boxcall (quote genfun) "OM-ROUND" (quote om-round) (quote ((om-load-inputfun (quote input-funbox) "number or list" "N" 1))) (om-make-point 540 440) nil nil nil nil 1))) (when (fboundp (quote set-active)) (set-active box nil)) box) (let ((box (om-load-boxcall (quote genfun) "PERMUT-RANDOM 2" (quote permut-random) (quote ((om-load-inputfun (quote input-funbox) "a list" "LIST" nil))) (om-make-point 456 465) nil nil nil nil 1))) (when (fboundp (quote set-active)) (set-active box nil)) box) (let ((box (om-load-boxcall (quote bastype) "list 9" (quote list) (quote nil) (om-make-point 456 353) (om-make-point 27 30) 2 "2" nil))) (when (fboundp (quote set-active)) (set-active box nil)) box) (let ((box (om-load-boxcall (quote genfun) "OM-SCALE 4" (quote om-scale) (quote ((om-load-inputfun (quote input-funbox) "number or list" "SELF" 1) (om-load-inputfun (quote input-funbox) "a number" "MINOUT" 0) (om-load-inputfun (quote input-funbox) "a number" "MAXOUT" 0))) (om-make-point 438 392) nil nil nil nil 1))) (when (fboundp (quote set-active)) (set-active box nil)) box) (let ((box (om-load-boxcall (quote lispfun) "REVERSE 2" (quote reverse) (quote ((om-load-inputfun (quote input-funbox) "SEQUENCE" "SEQUENCE" nil))) (om-make-point 326 386) nil nil nil nil 1))) (when (fboundp (quote set-active)) (set-active box nil)) box) (let ((box (om-load-boxcall (quote genfun) "DX->X" (quote dx->x) (quote ((om-load-inputfun (quote input-funbox) "a number" "START" 0) (om-load-inputfun (quote input-funbox) "a list of numbers" "LIST" (list 1 1)))) (om-make-point 333 446) nil nil nil nil 1))) (when (fboundp (quote set-active)) (set-active box nil)) box) (let ((box (om-load-boxcomment "comment 2" (om-make-point 164 33) (quote "<= onsets min. e max.") "" (om-make-point 520 282) nil (om-make-color 0 0 0) (om-make-font "Verdana" 12 :family "Verdana" :style (quote (:plain)) :mode (quote nil))))) (when (fboundp (quote set-active)) (set-active box nil)) box) (let ((box (om-load-boxcall (quote bastype) "list 3" (quote list) (quote nil) (om-make-point 476 286) (om-make-point 41 30) 666 "666" nil))) (when (fboundp (quote set-active)) (set-active box nil)) box) (let ((box (om-load-boxcall (quote genfun) "OM-SCALE 3" (quote om-scale) (quote ((om-load-inputfun (quote input-funbox) "number or list" "SELF" 1) (om-load-inputfun (quote input-funbox) "a number" "MINOUT" 0) (om-load-inputfun (quote input-funbox) "a number" "MAXOUT" 0))) (om-make-point 345 313) nil nil nil nil 1))) (when (fboundp (quote set-active)) (set-active box nil)) box) (let ((box (om-load-boxcomment "comment" (om-make-point 228 70) (quote "<= Número de amostras do envelope do som original (equivalente ao número de notas geradas no chord-seq)") "" (om-make-point 662 164) nil (om-make-color 0 0 0) (om-make-font "Verdana" 12 :family "Verdana" :style (quote (:plain)) :mode (quote nil))))) (when (fboundp (quote set-active)) (set-active box nil)) box) (let ((box (om-load-boxcall (quote genfun) "OM-SCALE 2" (quote om-scale) (quote ((om-load-inputfun (quote input-funbox) "number or list" "SELF" 1) (om-load-inputfun (quote input-funbox) "a number" "MINOUT" 0) (om-load-inputfun (quote input-funbox) "a number" "MAXOUT" 0))) (om-make-point 40 432) nil nil nil nil 1))) (when (fboundp (quote set-active)) (set-active box nil)) box) (let ((box (om-load-boxcall (quote bastype) "list 2" (quote list) (quote nil) (om-make-point 286 152) (om-make-point 27 30) 3 "3" nil))) (when (fboundp (quote set-active)) (set-active box nil)) box) (let ((box (om-load-boxcall (quote bastype) "list" (quote list) (quote nil) (om-make-point 619 169) (om-make-point 41 30) 222 "222" nil))) (when (fboundp (quote set-active)) (set-active box nil)) box) (let ((box (om-load-editor-box1 "BPF" (quote bpf) (quote ((om-load-inputfun (quote input-funbox) "object" "self" nil) (om-load-inputfun (quote input-funbox) "X coordinates (list)" "x-points" (list 0 100)) (om-load-inputfun (quote input-funbox) "Y coordinates (list)" "y-points" (list 0 100)) (om-load-inputfun (quote input-funbox) "precision (integer) [0 - 10]" "decimals" 0))) (om-make-point 11 188) (om-make-point 418 111) (let ((newobj (when (find-class (quote bpf) nil) (let ((newbpf (simple-bpf-from-list (quote (0.0 100.0 200.0 300.0 400.0 500.0 600.0 700.0 800.0 900.0 1000.0 1100.0 1200.0 1300.0 1400.0 1500.0 1600.0 1700.0 1800.0 1900.0 2000.0 2100.0 2200.0 2300.0 2400.0 2500.0 2600.0 2700.0 2800.0 2900.0 3000.0 3100.0 3200.0 3300.0 3400.0 3500.0 3600.0 3700.0 3800.0 3900.0 4000.0 4100.0 4200.0 4300.0 4400.0 4500.0 4600.0 4700.0 4800.0 4900.0 5000.0 5100.0 5200.0 5300.0 5400.0 5500.0 5600.0 5700.0 5800.0 5900.0 6000.0 6100.0 6200.0 6300.0 6400.0 6500.0 6600.0 6700.0 6800.0 6900.0 7000.0 7100.0 7200.0 7300.0 7400.0 7500.0 7600.0 7700.0 7800.0 7900.0 8000.0 8100.0 8200.0 8300.0 8400.0 8500.0 8600.0 8700.0 8800.0 8900.0 9000.0 9100.0 9200.0 9300.0 9400.0 9500.0 9600.0 9700.0 9800.0 9900.0 10000.0 10100.0 10200.0 10300.0 10400.0 10500.0 10600.0 10700.0 10800.0 10900.0 11000.0 11100.0 11200.0 11300.0 11400.0 11500.0 11600.0 11700.0 11800.0 11900.0 12000.0 12100.0 12200.0 12300.0 12400.0 12500.0 12600.0 12700.0 12800.0 12900.0 13000.0 13100.0 13200.0 13300.0 13400.0 13500.0 13600.0 13700.0 13800.0 13900.0 14000.0 14100.0 14200.0 14300.0 14400.0 14500.0 14600.0 14700.0 14800.0 14900.0 15000.0 15100.0 15200.0 15300.0 15400.0 15500.0 15600.0 15700.0 15800.0 15900.0 16000.0 16100.0 16200.0 16300.0 16400.0 16500.0 16600.0 16700.0 16800.0 16900.0 17000.0 17100.0 17200.0 17300.0 17400.0 17500.0 17600.0 17700.0 17800.0 17900.0 18000.0 18100.0 18200.0 18300.0 18400.0 18500.0 18600.0 18700.0 18800.0 18900.0 19000.0 19100.0 19200.0 19300.0 19400.0 19500.0 19600.0 19700.0 19800.0 19900.0 20000.0 20100.0 20200.0 20300.0 20400.0 20500.0 20600.0 20700.0 20800.0 20900.0 21000.0 21100.0 21200.0 21300.0 21400.0 21500.0 21600.0 21700.0 21800.0 21900.0 22000.0 22100.0 22200.0)) (quote (0.0 0.005 0.011 0.012 0.013 0.004 0.08 0.027 0.026 0.003 0.09 0.048 0.012 0.026 0.056 0.068 0.008 0.004 0.053 0.027 0.044 0.008 0.056 0.1 0.071 0.086 0.017 0.054 0.025 0.137 0.098 0.008 0.011 0.082 0.083 0.137 0.053 0.046 0.03 0.217 0.139 0.044 0.134 0.089 0.074 0.059 0.239 0.156 0.298 0.466 0.011 0.059 0.174 0.022 0.175 0.104 0.059 0.153 0.033 0.04 0.056 0.031 0.011 0.033 0.063 0.09 0.033 0.052 0.182 0.074 0.18 0.113 0.065 0.096 0.237 0.052 0.112 0.217 0.105 0.318 0.195 0.223 0.208 0.572 0.177 0.399 0.044 0.132 0.35 0.19 0.089 0.023 0.044 0.206 0.064 0.218 0.029 0.168 0.025 0.075 0.093 0.09 0.013 0.046 0.068 0.031 0.18 0.029 0.094 0.046 0.027 0.003 0.059 0.234 0.022 0.019 0.115 0.086 0.045 0.094 0.078 0.02 0.048 0.029 0.029 0.126 0.001 0.038 0.071 0.026 0.09 0.184 0.158 0.093 0.02 0.074 0.017 0.046 0.023 0.025 0.067 0.072 0.031 0.019 0.008 0.134 0.041 0.041 0.029 0.017 0.046 0.016 0.022 0.009 0.052 0.025 0.091 0.022 0.046 0.044 0.013 0.063 0.056 0.003 0.017 0.053 0.005 0.027 0.063 0.018 0.003 0.051 0.026 0.026 0.013 0.026 0.087 0.008 0.037 0.042 0.033 0.067 0.115 0.085 0.011 0.001 0.019 0.024 0.031 0.003 0.011 0.001 0.07 0.071 0.014 0.038 0.004 0.001 0.02 0.052 0.004 0.003 0.007 0.038 0.036 0.067 0.042 0.036 0.005 0.022 0.019 0.018 0.008 0.022 0.046 0.022 0.026 0.0 0.0 0.001 0.0 0.001 0.0)) (quote bpf) 3))) (setf (bpfcolor newbpf) (om-make-color 0 0 0)) (set-name newbpf nil) newbpf)))) (when newobj) newobj) nil nil (pairlis (quote (winsize winpos picture)) (list (om-make-point 954 392) (om-make-point 10 40) nil)) t nil nil nil))) (when (fboundp (quote set-active)) (set-active box nil)) box) (let ((box (om-load-boxcall (quote genfun) "SOUND-POINTS" (quote sound-points) (quote ((om-load-inputfun (quote input-funbox) "a sound object" "SELF" nil) (om-load-inputfun (quote input-funbox) "number of points" "NUM" 1000))) (om-make-point 534 186) nil nil nil nil 1))) (when (fboundp (quote set-active)) (set-active box nil)) box) (let ((box (om-load-boxcall (quote bastype) "list 8" (quote list) (quote nil) (om-make-point 1099 277) (om-make-point 34 30) 15 "15" nil))) (when (fboundp (quote set-active)) (set-active box nil)) box) (let ((box (om-load-boxcall (quote abstraction) "Instrumentacao ALEA" (om-load-patch-abs1 "Instrumentacao ALEA" (quote ((let ((box (om-load-boxout "output" 0 (om-make-point 381 454) (quote ((om-load-inputfun (quote input-funbox) "" "out" nil))) nil nil))) (when (fboundp (quote set-active)) (set-active box nil)) box) (let ((box (om-load-boxin "input" 0 (om-make-point 424 76) "" nil nil nil))) (when (fboundp (quote set-active)) (set-active box nil)) box) (let ((box (om-load-boxcall (quote genfun) "FIRST-N" (quote first-n) (quote ((om-load-inputfun (quote input-funbox) "a list" "LIST" nil) (om-load-inputfun (quote input-funbox) "number of elements" "N" 0))) (om-make-point 373 304) nil nil nil nil 1))) (when (fboundp (quote set-active)) (set-active box nil)) box) (let ((box (om-load-boxcall (quote genfun) "PERMUT-RANDOM" (quote permut-random) (quote ((om-load-inputfun (quote input-funbox) "a list" "LIST" nil))) (om-make-point 259 219) nil nil nil nil 1))) (when (fboundp (quote set-active)) (set-active box nil)) box) (let ((box (om-load-boxcall (quote bastype) "list 2" (quote list) (quote nil) (om-make-point 223 150) (om-make-point 41 30) 128 "128" nil))) (when (fboundp (quote set-active)) (set-active box nil)) box) (let ((box (om-load-boxcall (quote bastype) "list" (quote list) (quote nil) (om-make-point 187 157) (om-make-point 27 30) 0 "0" nil))) (when (fboundp (quote set-active)) (set-active box nil)) box) (let ((box (om-load-boxcall (quote genfun) "ARITHM-SER" (quote arithm-ser) (quote ((om-load-inputfun (quote input-funbox) "begin" "BEGIN" 0) (om-load-inputfun (quote input-funbox) "end " "END" 10) (om-load-inputfun (quote input-funbox) "step" "STEP" 1))) (om-make-point 199 191) nil nil nil nil 1))) (when (fboundp (quote set-active)) (set-active box nil)) box))) (quote ((2 0 0 0 nil 0) (3 0 2 0 nil 0) (1 0 2 1 nil 0) (6 0 3 0 nil 0) (5 0 6 0 nil 0) (4 0 6 1 nil 0))) 6.16 nil "" (om-make-point 200 200) (om-make-point 500 400)) (quote ((om-load-inputfun (quote input-funbox) "" "input" nil))) (om-make-point 960 291) nil (list (list 24 61 72 18 45 115 68 76 6 57 110 42 87 91 53)) nil "Instrumentacao ALEA"))) (when (fboundp (quote set-active)) (set-active box nil)) box) (let ((box (om-load-boxcomment "comment 4" (om-make-point 100 60) (quote "<= No. de instrumentos") "" (om-make-point 1131 274) nil (om-make-color 0 0 0) (om-make-font "Verdana" 12 :family "Verdana" :style (quote (:plain)) :mode (quote nil))))) (when (fboundp (quote set-active)) (set-active box nil)) box) (let ((box (om-load-boxcall (quote bastype) "list 7" (quote list) (quote nil) (om-make-point 1132 123) (om-make-point 233 30) (list 1 2 3 4 5 6 7 8 9 11 12 13 14 15 16) "(1 2 3 4 5 6 7 8 9 11 12 13 14 15 16)" nil))) (when (fboundp (quote set-active)) (set-active box nil)) box) (let ((box (om-load-boxcall (quote genfun) "PGMOUT" (quote pgmout) (quote ((om-load-inputfun (quote input-funbox) "program number" "PROG" 1) (om-load-inputfun (quote input-funbox) "channel" "CHANS" 1) (om-load-inputfun (quote input-funbox) "optional port" "PORT" 0))) (om-make-point 1163 188) nil nil nil nil 1))) (when (fboundp (quote set-active)) (set-active box nil)) box) (let ((box (om-load-boxcall (quote genfun) "PERMUT-RANDOM" (quote permut-random) (quote ((om-load-inputfun (quote input-funbox) "a list" "LIST" nil))) (om-make-point 742 475) nil nil nil nil 1))) (when (fboundp (quote set-active)) (set-active box nil)) box) (let ((box (om-load-boxcomment "comment 3" (om-make-point 207 49) (quote "<= Dyns mín. e máx.") "" (om-make-point 950 405) nil (om-make-color 0 0 0) (om-make-font "Verdana" 12 :family "Verdana" :style (quote (:plain)) :mode (quote nil))))) (when (fboundp (quote set-active)) (set-active box nil)) box) (let ((box (om-load-boxcall (quote bastype) "list 6" (quote list) (quote nil) (om-make-point 914 409) (om-make-point 41 30) 100 "100" nil))) (when (fboundp (quote set-active)) (set-active box nil)) box) (let ((box (om-load-boxcall (quote bastype) "list 5" (quote list) (quote nil) (om-make-point 877 410) (om-make-point 34 30) 30 "30" nil))) (when (fboundp (quote set-active)) (set-active box nil)) box) (let ((box (om-load-boxcall (quote genfun) "OM-SCALE" (quote om-scale) (quote ((om-load-inputfun (quote input-funbox) "number or list" "SELF" 1) (om-load-inputfun (quote input-funbox) "a number" "MINOUT" 0) (om-load-inputfun (quote input-funbox) "a number" "MAXOUT" 0))) (om-make-point 858 455) nil nil nil nil 1))) (when (fboundp (quote set-active)) (set-active box nil)) box) (let ((box (om-load-boxcomment "comment" (om-make-point 207 49) (quote "<= durs min. e max.") "" (om-make-point 521 351) nil (om-make-color 0 0 0) (om-make-font "Verdana" 12 :family "Verdana" :style (quote (:plain)) :mode (quote nil))))) (when (fboundp (quote set-active)) (set-active box nil)) box) (let ((box (om-load-boxcall (quote bastype) "list 4" (quote list) (quote nil) (om-make-point 485 352) (om-make-point 34 30) 33 "33" nil))) (when (fboundp (quote set-active)) (set-active box nil)) box) (let ((box (om-load-editor-box1 "NOTE 2" (quote note) (quote ((om-load-inputfun (quote input-funbox) "object" "self" nil) (om-load-inputfun (quote input-funbox) "pitch (midicents)" "midic" 6000) (om-load-inputfun (quote input-funbox) "velocity (0-127)" "vel" 80) (om-load-inputfun (quote input-funbox) "duration (ms)" "dur" 1000) (om-load-inputfun (quote input-funbox) "MIDI channel (1-16)" "chan" 1))) (om-make-point 137 334) (om-make-point 69 80) (if (find-class (quote note) nil) (let ((newobj (make-instance (quote note) :midic 6400 :vel 80 :dur 1000 :chan 1 :from-file t))) (load-port-info newobj (quote 0)) (init-mus-color newobj (quote nil)) (set-extra-pairs newobj (quote nil)) (set-patch-pairs newobj (quote ((nil (om-load-patch-abs1 "patch" (quote nil) (quote nil) 6.16 nil "" (om-make-point 200 200) (om-make-point 400 500)))))) (set-name newobj nil) (set-tonalite newobj nil) newobj)) "x" nil (pairlis (quote (palette-mode scale show-stems obj-mode score-mode winpos winsize mode grillestep notechancolor? zoom player inport outport deltapict cmnpref staff fontsize approx)) (list 0 nil (quote t) 0 0 (om-make-point 300 22) (om-make-point 370 280) 0 1000 nil 1 (quote :midishare) 0 nil (om-make-point 0 0) (let ((newobj (make-instance (quote edition-values)))) (setf (paper-size newobj) (om-make-point 600 800)) (setf (top-margin newobj) 2) (setf (left-margin newobj) 1) (setf (right-margin newobj) 1) (setf (bottom-margin newobj) 1) (setf (orientation newobj) nil) (setf (scale newobj) nil) (setf (system-space newobj) (quote (1))) (setf (system-color newobj) (quote nil)) (setf (line-space newobj) 1) (setf (title newobj) nil) (setf (show-title? newobj) nil) (setf (show-page? newobj) nil) (setf (sheet-id newobj) nil) (setf (page-mode newobj) nil) newobj) (quote gf) 24 2)) t nil nil nil))) (when (fboundp (quote set-active)) (set-active box nil)) box) (let ((box (om-load-editor-box1 "NOTE" (quote note) (quote ((om-load-inputfun (quote input-funbox) "object" "self" nil) (om-load-inputfun (quote input-funbox) "pitch (midicents)" "midic" 6000) (om-load-inputfun (quote input-funbox) "velocity (0-127)" "vel" 80) (om-load-inputfun (quote input-funbox) "duration (ms)" "dur" 1000) (om-load-inputfun (quote input-funbox) "MIDI channel (1-16)" "chan" 1))) (om-make-point 70 333) (om-make-point 65 77) (if (find-class (quote note) nil) (let ((newobj (make-instance (quote note) :midic 2800 :vel 80 :dur 1000 :chan 1 :from-file t))) (load-port-info newobj (quote 0)) (init-mus-color newobj (quote nil)) (set-extra-pairs newobj (quote nil)) (set-patch-pairs newobj (quote ((nil (om-load-patch-abs1 "patch" (quote nil) (quote nil) 6.16 nil "" (om-make-point 200 200) (om-make-point 400 500)))))) (set-name newobj nil) (set-tonalite newobj nil) newobj)) "x" nil (pairlis (quote (palette-mode scale show-stems obj-mode score-mode winpos winsize mode grillestep notechancolor? zoom player inport outport deltapict cmnpref staff fontsize approx)) (list 0 nil (quote t) 0 0 (om-make-point 300 22) (om-make-point 522 365) 0 1000 nil 1 (quote :midishare) 0 nil (om-make-point 0 0) (let ((newobj (make-instance (quote edition-values)))) (setf (paper-size newobj) (om-make-point 600 800)) (setf (top-margin newobj) 2) (setf (left-margin newobj) 1) (setf (right-margin newobj) 1) (setf (bottom-margin newobj) 1) (setf (orientation newobj) nil) (setf (scale newobj) nil) (setf (system-space newobj) (quote (1))) (setf (system-color newobj) (quote nil)) (setf (line-space newobj) 1) (setf (title newobj) nil) (setf (show-title? newobj) nil) (setf (show-page? newobj) nil) (setf (sheet-id newobj) nil) (setf (page-mode newobj) nil) newobj) (quote gff) 24 2)) t nil nil nil))) (when (fboundp (quote set-active)) (set-active box nil)) box) (let ((box (om-load-editor-box1 "CHORD-SEQ" (quote chord-seq) (quote ((om-load-inputfun (quote input-funbox) "object" "self" nil) (om-load-inputfun (quote input-funbox) "pitches (mc): list or list of lists" "lmidic" (list 6000)) (om-load-inputfun (quote input-funbox) "onsets (ms): list" "lonset" (list 0 1000)) (om-load-inputfun (quote input-funbox) "durations (ms): list or list of lists" "ldur" (list 1000)) (om-load-inputfun (quote input-funbox) "velocities (0-127): list or list of lists" "lvel" (list 100)) (om-load-inputfun (quote input-funbox) "offsets (ms): list or list of lists" "loffset" (list 0)) (om-load-inputfun (quote input-funbox) "MIDI channels (1-16): list or list of lists" "lchan" (list 1)) (om-load-inputfun (quote input-funbox) "relative chords duration (0-100)" "legato" 0))) (om-make-point 37 562) (om-make-point 1017 131) (let ((newobj (when (find-class (quote chord-seq) nil) (make-instance (quote chord-seq) :lmidic (quote ((2800) (2831) (2869) (2876) (2882) (2825) (3303) (2970) (2964) (2819) (3366) (3102) (2876) (2964) (3152) (3228) (2850) (2825) (3134) (2970) (3077) (2850) (3152) (3429) (3247) (3341) (2907) (3140) (2957) (3662) (3417) (2850) (2869) (3316) (3322) (3662) (3134) (3090) (2989) (4166) (3675) (3077) (3643) (3360) (3266) (3171) (4304) (3782) (4676) (5733) (2869) (3171) (3895) (2938) (3901) (3455) (3171) (3763) (3008) (3052) (3152) (2995) (2869) (3008) (3197) (3366) (3008) (3127) (3945) (3266) (3933) (3511) (3209) (3404) (4292) (3127) (3505) (4166) (3461) (4801) (4027) (4203) (4109) (6400) (3914) (5311) (3077) (3631) (5003) (3996) (3360) (2945) (3077) (4097) (3203) (4172) (2983) (3857) (2957) (3272) (3385) (3366) (2882) (3090) (3228) (2995) (3933) (2983) (3392) (3090) (2970) (2819) (3171) (4273) (2938) (2920) (3524) (3341) (3083) (3392) (3291) (2926) (3102) (2983) (2983) (3593) (2806) (3039) (3247) (2964) (3366) (3958) (3794) (3385) (2926) (3266) (2907) (3090) (2945) (2957) (3222) (3253) (2995) (2920) (2850) (3643) (3058) (3058) (2983) (2907) (3090) (2901) (2938) (2857) (3127) (2957) (3373) (2938) (3090) (3077) (2882) (3197) (3152) (2819) (2907) (3134) (2831) (2970) (3197) (2913) (2819) (3121) (2964) (2964) (2882) (2964) (3348) (2850) (3033) (3064) (3008) (3222) (3524) (3335) (2869) (2806) (2920) (2951) (2995) (2819) (2869) (2806) (3241) (3247) (2888) (3039) (2825) (2806) (2926) (3127) (2825) (2819) (2844) (3039) (3027) (3222) (3064) (3027) (2831) (2938) (2920) (2913) (2850) (2938) (3090) (2938) (2964) (2800) (2800) (2806) (2800) (2806) (2800))) :lonset (quote (0 10 21 31 42 52 62 102 137 200 235 255 285 317 352 368 419 477 564 615 669 687 701 715 785 818 829 843 897 923 1014 1105 1116 1139 1152 1198 1235 1267 1278 1301 1408 1550 1637 1685 1743 1795 1814 1924 1964 1989 2029 2069 2137 2151 2181 2263 2304 2320 2391 2420 2434 2508 2590 2615 2676 2738 2774 2888 2927 2996 3017 3052 3080 3143 3172 3216 3273 3330 3493 3513 3544 3590 3683 3769 3808 3844 3907 3937 4032 4064 4181 4372 4593 4707 4746 4838 4891 4903 5057 5100 5144 5209 5242 5341 5459 5520 5629 5771 5803 5838 6116 6194 6207 6248 6311 6429 6472 6689 6734 6822 6885 6910 7023 7140 7236 7274 7477 7520 7780 7864 8110 8170 8207 8319 8547 8958 9120 9180 9648 9861 10527 10775 11041 11275 11649 11780 12039 12177 12247 12528 12649 12733 12873 13089 13184 13403 13472 13520 13633 13716 13764 13786 13832 13906 13962 14010 14195 14273 14402 14613 14648 14858 14935 14958 15502 15854 16043 16327 16405 16500 16612 16775 16836 17005 17264 17308 17371 17442 17609 17714 17818 17841 17860 17983 18150 18188 18260 18290 18398 18490 18614 18689 18708 18768 18809 18880 18895 18914 19002 19076 19116 19140 19205 19318 19331 19371 19412 19514 19528 19553 19577 19600 19615 19622)) :ldur (quote ((7) (5) (9) (3) (13) (14) (5) (2) (7) (4) (9) (4) (4) (6) (7) (11) (5) (3) (5) (3) (4) (2) (3) (12) (6) (12) (3) (3) (3) (15) (3) (3) (2) (2) (3) (4) (3) (3) (10) (2) (4) (5) (2) (3) (5) (3) (4) (7) (4) (5) (9) (7) (4) (9) (2) (4) (4) (6) (3) (2) (3) (21) (3) (3) (4) (2) (15) (6) (3) (5) (14) (8) (3) (3) (7) (6) (6) (2) (15) (4) (5) (4) (4) (7) (6) (18) (3) (2) (5) (2) (5) (3) (3) (3) (7) (7) (3) (12) (2) (2) (7) (3) (24) (2) (3) (3) (3) (5) (6) (5) (3) (6) (2) (4) (4) (4) (13) (2) (4) (5) (4) (11) (14) (2) (6) (9) (3) (3) (2) (3) (3) (11) (4) (5) (10) (3) (2) (7) (4) (3) (7) (4) (2) (2) (3) (3) (12) (6) (4) (10) (3) (4) (8) (4) (12) (4) (27) (2) (3) (2) (7) (6) (3) (6) (6) (4) (3) (14) (3) (4) (12) (6) (3) (5) (4) (4) (11) (4) (2) (33) (2) (4) (2) (6) (6) (6) (2) (7) (8) (19) (4) (9) (6) (5) (4) (4) (5) (2) (8) (3) (3) (8) (5) (3) (4) (3) (7) (13) (7) (5) (3) (2) (4) (5) (5) (2) (7) (5) (2) (3) (3) (8) (7))) :lvel (quote ((69) (42) (32) (30) (32) (30) (33) (31) (39) (47) (34) (33) (36) (40) (39) (39) (31) (36) (47) (32) (31) (40) (35) (32) (44) (30) (33) (52) (38) (34) (30) (33) (41) (38) (37) (45) (43) (35) (30) (35) (31) (33) (32) (32) (33) (30) (31) (33) (49) (33) (35) (32) (36) (31) (32) (41) (38) (34) (38) (46) (31) (36) (36) (41) (31) (34) (33) (42) (52) (39) (31) (31) (41) (34) (87) (31) (38) (32) (33) (32) (35) (52) (37) (36) (30) (35) (41) (35) (38) (36) (30) (30) (53) (30) (39) (53) (34) (43) (31) (59) (39) (33) (36) (30) (39) (55) (37) (35) (33) (33) (34) (32) (66) (35) (51) (36) (41) (57) (100) (33) (73) (33) (47) (52) (41) (33) (36) (51) (31) (35) (35) (32) (34) (32) (33) (37) (38) (36) (36) (49) (32) (32) (40) (30) (33) (30) (37) (54) (30) (31) (32) (42) (36) (42) (31) (35) (30) (33) (41) (57) (46) (41) (34) (44) (36) (33) (30) (31) (36) (37) (40) (42) (37) (32) (33) (34) (34) (33) (38) (34) (30) (38) (37) (55) (57) (40) (32) (30) (30) (46) (32) (39) (79) (30) (35) (30) (44) (41) (34) (37) (41) (34) (35) (33) (49) (36) (36) (33) (59) (39) (51) (34) (33) (31) (44) (34) (31) (59) (38) (41) (57) (36) (31))) :loffset (quote ((0) (0) (0) (0) (0) (0) (0) (0) (0) (0) (0) (0) (0) (0) (0) (0) (0) (0) (0) (0) (0) (0) (0) (0) (0) (0) (0) (0) (0) (0) (0) (0) (0) (0) (0) (0) (0) (0) (0) (0) (0) (0) (0) (0) (0) (0) (0) (0) (0) (0) (0) (0) (0) (0) (0) (0) (0) (0) (0) (0) (0) (0) (0) (0) (0) (0) (0) (0) (0) (0) (0) (0) (0) (0) (0) (0) (0) (0) (0) (0) (0) (0) (0) (0) (0) (0) (0) (0) (0) (0) (0) (0) (0) (0) (0) (0) (0) (0) (0) (0) (0) (0) (0) (0) (0) (0) (0) (0) (0) (0) (0) (0) (0) (0) (0) (0) (0) (0) (0) (0) (0) (0) (0) (0) (0) (0) (0) (0) (0) (0) (0) (0) (0) (0) (0) (0) (0) (0) (0) (0) (0) (0) (0) (0) (0) (0) (0) (0) (0) (0) (0) (0) (0) (0) (0) (0) (0) (0) (0) (0) (0) (0) (0) (0) (0) (0) (0) (0) (0) (0) (0) (0) (0) (0) (0) (0) (0) (0) (0) (0) (0) (0) (0) (0) (0) (0) (0) (0) (0) (0) (0) (0) (0) (0) (0) (0) (0) (0) (0) (0) (0) (0) (0) (0) (0) (0) (0) (0) (0) (0) (0) (0) (0) (0) (0) (0) (0) (0) (0) (0) (0) (0) (0))) :lchan (quote ((3) (3) (3) (1) (1) (2) (6) (3) (1) (3) (6) (1) (3) (1) (2) (3) (3) (2) (3) (2) (2) (1) (1) (5) (1) (5) (2) (3) (2) (4) (6) (1) (1) (4) (4) (6) (3) (3) (2) (9) (4) (3) (4) (5) (6) (1) (9) (6) (8) (12) (2) (2) (6) (3) (4) (5) (1) (5) (3) (1) (3) (1) (3) (2) (1) (5) (1) (3) (4) (4) (4) (5) (1) (6) (9) (1) (6) (7) (4) (9) (6) (7) (5) (15) (5) (13) (2) (6) (7) (5) (4) (1) (3) (5) (3) (8) (1) (5) (3) (5) (6) (6) (2) (3) (3) (3) (5) (2) (4) (1) (2) (2) (2) (8) (3) (3) (4) (6) (3) (4) (4) (2) (1) (1) (2) (6) (3) (2) (2) (1) (4) (5) (6) (4) (3) (4) (3) (3) (2) (3) (2) (4) (3) (3) (3) (5) (3) (3) (1) (2) (2) (2) (3) (3) (1) (2) (5) (2) (2) (2) (3) (3) (1) (2) (2) (1) (1) (1) (3) (2) (3) (1) (1) (3) (2) (1) (6) (1) (3) (3) (1) (3) (4) (6) (3) (2) (1) (2) (3) (3) (3) (2) (3) (2) (2) (1) (2) (1) (3) (3) (3) (2) (3) (2) (1) (1) (2) (2) (2) (2) (3) (1) (1) (1) (1) (2) (2) (3) (2) (2) (1) (3) (2))) :legato 0)))) (load-port-info newobj (quote ((0) (0) (0) (0) (0) (0) (0) (0) (0) (0) (0) (0) (0) (0) (0) (0) (0) (0) (0) (0) (0) (0) (0) (0) (0) (0) (0) (0) (0) (0) (0) (0) (0) (0) (0) (0) (0) (0) (0) (0) (0) (0) (0) (0) (0) (0) (0) (0) (0) (0) (0) (0) (0) (0) (0) (0) (0) (0) (0) (0) (0) (0) (0) (0) (0) (0) (0) (0) (0) (0) (0) (0) (0) (0) (0) (0) (0) (0) (0) (0) (0) (0) (0) (0) (0) (0) (0) (0) (0) (0) (0) (0) (0) (0) (0) (0) (0) (0) (0) (0) (0) (0) (0) (0) (0) (0) (0) (0) (0) (0) (0) (0) (0) (0) (0) (0) (0) (0) (0) (0) (0) (0) (0) (0) (0) (0) (0) (0) (0) (0) (0) (0) (0) (0) (0) (0) (0) (0) (0) (0) (0) (0) (0) (0) (0) (0) (0) (0) (0) (0) (0) (0) (0) (0) (0) (0) (0) (0) (0) (0) (0) (0) (0) (0) (0) (0) (0) (0) (0) (0) (0) (0) (0) (0) (0) (0) (0) (0) (0) (0) (0) (0) (0) (0) (0) (0) (0) (0) (0) (0) (0) (0) (0) (0) (0) (0) (0) (0) (0) (0) (0) (0) (0) (0) (0) (0) (0) (0) (0) (0) (0) (0) (0) (0) (0) (0) (0) (0) (0) (0) (0) (0) (0)))) (init-mus-color newobj (quote nil)) (set-extra-pairs newobj (quote nil)) (set-patch-pairs newobj (quote nil)) (set-name newobj nil) (set-tonalite newobj nil) newobj) nil nil (pairlis (quote (cursor-mode approx fontsize staff cmnpref deltapict outport inport player zoom notechancolor? grillestep mode winsize winpos score-mode obj-mode show-stems scale palette-mode)) (list (quote :normal) 2 24 (quote gf) (let ((newobj (make-instance (quote edition-values)))) (setf (paper-size newobj) (om-make-point 600 800)) (setf (top-margin newobj) 2) (setf (left-margin newobj) 1) (setf (right-margin newobj) 1) (setf (bottom-margin newobj) 1) (setf (orientation newobj) nil) (setf (scale newobj) nil) (setf (system-space newobj) (quote (1))) (setf (system-color newobj) (quote nil)) (setf (line-space newobj) 1) (setf (title newobj) nil) (setf (show-title? newobj) nil) (setf (show-page? newobj) nil) (setf (sheet-id newobj) nil) (setf (page-mode newobj) nil) newobj) (om-make-point 0 0) nil 0 (quote :osc-scoreplayer) 411/50 nil 1000 0 (om-make-point 1143 312) (om-make-point 88 70) 0 1 (quote t) nil 0)) t nil nil nil))) (when (fboundp (quote set-active)) (set-active box nil)) box) (let ((box (om-load-editor-box1 "Bassclarinet1.aif" (quote sound) (quote ((om-load-inputfun (quote input-funbox) "object" "self" nil) (om-load-inputfun (quote input-funbox) "a track index for multichannel mixing" "tracknum" 1) (om-load-inputfun (quote input-funbox) "a list of markers (s)" "markers" nil))) (om-make-point 62 3) (om-make-point 1062 154) (let ((newobj (let ((thesound (load-sound (om-make-pathname :directory (quote (:relative "in-files")) :device nil :host "C" :name "Bassclarinet1" :type "aif") 1 1.0 0))) (when thesound (setf (markers thesound) (quote nil))) thesound))) (load-port-info newobj (quote nil)) (init-mus-color newobj (quote nil)) (set-extra-pairs newobj (quote nil)) (set-patch-pairs newobj (quote nil)) (set-name newobj "Bassclarinet1.aif") (set-tonalite newobj nil) newobj) "x" nil (pairlis (quote (approx fontsize staff cmnpref deltapict outport inport player zoom notechancolor? grillestep mode winsize winpos score-mode obj-mode show-stems scale palette-mode)) (list 2 24 (quote gf) (let ((newobj (make-instance (quote edition-values)))) (setf (paper-size newobj) (om-make-point 600 800)) (setf (top-margin newobj) 2) (setf (left-margin newobj) 1) (setf (right-margin newobj) 1) (setf (bottom-margin newobj) 1) (setf (orientation newobj) nil) (setf (scale newobj) nil) (setf (system-space newobj) (quote (1))) (setf (system-color newobj) (quote nil)) (setf (line-space newobj) 1) (setf (title newobj) nil) (setf (show-title? newobj) nil) (setf (show-page? newobj) nil) (setf (sheet-id newobj) nil) (setf (page-mode newobj) nil) newobj) (om-make-point 0 0) nil 0 (quote :libaudio) 1 nil 1000 0 (om-make-point 1267 456) (om-make-point 13 97) 0 1 (quote t) nil 0)) t nil nil t))) (when (fboundp (quote set-active)) (set-active box nil)) box))) (quote ((25 2 0 0 nil 1) (26 0 7 0 nil 0) (32 0 8 0 nil 0) (22 0 9 0 nil 0) (17 0 11 0 nil 0) (15 0 12 0 nil 0) (12 0 13 0 nil 0) (20 0 15 0 nil 0) (14 0 15 1 nil 0) (38 0 15 2 nil 0) (20 0 16 0 nil 0) (16 0 17 1 nil 0) (25 2 20 0 nil 0) (10 0 20 1 nil 0) (19 0 20 2 nil 0) (25 2 22 0 nil 0) (40 1 22 1 nil 0) (39 1 22 2 nil 0) (7 0 25 2 nil 2) (23 0 25 3 nil 0) (42 0 26 0 nil 0) (24 0 26 1 nil 0) (27 0 28 0 nil 0) (28 0 31 0 nil 0) (30 0 31 1 nil 0) (36 0 32 0 nil 0) (25 2 36 0 nil 0) (35 0 36 1 nil 0) (34 0 36 2 nil 0) (9 0 41 1 nil 0) (11 0 41 2 nil 0) (13 0 41 3 nil 0) (8 0 41 4 nil 0) (0 0 41 6 nil 0))) nil 6.16))
