; OM File Header - Saved 2020/02/11 22:58:52
; (6.16 :patc (om-make-point 10 10) (om-make-point 11 22) (om-make-point 1212 691) "" 183 0 "2013/10/11 10:26:53" "2020/02/11 22:58:52")
; End File Header
; External resources 
; (list (list (quote :sound) "#P\"C:../../../../../../../../luizcasteloes/Music/iTunes/iTunes Media/Music/Unknown Artist/Unknown Album/Baden - Consolação.wav\""))
(in-package :om)(load-lib-for (quote nil))(setf *om-current-persistent* (om-load-patch1 "envelope - marcando manualmente o ritmo dos picos do envelope de um som e exportando-os para um chord-seq 4" (quote ((let ((box (om-load-boxcall (quote bastype) "list 9" (quote list) (quote nil) (om-make-point 1136 86) (om-make-point 233 30) (list 1 2 3 4 5 6 7 8 9 11 12 13 14 15 16) "(1 2 3 4 5 6 7 8 9 11 12 13 14 15 16)" nil))) (when (fboundp (quote set-active)) (set-active box nil)) box) (let ((box (om-load-boxcall (quote abstraction) "Orq. 5 reg.=>15ch." (om-load-patch-abs1 "Orq. 5 reg.=>15ch." (quote ((let ((box (om-load-boxcomment "comment 5" (om-make-point 423 52) (quote "<= o 4o omloop encaminha o midi ch 1 (correspondente ao registro sub-grave) aos midi chs 1 a 3") "" (om-make-point 118 412) nil (om-make-color 0 0 0) (om-make-font "Verdana" 12 :family "Verdana" :style (quote (:plain)) :mode (quote nil))))) (when (fboundp (quote set-active)) (set-active box nil)) box) (let ((box (om-load-boxwithed1 (quote box-with-win) "omloop5" (quote omloop) (quote ((om-load-inputfun (quote input-funbox) "" "input" nil))) (om-make-point 60 403) nil nil nil (list (let ((box (om-load-boxcall (quote bastype) "list 5" (quote list) (quote nil) (om-make-point 238 104) (om-make-point 21 30) 1 "1" nil))) (when (fboundp (quote set-active)) (set-active box nil)) box) (let ((box (om-load-boxcall (quote lispfun) "NTHCDR" (quote nthcdr) (quote ((om-load-inputfun (quote input-funbox) "ORIG-N" "ORIG-N" nil) (om-load-inputfun (quote input-funbox) "ORIG-LIST" "ORIG-LIST" nil))) (om-make-point 237 138) nil nil "l" nil 1))) (when (fboundp (quote set-active)) (set-active box nil)) box) (let ((box (om-load-boxcall (quote genfun) "inlist" (quote listloop) (quote ((om-load-inputfun (quote input-funbox) "list to iterate" "LIST" nil) (om-load-inputfun (quote input-funbox) "step function" "BY" nil))) (om-make-point 173 182) (om-make-point 93 59) nil nil nil 1))) (when (fboundp (quote set-active)) (set-active box nil)) box) (let ((box (om-load-boxcall (quote genfun) "collect" (quote listing) (quote ((om-load-inputfun (quote input-funbox) "anything" "DATA" nil))) (om-make-point 446 239) nil nil nil nil 3))) (when (fboundp (quote set-active)) (set-active box nil)) box) (let ((box (om-load-boxcall (quote bastype) "list 3" (quote list) (quote nil) (om-make-point 129 240) (om-make-point 21 30) 1 "1" nil))) (when (fboundp (quote set-active)) (set-active box nil)) box) (let ((box (om-load-boxcall (quote bastype) "list 2" (quote list) (quote nil) (om-make-point 77 283) (om-make-point 27 30) 3 "3" nil))) (when (fboundp (quote set-active)) (set-active box nil)) box) (let ((box (om-load-boxcall (quote bastype) "list" (quote list) (quote nil) (om-make-point 49 280) (om-make-point 21 30) 1 "1" nil))) (when (fboundp (quote set-active)) (set-active box nil)) box) (let ((box (om-load-boxcall (quote genfun) "OM-RANDOM" (quote om-random) (quote ((om-load-inputfun (quote input-funbox) "min" "LOW" 0) (om-load-inputfun (quote input-funbox) "max" "HIGH" 1))) (om-make-point 41 313) nil nil nil nil 1))) (when (fboundp (quote set-active)) (set-active box nil)) box) (let ((box (om-load-boxcall (quote lispfun) "SUBST" (quote subst) (quote ((om-load-inputfun (quote input-funbox) "NEW" "NEW" nil) (om-load-inputfun (quote input-funbox) "OLD" "OLD" nil) (om-load-inputfun (quote input-funbox) "TREE" "TREE" nil))) (om-make-point 82 383) (om-make-point 127 43) nil nil nil 1))) (when (fboundp (quote set-active)) (set-active box nil)) box) (let ((box (om-load-boxin "input" 0 (om-make-point 374 54) "" nil nil nil))) (when (fboundp (quote set-active)) (set-active box nil)) box) (let ((box (om-load-seqbox "finally" (quote finaldo) (quote ((om-load-inputfun (quote input-funbox) "value to return" "VAL" nil) (om-load-inputfun (quote input-funbox) "other values" "MORE" nil))) (om-make-point 429 469) nil nil nil 0))) (when (fboundp (quote set-active)) (set-active box nil)) box) (let ((box (om-load-seqbox "eachTime" (quote loopdo) (quote ((om-load-inputfun (quote input-funbox) "operations to do" "OP" nil))) (om-make-point 355 305) nil nil nil 0))) (when (fboundp (quote set-active)) (set-active box nil)) box)) (quote ((0 0 1 0 nil 0) (9 0 2 0 ((om-make-point 390 111) (om-make-point 390 150) (om-make-point 230 72) (om-make-point 204 182)) 0) (1 0 2 1 nil 0) (8 0 3 0 nil 0) (6 0 7 0 nil 0) (5 0 7 1 nil 0) (7 0 8 0 nil 0) (4 0 8 1 nil 0) (2 0 8 2 nil 0) (8 0 10 0 nil 0) (3 1 10 1 nil 0) (3 0 11 0 nil 0))) 2 "omloop5" nil))) (when (fboundp (quote set-active)) (set-active box nil)) box) (let ((box (om-load-boxcomment "comment 4" (om-make-point 423 52) (quote "<= o 4o omloop encaminha o midi ch 2 (correspondente ao registro sub-grave) aos midi chs 4 a 6") "" (om-make-point 150 336) nil (om-make-color 0 0 0) (om-make-font "Verdana" 12 :family "Verdana" :style (quote (:plain)) :mode (quote nil))))) (when (fboundp (quote set-active)) (set-active box nil)) box) (let ((box (om-load-boxwithed1 (quote box-with-win) "omloop4" (quote omloop) (quote ((om-load-inputfun (quote input-funbox) "" "input" nil))) (om-make-point 87 330) nil nil nil (list (let ((box (om-load-boxcall (quote bastype) "list 5" (quote list) (quote nil) (om-make-point 238 104) (om-make-point 21 30) 1 "1" nil))) (when (fboundp (quote set-active)) (set-active box nil)) box) (let ((box (om-load-boxcall (quote lispfun) "NTHCDR" (quote nthcdr) (quote ((om-load-inputfun (quote input-funbox) "ORIG-N" "ORIG-N" nil) (om-load-inputfun (quote input-funbox) "ORIG-LIST" "ORIG-LIST" nil))) (om-make-point 237 138) nil nil "l" nil 1))) (when (fboundp (quote set-active)) (set-active box nil)) box) (let ((box (om-load-boxcall (quote genfun) "inlist" (quote listloop) (quote ((om-load-inputfun (quote input-funbox) "list to iterate" "LIST" nil) (om-load-inputfun (quote input-funbox) "step function" "BY" nil))) (om-make-point 173 182) (om-make-point 93 59) nil nil nil 1))) (when (fboundp (quote set-active)) (set-active box nil)) box) (let ((box (om-load-boxcall (quote genfun) "collect" (quote listing) (quote ((om-load-inputfun (quote input-funbox) "anything" "DATA" nil))) (om-make-point 446 239) nil nil nil nil 3))) (when (fboundp (quote set-active)) (set-active box nil)) box) (let ((box (om-load-boxcall (quote bastype) "list 3" (quote list) (quote nil) (om-make-point 129 240) (om-make-point 27 30) 2 "2" nil))) (when (fboundp (quote set-active)) (set-active box nil)) box) (let ((box (om-load-boxcall (quote bastype) "list 2" (quote list) (quote nil) (om-make-point 77 283) (om-make-point 27 30) 6 "6" nil))) (when (fboundp (quote set-active)) (set-active box nil)) box) (let ((box (om-load-boxcall (quote bastype) "list" (quote list) (quote nil) (om-make-point 49 280) (om-make-point 27 30) 4 "4" nil))) (when (fboundp (quote set-active)) (set-active box nil)) box) (let ((box (om-load-boxcall (quote genfun) "OM-RANDOM" (quote om-random) (quote ((om-load-inputfun (quote input-funbox) "min" "LOW" 0) (om-load-inputfun (quote input-funbox) "max" "HIGH" 1))) (om-make-point 41 313) nil nil nil nil 1))) (when (fboundp (quote set-active)) (set-active box nil)) box) (let ((box (om-load-boxcall (quote lispfun) "SUBST" (quote subst) (quote ((om-load-inputfun (quote input-funbox) "NEW" "NEW" nil) (om-load-inputfun (quote input-funbox) "OLD" "OLD" nil) (om-load-inputfun (quote input-funbox) "TREE" "TREE" nil))) (om-make-point 82 383) (om-make-point 127 43) nil nil nil 1))) (when (fboundp (quote set-active)) (set-active box nil)) box) (let ((box (om-load-boxin "input" 0 (om-make-point 374 54) "" nil nil nil))) (when (fboundp (quote set-active)) (set-active box nil)) box) (let ((box (om-load-seqbox "finally" (quote finaldo) (quote ((om-load-inputfun (quote input-funbox) "value to return" "VAL" nil) (om-load-inputfun (quote input-funbox) "other values" "MORE" nil))) (om-make-point 429 469) nil nil nil 0))) (when (fboundp (quote set-active)) (set-active box nil)) box) (let ((box (om-load-seqbox "eachTime" (quote loopdo) (quote ((om-load-inputfun (quote input-funbox) "operations to do" "OP" nil))) (om-make-point 355 305) nil nil nil 0))) (when (fboundp (quote set-active)) (set-active box nil)) box)) (quote ((0 0 1 0 nil 0) (9 0 2 0 ((om-make-point 390 111) (om-make-point 390 150) (om-make-point 230 72) (om-make-point 204 182)) 0) (1 0 2 1 nil 0) (8 0 3 0 nil 0) (6 0 7 0 nil 0) (5 0 7 1 nil 0) (7 0 8 0 nil 0) (4 0 8 1 nil 0) (2 0 8 2 nil 0) (8 0 10 0 nil 0) (3 1 10 1 nil 0) (3 0 11 0 nil 0))) 2 "omloop4" nil))) (when (fboundp (quote set-active)) (set-active box nil)) box) (let ((box (om-load-boxcomment "comment" (om-make-point 577 65) (quote "Atenção: os omloops devem ser encadeados SEMPRE do midi ch mais alto para o mais baixo, de forma a não alterar a divisão em registros original (e pretendida para a orquestração)") "" (om-make-point 396 507) nil (om-make-color 0 0 0) (om-make-font "Verdana" 14 :family "Verdana" :style (quote (:bold)) :mode (quote nil))))) (when (fboundp (quote set-active)) (set-active box nil)) box) (let ((box (om-load-boxcomment "comment 3" (om-make-point 423 52) (quote "<= o 3o omloop encaminha o midi ch 3 (correspondente ao registro médio-grave) aos midi chs 7 a 9") "" (om-make-point 153 263) nil (om-make-color 0 0 0) (om-make-font "Verdana" 12 :family "Verdana" :style (quote (:plain)) :mode (quote nil))))) (when (fboundp (quote set-active)) (set-active box nil)) box) (let ((box (om-load-boxcomment "comment 2" (om-make-point 423 52) (quote "<= o 1o omloop encaminha o midi ch 5 (correspondente ao registro mais agudo) aos midi chs 14 a 16") "" (om-make-point 155 126) nil (om-make-color 0 0 0) (om-make-font "Verdana" 12 :family "Verdana" :style (quote (:plain)) :mode (quote nil))))) (when (fboundp (quote set-active)) (set-active box nil)) box) (let ((box (om-load-boxcomment "comment" (om-make-point 423 52) (quote "<= o 2o omloop encaminha o midi ch 4 (correspondente ao registro médio) aos midi chs 11 e 13") "" (om-make-point 150 191) nil (om-make-color 0 0 0) (om-make-font "Verdana" 12 :family "Verdana" :style (quote (:plain)) :mode (quote nil))))) (when (fboundp (quote set-active)) (set-active box nil)) box) (let ((box (om-load-boxout "output" 0 (om-make-point 26 516) (quote ((om-load-inputfun (quote input-funbox) "" "out" nil))) "midich - conecte no input de midich do chord-seq" nil))) (when (fboundp (quote set-active)) (set-active box nil)) box) (let ((box (om-load-boxcall (quote genfun) "OM-SCALE" (quote om-scale) (quote ((om-load-inputfun (quote input-funbox) "number or list" "SELF" 1) (om-load-inputfun (quote input-funbox) "a number" "MINOUT" 0) (om-load-inputfun (quote input-funbox) "a number" "MAXOUT" 0))) (om-make-point 495 59) nil nil nil nil 1))) (when (fboundp (quote set-active)) (set-active box nil)) box) (let ((box (om-load-boxwithed1 (quote box-with-win) "omloop3" (quote omloop) (quote ((om-load-inputfun (quote input-funbox) "" "input" nil))) (om-make-point 89 257) nil nil nil (list (let ((box (om-load-boxcall (quote bastype) "list 5" (quote list) (quote nil) (om-make-point 238 104) (om-make-point 21 30) 1 "1" nil))) (when (fboundp (quote set-active)) (set-active box nil)) box) (let ((box (om-load-boxcall (quote lispfun) "NTHCDR" (quote nthcdr) (quote ((om-load-inputfun (quote input-funbox) "ORIG-N" "ORIG-N" nil) (om-load-inputfun (quote input-funbox) "ORIG-LIST" "ORIG-LIST" nil))) (om-make-point 237 138) nil nil "l" nil 1))) (when (fboundp (quote set-active)) (set-active box nil)) box) (let ((box (om-load-boxcall (quote genfun) "inlist" (quote listloop) (quote ((om-load-inputfun (quote input-funbox) "list to iterate" "LIST" nil) (om-load-inputfun (quote input-funbox) "step function" "BY" nil))) (om-make-point 173 182) (om-make-point 93 59) nil nil nil 1))) (when (fboundp (quote set-active)) (set-active box nil)) box) (let ((box (om-load-boxcall (quote genfun) "collect" (quote listing) (quote ((om-load-inputfun (quote input-funbox) "anything" "DATA" nil))) (om-make-point 446 239) nil nil nil nil 3))) (when (fboundp (quote set-active)) (set-active box nil)) box) (let ((box (om-load-boxcall (quote bastype) "list 3" (quote list) (quote nil) (om-make-point 129 240) (om-make-point 27 30) 3 "3" nil))) (when (fboundp (quote set-active)) (set-active box nil)) box) (let ((box (om-load-boxcall (quote bastype) "list 2" (quote list) (quote nil) (om-make-point 77 283) (om-make-point 27 30) 9 "9" nil))) (when (fboundp (quote set-active)) (set-active box nil)) box) (let ((box (om-load-boxcall (quote bastype) "list" (quote list) (quote nil) (om-make-point 49 280) (om-make-point 27 30) 7 "7" nil))) (when (fboundp (quote set-active)) (set-active box nil)) box) (let ((box (om-load-boxcall (quote genfun) "OM-RANDOM" (quote om-random) (quote ((om-load-inputfun (quote input-funbox) "min" "LOW" 0) (om-load-inputfun (quote input-funbox) "max" "HIGH" 1))) (om-make-point 41 313) nil nil nil nil 1))) (when (fboundp (quote set-active)) (set-active box nil)) box) (let ((box (om-load-boxcall (quote lispfun) "SUBST" (quote subst) (quote ((om-load-inputfun (quote input-funbox) "NEW" "NEW" nil) (om-load-inputfun (quote input-funbox) "OLD" "OLD" nil) (om-load-inputfun (quote input-funbox) "TREE" "TREE" nil))) (om-make-point 82 383) (om-make-point 127 43) nil nil nil 1))) (when (fboundp (quote set-active)) (set-active box nil)) box) (let ((box (om-load-boxin "input" 0 (om-make-point 374 54) "" nil nil nil))) (when (fboundp (quote set-active)) (set-active box nil)) box) (let ((box (om-load-seqbox "finally" (quote finaldo) (quote ((om-load-inputfun (quote input-funbox) "value to return" "VAL" nil) (om-load-inputfun (quote input-funbox) "other values" "MORE" nil))) (om-make-point 429 469) nil nil nil 0))) (when (fboundp (quote set-active)) (set-active box nil)) box) (let ((box (om-load-seqbox "eachTime" (quote loopdo) (quote ((om-load-inputfun (quote input-funbox) "operations to do" "OP" nil))) (om-make-point 355 305) nil nil nil 0))) (when (fboundp (quote set-active)) (set-active box nil)) box)) (quote ((0 0 1 0 nil 0) (9 0 2 0 ((om-make-point 390 111) (om-make-point 390 150) (om-make-point 230 72) (om-make-point 204 182)) 0) (1 0 2 1 nil 0) (8 0 3 0 nil 0) (6 0 7 0 nil 0) (5 0 7 1 nil 0) (7 0 8 0 nil 0) (4 0 8 1 nil 0) (2 0 8 2 nil 0) (8 0 10 0 nil 0) (3 1 10 1 nil 0) (3 0 11 0 nil 0))) 2 "omloop3" nil))) (when (fboundp (quote set-active)) (set-active box nil)) box) (let ((box (om-load-boxwithed1 (quote box-with-win) "omloop2" (quote omloop) (quote ((om-load-inputfun (quote input-funbox) "" "input" nil))) (om-make-point 91 182) nil nil nil (list (let ((box (om-load-boxcall (quote bastype) "list 5" (quote list) (quote nil) (om-make-point 238 104) (om-make-point 21 30) 1 "1" nil))) (when (fboundp (quote set-active)) (set-active box nil)) box) (let ((box (om-load-boxcall (quote lispfun) "NTHCDR" (quote nthcdr) (quote ((om-load-inputfun (quote input-funbox) "ORIG-N" "ORIG-N" nil) (om-load-inputfun (quote input-funbox) "ORIG-LIST" "ORIG-LIST" nil))) (om-make-point 237 138) nil nil "l" nil 1))) (when (fboundp (quote set-active)) (set-active box nil)) box) (let ((box (om-load-boxcall (quote genfun) "inlist" (quote listloop) (quote ((om-load-inputfun (quote input-funbox) "list to iterate" "LIST" nil) (om-load-inputfun (quote input-funbox) "step function" "BY" nil))) (om-make-point 173 182) (om-make-point 93 59) nil nil nil 1))) (when (fboundp (quote set-active)) (set-active box nil)) box) (let ((box (om-load-boxcall (quote genfun) "collect" (quote listing) (quote ((om-load-inputfun (quote input-funbox) "anything" "DATA" nil))) (om-make-point 446 239) nil nil nil nil 3))) (when (fboundp (quote set-active)) (set-active box nil)) box) (let ((box (om-load-boxcall (quote bastype) "list 3" (quote list) (quote nil) (om-make-point 129 240) (om-make-point 27 30) 4 "4" nil))) (when (fboundp (quote set-active)) (set-active box nil)) box) (let ((box (om-load-boxcall (quote bastype) "list 2" (quote list) (quote nil) (om-make-point 90 275) (om-make-point 34 30) 13 "13" nil))) (when (fboundp (quote set-active)) (set-active box nil)) box) (let ((box (om-load-boxcall (quote bastype) "list" (quote list) (quote nil) (om-make-point 49 280) (om-make-point 34 30) 11 "11" nil))) (when (fboundp (quote set-active)) (set-active box nil)) box) (let ((box (om-load-boxcall (quote genfun) "OM-RANDOM" (quote om-random) (quote ((om-load-inputfun (quote input-funbox) "min" "LOW" 0) (om-load-inputfun (quote input-funbox) "max" "HIGH" 1))) (om-make-point 41 313) nil nil nil nil 1))) (when (fboundp (quote set-active)) (set-active box nil)) box) (let ((box (om-load-boxcall (quote lispfun) "SUBST" (quote subst) (quote ((om-load-inputfun (quote input-funbox) "NEW" "NEW" nil) (om-load-inputfun (quote input-funbox) "OLD" "OLD" nil) (om-load-inputfun (quote input-funbox) "TREE" "TREE" nil))) (om-make-point 82 383) (om-make-point 127 43) nil nil nil 1))) (when (fboundp (quote set-active)) (set-active box nil)) box) (let ((box (om-load-boxin "input" 0 (om-make-point 374 54) "" nil nil nil))) (when (fboundp (quote set-active)) (set-active box nil)) box) (let ((box (om-load-seqbox "finally" (quote finaldo) (quote ((om-load-inputfun (quote input-funbox) "value to return" "VAL" nil) (om-load-inputfun (quote input-funbox) "other values" "MORE" nil))) (om-make-point 429 469) nil nil nil 0))) (when (fboundp (quote set-active)) (set-active box nil)) box) (let ((box (om-load-seqbox "eachTime" (quote loopdo) (quote ((om-load-inputfun (quote input-funbox) "operations to do" "OP" nil))) (om-make-point 355 305) nil nil nil 0))) (when (fboundp (quote set-active)) (set-active box nil)) box)) (quote ((0 0 1 0 nil 0) (9 0 2 0 ((om-make-point 390 111) (om-make-point 390 150) (om-make-point 230 72) (om-make-point 204 182)) 0) (1 0 2 1 nil 0) (8 0 3 0 nil 0) (6 0 7 0 nil 0) (5 0 7 1 nil 0) (7 0 8 0 nil 0) (4 0 8 1 nil 0) (2 0 8 2 nil 0) (8 0 10 0 nil 0) (3 1 10 1 nil 0) (3 0 11 0 nil 0))) 2 "omloop2" nil))) (when (fboundp (quote set-active)) (set-active box nil)) box) (let ((box (om-load-boxcall (quote genfun) "FLAT" (quote flat) (quote ((om-load-inputfun (quote input-funbox) "a list" "LST" nil))) (om-make-point 35 467) nil nil nil nil 1))) (when (fboundp (quote set-active)) (set-active box nil)) box) (let ((box (om-load-boxwithed1 (quote box-with-win) "omloop1" (quote omloop) (quote ((om-load-inputfun (quote input-funbox) "" "input" nil))) (om-make-point 98 102) nil nil nil (list (let ((box (om-load-boxcall (quote bastype) "list 5" (quote list) (quote nil) (om-make-point 238 104) (om-make-point 21 30) 1 "1" nil))) (when (fboundp (quote set-active)) (set-active box nil)) box) (let ((box (om-load-boxcall (quote lispfun) "NTHCDR" (quote nthcdr) (quote ((om-load-inputfun (quote input-funbox) "ORIG-N" "ORIG-N" nil) (om-load-inputfun (quote input-funbox) "ORIG-LIST" "ORIG-LIST" nil))) (om-make-point 237 138) nil nil "l" nil 1))) (when (fboundp (quote set-active)) (set-active box nil)) box) (let ((box (om-load-boxcall (quote genfun) "inlist" (quote listloop) (quote ((om-load-inputfun (quote input-funbox) "list to iterate" "LIST" nil) (om-load-inputfun (quote input-funbox) "step function" "BY" nil))) (om-make-point 173 182) (om-make-point 93 59) nil nil nil 1))) (when (fboundp (quote set-active)) (set-active box nil)) box) (let ((box (om-load-boxcall (quote genfun) "collect" (quote listing) (quote ((om-load-inputfun (quote input-funbox) "anything" "DATA" nil))) (om-make-point 446 239) nil nil nil nil 3))) (when (fboundp (quote set-active)) (set-active box nil)) box) (let ((box (om-load-boxcall (quote bastype) "list 3" (quote list) (quote nil) (om-make-point 129 240) (om-make-point 27 30) 5 "5" nil))) (when (fboundp (quote set-active)) (set-active box nil)) box) (let ((box (om-load-boxcall (quote bastype) "list 2" (quote list) (quote nil) (om-make-point 95 277) (om-make-point 34 30) 16 "16" nil))) (when (fboundp (quote set-active)) (set-active box nil)) box) (let ((box (om-load-boxcall (quote bastype) "list" (quote list) (quote nil) (om-make-point 49 280) (om-make-point 34 30) 14 "14" nil))) (when (fboundp (quote set-active)) (set-active box nil)) box) (let ((box (om-load-boxcall (quote genfun) "OM-RANDOM" (quote om-random) (quote ((om-load-inputfun (quote input-funbox) "min" "LOW" 0) (om-load-inputfun (quote input-funbox) "max" "HIGH" 1))) (om-make-point 41 313) nil nil nil nil 1))) (when (fboundp (quote set-active)) (set-active box nil)) box) (let ((box (om-load-boxcall (quote lispfun) "SUBST" (quote subst) (quote ((om-load-inputfun (quote input-funbox) "NEW" "NEW" nil) (om-load-inputfun (quote input-funbox) "OLD" "OLD" nil) (om-load-inputfun (quote input-funbox) "TREE" "TREE" nil))) (om-make-point 82 383) (om-make-point 127 43) nil nil nil 1))) (when (fboundp (quote set-active)) (set-active box nil)) box) (let ((box (om-load-boxin "input" 0 (om-make-point 374 54) "" nil nil nil))) (when (fboundp (quote set-active)) (set-active box nil)) box) (let ((box (om-load-seqbox "finally" (quote finaldo) (quote ((om-load-inputfun (quote input-funbox) "value to return" "VAL" nil) (om-load-inputfun (quote input-funbox) "other values" "MORE" nil))) (om-make-point 429 469) nil nil nil 0))) (when (fboundp (quote set-active)) (set-active box nil)) box) (let ((box (om-load-seqbox "eachTime" (quote loopdo) (quote ((om-load-inputfun (quote input-funbox) "operations to do" "OP" nil))) (om-make-point 355 305) nil nil nil 0))) (when (fboundp (quote set-active)) (set-active box nil)) box)) (quote ((0 0 1 0 nil 0) (9 0 2 0 ((om-make-point 390 111) (om-make-point 390 150) (om-make-point 230 72) (om-make-point 204 182)) 0) (1 0 2 1 nil 0) (8 0 3 0 nil 0) (6 0 7 0 nil 0) (5 0 7 1 nil 0) (7 0 8 0 nil 0) (4 0 8 1 nil 0) (2 0 8 2 nil 0) (8 0 10 0 nil 0) (3 1 10 1 nil 0) (3 0 11 0 nil 0))) 2 "omloop1" nil))) (when (fboundp (quote set-active)) (set-active box nil)) box) (let ((box (om-load-boxcall (quote bastype) "list 2" (quote list) (quote nil) (om-make-point 575 19) (om-make-point 27 30) 5 "5" nil))) (when (fboundp (quote set-active)) (set-active box nil)) box) (let ((box (om-load-boxcall (quote bastype) "list" (quote list) (quote nil) (om-make-point 554 19) (om-make-point 21 30) 1 "1" nil))) (when (fboundp (quote set-active)) (set-active box nil)) box) (let ((box (om-load-boxcall (quote genfun) "OM-ROUND" (quote om-round) (quote ((om-load-inputfun (quote input-funbox) "number or list" "N" 1))) (om-make-point 410 62) nil nil nil nil 1))) (when (fboundp (quote set-active)) (set-active box nil)) box) (let ((box (om-load-boxin "midics - ponha aqui o output de midics da secao A" 0 (om-make-point 108 2) "" "midics - ponha aqui o output de midics da secao A" nil nil))) (when (fboundp (quote set-active)) (set-active box nil)) box))) (quote ((3 1 1 0 nil 0) (10 1 3 0 nil 0) (12 0 8 0 nil 0) (17 0 9 0 nil 0) (15 0 9 1 nil 0) (14 0 9 2 nil 0) (11 1 10 0 nil 0) (13 1 11 0 nil 0) (1 1 12 0 nil 0) (16 0 13 0 nil 0) (9 0 16 0 nil 0))) 6.16 nil "" (om-make-point 200 200) (om-make-point 500 400)) (quote ((om-load-inputfun (quote input-funbox) "" "midics - ponha aqui o output de midics da secao A" nil))) (om-make-point 929 482) nil (list (list 4 9 9 12 12 15 2 11 4 9 13 9 4 6 9 9 11 12 1 2 12 6 11 12 1 14 13 8 6 16 8 12 12 6 11 11 13 6 12 7 11 1 5 11 11 13 5 12 4 4 6 9 5 2 2 5 12 12 8 11 4 9 13 6 13 12 3 15 5 15 5 2 9 5 4 8 15 12 5 12 9 4 3 9 4 8 16 6 8 12 12 9 12 15 13 7 8 2 5)) nil "Orq. 5 reg.=>15ch."))) (when (fboundp (quote set-active)) (set-active box nil)) box) (let ((box (om-load-boxcall (quote abstraction) "Orq. 3 reg.=>8 ch." (om-load-patch-abs1 "Orq. 3 reg.=>8 ch." (quote ((let ((box (om-load-boxcomment "comment" (om-make-point 577 65) (quote "Atenção: os omloops devem ser encadeados SEMPRE do midi ch mais alto para o mais baixo, de forma a não alterar a divisão em registros original (e pretendida para a orquestração)") "" (om-make-point 163 425) nil (om-make-color 0 0 0) (om-make-font "Verdana" 14 :family "Verdana" :style (quote (:bold)) :mode (quote nil))))) (when (fboundp (quote set-active)) (set-active box nil)) box) (let ((box (om-load-boxcomment "comment 3" (om-make-point 423 52) (quote "<= o 3o omloop encaminha o midi ch 1 (correspondente ao registro grave) aos midi chs 1 a 2") "" (om-make-point 167 355) nil (om-make-color 0 0 0) (om-make-font "Verdana" 12 :family "Verdana" :style (quote (:plain)) :mode (quote nil))))) (when (fboundp (quote set-active)) (set-active box nil)) box) (let ((box (om-load-boxcomment "comment 2" (om-make-point 423 52) (quote "<= o 1o omloop encaminha o midi ch 3 (correspondente ao registro mais agudo) aos midi chs 6 a 8") "" (om-make-point 156 157) nil (om-make-color 0 0 0) (om-make-font "Verdana" 12 :family "Verdana" :style (quote (:plain)) :mode (quote nil))))) (when (fboundp (quote set-active)) (set-active box nil)) box) (let ((box (om-load-boxcomment "comment" (om-make-point 423 52) (quote "<= o 2o omloop encaminha o midi ch 2 (correspondente ao registro médio) aos midi chs 3 a 5") "" (om-make-point 163 256) nil (om-make-color 0 0 0) (om-make-font "Verdana" 12 :family "Verdana" :style (quote (:plain)) :mode (quote nil))))) (when (fboundp (quote set-active)) (set-active box nil)) box) (let ((box (om-load-boxout "output" 0 (om-make-point 26 516) (quote ((om-load-inputfun (quote input-funbox) "" "out" nil))) "midich - conecte no input de midich do chord-seq" nil))) (when (fboundp (quote set-active)) (set-active box nil)) box) (let ((box (om-load-boxcall (quote genfun) "OM-SCALE" (quote om-scale) (quote ((om-load-inputfun (quote input-funbox) "number or list" "SELF" 1) (om-load-inputfun (quote input-funbox) "a number" "MINOUT" 0) (om-load-inputfun (quote input-funbox) "a number" "MAXOUT" 0))) (om-make-point 495 59) nil nil nil nil 1))) (when (fboundp (quote set-active)) (set-active box nil)) box) (let ((box (om-load-boxwithed1 (quote box-with-win) "omloop3" (quote omloop) (quote ((om-load-inputfun (quote input-funbox) "" "input" nil))) (om-make-point 102 347) nil nil nil (list (let ((box (om-load-boxcall (quote bastype) "list 5" (quote list) (quote nil) (om-make-point 238 104) (om-make-point 21 30) 1 "1" nil))) (when (fboundp (quote set-active)) (set-active box nil)) box) (let ((box (om-load-boxcall (quote lispfun) "NTHCDR" (quote nthcdr) (quote ((om-load-inputfun (quote input-funbox) "ORIG-N" "ORIG-N" nil) (om-load-inputfun (quote input-funbox) "ORIG-LIST" "ORIG-LIST" nil))) (om-make-point 237 138) nil nil "l" nil 1))) (when (fboundp (quote set-active)) (set-active box nil)) box) (let ((box (om-load-boxcall (quote genfun) "inlist" (quote listloop) (quote ((om-load-inputfun (quote input-funbox) "list to iterate" "LIST" nil) (om-load-inputfun (quote input-funbox) "step function" "BY" nil))) (om-make-point 173 182) (om-make-point 93 59) nil nil nil 1))) (when (fboundp (quote set-active)) (set-active box nil)) box) (let ((box (om-load-boxcall (quote genfun) "collect" (quote listing) (quote ((om-load-inputfun (quote input-funbox) "anything" "DATA" nil))) (om-make-point 446 239) nil nil nil nil 3))) (when (fboundp (quote set-active)) (set-active box nil)) box) (let ((box (om-load-boxcall (quote bastype) "list 3" (quote list) (quote nil) (om-make-point 129 240) (om-make-point 21 30) 1 "1" nil))) (when (fboundp (quote set-active)) (set-active box nil)) box) (let ((box (om-load-boxcall (quote bastype) "list 2" (quote list) (quote nil) (om-make-point 77 283) (om-make-point 27 30) 2 "2" nil))) (when (fboundp (quote set-active)) (set-active box nil)) box) (let ((box (om-load-boxcall (quote bastype) "list" (quote list) (quote nil) (om-make-point 49 280) (om-make-point 21 30) 1 "1" nil))) (when (fboundp (quote set-active)) (set-active box nil)) box) (let ((box (om-load-boxcall (quote genfun) "OM-RANDOM" (quote om-random) (quote ((om-load-inputfun (quote input-funbox) "min" "LOW" 0) (om-load-inputfun (quote input-funbox) "max" "HIGH" 1))) (om-make-point 41 313) nil nil nil nil 1))) (when (fboundp (quote set-active)) (set-active box nil)) box) (let ((box (om-load-boxcall (quote lispfun) "SUBST" (quote subst) (quote ((om-load-inputfun (quote input-funbox) "NEW" "NEW" nil) (om-load-inputfun (quote input-funbox) "OLD" "OLD" nil) (om-load-inputfun (quote input-funbox) "TREE" "TREE" nil))) (om-make-point 82 383) (om-make-point 127 43) nil nil nil 1))) (when (fboundp (quote set-active)) (set-active box nil)) box) (let ((box (om-load-boxin "input" 0 (om-make-point 374 54) "" nil nil nil))) (when (fboundp (quote set-active)) (set-active box nil)) box) (let ((box (om-load-seqbox "finally" (quote finaldo) (quote ((om-load-inputfun (quote input-funbox) "value to return" "VAL" nil) (om-load-inputfun (quote input-funbox) "other values" "MORE" nil))) (om-make-point 429 469) nil nil nil 0))) (when (fboundp (quote set-active)) (set-active box nil)) box) (let ((box (om-load-seqbox "eachTime" (quote loopdo) (quote ((om-load-inputfun (quote input-funbox) "operations to do" "OP" nil))) (om-make-point 355 305) nil nil nil 0))) (when (fboundp (quote set-active)) (set-active box nil)) box)) (quote ((0 0 1 0 nil 0) (9 0 2 0 ((om-make-point 390 111) (om-make-point 390 150) (om-make-point 230 72) (om-make-point 204 182)) 0) (1 0 2 1 nil 0) (8 0 3 0 nil 0) (6 0 7 0 nil 0) (5 0 7 1 nil 0) (7 0 8 0 nil 0) (4 0 8 1 nil 0) (2 0 8 2 nil 0) (8 0 10 0 nil 0) (3 1 10 1 nil 0) (3 0 11 0 nil 0))) 2 "omloop3" nil))) (when (fboundp (quote set-active)) (set-active box nil)) box) (let ((box (om-load-boxwithed1 (quote box-with-win) "omloop2" (quote omloop) (quote ((om-load-inputfun (quote input-funbox) "" "input" nil))) (om-make-point 100 247) nil nil nil (list (let ((box (om-load-boxcall (quote bastype) "list 5" (quote list) (quote nil) (om-make-point 238 104) (om-make-point 21 30) 1 "1" nil))) (when (fboundp (quote set-active)) (set-active box nil)) box) (let ((box (om-load-boxcall (quote lispfun) "NTHCDR" (quote nthcdr) (quote ((om-load-inputfun (quote input-funbox) "ORIG-N" "ORIG-N" nil) (om-load-inputfun (quote input-funbox) "ORIG-LIST" "ORIG-LIST" nil))) (om-make-point 237 138) nil nil "l" nil 1))) (when (fboundp (quote set-active)) (set-active box nil)) box) (let ((box (om-load-boxcall (quote genfun) "inlist" (quote listloop) (quote ((om-load-inputfun (quote input-funbox) "list to iterate" "LIST" nil) (om-load-inputfun (quote input-funbox) "step function" "BY" nil))) (om-make-point 173 182) (om-make-point 93 59) nil nil nil 1))) (when (fboundp (quote set-active)) (set-active box nil)) box) (let ((box (om-load-boxcall (quote genfun) "collect" (quote listing) (quote ((om-load-inputfun (quote input-funbox) "anything" "DATA" nil))) (om-make-point 446 239) nil nil nil nil 3))) (when (fboundp (quote set-active)) (set-active box nil)) box) (let ((box (om-load-boxcall (quote bastype) "list 3" (quote list) (quote nil) (om-make-point 129 240) (om-make-point 21 30) 2 "2" nil))) (when (fboundp (quote set-active)) (set-active box nil)) box) (let ((box (om-load-boxcall (quote bastype) "list 2" (quote list) (quote nil) (om-make-point 77 283) (om-make-point 27 30) 5 "5" nil))) (when (fboundp (quote set-active)) (set-active box nil)) box) (let ((box (om-load-boxcall (quote bastype) "list" (quote list) (quote nil) (om-make-point 49 280) (om-make-point 27 30) 3 "3" nil))) (when (fboundp (quote set-active)) (set-active box nil)) box) (let ((box (om-load-boxcall (quote genfun) "OM-RANDOM" (quote om-random) (quote ((om-load-inputfun (quote input-funbox) "min" "LOW" 0) (om-load-inputfun (quote input-funbox) "max" "HIGH" 1))) (om-make-point 41 313) nil nil nil nil 1))) (when (fboundp (quote set-active)) (set-active box nil)) box) (let ((box (om-load-boxcall (quote lispfun) "SUBST" (quote subst) (quote ((om-load-inputfun (quote input-funbox) "NEW" "NEW" nil) (om-load-inputfun (quote input-funbox) "OLD" "OLD" nil) (om-load-inputfun (quote input-funbox) "TREE" "TREE" nil))) (om-make-point 82 383) (om-make-point 127 43) nil nil nil 1))) (when (fboundp (quote set-active)) (set-active box nil)) box) (let ((box (om-load-boxin "input" 0 (om-make-point 374 54) "" nil nil nil))) (when (fboundp (quote set-active)) (set-active box nil)) box) (let ((box (om-load-seqbox "finally" (quote finaldo) (quote ((om-load-inputfun (quote input-funbox) "value to return" "VAL" nil) (om-load-inputfun (quote input-funbox) "other values" "MORE" nil))) (om-make-point 429 469) nil nil nil 0))) (when (fboundp (quote set-active)) (set-active box nil)) box) (let ((box (om-load-seqbox "eachTime" (quote loopdo) (quote ((om-load-inputfun (quote input-funbox) "operations to do" "OP" nil))) (om-make-point 355 305) nil nil nil 0))) (when (fboundp (quote set-active)) (set-active box nil)) box)) (quote ((0 0 1 0 nil 0) (9 0 2 0 ((om-make-point 390 111) (om-make-point 390 150) (om-make-point 230 72) (om-make-point 204 182)) 0) (1 0 2 1 nil 0) (8 0 3 0 nil 0) (6 0 7 0 nil 0) (5 0 7 1 nil 0) (7 0 8 0 nil 0) (4 0 8 1 nil 0) (2 0 8 2 nil 0) (8 0 10 0 nil 0) (3 1 10 1 nil 0) (3 0 11 0 nil 0))) 2 "omloop2" nil))) (when (fboundp (quote set-active)) (set-active box nil)) box) (let ((box (om-load-boxcall (quote genfun) "FLAT" (quote flat) (quote ((om-load-inputfun (quote input-funbox) "a list" "LST" nil))) (om-make-point 38 438) nil nil nil nil 1))) (when (fboundp (quote set-active)) (set-active box nil)) box) (let ((box (om-load-boxwithed1 (quote box-with-win) "omloop1" (quote omloop) (quote ((om-load-inputfun (quote input-funbox) "" "input" nil))) (om-make-point 97 148) nil nil nil (list (let ((box (om-load-boxcall (quote bastype) "list 5" (quote list) (quote nil) (om-make-point 238 104) (om-make-point 21 30) 1 "1" nil))) (when (fboundp (quote set-active)) (set-active box nil)) box) (let ((box (om-load-boxcall (quote lispfun) "NTHCDR" (quote nthcdr) (quote ((om-load-inputfun (quote input-funbox) "ORIG-N" "ORIG-N" nil) (om-load-inputfun (quote input-funbox) "ORIG-LIST" "ORIG-LIST" nil))) (om-make-point 237 138) nil nil "l" nil 1))) (when (fboundp (quote set-active)) (set-active box nil)) box) (let ((box (om-load-boxcall (quote genfun) "inlist" (quote listloop) (quote ((om-load-inputfun (quote input-funbox) "list to iterate" "LIST" nil) (om-load-inputfun (quote input-funbox) "step function" "BY" nil))) (om-make-point 173 182) (om-make-point 93 59) nil nil nil 1))) (when (fboundp (quote set-active)) (set-active box nil)) box) (let ((box (om-load-boxcall (quote genfun) "collect" (quote listing) (quote ((om-load-inputfun (quote input-funbox) "anything" "DATA" nil))) (om-make-point 446 239) nil nil nil nil 3))) (when (fboundp (quote set-active)) (set-active box nil)) box) (let ((box (om-load-boxcall (quote bastype) "list 3" (quote list) (quote nil) (om-make-point 129 240) (om-make-point 21 30) 3 "3" nil))) (when (fboundp (quote set-active)) (set-active box nil)) box) (let ((box (om-load-boxcall (quote bastype) "list 2" (quote list) (quote nil) (om-make-point 77 283) (om-make-point 27 30) 8 "8" nil))) (when (fboundp (quote set-active)) (set-active box nil)) box) (let ((box (om-load-boxcall (quote bastype) "list" (quote list) (quote nil) (om-make-point 49 280) (om-make-point 27 30) 6 "6" nil))) (when (fboundp (quote set-active)) (set-active box nil)) box) (let ((box (om-load-boxcall (quote genfun) "OM-RANDOM" (quote om-random) (quote ((om-load-inputfun (quote input-funbox) "min" "LOW" 0) (om-load-inputfun (quote input-funbox) "max" "HIGH" 1))) (om-make-point 41 313) nil nil nil nil 1))) (when (fboundp (quote set-active)) (set-active box nil)) box) (let ((box (om-load-boxcall (quote lispfun) "SUBST" (quote subst) (quote ((om-load-inputfun (quote input-funbox) "NEW" "NEW" nil) (om-load-inputfun (quote input-funbox) "OLD" "OLD" nil) (om-load-inputfun (quote input-funbox) "TREE" "TREE" nil))) (om-make-point 82 383) (om-make-point 127 43) nil nil nil 1))) (when (fboundp (quote set-active)) (set-active box nil)) box) (let ((box (om-load-boxin "input" 0 (om-make-point 374 54) "" nil nil nil))) (when (fboundp (quote set-active)) (set-active box nil)) box) (let ((box (om-load-seqbox "finally" (quote finaldo) (quote ((om-load-inputfun (quote input-funbox) "value to return" "VAL" nil) (om-load-inputfun (quote input-funbox) "other values" "MORE" nil))) (om-make-point 429 469) nil nil nil 0))) (when (fboundp (quote set-active)) (set-active box nil)) box) (let ((box (om-load-seqbox "eachTime" (quote loopdo) (quote ((om-load-inputfun (quote input-funbox) "operations to do" "OP" nil))) (om-make-point 355 305) nil nil nil 0))) (when (fboundp (quote set-active)) (set-active box nil)) box)) (quote ((0 0 1 0 nil 0) (9 0 2 0 ((om-make-point 390 111) (om-make-point 390 150) (om-make-point 230 72) (om-make-point 204 182)) 0) (1 0 2 1 nil 0) (8 0 3 0 nil 0) (6 0 7 0 nil 0) (5 0 7 1 nil 0) (7 0 8 0 nil 0) (4 0 8 1 nil 0) (2 0 8 2 nil 0) (8 0 10 0 nil 0) (3 1 10 1 nil 0) (3 0 11 0 nil 0))) 2 "omloop1" nil))) (when (fboundp (quote set-active)) (set-active box nil)) box) (let ((box (om-load-boxcall (quote bastype) "list 2" (quote list) (quote nil) (om-make-point 575 19) (om-make-point 21 30) 3 "3" nil))) (when (fboundp (quote set-active)) (set-active box nil)) box) (let ((box (om-load-boxcall (quote bastype) "list" (quote list) (quote nil) (om-make-point 554 19) (om-make-point 21 30) 1 "1" nil))) (when (fboundp (quote set-active)) (set-active box nil)) box) (let ((box (om-load-boxcall (quote genfun) "OM-ROUND" (quote om-round) (quote ((om-load-inputfun (quote input-funbox) "number or list" "N" 1))) (om-make-point 409 75) nil nil nil nil 1))) (when (fboundp (quote set-active)) (set-active box nil)) box) (let ((box (om-load-boxin "midics - ponha aqui o output de midics da secao A" 0 (om-make-point 108 2) "" "midics - ponha aqui o output de midics da secao A" nil nil))) (when (fboundp (quote set-active)) (set-active box nil)) box))) (quote ((8 0 4 0 nil 0) (13 0 5 0 nil 0) (11 0 5 1 nil 0) (10 0 5 2 nil 0) (7 1 6 0 nil 0) (9 1 7 0 nil 0) (6 1 8 0 nil 0) (12 0 9 0 nil 0) (5 0 12 0 nil 0))) 6.16 nil "" (om-make-point 200 200) (om-make-point 500 400)) (quote ((om-load-inputfun (quote input-funbox) "" "midics - ponha aqui o output de midics da secao A" nil))) (om-make-point 1070 491) nil (list (list 6 7 5 7 8 9 7 4 5 6 5 7 7 6 5 5 6 7 7 7 5 7 6 5 7 5 5 7 6 5 6 5 5 6 6 6 7 5 7 6 5 5 6 5 8 5 5 7 5 7 6 1 6 6 1 7 6 5 5 5 7 7 6 6 5 5 7 6 5 5 5 7 6 5 6 5 7 6 6 6 5 7 6 7 5 6 8 6 6 5 5 5 7 6 7 6 6 6 5 7 6 5 6 7 5 7 5 6 7 5 7 6 5 5 7 6 7 5 6 6 5 6 7 6 5 5 5 5 5 5 3 5 6 5 6 7 6 6 6 5 6 7 7 5 6 7 5 6 7 6 6 6 5 7 6 6 6 5 7 5 6 7 7 6 6 5 5 6 6 6 5 7 7 7 1 6 6 7 6 6 9 7 5 6 9 7 7 6 6 7 7 7 7 5 5 6 6 6 7 5 7 7 5 6 5 6 6 6 5 5 7 6 6 7 5 6 7 6 7 6 6 5 6 5 7 7 5 7 9 7 7 7 6 5 6 5 7 6 5 6 5 5 7 5 7 5 7 7 7 6 5 5 6 7 6 5 5 7 5 5 7 6 3 5 7 5 6 6 5 5 6 5 5 1 6 6 5 6 7 7 7 7 7 6 5 5 6 7 6 6 5 6 5 7 5 5 5 6 5 5 5 6 6 8 7 7 7 7 6 6 7 5 6 5 5 6 5 5 7 5 7 6 5 5 7 6 5 5 5 5 7 7 5 6 7 5 7 6 6 5 6 6 6 5 6 6 5 6 6 5 5 6 5 7 7 6 7 8 7 6 5 9 6 7 5 6 6 6 6 6 6 6 7 5 5 6 7 7 5 5 7 7 6 5 7 5 7 6 5 6 9 7 7 6 7 5 6 5 7 5 7 6 6 7 7 7 5 6 7 5 5 7 5 6 7 7 7 6 5 7 9 9 6 5 7 7 6 7 7 6 5 6 5 5 6 7 7 7 6 7 5 6 7 7)) nil "Orq. 3 reg.=>8 ch."))) (when (fboundp (quote set-active)) (set-active box nil)) box) (let ((box (om-load-boxcall (quote abstraction) "Orq. 5 reg.=>8ch." (om-load-patch-abs1 "Orq. 5 reg.=>8ch." (quote ((let ((box (om-load-boxcomment "comment 5" (om-make-point 423 52) (quote "<= o 4o omloop encaminha o midi ch 1 (correspondente ao registro sub-grave) aos midi chs 1") "" (om-make-point 118 412) nil (om-make-color 0 0 0) (om-make-font "Verdana" 12 :family "Verdana" :style (quote (:plain)) :mode (quote nil))))) (when (fboundp (quote set-active)) (set-active box nil)) box) (let ((box (om-load-boxwithed1 (quote box-with-win) "omloop5" (quote omloop) (quote ((om-load-inputfun (quote input-funbox) "" "input" nil))) (om-make-point 60 403) nil nil nil (list (let ((box (om-load-boxcall (quote bastype) "list 5" (quote list) (quote nil) (om-make-point 238 104) (om-make-point 21 30) 1 "1" nil))) (when (fboundp (quote set-active)) (set-active box nil)) box) (let ((box (om-load-boxcall (quote lispfun) "NTHCDR" (quote nthcdr) (quote ((om-load-inputfun (quote input-funbox) "ORIG-N" "ORIG-N" nil) (om-load-inputfun (quote input-funbox) "ORIG-LIST" "ORIG-LIST" nil))) (om-make-point 237 138) nil nil "l" nil 1))) (when (fboundp (quote set-active)) (set-active box nil)) box) (let ((box (om-load-boxcall (quote genfun) "inlist" (quote listloop) (quote ((om-load-inputfun (quote input-funbox) "list to iterate" "LIST" nil) (om-load-inputfun (quote input-funbox) "step function" "BY" nil))) (om-make-point 173 182) (om-make-point 93 59) nil nil nil 1))) (when (fboundp (quote set-active)) (set-active box nil)) box) (let ((box (om-load-boxcall (quote genfun) "collect" (quote listing) (quote ((om-load-inputfun (quote input-funbox) "anything" "DATA" nil))) (om-make-point 446 239) nil nil nil nil 3))) (when (fboundp (quote set-active)) (set-active box nil)) box) (let ((box (om-load-boxcall (quote bastype) "list 3" (quote list) (quote nil) (om-make-point 129 240) (om-make-point 21 30) 1 "1" nil))) (when (fboundp (quote set-active)) (set-active box nil)) box) (let ((box (om-load-boxcall (quote bastype) "list 2" (quote list) (quote nil) (om-make-point 77 283) (om-make-point 27 30) 1 "1" nil))) (when (fboundp (quote set-active)) (set-active box nil)) box) (let ((box (om-load-boxcall (quote bastype) "list" (quote list) (quote nil) (om-make-point 49 280) (om-make-point 21 30) 1 "1" nil))) (when (fboundp (quote set-active)) (set-active box nil)) box) (let ((box (om-load-boxcall (quote genfun) "OM-RANDOM" (quote om-random) (quote ((om-load-inputfun (quote input-funbox) "min" "LOW" 0) (om-load-inputfun (quote input-funbox) "max" "HIGH" 1))) (om-make-point 41 313) nil nil nil nil 1))) (when (fboundp (quote set-active)) (set-active box nil)) box) (let ((box (om-load-boxcall (quote lispfun) "SUBST" (quote subst) (quote ((om-load-inputfun (quote input-funbox) "NEW" "NEW" nil) (om-load-inputfun (quote input-funbox) "OLD" "OLD" nil) (om-load-inputfun (quote input-funbox) "TREE" "TREE" nil))) (om-make-point 82 383) (om-make-point 127 43) nil nil nil 1))) (when (fboundp (quote set-active)) (set-active box nil)) box) (let ((box (om-load-boxin "input" 0 (om-make-point 374 54) "" nil nil nil))) (when (fboundp (quote set-active)) (set-active box nil)) box) (let ((box (om-load-seqbox "finally" (quote finaldo) (quote ((om-load-inputfun (quote input-funbox) "value to return" "VAL" nil) (om-load-inputfun (quote input-funbox) "other values" "MORE" nil))) (om-make-point 429 469) nil nil nil 0))) (when (fboundp (quote set-active)) (set-active box nil)) box) (let ((box (om-load-seqbox "eachTime" (quote loopdo) (quote ((om-load-inputfun (quote input-funbox) "operations to do" "OP" nil))) (om-make-point 355 305) nil nil nil 0))) (when (fboundp (quote set-active)) (set-active box nil)) box)) (quote ((0 0 1 0 nil 0) (9 0 2 0 ((om-make-point 390 111) (om-make-point 390 150) (om-make-point 230 72) (om-make-point 204 182)) 0) (1 0 2 1 nil 0) (8 0 3 0 nil 0) (6 0 7 0 nil 0) (5 0 7 1 nil 0) (7 0 8 0 nil 0) (4 0 8 1 nil 0) (2 0 8 2 nil 0) (8 0 10 0 nil 0) (3 1 10 1 nil 0) (3 0 11 0 nil 0))) 2 "omloop5" nil))) (when (fboundp (quote set-active)) (set-active box nil)) box) (let ((box (om-load-boxcomment "comment 4" (om-make-point 423 52) (quote "<= o 4o omloop encaminha o midi ch 2 (correspondente ao registro grave) aos midi chs 2") "" (om-make-point 150 336) nil (om-make-color 0 0 0) (om-make-font "Verdana" 12 :family "Verdana" :style (quote (:plain)) :mode (quote nil))))) (when (fboundp (quote set-active)) (set-active box nil)) box) (let ((box (om-load-boxwithed1 (quote box-with-win) "omloop4" (quote omloop) (quote ((om-load-inputfun (quote input-funbox) "" "input" nil))) (om-make-point 87 330) nil nil nil (list (let ((box (om-load-boxcall (quote bastype) "list 5" (quote list) (quote nil) (om-make-point 238 104) (om-make-point 21 30) 1 "1" nil))) (when (fboundp (quote set-active)) (set-active box nil)) box) (let ((box (om-load-boxcall (quote lispfun) "NTHCDR" (quote nthcdr) (quote ((om-load-inputfun (quote input-funbox) "ORIG-N" "ORIG-N" nil) (om-load-inputfun (quote input-funbox) "ORIG-LIST" "ORIG-LIST" nil))) (om-make-point 237 138) nil nil "l" nil 1))) (when (fboundp (quote set-active)) (set-active box nil)) box) (let ((box (om-load-boxcall (quote genfun) "inlist" (quote listloop) (quote ((om-load-inputfun (quote input-funbox) "list to iterate" "LIST" nil) (om-load-inputfun (quote input-funbox) "step function" "BY" nil))) (om-make-point 173 182) (om-make-point 93 59) nil nil nil 1))) (when (fboundp (quote set-active)) (set-active box nil)) box) (let ((box (om-load-boxcall (quote genfun) "collect" (quote listing) (quote ((om-load-inputfun (quote input-funbox) "anything" "DATA" nil))) (om-make-point 446 239) nil nil nil nil 3))) (when (fboundp (quote set-active)) (set-active box nil)) box) (let ((box (om-load-boxcall (quote bastype) "list 3" (quote list) (quote nil) (om-make-point 129 240) (om-make-point 27 30) 2 "2" nil))) (when (fboundp (quote set-active)) (set-active box nil)) box) (let ((box (om-load-boxcall (quote bastype) "list 2" (quote list) (quote nil) (om-make-point 77 283) (om-make-point 27 30) 2 "2" nil))) (when (fboundp (quote set-active)) (set-active box nil)) box) (let ((box (om-load-boxcall (quote bastype) "list" (quote list) (quote nil) (om-make-point 49 280) (om-make-point 27 30) 2 "2" nil))) (when (fboundp (quote set-active)) (set-active box nil)) box) (let ((box (om-load-boxcall (quote genfun) "OM-RANDOM" (quote om-random) (quote ((om-load-inputfun (quote input-funbox) "min" "LOW" 0) (om-load-inputfun (quote input-funbox) "max" "HIGH" 1))) (om-make-point 41 313) nil nil nil nil 1))) (when (fboundp (quote set-active)) (set-active box nil)) box) (let ((box (om-load-boxcall (quote lispfun) "SUBST" (quote subst) (quote ((om-load-inputfun (quote input-funbox) "NEW" "NEW" nil) (om-load-inputfun (quote input-funbox) "OLD" "OLD" nil) (om-load-inputfun (quote input-funbox) "TREE" "TREE" nil))) (om-make-point 82 383) (om-make-point 127 43) nil nil nil 1))) (when (fboundp (quote set-active)) (set-active box nil)) box) (let ((box (om-load-boxin "input" 0 (om-make-point 374 54) "" nil nil nil))) (when (fboundp (quote set-active)) (set-active box nil)) box) (let ((box (om-load-seqbox "finally" (quote finaldo) (quote ((om-load-inputfun (quote input-funbox) "value to return" "VAL" nil) (om-load-inputfun (quote input-funbox) "other values" "MORE" nil))) (om-make-point 429 469) nil nil nil 0))) (when (fboundp (quote set-active)) (set-active box nil)) box) (let ((box (om-load-seqbox "eachTime" (quote loopdo) (quote ((om-load-inputfun (quote input-funbox) "operations to do" "OP" nil))) (om-make-point 355 305) nil nil nil 0))) (when (fboundp (quote set-active)) (set-active box nil)) box)) (quote ((0 0 1 0 nil 0) (9 0 2 0 ((om-make-point 390 111) (om-make-point 390 150) (om-make-point 230 72) (om-make-point 204 182)) 0) (1 0 2 1 nil 0) (8 0 3 0 nil 0) (6 0 7 0 nil 0) (5 0 7 1 nil 0) (7 0 8 0 nil 0) (4 0 8 1 nil 0) (2 0 8 2 nil 0) (8 0 10 0 nil 0) (3 1 10 1 nil 0) (3 0 11 0 nil 0))) 2 "omloop4" nil))) (when (fboundp (quote set-active)) (set-active box nil)) box) (let ((box (om-load-boxcomment "comment" (om-make-point 577 65) (quote "Atenção: os omloops devem ser encadeados SEMPRE do midi ch mais alto para o mais baixo, de forma a não alterar a divisão em registros original (e pretendida para a orquestração)") "" (om-make-point 396 507) nil (om-make-color 0 0 0) (om-make-font "Verdana" 14 :family "Verdana" :style (quote (:bold)) :mode (quote nil))))) (when (fboundp (quote set-active)) (set-active box nil)) box) (let ((box (om-load-boxcomment "comment 3" (om-make-point 423 52) (quote "<= o 3o omloop encaminha o midi ch 3 (correspondente ao registro médio-grave) aos midi chs 3 a 4") "" (om-make-point 153 263) nil (om-make-color 0 0 0) (om-make-font "Verdana" 12 :family "Verdana" :style (quote (:plain)) :mode (quote nil))))) (when (fboundp (quote set-active)) (set-active box nil)) box) (let ((box (om-load-boxcomment "comment 2" (om-make-point 423 52) (quote "<= o 1o omloop encaminha o midi ch 5 (correspondente ao registro mais agudo) aos midi chs 7 a 8") "" (om-make-point 155 126) nil (om-make-color 0 0 0) (om-make-font "Verdana" 12 :family "Verdana" :style (quote (:plain)) :mode (quote nil))))) (when (fboundp (quote set-active)) (set-active box nil)) box) (let ((box (om-load-boxcomment "comment" (om-make-point 423 52) (quote "<= o 2o omloop encaminha o midi ch 4 (correspondente ao registro médio) aos midi chs 5 a 6") "" (om-make-point 150 191) nil (om-make-color 0 0 0) (om-make-font "Verdana" 12 :family "Verdana" :style (quote (:plain)) :mode (quote nil))))) (when (fboundp (quote set-active)) (set-active box nil)) box) (let ((box (om-load-boxout "output" 0 (om-make-point 26 516) (quote ((om-load-inputfun (quote input-funbox) "" "out" nil))) "midich - conecte no input de midich do chord-seq" nil))) (when (fboundp (quote set-active)) (set-active box nil)) box) (let ((box (om-load-boxcall (quote genfun) "OM-SCALE" (quote om-scale) (quote ((om-load-inputfun (quote input-funbox) "number or list" "SELF" 1) (om-load-inputfun (quote input-funbox) "a number" "MINOUT" 0) (om-load-inputfun (quote input-funbox) "a number" "MAXOUT" 0))) (om-make-point 495 59) nil nil nil nil 1))) (when (fboundp (quote set-active)) (set-active box nil)) box) (let ((box (om-load-boxwithed1 (quote box-with-win) "omloop3" (quote omloop) (quote ((om-load-inputfun (quote input-funbox) "" "input" nil))) (om-make-point 89 257) nil nil nil (list (let ((box (om-load-boxcall (quote bastype) "list 5" (quote list) (quote nil) (om-make-point 238 104) (om-make-point 21 30) 1 "1" nil))) (when (fboundp (quote set-active)) (set-active box nil)) box) (let ((box (om-load-boxcall (quote lispfun) "NTHCDR" (quote nthcdr) (quote ((om-load-inputfun (quote input-funbox) "ORIG-N" "ORIG-N" nil) (om-load-inputfun (quote input-funbox) "ORIG-LIST" "ORIG-LIST" nil))) (om-make-point 237 138) nil nil "l" nil 1))) (when (fboundp (quote set-active)) (set-active box nil)) box) (let ((box (om-load-boxcall (quote genfun) "inlist" (quote listloop) (quote ((om-load-inputfun (quote input-funbox) "list to iterate" "LIST" nil) (om-load-inputfun (quote input-funbox) "step function" "BY" nil))) (om-make-point 173 182) (om-make-point 93 59) nil nil nil 1))) (when (fboundp (quote set-active)) (set-active box nil)) box) (let ((box (om-load-boxcall (quote genfun) "collect" (quote listing) (quote ((om-load-inputfun (quote input-funbox) "anything" "DATA" nil))) (om-make-point 446 239) nil nil nil nil 3))) (when (fboundp (quote set-active)) (set-active box nil)) box) (let ((box (om-load-boxcall (quote bastype) "list 3" (quote list) (quote nil) (om-make-point 129 240) (om-make-point 27 30) 3 "3" nil))) (when (fboundp (quote set-active)) (set-active box nil)) box) (let ((box (om-load-boxcall (quote bastype) "list 2" (quote list) (quote nil) (om-make-point 77 283) (om-make-point 27 30) 4 "4" nil))) (when (fboundp (quote set-active)) (set-active box nil)) box) (let ((box (om-load-boxcall (quote bastype) "list" (quote list) (quote nil) (om-make-point 49 280) (om-make-point 27 30) 3 "3" nil))) (when (fboundp (quote set-active)) (set-active box nil)) box) (let ((box (om-load-boxcall (quote genfun) "OM-RANDOM" (quote om-random) (quote ((om-load-inputfun (quote input-funbox) "min" "LOW" 0) (om-load-inputfun (quote input-funbox) "max" "HIGH" 1))) (om-make-point 41 313) nil nil nil nil 1))) (when (fboundp (quote set-active)) (set-active box nil)) box) (let ((box (om-load-boxcall (quote lispfun) "SUBST" (quote subst) (quote ((om-load-inputfun (quote input-funbox) "NEW" "NEW" nil) (om-load-inputfun (quote input-funbox) "OLD" "OLD" nil) (om-load-inputfun (quote input-funbox) "TREE" "TREE" nil))) (om-make-point 82 383) (om-make-point 127 43) nil nil nil 1))) (when (fboundp (quote set-active)) (set-active box nil)) box) (let ((box (om-load-boxin "input" 0 (om-make-point 374 54) "" nil nil nil))) (when (fboundp (quote set-active)) (set-active box nil)) box) (let ((box (om-load-seqbox "finally" (quote finaldo) (quote ((om-load-inputfun (quote input-funbox) "value to return" "VAL" nil) (om-load-inputfun (quote input-funbox) "other values" "MORE" nil))) (om-make-point 429 469) nil nil nil 0))) (when (fboundp (quote set-active)) (set-active box nil)) box) (let ((box (om-load-seqbox "eachTime" (quote loopdo) (quote ((om-load-inputfun (quote input-funbox) "operations to do" "OP" nil))) (om-make-point 355 305) nil nil nil 0))) (when (fboundp (quote set-active)) (set-active box nil)) box)) (quote ((0 0 1 0 nil 0) (9 0 2 0 ((om-make-point 390 111) (om-make-point 390 150) (om-make-point 230 72) (om-make-point 204 182)) 0) (1 0 2 1 nil 0) (8 0 3 0 nil 0) (6 0 7 0 nil 0) (5 0 7 1 nil 0) (7 0 8 0 nil 0) (4 0 8 1 nil 0) (2 0 8 2 nil 0) (8 0 10 0 nil 0) (3 1 10 1 nil 0) (3 0 11 0 nil 0))) 2 "omloop3" nil))) (when (fboundp (quote set-active)) (set-active box nil)) box) (let ((box (om-load-boxwithed1 (quote box-with-win) "omloop2" (quote omloop) (quote ((om-load-inputfun (quote input-funbox) "" "input" nil))) (om-make-point 91 182) nil nil nil (list (let ((box (om-load-boxcall (quote bastype) "list 5" (quote list) (quote nil) (om-make-point 238 104) (om-make-point 21 30) 1 "1" nil))) (when (fboundp (quote set-active)) (set-active box nil)) box) (let ((box (om-load-boxcall (quote lispfun) "NTHCDR" (quote nthcdr) (quote ((om-load-inputfun (quote input-funbox) "ORIG-N" "ORIG-N" nil) (om-load-inputfun (quote input-funbox) "ORIG-LIST" "ORIG-LIST" nil))) (om-make-point 237 138) nil nil "l" nil 1))) (when (fboundp (quote set-active)) (set-active box nil)) box) (let ((box (om-load-boxcall (quote genfun) "inlist" (quote listloop) (quote ((om-load-inputfun (quote input-funbox) "list to iterate" "LIST" nil) (om-load-inputfun (quote input-funbox) "step function" "BY" nil))) (om-make-point 173 182) (om-make-point 93 59) nil nil nil 1))) (when (fboundp (quote set-active)) (set-active box nil)) box) (let ((box (om-load-boxcall (quote genfun) "collect" (quote listing) (quote ((om-load-inputfun (quote input-funbox) "anything" "DATA" nil))) (om-make-point 446 239) nil nil nil nil 3))) (when (fboundp (quote set-active)) (set-active box nil)) box) (let ((box (om-load-boxcall (quote bastype) "list 3" (quote list) (quote nil) (om-make-point 129 240) (om-make-point 27 30) 4 "4" nil))) (when (fboundp (quote set-active)) (set-active box nil)) box) (let ((box (om-load-boxcall (quote bastype) "list 2" (quote list) (quote nil) (om-make-point 90 275) (om-make-point 27 30) 6 "6" nil))) (when (fboundp (quote set-active)) (set-active box nil)) box) (let ((box (om-load-boxcall (quote bastype) "list" (quote list) (quote nil) (om-make-point 49 280) (om-make-point 27 30) 5 "5" nil))) (when (fboundp (quote set-active)) (set-active box nil)) box) (let ((box (om-load-boxcall (quote genfun) "OM-RANDOM" (quote om-random) (quote ((om-load-inputfun (quote input-funbox) "min" "LOW" 0) (om-load-inputfun (quote input-funbox) "max" "HIGH" 1))) (om-make-point 41 313) nil nil nil nil 1))) (when (fboundp (quote set-active)) (set-active box nil)) box) (let ((box (om-load-boxcall (quote lispfun) "SUBST" (quote subst) (quote ((om-load-inputfun (quote input-funbox) "NEW" "NEW" nil) (om-load-inputfun (quote input-funbox) "OLD" "OLD" nil) (om-load-inputfun (quote input-funbox) "TREE" "TREE" nil))) (om-make-point 82 383) (om-make-point 127 43) nil nil nil 1))) (when (fboundp (quote set-active)) (set-active box nil)) box) (let ((box (om-load-boxin "input" 0 (om-make-point 374 54) "" nil nil nil))) (when (fboundp (quote set-active)) (set-active box nil)) box) (let ((box (om-load-seqbox "finally" (quote finaldo) (quote ((om-load-inputfun (quote input-funbox) "value to return" "VAL" nil) (om-load-inputfun (quote input-funbox) "other values" "MORE" nil))) (om-make-point 429 469) nil nil nil 0))) (when (fboundp (quote set-active)) (set-active box nil)) box) (let ((box (om-load-seqbox "eachTime" (quote loopdo) (quote ((om-load-inputfun (quote input-funbox) "operations to do" "OP" nil))) (om-make-point 355 305) nil nil nil 0))) (when (fboundp (quote set-active)) (set-active box nil)) box)) (quote ((0 0 1 0 nil 0) (9 0 2 0 ((om-make-point 390 111) (om-make-point 390 150) (om-make-point 230 72) (om-make-point 204 182)) 0) (1 0 2 1 nil 0) (8 0 3 0 nil 0) (6 0 7 0 nil 0) (5 0 7 1 nil 0) (7 0 8 0 nil 0) (4 0 8 1 nil 0) (2 0 8 2 nil 0) (8 0 10 0 nil 0) (3 1 10 1 nil 0) (3 0 11 0 nil 0))) 2 "omloop2" nil))) (when (fboundp (quote set-active)) (set-active box nil)) box) (let ((box (om-load-boxcall (quote genfun) "FLAT" (quote flat) (quote ((om-load-inputfun (quote input-funbox) "a list" "LST" nil))) (om-make-point 35 467) nil nil nil nil 1))) (when (fboundp (quote set-active)) (set-active box nil)) box) (let ((box (om-load-boxwithed1 (quote box-with-win) "omloop1" (quote omloop) (quote ((om-load-inputfun (quote input-funbox) "" "input" nil))) (om-make-point 98 102) nil nil nil (list (let ((box (om-load-boxcall (quote bastype) "list 5" (quote list) (quote nil) (om-make-point 238 104) (om-make-point 21 30) 1 "1" nil))) (when (fboundp (quote set-active)) (set-active box nil)) box) (let ((box (om-load-boxcall (quote lispfun) "NTHCDR" (quote nthcdr) (quote ((om-load-inputfun (quote input-funbox) "ORIG-N" "ORIG-N" nil) (om-load-inputfun (quote input-funbox) "ORIG-LIST" "ORIG-LIST" nil))) (om-make-point 237 138) nil nil "l" nil 1))) (when (fboundp (quote set-active)) (set-active box nil)) box) (let ((box (om-load-boxcall (quote genfun) "inlist" (quote listloop) (quote ((om-load-inputfun (quote input-funbox) "list to iterate" "LIST" nil) (om-load-inputfun (quote input-funbox) "step function" "BY" nil))) (om-make-point 173 182) (om-make-point 93 59) nil nil nil 1))) (when (fboundp (quote set-active)) (set-active box nil)) box) (let ((box (om-load-boxcall (quote genfun) "collect" (quote listing) (quote ((om-load-inputfun (quote input-funbox) "anything" "DATA" nil))) (om-make-point 446 239) nil nil nil nil 3))) (when (fboundp (quote set-active)) (set-active box nil)) box) (let ((box (om-load-boxcall (quote bastype) "list 3" (quote list) (quote nil) (om-make-point 129 240) (om-make-point 27 30) 5 "5" nil))) (when (fboundp (quote set-active)) (set-active box nil)) box) (let ((box (om-load-boxcall (quote bastype) "list 2" (quote list) (quote nil) (om-make-point 95 277) (om-make-point 27 30) 8 "8" nil))) (when (fboundp (quote set-active)) (set-active box nil)) box) (let ((box (om-load-boxcall (quote bastype) "list" (quote list) (quote nil) (om-make-point 49 280) (om-make-point 27 30) 7 "7" nil))) (when (fboundp (quote set-active)) (set-active box nil)) box) (let ((box (om-load-boxcall (quote genfun) "OM-RANDOM" (quote om-random) (quote ((om-load-inputfun (quote input-funbox) "min" "LOW" 0) (om-load-inputfun (quote input-funbox) "max" "HIGH" 1))) (om-make-point 41 313) nil nil nil nil 1))) (when (fboundp (quote set-active)) (set-active box nil)) box) (let ((box (om-load-boxcall (quote lispfun) "SUBST" (quote subst) (quote ((om-load-inputfun (quote input-funbox) "NEW" "NEW" nil) (om-load-inputfun (quote input-funbox) "OLD" "OLD" nil) (om-load-inputfun (quote input-funbox) "TREE" "TREE" nil))) (om-make-point 82 383) (om-make-point 127 43) nil nil nil 1))) (when (fboundp (quote set-active)) (set-active box nil)) box) (let ((box (om-load-boxin "input" 0 (om-make-point 374 54) "" nil nil nil))) (when (fboundp (quote set-active)) (set-active box nil)) box) (let ((box (om-load-seqbox "finally" (quote finaldo) (quote ((om-load-inputfun (quote input-funbox) "value to return" "VAL" nil) (om-load-inputfun (quote input-funbox) "other values" "MORE" nil))) (om-make-point 429 469) nil nil nil 0))) (when (fboundp (quote set-active)) (set-active box nil)) box) (let ((box (om-load-seqbox "eachTime" (quote loopdo) (quote ((om-load-inputfun (quote input-funbox) "operations to do" "OP" nil))) (om-make-point 355 305) nil nil nil 0))) (when (fboundp (quote set-active)) (set-active box nil)) box)) (quote ((0 0 1 0 nil 0) (9 0 2 0 ((om-make-point 390 111) (om-make-point 390 150) (om-make-point 230 72) (om-make-point 204 182)) 0) (1 0 2 1 nil 0) (8 0 3 0 nil 0) (6 0 7 0 nil 0) (5 0 7 1 nil 0) (7 0 8 0 nil 0) (4 0 8 1 nil 0) (2 0 8 2 nil 0) (8 0 10 0 nil 0) (3 1 10 1 nil 0) (3 0 11 0 nil 0))) 2 "omloop1" nil))) (when (fboundp (quote set-active)) (set-active box nil)) box) (let ((box (om-load-boxcall (quote bastype) "list 2" (quote list) (quote nil) (om-make-point 575 19) (om-make-point 27 30) 5 "5" nil))) (when (fboundp (quote set-active)) (set-active box nil)) box) (let ((box (om-load-boxcall (quote bastype) "list" (quote list) (quote nil) (om-make-point 554 19) (om-make-point 21 30) 1 "1" nil))) (when (fboundp (quote set-active)) (set-active box nil)) box) (let ((box (om-load-boxcall (quote genfun) "OM-ROUND" (quote om-round) (quote ((om-load-inputfun (quote input-funbox) "number or list" "N" 1))) (om-make-point 410 62) nil nil nil nil 1))) (when (fboundp (quote set-active)) (set-active box nil)) box) (let ((box (om-load-boxin "midics - ponha aqui o output de midics da secao A" 0 (om-make-point 108 2) "" "midics - ponha aqui o output de midics da secao A" nil nil))) (when (fboundp (quote set-active)) (set-active box nil)) box))) (quote ((3 1 1 0 nil 0) (10 1 3 0 nil 0) (12 0 8 0 nil 0) (17 0 9 0 nil 0) (15 0 9 1 nil 0) (14 0 9 2 nil 0) (11 1 10 0 nil 0) (13 1 11 0 nil 0) (1 1 12 0 nil 0) (16 0 13 0 nil 0) (9 0 16 0 nil 0))) 6.16 nil "" (om-make-point 200 200) (om-make-point 500 400)) (quote ((om-load-inputfun (quote input-funbox) "" "midics - ponha aqui o output de midics da secao A" nil))) (om-make-point 1074 559) nil (list (list 1 1 1 1 1 1 1 1 1 2 1 1 1 1 1 1 1 2 1 1 1 7 1 1 2 1 1 1 1 1 2 1 1 1 2 1 2 1 1 2 1 1 2 1 1 1 1 2 1 2 1 1 1 2 2 2 2 1 2 2 1 2 1 2 1 1 2 2 2 2 2 1 2 1 2 1 1 2 1 1 1 2 1 2 3 2 1 1 1 3 1 2 2 1 1 2 1 1 2 1 1 2 1 1 2 4 2 4 1 2 2 1 1 1 2 1 1 1 2 2 2 2 2 1 2 2 1 1 1 1 1 1 1 1 1 2 1 4 1 2 4 1 2 1 2 2 1 1 1 1 1 1 2 3 6 3 4 1 2 2 1 1 2 2 1 1 1 2 1 7 2 1 2 2 1 1 2 2 1 4 6 2 1 2 1 2 2 3 2 2 2 1 1 1 1 1 2 2 1 2 2 1 2 1 1 4 4 2 1 2 2 1 8 8 2 2 1 2 2 2 1 2)) nil "Orq. 5 reg.=>8ch."))) (when (fboundp (quote set-active)) (set-active box nil)) box) (let ((box (om-load-boxcall (quote bastype) "list 8" (quote list) (quote nil) (om-make-point 1104 277) (om-make-point 34 30) 15 "15" nil))) (when (fboundp (quote set-active)) (set-active box nil)) box) (let ((box (om-load-boxcall (quote abstraction) "Instrumentacao ALEA" (om-load-patch-abs1 "Instrumentacao ALEA" (quote ((let ((box (om-load-boxout "output" 0 (om-make-point 381 454) (quote ((om-load-inputfun (quote input-funbox) "" "out" nil))) nil nil))) (when (fboundp (quote set-active)) (set-active box nil)) box) (let ((box (om-load-boxin "input" 0 (om-make-point 424 76) "" nil nil nil))) (when (fboundp (quote set-active)) (set-active box nil)) box) (let ((box (om-load-boxcall (quote genfun) "FIRST-N" (quote first-n) (quote ((om-load-inputfun (quote input-funbox) "a list" "LIST" nil) (om-load-inputfun (quote input-funbox) "number of elements" "N" 0))) (om-make-point 373 304) nil nil nil nil 1))) (when (fboundp (quote set-active)) (set-active box nil)) box) (let ((box (om-load-boxcall (quote genfun) "PERMUT-RANDOM" (quote permut-random) (quote ((om-load-inputfun (quote input-funbox) "a list" "LIST" nil))) (om-make-point 259 219) nil nil nil nil 1))) (when (fboundp (quote set-active)) (set-active box nil)) box) (let ((box (om-load-boxcall (quote bastype) "list 2" (quote list) (quote nil) (om-make-point 223 150) (om-make-point 41 30) 128 "128" nil))) (when (fboundp (quote set-active)) (set-active box nil)) box) (let ((box (om-load-boxcall (quote bastype) "list" (quote list) (quote nil) (om-make-point 187 157) (om-make-point 27 30) 0 "0" nil))) (when (fboundp (quote set-active)) (set-active box nil)) box) (let ((box (om-load-boxcall (quote genfun) "ARITHM-SER" (quote arithm-ser) (quote ((om-load-inputfun (quote input-funbox) "begin" "BEGIN" 0) (om-load-inputfun (quote input-funbox) "end " "END" 10) (om-load-inputfun (quote input-funbox) "step" "STEP" 1))) (om-make-point 199 191) nil nil nil nil 1))) (when (fboundp (quote set-active)) (set-active box nil)) box))) (quote ((2 0 0 0 nil 0) (3 0 2 0 nil 0) (1 0 2 1 nil 0) (6 0 3 0 nil 0) (5 0 6 0 nil 0) (4 0 6 1 nil 0))) 6.16 nil "" (om-make-point 200 200) (om-make-point 500 400)) (quote ((om-load-inputfun (quote input-funbox) "" "input" nil))) (om-make-point 960 291) nil (list (list 55 91 69 83 14 18 113 26 114 28 73 21 90 110 27)) "x" "Instrumentacao ALEA"))) (when (fboundp (quote set-active)) (set-active box nil)) box) (let ((box (om-load-boxcomment "comment 4" (om-make-point 100 60) (quote "<= No. de instrumentos") "" (om-make-point 1135 277) nil (om-make-color 0 0 0) (om-make-font "Verdana" 12 :family "Verdana" :style (quote (:plain)) :mode (quote nil))))) (when (fboundp (quote set-active)) (set-active box nil)) box) (let ((box (om-load-boxcall (quote bastype) "list 7" (quote list) (quote nil) (om-make-point 1132 111) (om-make-point 119 30) (list 1 2 3 4 5 6 7 8 9) "(1 2 3 4 5 6 7 8 9)" nil))) (when (fboundp (quote set-active)) (set-active box nil)) box) (let ((box (om-load-boxcall (quote bastype) "aux31" (quote t) (quote nil) (om-make-point 983 155) (om-make-point 182 30) (list 40 44 45 24 40 44 24 40 24) "(40 44 45 24 40 44 24 40 24)" nil))) (when (fboundp (quote set-active)) (set-active box nil)) box) (let ((box (om-load-boxcall (quote genfun) "PGMOUT" (quote pgmout) (quote ((om-load-inputfun (quote input-funbox) "program number" "PROG" 1) (om-load-inputfun (quote input-funbox) "channel" "CHANS" 1) (om-load-inputfun (quote input-funbox) "optional port" "PORT" 0))) (om-make-point 1120 189) nil nil nil nil 1))) (when (fboundp (quote set-active)) (set-active box nil)) box) (let ((box (om-load-boxcall (quote abstraction) "Orq. 3 reg.=>9 ch." (om-load-patch-abs1 "Orq. 3 reg.=>9 ch." (quote ((let ((box (om-load-boxcomment "comment" (om-make-point 577 65) (quote "Atenção: os omloops devem ser encadeados SEMPRE do midi ch mais alto para o mais baixo, de forma a não alterar a divisão em registros original (e pretendida para a orquestração)") "" (om-make-point 163 425) nil (om-make-color 0 0 0) (om-make-font "Verdana" 14 :family "Verdana" :style (quote (:bold)) :mode (quote nil))))) (when (fboundp (quote set-active)) (set-active box nil)) box) (let ((box (om-load-boxcomment "comment 3" (om-make-point 423 52) (quote "<= o 3o omloop encaminha o midi ch 1 (correspondente ao registro grave) aos midi chs 1, 2, 3 e 4") "" (om-make-point 167 355) nil (om-make-color 0 0 0) (om-make-font "Verdana" 12 :family "Verdana" :style (quote (:plain)) :mode (quote nil))))) (when (fboundp (quote set-active)) (set-active box nil)) box) (let ((box (om-load-boxcomment "comment 2" (om-make-point 423 52) (quote "<= o 1o omloop encaminha o midi ch 3 (correspondente ao registro mais agudo) aos midi chs 8 e 9") "" (om-make-point 156 157) nil (om-make-color 0 0 0) (om-make-font "Verdana" 12 :family "Verdana" :style (quote (:plain)) :mode (quote nil))))) (when (fboundp (quote set-active)) (set-active box nil)) box) (let ((box (om-load-boxcomment "comment" (om-make-point 423 52) (quote "<= o 2o omloop encaminha o midi ch 2 (correspondente ao registro médio) aos midi chs 5, 6 e 7") "" (om-make-point 163 256) nil (om-make-color 0 0 0) (om-make-font "Verdana" 12 :family "Verdana" :style (quote (:plain)) :mode (quote nil))))) (when (fboundp (quote set-active)) (set-active box nil)) box) (let ((box (om-load-boxout "output" 0 (om-make-point 26 516) (quote ((om-load-inputfun (quote input-funbox) "" "out" nil))) "midich - conecte no input de midich do chord-seq" nil))) (when (fboundp (quote set-active)) (set-active box nil)) box) (let ((box (om-load-boxcall (quote genfun) "OM-SCALE" (quote om-scale) (quote ((om-load-inputfun (quote input-funbox) "number or list" "SELF" 1) (om-load-inputfun (quote input-funbox) "a number" "MINOUT" 0) (om-load-inputfun (quote input-funbox) "a number" "MAXOUT" 0))) (om-make-point 495 59) nil nil nil nil 1))) (when (fboundp (quote set-active)) (set-active box nil)) box) (let ((box (om-load-boxwithed1 (quote box-with-win) "omloop3" (quote omloop) (quote ((om-load-inputfun (quote input-funbox) "" "input" nil))) (om-make-point 102 347) nil nil nil (list (let ((box (om-load-boxcall (quote bastype) "list 5" (quote list) (quote nil) (om-make-point 238 104) (om-make-point 21 30) 1 "1" nil))) (when (fboundp (quote set-active)) (set-active box nil)) box) (let ((box (om-load-boxcall (quote lispfun) "NTHCDR" (quote nthcdr) (quote ((om-load-inputfun (quote input-funbox) "ORIG-N" "ORIG-N" nil) (om-load-inputfun (quote input-funbox) "ORIG-LIST" "ORIG-LIST" nil))) (om-make-point 237 138) nil nil "l" nil 1))) (when (fboundp (quote set-active)) (set-active box nil)) box) (let ((box (om-load-boxcall (quote genfun) "inlist" (quote listloop) (quote ((om-load-inputfun (quote input-funbox) "list to iterate" "LIST" nil) (om-load-inputfun (quote input-funbox) "step function" "BY" nil))) (om-make-point 173 182) (om-make-point 93 59) nil nil nil 1))) (when (fboundp (quote set-active)) (set-active box nil)) box) (let ((box (om-load-boxcall (quote genfun) "collect" (quote listing) (quote ((om-load-inputfun (quote input-funbox) "anything" "DATA" nil))) (om-make-point 446 239) nil nil nil nil 3))) (when (fboundp (quote set-active)) (set-active box nil)) box) (let ((box (om-load-boxcall (quote bastype) "list 3" (quote list) (quote nil) (om-make-point 129 240) (om-make-point 21 30) 1 "1" nil))) (when (fboundp (quote set-active)) (set-active box nil)) box) (let ((box (om-load-boxcall (quote bastype) "list 2" (quote list) (quote nil) (om-make-point 77 283) (om-make-point 21 30) 4 "4" nil))) (when (fboundp (quote set-active)) (set-active box nil)) box) (let ((box (om-load-boxcall (quote bastype) "list" (quote list) (quote nil) (om-make-point 49 280) (om-make-point 21 30) 1 "1" nil))) (when (fboundp (quote set-active)) (set-active box nil)) box) (let ((box (om-load-boxcall (quote genfun) "OM-RANDOM" (quote om-random) (quote ((om-load-inputfun (quote input-funbox) "min" "LOW" 0) (om-load-inputfun (quote input-funbox) "max" "HIGH" 1))) (om-make-point 41 313) nil nil nil nil 1))) (when (fboundp (quote set-active)) (set-active box nil)) box) (let ((box (om-load-boxcall (quote lispfun) "SUBST" (quote subst) (quote ((om-load-inputfun (quote input-funbox) "NEW" "NEW" nil) (om-load-inputfun (quote input-funbox) "OLD" "OLD" nil) (om-load-inputfun (quote input-funbox) "TREE" "TREE" nil))) (om-make-point 82 383) (om-make-point 127 43) nil nil nil 1))) (when (fboundp (quote set-active)) (set-active box nil)) box) (let ((box (om-load-boxin "input" 0 (om-make-point 374 54) "" nil nil nil))) (when (fboundp (quote set-active)) (set-active box nil)) box) (let ((box (om-load-seqbox "finally" (quote finaldo) (quote ((om-load-inputfun (quote input-funbox) "value to return" "VAL" nil) (om-load-inputfun (quote input-funbox) "other values" "MORE" nil))) (om-make-point 429 469) nil nil nil 0))) (when (fboundp (quote set-active)) (set-active box nil)) box) (let ((box (om-load-seqbox "eachTime" (quote loopdo) (quote ((om-load-inputfun (quote input-funbox) "operations to do" "OP" nil))) (om-make-point 355 305) nil nil nil 0))) (when (fboundp (quote set-active)) (set-active box nil)) box)) (quote ((0 0 1 0 nil 0) (9 0 2 0 ((om-make-point 390 111) (om-make-point 390 150) (om-make-point 230 72) (om-make-point 204 182)) 0) (1 0 2 1 nil 0) (8 0 3 0 nil 0) (6 0 7 0 nil 0) (5 0 7 1 nil 0) (7 0 8 0 nil 0) (4 0 8 1 nil 0) (2 0 8 2 nil 0) (8 0 10 0 nil 0) (3 1 10 1 nil 0) (3 0 11 0 nil 0))) 2 "omloop3" nil))) (when (fboundp (quote set-active)) (set-active box nil)) box) (let ((box (om-load-boxwithed1 (quote box-with-win) "omloop2" (quote omloop) (quote ((om-load-inputfun (quote input-funbox) "" "input" nil))) (om-make-point 100 247) nil nil nil (list (let ((box (om-load-boxcall (quote bastype) "list 5" (quote list) (quote nil) (om-make-point 238 104) (om-make-point 21 30) 1 "1" nil))) (when (fboundp (quote set-active)) (set-active box nil)) box) (let ((box (om-load-boxcall (quote lispfun) "NTHCDR" (quote nthcdr) (quote ((om-load-inputfun (quote input-funbox) "ORIG-N" "ORIG-N" nil) (om-load-inputfun (quote input-funbox) "ORIG-LIST" "ORIG-LIST" nil))) (om-make-point 237 138) nil nil "l" nil 1))) (when (fboundp (quote set-active)) (set-active box nil)) box) (let ((box (om-load-boxcall (quote genfun) "inlist" (quote listloop) (quote ((om-load-inputfun (quote input-funbox) "list to iterate" "LIST" nil) (om-load-inputfun (quote input-funbox) "step function" "BY" nil))) (om-make-point 173 182) (om-make-point 93 59) nil nil nil 1))) (when (fboundp (quote set-active)) (set-active box nil)) box) (let ((box (om-load-boxcall (quote genfun) "collect" (quote listing) (quote ((om-load-inputfun (quote input-funbox) "anything" "DATA" nil))) (om-make-point 446 239) nil nil nil nil 3))) (when (fboundp (quote set-active)) (set-active box nil)) box) (let ((box (om-load-boxcall (quote bastype) "list 3" (quote list) (quote nil) (om-make-point 129 240) (om-make-point 21 30) 2 "2" nil))) (when (fboundp (quote set-active)) (set-active box nil)) box) (let ((box (om-load-boxcall (quote bastype) "list 2" (quote list) (quote nil) (om-make-point 77 283) (om-make-point 21 30) 7 "7" nil))) (when (fboundp (quote set-active)) (set-active box nil)) box) (let ((box (om-load-boxcall (quote bastype) "list" (quote list) (quote nil) (om-make-point 49 280) (om-make-point 21 30) 5 "5" nil))) (when (fboundp (quote set-active)) (set-active box nil)) box) (let ((box (om-load-boxcall (quote genfun) "OM-RANDOM" (quote om-random) (quote ((om-load-inputfun (quote input-funbox) "min" "LOW" 0) (om-load-inputfun (quote input-funbox) "max" "HIGH" 1))) (om-make-point 41 313) nil nil nil nil 1))) (when (fboundp (quote set-active)) (set-active box nil)) box) (let ((box (om-load-boxcall (quote lispfun) "SUBST" (quote subst) (quote ((om-load-inputfun (quote input-funbox) "NEW" "NEW" nil) (om-load-inputfun (quote input-funbox) "OLD" "OLD" nil) (om-load-inputfun (quote input-funbox) "TREE" "TREE" nil))) (om-make-point 82 383) (om-make-point 127 43) nil nil nil 1))) (when (fboundp (quote set-active)) (set-active box nil)) box) (let ((box (om-load-boxin "input" 0 (om-make-point 374 54) "" nil nil nil))) (when (fboundp (quote set-active)) (set-active box nil)) box) (let ((box (om-load-seqbox "finally" (quote finaldo) (quote ((om-load-inputfun (quote input-funbox) "value to return" "VAL" nil) (om-load-inputfun (quote input-funbox) "other values" "MORE" nil))) (om-make-point 429 469) nil nil nil 0))) (when (fboundp (quote set-active)) (set-active box nil)) box) (let ((box (om-load-seqbox "eachTime" (quote loopdo) (quote ((om-load-inputfun (quote input-funbox) "operations to do" "OP" nil))) (om-make-point 355 305) nil nil nil 0))) (when (fboundp (quote set-active)) (set-active box nil)) box)) (quote ((0 0 1 0 nil 0) (9 0 2 0 ((om-make-point 390 111) (om-make-point 390 150) (om-make-point 230 72) (om-make-point 204 182)) 0) (1 0 2 1 nil 0) (8 0 3 0 nil 0) (6 0 7 0 nil 0) (5 0 7 1 nil 0) (7 0 8 0 nil 0) (4 0 8 1 nil 0) (2 0 8 2 nil 0) (8 0 10 0 nil 0) (3 1 10 1 nil 0) (3 0 11 0 nil 0))) 2 "omloop2" nil))) (when (fboundp (quote set-active)) (set-active box nil)) box) (let ((box (om-load-boxcall (quote genfun) "FLAT" (quote flat) (quote ((om-load-inputfun (quote input-funbox) "a list" "LST" nil))) (om-make-point 38 438) nil nil nil nil 1))) (when (fboundp (quote set-active)) (set-active box nil)) box) (let ((box (om-load-boxwithed1 (quote box-with-win) "omloop1" (quote omloop) (quote ((om-load-inputfun (quote input-funbox) "" "input" nil))) (om-make-point 97 148) nil nil nil (list (let ((box (om-load-boxcall (quote bastype) "list 5" (quote list) (quote nil) (om-make-point 238 104) (om-make-point 21 30) 1 "1" nil))) (when (fboundp (quote set-active)) (set-active box nil)) box) (let ((box (om-load-boxcall (quote lispfun) "NTHCDR" (quote nthcdr) (quote ((om-load-inputfun (quote input-funbox) "ORIG-N" "ORIG-N" nil) (om-load-inputfun (quote input-funbox) "ORIG-LIST" "ORIG-LIST" nil))) (om-make-point 237 138) nil nil "l" nil 1))) (when (fboundp (quote set-active)) (set-active box nil)) box) (let ((box (om-load-boxcall (quote genfun) "inlist" (quote listloop) (quote ((om-load-inputfun (quote input-funbox) "list to iterate" "LIST" nil) (om-load-inputfun (quote input-funbox) "step function" "BY" nil))) (om-make-point 173 182) (om-make-point 93 59) nil nil nil 1))) (when (fboundp (quote set-active)) (set-active box nil)) box) (let ((box (om-load-boxcall (quote genfun) "collect" (quote listing) (quote ((om-load-inputfun (quote input-funbox) "anything" "DATA" nil))) (om-make-point 446 239) nil nil nil nil 3))) (when (fboundp (quote set-active)) (set-active box nil)) box) (let ((box (om-load-boxcall (quote bastype) "list 3" (quote list) (quote nil) (om-make-point 129 240) (om-make-point 21 30) 3 "3" nil))) (when (fboundp (quote set-active)) (set-active box nil)) box) (let ((box (om-load-boxcall (quote bastype) "list 2" (quote list) (quote nil) (om-make-point 77 283) (om-make-point 21 30) 9 "9" nil))) (when (fboundp (quote set-active)) (set-active box nil)) box) (let ((box (om-load-boxcall (quote bastype) "list" (quote list) (quote nil) (om-make-point 49 280) (om-make-point 21 30) 8 "8" nil))) (when (fboundp (quote set-active)) (set-active box nil)) box) (let ((box (om-load-boxcall (quote genfun) "OM-RANDOM" (quote om-random) (quote ((om-load-inputfun (quote input-funbox) "min" "LOW" 0) (om-load-inputfun (quote input-funbox) "max" "HIGH" 1))) (om-make-point 41 313) nil nil nil nil 1))) (when (fboundp (quote set-active)) (set-active box nil)) box) (let ((box (om-load-boxcall (quote lispfun) "SUBST" (quote subst) (quote ((om-load-inputfun (quote input-funbox) "NEW" "NEW" nil) (om-load-inputfun (quote input-funbox) "OLD" "OLD" nil) (om-load-inputfun (quote input-funbox) "TREE" "TREE" nil))) (om-make-point 82 383) (om-make-point 127 43) nil nil nil 1))) (when (fboundp (quote set-active)) (set-active box nil)) box) (let ((box (om-load-boxin "input" 0 (om-make-point 374 54) "" nil nil nil))) (when (fboundp (quote set-active)) (set-active box nil)) box) (let ((box (om-load-seqbox "finally" (quote finaldo) (quote ((om-load-inputfun (quote input-funbox) "value to return" "VAL" nil) (om-load-inputfun (quote input-funbox) "other values" "MORE" nil))) (om-make-point 429 469) nil nil nil 0))) (when (fboundp (quote set-active)) (set-active box nil)) box) (let ((box (om-load-seqbox "eachTime" (quote loopdo) (quote ((om-load-inputfun (quote input-funbox) "operations to do" "OP" nil))) (om-make-point 355 305) nil nil nil 0))) (when (fboundp (quote set-active)) (set-active box nil)) box)) (quote ((0 0 1 0 nil 0) (9 0 2 0 ((om-make-point 390 111) (om-make-point 390 150) (om-make-point 230 72) (om-make-point 204 182)) 0) (1 0 2 1 nil 0) (8 0 3 0 nil 0) (6 0 7 0 nil 0) (5 0 7 1 nil 0) (7 0 8 0 nil 0) (4 0 8 1 nil 0) (2 0 8 2 nil 0) (8 0 10 0 nil 0) (3 1 10 1 nil 0) (3 0 11 0 nil 0))) 2 "omloop1" nil))) (when (fboundp (quote set-active)) (set-active box nil)) box) (let ((box (om-load-boxcall (quote bastype) "list 2" (quote list) (quote nil) (om-make-point 575 19) (om-make-point 21 30) 3 "3" nil))) (when (fboundp (quote set-active)) (set-active box nil)) box) (let ((box (om-load-boxcall (quote bastype) "list" (quote list) (quote nil) (om-make-point 554 19) (om-make-point 21 30) 1 "1" nil))) (when (fboundp (quote set-active)) (set-active box nil)) box) (let ((box (om-load-boxcall (quote genfun) "OM-ROUND" (quote om-round) (quote ((om-load-inputfun (quote input-funbox) "number or list" "N" 1))) (om-make-point 409 75) nil nil nil nil 1))) (when (fboundp (quote set-active)) (set-active box nil)) box) (let ((box (om-load-boxin "midics - ponha aqui o output de midics da secao A" 0 (om-make-point 108 2) "" "midics - ponha aqui o output de midics da secao A" nil nil))) (when (fboundp (quote set-active)) (set-active box nil)) box))) (quote ((8 0 4 0 nil 0) (13 0 5 0 nil 0) (11 0 5 1 nil 0) (10 0 5 2 nil 0) (7 1 6 0 nil 0) (9 1 7 0 nil 0) (6 1 8 0 nil 0) (12 0 9 0 nil 0) (5 0 12 0 nil 0))) 6.16 nil "" (om-make-point 200 200) (om-make-point 500 400)) (quote ((om-load-inputfun (quote input-funbox) "" "midics - ponha aqui o output de midics da secao A" nil))) (om-make-point 1079 419) nil (list (list 6 1 7 7 8 6 5 8 4 6 3 2 7 1 4 9 5 8 5 9 1 6 7 1 6 6 8 5 6 7 6 9 5 8 7 3 8 2 3 9 6 5 5 8 5 5 3 3 2 5 5 5 8 9 7 7 4 6 2 5 5 1 3 2 5 5 6 7 1 8 6 3 8 6 6 7 6 5 1 9 4 7 8 7 5 4 7 5 9 5 6 2 4 5 6)) nil "Orq. 3 reg.=>9 ch."))) (when (fboundp (quote set-active)) (set-active box nil)) box) (let ((box (om-load-boxcall (quote genfun) "PERMUT-RANDOM" (quote permut-random) (quote ((om-load-inputfun (quote input-funbox) "a list" "LIST" nil))) (om-make-point 578 488) nil nil nil nil 1))) (when (fboundp (quote set-active)) (set-active box nil)) box) (let ((box (om-load-boxcomment "comment 3" (om-make-point 147 30) (quote "<= Dyns mín. e máx.") "" (om-make-point 779 445) nil (om-make-color 0 0 0) (om-make-font "Verdana" 12 :family "Verdana" :style (quote (:plain)) :mode (quote nil))))) (when (fboundp (quote set-active)) (set-active box nil)) box) (let ((box (om-load-boxcall (quote bastype) "list 6" (quote list) (quote nil) (om-make-point 743 449) (om-make-point 34 30) 90 "90" nil))) (when (fboundp (quote set-active)) (set-active box nil)) box) (let ((box (om-load-boxcall (quote bastype) "list 5" (quote list) (quote nil) (om-make-point 706 450) (om-make-point 34 30) 10 "10" nil))) (when (fboundp (quote set-active)) (set-active box nil)) box) (let ((box (om-load-boxcall (quote genfun) "OM-SCALE" (quote om-scale) (quote ((om-load-inputfun (quote input-funbox) "number or list" "SELF" 1) (om-load-inputfun (quote input-funbox) "a number" "MINOUT" 0) (om-load-inputfun (quote input-funbox) "a number" "MAXOUT" 0))) (om-make-point 687 495) nil nil nil nil 1))) (when (fboundp (quote set-active)) (set-active box nil)) box) (let ((box (om-load-boxcomment "comment" (om-make-point 207 49) (quote "<= Fator de multiplicação para onsets e durs") "" (om-make-point 574 366) nil (om-make-color 0 0 0) (om-make-font "Verdana" 12 :family "Verdana" :style (quote (:plain)) :mode (quote nil))))) (when (fboundp (quote set-active)) (set-active box nil)) box) (let ((box (om-load-boxcall (quote bastype) "list 4" (quote list) (quote nil) (om-make-point 544 369) (om-make-point 27 30) 2 "2" nil))) (when (fboundp (quote set-active)) (set-active box nil)) box) (let ((box (om-load-boxcall (quote genfun) "OM* 2" (quote om*) (quote ((om-load-inputfun (quote input-funbox) "number or list" "ARG1" 0) (om-load-inputfun (quote input-funbox) "number or list" "ARG2" 0))) (om-make-point 417 400) nil nil nil nil 1))) (when (fboundp (quote set-active)) (set-active box nil)) box) (let ((box (om-load-boxcall (quote lispfun) "REVERSE" (quote reverse) (quote ((om-load-inputfun (quote input-funbox) "SEQUENCE" "SEQUENCE" nil))) (om-make-point 509 521) nil nil nil nil 1))) (when (fboundp (quote set-active)) (set-active box nil)) box) (let ((box (om-load-boxcall (quote genfun) "X->DX" (quote x->dx) (quote ((om-load-inputfun (quote input-funbox) "a list of numbers" "SELF" 0))) (om-make-point 458 486) nil nil nil nil 1))) (when (fboundp (quote set-active)) (set-active box nil)) box) (let ((box (om-load-boxcall (quote genfun) "REPEAT-N" (quote repeat-n) (quote ((om-load-inputfun (quote input-funbox) "something" "SELF" nil) (om-load-inputfun (quote input-funbox) "times" "N" 0))) (om-make-point 179 316) nil nil nil nil 1))) (when (fboundp (quote set-active)) (set-active box nil)) box) (let ((box (om-load-editor-box1 "NOTE 2" (quote note) (quote ((om-load-inputfun (quote input-funbox) "object" "self" nil) (om-load-inputfun (quote input-funbox) "pitch (midicents)" "midic" 6000) (om-load-inputfun (quote input-funbox) "velocity (0-127)" "vel" 80) (om-load-inputfun (quote input-funbox) "duration (ms)" "dur" 1000) (om-load-inputfun (quote input-funbox) "MIDI channel (1-16)" "chan" 1))) (om-make-point 90 178) (om-make-point 65 96) (if (find-class (quote note) nil) (let ((newobj (make-instance (quote note) :midic 8800 :vel 80 :dur 1000 :chan 1 :from-file t))) (load-port-info newobj (quote 0)) (init-mus-color newobj (quote nil)) (set-extra-pairs newobj (quote nil)) (set-patch-pairs newobj (quote ((nil (om-load-patch-abs1 "patch" (quote nil) (quote nil) 6.16 nil "" (om-make-point 200 200) (om-make-point 400 500)))))) (set-name newobj nil) (set-tonalite newobj nil) newobj)) "x" nil (pairlis (quote (palette-mode scale show-stems obj-mode score-mode winpos winsize mode grillestep notechancolor? zoom player inport outport deltapict cmnpref staff fontsize approx)) (list 0 nil (quote t) 0 0 (om-make-point 300 22) (om-make-point 370 280) 0 1000 nil 1 (quote :midishare) 0 nil (om-make-point 0 0) (let ((newobj (make-instance (quote edition-values)))) (setf (paper-size newobj) (om-make-point 600 800)) (setf (top-margin newobj) 2) (setf (left-margin newobj) 1) (setf (right-margin newobj) 1) (setf (bottom-margin newobj) 1) (setf (orientation newobj) nil) (setf (scale newobj) nil) (setf (system-space newobj) (quote (1))) (setf (system-color newobj) (quote nil)) (setf (line-space newobj) 1) (setf (title newobj) nil) (setf (show-title? newobj) nil) (setf (show-page? newobj) nil) (setf (sheet-id newobj) nil) (setf (page-mode newobj) nil) newobj) (quote gf) 24 2)) t nil nil nil))) (when (fboundp (quote set-active)) (set-active box nil)) box) (let ((box (om-load-editor-box1 "NOTE" (quote note) (quote ((om-load-inputfun (quote input-funbox) "object" "self" nil) (om-load-inputfun (quote input-funbox) "pitch (midicents)" "midic" 6000) (om-load-inputfun (quote input-funbox) "velocity (0-127)" "vel" 80) (om-load-inputfun (quote input-funbox) "duration (ms)" "dur" 1000) (om-load-inputfun (quote input-funbox) "MIDI channel (1-16)" "chan" 1))) (om-make-point 17 172) (om-make-point 65 96) (if (find-class (quote note) nil) (let ((newobj (make-instance (quote note) :midic 2800 :vel 80 :dur 1000 :chan 1 :from-file t))) (load-port-info newobj (quote 0)) (init-mus-color newobj (quote nil)) (set-extra-pairs newobj (quote nil)) (set-patch-pairs newobj (quote ((nil (om-load-patch-abs1 "patch" (quote nil) (quote nil) 6.16 nil "" (om-make-point 200 200) (om-make-point 400 500)))))) (set-name newobj nil) (set-tonalite newobj nil) newobj)) "x" nil (pairlis (quote (palette-mode scale show-stems obj-mode score-mode winpos winsize mode grillestep notechancolor? zoom player inport outport deltapict cmnpref staff fontsize approx)) (list 0 nil (quote t) 0 0 (om-make-point 300 22) (om-make-point 370 280) 0 1000 nil 1 (quote :midishare) 0 nil (om-make-point 0 0) (let ((newobj (make-instance (quote edition-values)))) (setf (paper-size newobj) (om-make-point 600 800)) (setf (top-margin newobj) 2) (setf (left-margin newobj) 1) (setf (right-margin newobj) 1) (setf (bottom-margin newobj) 1) (setf (orientation newobj) nil) (setf (scale newobj) nil) (setf (system-space newobj) (quote (1))) (setf (system-color newobj) (quote nil)) (setf (line-space newobj) 1) (setf (title newobj) nil) (setf (show-title? newobj) nil) (setf (show-page? newobj) nil) (setf (sheet-id newobj) nil) (setf (page-mode newobj) nil) newobj) (quote gf) 24 2)) t nil nil nil))) (when (fboundp (quote set-active)) (set-active box nil)) box) (let ((box (om-load-boxcall (quote genfun) "OM-RANDOM" (quote om-random) (quote ((om-load-inputfun (quote input-funbox) "min" "LOW" 0) (om-load-inputfun (quote input-funbox) "max" "HIGH" 1))) (om-make-point 57 290) nil nil nil nil 1))) (when (fboundp (quote set-active)) (set-active box nil)) box) (let ((box (om-load-boxcall (quote lispfun) "LENGTH" (quote length) (quote ((om-load-inputfun (quote input-funbox) "SEQUENCE" "SEQUENCE" nil))) (om-make-point 267 184) nil nil nil nil 1))) (when (fboundp (quote set-active)) (set-active box nil)) box) (let ((box (om-load-boxcomment "comment 2" (om-make-point 368 58) (quote "<= atenção: na caixa sound, a unidade de tempo é seg.; pra traduzir pr'um chord-seq, precisa passar pra miliseg., ou seja, multiplicar por 1000.") "" (om-make-point 584 202) nil (om-make-color 0 0 0) (om-make-font "Verdana" 12 :family "Verdana" :style (quote (:plain)) :mode (quote nil))))) (when (fboundp (quote set-active)) (set-active box nil)) box) (let ((box (om-load-boxcomment "comment" (om-make-point 504 55) (quote "<= atenção: os onsets da caixa sound saem com decimais (e os retêm mesmo depois da multiplicação por 1000); pra traduzir pr'um chord-seq, precisa eliminar esses decimais, através de um om//, por ex.") "" (om-make-point 441 298) nil (om-make-color 0 0 0) (om-make-font "Verdana" 12 :family "Verdana" :style (quote (:plain)) :mode (quote nil))))) (when (fboundp (quote set-active)) (set-active box nil)) box) (let ((box (om-load-boxcall (quote genfun) "OM//" (quote om//) (quote ((om-load-inputfun (quote input-funbox) "number or list" "N" 1) (om-load-inputfun (quote input-funbox) "number or list" "DIVISOR" 1))) (om-make-point 399 295) nil nil nil nil 2))) (when (fboundp (quote set-active)) (set-active box nil)) box) (let ((box (om-load-boxcall (quote genfun) "FLAT" (quote flat) (quote ((om-load-inputfun (quote input-funbox) "a list" "LST" nil))) (om-make-point 461 232) nil nil nil nil 1))) (when (fboundp (quote set-active)) (set-active box nil)) box) (let ((box (om-load-boxcall (quote bastype) "list 3" (quote list) (quote nil) (om-make-point 485 192) (om-make-point 27 30) 0 "0" nil))) (when (fboundp (quote set-active)) (set-active box nil)) box) (let ((box (om-load-boxcall (quote lispfun) "LIST 2" (quote list) (quote ((om-load-inputfun (quote input-funbox) "add-input" "add-input" nil) (om-load-inputfun (quote input-funbox) "add-input" "add-input" nil))) (om-make-point 509 225) nil nil nil nil 1))) (when (fboundp (quote set-active)) (set-active box nil)) box) (let ((box (om-load-editor-box1 "CHORD-SEQ" (quote chord-seq) (quote ((om-load-inputfun (quote input-funbox) "object" "self" nil) (om-load-inputfun (quote input-funbox) "pitches (mc): list or list of lists" "lmidic" (list 6000)) (om-load-inputfun (quote input-funbox) "onsets (ms): list" "lonset" (list 0 1000)) (om-load-inputfun (quote input-funbox) "durations (ms): list or list of lists" "ldur" (list 1000)) (om-load-inputfun (quote input-funbox) "velocities (0-127): list or list of lists" "lvel" (list 100)) (om-load-inputfun (quote input-funbox) "offsets (ms): list or list of lists" "loffset" (list 0)) (om-load-inputfun (quote input-funbox) "MIDI channels (1-16): list or list of lists" "lchan" (list 1)) (om-load-inputfun (quote input-funbox) "relative chords duration (0-100)" "legato" 0))) (om-make-point 37 562) (om-make-point 1017 131) (let ((newobj (when (find-class (quote chord-seq) nil) (make-instance (quote chord-seq) :lmidic (quote ((4383) (4508) (8598) (6518) (7683) (5989) (3732) (6816) (8492) (8074) (7680) (3245) (5065) (3236) (7584) (5606) (6661) (8773) (5426) (7609) (3746) (6143) (4596) (4040) (2802) (3691) (3145) (4614) (3994) (7689) (2949) (7694) (6144) (4554) (6544) (5181) (8643) (5819) (8166) (3289) (8607) (4901) (6955) (6599) (7216) (3578) (8253) (6306) (3946) (7748) (4654) (8074) (6259) (8423) (3276) (8492) (4351) (4901) (4063) (5831) (6751) (6821) (2980) (7880) (4420) (7400) (3503) (7652) (3001) (5058) (4806) (4558) (4373) (4102) (3659) (4241) (4218) (4516) (8494) (5882) (5886) (6517) (7025) (6279) (6970) (7874) (5863) (6174) (5143) (5884) (8134) (6020) (5063) (5295) (4364) (7114) (8257) (7458) (8657))) :lonset (quote (0 826 1028 1236 1854 2040 2950 3032 3322 3792 4008 4134 4530 4746 4804 5058 5184 5430 5662 5840 6318 6444 6616 6944 7234 7330 7406 7570 8032 8338 8762 8866 9090 9276 9380 9506 9730 9902 10558 10728 10930 11026 11184 11392 11466 11780 12010 12442 12734 12794 12920 13038 13136 13270 13546 13746 13978 14216 14424 14648 14932 14976 15132 15512 15766 15908 16012 16406 16564 17466 17852 18344 18582 18970 19172 19894 19954 20118 20184 20610 20870 20960 21078 21138 21220 21302 21430 21540 21712 21758 21846 22122 22442 22562 22710 22868 23024 23172 23352 24178)) :ldur (quote ((180) (148) (156) (158) (148) (120) (320) (276) (88) (46) (172) (110) (128) (82) (82) (60) (118) (90) (260) (426) (66) (164) (60) (722) (202) (388) (238) (492) (386) (902) (158) (394) (104) (142) (254) (380) (156) (44) (284) (224) (208) (238) (232) (200) (276) (134) (98) (118) (126) (60) (292) (432) (230) (314) (74) (208) (158) (96) (202) (170) (656) (172) (224) (126) (104) (186) (224) (104) (424) (306) (462) (164) (76) (96) (290) (328) (172) (126) (478) (178) (232) (246) (126) (254) (58) (216) (396) (126) (216) (470) (290) (82) (910) (186) (618) (208) (202) (826) (826))) :lvel (quote ((47) (54) (78) (42) (35) (44) (55) (70) (16) (20) (23) (74) (51) (54) (73) (47) (88) (10) (20) (26) (26) (35) (55) (29) (87) (30) (26) (84) (36) (14) (83) (76) (82) (66) (39) (42) (27) (35) (21) (54) (71) (81) (38) (14) (61) (64) (79) (89) (79) (53) (78) (34) (24) (83) (83) (13) (82) (58) (17) (57) (85) (24) (65) (49) (59) (62) (61) (50) (75) (88) (40) (48) (82) (59) (64) (43) (60) (86) (32) (55) (46) (48) (89) (40) (87) (41) (32) (29) (67) (85) (56) (43) (49) (81) (28) (33) (84) (63) (90))) :loffset (quote ((0) (0) (0) (0) (0) (0) (0) (0) (0) (0) (0) (0) (0) (0) (0) (0) (0) (0) (0) (0) (0) (0) (0) (0) (0) (0) (0) (0) (0) (0) (0) (0) (0) (0) (0) (0) (0) (0) (0) (0) (0) (0) (0) (0) (0) (0) (0) (0) (0) (0) (0) (0) (0) (0) (0) (0) (0) (0) (0) (0) (0) (0) (0) (0) (0) (0) (0) (0) (0) (0) (0) (0) (0) (0) (0) (0) (0) (0) (0) (0) (0) (0) (0) (0) (0) (0) (0) (0) (0) (0) (0) (0) (0) (0) (0) (0) (0) (0) (0))) :lchan (quote ((4) (9) (9) (12) (12) (15) (2) (11) (4) (9) (13) (9) (4) (6) (9) (9) (11) (12) (1) (2) (12) (6) (11) (12) (1) (14) (13) (8) (6) (16) (8) (12) (12) (6) (11) (11) (13) (6) (12) (7) (11) (1) (5) (11) (11) (13) (5) (12) (4) (4) (6) (9) (5) (2) (2) (5) (12) (12) (8) (11) (4) (9) (13) (6) (13) (12) (3) (15) (5) (15) (5) (2) (9) (5) (4) (8) (15) (12) (5) (12) (9) (4) (3) (9) (4) (8) (16) (6) (8) (12) (12) (9) (12) (15) (13) (7) (8) (2) (5))) :legato 0)))) (load-port-info newobj (quote ((0) (0) (0) (0) (0) (0) (0) (0) (0) (0) (0) (0) (0) (0) (0) (0) (0) (0) (0) (0) (0) (0) (0) (0) (0) (0) (0) (0) (0) (0) (0) (0) (0) (0) (0) (0) (0) (0) (0) (0) (0) (0) (0) (0) (0) (0) (0) (0) (0) (0) (0) (0) (0) (0) (0) (0) (0) (0) (0) (0) (0) (0) (0) (0) (0) (0) (0) (0) (0) (0) (0) (0) (0) (0) (0) (0) (0) (0) (0) (0) (0) (0) (0) (0) (0) (0) (0) (0) (0) (0) (0) (0) (0) (0) (0) (0) (0) (0) (0)))) (init-mus-color newobj (quote nil)) (set-extra-pairs newobj (quote nil)) (set-patch-pairs newobj (quote nil)) (set-name newobj nil) (set-tonalite newobj nil) newobj) nil nil (pairlis (quote (approx fontsize staff cmnpref deltapict outport inport player zoom notechancolor? grillestep mode winsize winpos score-mode obj-mode show-stems scale palette-mode)) (list 2 24 (quote gf) (let ((newobj (make-instance (quote edition-values)))) (setf (paper-size newobj) (om-make-point 600 800)) (setf (top-margin newobj) 2) (setf (left-margin newobj) 1) (setf (right-margin newobj) 1) (setf (bottom-margin newobj) 1) (setf (orientation newobj) nil) (setf (scale newobj) nil) (setf (system-space newobj) (quote (1))) (setf (system-color newobj) (quote nil)) (setf (line-space newobj) 1) (setf (title newobj) nil) (setf (show-title? newobj) nil) (setf (show-page? newobj) nil) (setf (sheet-id newobj) nil) (setf (page-mode newobj) nil) newobj) (om-make-point 0 0) nil 0 (quote :osc-scoreplayer) 1/100 nil 1000 0 (om-make-point 370 280) (om-make-point 400 22) 0 1 (quote t) nil 0)) t nil nil nil))) (when (fboundp (quote set-active)) (set-active box nil)) box) (let ((box (om-load-boxcall (quote bastype) "list" (quote list) (quote nil) (om-make-point 511 167) (om-make-point 34 30) 77 "77" nil))) (when (fboundp (quote set-active)) (set-active box nil)) box) (let ((box (om-load-boxcall (quote genfun) "OM*" (quote om*) (quote ((om-load-inputfun (quote input-funbox) "number or list" "ARG1" 0) (om-load-inputfun (quote input-funbox) "number or list" "ARG2" 0))) (om-make-point 560 203) nil nil nil nil 1))) (when (fboundp (quote set-active)) (set-active box nil)) box) (let ((box (om-load-editor-box1 "Baden - Consolação.wav" (quote sound) (quote ((om-load-inputfun (quote input-funbox) "object" "self" nil) (om-load-inputfun (quote input-funbox) "a track index for multichannel mixing" "tracknum" 1) (om-load-inputfun (quote input-funbox) "a list of markers (s)" "markers" nil))) (om-make-point 62 3) (om-make-point 1062 154) (let ((newobj (let ((thesound (load-sound (om-make-pathname :directory (quote (:absolute "Users" "luizcasteloes" "Music" "iTunes" "iTunes Media" "Music" "Unknown Artist" "Unknown Album")) :device nil :host nil :name "Baden - Consolação" :type "wav") 1 1.0 0))) (when thesound (setf (markers thesound) (quote (5.371 6.677 8.032 12.048 13.257 19.16 19.692 21.579 24.627 26.03 26.853 29.417 30.82 31.207 32.852 33.675 35.272 36.772 37.933 41.029 41.852 42.965 45.093 46.98 47.609 48.093 49.158 52.16 54.143 56.901 57.579 59.03 60.24 60.917 61.74 63.191 64.304 68.562 69.674 70.981 71.61 72.626 73.981 74.464 76.497 77.996 80.803 82.691 83.078 83.901 84.675 85.304 86.175 87.965 89.271 90.771 92.319 93.674 95.126 96.964 97.254 98.271 100.738 102.383 103.302 103.98 106.544 107.56 113.417 115.933 119.126 120.674 123.19 124.496 129.19 129.577 130.641 131.077 133.835 135.528 136.109 136.883 137.27 137.802 138.334 139.157 139.883 140.996 141.286 141.866 143.657 145.737 146.511 147.479 148.495 149.511 150.479 151.64)))) thesound))) (load-port-info newobj (quote nil)) (init-mus-color newobj (quote nil)) (set-extra-pairs newobj (quote nil)) (set-patch-pairs newobj (quote nil)) (set-name newobj "Baden - Consolação.wav") (set-tonalite newobj nil) newobj) "x" nil (pairlis (quote (approx fontsize staff cmnpref deltapict outport inport player zoom notechancolor? grillestep mode winsize winpos score-mode obj-mode show-stems scale palette-mode)) (list 2 24 (quote gf) (let ((newobj (make-instance (quote edition-values)))) (setf (paper-size newobj) (om-make-point 600 800)) (setf (top-margin newobj) 2) (setf (left-margin newobj) 1) (setf (right-margin newobj) 1) (setf (bottom-margin newobj) 1) (setf (orientation newobj) nil) (setf (scale newobj) nil) (setf (system-space newobj) (quote (1))) (setf (system-color newobj) (quote nil)) (setf (line-space newobj) 1) (setf (title newobj) nil) (setf (show-title? newobj) nil) (setf (show-page? newobj) nil) (setf (sheet-id newobj) nil) (setf (page-mode newobj) nil) newobj) (om-make-point 0 0) nil 0 (quote :libaudio) 1 nil 1000 0 (om-make-point 1267 456) (om-make-point 13 97) 0 1 (quote t) nil 0)) t nil nil t))) (when (fboundp (quote set-active)) (set-active box nil)) box))) (quote ((21 0 1 0 nil 0) (4 0 5 0 nil 0) (5 0 9 0 nil 0) (0 0 9 1 nil 0) (15 0 11 0 nil 0) (18 0 15 0 nil 0) (14 0 15 1 nil 0) (13 0 15 2 nil 0) (28 0 18 0 nil 0) (17 0 18 1 nil 0) (20 0 19 0 nil 0) (18 0 20 0 nil 0) (24 0 21 0 nil 0) (25 0 21 1 nil 0) (23 1 24 0 nil 0) (22 1 24 1 nil 0) (28 0 25 0 nil 0) (29 0 28 0 nil 0) (31 0 29 0 nil 0) (30 0 31 0 nil 0) (34 0 31 1 nil 0) (21 0 32 1 nil 0) (18 0 32 2 nil 0) (19 0 32 3 nil 0) (11 0 32 4 nil 0) (1 0 32 6 nil 0) (33 0 34 0 nil 0) (35 2 34 1 nil 0))) nil 6.16))
