; OM File Header - Saved 2020/12/05 20:27:01
; (6.120003 :patc (om-make-point 199 515) (om-make-point 371 347) (om-make-point 642 727) "" 183 0 nil "2020/12/05 20:27:01")
; End File Header
(in-package :om)(load-lib-for (quote ("OMCollider")))(setf *om-current-persistent* (om-load-patch1 "sampling" (quote ((let ((box (om-load-boxcall (quote genfun) "SYNTHESIZER" (quote omsc::synthesizer) (quote ((om-load-inputfun (quote input-funbox) "" "DATA" nil))) (om-make-point 488 604) nil nil nil nil 1))) (when (fboundp (quote set-active)) (set-active box nil)) box) (let ((box (om-load-boxcall (quote bastype) "list 5" (quote list) (quote nil) (om-make-point 73 60) (om-make-point 95 45) "/Applications/SuperCollider/SuperCollider.app/Contents/Resources/sounds/a11wlk01.wav" "\"/Applications/SuperCollider/SuperCollider.app/Contents/Resources/sounds/a11wlk01.wav\"" nil))) (when (fboundp (quote set-active)) (set-active box nil)) box) (let ((box (om-load-boxcall (quote bastype) "list 2" (quote list) (quote nil) (om-make-point 498 121) (om-make-point 17 30) 1 "1" nil))) (when (fboundp (quote set-active)) (set-active box nil)) box) (let ((box (om-load-boxcomment "comment" (om-make-point 100 60) (quote "Loop = 1 (normal playback)") "" (om-make-point 471 52) nil (om-make-color 0 0 0) (om-make-font "Verdana" 12 :family "Verdana" :style (quote (:plain)) :mode (quote nil))))) (when (fboundp (quote set-active)) (set-active box nil)) box) (let ((box (om-load-boxcall (quote genfun) "GUI" (quote omsc::gui) (quote ((om-load-inputfun (quote input-funbox) "" "IN" nil))) (om-make-point 389 517) nil nil nil nil 1))) (when (fboundp (quote set-active)) (set-active box nil)) box) (let ((box (om-load-boxcall (quote genfun) "PAN2_AR" (quote omsc::pan2_ar) (quote ((om-load-inputfun (quote input-funbox) "" "IN" 0) (om-load-inputfun (quote input-funbox) "" "POS" 0) (om-load-inputfun (quote input-funbox) "" "LEVEL" 1))) (om-make-point 308 403) nil nil nil nil 1))) (when (fboundp (quote set-active)) (set-active box nil)) box) (let ((box (om-load-boxcomment "comment" (om-make-point 100 60) (quote "velocità di lettura") "" (om-make-point 336 39) nil (om-make-color 0 0 0) (om-make-font "Verdana" 12 :family "Verdana" :style (quote (:plain)) :mode (quote nil))))) (when (fboundp (quote set-active)) (set-active box nil)) box) (let ((box (om-load-boxcall (quote genfun) "FUNCTION-PLAY" (quote omsc::function-play) (quote ((om-load-inputfun (quote input-funbox) "" "IN" nil))) (om-make-point 253 473) nil nil nil nil 1))) (when (fboundp (quote set-active)) (set-active box nil)) box) (let ((box (om-load-boxcall (quote genfun) "MOUSE-X" (quote omsc::mouse-x) (quote ((om-load-inputfun (quote input-funbox) "" "MINVAL" 0.01) (om-load-inputfun (quote input-funbox) "" "MAXVAL" 10) (om-load-inputfun (quote input-funbox) "" "WARP" 2) (om-load-inputfun (quote input-funbox) "" "LAG" 0.2))) (om-make-point 341 106) nil nil nil nil 1))) (when (fboundp (quote set-active)) (set-active box nil)) box) (let ((box (om-load-boxcall (quote genfun) "PLAYBUF" (quote omsc::playbuf) (quote ((om-load-inputfun (quote input-funbox) "" "NUMCHANNELS" 1) (om-load-inputfun (quote input-funbox) "" "BUFNUM" "k") (om-load-inputfun (quote input-funbox) "" "RATE" 1) (om-load-inputfun (quote input-funbox) "" "TRIGGER" 1) (om-load-inputfun (quote input-funbox) "" "STARTPOS" 0) (om-load-inputfun (quote input-funbox) "" "LOOP" 1) (om-load-inputfun (quote input-funbox) "" "DONEACTION" 2))) (om-make-point 332 266) nil nil nil nil 1))) (when (fboundp (quote set-active)) (set-active box nil)) box) (let ((box (om-load-boxcall (quote genfun) "BUFFER-READ" (quote omsc::buffer-read) (quote ((om-load-inputfun (quote input-funbox) "" "FILENAME" nil))) (om-make-point 215 136) nil nil nil nil 1))) (when (fboundp (quote set-active)) (set-active box nil)) box))) (quote ((4 0 0 0 nil 0) (7 0 4 0 nil 0) (9 0 5 0 nil 0) (5 0 7 0 nil 0) (10 0 9 1 nil 0) (8 0 9 2 nil 0) (2 0 9 5 nil 0) (1 0 10 0 nil 0))) nil 6.120003))
