; OM File Header - Saved 2021/07/30 13:49:34
; (6.070005 :patc (om-make-point 346 121) (om-make-point 545 191) (om-make-point 661 492) "" 183 0 nil "2021/07/30 13:49:34")
; End File Header
; External resources 
; (list (list (quote :picture) "#P\"../../../../resources/pict/omsox\"") (list (quote :sound) "#P\"../../../../../../../../Research/OM-SoX/OM-SoX 1.0/resources/sounds/drumloop.aif\""))
(in-package :om)(load-lib-for (quote ("OM-SoX")))(setf *om-current-persistent* (om-load-patch1 "2-FIR-filters" (quote ((om-load-boxcomment "comment 2" (om-make-point 498 34) (quote "Filter audio using a lowpass/highpass/bandpass/bandreject FIR filter") "" (om-make-point 129 21) nil (om-make-color 0.0 0.0 0.0) (om-make-font "Verdana" 14.0 :family "Verdana" :style (quote (:plain)) :mode (quote nil))) (om-load-boxcomment "comment" (om-make-point 182 36) (quote "sinc kaiser-windowed FIR filter$with 120dB stopband attenuation") "" (om-make-point 338 191) nil (om-make-color 0.02832079 0.0 1.0) (om-make-font "Verdana" 10.0 :family "Verdana" :style (quote (:italic)) :mode (quote nil))) (om-load-editor-box1 "drumloop.aif" (quote sound) (quote ((om-load-inputfun (quote input-funbox) "object" "self" nil) (om-load-inputfun (quote input-funbox) "a track index for multichannel mixing" "tracknum" 0) (om-load-inputfun (quote input-funbox) "a list of markers (s)" "markers" nil))) (om-make-point 152 205) (om-make-point 80 50) (let ((newobj (let ((thesound (load-sound (om-make-pathname :directory (quote (:absolute "Users" "Marlon_MBPro3" "Research" "OM-SoX" "OM-SoX 1.0" "resources" "sounds")) :device nil :host nil :name "drumloop" :type "aif") 0 100 0))) (when thesound (setf (markers thesound) (quote nil))) thesound))) (load-port-info newobj (quote nil)) (init-mus-color newobj (quote nil)) (set-extra-pairs newobj (quote nil)) (set-patch-pairs newobj (quote nil)) (set-name newobj "drumloop.aif") (set-tonalite newobj nil) newobj) "x" nil (pairlis (quote (palette-mode scale show-stems obj-mode score-mode winpos winsize mode grillestep notechancolor? zoom player inport outport deltapict cmnpref staff fontsize approx)) (list 0 nil (quote t) 1 0 (om-make-point 400 22) (om-make-point 542 300) 0 1000 nil 1 (quote :soxplayer) 0 nil (om-make-point 0 0) (let ((newobj (make-instance (quote edition-values)))) (setf (paper-size newobj) (om-make-point 600 800)) (setf (top-margin newobj) 2) (setf (left-margin newobj) 1) (setf (right-margin newobj) 1) (setf (bottom-margin newobj) 1) (setf (orientation newobj) nil) (setf (scale newobj) nil) (setf (system-space newobj) (quote (1))) (setf (system-color newobj) (quote nil)) (setf (line-space newobj) 1) (setf (title newobj) nil) (setf (show-title? newobj) nil) (setf (show-page? newobj) nil) (setf (sheet-id newobj) nil) (setf (page-mode newobj) nil) newobj) (quote g) 24 2)) t nil nil nil) (om-load-boxcall (quote bastype) "aux 10" (quote t) (quote nil) (om-make-point 322 128) (om-make-point 42 30) 2000 "2000" nil) (om-load-boxcall (quote bastype) "aux 9" (quote t) (quote nil) (om-make-point 274 128) (om-make-point 41 30) 400 "400" nil) (om-load-boxcall (quote genfun) "SOX-SINC 2" (quote sox-sinc) (quote ((om-load-inputfunmenu1 (quote input-funmenu) "band-pass/reject, high- or lowpass" "MODE" "bandpass" (list (list "bandpass" "bandpass") (list "bandreject" "bandreject") (list "lowpass" "lowpass") (list "highpass" "highpass"))) (om-load-inputfun (quote input-funbox) "Low-frequency (in Hz)" "LOW-FREQ" 0) (om-load-inputfun (quote input-funbox) "High-frequency (in Hz)" "HIGH-FREQ" 20000))) (om-make-point 282 172) nil nil nil nil 1) (om-load-boxcall (quote genfun) "SOX-PROCESS" (quote sox-process) (quote ((om-load-inputfun (quote input-funbox) "no documentation" "SND" nil) (om-load-inputfun (quote input-funbox) "no documentation" "COMMANDS" nil))) (om-make-point 256 268) nil nil nil nil 1) (om-load-editor-box1 "" (quote sound) (quote ((om-load-inputfun (quote input-funbox) "object" "SELF" nil) (om-load-inputfun (quote input-funbox) "a track index for multichannel mixing" "TRACKNUM" 1) (om-load-inputfun (quote input-funbox) "a list of markers (s)" "MARKERS" nil))) (om-make-point 272 353) (om-make-point 80 50) (let ((newobj nil)) (load-port-info newobj (quote nil)) (init-mus-color newobj (quote nil)) (set-extra-pairs newobj (quote nil)) (set-patch-pairs newobj (quote nil)) (set-name newobj "") (set-tonalite newobj nil) newobj) nil nil (pairlis (quote (palette-mode scale show-stems obj-mode score-mode winpos winsize mode grillestep notechancolor? zoom player inport outport deltapict cmnpref staff fontsize approx)) (list 0 nil (quote t) 1 0 (om-make-point 0 215) (om-make-point 531 294) 0 1000 nil 1 (quote :soxplayer) 0 nil (om-make-point 0 0) (let ((newobj (make-instance (quote edition-values)))) (setf (paper-size newobj) (om-make-point 600 800)) (setf (top-margin newobj) 2) (setf (left-margin newobj) 1) (setf (right-margin newobj) 1) (setf (bottom-margin newobj) 1) (setf (orientation newobj) nil) (setf (scale newobj) nil) (setf (system-space newobj) (quote (1))) (setf (system-color newobj) (quote nil)) (setf (line-space newobj) 1) (setf (title newobj) nil) (setf (show-title? newobj) nil) (setf (show-page? newobj) nil) (setf (sheet-id newobj) nil) (setf (page-mode newobj) nil) newobj) (quote g) 24 2)) t nil nil nil))) (quote ((4 0 5 1 nil 0) (3 0 5 2 nil 0) (2 0 6 0 nil 0) (5 0 6 1 nil 0) (6 0 7 0 nil 0))) (list (let ((newpict (make-instance (quote patch-picture) :name "omsox" :source (quote user) :pict-pathname (restore-pict-path (restore-path nil)) :thepict (om-get-picture "omsox" (quote user)) :storemode :external :draw-params (quote (p 0 0 100 100)) :extraobjs nil))) (setf (pict-pos newpict) (om-make-point 59 8)) (setf (pict-size newpict) (om-make-point 63 53)) newpict)) 6.070005))
