; OM File Header - Saved 2020/08/25 19:06:17
; (6.16 :patc (om-make-point 334 110) (om-make-point -8 -8) (om-make-point 1366 705) "" 183 0 "2019/11/16 20:31:53" "2020/02/11 15:20:22")
; End File Header
(in-package :om)(load-lib-for (quote ("OM-Partch")))(setf *om-current-persistent* (om-load-patch1 "Arabesque no.1" (quote ((let ((box (om-load-boxcall (quote abstraction) "store" (om-load-patch-abs1 "store" (quote ((let ((box (om-load-editor-box1 "VOICE 2" (quote voice) (quote ((om-load-inputfun (quote input-funbox) "object" "self" nil) (om-load-inputfun (quote input-funbox) "a list representing a rhythm tree" "tree" (list (quote ?) (list (list (list 4 4) (list 1 1 1 1))))) (om-load-inputfun (quote input-funbox) "a chord object, a list of chords, a list of midics, a list of lists of midics..." "chords" (list (let ((thechord (make-instance (quote chord) :lmidic (quote (6000)) :ldur (quote (1000)) :lvel (quote (100)) :loffset (quote (0)) :lchan (quote (1))))) (load-port-info thechord (quote (0))) (init-mus-color thechord (quote nil)) (set-extra-pairs thechord (quote nil)) (set-tonalite thechord nil) thechord))) (om-load-inputfun (quote input-funbox) "frequency of the quarter-note (default 60/mn)" "tempo" 80) (om-load-inputfun (quote input-funbox) "overlapping percentage between every successive chords, calculated from the second chord's duration" "legato" 100) (om-load-inputfun (quote input-funbox) "sub lists (one sub list per chord) indicating notes to be tied to notes of the same value, in a next chord" "ties" nil))) (om-make-point 116 24) (om-make-point 748 118) (let ((newobj (when (find-class (quote voice) nil) (make-instance (quote voice) :tree (quote (6 (((4 4) ((1 (1 1)) (1 (1.0 3)) 1 (1 (1.0 2 1)))) ((4 4) ((1 (1.0 3)) (1 (1.0 1)) (1 (3.0 1)) 1.0)) ((4 4) ((1 (3 1)) (1 (1.0 1)) (1 (1.0 2 1)) (1 (1.0 3)))) ((4 4) ((1 (1.0 1)) (1 (1.0 2 1)) 1.0 1)) ((4 4) ((1 (1.0 3)) (1 (1.0 1)) (1 (1.0 3)) (1 (1 1)))) ((4 4) ((1 (3.0 1)) 1.0 -2))))) :chords (load-obj-list-from-save (quote ((let ((thechord (make-instance (quote chord) :lmidic (quote (7450)) :ldur (quote (375)) :lvel (quote (30)) :loffset (quote (0)) :lchan (quote (9))))) (load-port-info thechord (quote (0))) (init-mus-color thechord (quote nil)) (set-extra-pairs thechord (quote nil)) (set-tonalite thechord nil) thechord) (let ((thechord (make-instance (quote chord) :lmidic (quote (7308)) :ldur (quote (375)) :lvel (quote (30)) :loffset (quote (0)) :lchan (quote (9))))) (load-port-info thechord (quote (0))) (init-mus-color thechord (quote nil)) (set-extra-pairs thechord (quote nil)) (set-tonalite thechord nil) thechord) (let ((thechord (make-instance (quote chord) :lmidic (quote (7606)) :ldur (quote (562)) :lvel (quote (30)) :loffset (quote (0)) :lchan (quote (9))))) (load-port-info thechord (quote (0))) (init-mus-color thechord (quote nil)) (set-extra-pairs thechord (quote nil)) (set-tonalite thechord nil) thechord) (let ((thechord (make-instance (quote chord) :lmidic (quote (6700)) :ldur (quote (750)) :lvel (quote (40)) :loffset (quote (0)) :lchan (quote (9))))) (load-port-info thechord (quote (0))) (init-mus-color thechord (quote nil)) (set-extra-pairs thechord (quote nil)) (set-tonalite thechord nil) thechord) (let ((thechord (make-instance (quote chord) :lmidic (quote (6700)) :ldur (quote (375)) :lvel (quote (60)) :loffset (quote (0)) :lchan (quote (9))))) (load-port-info thechord (quote (0))) (init-mus-color thechord (quote nil)) (set-extra-pairs thechord (quote nil)) (set-tonalite thechord nil) thechord) (let ((thechord (make-instance (quote chord) :lmidic (quote (8508)) :ldur (quote (188)) :lvel (quote (30)) :loffset (quote (0)) :lchan (quote (9))))) (load-port-info thechord (quote (0))) (init-mus-color thechord (quote nil)) (set-extra-pairs thechord (quote nil)) (set-tonalite thechord nil) thechord) (let ((thechord (make-instance (quote chord) :lmidic (quote (7606)) :ldur (quote (562)) :lvel (quote (40)) :loffset (quote (0)) :lchan (quote (9))))) (load-port-info thechord (quote (0))) (init-mus-color thechord (quote nil)) (set-extra-pairs thechord (quote nil)) (set-tonalite thechord nil) thechord) (let ((thechord (make-instance (quote chord) :lmidic (quote (8650)) :ldur (quote (375)) :lvel (quote (40)) :loffset (quote (0)) :lchan (quote (9))))) (load-port-info thechord (quote (0))) (init-mus-color thechord (quote nil)) (set-extra-pairs thechord (quote nil)) (set-tonalite thechord nil) thechord) (let ((thechord (make-instance (quote chord) :lmidic (quote (6700)) :ldur (quote (188)) :lvel (quote (60)) :loffset (quote (0)) :lchan (quote (9))))) (load-port-info thechord (quote (0))) (init-mus-color thechord (quote nil)) (set-extra-pairs thechord (quote nil)) (set-tonalite thechord nil) thechord) (let ((thechord (make-instance (quote chord) :lmidic (quote (7606)) :ldur (quote (562)) :lvel (quote (60)) :loffset (quote (0)) :lchan (quote (9))))) (load-port-info thechord (quote (0))) (init-mus-color thechord (quote nil)) (set-extra-pairs thechord (quote nil)) (set-tonalite thechord nil) thechord) (let ((thechord (make-instance (quote chord) :lmidic (quote (7606)) :ldur (quote (188)) :lvel (quote (40)) :loffset (quote (0)) :lchan (quote (9))))) (load-port-info thechord (quote (0))) (init-mus-color thechord (quote nil)) (set-extra-pairs thechord (quote nil)) (set-tonalite thechord nil) thechord) (let ((thechord (make-instance (quote chord) :lmidic (quote (8650)) :ldur (quote (375)) :lvel (quote (30)) :loffset (quote (0)) :lchan (quote (9))))) (load-port-info thechord (quote (0))) (init-mus-color thechord (quote nil)) (set-extra-pairs thechord (quote nil)) (set-tonalite thechord nil) thechord) (let ((thechord (make-instance (quote chord) :lmidic (quote (6700)) :ldur (quote (375)) :lvel (quote (60)) :loffset (quote (0)) :lchan (quote (9))))) (load-port-info thechord (quote (0))) (init-mus-color thechord (quote nil)) (set-extra-pairs thechord (quote nil)) (set-tonalite thechord nil) thechord) (let ((thechord (make-instance (quote chord) :lmidic (quote (6700)) :ldur (quote (188)) :lvel (quote (40)) :loffset (quote (0)) :lchan (quote (9))))) (load-port-info thechord (quote (0))) (init-mus-color thechord (quote nil)) (set-extra-pairs thechord (quote nil)) (set-tonalite thechord nil) thechord) (let ((thechord (make-instance (quote chord) :lmidic (quote (7900)) :ldur (quote (562)) :lvel (quote (30)) :loffset (quote (0)) :lchan (quote (9))))) (load-port-info thechord (quote (0))) (init-mus-color thechord (quote nil)) (set-extra-pairs thechord (quote nil)) (set-tonalite thechord nil) thechord) (let ((thechord (make-instance (quote chord) :lmidic (quote (7308)) :ldur (quote (375)) :lvel (quote (40)) :loffset (quote (0)) :lchan (quote (9))))) (load-port-info thechord (quote (0))) (init-mus-color thechord (quote nil)) (set-extra-pairs thechord (quote nil)) (set-tonalite thechord nil) thechord) (let ((thechord (make-instance (quote chord) :lmidic (quote (6700)) :ldur (quote (375)) :lvel (quote (30)) :loffset (quote (0)) :lchan (quote (9))))) (load-port-info thechord (quote (0))) (init-mus-color thechord (quote nil)) (set-extra-pairs thechord (quote nil)) (set-tonalite thechord nil) thechord) (let ((thechord (make-instance (quote chord) :lmidic (quote (7308)) :ldur (quote (188)) :lvel (quote (40)) :loffset (quote (0)) :lchan (quote (9))))) (load-port-info thechord (quote (0))) (init-mus-color thechord (quote nil)) (set-extra-pairs thechord (quote nil)) (set-tonalite thechord nil) thechord) (let ((thechord (make-instance (quote chord) :lmidic (quote (7308)) :ldur (quote (750)) :lvel (quote (30)) :loffset (quote (0)) :lchan (quote (9))))) (load-port-info thechord (quote (0))) (init-mus-color thechord (quote nil)) (set-extra-pairs thechord (quote nil)) (set-tonalite thechord nil) thechord) (let ((thechord (make-instance (quote chord) :lmidic (quote (7450)) :ldur (quote (562)) :lvel (quote (40)) :loffset (quote (0)) :lchan (quote (9))))) (load-port-info thechord (quote (0))) (init-mus-color thechord (quote nil)) (set-extra-pairs thechord (quote nil)) (set-tonalite thechord nil) thechord) (let ((thechord (make-instance (quote chord) :lmidic (quote (7450)) :ldur (quote (375)) :lvel (quote (30)) :loffset (quote (0)) :lchan (quote (9))))) (load-port-info thechord (quote (0))) (init-mus-color thechord (quote nil)) (set-extra-pairs thechord (quote nil)) (set-tonalite thechord nil) thechord) (let ((thechord (make-instance (quote chord) :lmidic (quote (8806)) :ldur (quote (562)) :lvel (quote (40)) :loffset (quote (0)) :lchan (quote (9))))) (load-port-info thechord (quote (0))) (init-mus-color thechord (quote nil)) (set-extra-pairs thechord (quote nil)) (set-tonalite thechord nil) thechord) (let ((thechord (make-instance (quote chord) :lmidic (quote (8650)) :ldur (quote (375)) :lvel (quote (60)) :loffset (quote (0)) :lchan (quote (9))))) (load-port-info thechord (quote (0))) (init-mus-color thechord (quote nil)) (set-extra-pairs thechord (quote nil)) (set-tonalite thechord nil) thechord) (let ((thechord (make-instance (quote chord) :lmidic (quote (7308)) :ldur (quote (375)) :lvel (quote (40)) :loffset (quote (0)) :lchan (quote (9))))) (load-port-info thechord (quote (0))) (init-mus-color thechord (quote nil)) (set-extra-pairs thechord (quote nil)) (set-tonalite thechord nil) thechord) (let ((thechord (make-instance (quote chord) :lmidic (quote (7450)) :ldur (quote (188)) :lvel (quote (30)) :loffset (quote (0)) :lchan (quote (9))))) (load-port-info thechord (quote (0))) (init-mus-color thechord (quote nil)) (set-extra-pairs thechord (quote nil)) (set-tonalite thechord nil) thechord)))) :tempo (quote ((1/4 80) nil)) :legato 100 :ties (quote (nil nil nil nil nil nil nil nil nil nil nil nil nil nil nil nil nil nil nil nil nil nil nil nil nil)))))) (load-port-info newobj (quote nil)) (init-mus-color newobj (quote nil)) (set-extra-pairs newobj (quote nil)) (set-patch-pairs newobj (quote ((nil (om-load-patch-abs1 "patch" (quote nil) (quote nil) 6.16 nil "" (om-make-point 200 200) (om-make-point 400 500)))))) (set-name newobj nil) (set-tonalite newobj nil) newobj) "x" nil (pairlis (quote (approx fontsize staff cmnpref deltapict outport inport player zoom notechancolor? grillestep mode winsize winpos score-mode obj-mode cursor-mode show-stems scale)) (list 4 24 (quote g) (let ((newobj (make-instance (quote edition-values)))) (setf (paper-size newobj) (om-make-point 600 800)) (setf (top-margin newobj) 2) (setf (left-margin newobj) 1) (setf (right-margin newobj) 1) (setf (bottom-margin newobj) 1) (setf (orientation newobj) nil) (setf (scale newobj) nil) (setf (system-space newobj) (quote (1))) (setf (system-color newobj) (quote nil)) (setf (line-space newobj) 1) (setf (title newobj) nil) (setf (show-title? newobj) nil) (setf (show-page? newobj) nil) (setf (sheet-id newobj) nil) (setf (page-mode newobj) nil) newobj) (om-make-point 0 0) nil nil (quote :osc-scoreplayer) 1 nil 1000 0 (om-make-point 1052 248) (om-make-point 64 181) 0 1 (quote :normal) (quote t) nil)) t nil nil t))) (when (fboundp (quote set-active)) (set-active box nil)) box) (let ((box (om-load-boxcomment "comment" (om-make-point 32 40) (quote "I$") nil (om-make-point 88 41) nil (om-make-color 0 0 0) (om-make-font "EB Garamond 12" 21 :family "EB Garamond 12" :style (quote (:plain)) :mode (quote nil))))) (when (fboundp (quote set-active)) (set-active box nil)) box))) (quote nil) 6.16 nil "" (om-make-point 200 200) (om-make-point 898 460)) (quote nil) (om-make-point 279 607) nil nil nil nil))) (when (fboundp (quote set-active)) (set-active box nil)) box) (let ((box (om-load-boxcall (quote bastype) "aux 6" (quote t) (quote nil) (om-make-point 951 362) (om-make-point 26 28) 6 "6" nil))) (when (fboundp (quote set-active)) (set-active box nil)) box) (let ((box (om-load-boxcall (quote genfun) "CHOOSE-CHORD" (quote choose-chord) (quote ((om-load-inputfun (quote input-funbox) "list of notes (THIS OBJECT DON'T READ LISTS OF LIST" "NOTELIST" (list (list 6000 6530) (list 7203 5049))) (om-load-inputfun (quote input-funbox) "Cents aproximation of the 12-DEO" "CHORD-N" (list (list 6000 6530) (list 7203 5049))))) (om-make-point 895 398) nil nil nil nil 1))) (when (fboundp (quote set-active)) (set-active box nil)) box) (let ((box (om-load-boxcall (quote genfun) "REMOVE-DUP 2" (quote remove-dup) (quote ((om-load-inputfun (quote input-funbox) "list" "LIST" (list 1 2 3 4)) (om-load-inputfun (quote input-funbox) "equality test (function or function name)" "TEST" (quote eq)) (om-load-inputfun (quote input-funbox) "an integer" "DEPTH" 1))) (om-make-point 1176 448) nil nil nil nil 1))) (when (fboundp (quote set-active)) (set-active box nil)) box) (let ((box (om-load-boxcall (quote bastype) "aux 5" (quote t) (quote nil) (om-make-point 1164 277) (om-make-point 26 28) 4 "4" nil))) (when (fboundp (quote set-active)) (set-active box nil)) box) (let ((box (om-load-boxcall (quote bastype) "aux 4" (quote t) (quote nil) (om-make-point 1127 277) (om-make-point 32 28) 10 "10" nil))) (when (fboundp (quote set-active)) (set-active box nil)) box) (let ((box (om-load-boxcall (quote genfun) "FLAT" (quote flat) (quote ((om-load-inputfun (quote input-funbox) "a list" "LST" nil))) (om-make-point 1097 207) nil nil nil nil 1))) (when (fboundp (quote set-active)) (set-active box nil)) box) (let ((box (om-load-boxcall (quote genfun) "FILTER-ACOUSTIC-INSTRUMENT" (quote filter-acoustic-instrument) (quote ((om-load-inputfun (quote input-funbox) "list of notes (THIS OBJECT DON'T READ LISTS OF LIST" "NOTELIST" (list 6000 6530 7203 5049)) (om-load-inputfun (quote input-funbox) "Cents aproximation of the 12-DEO" "APPROX" 10) (om-load-inputfun (quote input-funbox) "aproximação de escala temperada 1/2 1/4 1/8 de tom" "TEMPERAMENT" 2))) (om-make-point 1073 324) nil nil nil nil 1))) (when (fboundp (quote set-active)) (set-active box nil)) box) (let ((box (om-load-boxcall (quote bastype) "aux 2" (quote t) (quote nil) (om-make-point 965 220) (om-make-point 44 28) 6700 "6700" nil))) (when (fboundp (quote set-active)) (set-active box nil)) box) (let ((box (om-load-boxcall (quote genfun) "RATIO->MC" (quote ratio->mc) (quote ((om-load-inputfun (quote input-funbox) "convert list of ratios for midicent in Just Intonation" "RATIO" (list 1 11/8 7/4)) (om-load-inputfun (quote input-funbox) "this is the fundamental of the Just Intonation" "FUNDAMENTAL" 6000))) (om-make-point 911 265) nil nil nil nil 1))) (when (fboundp (quote set-active)) (set-active box nil)) box) (let ((box (om-load-editor-box1 "CHORD-SEQ" (quote chord-seq) (quote ((om-load-inputfun (quote input-funbox) "object" "self" nil) (om-load-inputfun (quote input-funbox) "pitches (mc): list or list of lists" "lmidic" (list 6000)) (om-load-inputfun (quote input-funbox) "onsets (ms): list" "lonset" (list 0 1000)) (om-load-inputfun (quote input-funbox) "durations (ms): list or list of lists" "ldur" (list 1000)) (om-load-inputfun (quote input-funbox) "velocities (0-127): list or list of lists" "lvel" (list 100)) (om-load-inputfun (quote input-funbox) "offsets (ms): list or list of lists" "loffset" (list 0)) (om-load-inputfun (quote input-funbox) "MIDI channels (1-16): list or list of lists" "lchan" (list 9)) (om-load-inputfun (quote input-funbox) "relative chords duration (0-100)" "legato" 0))) (om-make-point 845 532) (om-make-point 341 133) (let ((newobj (when (find-class (quote chord-seq) nil) (make-instance (quote chord-seq) :lmidic (quote ((7606) (7450) (7308) (6700))) :lonset (quote (0 1000 2000 3000 4000)) :ldur (quote ((1000) (1000) (1000) (1000))) :lvel (quote ((100) (100) (100) (100))) :loffset (quote ((0) (0) (0) (0))) :lchan (quote ((9) (9) (9) (9))) :legato 0)))) (load-port-info newobj (quote ((0) (0) (0) (0)))) (init-mus-color newobj (quote nil)) (set-extra-pairs newobj (quote nil)) (set-patch-pairs newobj (quote nil)) (set-name newobj nil) (set-tonalite newobj nil) newobj) nil nil (pairlis (quote (scale show-stems cursor-mode obj-mode score-mode winpos winsize mode grillestep notechancolor? zoom player inport outport deltapict cmnpref staff fontsize approx)) (list nil (quote t) (quote :normal) 1 0 (om-make-point 130 77) (om-make-point 1150 347) 0 1000 nil 1 (quote :osc-scoreplayer) nil nil (om-make-point 0 0) (let ((newobj (make-instance (quote edition-values)))) (setf (paper-size newobj) (om-make-point 600 800)) (setf (top-margin newobj) 2) (setf (left-margin newobj) 1) (setf (right-margin newobj) 1) (setf (bottom-margin newobj) 1) (setf (orientation newobj) nil) (setf (scale newobj) nil) (setf (system-space newobj) (quote (1))) (setf (system-color newobj) (quote nil)) (setf (line-space newobj) 1) (setf (title newobj) nil) (setf (show-title? newobj) nil) (setf (show-page? newobj) nil) (setf (sheet-id newobj) nil) (setf (page-mode newobj) nil) newobj) (quote g) 28 8)) t nil nil nil))) (when (fboundp (quote set-active)) (set-active box nil)) box) (let ((box (om-load-boxcall (quote genfun) "RT-OCTAVE" (quote rt-octave) (quote ((om-load-inputfun (quote input-funbox) "list of ratios" "FRAQ" (list 1/3 1 5/3)))) (om-make-point 836 180) nil nil nil nil 1))) (when (fboundp (quote set-active)) (set-active box nil)) box) (let ((box (om-load-boxcall (quote abstraction) "sieve" (om-load-patch-abs1 "sieve" (quote ((let ((box (om-load-boxout "output" 0 (om-make-point 136 324) (quote ((om-load-inputfun (quote input-funbox) "" "out" nil))) nil nil))) (when (fboundp (quote set-active)) (set-active box nil)) box) (let ((box (om-load-boxcall (quote genfun) "REVEL-CRIBLE" (quote revel-crible) (quote ((om-load-inputfun (quote input-funbox) "" "SELF" nil))) (om-make-point 126 243) nil nil nil nil 1))) (when (fboundp (quote set-active)) (set-active box nil)) box) (let ((box (om-load-boxcall (quote genfun) "C-UNION" (quote c-union) (quote ((om-load-inputfun (quote input-funbox) "" "SELF" nil) (om-load-inputfun (quote input-funbox) "" "CRIBLE" nil) (om-load-inputfun (quote input-funbox) "" "REST" nil))) (om-make-point 89 167) (om-make-point 142 66) nil nil nil 1))) (when (fboundp (quote set-active)) (set-active box nil)) box) (let ((box (om-load-boxcall (quote bastype) "aux 3" (quote t) (quote nil) (om-make-point 254 40) (om-make-point 74 28) (list 97 16 64) "(97 16 64)" nil))) (when (fboundp (quote set-active)) (set-active box nil)) box) (let ((box (om-load-boxcall (quote bastype) "aux 2" (quote t) (quote nil) (om-make-point 175 40) (om-make-point 74 28) (list 11 16 64) "(11 16 64)" nil))) (when (fboundp (quote set-active)) (set-active box nil)) box) (let ((box (om-load-boxcall (quote bastype) "aux" (quote t) (quote nil) (om-make-point 91 40) (om-make-point 74 28) (list 19 16 64) "(19 16 64)" nil))) (when (fboundp (quote set-active)) (set-active box nil)) box) (let ((box (om-load-editor-box1 "CRIBLE 3" (quote crible) (quote ((om-load-inputfun (quote input-funbox) "object" "self" nil) (om-load-inputfun (quote input-funbox) "" "cr-exp" (list 2 0 18)))) (om-make-point 209 88) (om-make-point 70 50) (if (find-class (quote crible) nil) (make-instance (quote crible) :cr-exp (list 2 0 18) :from-file t)) nil nil (pairlis (quote (winsize winpos)) (list (om-make-point 335 275) (om-make-point 10 40))) nil nil nil nil))) (when (fboundp (quote set-active)) (set-active box nil)) box) (let ((box (om-load-editor-box1 "CRIBLE 2" (quote crible) (quote ((om-load-inputfun (quote input-funbox) "object" "self" nil) (om-load-inputfun (quote input-funbox) "" "cr-exp" (list 2 0 18)))) (om-make-point 135 88) (om-make-point 70 50) (if (find-class (quote crible) nil) (make-instance (quote crible) :cr-exp (list 2 0 18) :from-file t)) nil nil (pairlis (quote (winsize winpos)) (list (om-make-point 335 275) (om-make-point 10 40))) nil nil nil nil))) (when (fboundp (quote set-active)) (set-active box nil)) box) (let ((box (om-load-editor-box1 "CRIBLE" (quote crible) (quote ((om-load-inputfun (quote input-funbox) "object" "self" nil) (om-load-inputfun (quote input-funbox) "" "cr-exp" (list 2 0 18)))) (om-make-point 62 88) (om-make-point 70 50) (if (find-class (quote crible) nil) (make-instance (quote crible) :cr-exp (list 2 0 18) :from-file t)) nil nil (pairlis (quote (winsize winpos)) (list (om-make-point 335 275) (om-make-point 10 40))) nil nil nil nil))) (when (fboundp (quote set-active)) (set-active box nil)) box))) (quote ((1 0 0 0 nil 0) (2 0 1 0 nil 0) (8 0 2 0 nil 0) (7 0 2 1 nil 0) (6 0 2 2 nil 0) (3 0 6 1 nil 0) (4 0 7 1 nil 0) (5 0 8 1 nil 0))) 6.16 nil "" (om-make-point 200 200) (om-make-point 400 480)) (quote nil) (om-make-point 815 24) nil (list (list 16 27 35 38 49 54 60)) nil nil))) (when (fboundp (quote set-active)) (set-active box nil)) box) (let ((box (om-load-boxcall (quote genfun) "TONALITY-DIAMOND-IDENTITY" (quote tonality-diamond-identity) (quote ((om-load-inputfun (quote input-funbox) "limit-n for the diamond" "IDENTITY" (list 7 11 17)) (om-load-inputfunmenu1 (quote input-funmenu) "U-tonality or O-tonality" "TONALITY" 2 (list (list "u-tonality" 1) (list "o-tonality" 2))))) (om-make-point 811 103) nil nil nil nil 1))) (when (fboundp (quote set-active)) (set-active box nil)) box) (let ((box (om-load-editor-box1 "TEXT-BOX 2" (quote text-box) (quote ((om-load-inputfun (quote input-funbox) "dialog-item text (string)" "text" "untitled"))) (om-make-point 5 4) (om-make-point 192 126) (om-make-dialog-item (quote text-box) (om-make-point 1 1) (om-make-point 164 102) " (1/8 3/16 5/16)" :font (om-make-font "Verdana" 11.25 :family "Verdana" :style (quote (:plain)) :mode (quote nil))) "x" nil (pairlis (quote (winsize winpos)) (list (om-make-point 335 275) (om-make-point 10 40))) nil nil nil nil))) (when (fboundp (quote set-active)) (set-active box nil)) box) (let ((box (om-load-editor-box1 "TEXT-BOX" (quote text-box) (quote ((om-load-inputfun (quote input-funbox) "dialog-item text (string)" "text" "untitled"))) (om-make-point 223 6) (om-make-point 243 123) (om-make-dialog-item (quote text-box) (om-make-point 1 1) (om-make-point 215 99) "(7606 7450 7308 6700)" :font (om-make-font "Verdana" 11.25 :family "Verdana" :style (quote (:plain)) :mode (quote nil))) nil nil (pairlis (quote (winsize winpos)) (list (om-make-point 335 275) (om-make-point 10 40))) nil nil nil nil))) (when (fboundp (quote set-active)) (set-active box nil)) box) (let ((box (om-load-boxcall (quote abstraction) "mypatch 3" (om-load-patch-abs1 "mypatch 3" (quote ((let ((box (om-load-boxout "output" 0 (om-make-point 82 472) (quote ((om-load-inputfun (quote input-funbox) "" "out" nil))) nil nil))) (when (fboundp (quote set-active)) (set-active box nil)) box) (let ((box (om-load-boxin "input 2" 1 (om-make-point 192 148) "" nil nil nil))) (when (fboundp (quote set-active)) (set-active box nil)) box) (let ((box (om-load-boxin "input" 0 (om-make-point 91 50) "" nil nil nil))) (when (fboundp (quote set-active)) (set-active box nil)) box) (let ((box (om-load-boxcall (quote genfun) "NTH-RANDOM" (quote nth-random) (quote ((om-load-inputfun (quote input-funbox) "a list" "LIST" nil))) (om-make-point 50 138) nil nil nil nil 1))) (when (fboundp (quote set-active)) (set-active box nil)) box) (let ((box (om-load-boxcall (quote genfun) "REPEAT-N" (quote repeat-n) (quote ((om-load-inputfun (quote input-funbox) "something" "SELF" nil) (om-load-inputfun (quote input-funbox) "times" "N" 0))) (om-make-point 64 240) nil nil nil nil 1))) (when (fboundp (quote set-active)) (set-active box nil)) box) (let ((box (om-load-boxcall (quote genfun) "MKTREE" (quote mktree) (quote ((om-load-inputfun (quote input-funbox) "list of integer ratios" "RHYTHM" (list 1/4 1/4 1/4 1/4)) (om-load-inputfun (quote input-funbox) "list of time signatures" "TIMESIGNS" (list 4 4)))) (om-make-point 106 347) nil nil nil nil 1))) (when (fboundp (quote set-active)) (set-active box nil)) box) (let ((box (om-load-boxcall (quote bastype) "aux 8" (quote t) (quote nil) (om-make-point 138 300) (om-make-point 45 28) (list 4 4) "(4 4)" nil))) (when (fboundp (quote set-active)) (set-active box nil)) box))) (quote ((5 0 0 0 nil 0) (2 0 3 0 nil 0) (3 0 4 0 nil 0) (1 0 4 1 nil 0) (4 0 5 0 nil 0) (6 0 5 1 nil 0))) 6.16 nil "" (om-make-point 200 200) (om-make-point 317 597)) (quote ((om-load-inputfun (quote input-funbox) "" "input" nil) (om-load-inputfun (quote input-funbox) "" "input 2" nil))) (om-make-point 245/2 833/4) nil (list (list (quote ?) (list (list (list 4 4) (list 1 (list 1 (list 1.0 3)) (list 1 (list 1.0 1)) (list 1 (list 3.0 1)))) (list (list 4 4) (list (list 1 (list 1.0 3)) (list 1 (list 1 1)) 1 (list 1 (list 1.0 3)))) (list (list 4 4) (list (list 1 (list 1.0 1)) (list 1 (list 1.0 2 1)) (list 1 (list 1.0 3)) (list 1 (list 1.0 1)))) (list (list 4 4) (list (list 1 (list 3.0 1)) 1.0 (list 1 (list 1 1)) (list 1 (list 1 1)))) (list (list 4 4) (list (list 1 (list 1.0 2 1)) 1.0 (list 1 (list 3 1)) 1.0)) (list (list 4 4) (list 1 (list 1 (list 1.0 3)) (list 1 (list 1.0 -1)) -1))))) nil nil))) (when (fboundp (quote set-active)) (set-active box nil)) box) (let ((box (om-load-boxcall (quote abstraction) "mypatch 2" (om-load-patch-abs1 "mypatch 2" (quote ((let ((box (om-load-boxcall (quote bastype) "aux" (quote t) (quote nil) (om-make-point 333 293) (om-make-point 35 28) (list 9) "(9)" nil))) (when (fboundp (quote set-active)) (set-active box nil)) box) (let ((box (om-load-boxout "output" 0 (om-make-point 50 434) (quote ((om-load-inputfun (quote input-funbox) "" "out" nil))) nil nil))) (when (fboundp (quote set-active)) (set-active box nil)) box) (let ((box (om-load-boxin "input 3" 2 (om-make-point 369 85) "" nil nil nil))) (when (fboundp (quote set-active)) (set-active box nil)) box) (let ((box (om-load-boxin "input 2" 1 (om-make-point 172 50) "" nil nil nil))) (when (fboundp (quote set-active)) (set-active box nil)) box) (let ((box (om-load-boxin "input" 0 (om-make-point 125 110) "" nil nil nil))) (when (fboundp (quote set-active)) (set-active box nil)) box) (let ((box (om-load-boxcall (quote genfun) "OM+" (quote om+) (quote ((om-load-inputfun (quote input-funbox) "number or list" "ARG1" 0) (om-load-inputfun (quote input-funbox) "number or list" "ARG2" 0))) (om-make-point 246 281) (om-make-point 51 35) nil nil nil 1))) (when (fboundp (quote set-active)) (set-active box nil)) box) (let ((box (om-load-editor-box1 "CHORD-SEQ" (quote chord-seq) (quote ((om-load-inputfun (quote input-funbox) "object" "self" nil) (om-load-inputfun (quote input-funbox) "pitches (mc): list or list of lists" "lmidic" (list 6000)) (om-load-inputfun (quote input-funbox) "onsets (ms): list" "lonset" (list 0 1000)) (om-load-inputfun (quote input-funbox) "durations (ms): list or list of lists" "ldur" (list 1000)) (om-load-inputfun (quote input-funbox) "velocities (0-127): list or list of lists" "lvel" (list 100)) (om-load-inputfun (quote input-funbox) "offsets (ms): list or list of lists" "loffset" (list 0)) (om-load-inputfun (quote input-funbox) "MIDI channels (1-16): list or list of lists" "lchan" (list 1)) (om-load-inputfun (quote input-funbox) "relative chords duration (0-100)" "legato" 0))) (om-make-point 239 323) (om-make-point 122 82) (let ((newobj (when (find-class (quote chord-seq) nil) (make-instance (quote chord-seq) :lmidic (quote ((7556) (6356) (7556) (6356) (6356) (7556) (7556) (9044) (6356) (7844) (7556) (7556) (6356) (6356) (7556) (7844) (6356) (7556) (6356) (9044) (6356) (7556) (6356) (6356) (9044))) :lonset (quote (0 1000 2000 3000 4000 5000 6000 7000 8000 9000 10000 11000 12000 13000 14000 15000 16000 17000 18000 19000 20000 21000 22000 23000 24000 25000)) :ldur (quote ((1000) (1000) (1000) (1000) (1000) (1000) (1000) (1000) (1000) (1000) (1000) (1000) (1000) (1000) (1000) (1000) (1000) (1000) (1000) (1000) (1000) (1000) (1000) (1000) (1000))) :lvel (quote ((40) (40) (60) (60) (30) (60) (40) (60) (60) (60) (30) (40) (30) (30) (60) (40) (40) (40) (30) (60) (40) (60) (30) (40) (30))) :loffset (quote ((0) (0) (0) (0) (0) (0) (0) (0) (0) (0) (0) (0) (0) (0) (0) (0) (0) (0) (0) (0) (0) (0) (0) (0) (0))) :lchan (quote ((1) (1) (1) (1) (1) (1) (1) (1) (1) (1) (1) (1) (1) (1) (1) (1) (1) (1) (1) (1) (1) (1) (1) (1) (1))) :legato 0)))) (load-port-info newobj (quote ((0) (0) (0) (0) (0) (0) (0) (0) (0) (0) (0) (0) (0) (0) (0) (0) (0) (0) (0) (0) (0) (0) (0) (0) (0)))) (init-mus-color newobj (quote nil)) (set-extra-pairs newobj (quote nil)) (set-patch-pairs newobj (quote nil)) (set-name newobj nil) (set-tonalite newobj nil) newobj) nil nil (pairlis (quote (approx fontsize staff cmnpref deltapict outport inport player zoom notechancolor? grillestep mode winsize winpos score-mode obj-mode cursor-mode show-stems scale)) (list 2 24 (quote g) (let ((newobj (make-instance (quote edition-values)))) (setf (paper-size newobj) (om-make-point 600 800)) (setf (top-margin newobj) 2) (setf (left-margin newobj) 1) (setf (right-margin newobj) 1) (setf (bottom-margin newobj) 1) (setf (orientation newobj) nil) (setf (scale newobj) nil) (setf (system-space newobj) (quote (1))) (setf (system-color newobj) (quote nil)) (setf (line-space newobj) 1) (setf (title newobj) nil) (setf (show-title? newobj) nil) (setf (show-page? newobj) nil) (setf (sheet-id newobj) nil) (setf (page-mode newobj) nil) newobj) (om-make-point 0 0) nil nil (quote :osc-scoreplayer) 1 nil 1000 0 (om-make-point 796 347) (om-make-point 400 20) 0 1 (quote :normal) (quote t) nil)) t nil nil nil))) (when (fboundp (quote set-active)) (set-active box nil)) box) (let ((box (om-load-boxcall (quote abstraction) "Dinamicas" (om-load-patch-abs1 "Dinamicas" (quote ((let ((box (om-load-boxin "input 2" 1 (om-make-point 99 16) "" nil nil nil))) (when (fboundp (quote set-active)) (set-active box nil)) box) (let ((box (om-load-boxout "output" 0 (om-make-point 50 131) (quote ((om-load-inputfun (quote input-funbox) "" "out" nil))) nil nil))) (when (fboundp (quote set-active)) (set-active box nil)) box) (let ((box (om-load-boxin "input" 0 (om-make-point 326 67) "" nil nil nil))) (when (fboundp (quote set-active)) (set-active box nil)) box) (let ((box (om-load-boxcall (quote genfun) "REPEAT-N 4" (quote repeat-n) (quote ((om-load-inputfun (quote input-funbox) "something" "SELF" nil) (om-load-inputfun (quote input-funbox) "times" "N" 0))) (om-make-point 157 86) nil nil nil nil 1))) (when (fboundp (quote set-active)) (set-active box nil)) box) (let ((box (om-load-boxcall (quote genfun) "NTH-RANDOM 3" (quote nth-random) (quote ((om-load-inputfun (quote input-funbox) "a list" "LIST" nil))) (om-make-point 273 141) nil nil nil nil 1))) (when (fboundp (quote set-active)) (set-active box nil)) box))) (quote ((3 0 1 0 nil 0) (4 0 3 0 nil 0) (0 0 3 1 nil 0) (2 0 4 0 nil 0))) 6.16 nil "" (om-make-point 200 200) (om-make-point 500 400)) (quote ((om-load-inputfun (quote input-funbox) "" "input" nil) (om-load-inputfun (quote input-funbox) "" "input 2" nil))) (om-make-point 336 539/3) nil (list (list 40 40 60 60 30 60 40 60 60 60 30 40 30 30 60 40 40 40 30 60 40 60 30 40 30)) nil "Dinamicas"))) (when (fboundp (quote set-active)) (set-active box nil)) box) (let ((box (om-load-boxcall (quote abstraction) "Oitavas" (om-load-patch-abs1 "Oitavas" (quote ((let ((box (om-load-boxin "input" 0 (om-make-point 301 83) "" nil nil nil))) (when (fboundp (quote set-active)) (set-active box nil)) box) (let ((box (om-load-boxout "output" 0 (om-make-point 50 197) (quote ((om-load-inputfun (quote input-funbox) "" "out" nil))) nil nil))) (when (fboundp (quote set-active)) (set-active box nil)) box) (let ((box (om-load-boxcall (quote bastype) "aux 5" (quote t) (quote nil) (om-make-point 211 50) (om-make-point 26 28) 2 "2" nil))) (when (fboundp (quote set-active)) (set-active box nil)) box) (let ((box (om-load-boxcall (quote genfun) "OM-RANDOM" (quote om-random) (quote ((om-load-inputfun (quote input-funbox) "min" "LOW" 0) (om-load-inputfun (quote input-funbox) "max" "HIGH" 1))) (om-make-point 171 80) nil nil nil nil 1))) (when (fboundp (quote set-active)) (set-active box nil)) box) (let ((box (om-load-boxcall (quote bastype) "aux 4" (quote t) (quote nil) (om-make-point 180 50) (om-make-point 26 28) 1 "1" nil))) (when (fboundp (quote set-active)) (set-active box nil)) box) (let ((box (om-load-boxcall (quote genfun) "OM*" (quote om*) (quote ((om-load-inputfun (quote input-funbox) "number or list" "ARG1" 0) (om-load-inputfun (quote input-funbox) "number or list" "ARG2" 0))) (om-make-point 202 253) (om-make-point 64 35) nil nil nil 1))) (when (fboundp (quote set-active)) (set-active box nil)) box) (let ((box (om-load-boxcall (quote bastype) "aux 7" (quote t) (quote nil) (om-make-point 174 209) (om-make-point 44 28) 1200 "1200" nil))) (when (fboundp (quote set-active)) (set-active box nil)) box) (let ((box (om-load-boxcall (quote genfun) "REPEAT-N 3" (quote repeat-n) (quote ((om-load-inputfun (quote input-funbox) "something" "SELF" nil) (om-load-inputfun (quote input-funbox) "times" "N" 0))) (om-make-point 242 173) nil nil nil nil 1))) (when (fboundp (quote set-active)) (set-active box nil)) box))) (quote ((5 0 1 0 nil 0) (4 0 3 0 nil 0) (2 0 3 1 nil 0) (6 0 5 0 nil 0) (7 0 5 1 nil 0) (3 0 7 0 nil 0) (0 0 7 1 nil 0))) 6.16 nil "" (om-make-point 200 200) (om-make-point 500 340)) (quote ((om-load-inputfun (quote input-funbox) "" "input" nil))) (om-make-point 1984/7 1259/7) nil (list (list 2400 1200 2400 1200 1200 2400 2400 2400 1200 1200 2400 2400 1200 1200 2400 1200 1200 2400 1200 2400 1200 2400 1200 1200 2400)) nil "Oitavas"))) (when (fboundp (quote set-active)) (set-active box nil)) box) (let ((box (om-load-boxcall (quote abstraction) "Notas" (om-load-patch-abs1 "Notas" (quote ((let ((box (om-load-boxin "input 2" 1 (om-make-point 238 141) "" nil nil nil))) (when (fboundp (quote set-active)) (set-active box nil)) box) (let ((box (om-load-boxout "output" 0 (om-make-point 130 351) (quote ((om-load-inputfun (quote input-funbox) "" "out" nil))) nil nil))) (when (fboundp (quote set-active)) (set-active box nil)) box) (let ((box (om-load-boxin "input" 0 (om-make-point 50 50) "" nil nil nil))) (when (fboundp (quote set-active)) (set-active box nil)) box) (let ((box (om-load-boxcall (quote genfun) "NTH-RANDOM 2" (quote nth-random) (quote ((om-load-inputfun (quote input-funbox) "a list" "LIST" nil))) (om-make-point 94 126) nil nil nil nil 1))) (when (fboundp (quote set-active)) (set-active box nil)) box) (let ((box (om-load-boxcall (quote genfun) "REPEAT-N 2" (quote repeat-n) (quote ((om-load-inputfun (quote input-funbox) "something" "SELF" nil) (om-load-inputfun (quote input-funbox) "times" "N" 0))) (om-make-point 134 194) nil nil nil nil 1))) (when (fboundp (quote set-active)) (set-active box nil)) box) (let ((box (om-load-boxcall (quote genfun) "OM-" (quote om-) (quote ((om-load-inputfun (quote input-funbox) "number or list" "ARG1" 0) (om-load-inputfun (quote input-funbox) "number or list" "ARG2" 0))) (om-make-point 201 107) nil nil nil nil 1))) (when (fboundp (quote set-active)) (set-active box nil)) box) (let ((box (om-load-boxcall (quote bastype) "aux 10" (quote t) (quote nil) (om-make-point 233 86) (om-make-point 44 28) 1200 "1200" nil))) (when (fboundp (quote set-active)) (set-active box nil)) box))) (quote ((4 0 1 0 nil 0) (5 0 3 0 nil 0) (3 0 4 0 nil 0) (0 0 4 1 nil 0) (2 0 5 0 nil 0) (6 0 5 1 nil 0))) 6.16 nil "" (om-make-point 200 200) (om-make-point 500 400)) (quote ((om-load-inputfun (quote input-funbox) "" "input" nil) (om-load-inputfun (quote input-funbox) "" "input 2" nil))) (om-make-point 797/5 1037/5) nil (list (list 5156 5156 5156 5156 5156 5156 5156 6644 5156 6644 5156 5156 5156 5156 5156 6644 5156 5156 5156 6644 5156 5156 5156 5156 6644)) nil "Notas"))) (when (fboundp (quote set-active)) (set-active box nil)) box))) (quote ((6 0 1 0 nil 0) (9 0 5 0 nil 0) (8 0 5 1 nil 0) (5 0 6 1 nil 0) (7 0 6 4 nil 0) (0 0 6 6 nil 0) (2 0 7 0 nil 0) (4 0 7 1 nil 0) (4 0 8 0 nil 0) (3 0 9 0 nil 0) (4 0 9 1 nil 0))) 6.16 nil "" (om-make-point 200 200) (om-make-point 484 459)) (quote ((om-load-inputfun (quote input-funbox) "" "input" nil) (om-load-inputfun (quote input-funbox) "" "input 2" nil) (om-load-inputfun (quote input-funbox) "" "input 3" nil))) (om-make-point 54874/175 114022/525) nil (list (let ((newobj (when (find-class (quote chord-seq) nil) (make-instance (quote chord-seq) :lmidic (quote ((7450) (6700) (7450) (6700) (8650) (7308) (8806) (7450) (6700) (7606) (7606) (7606) (8650) (7308) (6700) (8508) (8806) (8806) (8508) (8508) (8650) (6700) (6700) (7606) (8806))) :lonset (quote (0 1000 2000 3000 4000 5000 6000 7000 8000 9000 10000 11000 12000 13000 14000 15000 16000 17000 18000 19000 20000 21000 22000 23000 24000 25000)) :ldur (quote ((1000) (1000) (1000) (1000) (1000) (1000) (1000) (1000) (1000) (1000) (1000) (1000) (1000) (1000) (1000) (1000) (1000) (1000) (1000) (1000) (1000) (1000) (1000) (1000) (1000))) :lvel (quote ((30) (30) (30) (40) (60) (40) (30) (60) (40) (60) (60) (30) (30) (40) (30) (60) (30) (30) (30) (30) (60) (60) (30) (60) (60))) :loffset (quote ((0) (0) (0) (0) (0) (0) (0) (0) (0) (0) (0) (0) (0) (0) (0) (0) (0) (0) (0) (0) (0) (0) (0) (0) (0))) :lchan (quote ((9) (9) (9) (9) (9) (9) (9) (9) (9) (9) (9) (9) (9) (9) (9) (9) (9) (9) (9) (9) (9) (9) (9) (9) (9))) :legato 0)))) (load-port-info newobj (quote ((0) (0) (0) (0) (0) (0) (0) (0) (0) (0) (0) (0) (0) (0) (0) (0) (0) (0) (0) (0) (0) (0) (0) (0) (0)))) (init-mus-color newobj (quote nil)) (set-extra-pairs newobj (quote nil)) (set-patch-pairs newobj (quote nil)) (set-name newobj nil) (set-tonalite newobj nil) newobj)) nil nil))) (when (fboundp (quote set-active)) (set-active box nil)) box) (let ((box (om-load-boxcall (quote abstraction) "makegroups" (om-load-patch-abs1 "makegroups" (quote ((let ((box (om-load-boxcall (quote bastype) "aux 9" (quote t) (quote nil) (om-make-point 721 261) (om-make-point 26 28) 1 "1" nil))) (when (fboundp (quote set-active)) (set-active box nil)) box) (let ((box (om-load-boxcall (quote genfun) "APPROX-M" (quote approx-m) (quote ((om-load-inputfun (quote input-funbox) "pitch list (midicents)" "SELF" 6000) (om-load-inputfun (quote input-funbox) "tone division" "APPROX" 2))) (om-make-point 687 291) nil nil nil nil 1))) (when (fboundp (quote set-active)) (set-active box nil)) box) (let ((box (om-load-boxcall (quote bastype) "aux 8" (quote t) (quote nil) (om-make-point 388 157) (om-make-point 26 28) 3 "3" nil))) (when (fboundp (quote set-active)) (set-active box nil)) box) (let ((box (om-load-boxcall (quote bastype) "aux 2" (quote t) (quote nil) (om-make-point 305 32) (om-make-point 26 28) 4 "4" nil))) (when (fboundp (quote set-active)) (set-active box nil)) box) (let ((box (om-load-boxcall (quote genfun) "REPEAT-N 2" (quote repeat-n) (quote ((om-load-inputfun (quote input-funbox) "something" "SELF" nil) (om-load-inputfun (quote input-funbox) "times" "N" 0))) (om-make-point 358 187) nil nil nil nil 1))) (when (fboundp (quote set-active)) (set-active box nil)) box) (let ((box (om-load-boxcall (quote genfun) "OM-RANDOM 2" (quote om-random) (quote ((om-load-inputfun (quote input-funbox) "min" "LOW" 0) (om-load-inputfun (quote input-funbox) "max" "HIGH" 1))) (om-make-point 265 62) nil nil nil nil 1))) (when (fboundp (quote set-active)) (set-active box nil)) box) (let ((box (om-load-boxcall (quote bastype) "aux 7" (quote t) (quote nil) (om-make-point 590 235) (om-make-point 32 28) 20 "20" nil))) (when (fboundp (quote set-active)) (set-active box nil)) box) (let ((box (om-load-boxcall (quote genfun) "REPEAT-N" (quote repeat-n) (quote ((om-load-inputfun (quote input-funbox) "something" "SELF" nil) (om-load-inputfun (quote input-funbox) "times" "N" 0))) (om-make-point 560 265) nil nil nil nil 1))) (when (fboundp (quote set-active)) (set-active box nil)) box) (let ((box (om-load-boxcall (quote bastype) "aux 6" (quote t) (quote nil) (om-make-point 671 150) (om-make-point 44 28) 6600 "6600" nil))) (when (fboundp (quote set-active)) (set-active box nil)) box) (let ((box (om-load-boxcall (quote bastype) "aux 5" (quote t) (quote nil) (om-make-point 607 146) (om-make-point 44 28) 6000 "6000" nil))) (when (fboundp (quote set-active)) (set-active box nil)) box) (let ((box (om-load-boxcall (quote genfun) "OM-RANDOM" (quote om-random) (quote ((om-load-inputfun (quote input-funbox) "min" "LOW" 0) (om-load-inputfun (quote input-funbox) "max" "HIGH" 1))) (om-make-point 631 180) nil nil nil nil 1))) (when (fboundp (quote set-active)) (set-active box nil)) box) (let ((box (om-load-boxcall (quote bastype) "aux 4" (quote t) (quote nil) (om-make-point 495 354) (om-make-point 32 28) 80 "80" nil))) (when (fboundp (quote set-active)) (set-active box nil)) box) (let ((box (om-load-editor-box1 "VOICE" (quote voice) (quote ((om-load-inputfun (quote input-funbox) "object" "self" nil) (om-load-inputfun (quote input-funbox) "a list representing a rhythm tree" "tree" (list (quote ?) (list (list (list 4 4) (list 1 1 1 1))))) (om-load-inputfun (quote input-funbox) "a chord object, a list of chords, a list of midics, a list of lists of midics..." "chords" (list (let ((thechord (make-instance (quote chord) :lmidic (quote (6000)) :ldur (quote (1000)) :lvel (quote (100)) :loffset (quote (0)) :lchan (quote (1))))) (load-port-info thechord (quote (0))) (init-mus-color thechord (quote nil)) (set-extra-pairs thechord (quote nil)) (set-tonalite thechord nil) thechord))) (om-load-inputfun (quote input-funbox) "frequency of the quarter-note (default 60/mn)" "tempo" 60) (om-load-inputfun (quote input-funbox) "overlapping percentage between every successive chords, calculated from the second chord's duration" "legato" 100) (om-load-inputfun (quote input-funbox) "sub lists (one sub list per chord) indicating notes to be tied to notes of the same value, in a next chord" "ties" nil))) (om-make-point 58 423) (om-make-point 725 189) (let ((newobj (when (find-class (quote voice) nil) (make-instance (quote voice) :tree (quote (1 (((4 4) ((1 (1 -1 1 1 1 -1)) (1 (-6 1 1 1)) (1 (-6 1 1 1)) -1))))) :chords (load-obj-list-from-save (quote ((let ((thechord (make-instance (quote chord) :lmidic (quote (6200)) :ldur (quote (125)) :lvel (quote (80)) :loffset (quote (0)) :lchan (quote (1))))) (load-port-info thechord (quote (nil))) (init-mus-color thechord (quote nil)) (set-extra-pairs thechord (quote nil)) (set-tonalite thechord nil) thechord) (let ((thechord (make-instance (quote chord) :lmidic (quote (6400)) :ldur (quote (125)) :lvel (quote (80)) :loffset (quote (0)) :lchan (quote (1))))) (load-port-info thechord (quote (nil))) (init-mus-color thechord (quote nil)) (set-extra-pairs thechord (quote nil)) (set-tonalite thechord nil) thechord) (let ((thechord (make-instance (quote chord) :lmidic (quote (6600)) :ldur (quote (125)) :lvel (quote (80)) :loffset (quote (0)) :lchan (quote (1))))) (load-port-info thechord (quote (nil))) (init-mus-color thechord (quote nil)) (set-extra-pairs thechord (quote nil)) (set-tonalite thechord nil) thechord) (let ((thechord (make-instance (quote chord) :lmidic (quote (6200)) :ldur (quote (125)) :lvel (quote (80)) :loffset (quote (0)) :lchan (quote (1))))) (load-port-info thechord (quote (nil))) (init-mus-color thechord (quote nil)) (set-extra-pairs thechord (quote nil)) (set-tonalite thechord nil) thechord) (let ((thechord (make-instance (quote chord) :lmidic (quote (6400)) :ldur (quote (83)) :lvel (quote (80)) :loffset (quote (0)) :lchan (quote (1))))) (load-port-info thechord (quote (nil))) (init-mus-color thechord (quote nil)) (set-extra-pairs thechord (quote nil)) (set-tonalite thechord nil) thechord) (let ((thechord (make-instance (quote chord) :lmidic (quote (6200)) :ldur (quote (83)) :lvel (quote (80)) :loffset (quote (0)) :lchan (quote (1))))) (load-port-info thechord (quote (nil))) (init-mus-color thechord (quote nil)) (set-extra-pairs thechord (quote nil)) (set-tonalite thechord nil) thechord) (let ((thechord (make-instance (quote chord) :lmidic (quote (6000)) :ldur (quote (83)) :lvel (quote (80)) :loffset (quote (0)) :lchan (quote (1))))) (load-port-info thechord (quote (nil))) (init-mus-color thechord (quote nil)) (set-extra-pairs thechord (quote nil)) (set-tonalite thechord nil) thechord) (let ((thechord (make-instance (quote chord) :lmidic (quote (6600)) :ldur (quote (83)) :lvel (quote (80)) :loffset (quote (0)) :lchan (quote (1))))) (load-port-info thechord (quote (nil))) (init-mus-color thechord (quote nil)) (set-extra-pairs thechord (quote nil)) (set-tonalite thechord nil) thechord) (let ((thechord (make-instance (quote chord) :lmidic (quote (6200)) :ldur (quote (83)) :lvel (quote (80)) :loffset (quote (0)) :lchan (quote (1))))) (load-port-info thechord (quote (nil))) (init-mus-color thechord (quote nil)) (set-extra-pairs thechord (quote nil)) (set-tonalite thechord nil) thechord) (let ((thechord (make-instance (quote chord) :lmidic (quote (6400)) :ldur (quote (83)) :lvel (quote (80)) :loffset (quote (0)) :lchan (quote (1))))) (load-port-info thechord (quote (nil))) (init-mus-color thechord (quote nil)) (set-extra-pairs thechord (quote nil)) (set-tonalite thechord nil) thechord)))) :tempo (quote ((1/4 80) nil)) :legato 100 :ties (quote (nil nil nil nil nil nil nil nil nil nil)))))) (load-port-info newobj (quote nil)) (init-mus-color newobj (quote nil)) (set-extra-pairs newobj (quote nil)) (set-patch-pairs newobj (quote nil)) (set-name newobj nil) (set-tonalite newobj nil) newobj) nil nil (pairlis (quote (approx fontsize staff cmnpref deltapict outport inport player zoom notechancolor? grillestep mode winsize winpos score-mode obj-mode cursor-mode show-stems scale)) (list 2 24 (quote g) (let ((newobj (make-instance (quote edition-values)))) (setf (paper-size newobj) (om-make-point 600 800)) (setf (top-margin newobj) 2) (setf (left-margin newobj) 1) (setf (right-margin newobj) 1) (setf (bottom-margin newobj) 1) (setf (orientation newobj) nil) (setf (scale newobj) nil) (setf (system-space newobj) (quote (1))) (setf (system-color newobj) (quote nil)) (setf (line-space newobj) 1) (setf (title newobj) nil) (setf (show-title? newobj) nil) (setf (show-page? newobj) nil) (setf (sheet-id newobj) nil) (setf (page-mode newobj) nil) newobj) (om-make-point 0 0) nil nil (quote :osc-scoreplayer) 1 nil 1000 0 (om-make-point 370 280) (om-make-point 400 20) 0 1 (quote :normal) (quote t) nil)) t nil nil nil))) (when (fboundp (quote set-active)) (set-active box nil)) box) (let ((box (om-load-boxcall (quote bastype) "aux 3" (quote t) (quote nil) (om-make-point 288 284) (om-make-point 54 28) (list (list 4 4)) "((4 4))" nil))) (when (fboundp (quote set-active)) (set-active box nil)) box) (let ((box (om-load-boxcall (quote bastype) "aux" (quote t) (quote nil) (om-make-point 84 186) (om-make-point 258 28) (list (list 1 -1 1 1 1 -1) (list 1 1 1 -2 1) (list 1 1 1) (list -6 1 1 1)) "((1 -1 1 1 1 -1) (1 1 1 -2 1) (1 1 1) (-6 1 1 1))" nil))) (when (fboundp (quote set-active)) (set-active box nil)) box) (let ((box (om-load-boxcall (quote genfun) "MAKETREEGROUPS" (quote maketreegroups) (quote ((om-load-inputfun (quote input-funbox) "rhythm figures" "FIGURES" (list (list 1 1 1) (list 1 2 1) (list 3 4) (list 1 1 1 1))) (om-load-inputfun (quote input-funbox) "control sequence" "SEQUENCE" (list 0 3 0 2 0 1 0 0 3)) (om-load-inputfun (quote input-funbox) "list of time signatures" "MEASURES" (list (list 4 4))))) (om-make-point 177 294) nil nil nil nil 1))) (when (fboundp (quote set-active)) (set-active box nil)) box))) (quote ((7 0 1 0 nil 0) (0 0 1 1 nil 0) (5 0 4 0 nil 0) (2 0 4 1 nil 0) (3 0 5 1 nil 0) (10 0 7 0 nil 0) (6 0 7 1 nil 0) (9 0 10 0 nil 0) (8 0 10 1 nil 0) (15 0 12 1 nil 0) (1 0 12 2 nil 0) (11 0 12 3 nil 0) (14 0 15 0 nil 0) (4 0 15 1 nil 0) (13 0 15 2 nil 0))) 6.16 nil "" (om-make-point -8 -8) (om-make-point 1366 705)) (quote nil) (om-make-point 527 29) nil nil nil "makegroups"))) (when (fboundp (quote set-active)) (set-active box nil)) box) (let ((box (om-load-boxcall (quote genfun) "REMOVE-DUP" (quote remove-dup) (quote ((om-load-inputfun (quote input-funbox) "list" "LIST" (list 1 2 3 4)) (om-load-inputfun (quote input-funbox) "equality test (function or function name)" "TEST" (quote eq)) (om-load-inputfun (quote input-funbox) "an integer" "DEPTH" 1))) (om-make-point 97 601) nil nil nil nil 1))) (when (fboundp (quote set-active)) (set-active box nil)) box) (let ((box (om-load-boxcall (quote genfun) "TRUE-DURATIONS" (quote true-durations) (quote ((om-load-inputfun (quote input-funbox) "a score object" "SELF" nil))) (om-make-point 64 522) nil nil nil nil 1))) (when (fboundp (quote set-active)) (set-active box nil)) box) (let ((box (om-load-boxcall (quote bastype) "aux 12" (quote t) (quote nil) (om-make-point 395 162) (om-make-point 74 28) (list 60 40 30) "(60 40 30)" nil))) (when (fboundp (quote set-active)) (set-active box nil)) box) (let ((box (om-load-boxcall (quote bastype) "aux 3" (quote t) (quote nil) (om-make-point 243 173) (om-make-point 32 28) 25 "25" nil))) (when (fboundp (quote set-active)) (set-active box nil)) box) (let ((box (om-load-editor-box1 "VOICE" (quote voice) (quote ((om-load-inputfun (quote input-funbox) "object" "self" nil) (om-load-inputfun (quote input-funbox) "a list representing a rhythm tree" "tree" (list (quote ?) (list (list (list 4 4) (list 1 1 1 1))))) (om-load-inputfun (quote input-funbox) "a chord object, a list of chords, a list of midics, a list of lists of midics..." "chords" (list (let ((thechord (make-instance (quote chord) :lmidic (quote (6000)) :ldur (quote (1000)) :lvel (quote (100)) :loffset (quote (0)) :lchan (quote (1))))) (load-port-info thechord (quote (0))) (init-mus-color thechord (quote nil)) (set-extra-pairs thechord (quote nil)) (set-tonalite thechord nil) thechord))) (om-load-inputfun (quote input-funbox) "frequency of the quarter-note (default 60/mn)" "tempo" 80) (om-load-inputfun (quote input-funbox) "overlapping percentage between every successive chords, calculated from the second chord's duration" "legato" 100) (om-load-inputfun (quote input-funbox) "sub lists (one sub list per chord) indicating notes to be tied to notes of the same value, in a next chord" "ties" nil))) (om-make-point 23 400) (om-make-point 582 113) (let ((newobj (when (find-class (quote voice) nil) (make-instance (quote voice) :tree (quote (6 (((4 4) (1 (1 (1.0 3)) (1 (1.0 1)) (1 (3.0 1)))) ((4 4) ((1 (1.0 3)) (1 (1 1)) 1 (1 (1.0 3)))) ((4 4) ((1 (1.0 1)) (1 (1.0 2 1)) (1 (1.0 3)) (1 (1.0 1)))) ((4 4) ((1 (3.0 1)) 1.0 (1 (1 1)) (1 (1 1)))) ((4 4) ((1 (1.0 2 1)) 1.0 (1 (3 1)) 1.0)) ((4 4) (1 (1 (1.0 3)) (1 (1.0 -1)) -1))))) :chords (load-obj-list-from-save (quote ((let ((thechord (make-instance (quote chord) :lmidic (quote (7450)) :ldur (quote (750)) :lvel (quote (30)) :loffset (quote (0)) :lchan (quote (9))))) (load-port-info thechord (quote (0))) (init-mus-color thechord (quote nil)) (set-extra-pairs thechord (quote nil)) (set-tonalite thechord nil) thechord) (let ((thechord (make-instance (quote chord) :lmidic (quote (6700)) :ldur (quote (562)) :lvel (quote (30)) :loffset (quote (0)) :lchan (quote (9))))) (load-port-info thechord (quote (0))) (init-mus-color thechord (quote nil)) (set-extra-pairs thechord (quote nil)) (set-tonalite thechord nil) thechord) (let ((thechord (make-instance (quote chord) :lmidic (quote (7450)) :ldur (quote (375)) :lvel (quote (30)) :loffset (quote (0)) :lchan (quote (9))))) (load-port-info thechord (quote (0))) (init-mus-color thechord (quote nil)) (set-extra-pairs thechord (quote nil)) (set-tonalite thechord nil) thechord) (let ((thechord (make-instance (quote chord) :lmidic (quote (6700)) :ldur (quote (188)) :lvel (quote (40)) :loffset (quote (0)) :lchan (quote (9))))) (load-port-info thechord (quote (0))) (init-mus-color thechord (quote nil)) (set-extra-pairs thechord (quote nil)) (set-tonalite thechord nil) thechord) (let ((thechord (make-instance (quote chord) :lmidic (quote (8650)) :ldur (quote (562)) :lvel (quote (60)) :loffset (quote (0)) :lchan (quote (9))))) (load-port-info thechord (quote (0))) (init-mus-color thechord (quote nil)) (set-extra-pairs thechord (quote nil)) (set-tonalite thechord nil) thechord) (let ((thechord (make-instance (quote chord) :lmidic (quote (7308)) :ldur (quote (375)) :lvel (quote (40)) :loffset (quote (0)) :lchan (quote (9))))) (load-port-info thechord (quote (0))) (init-mus-color thechord (quote nil)) (set-extra-pairs thechord (quote nil)) (set-tonalite thechord nil) thechord) (let ((thechord (make-instance (quote chord) :lmidic (quote (8806)) :ldur (quote (375)) :lvel (quote (30)) :loffset (quote (0)) :lchan (quote (9))))) (load-port-info thechord (quote (0))) (init-mus-color thechord (quote nil)) (set-extra-pairs thechord (quote nil)) (set-tonalite thechord nil) thechord) (let ((thechord (make-instance (quote chord) :lmidic (quote (7450)) :ldur (quote (750)) :lvel (quote (60)) :loffset (quote (0)) :lchan (quote (9))))) (load-port-info thechord (quote (0))) (init-mus-color thechord (quote nil)) (set-extra-pairs thechord (quote nil)) (set-tonalite thechord nil) thechord) (let ((thechord (make-instance (quote chord) :lmidic (quote (6700)) :ldur (quote (562)) :lvel (quote (40)) :loffset (quote (0)) :lchan (quote (9))))) (load-port-info thechord (quote (0))) (init-mus-color thechord (quote nil)) (set-extra-pairs thechord (quote nil)) (set-tonalite thechord nil) thechord) (let ((thechord (make-instance (quote chord) :lmidic (quote (7606)) :ldur (quote (375)) :lvel (quote (60)) :loffset (quote (0)) :lchan (quote (9))))) (load-port-info thechord (quote (0))) (init-mus-color thechord (quote nil)) (set-extra-pairs thechord (quote nil)) (set-tonalite thechord nil) thechord) (let ((thechord (make-instance (quote chord) :lmidic (quote (7606)) :ldur (quote (375)) :lvel (quote (60)) :loffset (quote (0)) :lchan (quote (9))))) (load-port-info thechord (quote (0))) (init-mus-color thechord (quote nil)) (set-extra-pairs thechord (quote nil)) (set-tonalite thechord nil) thechord) (let ((thechord (make-instance (quote chord) :lmidic (quote (7606)) :ldur (quote (188)) :lvel (quote (30)) :loffset (quote (0)) :lchan (quote (9))))) (load-port-info thechord (quote (0))) (init-mus-color thechord (quote nil)) (set-extra-pairs thechord (quote nil)) (set-tonalite thechord nil) thechord) (let ((thechord (make-instance (quote chord) :lmidic (quote (8650)) :ldur (quote (562)) :lvel (quote (30)) :loffset (quote (0)) :lchan (quote (9))))) (load-port-info thechord (quote (0))) (init-mus-color thechord (quote nil)) (set-extra-pairs thechord (quote nil)) (set-tonalite thechord nil) thechord) (let ((thechord (make-instance (quote chord) :lmidic (quote (7308)) :ldur (quote (375)) :lvel (quote (40)) :loffset (quote (0)) :lchan (quote (9))))) (load-port-info thechord (quote (0))) (init-mus-color thechord (quote nil)) (set-extra-pairs thechord (quote nil)) (set-tonalite thechord nil) thechord) (let ((thechord (make-instance (quote chord) :lmidic (quote (6700)) :ldur (quote (188)) :lvel (quote (30)) :loffset (quote (0)) :lchan (quote (9))))) (load-port-info thechord (quote (0))) (init-mus-color thechord (quote nil)) (set-extra-pairs thechord (quote nil)) (set-tonalite thechord nil) thechord) (let ((thechord (make-instance (quote chord) :lmidic (quote (8508)) :ldur (quote (375)) :lvel (quote (60)) :loffset (quote (0)) :lchan (quote (9))))) (load-port-info thechord (quote (0))) (init-mus-color thechord (quote nil)) (set-extra-pairs thechord (quote nil)) (set-tonalite thechord nil) thechord) (let ((thechord (make-instance (quote chord) :lmidic (quote (8806)) :ldur (quote (375)) :lvel (quote (30)) :loffset (quote (0)) :lchan (quote (9))))) (load-port-info thechord (quote (0))) (init-mus-color thechord (quote nil)) (set-extra-pairs thechord (quote nil)) (set-tonalite thechord nil) thechord) (let ((thechord (make-instance (quote chord) :lmidic (quote (8806)) :ldur (quote (375)) :lvel (quote (30)) :loffset (quote (0)) :lchan (quote (9))))) (load-port-info thechord (quote (0))) (init-mus-color thechord (quote nil)) (set-extra-pairs thechord (quote nil)) (set-tonalite thechord nil) thechord) (let ((thechord (make-instance (quote chord) :lmidic (quote (8508)) :ldur (quote (375)) :lvel (quote (30)) :loffset (quote (0)) :lchan (quote (9))))) (load-port-info thechord (quote (0))) (init-mus-color thechord (quote nil)) (set-extra-pairs thechord (quote nil)) (set-tonalite thechord nil) thechord) (let ((thechord (make-instance (quote chord) :lmidic (quote (8508)) :ldur (quote (375)) :lvel (quote (30)) :loffset (quote (0)) :lchan (quote (9))))) (load-port-info thechord (quote (0))) (init-mus-color thechord (quote nil)) (set-extra-pairs thechord (quote nil)) (set-tonalite thechord nil) thechord) (let ((thechord (make-instance (quote chord) :lmidic (quote (8650)) :ldur (quote (188)) :lvel (quote (60)) :loffset (quote (0)) :lchan (quote (9))))) (load-port-info thechord (quote (0))) (init-mus-color thechord (quote nil)) (set-extra-pairs thechord (quote nil)) (set-tonalite thechord nil) thechord) (let ((thechord (make-instance (quote chord) :lmidic (quote (6700)) :ldur (quote (562)) :lvel (quote (60)) :loffset (quote (0)) :lchan (quote (9))))) (load-port-info thechord (quote (0))) (init-mus-color thechord (quote nil)) (set-extra-pairs thechord (quote nil)) (set-tonalite thechord nil) thechord) (let ((thechord (make-instance (quote chord) :lmidic (quote (6700)) :ldur (quote (188)) :lvel (quote (30)) :loffset (quote (0)) :lchan (quote (9))))) (load-port-info thechord (quote (0))) (init-mus-color thechord (quote nil)) (set-extra-pairs thechord (quote nil)) (set-tonalite thechord nil) thechord) (let ((thechord (make-instance (quote chord) :lmidic (quote (7606)) :ldur (quote (750)) :lvel (quote (60)) :loffset (quote (0)) :lchan (quote (9))))) (load-port-info thechord (quote (0))) (init-mus-color thechord (quote nil)) (set-extra-pairs thechord (quote nil)) (set-tonalite thechord nil) thechord) (let ((thechord (make-instance (quote chord) :lmidic (quote (8806)) :ldur (quote (562)) :lvel (quote (60)) :loffset (quote (0)) :lchan (quote (9))))) (load-port-info thechord (quote (0))) (init-mus-color thechord (quote nil)) (set-extra-pairs thechord (quote nil)) (set-tonalite thechord nil) thechord)))) :tempo (quote ((1/4 80) nil)) :legato 100 :ties (quote (nil nil nil nil nil nil nil nil nil nil nil nil nil nil nil nil nil nil nil nil nil nil nil nil nil)))))) (load-port-info newobj (quote nil)) (init-mus-color newobj (quote nil)) (set-extra-pairs newobj (quote nil)) (set-patch-pairs newobj (quote ((nil (om-load-patch-abs1 "patch" (quote nil) (quote nil) 6.16 nil "" (om-make-point 200 200) (om-make-point 400 500)))))) (set-name newobj nil) (set-tonalite newobj nil) newobj) nil nil (pairlis (quote (approx fontsize staff cmnpref deltapict outport inport player zoom notechancolor? grillestep mode winsize winpos score-mode obj-mode cursor-mode show-stems scale)) (list 4 48 (quote g) (let ((newobj (make-instance (quote edition-values)))) (setf (paper-size newobj) (om-make-point 600 800)) (setf (top-margin newobj) 2) (setf (left-margin newobj) 1) (setf (right-margin newobj) 1) (setf (bottom-margin newobj) 1) (setf (orientation newobj) nil) (setf (scale newobj) nil) (setf (system-space newobj) (quote (1))) (setf (system-color newobj) (quote nil)) (setf (line-space newobj) 1) (setf (title newobj) nil) (setf (show-title? newobj) nil) (setf (show-page? newobj) nil) (setf (sheet-id newobj) nil) (setf (page-mode newobj) nil) newobj) (om-make-point 0 0) nil nil (quote :osc-scoreplayer) 49/50 nil 1000 0 (om-make-point 681 716) (om-make-point -7 0) 0 1 (quote :normal) (quote t) nil)) t nil nil t))) (when (fboundp (quote set-active)) (set-active box nil)) box) (let ((box (om-load-boxcall (quote bastype) "aux" (quote t) (quote nil) (om-make-point 336 364) (om-make-point 32 28) 80 "80" nil))) (when (fboundp (quote set-active)) (set-active box nil)) box))) (quote ((9 0 2 0 nil 0) (1 0 2 1 nil 0) (7 0 3 0 nil 0) (2 0 6 0 nil 0) (6 0 7 0 nil 0) (5 0 7 1 nil 0) (4 0 7 2 nil 0) (11 0 9 0 nil 0) (8 0 9 1 nil 0) (3 0 10 1 nil 0) (13 0 11 0 nil 0) (12 0 13 0 nil 0) (3 0 15 0 nil 0) (14 0 16 0 nil 0) (22 0 16 1 nil 0) (22 0 17 0 nil 0) (15 0 17 1 nil 0) (21 0 17 2 nil 0) (20 0 19 0 nil 0) (23 0 20 0 nil 0) (16 0 23 1 nil 0) (17 0 23 2 nil 0) (24 0 23 3 nil 0))) nil 6.16))
