; OM File Header - Saved 2019/08/31 23:53:55
; (6.15 :patc (om-make-point 334 10) (om-make-point 359 111) (om-make-point 500 360) "" 183 0 "2019/08/28 0:04:47" "2019/08/28 0:06:11")
; End File Header
(in-package :om)(load-lib-for (quote nil))(setf *om-current-persistent* (om-load-patch1 "mc for maxtimbre" (quote ((let ((box (om-load-boxout "output" 0 (om-make-point 131 291) (quote ((om-load-inputfun (quote input-funbox) "" "out" nil))) nil nil))) (when (fboundp (quote set-active)) (set-active box nil)) box) (let ((box (om-load-boxcall (quote bastype) "aux" (quote t) (quote nil) (om-make-point 99 126) (om-make-point 42 28) 0.01 "0.01" nil))) (when (fboundp (quote set-active)) (set-active box nil)) box) (let ((box (om-load-boxcall (quote genfun) "OM*" (quote om*) (quote ((om-load-inputfun (quote input-funbox) "number or list" "ARG1" 0) (om-load-inputfun (quote input-funbox) "number or list" "ARG2" 0))) (om-make-point 63 159) (om-make-point 65 35) nil nil nil 1))) (when (fboundp (quote set-active)) (set-active box nil)) box) (let ((box (om-load-boxcall (quote genfun) "OM-" (quote om-) (quote ((om-load-inputfun (quote input-funbox) "number or list" "ARG1" 0) (om-load-inputfun (quote input-funbox) "number or list" "ARG2" 0))) (om-make-point 173 217) nil nil nil nil 1))) (when (fboundp (quote set-active)) (set-active box nil)) box) (let ((box (om-load-boxin "nota" 1 (om-make-point 216 64) "" "nota" nil nil))) (when (fboundp (quote set-active)) (set-active box nil)) box) (let ((box (om-load-boxin "lista" 0 (om-make-point 5 45) "" "lista" nil nil))) (when (fboundp (quote set-active)) (set-active box nil)) box))) (quote ((3 0 0 0 nil 0) (5 0 2 0 nil 0) (1 0 2 1 nil 0) (2 0 3 0 nil 0) (4 0 3 1 nil 0))) nil 6.15))
