; OM File Header - Saved 2020/11/18 23:49:56
; (6.120003 :patc (om-make-point 10 160) (om-make-point 931 267) (om-make-point 774 763) "" 183 0 nil "2020/11/18 23:49:56")
; End File Header
(in-package :om)(load-lib-for (quote ("OMCollider")))(setf *om-current-persistent* (om-load-patch1 "VOsc" (quote ((let ((box (om-load-boxcall (quote genfun) "SYNTHESIZER 2" (quote omsc::synthesizer) (quote ((om-load-inputfun (quote input-funbox) "" "DATA" nil))) (om-make-point 514 606) nil nil nil nil 1))) (when (fboundp (quote set-active)) (set-active box nil)) box) (let ((box (om-load-boxcall (quote genfun) "SYNTHESIZER" (quote omsc::synthesizer) (quote ((om-load-inputfun (quote input-funbox) "" "DATA" nil))) (om-make-point 143 613) nil nil nil nil 1))) (when (fboundp (quote set-active)) (set-active box nil)) box) (let ((box (om-load-boxcall (quote genfun) "PAN2_AR 2" (quote omsc::pan2_ar) (quote ((om-load-inputfun (quote input-funbox) "" "IN" 0) (om-load-inputfun (quote input-funbox) "" "POS" 0) (om-load-inputfun (quote input-funbox) "" "LEVEL" 1))) (om-make-point 501 298) nil nil nil nil 1))) (when (fboundp (quote set-active)) (set-active box nil)) box) (let ((box (om-load-boxcall (quote genfun) "PAN2_AR" (quote omsc::pan2_ar) (quote ((om-load-inputfun (quote input-funbox) "" "IN" 0) (om-load-inputfun (quote input-funbox) "" "POS" 0) (om-load-inputfun (quote input-funbox) "" "LEVEL" 1))) (om-make-point 124 295) nil nil nil nil 1))) (when (fboundp (quote set-active)) (set-active box nil)) box) (let ((box (om-load-boxcall (quote genfun) "GUI 2" (quote omsc::gui) (quote ((om-load-inputfun (quote input-funbox) "" "IN" nil))) (om-make-point 535 511) nil nil nil nil 1))) (when (fboundp (quote set-active)) (set-active box nil)) box) (let ((box (om-load-boxcall (quote genfun) "FUNCTION-PLAY 2" (quote omsc::function-play) (quote ((om-load-inputfun (quote input-funbox) "" "IN" nil))) (om-make-point 489 413) nil nil nil nil 1))) (when (fboundp (quote set-active)) (set-active box nil)) box) (let ((box (om-load-boxcall (quote abstraction) "VOsc3" (om-load-patch-abs1 "VOsc3" (quote ((let ((box (om-load-boxout "output" 0 (om-make-point 379 403) (quote ((om-load-inputfun (quote input-funbox) "" "out" nil))) nil nil))) (when (fboundp (quote set-active)) (set-active box nil)) box) (let ((box (om-load-boxin "input" 0 (om-make-point 5 45) "" nil nil nil))) (when (fboundp (quote set-active)) (set-active box nil)) box) (let ((box (om-load-boxcall (quote bastype) "list 5" (quote list) (quote nil) (om-make-point 410 83) (om-make-point 34 30) 90 "90" nil))) (when (fboundp (quote set-active)) (set-active box nil)) box) (let ((box (om-load-boxcall (quote genfun) "VOSC3_AR" (quote omsc::vosc3_ar) (quote ((om-load-inputfun (quote input-funbox) "" "BUFPOS" (list 0)) (om-load-inputfun (quote input-funbox) "" "FREQ1" (list 140)) (om-load-inputfun (quote input-funbox) "" "FREQ2" (list 240)) (om-load-inputfun (quote input-funbox) "" "FREQ3" (list 440)) (om-load-inputfun (quote input-funbox) "" "MUL" 0.1) (om-load-inputfun (quote input-funbox) "" "ADD" (list 0)))) (om-make-point 370 284) nil nil nil nil 1))) (when (fboundp (quote set-active)) (set-active box nil)) box) (let ((box (om-load-boxcall (quote genfun) "SOUNDFILE" (quote omsc::soundfile) (quote ((om-load-inputfun (quote input-funbox) "" "FILENAME" nil))) (om-make-point 123 150) nil nil nil nil 1))) (when (fboundp (quote set-active)) (set-active box nil)) box) (let ((box (om-load-boxcall (quote bastype) "list 3" (quote list) (quote nil) (om-make-point 462 190) (om-make-point 31 30) 120 "120" nil))) (when (fboundp (quote set-active)) (set-active box nil)) box) (let ((box (om-load-boxcall (quote genfun) "MOUSE-X" (quote omsc::mouse-x) (quote ((om-load-inputfun (quote input-funbox) "" "MINVAL" 0) (om-load-inputfun (quote input-funbox) "" "MAXVAL" 32) (om-load-inputfun (quote input-funbox) "" "WARP" 0) (om-load-inputfun (quote input-funbox) "" "LAG" 0))) (om-make-point 326 117) nil nil nil nil 1))) (when (fboundp (quote set-active)) (set-active box nil)) box) (let ((box (om-load-boxcall (quote genfun) "A+B" (quote omsc::a+b) (quote ((om-load-inputfun (quote input-funbox) "" "A" nil) (om-load-inputfun (quote input-funbox) "" "B" nil))) (om-make-point 240 203) nil nil nil nil 1))) (when (fboundp (quote set-active)) (set-active box nil)) box) (let ((box (om-load-boxcall (quote bastype) "list 2" (quote list) (quote nil) (om-make-point 512 191) (om-make-point 31 30) 121 "121" nil))) (when (fboundp (quote set-active)) (set-active box nil)) box) (let ((box (om-load-boxcall (quote bastype) "list" (quote list) (quote nil) (om-make-point 561 189) (om-make-point 31 30) 122 "122" nil))) (when (fboundp (quote set-active)) (set-active box nil)) box))) (quote ((3 0 0 0 nil 0) (7 0 3 0 nil 0) (5 0 3 1 nil 0) (8 0 3 2 nil 0) (9 0 3 3 nil 0) (1 0 4 0 nil 0) (2 0 6 1 nil 0) (4 0 7 0 nil 0) (6 0 7 1 nil 0))) 6.120003 nil "" (om-make-point 891 426) (om-make-point 662 559)) (quote ((om-load-inputfun (quote input-funbox) "" "input" nil))) (om-make-point 486 121) nil (list (list "VOsc3.ar(" (list (list "SoundFile.collectIntoBuffers(" "\"/wavetables/*\"" ",s,)") "+" (list "MouseX.kr(" 0 "," 90 "," 0 "," 0 ")")) "," 120 "," 121 "," 122 "," 0.1 "," (list 0) ")")) nil "VOsc3"))) (when (fboundp (quote set-active)) (set-active box nil)) box) (let ((box (om-load-boxcall (quote abstraction) "VOSc" (om-load-patch-abs1 "VOSc" (quote ((let ((box (om-load-boxin "input" 0 (om-make-point 34 45) "" nil nil nil))) (when (fboundp (quote set-active)) (set-active box nil)) box) (let ((box (om-load-boxout "output" 0 (om-make-point 380 342) (quote ((om-load-inputfun (quote input-funbox) "" "out" nil))) nil nil))) (when (fboundp (quote set-active)) (set-active box nil)) box) (let ((box (om-load-boxcall (quote genfun) "A+B" (quote omsc::a+b) (quote ((om-load-inputfun (quote input-funbox) "" "A" nil) (om-load-inputfun (quote input-funbox) "" "B" nil))) (om-make-point 246 159) nil nil nil nil 1))) (when (fboundp (quote set-active)) (set-active box nil)) box) (let ((box (om-load-boxcall (quote genfun) "VOSC_AR" (quote omsc::vosc_ar) (quote ((om-load-inputfun (quote input-funbox) "" "BUFPOS" (list 0)) (om-load-inputfun (quote input-funbox) "" "FREQ" (list 140)) (om-load-inputfun (quote input-funbox) "" "PHASE" (list 0)) (om-load-inputfun (quote input-funbox) "" "MUL" 0.1) (om-load-inputfun (quote input-funbox) "" "ADD" (list 0)))) (om-make-point 386 215) nil nil nil nil 1))) (when (fboundp (quote set-active)) (set-active box nil)) box) (let ((box (om-load-boxcall (quote genfun) "MOUSE-X" (quote omsc::mouse-x) (quote ((om-load-inputfun (quote input-funbox) "" "MINVAL" 0) (om-load-inputfun (quote input-funbox) "" "MAXVAL" 32) (om-load-inputfun (quote input-funbox) "" "WARP" 0) (om-load-inputfun (quote input-funbox) "" "LAG" 0))) (om-make-point 332 73) nil nil nil nil 1))) (when (fboundp (quote set-active)) (set-active box nil)) box) (let ((box (om-load-boxcall (quote bastype) "list 2" (quote list) (quote nil) (om-make-point 468 146) (om-make-point 31 30) 120 "120" nil))) (when (fboundp (quote set-active)) (set-active box nil)) box) (let ((box (om-load-boxcall (quote bastype) "list" (quote list) (quote nil) (om-make-point 416 39) (om-make-point 34 30) 90 "90" nil))) (when (fboundp (quote set-active)) (set-active box nil)) box) (let ((box (om-load-boxcall (quote genfun) "SOUNDFILE" (quote omsc::soundfile) (quote ((om-load-inputfun (quote input-funbox) "" "FILENAME" nil))) (om-make-point 129 106) nil nil nil nil 1))) (when (fboundp (quote set-active)) (set-active box nil)) box))) (quote ((3 0 1 0 nil 0) (7 0 2 0 nil 0) (4 0 2 1 nil 0) (2 0 3 0 nil 0) (5 0 3 1 nil 0) (6 0 4 1 nil 0) (0 0 7 0 nil 0))) 6.120003 nil "" (om-make-point 251 302) (om-make-point 562 460)) (quote ((om-load-inputfun (quote input-funbox) "" "input" nil))) (om-make-point 110 130) nil (list (list "VOsc.ar(" (list (list "SoundFile.collectIntoBuffers(" "\"/wavetables/*\"" ",s,)") "+" (list "MouseX.kr(" 0 "," 90 "," 0 "," 0 ")")) "," 120 "," (list 0) "," 0.1 "," (list 0) ")")) nil "VOSc"))) (when (fboundp (quote set-active)) (set-active box nil)) box) (let ((box (om-load-boxcall (quote bastype) "list" (quote list) (quote nil) (om-make-point 273 70) (om-make-point 109 30) "/wavetables/*" "\"/wavetables/*\"" nil))) (when (fboundp (quote set-active)) (set-active box nil)) box) (let ((box (om-load-boxcall (quote genfun) "FUNCTION-PLAY" (quote omsc::function-play) (quote ((om-load-inputfun (quote input-funbox) "" "IN" nil))) (om-make-point 97 414) nil nil nil nil 1))) (when (fboundp (quote set-active)) (set-active box nil)) box) (let ((box (om-load-boxcall (quote genfun) "GUI" (quote omsc::gui) (quote ((om-load-inputfun (quote input-funbox) "" "IN" nil))) (om-make-point 143 512) nil nil nil nil 1))) (when (fboundp (quote set-active)) (set-active box nil)) box))) (quote ((4 0 0 0 nil 0) (10 0 1 0 nil 0) (6 0 2 0 nil 0) (7 0 3 0 nil 0) (5 0 4 0 nil 0) (2 0 5 0 nil 0) (8 0 6 0 nil 0) (8 0 7 0 nil 0) (3 0 9 0 nil 0) (9 0 10 0 nil 0))) nil 6.120003))
