; OM File Header - Saved 2020/09/23 20:55:26
; (6.13 :patc (om-make-point 280 60) (om-make-point 224 23) (om-make-point 944 661) "" 183 0 nil "2020/09/23 20:55:26")
; End File Header
(in-package :om)(load-lib-for (quote ("OMRuben")))(setf *om-current-persistent* (om-load-patch1 "inverted-spectrum-omruben" (quote ((let ((box (om-load-boxcall (quote bastype) "list 4" (quote list) (quote nil) (om-make-point 195 341) (om-make-point 24 30) 14 "14" nil))) (when (fboundp (quote set-active)) (set-active box nil)) box) (let ((box (om-load-boxcall (quote genfun) "R-APPLY-CHANNEL-MULTISEQ 2" (quote r-apply-channel-multiseq) (quote ((om-load-inputfun (quote input-funbox) "chordseqs-list" "CHORDSEQS-LIST" nil) (om-load-inputfun (quote input-funbox) "channel" "CHANNEL" nil))) (om-make-point 112 382) nil nil nil nil 1))) (when (fboundp (quote set-active)) (set-active box nil)) box) (let ((box (om-load-boxcall (quote bastype) "list 3" (quote list) (quote nil) (om-make-point 680 293) (om-make-point 24 30) 14 "14" nil))) (when (fboundp (quote set-active)) (set-active box nil)) box) (let ((box (om-load-boxcall (quote genfun) "R-APPLY-CHANNEL-MULTISEQ" (quote r-apply-channel-multiseq) (quote ((om-load-inputfun (quote input-funbox) "chordseqs-list" "CHORDSEQS-LIST" nil) (om-load-inputfun (quote input-funbox) "channel" "CHANNEL" nil))) (om-make-point 597 334) nil nil nil nil 1))) (when (fboundp (quote set-active)) (set-active box nil)) box) (let ((box (om-load-boxcomment "comment 2" (om-make-point 169 134) (quote "The same inversions$will work on any material, including$analysed sounds.") "" (om-make-point 735 249) nil (om-make-color 0 0 0) (om-make-font "Verdana" 12 :family "Verdana" :style (quote (:plain)) :mode (quote nil))))) (when (fboundp (quote set-active)) (set-active box nil)) box) (let ((box (om-load-boxcomment "comment" (om-make-point 188 124) (quote "A harmonic spectrum$in inverted to a sub-$spectrum. Such sub-$harmonic spectrums $have been used by Grisey $in Modulations.") "" (om-make-point 242 291) nil (om-make-color 0 0 0) (om-make-font "Verdana" 12 :family "Verdana" :style (quote (:plain)) :mode (quote nil))))) (when (fboundp (quote set-active)) (set-active box nil)) box) (let ((box (om-load-editor-box1 "MULTI-SEQ 3" (quote multi-seq) (quote ((om-load-inputfun (quote input-funbox) "object" "self" nil) (om-load-inputfun (quote input-funbox) "list of CHORD-SEQ objects" "chord-seqs" (list (let ((newobj (when (find-class (quote chord-seq) nil) (make-instance (quote chord-seq) :lmidic (quote ((6000))) :lonset (quote (0 1000)) :ldur (quote ((1000))) :lvel (quote ((100))) :loffset (quote ((0))) :lchan (quote ((1))) :legato 0)))) (load-port-info newobj (quote ((0)))) (init-mus-color newobj (quote nil)) (set-extra-pairs newobj (quote nil)) (set-patch-pairs newobj (quote nil)) (set-name newobj nil) (set-tonalite newobj nil) newobj))))) (om-make-point 62 468) (om-make-point 268 175) (if (find-class (quote multi-seq) nil) (let ((newobj (make-instance (quote multi-seq) :chord-seqs (list (let ((newobj (when (find-class (quote chord-seq) nil) (make-instance (quote chord-seq) :lmidic (quote ((9398 8198 7498 6998 6612 6298 6030 5798 5596 5412 5248 5098 4958 4830 4710 4598 4494 4396 4302 4212 4128 4048 3970 3898 3826 3758 3694 3630 3570 3510 3454 3398 3346 3294 3244 3196 3148 3102 3056 3012 2970 2928 2888 2848 2808 2770 2734 2698 2662 2626))) :lonset (quote (0 1000)) :ldur (quote ((1000 1000 1000 1000 1000 1000 1000 1000 1000 1000 1000 1000 1000 1000 1000 1000 1000 1000 1000 1000 1000 1000 1000 1000 1000 1000 1000 1000 1000 1000 1000 1000 1000 1000 1000 1000 1000 1000 1000 1000 1000 1000 1000 1000 1000 1000 1000 1000 1000 1000))) :lvel (quote ((100 100 100 100 100 100 100 100 100 100 100 100 100 100 100 100 100 100 100 100 100 100 100 100 100 100 100 100 100 100 100 100 100 100 100 100 100 100 100 100 100 100 100 100 100 100 100 100 100 100))) :loffset (quote ((0 0 0 0 0 0 0 0 0 0 0 0 0 0 0 0 0 0 0 0 0 0 0 0 0 0 0 0 0 0 0 0 0 0 0 0 0 0 0 0 0 0 0 0 0 0 0 0 0 0))) :lchan (quote ((14 14 14 14 14 14 14 14 14 14 14 14 14 14 14 14 14 14 14 14 14 14 14 14 14 14 14 14 14 14 14 14 14 14 14 14 14 14 14 14 14 14 14 14 14 14 14 14 14 14))) :legato 0)))) (load-port-info newobj (quote ((0 0 0 0 0 0 0 0 0 0 0 0 0 0 0 0 0 0 0 0 0 0 0 0 0 0 0 0 0 0 0 0 0 0 0 0 0 0 0 0 0 0 0 0 0 0 0 0 0 0)))) (init-mus-color newobj (quote nil)) (set-extra-pairs newobj (quote nil)) (set-patch-pairs newobj (quote nil)) (set-name newobj nil) (set-tonalite newobj nil) newobj)) :from-file t))) (load-port-info newobj (quote (((0 0 0 0 0 0 0 0 0 0 0 0 0 0 0 0 0 0 0 0 0 0 0 0 0 0 0 0 0 0 0 0 0 0 0 0 0 0 0 0 0 0 0 0 0 0 0 0 0 0))))) (init-mus-color newobj (quote nil)) (set-extra-pairs newobj (quote nil)) (set-patch-pairs newobj (quote nil)) (set-name newobj nil) (set-tonalite newobj nil) newobj)) nil nil (pairlis (quote (scale show-stems cursor-mode obj-mode score-mode winpos winsize mode grillestep notechancolor? zoom player inport outport deltapict cmnpref staff fontsize approx)) (list nil (quote t) (quote :normal) 1 0 (om-make-point 400 23) (om-make-point 627 751) 0 1000 nil 1 (quote :osc-scoreplayer) nil nil (om-make-point 0 0) (let ((newobj (make-instance (quote edition-values)))) (setf (paper-size newobj) (om-make-point 600 800)) (setf (top-margin newobj) 2) (setf (left-margin newobj) 1) (setf (right-margin newobj) 1) (setf (bottom-margin newobj) 1) (setf (orientation newobj) nil) (setf (scale newobj) nil) (setf (system-space newobj) (quote (1))) (setf (system-color newobj) (quote nil)) (setf (line-space newobj) 1) (setf (title newobj) nil) (setf (show-title? newobj) nil) (setf (show-page? newobj) nil) (setf (sheet-id newobj) nil) (setf (page-mode newobj) nil) newobj) (list (quote ggff)) 24 8)) t nil nil nil))) (when (fboundp (quote set-active)) (set-active box nil)) box) (let ((box (om-load-boxcall (quote lispfun) "LIST 2" (quote list) (quote ((om-load-inputfun (quote input-funbox) "add-input" "add-input" nil))) (om-make-point 51 294) nil nil nil nil 1))) (when (fboundp (quote set-active)) (set-active box nil)) box) (let ((box (om-load-boxcall (quote lispfun) "LIST" (quote list) (quote ((om-load-inputfun (quote input-funbox) "add-input" "add-input" nil))) (om-make-point 68 38) nil nil nil nil 1))) (when (fboundp (quote set-active)) (set-active box nil)) box) (let ((box (om-load-editor-box1 "CHORD-SEQ" (quote chord-seq) (quote ((om-load-inputfun (quote input-funbox) "object" "self" nil) (om-load-inputfun (quote input-funbox) "pitches (mc): list or list of lists" "lmidic" (list 6000)) (om-load-inputfun (quote input-funbox) "onsets (ms): list" "lonset" (list 0 1000)) (om-load-inputfun (quote input-funbox) "durations (ms): list or list of lists" "ldur" (list 1000)) (om-load-inputfun (quote input-funbox) "velocities (0-127): list or list of lists" "lvel" (list 100)) (om-load-inputfun (quote input-funbox) "offsets (ms): list or list of lists" "loffset" (list 0)) (om-load-inputfun (quote input-funbox) "MIDI channels (1-16): list or list of lists" "lchan" (list 1)) (om-load-inputfun (quote input-funbox) "relative chords duration (0-100)" "legato" 0))) (om-make-point 24 90) (om-make-point 269 179) (let ((newobj (when (find-class (quote chord-seq) nil) (make-instance (quote chord-seq) :lmidic (quote ((2626 3826 4526 5026 5412 5726 5994 6226 6428 6612 6776 6926 7066 7194 7314 7426 7530 7628 7722 7812 7896 7976 8054 8126 8198 8266 8330 8394 8454 8514 8570 8626 8678 8730 8780 8828 8876 8922 8968 9012 9054 9096 9136 9176 9216 9254 9290 9326 9362 9398))) :lonset (quote (0 1000)) :ldur (quote ((1000 1000 1000 1000 1000 1000 1000 1000 1000 1000 1000 1000 1000 1000 1000 1000 1000 1000 1000 1000 1000 1000 1000 1000 1000 1000 1000 1000 1000 1000 1000 1000 1000 1000 1000 1000 1000 1000 1000 1000 1000 1000 1000 1000 1000 1000 1000 1000 1000 1000))) :lvel (quote ((100 100 100 100 100 100 100 100 100 100 100 100 100 100 100 100 100 100 100 100 100 100 100 100 100 100 100 100 100 100 100 100 100 100 100 100 100 100 100 100 100 100 100 100 100 100 100 100 100 100))) :loffset (quote ((0 0 0 0 0 0 0 0 0 0 0 0 0 0 0 0 0 0 0 0 0 0 0 0 0 0 0 0 0 0 0 0 0 0 0 0 0 0 0 0 0 0 0 0 0 0 0 0 0 0))) :lchan (quote ((1 1 1 1 1 1 1 1 1 1 1 1 1 1 1 1 1 1 1 1 1 1 1 1 1 1 1 1 1 1 1 1 1 1 1 1 1 1 1 1 1 1 1 1 1 1 1 1 1 1))) :legato 0)))) (load-port-info newobj (quote ((0 0 0 0 0 0 0 0 0 0 0 0 0 0 0 0 0 0 0 0 0 0 0 0 0 0 0 0 0 0 0 0 0 0 0 0 0 0 0 0 0 0 0 0 0 0 0 0 0 0)))) (init-mus-color newobj (quote nil)) (set-extra-pairs newobj (quote nil)) (set-patch-pairs newobj (quote nil)) (set-name newobj nil) (set-tonalite newobj nil) newobj) nil nil (pairlis (quote (scale show-stems cursor-mode obj-mode score-mode winpos winsize mode grillestep notechancolor? zoom player inport outport deltapict cmnpref staff fontsize approx)) (list nil (quote t) (quote :normal) 1 0 (om-make-point 400 23) (om-make-point 547 437) 0 1000 nil 1 (quote :osc-scoreplayer) nil nil (om-make-point 0 0) (let ((newobj (make-instance (quote edition-values)))) (setf (paper-size newobj) (om-make-point 600 800)) (setf (top-margin newobj) 2) (setf (left-margin newobj) 1) (setf (right-margin newobj) 1) (setf (bottom-margin newobj) 1) (setf (orientation newobj) nil) (setf (scale newobj) nil) (setf (system-space newobj) (quote (1))) (setf (system-color newobj) (quote nil)) (setf (line-space newobj) 1) (setf (title newobj) nil) (setf (show-title? newobj) nil) (setf (show-page? newobj) nil) (setf (sheet-id newobj) nil) (setf (page-mode newobj) nil) newobj) (quote ggff) 24 8)) t nil nil nil))) (when (fboundp (quote set-active)) (set-active box nil)) box) (let ((box (om-load-boxcall (quote genfun) "R-INVERT-SPECTRUM-MULTISEQ 2" (quote r-invert-spectrum-multiseq) (quote ((om-load-inputfun (quote input-funbox) "list-of-chordseqs" "LIST-OF-CHORDSEQS" nil))) (om-make-point 8 332) nil nil nil nil 1))) (when (fboundp (quote set-active)) (set-active box nil)) box) (let ((box (om-load-editor-box1 "MULTI-SEQ 2" (quote multi-seq) (quote ((om-load-inputfun (quote input-funbox) "object" "self" nil) (om-load-inputfun (quote input-funbox) "list of CHORD-SEQ objects" "chord-seqs" (list (let ((newobj (when (find-class (quote chord-seq) nil) (make-instance (quote chord-seq) :lmidic (quote ((6000))) :lonset (quote (0 1000)) :ldur (quote ((1000))) :lvel (quote ((100))) :loffset (quote ((0))) :lchan (quote ((1))) :legato 0)))) (load-port-info newobj (quote ((0)))) (init-mus-color newobj (quote nil)) (set-extra-pairs newobj (quote nil)) (set-patch-pairs newobj (quote nil)) (set-name newobj nil) (set-tonalite newobj nil) newobj))))) (om-make-point 461 420) (om-make-point 394 215) (if (find-class (quote multi-seq) nil) (let ((newobj (make-instance (quote multi-seq) :chord-seqs (list (let ((newobj (when (find-class (quote chord-seq) nil) (make-instance (quote chord-seq) :lmidic (quote ((9296) (8770) (7312) (6820) (6640) (6410) (6012) (5816) (5020) (4626) (4490) (4388) (4164) (5922) (8784) (5828) (5654) (4520) (5022) (5818) (5650) (4742) (5920) (5020) (5820) (5642) (5022) (5660) (8794) (5026) (8052) (5022) (5656) (8050) (5820) (8788) (5654) (8892) (4490) (10942) (5820) (5342) (5022) (5918) (5664) (5022) (5664) (10942) (5816) (10942) (5020) (5822) (10942) (5788) (5646) (5342) (4626) (5664) (5344) (5818) (4626) (5918) (8764) (5022) (5664) (5022) (5662) (5922) (8794) (5020) (5666) (6640) (8758) (5918) (5918) (5920) (6640) (5918) (8784) (5926) (6640) (5918) (8862) (6640) (5916) (8798) (6638) (8776) (6638) (6010) (6010) (8802) (6638) (6010) (6010) (9304) (8786) (9306) (6010) (6636) (8764) (6010) (8784) (6010) (6010) (8818) (7314) (8774) (8746) (8804) (7312) (8760) (7310) (8774) (7310) (7310) (8798) (8756) (7310) (8052) (6820) (6408) (8772) (7310) (8050) (6410) (6408) (6408) (7310) (6408) (7310) (8050) (7310) (8766) (7310) (8050) (7310) (7310) (7310))) :lonset (quote (46 46 46 46 46 46 46 46 46 46 46 64 75 81 93 93 110 128 151 197 232 267 273 290 348 360 406 441 459 493 511 540 621 627 633 650 708 743 766 778 784 795 818 830 882 952 1010 1016 1051 1062 1080 1097 1132 1138 1155 1167 1190 1225 1236 1248 1260 1271 1324 1358 1364 1486 1532 1602 1625 1631 1654 1759 1805 1840 2119 2188 2206 2310 2322 2421 2473 2485 2508 2653 2664 2810 2897 2978 3129 3146 3262 3286 3349 3373 3466 3483 3512 3541 3576 3605 3645 3680 3785 3802 3918 4005 4005 4052 4162 4272 4313 4354 4464 4557 4603 4754 4766 4859 4905 4992 4998 5039 5056 5056 5068 5074 5108 5178 5201 5312 5352 5404 5497 5561 5654 5741 5799 5950 6107 6124)) :ldur (quote ((3419) (12) (3936) (4894) (1683) (4975) (3071) (29) (35) (1045) (691) (23) (29) (163) (342) (29) (81) (17) (75) (70) (110) (17) (493) (64) (139) (41) (46) (186) (163) (12) (17) (70) (17) (4348) (70) (969) (104) (12) (12) (12) (157) (17) (58) (389) (93) (58) (46) (12) (17) (23) (52) (52) (3489) (17) (29) (23) (52) (41) (17) (99) (52) (308) (17) (52) (29) (29) (41) (157) (650) (17) (52) (383) (17) (99) (29) (23) (174) (64) (418) (12) (93) (75) (12) (145) (75) (163) (116) (255) (104) (70) (52) (157) (52) (58) (75) (23) (110) (12) (64) (35) (75) (64) (128) (46) (17) (12) (267) (58) (41) (41) (104) (52) (93) (46) (99) (93) (23) (35) (93) (41) (215) (12) (35) (75) (209) (12) (12) (12) (70) (12) (64) (134) (64) (17) (46) (87) (46) (35) (17))) :lvel (quote ((27) (46) (38) (40) (31) (26) (33) (35) (46) (34) (42) (31) (32) (37) (46) (31) (36) (28) (36) (39) (28) (26) (37) (29) (30) (23) (27) (23) (44) (21) (18) (23) (22) (15) (24) (33) (18) (22) (14) (14) (20) (17) (23) (20) (20) (20) (15) (14) (15) (14) (16) (17) (12) (13) (13) (11) (12) (15) (14) (14) (13) (20) (19) (13) (13) (11) (11) (17) (25) (11) (12) (19) (13) (13) (11) (11) (16) (13) (20) (11) (16) (13) (10) (13) (11) (20) (13) (17) (12) (11) (11) (16) (12) (11) (11) (11) (14) (11) (11) (12) (14) (11) (14) (10) (10) (11) (15) (14) (11) (12) (14) (14) (14) (13) (13) (13) (11) (11) (13) (10) (11) (11) (12) (13) (11) (10) (11) (11) (12) (10) (12) (11) (11) (10) (11) (10) (11) (10) (10))) :loffset (quote ((0) (0) (0) (0) (0) (0) (0) (0) (0) (0) (0) (0) (0) (0) (0) (0) (0) (0) (0) (0) (0) (0) (0) (0) (0) (0) (0) (0) (0) (0) (0) (0) (0) (0) (0) (0) (0) (0) (0) (0) (0) (0) (0) (0) (0) (0) (0) (0) (0) (0) (0) (0) (0) (0) (0) (0) (0) (0) (0) (0) (0) (0) (0) (0) (0) (0) (0) (0) (0) (0) (0) (0) (0) (0) (0) (0) (0) (0) (0) (0) (0) (0) (0) (0) (0) (0) (0) (0) (0) (0) (0) (0) (0) (0) (0) (0) (0) (0) (0) (0) (0) (0) (0) (0) (0) (0) (0) (0) (0) (0) (0) (0) (0) (0) (0) (0) (0) (0) (0) (0) (0) (0) (0) (0) (0) (0) (0) (0) (0) (0) (0) (0) (0) (0) (0) (0) (0) (0) (0))) :lchan (quote ((14) (14) (14) (14) (14) (14) (14) (14) (14) (14) (14) (14) (14) (14) (14) (14) (14) (14) (14) (14) (14) (14) (14) (14) (14) (14) (14) (14) (14) (14) (14) (14) (14) (14) (14) (14) (14) (14) (14) (14) (14) (14) (14) (14) (14) (14) (14) (14) (14) (14) (14) (14) (14) (14) (14) (14) (14) (14) (14) (14) (14) (14) (14) (14) (14) (14) (14) (14) (14) (14) (14) (14) (14) (14) (14) (14) (14) (14) (14) (14) (14) (14) (14) (14) (14) (14) (14) (14) (14) (14) (14) (14) (14) (14) (14) (14) (14) (14) (14) (14) (14) (14) (14) (14) (14) (14) (14) (14) (14) (14) (14) (14) (14) (14) (14) (14) (14) (14) (14) (14) (14) (14) (14) (14) (14) (14) (14) (14) (14) (14) (14) (14) (14) (14) (14) (14) (14) (14) (14))) :legato 0)))) (load-port-info newobj (quote ((0) (0) (0) (0) (0) (0) (0) (0) (0) (0) (0) (0) (0) (0) (0) (0) (0) (0) (0) (0) (0) (0) (0) (0) (0) (0) (0) (0) (0) (0) (0) (0) (0) (0) (0) (0) (0) (0) (0) (0) (0) (0) (0) (0) (0) (0) (0) (0) (0) (0) (0) (0) (0) (0) (0) (0) (0) (0) (0) (0) (0) (0) (0) (0) (0) (0) (0) (0) (0) (0) (0) (0) (0) (0) (0) (0) (0) (0) (0) (0) (0) (0) (0) (0) (0) (0) (0) (0) (0) (0) (0) (0) (0) (0) (0) (0) (0) (0) (0) (0) (0) (0) (0) (0) (0) (0) (0) (0) (0) (0) (0) (0) (0) (0) (0) (0) (0) (0) (0) (0) (0) (0) (0) (0) (0) (0) (0) (0) (0) (0) (0) (0) (0) (0) (0) (0) (0) (0) (0)))) (init-mus-color newobj (quote nil)) (set-extra-pairs newobj (quote nil)) (set-patch-pairs newobj (quote nil)) (set-name newobj nil) (set-tonalite newobj nil) newobj)) :from-file t))) (load-port-info newobj (quote (((0) (0) (0) (0) (0) (0) (0) (0) (0) (0) (0) (0) (0) (0) (0) (0) (0) (0) (0) (0) (0) (0) (0) (0) (0) (0) (0) (0) (0) (0) (0) (0) (0) (0) (0) (0) (0) (0) (0) (0) (0) (0) (0) (0) (0) (0) (0) (0) (0) (0) (0) (0) (0) (0) (0) (0) (0) (0) (0) (0) (0) (0) (0) (0) (0) (0) (0) (0) (0) (0) (0) (0) (0) (0) (0) (0) (0) (0) (0) (0) (0) (0) (0) (0) (0) (0) (0) (0) (0) (0) (0) (0) (0) (0) (0) (0) (0) (0) (0) (0) (0) (0) (0) (0) (0) (0) (0) (0) (0) (0) (0) (0) (0) (0) (0) (0) (0) (0) (0) (0) (0) (0) (0) (0) (0) (0) (0) (0) (0) (0) (0) (0) (0) (0) (0) (0) (0) (0) (0))))) (init-mus-color newobj (quote nil)) (set-extra-pairs newobj (quote nil)) (set-patch-pairs newobj (quote nil)) (set-name newobj nil) (set-tonalite newobj nil) newobj)) nil nil (pairlis (quote (scale show-stems cursor-mode obj-mode score-mode winpos winsize mode grillestep notechancolor? zoom player inport outport deltapict cmnpref staff fontsize approx)) (list nil (quote t) (quote :normal) 1 0 (om-make-point 400 23) (om-make-point 627 751) 0 1000 nil 1 (quote :osc-scoreplayer) nil nil (om-make-point 0 0) (let ((newobj (make-instance (quote edition-values)))) (setf (paper-size newobj) (om-make-point 600 800)) (setf (top-margin newobj) 2) (setf (left-margin newobj) 1) (setf (right-margin newobj) 1) (setf (bottom-margin newobj) 1) (setf (orientation newobj) nil) (setf (scale newobj) nil) (setf (system-space newobj) (quote (1))) (setf (system-color newobj) (quote nil)) (setf (line-space newobj) 1) (setf (title newobj) nil) (setf (show-title? newobj) nil) (setf (show-page? newobj) nil) (setf (sheet-id newobj) nil) (setf (page-mode newobj) nil) newobj) (list (quote ggff)) 24 8)) t nil nil nil))) (when (fboundp (quote set-active)) (set-active box nil)) box) (let ((box (om-load-editor-box1 "MULTI-SEQ" (quote multi-seq) (quote ((om-load-inputfun (quote input-funbox) "object" "self" nil) (om-load-inputfun (quote input-funbox) "list of CHORD-SEQ objects" "chord-seqs" (list (let ((newobj (when (find-class (quote chord-seq) nil) (make-instance (quote chord-seq) :lmidic (quote ((6000))) :lonset (quote (0 1000)) :ldur (quote ((1000))) :lvel (quote ((100))) :loffset (quote ((0))) :lchan (quote ((1))) :legato 0)))) (load-port-info newobj (quote ((0)))) (init-mus-color newobj (quote nil)) (set-extra-pairs newobj (quote nil)) (set-patch-pairs newobj (quote nil)) (set-name newobj nil) (set-tonalite newobj nil) newobj))))) (om-make-point 452 77) (om-make-point 358 171) (if (find-class (quote multi-seq) nil) (let ((newobj (make-instance (quote multi-seq) :chord-seqs (list (let ((newobj (when (find-class (quote chord-seq) nil) (make-instance (quote chord-seq) :lmidic (quote ((5810) (6336) (7794) (8286) (8466) (8696) (9094) (9290) (10086) (10480) (10616) (10718) (10942) (9184) (6322) (9278) (9452) (10586) (10084) (9288) (9456) (10364) (9186) (10086) (9286) (9464) (10084) (9446) (6312) (10080) (7054) (10084) (9450) (7056) (9286) (6318) (9452) (6214) (10616) (4164) (9286) (9764) (10084) (9188) (9442) (10084) (9442) (4164) (9290) (4164) (10086) (9284) (4164) (9318) (9460) (9764) (10480) (9442) (9762) (9288) (10480) (9188) (6342) (10084) (9442) (10084) (9444) (9184) (6312) (10086) (9440) (8466) (6348) (9188) (9188) (9186) (8466) (9188) (6322) (9180) (8466) (9188) (6244) (8466) (9190) (6308) (8468) (6330) (8468) (9096) (9096) (6304) (8468) (9096) (9096) (5802) (6320) (5800) (9096) (8470) (6342) (9096) (6322) (9096) (9096) (6288) (7792) (6332) (6360) (6302) (7794) (6346) (7796) (6332) (7796) (7796) (6308) (6350) (7796) (7054) (8286) (8698) (6334) (7796) (7056) (8696) (8698) (8698) (7796) (8698) (7796) (7056) (7796) (6340) (7796) (7056) (7796) (7796) (7796))) :lonset (quote (46 46 46 46 46 46 46 46 46 46 46 64 75 81 93 93 110 128 151 197 232 267 273 290 348 360 406 441 459 493 511 540 621 627 633 650 708 743 766 778 784 795 818 830 882 952 1010 1016 1051 1062 1080 1097 1132 1138 1155 1167 1190 1225 1236 1248 1260 1271 1324 1358 1364 1486 1532 1602 1625 1631 1654 1759 1805 1840 2119 2188 2206 2310 2322 2421 2473 2485 2508 2653 2664 2810 2897 2978 3129 3146 3262 3286 3349 3373 3466 3483 3512 3541 3576 3605 3645 3680 3785 3802 3918 4005 4005 4052 4162 4272 4313 4354 4464 4557 4603 4754 4766 4859 4905 4992 4998 5039 5056 5056 5068 5074 5108 5178 5201 5312 5352 5404 5497 5561 5654 5741 5799 5950 6107 6124)) :ldur (quote ((3419) (12) (3936) (4894) (1683) (4975) (3071) (29) (35) (1045) (691) (23) (29) (163) (342) (29) (81) (17) (75) (70) (110) (17) (493) (64) (139) (41) (46) (186) (163) (12) (17) (70) (17) (4348) (70) (969) (104) (12) (12) (12) (157) (17) (58) (389) (93) (58) (46) (12) (17) (23) (52) (52) (3489) (17) (29) (23) (52) (41) (17) (99) (52) (308) (17) (52) (29) (29) (41) (157) (650) (17) (52) (383) (17) (99) (29) (23) (174) (64) (418) (12) (93) (75) (12) (145) (75) (163) (116) (255) (104) (70) (52) (157) (52) (58) (75) (23) (110) (12) (64) (35) (75) (64) (128) (46) (17) (12) (267) (58) (41) (41) (104) (52) (93) (46) (99) (93) (23) (35) (93) (41) (215) (12) (35) (75) (209) (12) (12) (12) (70) (12) (64) (134) (64) (17) (46) (87) (46) (35) (17))) :lvel (quote ((27) (46) (38) (40) (31) (26) (33) (35) (46) (34) (42) (31) (32) (37) (46) (31) (36) (28) (36) (39) (28) (26) (37) (29) (30) (23) (27) (23) (44) (21) (18) (23) (22) (15) (24) (33) (18) (22) (14) (14) (20) (17) (23) (20) (20) (20) (15) (14) (15) (14) (16) (17) (12) (13) (13) (11) (12) (15) (14) (14) (13) (20) (19) (13) (13) (11) (11) (17) (25) (11) (12) (19) (13) (13) (11) (11) (16) (13) (20) (11) (16) (13) (10) (13) (11) (20) (13) (17) (12) (11) (11) (16) (12) (11) (11) (11) (14) (11) (11) (12) (14) (11) (14) (10) (10) (11) (15) (14) (11) (12) (14) (14) (14) (13) (13) (13) (11) (11) (13) (10) (11) (11) (12) (13) (11) (10) (11) (11) (12) (10) (12) (11) (11) (10) (11) (10) (11) (10) (10))) :loffset (quote ((0) (0) (0) (0) (0) (0) (0) (0) (0) (0) (0) (0) (0) (0) (0) (0) (0) (0) (0) (0) (0) (0) (0) (0) (0) (0) (0) (0) (0) (0) (0) (0) (0) (0) (0) (0) (0) (0) (0) (0) (0) (0) (0) (0) (0) (0) (0) (0) (0) (0) (0) (0) (0) (0) (0) (0) (0) (0) (0) (0) (0) (0) (0) (0) (0) (0) (0) (0) (0) (0) (0) (0) (0) (0) (0) (0) (0) (0) (0) (0) (0) (0) (0) (0) (0) (0) (0) (0) (0) (0) (0) (0) (0) (0) (0) (0) (0) (0) (0) (0) (0) (0) (0) (0) (0) (0) (0) (0) (0) (0) (0) (0) (0) (0) (0) (0) (0) (0) (0) (0) (0) (0) (0) (0) (0) (0) (0) (0) (0) (0) (0) (0) (0) (0) (0) (0) (0) (0) (0))) :lchan (quote ((1) (1) (1) (1) (1) (1) (1) (1) (1) (1) (1) (1) (1) (1) (1) (1) (1) (1) (1) (1) (1) (1) (1) (1) (1) (1) (1) (1) (1) (1) (1) (1) (1) (1) (1) (1) (1) (1) (1) (1) (1) (1) (1) (1) (1) (1) (1) (1) (1) (1) (1) (1) (1) (1) (1) (1) (1) (1) (1) (1) (1) (1) (1) (1) (1) (1) (1) (1) (1) (1) (1) (1) (1) (1) (1) (1) (1) (1) (1) (1) (1) (1) (1) (1) (1) (1) (1) (1) (1) (1) (1) (1) (1) (1) (1) (1) (1) (1) (1) (1) (1) (1) (1) (1) (1) (1) (1) (1) (1) (1) (1) (1) (1) (1) (1) (1) (1) (1) (1) (1) (1) (1) (1) (1) (1) (1) (1) (1) (1) (1) (1) (1) (1) (1) (1) (1) (1) (1) (1))) :legato 0)))) (load-port-info newobj (quote ((0) (0) (0) (0) (0) (0) (0) (0) (0) (0) (0) (0) (0) (0) (0) (0) (0) (0) (0) (0) (0) (0) (0) (0) (0) (0) (0) (0) (0) (0) (0) (0) (0) (0) (0) (0) (0) (0) (0) (0) (0) (0) (0) (0) (0) (0) (0) (0) (0) (0) (0) (0) (0) (0) (0) (0) (0) (0) (0) (0) (0) (0) (0) (0) (0) (0) (0) (0) (0) (0) (0) (0) (0) (0) (0) (0) (0) (0) (0) (0) (0) (0) (0) (0) (0) (0) (0) (0) (0) (0) (0) (0) (0) (0) (0) (0) (0) (0) (0) (0) (0) (0) (0) (0) (0) (0) (0) (0) (0) (0) (0) (0) (0) (0) (0) (0) (0) (0) (0) (0) (0) (0) (0) (0) (0) (0) (0) (0) (0) (0) (0) (0) (0) (0) (0) (0) (0) (0) (0)))) (init-mus-color newobj (quote nil)) (set-extra-pairs newobj (quote nil)) (set-patch-pairs newobj (quote ((nil (om-load-patch-abs1 "patch" (quote nil) (quote nil) 6.13 nil "" (om-make-point 200 200) (om-make-point 400 500)))))) (set-name newobj nil) (set-tonalite newobj nil) newobj)) :from-file t))) (load-port-info newobj (quote (((0) (0) (0) (0) (0) (0) (0) (0) (0) (0) (0) (0) (0) (0) (0) (0) (0) (0) (0) (0) (0) (0) (0) (0) (0) (0) (0) (0) (0) (0) (0) (0) (0) (0) (0) (0) (0) (0) (0) (0) (0) (0) (0) (0) (0) (0) (0) (0) (0) (0) (0) (0) (0) (0) (0) (0) (0) (0) (0) (0) (0) (0) (0) (0) (0) (0) (0) (0) (0) (0) (0) (0) (0) (0) (0) (0) (0) (0) (0) (0) (0) (0) (0) (0) (0) (0) (0) (0) (0) (0) (0) (0) (0) (0) (0) (0) (0) (0) (0) (0) (0) (0) (0) (0) (0) (0) (0) (0) (0) (0) (0) (0) (0) (0) (0) (0) (0) (0) (0) (0) (0) (0) (0) (0) (0) (0) (0) (0) (0) (0) (0) (0) (0) (0) (0) (0) (0) (0) (0))))) (init-mus-color newobj (quote nil)) (set-extra-pairs newobj (quote nil)) (set-patch-pairs newobj (quote ((nil (om-load-patch-abs1 "patch" (quote nil) (quote nil) 6.13 nil "" (om-make-point 200 200) (om-make-point 400 500))) ((0) (om-load-patch-abs1 "patch" (quote nil) (quote nil) 6.13 nil "" (om-make-point 200 200) (om-make-point 400 500)))))) (set-name newobj nil) (set-tonalite newobj nil) newobj)) "x" nil (pairlis (quote (approx fontsize staff cmnpref deltapict outport inport player zoom notechancolor? grillestep mode winsize winpos score-mode obj-mode show-stems scale palette-mode)) (list 8 16 (list (quote ggff)) (let ((newobj (make-instance (quote edition-values)))) (setf (paper-size newobj) (om-make-point 600 800)) (setf (top-margin newobj) 2) (setf (left-margin newobj) 1) (setf (right-margin newobj) 1) (setf (bottom-margin newobj) 1) (setf (orientation newobj) nil) (setf (scale newobj) nil) (setf (system-space newobj) (quote (1))) (setf (system-color newobj) (quote nil)) (setf (line-space newobj) 1) (setf (title newobj) nil) (setf (show-title? newobj) nil) (setf (show-page? newobj) nil) (setf (sheet-id newobj) nil) (setf (page-mode newobj) nil) newobj) (om-make-point 0 0) nil 0 (quote :osc-scoreplayer) 1 nil 1000 0 (om-make-point 742 405) (om-make-point 400 23) 0 1 (quote t) nil 0)) t nil nil nil))) (when (fboundp (quote set-active)) (set-active box nil)) box) (let ((box (om-load-boxcomment "comment" (om-make-point 177 43) (quote "A Tam-tam spectrum") "" (om-make-point 436 48) nil (om-make-color 0 0 0) (om-make-font "Verdana" 12 :family "Verdana" :style (quote (:plain)) :mode (quote nil))))) (when (fboundp (quote set-active)) (set-active box nil)) box) (let ((box (om-load-boxcall (quote abstraction) "harmonics" (om-load-patch-abs1 "harmonics" (quote ((let ((box (om-load-boxcall (quote genfun) "F->MC" (quote f->mc) (quote ((om-load-inputfun (quote input-funbox) "frequency (Hz)" "FREQ" 440))) (om-make-point 186 356) nil nil nil nil 1))) (when (fboundp (quote set-active)) (set-active box nil)) box) (let ((box (om-load-boxcall (quote bastype) "list 2" (quote list) (quote nil) (om-make-point 271 141) (om-make-point 28 30) 50 "50" nil))) (when (fboundp (quote set-active)) (set-active box nil)) box) (let ((box (om-load-boxcall (quote bastype) "list" (quote list) (quote nil) (om-make-point 221 155) (om-make-point 21 30) 1 "1" nil))) (when (fboundp (quote set-active)) (set-active box nil)) box) (let ((box (om-load-boxcall (quote genfun) "OM*" (quote om*) (quote ((om-load-inputfun (quote input-funbox) "number or list" "ARG1" 0) (om-load-inputfun (quote input-funbox) "number or list" "ARG2" 0))) (om-make-point 199 303) nil nil nil nil 1))) (when (fboundp (quote set-active)) (set-active box nil)) box) (let ((box (om-load-boxcall (quote genfun) "ARITHM-SER" (quote arithm-ser) (quote ((om-load-inputfun (quote input-funbox) "begin" "BEGIN" 0) (om-load-inputfun (quote input-funbox) "end " "END" 10) (om-load-inputfun (quote input-funbox) "step" "STEP" 1))) (om-make-point 232 201) nil nil nil nil 1))) (when (fboundp (quote set-active)) (set-active box nil)) box) (let ((box (om-load-boxcall (quote genfun) "MC->F" (quote mc->f) (quote ((om-load-inputfun (quote input-funbox) "pitch or pitch list (midicents)" "MIDICS?" 6000))) (om-make-point 111 209) nil nil nil nil 1))) (when (fboundp (quote set-active)) (set-active box nil)) box) (let ((box (om-load-editor-box1 "NOTE" (quote note) (quote ((om-load-inputfun (quote input-funbox) "object" "self" nil) (om-load-inputfun (quote input-funbox) "pitch (midicents)" "midic" 6000) (om-load-inputfun (quote input-funbox) "velocity (0-127)" "vel" 80) (om-load-inputfun (quote input-funbox) "duration (ms)" "dur" 1000) (om-load-inputfun (quote input-funbox) "MIDI channel (1-16)" "chan" 1))) (om-make-point 105 74) (om-make-point 80 98) (if (find-class (quote note) nil) (let ((newobj (make-instance (quote note) :midic 2625 :vel 80 :dur 1000 :chan 1 :from-file t))) (load-port-info newobj (quote 0)) (init-mus-color newobj (quote nil)) (set-extra-pairs newobj (quote nil)) (set-patch-pairs newobj (quote ((nil (om-load-patch-abs1 "patch" (quote nil) (quote nil) 6.13 nil "" (om-make-point 200 200) (om-make-point 400 500)))))) (set-name newobj nil) (set-tonalite newobj nil) newobj)) "x" nil (pairlis (quote (approx fontsize staff cmnpref deltapict outport inport player zoom notechancolor? grillestep mode winsize winpos score-mode obj-mode show-stems scale palette-mode)) (list 8 16 (quote ggff) (let ((newobj (make-instance (quote edition-values)))) (setf (paper-size newobj) (om-make-point 600 800)) (setf (top-margin newobj) 2) (setf (left-margin newobj) 1) (setf (right-margin newobj) 1) (setf (bottom-margin newobj) 1) (setf (orientation newobj) nil) (setf (scale newobj) nil) (setf (system-space newobj) (quote (1))) (setf (system-color newobj) (quote nil)) (setf (line-space newobj) 1) (setf (title newobj) nil) (setf (show-title? newobj) nil) (setf (show-page? newobj) nil) (setf (sheet-id newobj) nil) (setf (page-mode newobj) nil) newobj) (om-make-point 0 0) nil 0 (quote :midishare) 1 nil 1000 0 (om-make-point 687 315) (om-make-point 300 22) 0 0 (quote t) nil 0)) t nil nil nil))) (when (fboundp (quote set-active)) (set-active box nil)) box) (let ((box (om-load-boxout "output" 0 (om-make-point 74 388) (quote ((om-load-inputfun (quote input-funbox) "" "out" nil))) nil nil))) (when (fboundp (quote set-active)) (set-active box nil)) box))) (quote ((3 0 0 0 nil 0) (5 0 3 0 nil 0) (4 0 3 1 nil 0) (2 0 4 0 nil 0) (1 0 4 1 nil 0) (6 1 5 0 nil 0) (0 0 7 0 nil 0))) 6.13 nil "" (om-make-point 200 200) (om-make-point 500 400)) (quote nil) (om-make-point 159 0) nil (list (list 2626 3826 4526 5026 5412 5726 5994 6226 6428 6612 6776 6926 7066 7194 7314 7426 7530 7628 7722 7812 7896 7976 8054 8126 8198 8266 8330 8394 8454 8514 8570 8626 8678 8730 8780 8828 8876 8922 8968 9012 9054 9096 9136 9176 9216 9254 9290 9326 9362 9398)) nil "harmonics"))) (when (fboundp (quote set-active)) (set-active box nil)) box) (let ((box (om-load-boxcall (quote genfun) "R-INVERT-SPECTRUM-MULTISEQ" (quote r-invert-spectrum-multiseq) (quote ((om-load-inputfun (quote input-funbox) "list-of-chordseqs" "LIST-OF-CHORDSEQS" nil))) (om-make-point 475 264) nil nil nil nil 1))) (when (fboundp (quote set-active)) (set-active box nil)) box))) (quote ((10 0 1 0 nil 0) (0 0 1 1 nil 0) (15 0 3 0 nil 0) (2 0 3 1 nil 0) (1 0 6 1 nil 0) (9 0 7 0 nil 0) (14 0 8 0 nil 0) (8 0 9 1 nil 0) (7 0 10 0 nil 0) (3 0 11 1 nil 0) (12 1 15 0 nil 0))) nil 6.13))
