; OM File Header - Saved 2021/08/05 18:54:15
; (6.17 :patc (om-make-point 40 10) (om-make-point 0 29) (om-make-point 1280 716) "" 183 0 nil nil)
; End File Header
(in-package :om)(load-lib-for (quote ("FDSDB_XXth_CT")))(setf *om-current-persistent* (om-load-patch1 "02 messiaen-chords" (quote ((let ((box (om-load-boxcall (quote bastype) "aux 10" (quote t) (quote nil) (om-make-point 757 70) (om-make-point 38 30) 0.5 "0.5" nil))) (when (fboundp (quote set-active)) (set-active box nil)) box) (let ((box (om-load-boxcall (quote bastype) "aux 9" (quote t) (quote nil) (om-make-point 722 50) (om-make-point 27 30) 0 "0" nil))) (when (fboundp (quote set-active)) (set-active box nil)) box) (let ((box (om-load-boxcall (quote bastype) "aux 8" (quote t) (quote nil) (om-make-point 687 40) (om-make-point 33 30) nil "nil" nil))) (when (fboundp (quote set-active)) (set-active box nil)) box) (let ((box (om-load-boxcomment "comment" (om-make-point 145 60) (quote "Select octave$random transposition$or not") "" (om-make-point 411 499) nil (om-make-color 1.0 0.0 0.0) (om-make-font "Verdana" 12 :family "Verdana" :style (quote (:plain)) :mode (quote nil))))) (when (fboundp (quote set-active)) (set-active box nil)) box) (let ((box (om-load-editor-box1 "POP-UP-MENU 2" (quote pop-up-menu) (quote ((om-load-inputfun (quote input-funbox) "list of choices" "items" (list "without 8ve displ." "with 8ve displ.")) (om-load-inputfun (quote input-funbox) "a function or box in lambda mode" "action" nil))) (om-make-point 206 500) (om-make-point 201 50) (let ((rep (om-make-dialog-item (quote pop-up-menu) (om-make-point 1 1) (om-make-point 181 26) "untitled" :range (quote ("without 8ve displ." "with 8ve displ."))))) (om-set-selected-item-index rep (quote 1)) rep) "x" nil (pairlis (quote (winsize winpos)) (list (om-make-point 335 275) (om-make-point 10 40))) t nil nil nil))) (when (fboundp (quote set-active)) (set-active box nil)) box) (let ((box (om-load-boxcall (quote genfun) "POSN-MATCH 2" (quote posn-match) (quote ((om-load-inputfun (quote input-funbox) "a list" "LIST" (list 10 20 30 40 50 60 70 80 90)) (om-load-inputfun (quote input-funbox) "a list positions" "POSITIONS" (list (list 0 1) 4 (list 6))))) (om-make-point 138 557) nil nil nil nil 1))) (when (fboundp (quote set-active)) (set-active box nil)) box) (let ((box (om-load-boxcall (quote lispfun) "LIST 3" (quote list) (quote ((om-load-inputfun (quote input-funbox) "add-input" "add-input" nil) (om-load-inputfun (quote input-funbox) "add-input" "add-input" nil))) (om-make-point 151 492) nil nil nil nil 1))) (when (fboundp (quote set-active)) (set-active box nil)) box) (let ((box (om-load-boxwithed1 (quote box-with-win) "octave displacement" (quote omloop) (quote ((om-load-inputfun (quote input-funbox) "" "input0" nil))) (om-make-point 189 434) nil nil nil (list (let ((box (om-load-boxcall (quote genfun) "collect" (quote listing) (quote ((om-load-inputfun (quote input-funbox) "anything" "DATA" nil))) (om-make-point 242 267) nil nil nil nil 3))) (when (fboundp (quote set-active)) (set-active box nil)) box) (let ((box (om-load-boxcall (quote bastype) "aux" (quote t) (quote nil) (om-make-point 335 83) (om-make-point 106 30) (list 0 1200 -1200) "(0 1200 -1200)" nil))) (when (fboundp (quote set-active)) (set-active box nil)) box) (let ((box (om-load-boxcall (quote genfun) "NTH-RANDOM" (quote nth-random) (quote ((om-load-inputfun (quote input-funbox) "a list" "LIST" nil))) (om-make-point 349 123) nil nil nil nil 1))) (when (fboundp (quote set-active)) (set-active box nil)) box) (let ((box (om-load-boxcall (quote genfun) "OM+" (quote om+) (quote ((om-load-inputfun (quote input-funbox) "number or list" "ARG1" 0) (om-load-inputfun (quote input-funbox) "number or list" "ARG2" 0))) (om-make-point 256 213) nil nil nil nil 1))) (when (fboundp (quote set-active)) (set-active box nil)) box) (let ((box (om-load-boxcall (quote genfun) "inlist" (quote listloop) (quote ((om-load-inputfun (quote input-funbox) "list to iterate" "LIST" nil))) (om-make-point 241 112) nil nil nil nil 1))) (when (fboundp (quote set-active)) (set-active box nil)) box) (let ((box (om-load-boxin "input0" 0 (om-make-point 245 40) "" nil nil nil))) (when (fboundp (quote set-active)) (set-active box nil)) box) (let ((box (om-load-seqbox "finally" (quote finaldo) (quote ((om-load-inputfun (quote input-funbox) "value to return" "VAL" nil))) (om-make-point 290 360) nil nil nil 0))) (when (fboundp (quote set-active)) (set-active box nil)) box) (let ((box (om-load-seqbox "eachTime" (quote loopdo) (quote ((om-load-inputfun (quote input-funbox) "operations to do" "OP" nil))) (om-make-point 190 360) nil nil nil 0))) (when (fboundp (quote set-active)) (set-active box nil)) box)) (quote ((3 0 0 0 nil 0) (1 0 2 0 nil 0) (4 0 3 0 nil 0) (2 0 3 1 nil 0) (5 0 4 0 nil 0) (0 1 6 0 nil 0) (0 0 7 0 nil 0))) 1 "octave displacement" nil))) (when (fboundp (quote set-active)) (set-active box nil)) box) (let ((box (om-load-boxcomment "comment" (om-make-point 127 45) (quote "Number of pitches$for chord") "" (om-make-point 72 295) nil (om-make-color 1.0 0.0 0.0) (om-make-font "Verdana" 12 :family "Verdana" :style (quote (:plain)) :mode (quote nil))))) (when (fboundp (quote set-active)) (set-active box nil)) box) (let ((box (om-load-boxcall (quote bastype) "aux 5" (quote t) (quote nil) (om-make-point 217 306) (om-make-point 27 30) 6 "6" nil))) (when (fboundp (quote set-active)) (set-active box nil)) box) (let ((box (om-load-boxcall (quote genfun) "REPEAT-N 2" (quote repeat-n) (quote ((om-load-inputfun (quote input-funbox) "something" "SELF" nil) (om-load-inputfun (quote input-funbox) "times" "N" 0))) (om-make-point 193 366) nil nil nil nil 1))) (when (fboundp (quote set-active)) (set-active box nil)) box) (let ((box (om-load-boxcomment "comment" (om-make-point 227 255) (quote "Random melody in which user$select the mode and the length of$rhythmic non-retrogradable series.$Please note: if 'num-fig' is even$the number of generated figures is$equal to 'num-fig' multiplied by 2;$if 'num-fig' is odd ther number of$generated figures is equal to$'num-fig' multiplied by 2 minus 1.$Minimum admitted value is 2. It is$opportune to adjust the number of$random pitches according to the$number of random generated$rhythmic figures.$This operation is automatically$performed by oddp/if couple.") "" (om-make-point 981 257) nil (om-make-color 0 0 0) (om-make-font "Verdana" 12 :family "Verdana" :style (quote (:plain)) :mode (quote nil))))) (when (fboundp (quote set-active)) (set-active box nil)) box) (let ((box (om-load-boxcall (quote lispfun) "ODDP" (quote oddp) (quote ((om-load-inputfun (quote input-funbox) "NUM" "NUM" nil))) (om-make-point 411 211) nil nil nil nil 1))) (when (fboundp (quote set-active)) (set-active box nil)) box) (let ((box (om-load-boxcall (quote bastype) "aux 7" (quote t) (quote nil) (om-make-point 516 179) (om-make-point 27 30) 1 "1" nil))) (when (fboundp (quote set-active)) (set-active box nil)) box) (let ((box (om-load-boxcall (quote genfun) "OM-" (quote om-) (quote ((om-load-inputfun (quote input-funbox) "number or list" "ARG1" 0) (om-load-inputfun (quote input-funbox) "number or list" "ARG2" 0))) (om-make-point 496 219) nil nil nil nil 1))) (when (fboundp (quote set-active)) (set-active box nil)) box) (let ((box (om-load-boxcall (quote bastype) "aux 6" (quote t) (quote nil) (om-make-point 485 123) (om-make-point 27 30) 2 "2" nil))) (when (fboundp (quote set-active)) (set-active box nil)) box) (let ((box (om-load-boxcall (quote genfun) "OM*" (quote om*) (quote ((om-load-inputfun (quote input-funbox) "number or list" "ARG1" 0) (om-load-inputfun (quote input-funbox) "number or list" "ARG2" 0))) (om-make-point 475 163) nil nil nil nil 1))) (when (fboundp (quote set-active)) (set-active box nil)) box) (let ((box (om-load-boxcall (quote genfun) "OMIF" (quote omif) (quote ((om-load-inputfun (quote input-funbox) "IF" "TEST" nil) (om-load-inputfun (quote input-funbox) "THEN" "ACTION" nil) (om-load-inputfun (quote input-funbox) "ELSE" "ELSE" nil))) (om-make-point 429 269) nil nil nil nil 1))) (when (fboundp (quote set-active)) (set-active box nil)) box) (let ((box (om-load-editor-box1 "VOICE 2" (quote voice) (quote ((om-load-inputfun (quote input-funbox) "object" "self" nil) (om-load-inputfun (quote input-funbox) "a list representing a rhythm tree" "tree" (list (quote ?) (list (list (list 4 4) (list 1 1 1 1))))) (om-load-inputfun (quote input-funbox) "a chord object, a list of chords, a list of midics, a list of lists of midics..." "chords" (list (let ((thechord (make-instance (quote chord) :lmidic (quote (6000)) :ldur (quote (1000)) :lvel (quote (100)) :loffset (quote (0)) :lchan (quote (1))))) (load-port-info thechord (quote (0))) (init-mus-color thechord (quote nil)) (set-extra-pairs thechord (quote nil)) (set-tonalite thechord nil) thechord))) (om-load-inputfun (quote input-funbox) "frequency of the quarter-note (default 60/mn)" "tempo" 60) (om-load-inputfun (quote input-funbox) "overlapping percentage between every successive chords, calculated from the second chord's duration" "legato" 100) (om-load-inputfun (quote input-funbox) "sub lists (one sub list per chord) indicating notes to be tied to notes of the same value, in a next chord" "ties" nil))) (om-make-point 582 513) (om-make-point 366 140) (let ((newobj (when (find-class (quote voice) nil) (make-instance (quote voice) :tree (quote (2 (((4 4) ((1 (1 2 1)) (1 (1.0 1)) (1 (1.0 3)) (1 (2 1 1)))) ((4 4) ((1 (1.0 3)) (1 (3 1)) (1 (1.0 1)) (1 (1 -3))))))) :chords (load-obj-list-from-save (quote ((let ((thechord (make-instance (quote chord) :lmidic (quote (5100 4900 6700 7200 6300 5200)) :ldur (quote (250 250 250 250 250 250)) :lvel (quote (100 100 100 100 100 100)) :loffset (quote (0 0 0 0 0 0)) :lchan (quote (1 1 1 1 1 1))))) (load-port-info thechord (quote (0 0 0 0 0 0))) (init-mus-color thechord (quote nil)) (set-extra-pairs thechord (quote nil)) (set-tonalite thechord nil) thechord) (let ((thechord (make-instance (quote chord) :lmidic (quote (6300 7200 5200 7300 5400 5200)) :ldur (quote (500 500 500 500 500 500)) :lvel (quote (100 100 100 100 100 100)) :loffset (quote (0 0 0 0 0 0)) :lchan (quote (1 1 1 1 1 1))))) (load-port-info thechord (quote (0 0 0 0 0 0))) (init-mus-color thechord (quote nil)) (set-extra-pairs thechord (quote nil)) (set-tonalite thechord nil) thechord) (let ((thechord (make-instance (quote chord) :lmidic (quote (6000 4800 6000 6700 8100 6300)) :ldur (quote (250 250 250 250 250 250)) :lvel (quote (100 100 100 100 100 100)) :loffset (quote (0 0 0 0 0 0)) :lchan (quote (1 1 1 1 1 1))))) (load-port-info thechord (quote (0 0 0 0 0 0))) (init-mus-color thechord (quote nil)) (set-extra-pairs thechord (quote nil)) (set-tonalite thechord nil) thechord) (let ((thechord (make-instance (quote chord) :lmidic (quote (5500 5500 4900 6600 5700 5700)) :ldur (quote (500 500 500 500 500 500)) :lvel (quote (100 100 100 100 100 100)) :loffset (quote (0 0 0 0 0 0)) :lchan (quote (1 1 1 1 1 1))))) (load-port-info thechord (quote (0 0 0 0 0 0))) (init-mus-color thechord (quote nil)) (set-extra-pairs thechord (quote nil)) (set-tonalite thechord nil) thechord) (let ((thechord (make-instance (quote chord) :lmidic (quote (5700 7200 6900 8100 5100 7500)) :ldur (quote (750 750 750 750 750 750)) :lvel (quote (100 100 100 100 100 100)) :loffset (quote (0 0 0 0 0 0)) :lchan (quote (1 1 1 1 1 1))))) (load-port-info thechord (quote (0 0 0 0 0 0))) (init-mus-color thechord (quote nil)) (set-extra-pairs thechord (quote nil)) (set-tonalite thechord nil) thechord) (let ((thechord (make-instance (quote chord) :lmidic (quote (6300 5500 6300 5200 6600 6000)) :ldur (quote (500 500 500 500 500 500)) :lvel (quote (100 100 100 100 100 100)) :loffset (quote (0 0 0 0 0 0)) :lchan (quote (1 1 1 1 1 1))))) (load-port-info thechord (quote (0 0 0 0 0 0))) (init-mus-color thechord (quote nil)) (set-extra-pairs thechord (quote nil)) (set-tonalite thechord nil) thechord) (let ((thechord (make-instance (quote chord) :lmidic (quote (7300 8100 5100 7900 7200 5100)) :ldur (quote (250 250 250 250 250 250)) :lvel (quote (100 100 100 100 100 100)) :loffset (quote (0 0 0 0 0 0)) :lchan (quote (1 1 1 1 1 1))))) (load-port-info thechord (quote (0 0 0 0 0 0))) (init-mus-color thechord (quote nil)) (set-extra-pairs thechord (quote nil)) (set-tonalite thechord nil) thechord) (let ((thechord (make-instance (quote chord) :lmidic (quote (5800 7200 5500 8100 8400 5200)) :ldur (quote (250 250 250 250 250 250)) :lvel (quote (100 100 100 100 100 100)) :loffset (quote (0 0 0 0 0 0)) :lchan (quote (1 1 1 1 1 1))))) (load-port-info thechord (quote (0 0 0 0 0 0))) (init-mus-color thechord (quote nil)) (set-extra-pairs thechord (quote nil)) (set-tonalite thechord nil) thechord) (let ((thechord (make-instance (quote chord) :lmidic (quote (5400 7600 6100 7600 6900 8100)) :ldur (quote (750 750 750 750 750 750)) :lvel (quote (100 100 100 100 100 100)) :loffset (quote (0 0 0 0 0 0)) :lchan (quote (1 1 1 1 1 1))))) (load-port-info thechord (quote (0 0 0 0 0 0))) (init-mus-color thechord (quote nil)) (set-extra-pairs thechord (quote nil)) (set-tonalite thechord nil) thechord) (let ((thechord (make-instance (quote chord) :lmidic (quote (7900 6000 5400 7900 7800 7200)) :ldur (quote (750 750 750 750 750 750)) :lvel (quote (100 100 100 100 100 100)) :loffset (quote (0 0 0 0 0 0)) :lchan (quote (1 1 1 1 1 1))))) (load-port-info thechord (quote (0 0 0 0 0 0))) (init-mus-color thechord (quote nil)) (set-extra-pairs thechord (quote nil)) (set-tonalite thechord nil) thechord) (let ((thechord (make-instance (quote chord) :lmidic (quote (7800 7500 7500 5500 8400 7200)) :ldur (quote (250 250 250 250 250 250)) :lvel (quote (100 100 100 100 100 100)) :loffset (quote (0 0 0 0 0 0)) :lchan (quote (1 1 1 1 1 1))))) (load-port-info thechord (quote (0 0 0 0 0 0))) (init-mus-color thechord (quote nil)) (set-extra-pairs thechord (quote nil)) (set-tonalite thechord nil) thechord) (let ((thechord (make-instance (quote chord) :lmidic (quote (7600 6300 5700 7000 5700 5400)) :ldur (quote (500 500 500 500 500 500)) :lvel (quote (100 100 100 100 100 100)) :loffset (quote (0 0 0 0 0 0)) :lchan (quote (1 1 1 1 1 1))))) (load-port-info thechord (quote (0 0 0 0 0 0))) (init-mus-color thechord (quote nil)) (set-extra-pairs thechord (quote nil)) (set-tonalite thechord nil) thechord) (let ((thechord (make-instance (quote chord) :lmidic (quote (6700 5500 6600 7600 5800 5200)) :ldur (quote (250 250 250 250 250 250)) :lvel (quote (100 100 100 100 100 100)) :loffset (quote (0 0 0 0 0 0)) :lchan (quote (1 1 1 1 1 1))))) (load-port-info thechord (quote (0 0 0 0 0 0))) (init-mus-color thechord (quote nil)) (set-extra-pairs thechord (quote nil)) (set-tonalite thechord nil) thechord)))) :tempo (quote ((1/4 60) nil)) :legato 100 :ties (quote (nil nil nil nil nil nil nil nil nil nil nil nil nil)))))) (load-port-info newobj (quote nil)) (init-mus-color newobj (quote nil)) (set-extra-pairs newobj (quote nil)) (set-patch-pairs newobj (quote nil)) (set-name newobj nil) (set-tonalite newobj nil) newobj) nil nil (pairlis (quote (approx fontsize staff cmnpref deltapict outport inport player zoom notechancolor? grillestep mode winsize winpos score-mode obj-mode cursor-mode show-stems scale)) (list 2 24 (quote gf) (let ((newobj (make-instance (quote edition-values)))) (setf (paper-size newobj) (om-make-point 600 800)) (setf (top-margin newobj) 2) (setf (left-margin newobj) 1) (setf (right-margin newobj) 1) (setf (bottom-margin newobj) 1) (setf (orientation newobj) nil) (setf (scale newobj) nil) (setf (system-space newobj) (quote (1))) (setf (system-color newobj) (quote nil)) (setf (line-space newobj) 1) (setf (title newobj) nil) (setf (show-title? newobj) nil) (setf (show-page? newobj) nil) (setf (sheet-id newobj) nil) (setf (page-mode newobj) nil) newobj) (om-make-point 0 0) nil nil (quote :midi-player) 43/50 nil 1000 1 (om-make-point 593 344) (om-make-point 400 22) 0 1 (quote :normal) (quote t) nil)) t nil nil nil))) (when (fboundp (quote set-active)) (set-active box nil)) box) (let ((box (om-load-editor-box1 "VOICE" (quote voice) (quote ((om-load-inputfun (quote input-funbox) "object" "self" nil) (om-load-inputfun (quote input-funbox) "a list representing a rhythm tree" "tree" (list (quote ?) (list (list (list 4 4) (list 1 1 1 1))))) (om-load-inputfun (quote input-funbox) "a chord object, a list of chords, a list of midics, a list of lists of midics..." "chords" (list (let ((thechord (make-instance (quote chord) :lmidic (quote (6000)) :ldur (quote (1000)) :lvel (quote (100)) :loffset (quote (0)) :lchan (quote (1))))) (load-port-info thechord (quote (0))) (init-mus-color thechord (quote nil)) (set-extra-pairs thechord (quote nil)) (set-tonalite thechord nil) thechord))) (om-load-inputfun (quote input-funbox) "frequency of the quarter-note (default 60/mn)" "tempo" 60) (om-load-inputfun (quote input-funbox) "overlapping percentage between every successive chords, calculated from the second chord's duration" "legato" 100) (om-load-inputfun (quote input-funbox) "sub lists (one sub list per chord) indicating notes to be tied to notes of the same value, in a next chord" "ties" nil))) (om-make-point 584 194) (om-make-point 366 140) (let ((newobj (when (find-class (quote voice) nil) (make-instance (quote voice) :tree (quote (2 (((4 4) ((1 (1 2 1)) (1 (1.0 1)) (1 (1.0 3)) (1 (2 1 1)))) ((4 4) ((1 (1.0 3)) (1 (3 1)) (1 (1.0 1)) (1 (1 -3))))))) :chords (load-obj-list-from-save (quote ((let ((thechord (make-instance (quote chord) :lmidic (quote (6000)) :ldur (quote (250)) :lvel (quote (100)) :loffset (quote (0)) :lchan (quote (1))))) (load-port-info thechord (quote (0))) (init-mus-color thechord (quote nil)) (set-extra-pairs thechord (quote nil)) (set-tonalite thechord nil) thechord) (let ((thechord (make-instance (quote chord) :lmidic (quote (6000)) :ldur (quote (500)) :lvel (quote (100)) :loffset (quote (0)) :lchan (quote (1))))) (load-port-info thechord (quote (0))) (init-mus-color thechord (quote nil)) (set-extra-pairs thechord (quote nil)) (set-tonalite thechord nil) thechord) (let ((thechord (make-instance (quote chord) :lmidic (quote (6000)) :ldur (quote (250)) :lvel (quote (100)) :loffset (quote (0)) :lchan (quote (1))))) (load-port-info thechord (quote (0))) (init-mus-color thechord (quote nil)) (set-extra-pairs thechord (quote nil)) (set-tonalite thechord nil) thechord) (let ((thechord (make-instance (quote chord) :lmidic (quote (6000)) :ldur (quote (500)) :lvel (quote (100)) :loffset (quote (0)) :lchan (quote (1))))) (load-port-info thechord (quote (0))) (init-mus-color thechord (quote nil)) (set-extra-pairs thechord (quote nil)) (set-tonalite thechord nil) thechord) (let ((thechord (make-instance (quote chord) :lmidic (quote (6000)) :ldur (quote (750)) :lvel (quote (100)) :loffset (quote (0)) :lchan (quote (1))))) (load-port-info thechord (quote (0))) (init-mus-color thechord (quote nil)) (set-extra-pairs thechord (quote nil)) (set-tonalite thechord nil) thechord) (let ((thechord (make-instance (quote chord) :lmidic (quote (6000)) :ldur (quote (500)) :lvel (quote (100)) :loffset (quote (0)) :lchan (quote (1))))) (load-port-info thechord (quote (0))) (init-mus-color thechord (quote nil)) (set-extra-pairs thechord (quote nil)) (set-tonalite thechord nil) thechord) (let ((thechord (make-instance (quote chord) :lmidic (quote (6000)) :ldur (quote (250)) :lvel (quote (100)) :loffset (quote (0)) :lchan (quote (1))))) (load-port-info thechord (quote (0))) (init-mus-color thechord (quote nil)) (set-extra-pairs thechord (quote nil)) (set-tonalite thechord nil) thechord) (let ((thechord (make-instance (quote chord) :lmidic (quote (6000)) :ldur (quote (250)) :lvel (quote (100)) :loffset (quote (0)) :lchan (quote (1))))) (load-port-info thechord (quote (0))) (init-mus-color thechord (quote nil)) (set-extra-pairs thechord (quote nil)) (set-tonalite thechord nil) thechord) (let ((thechord (make-instance (quote chord) :lmidic (quote (6000)) :ldur (quote (750)) :lvel (quote (100)) :loffset (quote (0)) :lchan (quote (1))))) (load-port-info thechord (quote (0))) (init-mus-color thechord (quote nil)) (set-extra-pairs thechord (quote nil)) (set-tonalite thechord nil) thechord) (let ((thechord (make-instance (quote chord) :lmidic (quote (6000)) :ldur (quote (750)) :lvel (quote (100)) :loffset (quote (0)) :lchan (quote (1))))) (load-port-info thechord (quote (0))) (init-mus-color thechord (quote nil)) (set-extra-pairs thechord (quote nil)) (set-tonalite thechord nil) thechord) (let ((thechord (make-instance (quote chord) :lmidic (quote (6000)) :ldur (quote (250)) :lvel (quote (100)) :loffset (quote (0)) :lchan (quote (1))))) (load-port-info thechord (quote (0))) (init-mus-color thechord (quote nil)) (set-extra-pairs thechord (quote nil)) (set-tonalite thechord nil) thechord) (let ((thechord (make-instance (quote chord) :lmidic (quote (6000)) :ldur (quote (500)) :lvel (quote (100)) :loffset (quote (0)) :lchan (quote (1))))) (load-port-info thechord (quote (0))) (init-mus-color thechord (quote nil)) (set-extra-pairs thechord (quote nil)) (set-tonalite thechord nil) thechord) (let ((thechord (make-instance (quote chord) :lmidic (quote (6000)) :ldur (quote (250)) :lvel (quote (100)) :loffset (quote (0)) :lchan (quote (1))))) (load-port-info thechord (quote (0))) (init-mus-color thechord (quote nil)) (set-extra-pairs thechord (quote nil)) (set-tonalite thechord nil) thechord)))) :tempo (quote ((1/4 60) nil)) :legato 100 :ties (quote (nil nil nil nil nil nil nil nil nil nil nil nil nil)))))) (load-port-info newobj (quote nil)) (init-mus-color newobj (quote nil)) (set-extra-pairs newobj (quote nil)) (set-patch-pairs newobj (quote nil)) (set-name newobj nil) (set-tonalite newobj nil) newobj) nil nil (pairlis (quote (approx fontsize staff cmnpref deltapict outport inport player zoom notechancolor? grillestep mode winsize winpos score-mode obj-mode cursor-mode show-stems scale)) (list 2 24 (quote g) (let ((newobj (make-instance (quote edition-values)))) (setf (paper-size newobj) (om-make-point 600 800)) (setf (top-margin newobj) 2) (setf (left-margin newobj) 1) (setf (right-margin newobj) 1) (setf (bottom-margin newobj) 1) (setf (orientation newobj) nil) (setf (scale newobj) nil) (setf (system-space newobj) (quote (1))) (setf (system-color newobj) (quote nil)) (setf (line-space newobj) 1) (setf (title newobj) nil) (setf (show-title? newobj) nil) (setf (show-page? newobj) nil) (setf (sheet-id newobj) nil) (setf (page-mode newobj) nil) newobj) (om-make-point 0 0) nil nil (quote :midi-player) 1 nil 1000 0 (om-make-point 370 280) (om-make-point 400 20) 0 1 (quote :normal) (quote t) nil)) t nil nil nil))) (when (fboundp (quote set-active)) (set-active box nil)) box) (let ((box (om-load-boxcall (quote bastype) "aux 4" (quote t) (quote nil) (om-make-point 652 30) (om-make-point 27 30) 8 "8" nil))) (when (fboundp (quote set-active)) (set-active box nil)) box) (let ((box (om-load-boxcall (quote bastype) "aux 3" (quote t) (quote nil) (om-make-point 603 30) (om-make-point 41 30) 250 "250" nil))) (when (fboundp (quote set-active)) (set-active box nil)) box) (let ((box (om-load-boxcall (quote bastype) "aux 2" (quote t) (quote nil) (om-make-point 564 30) (om-make-point 27 30) 3 "3" nil))) (when (fboundp (quote set-active)) (set-active box nil)) box) (let ((box (om-load-boxcomment "comment" (om-make-point 117 30) (quote "Number of figures") "" (om-make-point 408 25) nil (om-make-color 1.0 0.0 0.0) (om-make-font "Verdana" 12 :family "Verdana" :style (quote (:plain)) :mode (quote nil))))) (when (fboundp (quote set-active)) (set-active box nil)) box) (let ((box (om-load-boxcall (quote genfun) "NRR-RANDOM-MONODIC" (quote fdsdb_xxth_ct::nrr-random-monodic) (quote ((om-load-inputfun (quote input-funbox) "Number of rhythmic figures" "NUM-FIG" 6) (om-load-inputfun (quote input-funbox) "Maximum prime number" "MAX" 7) (om-load-inputfun (quote input-funbox) "Unit (ms.)" "FACTOR" 250) (om-load-inputfun (quote input-funbox) "Maximum subdivision" "QUANTIZATION" 8) (om-load-inputfun (quote input-funbox) "Forbidden list" "FORBIDDEN" nil) (om-load-inputfun (quote input-funbox) "Grace-offset" "GRACE-OFFSET" 0) (om-load-inputfun (quote input-funbox) "Precision" "PRECISION" 0.5))) (om-make-point 576 100) nil nil nil nil 1))) (when (fboundp (quote set-active)) (set-active box nil)) box) (let ((box (om-load-boxcall (quote bastype) "list 2" (quote list) (quote nil) (om-make-point 452 53) (om-make-point 27 30) 7 "7" nil))) (when (fboundp (quote set-active)) (set-active box nil)) box) (let ((box (om-load-boxcall (quote genfun) "REPEAT-N" (quote repeat-n) (quote ((om-load-inputfun (quote input-funbox) "something" "SELF" nil) (om-load-inputfun (quote input-funbox) "times" "N" 0))) (om-make-point 517 433) nil nil nil nil 1))) (when (fboundp (quote set-active)) (set-active box nil)) box) (let ((box (om-load-boxcall (quote genfun) "NTH-RANDOM" (quote nth-random) (quote ((om-load-inputfun (quote input-funbox) "a list" "LIST" nil))) (om-make-point 250 264) nil nil nil nil 1))) (when (fboundp (quote set-active)) (set-active box nil)) box) (let ((box (om-load-boxcall (quote genfun) "LTM-1" (quote fdsdb_xxth_ct::ltm-1) (quote ((om-load-inputfun (quote input-funbox) "Initial pitch (Midicent)" "INITIAL-PCH" 6000))) (om-make-point 111 95) (om-make-point 75 75) nil nil nil 7))) (when (fboundp (quote set-active)) (set-active box nil)) box) (let ((box (om-load-boxcall (quote bastype) "aux" (quote t) (quote nil) (om-make-point 127 55) (om-make-point 48 30) 6000 "6000" nil))) (when (fboundp (quote set-active)) (set-active box nil)) box) (let ((box (om-load-boxcall (quote lispfun) "LIST" (quote list) (quote ((om-load-inputfun (quote input-funbox) "add-input" "add-input" nil) (om-load-inputfun (quote input-funbox) "add-input" "add-input" nil) (om-load-inputfun (quote input-funbox) "add-input" "add-input" nil) (om-load-inputfun (quote input-funbox) "add-input" "add-input" nil) (om-load-inputfun (quote input-funbox) "add-input" "add-input" nil) (om-load-inputfun (quote input-funbox) "add-input" "add-input" nil) (om-load-inputfun (quote input-funbox) "add-input" "add-input" nil))) (om-make-point 109 190) nil nil nil nil 1))) (when (fboundp (quote set-active)) (set-active box nil)) box) (let ((box (om-load-editor-box1 "POP-UP-MENU" (quote pop-up-menu) (quote ((om-load-inputfun (quote input-funbox) "list of choices" "items" (list "mode 1" "mode 2" "mode 3" "mode 4" "mode 5" "mode 6" "mode 7")) (om-load-inputfun (quote input-funbox) "a function or box in lambda mode" "action" nil))) (om-make-point 260 94) (om-make-point 130 50) (let ((rep (om-make-dialog-item (quote pop-up-menu) (om-make-point 1 1) (om-make-point 110 26) "untitled" :range (quote ("mode 1" "mode 2" "mode 3" "mode 4" "mode 5" "mode 6" "mode 7"))))) (om-set-selected-item-index rep (quote 1)) rep) "x" nil (pairlis (quote (winsize winpos)) (list (om-make-point 335 275) (om-make-point 10 40))) t nil nil nil))) (when (fboundp (quote set-active)) (set-active box nil)) box) (let ((box (om-load-boxcall (quote genfun) "POSN-MATCH" (quote posn-match) (quote ((om-load-inputfun (quote input-funbox) "a list" "LIST" (list 10 20 30 40 50 60 70 80 90)) (om-load-inputfun (quote input-funbox) "a list positions" "POSITIONS" (list (list 0 1) 4 (list 6))))) (om-make-point 253 188) nil nil nil nil 1))) (when (fboundp (quote set-active)) (set-active box nil)) box) (let ((box (om-load-boxcomment "comment 2" (om-make-point 84 30) (quote "Initial pitch") "" (om-make-point 114 19) nil (om-make-color 0 0 0) (om-make-font "Verdana" 12 :family "Verdana" :style (quote (:plain)) :mode (quote nil))))) (when (fboundp (quote set-active)) (set-active box nil)) box) (let ((box (om-load-boxcomment "comment" (om-make-point 98 30) (quote "1st-7th mode") "" (om-make-point 14 151) nil (om-make-color 0 0 0) (om-make-font "Verdana" 12 :family "Verdana" :style (quote (:plain)) :mode (quote nil))))) (when (fboundp (quote set-active)) (set-active box nil)) box))) (quote ((6 0 5 0 nil 0) (4 0 5 1 nil 0) (10 0 6 0 nil 0) (7 0 6 1 nil 0) (10 0 7 0 nil 0) (27 0 10 0 nil 0) (9 0 10 1 nil 0) (25 0 12 0 nil 0) (16 0 14 0 nil 0) (13 0 14 1 nil 0) (25 0 16 0 nil 0) (15 0 16 1 nil 0) (12 0 17 0 nil 0) (14 0 17 1 nil 0) (16 0 17 2 nil 0) (19 1 18 1 nil 0) (26 0 18 2 nil 0) (24 0 19 0 nil 0) (25 0 24 0 nil 0) (22 0 24 1 nil 0) (21 0 24 2 nil 0) (20 0 24 3 nil 0) (2 0 24 4 nil 0) (1 0 24 5 nil 0) (0 0 24 6 nil 0) (5 0 26 0 nil 0) (17 0 26 1 nil 0) (32 0 27 0 nil 0) (29 0 28 0 nil 0) (28 0 30 0 nil 0) (28 1 30 1 nil 0) (28 2 30 2 nil 0) (28 3 30 3 nil 0) (28 4 30 4 nil 0) (28 5 30 5 nil 0) (28 6 30 6 nil 0) (30 0 32 0 nil 0) (31 0 32 1 nil 0))) nil 6.17))
