; OM File Header - Saved 2021/08/05 18:54:15
; (6.17 :patc (om-make-point 55.0D0 70) (om-make-point 0 29) (om-make-point 1280 716) "" 183 0 nil "2021/08/05 18:54:15")
; End File Header
(in-package :om)(load-lib-for (quote ("FDSDB_XXth_CT")))(setf *om-current-persistent* (om-load-patch1 "02 boulez_structures_ia_2" (quote ((let ((box (om-load-boxcomment "comment" (om-make-point 257 165) (quote "The same of precedent example, but$here outputting the matrix relative to$Inverse series ordered transpositions.$$References:$$Ligeti, György (1960), Pierre Boulez,$«die Reihe» n. 4, Theodore Presser Co.,$Pennsylvania (German original edition$Universal Edition, Wien 1958.") "" (om-make-point 567 202) nil (om-make-color 0 0 0) (om-make-font "Verdana" 12 :family "Verdana" :style (quote (:plain)) :mode (quote nil))))) (when (fboundp (quote set-active)) (set-active box nil)) box) (let ((box (om-load-boxcall (quote genfun) "I-MATRIX-PITCHES-MOD" (quote fdsdb_xxth_ct::i-matrix-pitches-mod) (quote ((om-load-inputfun (quote input-funbox) "Series" "SERIES" nil) (om-load-inputfun (quote input-funbox) "Module" "MODULE" 12))) (om-make-point 332 220) nil nil nil nil 1))) (when (fboundp (quote set-active)) (set-active box nil)) box) (let ((box (om-load-boxcall (quote genfun) "I-MATRIX-PITCHES" (quote fdsdb_xxth_ct::i-matrix-pitches) (quote ((om-load-inputfun (quote input-funbox) "Series" "SERIES" nil))) (om-make-point 126 220) nil nil nil nil 1))) (when (fboundp (quote set-active)) (set-active box nil)) box) (let ((box (om-load-editor-box1 "TEXTFILE 2" (quote textfile) (quote ((om-load-inputfun (quote input-funbox) "object" "self" nil) (om-load-inputfun (quote input-funbox) "input data or text" "exp-list" nil) (om-load-inputfunmenu1 (quote input-funmenu) "append or supersede" "ed-mode" "supersede" (list (list "append" "append") (list "supersede" "supersede"))) (om-load-inputfunmenu1 (quote input-funmenu) "eval interpretation mode" "eval-mode" "list" (list (list "text" "text") (list "data list" "data") (list "list" "list") (list "value" "value"))))) (om-make-point 314 362) (om-make-point 195 195) (load-buffer-textfile (quote ("(4 5 4 5 6 1 3 6 1 3 2 2)" "(5 6 5 6 1 2 4 1 2 4 3 3)" "(4 5 4 5 6 1 3 6 1 3 2 2)" "(5 6 5 6 1 2 4 1 2 4 3 3)" "(6 1 6 1 2 3 5 2 3 5 4 4)" "(1 2 1 2 3 4 6 3 4 6 5 5)" "(3 4 3 4 5 6 2 5 6 2 1 1)" "(6 1 6 1 2 3 5 2 3 5 4 4)" "(1 2 1 2 3 4 6 3 4 6 5 5)" "(3 4 3 4 5 6 2 5 6 2 1 1)" "(2 3 2 3 4 5 1 4 5 1 6 6)" "(2 3 2 3 4 5 1 4 5 1 6 6)" "")) (quote textfile) "supersede" "list") nil nil (pairlis (quote (winpos winsize)) (list (om-make-point 10 40) (om-make-point 335 275))) t nil nil nil))) (when (fboundp (quote set-active)) (set-active box nil)) box) (let ((box (om-load-editor-box1 "TEXTFILE" (quote textfile) (quote ((om-load-inputfun (quote input-funbox) "object" "self" nil) (om-load-inputfun (quote input-funbox) "input data or text" "exp-list" nil) (om-load-inputfunmenu1 (quote input-funmenu) "append or supersede" "ed-mode" "supersede" (list (list "append" "append") (list "supersede" "supersede"))) (om-load-inputfunmenu1 (quote input-funmenu) "eval interpretation mode" "eval-mode" "list" (list (list "text" "text") (list "data list" "data") (list "list" "list") (list "value" "value"))))) (om-make-point 94 362) (om-make-point 195 195) (load-buffer-textfile (quote ("(4 5 10 11 12 1 3 6 7 9 2 8)" "(5 6 11 12 1 2 4 7 8 10 3 9)" "(10 11 4 5 6 7 9 12 1 3 8 2)" "(11 12 5 6 7 8 10 1 2 4 9 3)" "(12 1 6 7 8 9 11 2 3 5 10 4)" "(1 2 7 8 9 10 12 3 4 6 11 5)" "(3 4 9 10 11 12 2 5 6 8 1 7)" "(6 7 12 1 2 3 5 8 9 11 4 10)" "(7 8 1 2 3 4 6 9 10 12 5 11)" "(9 10 3 4 5 6 8 11 12 2 7 1)" "(2 3 8 9 10 11 1 4 5 7 12 6)" "(8 9 2 3 4 5 7 10 11 1 6 12)" "")) (quote textfile) "supersede" "list") nil nil (pairlis (quote (winpos winsize)) (list (om-make-point 10 40) (om-make-point 335 275))) t nil nil nil))) (when (fboundp (quote set-active)) (set-active box nil)) box) (let ((box (om-load-boxcall (quote bastype) "aux" (quote t) (quote nil) (om-make-point 419 187) (om-make-point 27 30) 6 "6" nil))) (when (fboundp (quote set-active)) (set-active box nil)) box) (let ((box (om-load-editor-box1 "CHORD-SEQ" (quote chord-seq) (quote ((om-load-inputfun (quote input-funbox) "object" "self" nil) (om-load-inputfun (quote input-funbox) "pitches (mc): list or list of lists" "lmidic" (list 6000)) (om-load-inputfun (quote input-funbox) "onsets (ms): list" "lonset" (list 0 1000)) (om-load-inputfun (quote input-funbox) "durations (ms): list or list of lists" "ldur" (list 1000)) (om-load-inputfun (quote input-funbox) "velocities (0-127): list or list of lists" "lvel" (list 100)) (om-load-inputfun (quote input-funbox) "offsets (ms): list or list of lists" "loffset" (list 0)) (om-load-inputfun (quote input-funbox) "MIDI channels (1-16): list or list of lists" "lchan" (list 1)) (om-load-inputfun (quote input-funbox) "relative chords duration (0-100)" "legato" 0))) (om-make-point 40 39) (om-make-point 615 129) (let ((newobj (when (find-class (quote chord-seq) nil) (make-instance (quote chord-seq) :lmidic (quote ((7500) (7400) (6900) (6800) (6700) (6600) (6400) (7300) (7200) (7000) (6500) (7100))) :lonset (quote (0 1000 2000 3000 4000 5000 6000 7000 8000 9000 10000 11000 12000)) :ldur (quote ((1000) (1000) (1000) (1000) (1000) (1000) (1000) (1000) (1000) (1000) (1000) (1000))) :lvel (quote ((100) (100) (100) (100) (100) (100) (100) (100) (100) (100) (100) (100))) :loffset (quote ((0) (0) (0) (0) (0) (0) (0) (0) (0) (0) (0) (0))) :lchan (quote ((1) (1) (1) (1) (1) (1) (1) (1) (1) (1) (1) (1))) :legato 0)))) (load-port-info newobj (quote ((0) (0) (0) (0) (0) (0) (0) (0) (0) (0) (0) (0)))) (init-mus-color newobj (quote nil)) (set-extra-pairs newobj (quote nil)) (set-patch-pairs newobj (quote nil)) (set-name newobj nil) (set-tonalite newobj nil) newobj) "x" nil (pairlis (quote (approx fontsize staff cmnpref deltapict outport inport player zoom notechancolor? grillestep mode winsize winpos score-mode obj-mode cursor-mode show-stems scale)) (list 2 24 (quote g) (let ((newobj (make-instance (quote edition-values)))) (setf (paper-size newobj) (om-make-point 600 800)) (setf (top-margin newobj) 2) (setf (left-margin newobj) 1) (setf (right-margin newobj) 1) (setf (bottom-margin newobj) 1) (setf (orientation newobj) nil) (setf (scale newobj) nil) (setf (system-space newobj) (quote (1))) (setf (system-color newobj) (quote nil)) (setf (line-space newobj) 1) (setf (title newobj) nil) (setf (show-title? newobj) nil) (setf (show-page? newobj) nil) (setf (sheet-id newobj) nil) (setf (page-mode newobj) nil) newobj) (om-make-point 0 0) nil nil (quote :midi-player) 1 nil 1000 0 (om-make-point 370 280) (om-make-point 400 22) 0 1 (quote :normal) (quote t) nil)) t nil nil nil))) (when (fboundp (quote set-active)) (set-active box nil)) box))) (quote ((6 1 1 0 nil 0) (5 0 1 1 nil 0) (6 1 2 0 nil 0) (1 0 3 1 nil 0) (2 0 4 1 nil 0))) nil 6.17))
