; OM File Header - Saved 2020/09/23 20:55:27
; (6.13 :patc (om-make-point 172 160) (om-make-point 544 23) (om-make-point 736 715) "" 183 0 nil "2020/09/23 20:55:27")
; End File Header
(in-package :om)(load-lib-for (quote ("OMRuben")))(setf *om-current-persistent* (om-load-patch1 "pitch-softfilter-demo-omruben" (quote ((let ((box (om-load-boxcall (quote bastype) "list 12" (quote list) (quote nil) (om-make-point 578 323) (om-make-point 23 33) 9 "9" nil))) (when (fboundp (quote set-active)) (set-active box nil)) box) (let ((box (om-load-boxcall (quote genfun) "R-APPLY-CHANNEL-MULTISEQ 4" (quote r-apply-channel-multiseq) (quote ((om-load-inputfun (quote input-funbox) "chordseqs-list" "CHORDSEQS-LIST" nil) (om-load-inputfun (quote input-funbox) "channel" "CHANNEL" nil))) (om-make-point 495 368) nil nil nil nil 1))) (when (fboundp (quote set-active)) (set-active box nil)) box) (let ((box (om-load-boxcall (quote bastype) "list 11" (quote list) (quote nil) (om-make-point 431 337) (om-make-point 23 33) 9 "9" nil))) (when (fboundp (quote set-active)) (set-active box nil)) box) (let ((box (om-load-boxcall (quote genfun) "R-APPLY-CHANNEL-MULTISEQ 3" (quote r-apply-channel-multiseq) (quote ((om-load-inputfun (quote input-funbox) "chordseqs-list" "CHORDSEQS-LIST" nil) (om-load-inputfun (quote input-funbox) "channel" "CHANNEL" nil))) (om-make-point 348 382) nil nil nil nil 1))) (when (fboundp (quote set-active)) (set-active box nil)) box) (let ((box (om-load-boxcall (quote bastype) "list 10" (quote list) (quote nil) (om-make-point 274 339) (om-make-point 23 33) 9 "9" nil))) (when (fboundp (quote set-active)) (set-active box nil)) box) (let ((box (om-load-boxcall (quote genfun) "R-APPLY-CHANNEL-MULTISEQ 2" (quote r-apply-channel-multiseq) (quote ((om-load-inputfun (quote input-funbox) "chordseqs-list" "CHORDSEQS-LIST" nil) (om-load-inputfun (quote input-funbox) "channel" "CHANNEL" nil))) (om-make-point 191 384) nil nil nil nil 1))) (when (fboundp (quote set-active)) (set-active box nil)) box) (let ((box (om-load-boxcall (quote bastype) "list 4" (quote list) (quote nil) (om-make-point 138 345) (om-make-point 23 33) 9 "9" nil))) (when (fboundp (quote set-active)) (set-active box nil)) box) (let ((box (om-load-boxcall (quote genfun) "R-APPLY-CHANNEL-MULTISEQ" (quote r-apply-channel-multiseq) (quote ((om-load-inputfun (quote input-funbox) "chordseqs-list" "CHORDSEQS-LIST" nil) (om-load-inputfun (quote input-funbox) "channel" "CHANNEL" nil))) (om-make-point 55 390) nil nil nil nil 1))) (when (fboundp (quote set-active)) (set-active box nil)) box) (let ((box (om-load-boxcall (quote genfun) "R-LOPASS-PERCENT-MULTISEQ" (quote r-lopass-percent-multiseq) (quote ((om-load-inputfun (quote input-funbox) "chordseqs-list" "CHORDSEQS-LIST" (list 0)) (om-load-inputfun (quote input-funbox) "midicent-treshold" "MIDICENT-TRESHOLD" 0) (om-load-inputfun (quote input-funbox) "percent-of-notes-to-pass" "PERCENT-OF-NOTES-TO-PASS" 0))) (om-make-point 157 240) nil nil nil nil 1))) (when (fboundp (quote set-active)) (set-active box nil)) box) (let ((box (om-load-boxcall (quote genfun) "R-HIPASS-PERCENT-MULTISEQ" (quote r-hipass-percent-multiseq) (quote ((om-load-inputfun (quote input-funbox) "chordseqs-list" "CHORDSEQS-LIST" (list 0)) (om-load-inputfun (quote input-funbox) "midicent-treshold" "MIDICENT-TRESHOLD" 0) (om-load-inputfun (quote input-funbox) "percent-of-notes-to-pass" "PERCENT-OF-NOTES-TO-PASS" 0))) (om-make-point 14 253) nil nil nil nil 1))) (when (fboundp (quote set-active)) (set-active box nil)) box) (let ((box (om-load-boxcall (quote genfun) "R-BANDREJECT-PERCENT-MULTISEQ" (quote r-bandreject-percent-multiseq) (quote ((om-load-inputfun (quote input-funbox) "chordseqs-list" "CHORDSEQS-LIST" (list 0)) (om-load-inputfun (quote input-funbox) "midicent-minmax" "MIDICENT-MINMAX" (list 0)) (om-load-inputfun (quote input-funbox) "percent-of-notes-to-pass" "PERCENT-OF-NOTES-TO-PASS" 0))) (om-make-point 463 223) nil nil nil nil 1))) (when (fboundp (quote set-active)) (set-active box nil)) box) (let ((box (om-load-boxcall (quote genfun) "R-BANDPASS-PERCENT-MULTISEQ" (quote r-bandpass-percent-multiseq) (quote ((om-load-inputfun (quote input-funbox) "chordseqs-list" "CHORDSEQS-LIST" (list 0)) (om-load-inputfun (quote input-funbox) "midicent-minmax" "MIDICENT-MINMAX" (list 0)) (om-load-inputfun (quote input-funbox) "percent-of-notes-to-pass" "PERCENT-OF-NOTES-TO-PASS" 0))) (om-make-point 293 252) nil nil nil nil 1))) (when (fboundp (quote set-active)) (set-active box nil)) box) (let ((box (om-load-boxcall (quote bastype) "list 9" (quote list) (quote nil) (om-make-point 613 184) (om-make-point 28 30) 20 "20" nil))) (when (fboundp (quote set-active)) (set-active box nil)) box) (let ((box (om-load-boxcall (quote bastype) "list 8" (quote list) (quote nil) (om-make-point 422 197) (om-make-point 34 30) 20 "20" nil))) (when (fboundp (quote set-active)) (set-active box nil)) box) (let ((box (om-load-boxcall (quote bastype) "list 7" (quote list) (quote nil) (om-make-point 265 198) (om-make-point 28 30) 20 "20" nil))) (when (fboundp (quote set-active)) (set-active box nil)) box) (let ((box (om-load-boxcall (quote bastype) "list 6" (quote list) (quote nil) (om-make-point 104 210) (om-make-point 28 30) 20 "20" nil))) (when (fboundp (quote set-active)) (set-active box nil)) box) (let ((box (om-load-boxcall (quote bastype) "list 5" (quote list) (quote nil) (om-make-point 497 167) (om-make-point 90 30) (list 6000 8000) "(6000 8000)" nil))) (when (fboundp (quote set-active)) (set-active box nil)) box) (let ((box (om-load-boxcall (quote bastype) "list 3" (quote list) (quote nil) (om-make-point 343 152) (om-make-point 94 30) (list 8400 9600) "( 8400 9600)" nil))) (when (fboundp (quote set-active)) (set-active box nil)) box) (let ((box (om-load-boxcall (quote bastype) "list 2" (quote list) (quote nil) (om-make-point 209 184) (om-make-point 42 30) 6800 "6800" nil))) (when (fboundp (quote set-active)) (set-active box nil)) box) (let ((box (om-load-boxcall (quote bastype) "list" (quote list) (quote nil) (om-make-point 56 191) (om-make-point 42 30) 9450 "9450" nil))) (when (fboundp (quote set-active)) (set-active box nil)) box) (let ((box (om-load-editor-box1 "MULTI-SEQ 5" (quote multi-seq) (quote ((om-load-inputfun (quote input-funbox) "object" "self" nil) (om-load-inputfun (quote input-funbox) "list of CHORD-SEQ objects" "chord-seqs" (list (let ((newobj (when (find-class (quote chord-seq) nil) (make-instance (quote chord-seq) :lmidic (quote ((6000))) :lonset (quote (0 1000)) :ldur (quote ((1000))) :lvel (quote ((100))) :loffset (quote ((0))) :lchan (quote ((1))) :legato 0)))) (load-port-info newobj (quote ((0)))) (init-mus-color newobj (quote nil)) (set-extra-pairs newobj (quote nil)) (set-patch-pairs newobj (quote nil)) (set-name newobj nil) (set-tonalite newobj nil) newobj))))) (om-make-point 464 487) (om-make-point 127 146) (if (find-class (quote multi-seq) nil) (let ((newobj (make-instance (quote multi-seq) :chord-seqs (list (let ((newobj (when (find-class (quote chord-seq) nil) (make-instance (quote chord-seq) :lmidic (quote ((8286) (10480) (10942) (9184) (10586) (10084) (10364) (10084) (10080) (9452) (9286) (9764) (9442) (9460) (9288) (10084) (9442) (8286))) :lonset (quote (46 46 75 81 128 151 267 406 493 708 784 795 1010 1155 1248 1358 1364 4998 5213)) :ldur (quote ((4894) (1045) (29) (163) (17) (75) (17) (46) (12) (104) (157) (17) (46) (29) (99) (52) (29) (215))) :lvel (quote ((40) (34) (32) (37) (28) (36) (26) (27) (21) (18) (20) (17) (15) (13) (14) (13) (13) (11))) :loffset (quote ((0) (0) (0) (0) (0) (0) (0) (0) (0) (0) (0) (0) (0) (0) (0) (0) (0) (0))) :lchan (quote ((9) (9) (9) (9) (9) (9) (9) (9) (9) (9) (9) (9) (9) (9) (9) (9) (9) (9))) :legato 0)))) (load-port-info newobj (quote ((0) (0) (0) (0) (0) (0) (0) (0) (0) (0) (0) (0) (0) (0) (0) (0) (0) (0)))) (init-mus-color newobj (quote nil)) (set-extra-pairs newobj (quote nil)) (set-patch-pairs newobj (quote nil)) (set-name newobj nil) (set-tonalite newobj nil) newobj)) :from-file t))) (load-port-info newobj (quote (((0) (0) (0) (0) (0) (0) (0) (0) (0) (0) (0) (0) (0) (0) (0) (0) (0) (0))))) (init-mus-color newobj (quote nil)) (set-extra-pairs newobj (quote nil)) (set-patch-pairs newobj (quote nil)) (set-name newobj nil) (set-tonalite newobj nil) newobj)) nil nil (pairlis (quote (palette-mode scale show-stems obj-mode score-mode winpos winsize mode grillestep notechancolor? zoom player inport outport deltapict cmnpref staff fontsize approx cursor-mode)) (list 0 nil (quote t) 1 0 (om-make-point 400 23) (om-make-point 742 405) 0 1000 nil 1 (quote :osc-scoreplayer) 0 nil (om-make-point 0 0) (let ((newobj (make-instance (quote edition-values)))) (setf (paper-size newobj) (om-make-point 600 800)) (setf (top-margin newobj) 2) (setf (left-margin newobj) 1) (setf (right-margin newobj) 1) (setf (bottom-margin newobj) 1) (setf (orientation newobj) nil) (setf (scale newobj) nil) (setf (system-space newobj) (quote (1))) (setf (system-color newobj) (quote nil)) (setf (line-space newobj) 1) (setf (title newobj) nil) (setf (show-title? newobj) nil) (setf (show-page? newobj) nil) (setf (sheet-id newobj) nil) (setf (page-mode newobj) nil) newobj) (list (quote ggff)) 16 8 (quote :normal))) t nil nil nil))) (when (fboundp (quote set-active)) (set-active box nil)) box) (let ((box (om-load-editor-box1 "MULTI-SEQ 4" (quote multi-seq) (quote ((om-load-inputfun (quote input-funbox) "object" "self" nil) (om-load-inputfun (quote input-funbox) "list of CHORD-SEQ objects" "chord-seqs" (list (let ((newobj (when (find-class (quote chord-seq) nil) (make-instance (quote chord-seq) :lmidic (quote ((6000))) :lonset (quote (0 1000)) :ldur (quote ((1000))) :lvel (quote ((100))) :loffset (quote ((0))) :lchan (quote ((1))) :legato 0)))) (load-port-info newobj (quote ((0)))) (init-mus-color newobj (quote nil)) (set-extra-pairs newobj (quote nil)) (set-patch-pairs newobj (quote nil)) (set-name newobj nil) (set-tonalite newobj nil) newobj))))) (om-make-point 320 489) (om-make-point 127 146) (if (find-class (quote multi-seq) nil) (let ((newobj (make-instance (quote multi-seq) :chord-seqs (list (let ((newobj (when (find-class (quote chord-seq) nil) (make-instance (quote chord-seq) :lmidic (quote ((9094) (9290) (9464) (9450) (9188) (9444) (9440) (8466) (8468) (8698))) :lonset (quote (46 46 360 621 1271 1532 1654 2653 2897 5108 5120)) :ldur (quote ((3071) (29) (41) (17) (308) (41) (52) (145) (116) (12))) :lvel (quote ((33) (35) (23) (22) (20) (11) (12) (13) (13) (11))) :loffset (quote ((0) (0) (0) (0) (0) (0) (0) (0) (0) (0))) :lchan (quote ((9) (9) (9) (9) (9) (9) (9) (9) (9) (9))) :legato 0)))) (load-port-info newobj (quote ((0) (0) (0) (0) (0) (0) (0) (0) (0) (0)))) (init-mus-color newobj (quote nil)) (set-extra-pairs newobj (quote nil)) (set-patch-pairs newobj (quote nil)) (set-name newobj nil) (set-tonalite newobj nil) newobj)) :from-file t))) (load-port-info newobj (quote (((0) (0) (0) (0) (0) (0) (0) (0) (0) (0))))) (init-mus-color newobj (quote nil)) (set-extra-pairs newobj (quote nil)) (set-patch-pairs newobj (quote nil)) (set-name newobj nil) (set-tonalite newobj nil) newobj)) nil nil (pairlis (quote (palette-mode scale show-stems obj-mode score-mode winpos winsize mode grillestep notechancolor? zoom player inport outport deltapict cmnpref staff fontsize approx)) (list 0 nil (quote t) 1 0 (om-make-point 400 23) (om-make-point 742 405) 0 1000 nil 1 (quote :osc-scoreplayer) 0 nil (om-make-point 0 0) (let ((newobj (make-instance (quote edition-values)))) (setf (paper-size newobj) (om-make-point 600 800)) (setf (top-margin newobj) 2) (setf (left-margin newobj) 1) (setf (right-margin newobj) 1) (setf (bottom-margin newobj) 1) (setf (orientation newobj) nil) (setf (scale newobj) nil) (setf (system-space newobj) (quote (1))) (setf (system-color newobj) (quote nil)) (setf (line-space newobj) 1) (setf (title newobj) nil) (setf (show-title? newobj) nil) (setf (show-page? newobj) nil) (setf (sheet-id newobj) nil) (setf (page-mode newobj) nil) newobj) (list (quote ggff)) 16 8)) t nil nil nil))) (when (fboundp (quote set-active)) (set-active box nil)) box) (let ((box (om-load-editor-box1 "MULTI-SEQ 3" (quote multi-seq) (quote ((om-load-inputfun (quote input-funbox) "object" "self" nil) (om-load-inputfun (quote input-funbox) "list of CHORD-SEQ objects" "chord-seqs" (list (let ((newobj (when (find-class (quote chord-seq) nil) (make-instance (quote chord-seq) :lmidic (quote ((6000))) :lonset (quote (0 1000)) :ldur (quote ((1000))) :lvel (quote ((100))) :loffset (quote ((0))) :lchan (quote ((1))) :legato 0)))) (load-port-info newobj (quote ((0)))) (init-mus-color newobj (quote nil)) (set-extra-pairs newobj (quote nil)) (set-patch-pairs newobj (quote nil)) (set-name newobj nil) (set-tonalite newobj nil) newobj))))) (om-make-point 184 487) (om-make-point 127 146) (if (find-class (quote multi-seq) nil) (let ((newobj (make-instance (quote multi-seq) :chord-seqs (list (let ((newobj (when (find-class (quote chord-seq) nil) (make-instance (quote chord-seq) :lmidic (quote ((6336) (6322) (6214) (4164) (6288) (6308) (6334))) :lonset (quote (46 93 743 1016 4005 4766 5056 5091)) :ldur (quote ((12) (342) (12) (12) (12) (23) (35))) :lvel (quote ((46) (46) (22) (14) (11) (11) (12))) :loffset (quote ((0) (0) (0) (0) (0) (0) (0))) :lchan (quote ((9) (9) (9) (9) (9) (9) (9))) :legato 0)))) (load-port-info newobj (quote ((0) (0) (0) (0) (0) (0) (0)))) (init-mus-color newobj (quote nil)) (set-extra-pairs newobj (quote nil)) (set-patch-pairs newobj (quote nil)) (set-name newobj nil) (set-tonalite newobj nil) newobj)) :from-file t))) (load-port-info newobj (quote (((0) (0) (0) (0) (0) (0) (0))))) (init-mus-color newobj (quote nil)) (set-extra-pairs newobj (quote nil)) (set-patch-pairs newobj (quote nil)) (set-name newobj nil) (set-tonalite newobj nil) newobj)) nil nil (pairlis (quote (palette-mode scale show-stems obj-mode score-mode winpos winsize mode grillestep notechancolor? zoom player inport outport deltapict cmnpref staff fontsize approx)) (list 0 nil (quote t) 1 0 (om-make-point 400 23) (om-make-point 742 405) 0 1000 nil 1 (quote :osc-scoreplayer) 0 nil (om-make-point 0 0) (let ((newobj (make-instance (quote edition-values)))) (setf (paper-size newobj) (om-make-point 600 800)) (setf (top-margin newobj) 2) (setf (left-margin newobj) 1) (setf (right-margin newobj) 1) (setf (bottom-margin newobj) 1) (setf (orientation newobj) nil) (setf (scale newobj) nil) (setf (system-space newobj) (quote (1))) (setf (system-color newobj) (quote nil)) (setf (line-space newobj) 1) (setf (title newobj) nil) (setf (show-title? newobj) nil) (setf (show-page? newobj) nil) (setf (sheet-id newobj) nil) (setf (page-mode newobj) nil) newobj) (list (quote ggff)) 16 8)) t nil nil nil))) (when (fboundp (quote set-active)) (set-active box nil)) box) (let ((box (om-load-boxcomment "comment 2" (om-make-point 193 92) (quote "The percent filters passes in this case 20 percent of the notes the filter range by random selection.") "" (om-make-point 243 39) nil (om-make-color 0 0 0) (om-make-font "Verdana" 12 :family "Verdana" :style (quote (:plain)) :mode (quote nil))))) (when (fboundp (quote set-active)) (set-active box nil)) box) (let ((box (om-load-editor-box1 "MULTI-SEQ 2" (quote multi-seq) (quote ((om-load-inputfun (quote input-funbox) "object" "self" nil) (om-load-inputfun (quote input-funbox) "list of CHORD-SEQ objects" "chord-seqs" (list (let ((newobj (when (find-class (quote chord-seq) nil) (make-instance (quote chord-seq) :lmidic (quote ((6000))) :lonset (quote (0 1000)) :ldur (quote ((1000))) :lvel (quote ((100))) :loffset (quote ((0))) :lchan (quote ((1))) :legato 0)))) (load-port-info newobj (quote ((0)))) (init-mus-color newobj (quote nil)) (set-extra-pairs newobj (quote nil)) (set-patch-pairs newobj (quote nil)) (set-name newobj nil) (set-tonalite newobj nil) newobj))))) (om-make-point 37 487) (om-make-point 127 146) (if (find-class (quote multi-seq) nil) (let ((newobj (make-instance (quote multi-seq) :chord-seqs (list (let ((newobj (when (find-class (quote chord-seq) nil) (make-instance (quote chord-seq) :lmidic (quote ((10718) (9452) (10084) (10084) (9452))) :lonset (quote (64 110 406 540 708 812)) :ldur (quote ((23) (81) (46) (70) (104))) :lvel (quote ((31) (36) (27) (23) (18))) :loffset (quote ((0) (0) (0) (0) (0))) :lchan (quote ((9) (9) (9) (9) (9))) :legato 0)))) (load-port-info newobj (quote ((0) (0) (0) (0) (0)))) (init-mus-color newobj (quote nil)) (set-extra-pairs newobj (quote nil)) (set-patch-pairs newobj (quote nil)) (set-name newobj nil) (set-tonalite newobj nil) newobj)) :from-file t))) (load-port-info newobj (quote (((0) (0) (0) (0) (0))))) (init-mus-color newobj (quote nil)) (set-extra-pairs newobj (quote nil)) (set-patch-pairs newobj (quote nil)) (set-name newobj nil) (set-tonalite newobj nil) newobj)) nil nil (pairlis (quote (palette-mode scale show-stems obj-mode score-mode winpos winsize mode grillestep notechancolor? zoom player inport outport deltapict cmnpref staff fontsize approx cursor-mode)) (list 0 nil (quote t) 1 0 (om-make-point 400 23) (om-make-point 742 405) 0 1000 nil 1 (quote :osc-scoreplayer) 0 nil (om-make-point 0 0) (let ((newobj (make-instance (quote edition-values)))) (setf (paper-size newobj) (om-make-point 600 800)) (setf (top-margin newobj) 2) (setf (left-margin newobj) 1) (setf (right-margin newobj) 1) (setf (bottom-margin newobj) 1) (setf (orientation newobj) nil) (setf (scale newobj) nil) (setf (system-space newobj) (quote (1))) (setf (system-color newobj) (quote nil)) (setf (line-space newobj) 1) (setf (title newobj) nil) (setf (show-title? newobj) nil) (setf (show-page? newobj) nil) (setf (sheet-id newobj) nil) (setf (page-mode newobj) nil) newobj) (list (quote ggff)) 16 8 (quote :normal))) t nil nil nil))) (when (fboundp (quote set-active)) (set-active box nil)) box) (let ((box (om-load-boxcomment "comment" (om-make-point 177 43) (quote "A Tam-tam spectrum") "" (om-make-point 63 2) nil (om-make-color 0 0 0) (om-make-font "Verdana" 12 :family "Verdana" :style (quote (:plain)) :mode (quote nil))))) (when (fboundp (quote set-active)) (set-active box nil)) box) (let ((box (om-load-editor-box1 "MULTI-SEQ" (quote multi-seq) (quote ((om-load-inputfun (quote input-funbox) "object" "self" nil) (om-load-inputfun (quote input-funbox) "list of CHORD-SEQ objects" "chord-seqs" (list (let ((newobj (when (find-class (quote chord-seq) nil) (make-instance (quote chord-seq) :lmidic (quote ((6000))) :lonset (quote (0 1000)) :ldur (quote ((1000))) :lvel (quote ((100))) :loffset (quote ((0))) :lchan (quote ((1))) :legato 0)))) (load-port-info newobj (quote ((0)))) (init-mus-color newobj (quote nil)) (set-extra-pairs newobj (quote nil)) (set-patch-pairs newobj (quote nil)) (set-name newobj nil) (set-tonalite newobj nil) newobj))))) (om-make-point 63 34) (om-make-point 170 136) (if (find-class (quote multi-seq) nil) (let ((newobj (make-instance (quote multi-seq) :chord-seqs (list (let ((newobj (when (find-class (quote chord-seq) nil) (make-instance (quote chord-seq) :lmidic (quote ((5810) (6336) (7794) (8286) (8466) (8696) (9094) (9290) (10086) (10480) (10616) (10718) (10942) (9184) (6322) (9278) (9452) (10586) (10084) (9288) (9456) (10364) (9186) (10086) (9286) (9464) (10084) (9446) (6312) (10080) (7054) (10084) (9450) (7056) (9286) (6318) (9452) (6214) (10616) (4164) (9286) (9764) (10084) (9188) (9442) (10084) (9442) (4164) (9290) (4164) (10086) (9284) (4164) (9318) (9460) (9764) (10480) (9442) (9762) (9288) (10480) (9188) (6342) (10084) (9442) (10084) (9444) (9184) (6312) (10086) (9440) (8466) (6348) (9188) (9188) (9186) (8466) (9188) (6322) (9180) (8466) (9188) (6244) (8466) (9190) (6308) (8468) (6330) (8468) (9096) (9096) (6304) (8468) (9096) (9096) (5802) (6320) (5800) (9096) (8470) (6342) (9096) (6322) (9096) (9096) (6288) (7792) (6332) (6360) (6302) (7794) (6346) (7796) (6332) (7796) (7796) (6308) (6350) (7796) (7054) (8286) (8698) (6334) (7796) (7056) (8696) (8698) (8698) (7796) (8698) (7796) (7056) (7796) (6340) (7796) (7056) (7796) (7796) (7796))) :lonset (quote (46 46 46 46 46 46 46 46 46 46 46 64 75 81 93 93 110 128 151 197 232 267 273 290 348 360 406 441 459 493 511 540 621 627 633 650 708 743 766 778 784 795 818 830 882 952 1010 1016 1051 1062 1080 1097 1132 1138 1155 1167 1190 1225 1236 1248 1260 1271 1324 1358 1364 1486 1532 1602 1625 1631 1654 1759 1805 1840 2119 2188 2206 2310 2322 2421 2473 2485 2508 2653 2664 2810 2897 2978 3129 3146 3262 3286 3349 3373 3466 3483 3512 3541 3576 3605 3645 3680 3785 3802 3918 4005 4005 4052 4162 4272 4313 4354 4464 4557 4603 4754 4766 4859 4905 4992 4998 5039 5056 5056 5068 5074 5108 5178 5201 5312 5352 5404 5497 5561 5654 5741 5799 5950 6107 6124)) :ldur (quote ((3419) (12) (3936) (4894) (1683) (4975) (3071) (29) (35) (1045) (691) (23) (29) (163) (342) (29) (81) (17) (75) (70) (110) (17) (493) (64) (139) (41) (46) (186) (163) (12) (17) (70) (17) (4348) (70) (969) (104) (12) (12) (12) (157) (17) (58) (389) (93) (58) (46) (12) (17) (23) (52) (52) (3489) (17) (29) (23) (52) (41) (17) (99) (52) (308) (17) (52) (29) (29) (41) (157) (650) (17) (52) (383) (17) (99) (29) (23) (174) (64) (418) (12) (93) (75) (12) (145) (75) (163) (116) (255) (104) (70) (52) (157) (52) (58) (75) (23) (110) (12) (64) (35) (75) (64) (128) (46) (17) (12) (267) (58) (41) (41) (104) (52) (93) (46) (99) (93) (23) (35) (93) (41) (215) (12) (35) (75) (209) (12) (12) (12) (70) (12) (64) (134) (64) (17) (46) (87) (46) (35) (17))) :lvel (quote ((27) (46) (38) (40) (31) (26) (33) (35) (46) (34) (42) (31) (32) (37) (46) (31) (36) (28) (36) (39) (28) (26) (37) (29) (30) (23) (27) (23) (44) (21) (18) (23) (22) (15) (24) (33) (18) (22) (14) (14) (20) (17) (23) (20) (20) (20) (15) (14) (15) (14) (16) (17) (12) (13) (13) (11) (12) (15) (14) (14) (13) (20) (19) (13) (13) (11) (11) (17) (25) (11) (12) (19) (13) (13) (11) (11) (16) (13) (20) (11) (16) (13) (10) (13) (11) (20) (13) (17) (12) (11) (11) (16) (12) (11) (11) (11) (14) (11) (11) (12) (14) (11) (14) (10) (10) (11) (15) (14) (11) (12) (14) (14) (14) (13) (13) (13) (11) (11) (13) (10) (11) (11) (12) (13) (11) (10) (11) (11) (12) (10) (12) (11) (11) (10) (11) (10) (11) (10) (10))) :loffset (quote ((0) (0) (0) (0) (0) (0) (0) (0) (0) (0) (0) (0) (0) (0) (0) (0) (0) (0) (0) (0) (0) (0) (0) (0) (0) (0) (0) (0) (0) (0) (0) (0) (0) (0) (0) (0) (0) (0) (0) (0) (0) (0) (0) (0) (0) (0) (0) (0) (0) (0) (0) (0) (0) (0) (0) (0) (0) (0) (0) (0) (0) (0) (0) (0) (0) (0) (0) (0) (0) (0) (0) (0) (0) (0) (0) (0) (0) (0) (0) (0) (0) (0) (0) (0) (0) (0) (0) (0) (0) (0) (0) (0) (0) (0) (0) (0) (0) (0) (0) (0) (0) (0) (0) (0) (0) (0) (0) (0) (0) (0) (0) (0) (0) (0) (0) (0) (0) (0) (0) (0) (0) (0) (0) (0) (0) (0) (0) (0) (0) (0) (0) (0) (0) (0) (0) (0) (0) (0) (0))) :lchan (quote ((1) (1) (1) (1) (1) (1) (1) (1) (1) (1) (1) (1) (1) (1) (1) (1) (1) (1) (1) (1) (1) (1) (1) (1) (1) (1) (1) (1) (1) (1) (1) (1) (1) (1) (1) (1) (1) (1) (1) (1) (1) (1) (1) (1) (1) (1) (1) (1) (1) (1) (1) (1) (1) (1) (1) (1) (1) (1) (1) (1) (1) (1) (1) (1) (1) (1) (1) (1) (1) (1) (1) (1) (1) (1) (1) (1) (1) (1) (1) (1) (1) (1) (1) (1) (1) (1) (1) (1) (1) (1) (1) (1) (1) (1) (1) (1) (1) (1) (1) (1) (1) (1) (1) (1) (1) (1) (1) (1) (1) (1) (1) (1) (1) (1) (1) (1) (1) (1) (1) (1) (1) (1) (1) (1) (1) (1) (1) (1) (1) (1) (1) (1) (1) (1) (1) (1) (1) (1) (1))) :legato 0)))) (load-port-info newobj (quote ((0) (0) (0) (0) (0) (0) (0) (0) (0) (0) (0) (0) (0) (0) (0) (0) (0) (0) (0) (0) (0) (0) (0) (0) (0) (0) (0) (0) (0) (0) (0) (0) (0) (0) (0) (0) (0) (0) (0) (0) (0) (0) (0) (0) (0) (0) (0) (0) (0) (0) (0) (0) (0) (0) (0) (0) (0) (0) (0) (0) (0) (0) (0) (0) (0) (0) (0) (0) (0) (0) (0) (0) (0) (0) (0) (0) (0) (0) (0) (0) (0) (0) (0) (0) (0) (0) (0) (0) (0) (0) (0) (0) (0) (0) (0) (0) (0) (0) (0) (0) (0) (0) (0) (0) (0) (0) (0) (0) (0) (0) (0) (0) (0) (0) (0) (0) (0) (0) (0) (0) (0) (0) (0) (0) (0) (0) (0) (0) (0) (0) (0) (0) (0) (0) (0) (0) (0) (0) (0)))) (init-mus-color newobj (quote nil)) (set-extra-pairs newobj (quote nil)) (set-patch-pairs newobj (quote ((nil (om-load-patch-abs1 "patch" (quote nil) (quote nil) 6.13 nil "" (om-make-point 200 200) (om-make-point 400 500)))))) (set-name newobj nil) (set-tonalite newobj nil) newobj)) :from-file t))) (load-port-info newobj (quote (((0) (0) (0) (0) (0) (0) (0) (0) (0) (0) (0) (0) (0) (0) (0) (0) (0) (0) (0) (0) (0) (0) (0) (0) (0) (0) (0) (0) (0) (0) (0) (0) (0) (0) (0) (0) (0) (0) (0) (0) (0) (0) (0) (0) (0) (0) (0) (0) (0) (0) (0) (0) (0) (0) (0) (0) (0) (0) (0) (0) (0) (0) (0) (0) (0) (0) (0) (0) (0) (0) (0) (0) (0) (0) (0) (0) (0) (0) (0) (0) (0) (0) (0) (0) (0) (0) (0) (0) (0) (0) (0) (0) (0) (0) (0) (0) (0) (0) (0) (0) (0) (0) (0) (0) (0) (0) (0) (0) (0) (0) (0) (0) (0) (0) (0) (0) (0) (0) (0) (0) (0) (0) (0) (0) (0) (0) (0) (0) (0) (0) (0) (0) (0) (0) (0) (0) (0) (0) (0))))) (init-mus-color newobj (quote nil)) (set-extra-pairs newobj (quote nil)) (set-patch-pairs newobj (quote ((nil (om-load-patch-abs1 "patch" (quote nil) (quote nil) 6.13 nil "" (om-make-point 200 200) (om-make-point 400 500))) ((0) (om-load-patch-abs1 "patch" (quote nil) (quote nil) 6.13 nil "" (om-make-point 200 200) (om-make-point 400 500)))))) (set-name newobj nil) (set-tonalite newobj nil) newobj)) "x" nil (pairlis (quote (palette-mode scale show-stems obj-mode score-mode winpos winsize mode grillestep notechancolor? zoom player inport outport deltapict cmnpref staff fontsize approx)) (list 0 nil (quote t) 1 0 (om-make-point 400 23) (om-make-point 742 405) 0 1000 nil 1 (quote :osc-scoreplayer) 0 nil (om-make-point 0 0) (let ((newobj (make-instance (quote edition-values)))) (setf (paper-size newobj) (om-make-point 600 800)) (setf (top-margin newobj) 2) (setf (left-margin newobj) 1) (setf (right-margin newobj) 1) (setf (bottom-margin newobj) 1) (setf (orientation newobj) nil) (setf (scale newobj) nil) (setf (system-space newobj) (quote (1))) (setf (system-color newobj) (quote nil)) (setf (line-space newobj) 1) (setf (title newobj) nil) (setf (show-title? newobj) nil) (setf (show-page? newobj) nil) (setf (sheet-id newobj) nil) (setf (page-mode newobj) nil) newobj) (list (quote ggff)) 16 8)) t nil nil nil))) (when (fboundp (quote set-active)) (set-active box nil)) box))) (quote ((10 0 1 0 nil 0) (0 0 1 1 nil 0) (11 0 3 0 nil 0) (2 0 3 1 nil 0) (8 0 5 0 nil 0) (4 0 5 1 nil 0) (9 0 7 0 nil 0) (6 0 7 1 nil 0) (26 1 8 0 nil 0) (18 0 8 1 nil 0) (14 0 8 2 nil 0) (26 1 9 0 nil 0) (19 0 9 1 nil 0) (15 0 9 2 nil 0) (26 1 10 0 nil 0) (16 0 10 1 nil 0) (12 0 10 2 nil 0) (26 1 11 0 nil 0) (17 0 11 1 nil 0) (13 0 11 2 nil 0) (1 0 20 1 nil 0) (3 0 21 1 nil 0) (5 0 22 1 nil 0) (7 0 24 1 nil 0))) nil 6.13))
