; OM File Header - Saved 2020/09/23 20:51:42
; (6.16 :patc (om-make-point 496 60) (om-make-point -8 -8) (om-make-point 1366 665) "" 183 0 "2020/03/17 13:28:59" "2020/08/24 22:00:40")
; End File Header
(in-package :om)(load-lib-for (quote ("OM-JI" "Morphologie")))(setf *om-current-persistent* (om-load-patch1 "Partch" (quote ((let ((box (om-load-boxcall (quote bastype) "aux 6" (quote t) (quote nil) (om-make-point 503 70) (om-make-point 26 28) 5 "5" nil))) (when (fboundp (quote set-active)) (set-active box nil)) box) (let ((box (om-load-boxcall (quote bastype) "aux 4" (quote t) (quote nil) (om-make-point 477 47) (om-make-point 26 28) 8 "8" nil))) (when (fboundp (quote set-active)) (set-active box nil)) box) (let ((box (om-load-boxcall (quote genfun) "OM-ROUND 2" (quote om-round) (quote ((om-load-inputfun (quote input-funbox) "number or list" "N" 1))) (om-make-point 526 163) nil nil nil nil 1))) (when (fboundp (quote set-active)) (set-active box nil)) box) (let ((box (om-load-boxcall (quote genfun) "OM-SCALE" (quote om-scale) (quote ((om-load-inputfun (quote input-funbox) "number or list" "SELF" 1) (om-load-inputfun (quote input-funbox) "a number" "MINOUT" 6) (om-load-inputfun (quote input-funbox) "a number" "MAXOUT" 3))) (om-make-point 468 100) nil nil nil nil 1))) (when (fboundp (quote set-active)) (set-active box nil)) box) (let ((box (om-load-boxcall (quote genfun) "X->DX" (quote x->dx) (quote ((om-load-inputfun (quote input-funbox) "a list of numbers" "SELF" (list 0 1)))) (om-make-point 36 112) nil nil nil nil 1))) (when (fboundp (quote set-active)) (set-active box nil)) box) (let ((box (om-load-boxcall (quote lispfun) "FIRST" (quote first) (quote ((om-load-inputfun (quote input-funbox) "LIST" "LIST" nil))) (om-make-point 216 512) nil (list (list 11 8 3 11 5 6 7 6 13 3 9 13 6 5 12 3 9 12 6 5 11 3 8 11)) "x" nil 1))) (when (fboundp (quote set-active)) (set-active box nil)) box) (let ((box (om-load-boxcall (quote bastype) "aux" (quote t) (quote nil) (om-make-point 110 494) (om-make-point 45 28) (quote perfil) "perfil" nil))) (when (fboundp (quote set-active)) (set-active box nil)) box) (let ((box (om-load-boxcall (quote lispfun) "LIST" (quote list) (quote ((om-load-inputfun (quote input-funbox) "add-input" "add-input" nil) (om-load-inputfun (quote input-funbox) "add-input" "add-input" nil))) (om-make-point 96 524) nil (list (list (list 11 8 3 11 5 6 7 6 13 3 9 13 6 5 12 3 9 12 6 5 11 3 8 11) (quote perfil))) "x" nil 1))) (when (fboundp (quote set-active)) (set-active box nil)) box) (let ((box (om-load-boxcall (quote lispfun) "PRINT 3" (quote print) (quote ((om-load-inputfun (quote input-funbox) "SOMETHING" "SOMETHING" nil))) (om-make-point 216 455) nil (list (list (list 11 8 3 11 5 6 7 6 13 3 9 13 6 5 12 3 9 12 6 5 11 3 8 11) (quote perfil))) "x" nil 1))) (when (fboundp (quote set-active)) (set-active box nil)) box) (let ((box (om-load-boxcall (quote lispfun) "PRINT 2" (quote print) (quote ((om-load-inputfun (quote input-funbox) "SOMETHING" "SOMETHING" nil))) (om-make-point 836 322) nil (list (list 5 4 3 5 4 4)) "x" nil 1))) (when (fboundp (quote set-active)) (set-active box nil)) box) (let ((box (om-load-boxcall (quote genfun) "OM=" (quote om=) (quote ((om-load-inputfun (quote input-funbox) "a number" "A" 0) (om-load-inputfun (quote input-funbox) "a number" "B" 0))) (om-make-point 654 342) (om-make-point 25 35) nil nil nil 1))) (when (fboundp (quote set-active)) (set-active box nil)) box) (let ((box (om-load-boxcall (quote genfun) "OM-RANDOM" (quote om-random) (quote ((om-load-inputfun (quote input-funbox) "min" "LOW" 0) (om-load-inputfun (quote input-funbox) "max" "HIGH" 1))) (om-make-point 597 285) nil nil nil nil 1))) (when (fboundp (quote set-active)) (set-active box nil)) box) (let ((box (om-load-boxcall (quote genfun) "OMIF" (quote omif) (quote ((om-load-inputfun (quote input-funbox) "IF" "TEST" nil) (om-load-inputfun (quote input-funbox) "THEN" "ACTION" nil) (om-load-inputfun (quote input-funbox) "ELSE" "ELSE" nil))) (om-make-point 726 313) nil nil nil nil 1))) (when (fboundp (quote set-active)) (set-active box nil)) box) (let ((box (om-load-boxcall (quote lispfun) "PRINT" (quote print) (quote ((om-load-inputfun (quote input-funbox) "SOMETHING" "SOMETHING" nil))) (om-make-point 389 568) nil (list (list 7908 7300 6708 7908 7006 7300 7300 7300 8050 6708 7300 8050 7300 7006 8050 6708 7300 8050 7300 7006 7908 6708 7300 7908)) "x" nil 1))) (when (fboundp (quote set-active)) (set-active box nil)) box) (let ((box (om-load-boxcall (quote abstraction) "Construcao de perfil" (om-load-patch-abs1 "Construcao de perfil" (quote ((let ((box (om-load-boxcall (quote genfun) "X-APPEND 2" (quote x-append) (quote ((om-load-inputfun (quote input-funbox) "first element" "L1?" nil) (om-load-inputfun (quote input-funbox) "second element" "L2?" nil))) (om-make-point 272 367) nil nil nil nil 1))) (when (fboundp (quote set-active)) (set-active box nil)) box) (let ((box (om-load-boxcall (quote bastype) "aux 4" (quote t) (quote nil) (om-make-point 484 129) (om-make-point 26 28) 1 "1" nil))) (when (fboundp (quote set-active)) (set-active box nil)) box) (let ((box (om-load-boxcall (quote bastype) "aux 3" (quote t) (quote nil) (om-make-point 453 129) (om-make-point 26 28) 0 "0" nil))) (when (fboundp (quote set-active)) (set-active box nil)) box) (let ((box (om-load-boxcall (quote genfun) "OM-RANDOM 2" (quote om-random) (quote ((om-load-inputfun (quote input-funbox) "min" "LOW" 0) (om-load-inputfun (quote input-funbox) "max" "HIGH" 1))) (om-make-point 435 159) nil nil nil nil 1))) (when (fboundp (quote set-active)) (set-active box nil)) box) (let ((box (om-load-boxcall (quote bastype) "aux 2" (quote t) (quote nil) (om-make-point 403 237) (om-make-point 26 28) 0 "0" nil))) (when (fboundp (quote set-active)) (set-active box nil)) box) (let ((box (om-load-boxcall (quote genfun) "OM=" (quote om=) (quote ((om-load-inputfun (quote input-funbox) "a number" "A" 0) (om-load-inputfun (quote input-funbox) "a number" "B" 0))) (om-make-point 452 274) nil nil nil nil 1))) (when (fboundp (quote set-active)) (set-active box nil)) box) (let ((box (om-load-boxcall (quote genfun) "OMIF" (quote omif) (quote ((om-load-inputfun (quote input-funbox) "IF" "TEST" nil) (om-load-inputfun (quote input-funbox) "THEN" "ACTION" nil) (om-load-inputfun (quote input-funbox) "ELSE" "ELSE" nil))) (om-make-point 316 462) (om-make-point 108 56) nil nil nil 1))) (when (fboundp (quote set-active)) (set-active box nil)) box) (let ((box (om-load-boxout "output 2" 1 (om-make-point 247 582) (quote ((om-load-inputfun (quote input-funbox) "" "out" nil))) nil nil))) (when (fboundp (quote set-active)) (set-active box nil)) box) (let ((box (om-load-boxout "output" 0 (om-make-point 113 573) (quote ((om-load-inputfun (quote input-funbox) "" "out" nil))) nil nil))) (when (fboundp (quote set-active)) (set-active box nil)) box) (let ((box (om-load-boxin "input" 0 (om-make-point 101 50) "" nil nil nil))) (when (fboundp (quote set-active)) (set-active box nil)) box) (let ((box (om-load-boxcall (quote genfun) "X->DX" (quote x->dx) (quote ((om-load-inputfun (quote input-funbox) "a list of numbers" "SELF" (list 0 1)))) (om-make-point 50 107) nil nil nil nil 1))) (when (fboundp (quote set-active)) (set-active box nil)) box) (let ((box (om-load-boxcall (quote genfun) "OM-SCALE" (quote om-scale) (quote ((om-load-inputfun (quote input-funbox) "number or list" "SELF" 1) (om-load-inputfun (quote input-funbox) "a number" "MINOUT" 0) (om-load-inputfun (quote input-funbox) "a number" "MAXOUT" 0))) (om-make-point 103 310) nil nil nil nil 1))) (when (fboundp (quote set-active)) (set-active box nil)) box) (let ((box (om-load-boxcall (quote bastype) "aux" (quote t) (quote nil) (om-make-point 127 248) (om-make-point 26 28) 3 "3" nil))) (when (fboundp (quote set-active)) (set-active box nil)) box) (let ((box (om-load-boxcall (quote genfun) "OM-RANDOM" (quote om-random) (quote ((om-load-inputfun (quote input-funbox) "min" "LOW" 0) (om-load-inputfun (quote input-funbox) "max" "HIGH" 1))) (om-make-point 148 190) nil nil nil nil 1))) (when (fboundp (quote set-active)) (set-active box nil)) box) (let ((box (om-load-boxcall (quote bastype) "aux 11" (quote t) (quote nil) (om-make-point 124 155) (om-make-point 26 28) 7 "7" nil))) (when (fboundp (quote set-active)) (set-active box nil)) box) (let ((box (om-load-boxcall (quote bastype) "aux 12" (quote t) (quote nil) (om-make-point 188 160) (om-make-point 32 28) 13 "13" nil))) (when (fboundp (quote set-active)) (set-active box nil)) box) (let ((box (om-load-boxcall (quote lispfun) "REVERSE" (quote reverse) (quote ((om-load-inputfun (quote input-funbox) "SEQUENCE" "SEQUENCE" nil))) (om-make-point 209 315) nil nil nil nil 1))) (when (fboundp (quote set-active)) (set-active box nil)) box) (let ((box (om-load-boxcall (quote genfun) "X-APPEND" (quote x-append) (quote ((om-load-inputfun (quote input-funbox) "first element" "L1?" nil) (om-load-inputfun (quote input-funbox) "second element" "L2?" nil))) (om-make-point 42 444) nil nil nil nil 1))) (when (fboundp (quote set-active)) (set-active box nil)) box) (let ((box (om-load-boxcomment "comment" (om-make-point 100 60) (quote "se o perfil È mais aberto ou fechado") "" (om-make-point 227 191) nil (om-make-color 0 0 0) (om-make-font "Verdana" 12 :family "Verdana" :style (quote (:plain)) :mode (quote nil))))) (when (fboundp (quote set-active)) (set-active box nil)) box) (let ((box (om-load-boxcall (quote genfun) "X-APPEND 3" (quote x-append) (quote ((om-load-inputfun (quote input-funbox) "first element" "L1?" nil) (om-load-inputfun (quote input-funbox) "second element" "L2?" nil))) (om-make-point 183 450) nil nil nil nil 1))) (when (fboundp (quote set-active)) (set-active box nil)) box))) (quote ((16 0 0 0 nil 0) (16 0 0 1 nil 0) (2 0 3 0 nil 0) (1 0 3 1 nil 0) (4 0 5 0 nil 0) (3 0 5 1 nil 0) (5 0 6 0 nil 0) (19 0 6 1 nil 0) (0 0 6 2 nil 0) (6 0 7 0 nil 0) (17 0 8 0 nil 0) (9 0 10 0 nil 0) (10 0 11 0 nil 0) (12 0 11 1 nil 0) (13 0 11 2 nil 0) (14 0 13 0 nil 0) (15 0 13 1 nil 0) (11 0 16 0 nil 0) (10 0 17 0 nil 0) (16 0 17 1 nil 0) (16 0 19 0 nil 0) (11 0 19 1 nil 0))) 6.16 nil "" (om-make-point 108 5) (om-make-point 597 678)) (quote ((om-load-inputfun (quote input-funbox) "" "input" nil))) (om-make-point 597/10 165) nil (list (list 11 8 3 11 5 6 27/4 11/2 13 3 37/4 13) (list 27/4 11/2 13 3 37/4 13 21/4 9/2 9 3 27/4 9)) "x" "Construcao de perfil"))) (when (fboundp (quote set-active)) (set-active box nil)) box) (let ((box (om-load-boxcall (quote genfun) "X-APPEND 4" (quote x-append) (quote ((om-load-inputfun (quote input-funbox) "first element" "L1?" nil) (om-load-inputfun (quote input-funbox) "second element" "L2?" nil))) (om-make-point 78 347) nil (list (list 11 8 3 11 5 6 5 5 9 3 7 9 7 6 13 3 9 13 5 5 9 3 7 9)) "x" nil 1))) (when (fboundp (quote set-active)) (set-active box nil)) box) (let ((box (om-load-editor-box1 "BPF 2" (quote bpf) (quote ((om-load-inputfun (quote input-funbox) "object" "self" nil) (om-load-inputfun (quote input-funbox) "X coordinates (list)" "x-points" (list 0 100)) (om-load-inputfun (quote input-funbox) "Y coordinates (list)" "y-points" (list 0 100)) (om-load-inputfun (quote input-funbox) "precision (integer) [0 - 10]" "decimals" 0))) (om-make-point 145 240) (om-make-point 96 79) (let ((newobj (when (find-class (quote bpf) nil) (let ((newbpf (simple-bpf-from-list (quote (0 100 200 300 400 500 600 700 800 900 1000 1100)) (quote (7 6 13 3 9 13 5 5 9 3 7 9)) (quote bpf) 0))) (setf (bpfcolor newbpf) (om-make-color 0 0 0)) (set-name newbpf nil) newbpf)))) (when newobj) newobj) "x" nil (pairlis (quote (winsize winpos picture)) (list (om-make-point 1366 725) (om-make-point -8 -8) nil)) t nil nil nil))) (when (fboundp (quote set-active)) (set-active box nil)) box) (let ((box (om-load-boxcall (quote bastype) "aux 21" (quote t) (quote nil) (om-make-point 849 54) (om-make-point 26 28) 8 "8" nil))) (when (fboundp (quote set-active)) (set-active box nil)) box) (let ((box (om-load-boxcall (quote bastype) "aux 20" (quote t) (quote nil) (om-make-point 805 66) (om-make-point 26 28) 3 "3" nil))) (when (fboundp (quote set-active)) (set-active box nil)) box) (let ((box (om-load-boxcall (quote genfun) "OM-RANDOM 4" (quote om-random) (quote ((om-load-inputfun (quote input-funbox) "min" "LOW" 0) (om-load-inputfun (quote input-funbox) "max" "HIGH" 1))) (om-make-point 809 99) nil nil nil nil 1))) (when (fboundp (quote set-active)) (set-active box nil)) box) (let ((box (om-load-boxcall (quote bastype) "aux 19" (quote t) (quote nil) (om-make-point 703 111) (om-make-point 32 28) 13 "13" nil))) (when (fboundp (quote set-active)) (set-active box nil)) box) (let ((box (om-load-boxcall (quote bastype) "aux 18" (quote t) (quote nil) (om-make-point 655 113) (om-make-point 26 28) 5 "5" nil))) (when (fboundp (quote set-active)) (set-active box nil)) box) (let ((box (om-load-boxcall (quote genfun) "OM-RANDOM 3" (quote om-random) (quote ((om-load-inputfun (quote input-funbox) "min" "LOW" 0) (om-load-inputfun (quote input-funbox) "max" "HIGH" 1))) (om-make-point 675 140) nil nil nil nil 1))) (when (fboundp (quote set-active)) (set-active box nil)) box) (let ((box (om-load-boxcall (quote bastype) "aux 17" (quote t) (quote nil) (om-make-point 277 283) (om-make-point 26 28) 5 "5" nil))) (when (fboundp (quote set-active)) (set-active box nil)) box) (let ((box (om-load-boxcall (quote abstraction) "padrao" (om-load-patch-abs1 "padrao" (quote ((let ((box (om-load-boxcall (quote genfun) "FLAT 2" (quote flat) (quote ((om-load-inputfun (quote input-funbox) "a list" "LST" nil))) (om-make-point 231 493) nil nil nil nil 1))) (when (fboundp (quote set-active)) (set-active box nil)) box) (let ((box (om-load-boxwithed1 (quote box-with-win) "OMLOOP" (quote omloop) (quote ((om-load-inputfun (quote input-funbox) "" "input" nil))) (om-make-point 208 416) nil nil nil (list (let ((box (om-load-boxcall (quote genfun) "inlist 2" (quote listloop) (quote ((om-load-inputfun (quote input-funbox) "list to iterate" "LIST" nil))) (om-make-point 309 238) nil nil nil nil 1))) (when (fboundp (quote set-active)) (set-active box nil)) box) (let ((box (om-load-boxcall (quote genfun) "FLAT" (quote flat) (quote ((om-load-inputfun (quote input-funbox) "a list" "LST" nil))) (om-make-point 411 294) nil nil nil nil 1))) (when (fboundp (quote set-active)) (set-active box nil)) box) (let ((box (om-load-boxcall (quote genfun) "OM-ROUND 2" (quote om-round) (quote ((om-load-inputfun (quote input-funbox) "number or list" "N" 1))) (om-make-point 285 126) nil nil nil nil 1))) (when (fboundp (quote set-active)) (set-active box nil)) box) (let ((box (om-load-boxcall (quote genfun) "REPEAT-N 2" (quote repeat-n) (quote ((om-load-inputfun (quote input-funbox) "something" "SELF" nil) (om-load-inputfun (quote input-funbox) "times" "N" 0))) (om-make-point 375 172) nil nil nil nil 1))) (when (fboundp (quote set-active)) (set-active box nil)) box) (let ((box (om-load-boxcall (quote bastype) "aux" (quote t) (quote nil) (om-make-point 272 79) (om-make-point 26 28) 5 "5" nil))) (when (fboundp (quote set-active)) (set-active box nil)) box) (let ((box (om-load-boxcall (quote genfun) "OM/" (quote om/) (quote ((om-load-inputfun (quote input-funbox) "number or list" "ARG1" 1) (om-load-inputfun (quote input-funbox) "number or list" "ARG2" 1))) (om-make-point 262 109) (om-make-point 17 36) nil nil nil 1))) (when (fboundp (quote set-active)) (set-active box nil)) box) (let ((box (om-load-boxcall (quote lispfun) "LENGTH" (quote length) (quote ((om-load-inputfun (quote input-funbox) "SEQUENCE" "SEQUENCE" nil))) (om-make-point 216 61) nil nil nil nil 1))) (when (fboundp (quote set-active)) (set-active box nil)) box) (let ((box (om-load-boxcall (quote bastype) "list" (quote list) (quote nil) (om-make-point 347 68) (om-make-point 75 28) (list 4 3 1 4 2) "(4 3 1 4 2)" nil))) (when (fboundp (quote set-active)) (set-active box nil)) box) (let ((box (om-load-boxcall (quote genfun) "OM-ROUND" (quote om-round) (quote ((om-load-inputfun (quote input-funbox) "number or list" "N" 1))) (om-make-point 521 333) nil nil nil nil 1))) (when (fboundp (quote set-active)) (set-active box nil)) box) (let ((box (om-load-boxcall (quote bastype) "aux 4" (quote t) (quote nil) (om-make-point 589 176) (om-make-point 26 28) 4 "4" nil))) (when (fboundp (quote set-active)) (set-active box nil)) box) (let ((box (om-load-boxcall (quote bastype) "aux 3" (quote t) (quote nil) (om-make-point 517 150) (om-make-point 26 28) 1 "1" nil))) (when (fboundp (quote set-active)) (set-active box nil)) box) (let ((box (om-load-boxcall (quote bastype) "aux 2" (quote t) (quote nil) (om-make-point 467 60) (om-make-point 87 28) (list 11 8 3 11 5) "(11 8 3 11 5)" nil))) (when (fboundp (quote set-active)) (set-active box nil)) box) (let ((box (om-load-boxcall (quote genfun) "OM-SCALE" (quote om-scale) (quote ((om-load-inputfun (quote input-funbox) "number or list" "SELF" 1) (om-load-inputfun (quote input-funbox) "a number" "MINOUT" 0) (om-load-inputfun (quote input-funbox) "a number" "MAXOUT" 0))) (om-make-point 497 222) nil nil nil nil 1))) (when (fboundp (quote set-active)) (set-active box nil)) box) (let ((box (om-load-boxcall (quote genfun) "collect" (quote listing) (quote ((om-load-inputfun (quote input-funbox) "anything" "DATA" nil))) (om-make-point 245 326) nil nil nil nil 3))) (when (fboundp (quote set-active)) (set-active box nil)) box) (let ((box (om-load-boxcall (quote genfun) "REPEAT-N" (quote repeat-n) (quote ((om-load-inputfun (quote input-funbox) "something" "SELF" nil) (om-load-inputfun (quote input-funbox) "times" "N" 0))) (om-make-point 207 225) nil nil nil nil 1))) (when (fboundp (quote set-active)) (set-active box nil)) box) (let ((box (om-load-boxcall (quote genfun) "inlist" (quote listloop) (quote ((om-load-inputfun (quote input-funbox) "list to iterate" "LIST" nil))) (om-make-point 87 114) nil nil nil nil 1))) (when (fboundp (quote set-active)) (set-active box nil)) box) (let ((box (om-load-boxin "input" 0 (om-make-point 12 46) "" nil nil nil))) (when (fboundp (quote set-active)) (set-active box nil)) box) (let ((box (om-load-seqbox "finally" (quote finaldo) (quote ((om-load-inputfun (quote input-funbox) "value to return" "VAL" nil))) (om-make-point 308 458) nil nil nil 0))) (when (fboundp (quote set-active)) (set-active box nil)) box) (let ((box (om-load-seqbox "eachTime" (quote loopdo) (quote ((om-load-inputfun (quote input-funbox) "operations to do" "OP" nil))) (om-make-point 208 458) nil nil nil 0))) (when (fboundp (quote set-active)) (set-active box nil)) box)) (quote ((1 0 0 0 nil 0) (3 0 1 0 nil 0) (5 0 2 0 nil 0) (7 0 3 0 nil 0) (2 0 3 1 nil 0) (6 0 5 0 nil 0) (4 0 5 1 nil 0) (16 0 6 0 nil 0) (12 0 8 0 nil 0) (11 0 12 0 nil 0) (10 0 12 1 nil 0) (9 0 12 2 nil 0) (14 0 13 0 nil 0) (15 0 14 0 nil 0) (0 0 14 1 nil 0) (16 0 15 0 nil 0) (13 1 17 0 nil 0) (13 0 18 0 nil 0))) 1 "omloop" nil))) (when (fboundp (quote set-active)) (set-active box nil)) box) (let ((box (om-load-boxcall (quote genfun) "PTRN-SMOOTH" (quote morph::ptrn-smooth) (quote ((om-load-inputfun (quote input-funbox) "" "LIST" (list (quote morph::a) (quote morph::b) (quote morph::b) (quote morph::b) (quote morph::c) (quote morph::c) (quote morph::c) (quote morph::d) (quote morph::a) (quote morph::a) (quote morph::b) (quote morph::b) (quote morph::c) (quote morph::c) (quote morph::d) (quote morph::e) (quote morph::d) (quote morph::d) (quote morph::d) (quote morph::b) (quote morph::b))))) (om-make-point 75 432) nil nil nil nil 1))) (when (fboundp (quote set-active)) (set-active box nil)) box) (let ((box (om-load-boxcall (quote lispfun) "REVERSE" (quote reverse) (quote ((om-load-inputfun (quote input-funbox) "SEQUENCE" "SEQUENCE" nil))) (om-make-point 249 217) nil nil nil nil 1))) (when (fboundp (quote set-active)) (set-active box nil)) box) (let ((box (om-load-boxcall (quote bastype) "aux 2" (quote t) (quote nil) (om-make-point 216 105) (om-make-point 26 28) 1 "1" nil))) (when (fboundp (quote set-active)) (set-active box nil)) box) (let ((box (om-load-boxcall (quote genfun) "OM-RANDOM" (quote om-random) (quote ((om-load-inputfun (quote input-funbox) "min" "LOW" 0) (om-load-inputfun (quote input-funbox) "max" "HIGH" 1))) (om-make-point 161 16) nil nil nil nil 1))) (when (fboundp (quote set-active)) (set-active box nil)) box) (let ((box (om-load-boxcall (quote genfun) "OM=" (quote om=) (quote ((om-load-inputfun (quote input-funbox) "a number" "A" 0) (om-load-inputfun (quote input-funbox) "a number" "B" 0))) (om-make-point 206 135) nil nil nil nil 1))) (when (fboundp (quote set-active)) (set-active box nil)) box) (let ((box (om-load-boxcall (quote genfun) "OMIF" (quote omif) (quote ((om-load-inputfun (quote input-funbox) "IF" "TEST" nil) (om-load-inputfun (quote input-funbox) "THEN" "ACTION" nil) (om-load-inputfun (quote input-funbox) "ELSE" "ELSE" nil))) (om-make-point 170 270) nil nil nil nil 1))) (when (fboundp (quote set-active)) (set-active box nil)) box) (let ((box (om-load-boxcall (quote genfun) "FLAT" (quote flat) (quote ((om-load-inputfun (quote input-funbox) "a list" "LST" nil))) (om-make-point 81 331) (om-make-point 35 58) nil nil nil 1))) (when (fboundp (quote set-active)) (set-active box nil)) box) (let ((box (om-load-boxcall (quote bastype) "aux" (quote t) (quote nil) (om-make-point 244 299) (om-make-point 32 28) 12 "12" nil))) (when (fboundp (quote set-active)) (set-active box nil)) box) (let ((box (om-load-boxcall (quote genfun) "REPEAT-N" (quote repeat-n) (quote ((om-load-inputfun (quote input-funbox) "something" "SELF" nil) (om-load-inputfun (quote input-funbox) "times" "N" 0))) (om-make-point 214 329) nil nil nil nil 1))) (when (fboundp (quote set-active)) (set-active box nil)) box) (let ((box (om-load-boxout "output" 0 (om-make-point 252 571) (quote ((om-load-inputfun (quote input-funbox) "" "out" nil))) nil nil))) (when (fboundp (quote set-active)) (set-active box nil)) box) (let ((box (om-load-boxin "input 2" 1 (om-make-point 96 44) "" nil nil nil))) (when (fboundp (quote set-active)) (set-active box nil)) box) (let ((box (om-load-boxcall (quote genfun) "FIRST-N" (quote first-n) (quote ((om-load-inputfun (quote input-funbox) "a list" "LIST" nil) (om-load-inputfun (quote input-funbox) "number of elements" "N" 0))) (om-make-point 87 144) nil nil nil nil 1))) (when (fboundp (quote set-active)) (set-active box nil)) box) (let ((box (om-load-boxin "input" 0 (om-make-point 21 42) "" nil nil nil))) (when (fboundp (quote set-active)) (set-active box nil)) box))) (quote ((1 0 0 0 nil 0) (2 0 1 0 nil 0) (8 0 2 0 nil 0) (13 0 3 0 nil 0) (5 0 6 0 nil 0) (4 0 6 1 nil 0) (6 0 7 0 nil 0) (13 0 7 1 nil 0) (3 0 7 2 nil 0) (10 0 8 0 nil 0) (7 0 10 0 nil 0) (9 0 10 1 nil 0) (0 0 11 0 nil 0) (14 0 13 0 nil 0) (12 0 13 1 nil 0))) 6.16 nil "" (om-make-point 378 0) (om-make-point 595 664)) (quote ((om-load-inputfun (quote input-funbox) "" "input" nil) (om-load-inputfun (quote input-funbox) "" "input 2" nil))) (om-make-point 233 348) nil (list (list 5 5 5 5 11 11 11 3 8 8 8 8 11 11 8 8 8 8 3 3 3 11 5 5 5 5 11 11 8 8 8 8 3 3 3 11 5 5 5 5 11 11 8 8 8 8 3 3 3 11 5 5 5 5 11 11 3 3 3 3 8 8 8 11 5 5 5 5 11 11 3 3 3 3 8 8 8 11 8 8 8 8 3 3 11 11 11 11 5 5 5 11 8 8 8 8 3 3 11 11 11 11 5 5 5 11 8 8 8 8 3 3 11 11 11 11 5 5 5 11 3 3 3 3 8 8 11 11 11 11 8 8 8 3 11 11 11 11 5 5 11 11 11 11 3 3 3 8 11 11 11 11)) "x" "padrao"))) (when (fboundp (quote set-active)) (set-active box nil)) box) (let ((box (om-load-boxcall (quote bastype) "aux 8" (quote t) (quote nil) (om-make-point 908 127) (om-make-point 32 28) 11 "11" nil))) (when (fboundp (quote set-active)) (set-active box nil)) box) (let ((box (om-load-boxcall (quote genfun) "OM-SCALE 4" (quote om-scale) (quote ((om-load-inputfun (quote input-funbox) "number or list" "SELF" 1) (om-load-inputfun (quote input-funbox) "a number" "MINOUT" 0) (om-load-inputfun (quote input-funbox) "a number" "MAXOUT" 0))) (om-make-point 811 208) nil nil nil nil 1))) (when (fboundp (quote set-active)) (set-active box nil)) box) (let ((box (om-load-boxcall (quote lispfun) "REVERSE 2" (quote reverse) (quote ((om-load-inputfun (quote input-funbox) "SEQUENCE" "SEQUENCE" nil))) (om-make-point 754 117) nil (list (list 6 5 11 3 8 11)) "x" nil 1))) (when (fboundp (quote set-active)) (set-active box nil)) box) (let ((box (om-load-boxcall (quote bastype) "aux 5" (quote t) (quote nil) (om-make-point 931 257) (om-make-point 26 28) 1 "1" nil))) (when (fboundp (quote set-active)) (set-active box nil)) box) (let ((box (om-load-boxcall (quote genfun) "OM-" (quote om-) (quote ((om-load-inputfun (quote input-funbox) "number or list" "ARG1" 0) (om-load-inputfun (quote input-funbox) "number or list" "ARG2" 0))) (om-make-point 921 287) (om-make-point 33 35) (list (list 4 3 2 4 3 3)) "x" nil 1))) (when (fboundp (quote set-active)) (set-active box nil)) box) (let ((box (om-load-boxcall (quote genfun) "OM-ROUND" (quote om-round) (quote ((om-load-inputfun (quote input-funbox) "number or list" "N" 1))) (om-make-point 759 386) nil nil nil nil 1))) (when (fboundp (quote set-active)) (set-active box nil)) box) (let ((box (om-load-boxcall (quote bastype) "aux 7" (quote t) (quote nil) (om-make-point 636 143) (om-make-point 26 28) 3 "3" nil))) (when (fboundp (quote set-active)) (set-active box nil)) box) (let ((box (om-load-boxcall (quote genfun) "OM-SCALE 2" (quote om-scale) (quote ((om-load-inputfun (quote input-funbox) "number or list" "SELF" 1) (om-load-inputfun (quote input-funbox) "a number" "MINOUT" 0) (om-load-inputfun (quote input-funbox) "a number" "MAXOUT" 0))) (om-make-point 615 195) nil nil nil nil 1))) (when (fboundp (quote set-active)) (set-active box nil)) box) (let ((box (om-load-boxcall (quote bastype) "aux 2" (quote t) (quote nil) (om-make-point 1221 183) (om-make-point 54 28) (list (list 4 4)) "((4 4))" nil))) (when (fboundp (quote set-active)) (set-active box nil)) box) (let ((box (om-load-editor-box1 "TEXT-BOX" (quote text-box) (quote ((om-load-inputfun (quote input-funbox) "dialog-item text (string)" "text" "untitled"))) (om-make-point 642 3) (om-make-point 701 52) (om-make-dialog-item (quote text-box) (om-make-point 1 1) (om-make-point 673 28) "((1) (1 1) (3 1) (1 2 1) (1 -2 1) (1 1 1) (-1 1 -1) (2 (2 (1 1 1))) (1 (1 (1 -1 1))) (2 (3 (-1 1 2))) (2 (4 (-1 1 1 2))))" :font (om-make-font "Verdana" 11.25 :family "Verdana" :style (quote (:plain)) :mode (quote nil))) "x" nil (pairlis (quote (winsize winpos)) (list (om-make-point 335 275) (om-make-point 10 40))) nil nil nil nil))) (when (fboundp (quote set-active)) (set-active box nil)) box) (let ((box (om-load-boxcall (quote genfun) "OM-RANDOM 2" (quote om-random) (quote ((om-load-inputfun (quote input-funbox) "min" "LOW" 1) (om-load-inputfun (quote input-funbox) "max" "HIGH" 1))) (om-make-point 366 167) nil (list 2) "x" nil 1))) (when (fboundp (quote set-active)) (set-active box nil)) box) (let ((box (om-load-boxcall (quote lispfun) "LENGTH" (quote length) (quote ((om-load-inputfun (quote input-funbox) "SEQUENCE" "SEQUENCE" nil))) (om-make-point 386 103) nil (list 7) "x" nil 1))) (when (fboundp (quote set-active)) (set-active box nil)) box) (let ((box (om-load-boxcall (quote genfun) "SORT-LIST" (quote sort-list) (quote ((om-load-inputfun (quote input-funbox) "a list" "LST" nil))) (om-make-point 558 336) nil (list (list 6100 6100 6708 6850 7006 7300 7300 7300 7300 7908 7908 8050 8050 8206 8206)) "x" nil 1))) (when (fboundp (quote set-active)) (set-active box nil)) box) (let ((box (om-load-boxcall (quote genfun) "CHOOSE 2" (quote choose) (quote ((om-load-inputfun (quote input-funbox) "list of notes (THIS OBJECT DON'T READ LISTS OF LIST" "NOTELIST" (list (list 6000 6530) (list 7203 5049))) (om-load-inputfun (quote input-funbox) "Cents aproximation of the 12-DEO" "CHORD-N" (list 2)))) (om-make-point 248 566) (om-make-point 79 74) (list (list 7908 7300 6708 7908 7006 7300 7300 7300 8050 6708 7300 8050 7300 7006 8050 6708 7300 8050 7300 7006 7908 6708 7300 7908)) "x" nil 1))) (when (fboundp (quote set-active)) (set-active box nil)) box) (let ((box (om-load-boxcall (quote abstraction) "diamante" (om-load-patch-abs1 "diamante" (quote ((let ((box (om-load-boxcall (quote bastype) "aux 4" (quote t) (quote nil) (om-make-point 463 291) (om-make-point 44 28) 7902 "7902" nil))) (when (fboundp (quote set-active)) (set-active box nil)) box) (let ((box (om-load-boxcall (quote bastype) "aux 3" (quote t) (quote nil) (om-make-point 417 291) (om-make-point 44 28) 6000 "6000" nil))) (when (fboundp (quote set-active)) (set-active box nil)) box) (let ((box (om-load-boxcall (quote genfun) "OM+ 2" (quote om+) (quote ((om-load-inputfun (quote input-funbox) "number or list" "ARG1" 1200) (om-load-inputfun (quote input-funbox) "number or list" "ARG2" 0))) (om-make-point 545 464) (om-make-point 36 35) nil nil nil 1))) (when (fboundp (quote set-active)) (set-active box nil)) box) (let ((box (om-load-boxcall (quote bastype) "aux 2" (quote t) (quote nil) (om-make-point 591 416) (om-make-point 44 28) 2400 "2400" nil))) (when (fboundp (quote set-active)) (set-active box nil)) box) (let ((box (om-load-boxcomment "comment 2" (om-make-point 102 38) (quote "acrescimo de uma oitava") "" (om-make-point 635 413) nil (om-make-color 0 0 0) (om-make-font "Verdana" 12 :family "Verdana" :style (quote (:plain)) :mode (quote nil))))) (when (fboundp (quote set-active)) (set-active box nil)) box) (let ((box (om-load-boxcall (quote genfun) "X-APPEND 2" (quote x-append) (quote ((om-load-inputfun (quote input-funbox) "first element" "L1?" nil) (om-load-inputfun (quote input-funbox) "second element" "L2?" nil) (om-load-inputfun (quote input-funbox) "additional elements" "LST?" nil))) (om-make-point 348 482) nil nil nil nil 1))) (when (fboundp (quote set-active)) (set-active box nil)) box) (let ((box (om-load-boxcomment "comment" (om-make-point 100 60) (quote "filtro para instrumento acustico") "" (om-make-point 203 243) nil (om-make-color 0 0 0) (om-make-font "Verdana" 12 :family "Verdana" :style (quote (:plain)) :mode (quote nil))))) (when (fboundp (quote set-active)) (set-active box nil)) box) (let ((box (om-load-boxcomment "comment" (om-make-point 102 38) (quote "acrescimo de uma oitava") "" (om-make-point 578 367) nil (om-make-color 0 0 0) (om-make-font "Verdana" 12 :family "Verdana" :style (quote (:plain)) :mode (quote nil))))) (when (fboundp (quote set-active)) (set-active box nil)) box) (let ((box (om-load-boxcomment "comment" (om-make-point 100 32) (quote "Temperamento ") "" (om-make-point 209 178) nil (om-make-color 0 0 0) (om-make-font "Verdana" 12 :family "Verdana" :style (quote (:plain)) :mode (quote nil))))) (when (fboundp (quote set-active)) (set-active box nil)) box) (let ((box (om-load-boxcomment "comment" (om-make-point 92 40) (quote "aproximacao em cents") "" (om-make-point 190 132) nil (om-make-color 0 0 0) (om-make-font "Verdana" 12 :family "Verdana" :style (quote (:plain)) :mode (quote nil))))) (when (fboundp (quote set-active)) (set-active box nil)) box) (let ((box (om-load-boxcall (quote genfun) "RANGE-REDUCE 2" (quote range-reduce) (quote ((om-load-inputfun (quote input-funbox) "list of midicents" "NOTELIST" (list 4800 7200 6000)) (om-load-inputfun (quote input-funbox) "nota mais grave" "GRAVE" 6000) (om-load-inputfun (quote input-funbox) "octave" "AGUDA" 7902))) (om-make-point 174 410) nil nil nil nil 1))) (when (fboundp (quote set-active)) (set-active box nil)) box) (let ((box (om-load-boxcall (quote bastype) "aux" (quote t) (quote nil) (om-make-point 534 370) (om-make-point 44 28) 1200 "1200" nil))) (when (fboundp (quote set-active)) (set-active box nil)) box) (let ((box (om-load-boxcall (quote genfun) "OM+" (quote om+) (quote ((om-load-inputfun (quote input-funbox) "number or list" "ARG1" 1200) (om-load-inputfun (quote input-funbox) "number or list" "ARG2" 0))) (om-make-point 498 399) (om-make-point 36 35) nil nil nil 1))) (when (fboundp (quote set-active)) (set-active box nil)) box) (let ((box (om-load-boxout "output" 0 (om-make-point 52 430) (quote ((om-load-inputfun (quote input-funbox) "" "out" nil))) nil nil))) (when (fboundp (quote set-active)) (set-active box nil)) box) (let ((box (om-load-boxin "nota mais aguda" 3 (om-make-point 508 124) "" "nota mais aguda" nil nil))) (when (fboundp (quote set-active)) (set-active box nil)) box) (let ((box (om-load-boxin "nota grave" 2 (om-make-point 428 110) "" "nota grave" nil nil))) (when (fboundp (quote set-active)) (set-active box nil)) box) (let ((box (om-load-boxin "nota de referencia da AfinaÁ„o Justa" 1 (om-make-point 364 11) "" "nota de referencia da AfinaÁ„o Justa" nil nil))) (when (fboundp (quote set-active)) (set-active box nil)) box) (let ((box (om-load-boxin "Lista de Razoes" 0 (om-make-point 238 31) "" "Lista de Razoes" nil nil))) (when (fboundp (quote set-active)) (set-active box nil)) box) (let ((box (om-load-boxcall (quote genfun) "FLAT" (quote flat) (quote ((om-load-inputfun (quote input-funbox) "a list" "LST" nil))) (om-make-point 390 213) nil nil nil nil 1))) (when (fboundp (quote set-active)) (set-active box nil)) box) (let ((box (om-load-boxcall (quote genfun) "RANGE-REDUCE" (quote range-reduce) (quote ((om-load-inputfun (quote input-funbox) "list of midicents" "NOTELIST" (list 4800 7200 6000)) (om-load-inputfun (quote input-funbox) "nota mais grave" "GRAVE" 6000) (om-load-inputfun (quote input-funbox) "octave" "AGUDA" 7902))) (om-make-point 385 321) nil nil nil nil 1))) (when (fboundp (quote set-active)) (set-active box nil)) box) (let ((box (let ((newbox (om-load-boxcall (quote genfun) "RATIO->MC" (quote ratio->mc) (quote ((om-load-inputfun (quote input-funbox) "convert list of ratios for midicent in Just Intonation" "RATIO" (list 1 11/8 7/4)) (om-load-inputfun (quote input-funbox) "this is the fundamental of the Just Intonation" "FUNDAMENTAL" 6000))) (om-make-point 325 118) nil nil nil nil 1))) (setf (frame-position newbox) (om-make-point 325 118)) newbox))) (when (fboundp (quote set-active)) (set-active box nil)) box) (let ((box (om-load-boxcall (quote genfun) "FILTER-AC-INST" (quote filter-ac-inst) (quote ((om-load-inputfun (quote input-funbox) "list of notes (THIS OBJECT DON'T READ LISTS OF LIST" "NOTELIST" (list 6000 6530 7203 5049)) (om-load-inputfun (quote input-funbox) "Cents aproximation of the 12-DEO" "APPROX" 10) (om-load-inputfun (quote input-funbox) "aproxima√ß√£o de escala temperada 1/2 1/4 1/8 de tom" "TEMPERAMENT" 2))) (om-make-point 134 232) nil nil nil nil 1))) (when (fboundp (quote set-active)) (set-active box nil)) box) (let ((box (om-load-boxcall (quote bastype) "aux 11" (quote t) (quote nil) (om-make-point 151 135) (om-make-point 32 28) 10 "10" nil))) (when (fboundp (quote set-active)) (set-active box nil)) box) (let ((box (om-load-boxcall (quote bastype) "aux 12" (quote t) (quote nil) (om-make-point 182 181) (om-make-point 26 28) 4 "4" nil))) (when (fboundp (quote set-active)) (set-active box nil)) box))) (quote ((19 0 2 0 nil 1) (3 0 2 1 nil 0) (19 0 5 0 nil 1) (12 0 5 1 nil 1) (2 0 5 2 nil 1) (21 0 10 0 nil 1) (15 0 10 1 nil 3) (14 0 10 2 nil 2) (19 0 12 0 nil 1) (11 0 12 1 nil 0) (10 0 13 0 nil 1) (20 0 18 0 nil 1) (18 0 19 0 nil 1) (1 0 19 1 nil 0) (0 0 19 2 nil 0) (17 0 20 0 nil 1) (16 0 20 1 nil 1) (5 0 21 0 nil 1) (22 0 21 1 nil 1) (23 0 21 2 nil 1))) 6.16 nil "" (om-make-point 215 53) (om-make-point 790 566)) (quote ((om-load-inputfun (quote input-funbox) "" "input" nil) (om-load-inputfun (quote input-funbox) "" "input 2" nil) (om-load-inputfun (quote input-funbox) "" "input 3" nil) (om-load-inputfun (quote input-funbox) "" "input 4" nil))) (om-make-point 2545/6 294) nil (list (list 7006 6100 6850 6708 6100 8206 7300 8050 7908 7300 8206 7300 8050 7908 7300)) "x" "diamante"))) (when (fboundp (quote set-active)) (set-active box nil)) box) (let ((box (om-load-boxcall (quote genfun) "MAKETREEGROUPS" (quote maketreegroups) (quote ((om-load-inputfun (quote input-funbox) "rhythm figures" "FIGURES" (list (list 1 1 1) (list 1 2 1) (list 3 4) (list 1 1 1 1))) (om-load-inputfun (quote input-funbox) "control sequence" "SEQUENCE" (list 0 3 0 2 0 1 0 0 3)) (om-load-inputfun (quote input-funbox) "list of time signatures" "MEASURES" (list (list 4 4))))) (om-make-point 1087 222) nil (list (list (quote ?) (list (list (list 4 4) (list (list 1 (list 1 -2 1)) (list 1 (list 1 2 1)) (list 1 (list 3 1)) (list 1 (list 1 -2 1)))) (list (list 4 4) (list (list 1 (list 1 2 1)) (list 1 (list 1 2 1)) -2))))) "x" nil 1))) (when (fboundp (quote set-active)) (set-active box nil)) box) (let ((box (om-load-boxcall (quote bastype) "aux 15" (quote t) (quote nil) (om-make-point 540 256) (om-make-point 44 28) 8400 "8400" nil))) (when (fboundp (quote set-active)) (set-active box nil)) box) (let ((box (om-load-boxcall (quote bastype) "aux 9" (quote t) (quote nil) (om-make-point 486 248) (om-make-point 44 28) 6000 "6000" nil))) (when (fboundp (quote set-active)) (set-active box nil)) box) (let ((box (om-load-editor-box1 "VOICE 2" (quote voice) (quote ((om-load-inputfun (quote input-funbox) "object" "self" nil) (om-load-inputfun (quote input-funbox) "a list representing a rhythm tree" "tree" (list (quote ?) (list (list (list 4 4) (list 1 1 1 1))))) (om-load-inputfun (quote input-funbox) "a chord object, a list of chords, a list of midics, a list of lists of midics..." "chords" (list (let ((thechord (make-instance (quote chord) :lmidic (quote (6000)) :ldur (quote (1000)) :lvel (quote (100)) :loffset (quote (0)) :lchan (quote (1))))) (load-port-info thechord (quote (0))) (init-mus-color thechord (quote nil)) (set-extra-pairs thechord (quote nil)) (set-tonalite thechord nil) thechord))) (om-load-inputfun (quote input-funbox) "frequency of the quarter-note (default 60/mn)" "tempo" 80) (om-load-inputfun (quote input-funbox) "overlapping percentage between every successive chords, calculated from the second chord's duration" "legato" 100) (om-load-inputfun (quote input-funbox) "sub lists (one sub list per chord) indicating notes to be tied to notes of the same value, in a next chord" "ties" nil))) (om-make-point 1036 304) (om-make-point 232 125) (let ((newobj (when (find-class (quote voice) nil) (make-instance (quote voice) :tree (quote (2 (((4 4) ((1 (1 -2 1)) (1 (1 2 1)) (1 (3 1)) (1 (1 -2 1)))) ((4 4) ((1 (1 2 1)) (1 (1 2 1)) -2))))) :chords (load-obj-list-from-save (quote ((let ((thechord (make-instance (quote chord) :lmidic (quote (6000)) :ldur (quote (188)) :lvel (quote (100)) :loffset (quote (0)) :lchan (quote (1))))) (load-port-info thechord (quote (0))) (init-mus-color thechord (quote nil)) (set-extra-pairs thechord (quote nil)) (set-tonalite thechord nil) thechord) (let ((thechord (make-instance (quote chord) :lmidic (quote (6000)) :ldur (quote (188)) :lvel (quote (100)) :loffset (quote (0)) :lchan (quote (1))))) (load-port-info thechord (quote (0))) (init-mus-color thechord (quote nil)) (set-extra-pairs thechord (quote nil)) (set-tonalite thechord nil) thechord) (let ((thechord (make-instance (quote chord) :lmidic (quote (6000)) :ldur (quote (188)) :lvel (quote (100)) :loffset (quote (0)) :lchan (quote (1))))) (load-port-info thechord (quote (0))) (init-mus-color thechord (quote nil)) (set-extra-pairs thechord (quote nil)) (set-tonalite thechord nil) thechord) (let ((thechord (make-instance (quote chord) :lmidic (quote (6000)) :ldur (quote (375)) :lvel (quote (100)) :loffset (quote (0)) :lchan (quote (1))))) (load-port-info thechord (quote (0))) (init-mus-color thechord (quote nil)) (set-extra-pairs thechord (quote nil)) (set-tonalite thechord nil) thechord) (let ((thechord (make-instance (quote chord) :lmidic (quote (6000)) :ldur (quote (188)) :lvel (quote (100)) :loffset (quote (0)) :lchan (quote (1))))) (load-port-info thechord (quote (0))) (init-mus-color thechord (quote nil)) (set-extra-pairs thechord (quote nil)) (set-tonalite thechord nil) thechord) (let ((thechord (make-instance (quote chord) :lmidic (quote (6000)) :ldur (quote (562)) :lvel (quote (100)) :loffset (quote (0)) :lchan (quote (1))))) (load-port-info thechord (quote (0))) (init-mus-color thechord (quote nil)) (set-extra-pairs thechord (quote nil)) (set-tonalite thechord nil) thechord) (let ((thechord (make-instance (quote chord) :lmidic (quote (6000)) :ldur (quote (188)) :lvel (quote (100)) :loffset (quote (0)) :lchan (quote (1))))) (load-port-info thechord (quote (0))) (init-mus-color thechord (quote nil)) (set-extra-pairs thechord (quote nil)) (set-tonalite thechord nil) thechord) (let ((thechord (make-instance (quote chord) :lmidic (quote (6000)) :ldur (quote (188)) :lvel (quote (100)) :loffset (quote (0)) :lchan (quote (1))))) (load-port-info thechord (quote (0))) (init-mus-color thechord (quote nil)) (set-extra-pairs thechord (quote nil)) (set-tonalite thechord nil) thechord) (let ((thechord (make-instance (quote chord) :lmidic (quote (6000)) :ldur (quote (188)) :lvel (quote (100)) :loffset (quote (0)) :lchan (quote (1))))) (load-port-info thechord (quote (0))) (init-mus-color thechord (quote nil)) (set-extra-pairs thechord (quote nil)) (set-tonalite thechord nil) thechord) (let ((thechord (make-instance (quote chord) :lmidic (quote (6000)) :ldur (quote (188)) :lvel (quote (100)) :loffset (quote (0)) :lchan (quote (1))))) (load-port-info thechord (quote (0))) (init-mus-color thechord (quote nil)) (set-extra-pairs thechord (quote nil)) (set-tonalite thechord nil) thechord) (let ((thechord (make-instance (quote chord) :lmidic (quote (6000)) :ldur (quote (375)) :lvel (quote (100)) :loffset (quote (0)) :lchan (quote (1))))) (load-port-info thechord (quote (0))) (init-mus-color thechord (quote nil)) (set-extra-pairs thechord (quote nil)) (set-tonalite thechord nil) thechord) (let ((thechord (make-instance (quote chord) :lmidic (quote (6000)) :ldur (quote (188)) :lvel (quote (100)) :loffset (quote (0)) :lchan (quote (1))))) (load-port-info thechord (quote (0))) (init-mus-color thechord (quote nil)) (set-extra-pairs thechord (quote nil)) (set-tonalite thechord nil) thechord) (let ((thechord (make-instance (quote chord) :lmidic (quote (6000)) :ldur (quote (188)) :lvel (quote (100)) :loffset (quote (0)) :lchan (quote (1))))) (load-port-info thechord (quote (0))) (init-mus-color thechord (quote nil)) (set-extra-pairs thechord (quote nil)) (set-tonalite thechord nil) thechord) (let ((thechord (make-instance (quote chord) :lmidic (quote (6000)) :ldur (quote (375)) :lvel (quote (100)) :loffset (quote (0)) :lchan (quote (1))))) (load-port-info thechord (quote (0))) (init-mus-color thechord (quote nil)) (set-extra-pairs thechord (quote nil)) (set-tonalite thechord nil) thechord) (let ((thechord (make-instance (quote chord) :lmidic (quote (6000)) :ldur (quote (188)) :lvel (quote (100)) :loffset (quote (0)) :lchan (quote (1))))) (load-port-info thechord (quote (0))) (init-mus-color thechord (quote nil)) (set-extra-pairs thechord (quote nil)) (set-tonalite thechord nil) thechord)))) :tempo (quote ((1/4 80) nil)) :legato 100 :ties (quote (nil nil nil nil nil nil nil nil nil nil nil nil nil nil nil)))))) (load-port-info newobj (quote nil)) (init-mus-color newobj (quote nil)) (set-extra-pairs newobj (quote nil)) (set-patch-pairs newobj (quote nil)) (set-name newobj nil) (set-tonalite newobj nil) newobj) "x" nil (pairlis (quote (scale show-stems cursor-mode obj-mode score-mode winpos winsize mode grillestep notechancolor? zoom player inport outport deltapict cmnpref staff fontsize approx)) (list nil (quote t) (quote :normal) 1 0 (om-make-point -8 -8) (om-make-point 1366 705) 0 1000 nil 121/100 (quote :osc-scoreplayer) nil nil (om-make-point 0 0) (let ((newobj (make-instance (quote edition-values)))) (setf (paper-size newobj) (om-make-point 600 800)) (setf (top-margin newobj) 2) (setf (left-margin newobj) 1) (setf (right-margin newobj) 1) (setf (bottom-margin newobj) 1) (setf (orientation newobj) nil) (setf (scale newobj) nil) (setf (system-space newobj) (quote (1))) (setf (system-color newobj) (quote nil)) (setf (line-space newobj) 1) (setf (title newobj) nil) (setf (show-title? newobj) nil) (setf (show-page? newobj) nil) (setf (sheet-id newobj) nil) (setf (page-mode newobj) nil) newobj) (quote empty) 48 2)) t nil nil nil))) (when (fboundp (quote set-active)) (set-active box nil)) box) (let ((box (om-load-editor-box1 "BPF" (quote bpf) (quote ((om-load-inputfun (quote input-funbox) "object" "self" nil) (om-load-inputfun (quote input-funbox) "X coordinates (list)" "x-points" (list 0 100)) (om-load-inputfun (quote input-funbox) "Y coordinates (list)" "y-points" (list 0 100)) (om-load-inputfun (quote input-funbox) "precision (integer) [0 - 10]" "decimals" 0))) (om-make-point 1 242) (om-make-point 118 85) (let ((newobj (when (find-class (quote bpf) nil) (let ((newbpf (simple-bpf-from-list (quote (0 100 200 300 400 500 600 700 800 900 1000 1100)) (quote (11 8 3 11 5 6 5 5 9 3 7 9)) (quote bpf) 0))) (setf (bpfcolor newbpf) (om-make-color 0 0 0)) (set-name newbpf nil) newbpf)))) (when newobj) newobj) "x" nil (pairlis (quote (winsize winpos picture)) (list (om-make-point 1366 705) (om-make-point -8 -8) nil)) t nil nil nil))) (when (fboundp (quote set-active)) (set-active box nil)) box) (let ((box (om-load-boxcall (quote bastype) "aux 14" (quote t) (quote nil) (om-make-point 359 363) (om-make-point 38 28) 127 "127" nil))) (when (fboundp (quote set-active)) (set-active box nil)) box) (let ((box (om-load-boxcall (quote bastype) "aux 13" (quote t) (quote nil) (om-make-point 307 364) (om-make-point 32 28) 55 "55" nil))) (when (fboundp (quote set-active)) (set-active box nil)) box) (let ((box (om-load-boxcall (quote genfun) "OM-SCALE 3" (quote om-scale) (quote ((om-load-inputfun (quote input-funbox) "number or list" "SELF" 1) (om-load-inputfun (quote input-funbox) "a number" "MINOUT" 0) (om-load-inputfun (quote input-funbox) "a number" "MAXOUT" 0))) (om-make-point 299 410) nil (list (list 73 73 73 73 127 127 127 55 100 100 100 100 127 127 100 100 100 100 55 55 55 127 73 73 73 73 127 127 100 100 100 100 55 55 55 127 73 73 73 73 127 127 100 100 100 100 55 55 55 127 73 73 73 73 127 127 55 55 55 55 100 100 100 127 73 73 73 73 127 127 55 55 55 55 100 100 100 127 100 100 100 100 55 55 127 127 127 127 73 73 73 127 100 100 100 100 55 55 127 127 127 127 73 73 73 127 100 100 100 100 55 55 127 127 127 127 73 73 73 127 55 55 55 55 100 100 127 127 127 127 100 100 100 55 127 127 127 127 73 73 127 127 127 127 55 55 55 100 127 127 127 127)) "x" nil 1))) (when (fboundp (quote set-active)) (set-active box nil)) box) (let ((box (om-load-editor-box1 "CHORD" (quote chord) (quote ((om-load-inputfun (quote input-funbox) "object" "self" nil) (om-load-inputfun (quote input-funbox) "pitches (list of midicents)" "lmidic" (list 6000)) (om-load-inputfun (quote input-funbox) "velocities (list of values 0-127)" "lvel" (list 100)) (om-load-inputfun (quote input-funbox) "offsets (list of values in ms)" "loffset" (list 0)) (om-load-inputfun (quote input-funbox) "durations (list of values in ms)" "ldur" (list 1000)) (om-load-inputfun (quote input-funbox) "MIDI channels (list of values 0-16)" "lchan" (list 9)))) (om-make-point 454 414) (om-make-point 244 97) (let ((thechord (make-instance (quote chord) :lmidic (quote (7908 7300 6708 7908 7006 7300 7300 7300 8050 6708 7300 8050 7300 7006 8050 6708 7300 8050 7300 7006 7908 6708 7300 7908)) :ldur (quote (1000 1000 1000 1000 1000 1000 1000 1000 1000 1000 1000 1000 1000 1000 1000 1000 1000 1000 1000 1000 1000 1000 1000 1000)) :lvel (quote (73 73 73 73 127 127 127 55 100 100 100 100 127 127 100 100 100 100 55 55 55 127 73 73)) :loffset (quote (0 0 0 0 0 0 0 0 0 0 0 0 0 0 0 0 0 0 0 0 0 0 0 0)) :lchan (quote (1 1 1 1 1 1 1 1 1 1 1 1 1 1 1 1 1 1 1 1 1 1 1 1))))) (load-port-info thechord (quote (0 0 0 0 0 0 0 0 0 0 0 0 0 0 0 0 0 0 0 0 0 0 0 0))) (init-mus-color thechord (quote nil)) (set-extra-pairs thechord (quote nil)) (set-tonalite thechord nil) thechord) "x" nil (pairlis (quote (scale show-stems cursor-mode obj-mode score-mode winpos winsize mode grillestep notechancolor? zoom player inport outport deltapict cmnpref staff fontsize approx)) (list nil (quote t) (quote :normal) 0 0 (om-make-point 400 20) (om-make-point 893 260) 3 1000 nil 1 (quote :osc-scoreplayer) nil nil (om-make-point 0 0) (let ((newobj (make-instance (quote edition-values)))) (setf (paper-size newobj) (om-make-point 600 800)) (setf (top-margin newobj) 2) (setf (left-margin newobj) 1) (setf (right-margin newobj) 1) (setf (bottom-margin newobj) 1) (setf (orientation newobj) nil) (setf (scale newobj) nil) (setf (system-space newobj) (quote (1))) (setf (system-color newobj) (quote nil)) (setf (line-space newobj) 1) (setf (title newobj) nil) (setf (show-title? newobj) nil) (setf (show-page? newobj) nil) (setf (sheet-id newobj) nil) (setf (page-mode newobj) nil) newobj) (quote g) 28 8)) t nil nil nil))) (when (fboundp (quote set-active)) (set-active box nil)) box) (let ((box (om-load-boxcall (quote bastype) "aux 10" (quote t) (quote nil) (om-make-point 875 489) (om-make-point 31 26) 60 "60" nil))) (when (fboundp (quote set-active)) (set-active box nil)) box) (let ((box (om-load-editor-box1 "VOICE" (quote voice) (quote ((om-load-inputfun (quote input-funbox) "object" "self" nil) (om-load-inputfun (quote input-funbox) "a list representing a rhythm tree" "tree" (list (quote ?) (list (list (list 4 4) (list 1 1 1 1))))) (om-load-inputfun (quote input-funbox) "a chord object, a list of chords, a list of midics, a list of lists of midics..." "chords" (list (let ((thechord (make-instance (quote chord) :lmidic (quote (6000)) :ldur (quote (1000)) :lvel (quote (100)) :loffset (quote (0)) :lchan (quote (1))))) (load-port-info thechord (quote (0))) (init-mus-color thechord (quote nil)) (set-extra-pairs thechord (quote nil)) (set-tonalite thechord nil) thechord))) (om-load-inputfun (quote input-funbox) "frequency of the quarter-note (default 60/mn)" "tempo" 60) (om-load-inputfun (quote input-funbox) "overlapping percentage between every successive chords, calculated from the second chord's duration" "legato" 100) (om-load-inputfun (quote input-funbox) "sub lists (one sub list per chord) indicating notes to be tied to notes of the same value, in a next chord" "ties" nil))) (om-make-point 635 528) (om-make-point 395 119) (let ((newobj (when (find-class (quote voice) nil) (make-instance (quote voice) :tree (quote (2 (((4 4) ((1 (1 -2 1)) (1 (1 2 1)) (1 (3 1)) (1 (1 -2 1)))) ((4 4) ((1 (1 2 1)) (1 (1 2 1)) -2))))) :chords (load-obj-list-from-save (quote ((let ((thechord (make-instance (quote chord) :lmidic (quote (7908)) :ldur (quote (250)) :lvel (quote (73)) :loffset (quote (0)) :lchan (quote (1))))) (load-port-info thechord (quote (0))) (init-mus-color thechord (quote nil)) (set-extra-pairs thechord (quote nil)) (set-tonalite thechord nil) thechord) (let ((thechord (make-instance (quote chord) :lmidic (quote (7300)) :ldur (quote (250)) :lvel (quote (73)) :loffset (quote (0)) :lchan (quote (1))))) (load-port-info thechord (quote (0))) (init-mus-color thechord (quote nil)) (set-extra-pairs thechord (quote nil)) (set-tonalite thechord nil) thechord) (let ((thechord (make-instance (quote chord) :lmidic (quote (6708)) :ldur (quote (250)) :lvel (quote (73)) :loffset (quote (0)) :lchan (quote (1))))) (load-port-info thechord (quote (0))) (init-mus-color thechord (quote nil)) (set-extra-pairs thechord (quote nil)) (set-tonalite thechord nil) thechord) (let ((thechord (make-instance (quote chord) :lmidic (quote (7908)) :ldur (quote (500)) :lvel (quote (73)) :loffset (quote (0)) :lchan (quote (1))))) (load-port-info thechord (quote (0))) (init-mus-color thechord (quote nil)) (set-extra-pairs thechord (quote nil)) (set-tonalite thechord nil) thechord) (let ((thechord (make-instance (quote chord) :lmidic (quote (7006)) :ldur (quote (250)) :lvel (quote (127)) :loffset (quote (0)) :lchan (quote (1))))) (load-port-info thechord (quote (0))) (init-mus-color thechord (quote nil)) (set-extra-pairs thechord (quote nil)) (set-tonalite thechord nil) thechord) (let ((thechord (make-instance (quote chord) :lmidic (quote (7300)) :ldur (quote (750)) :lvel (quote (127)) :loffset (quote (0)) :lchan (quote (1))))) (load-port-info thechord (quote (0))) (init-mus-color thechord (quote nil)) (set-extra-pairs thechord (quote nil)) (set-tonalite thechord nil) thechord) (let ((thechord (make-instance (quote chord) :lmidic (quote (7300)) :ldur (quote (250)) :lvel (quote (127)) :loffset (quote (0)) :lchan (quote (1))))) (load-port-info thechord (quote (0))) (init-mus-color thechord (quote nil)) (set-extra-pairs thechord (quote nil)) (set-tonalite thechord nil) thechord) (let ((thechord (make-instance (quote chord) :lmidic (quote (7300)) :ldur (quote (250)) :lvel (quote (55)) :loffset (quote (0)) :lchan (quote (1))))) (load-port-info thechord (quote (0))) (init-mus-color thechord (quote nil)) (set-extra-pairs thechord (quote nil)) (set-tonalite thechord nil) thechord) (let ((thechord (make-instance (quote chord) :lmidic (quote (8050)) :ldur (quote (250)) :lvel (quote (100)) :loffset (quote (0)) :lchan (quote (1))))) (load-port-info thechord (quote (0))) (init-mus-color thechord (quote nil)) (set-extra-pairs thechord (quote nil)) (set-tonalite thechord nil) thechord) (let ((thechord (make-instance (quote chord) :lmidic (quote (6708)) :ldur (quote (250)) :lvel (quote (100)) :loffset (quote (0)) :lchan (quote (1))))) (load-port-info thechord (quote (0))) (init-mus-color thechord (quote nil)) (set-extra-pairs thechord (quote nil)) (set-tonalite thechord nil) thechord) (let ((thechord (make-instance (quote chord) :lmidic (quote (7300)) :ldur (quote (500)) :lvel (quote (100)) :loffset (quote (0)) :lchan (quote (1))))) (load-port-info thechord (quote (0))) (init-mus-color thechord (quote nil)) (set-extra-pairs thechord (quote nil)) (set-tonalite thechord nil) thechord) (let ((thechord (make-instance (quote chord) :lmidic (quote (8050)) :ldur (quote (250)) :lvel (quote (100)) :loffset (quote (0)) :lchan (quote (1))))) (load-port-info thechord (quote (0))) (init-mus-color thechord (quote nil)) (set-extra-pairs thechord (quote nil)) (set-tonalite thechord nil) thechord) (let ((thechord (make-instance (quote chord) :lmidic (quote (7300)) :ldur (quote (250)) :lvel (quote (127)) :loffset (quote (0)) :lchan (quote (1))))) (load-port-info thechord (quote (0))) (init-mus-color thechord (quote nil)) (set-extra-pairs thechord (quote nil)) (set-tonalite thechord nil) thechord) (let ((thechord (make-instance (quote chord) :lmidic (quote (7006)) :ldur (quote (500)) :lvel (quote (127)) :loffset (quote (0)) :lchan (quote (1))))) (load-port-info thechord (quote (0))) (init-mus-color thechord (quote nil)) (set-extra-pairs thechord (quote nil)) (set-tonalite thechord nil) thechord) (let ((thechord (make-instance (quote chord) :lmidic (quote (8050)) :ldur (quote (250)) :lvel (quote (100)) :loffset (quote (0)) :lchan (quote (1))))) (load-port-info thechord (quote (0))) (init-mus-color thechord (quote nil)) (set-extra-pairs thechord (quote nil)) (set-tonalite thechord nil) thechord)))) :tempo (quote ((1/4 60) nil)) :legato 100 :ties (quote (nil nil nil nil nil nil nil nil nil nil nil nil nil nil nil)))))) (load-port-info newobj (quote nil)) (init-mus-color newobj (quote nil)) (set-extra-pairs newobj (quote nil)) (set-patch-pairs newobj (quote ((nil (om-load-patch-abs1 "patch" (quote nil) (quote nil) 6.16 nil "" (om-make-point 200 200) (om-make-point 400 500)))))) (set-name newobj nil) (set-tonalite newobj nil) newobj) nil nil (pairlis (quote (scale show-stems cursor-mode obj-mode score-mode winpos winsize mode grillestep notechancolor? zoom player inport outport deltapict cmnpref staff fontsize approx)) (list nil (quote t) (quote :normal) 1 0 (om-make-point 33 107) (om-make-point 1364 271) 0 1000 nil 123/100 (quote :osc-scoreplayer) nil nil (om-make-point 0 0) (let ((newobj (make-instance (quote edition-values)))) (setf (paper-size newobj) (om-make-point 600 800)) (setf (top-margin newobj) 2) (setf (left-margin newobj) 1) (setf (right-margin newobj) 1) (setf (bottom-margin newobj) 1) (setf (orientation newobj) nil) (setf (scale newobj) nil) (setf (system-space newobj) (quote (1))) (setf (system-color newobj) (quote nil)) (setf (line-space newobj) 1) (setf (title newobj) nil) (setf (show-title? newobj) nil) (setf (show-page? newobj) nil) (setf (sheet-id newobj) nil) (setf (page-mode newobj) nil) newobj) (quote g) 28 16)) t nil nil nil))) (when (fboundp (quote set-active)) (set-active box nil)) box) (let ((box (om-load-boxcall (quote genfun) "X->DX 2" (quote x->dx) (quote ((om-load-inputfun (quote input-funbox) "a list of numbers" "SELF" (list 0 1)))) (om-make-point 521 12) nil (list (list 11 8 3 11 5 6)) "x" nil 1))) (when (fboundp (quote set-active)) (set-active box nil)) box) (let ((box (om-load-boxcall (quote bastype) "aux 3" (quote t) (quote nil) (om-make-point 451 197) (om-make-point 44 28) 6100 "6100" nil))) (when (fboundp (quote set-active)) (set-active box nil)) box) (let ((box (om-load-boxcall (quote genfun) "CHOOSE" (quote choose) (quote ((om-load-inputfun (quote input-funbox) "list of notes (THIS OBJECT DON'T READ LISTS OF LIST" "NOTELIST" (list (list 6000 6530) (list 7203 5049))) (om-load-inputfun (quote input-funbox) "Cents aproximation of the 12-DEO" "CHORD-N" (list 2)))) (om-make-point 337 225) nil (list (list 27/16 1 27/35 27/38 27/49 1/2 9/20)) "x" nil 1))) (when (fboundp (quote set-active)) (set-active box nil)) box) (let ((box (om-load-boxcall (quote genfun) "DIAMOND-IDENTITY" (quote diamond-identity) (quote ((om-load-inputfun (quote input-funbox) "limit-n for the diamond" "IDENTITY" (list 11 19 97)))) (om-make-point 184 74) nil (list (list (list 1 16/27 16/35 8/19 16/49 8/27 4/15) (list 27/16 1 27/35 27/38 27/49 1/2 9/20) (list 35/16 35/27 1 35/38 5/7 35/54 7/12) (list 19/8 38/27 38/35 1 38/49 19/27 19/30) (list 49/16 49/27 7/5 49/38 1 49/54 49/60) (list 27/8 2 54/35 27/19 54/49 1 9/10) (list 15/4 20/9 12/7 30/19 60/49 10/9 1)) (list (list 1 27/16 35/16 19/8 49/16 27/8 15/4) (list 16/27 1 35/27 38/27 49/27 2 20/9) (list 16/35 27/35 1 38/35 7/5 54/35 12/7) (list 8/19 27/38 35/38 1 49/38 27/19 30/19) (list 16/49 27/49 5/7 38/49 1 54/49 60/49) (list 8/27 1/2 35/54 19/27 49/54 1 10/9) (list 4/15 9/20 7/12 19/30 49/60 9/10 1))) "x" nil 2))) (when (fboundp (quote set-active)) (set-active box nil)) box) (let ((box (om-load-boxcall (quote abstraction) "sieve" (om-load-patch-abs1 "sieve" (quote ((let ((box (om-load-boxcomment "comment 3" (om-make-point 100 60) (quote "Objeto crible") "" (om-make-point 159 42) nil (om-make-color 0 0 0) (om-make-font "Verdana" 12 :family "Verdana" :style (quote (:plain)) :mode (quote nil))))) (when (fboundp (quote set-active)) (set-active box nil)) box) (let ((box (om-load-boxcomment "comment" (om-make-point 100 60) (quote "Objeto crible") "" (om-make-point 307 50) nil (om-make-color 0 0 0) (om-make-font "Verdana" 12 :family "Verdana" :style (quote (:plain)) :mode (quote nil))))) (when (fboundp (quote set-active)) (set-active box nil)) box) (let ((box (om-load-boxcomment "comment 2" (om-make-point 100 60) (quote "TraduÁ„o para n˙meros") "" (om-make-point 218 255) nil (om-make-color 0 0 0) (om-make-font "Verdana" 12 :family "Verdana" :style (quote (:plain)) :mode (quote nil))))) (when (fboundp (quote set-active)) (set-active box nil)) box) (let ((box (om-load-boxcomment "comment" (om-make-point 100 60) (quote "TraduÁ„o para n˙meros") "" (om-make-point 381 252) nil (om-make-color 0 0 0) (om-make-font "Verdana" 12 :family "Verdana" :style (quote (:plain)) :mode (quote nil))))) (when (fboundp (quote set-active)) (set-active box nil)) box) (let ((box (om-load-boxcomment "comment" (om-make-point 63 65) (quote "uni„o das sieves") "" (om-make-point 227 161) nil (om-make-color 0 0 0) (om-make-font "Verdana" 12 :family "Verdana" :style (quote (:plain)) :mode (quote nil))))) (when (fboundp (quote set-active)) (set-active box nil)) box) (let ((box (om-load-boxcall (quote genfun) "C-UNION" (quote c-union) (quote ((om-load-inputfun (quote input-funbox) "" "SELF" nil) (om-load-inputfun (quote input-funbox) "" "CRIBLE" nil))) (om-make-point 177 147) nil nil nil nil 1))) (when (fboundp (quote set-active)) (set-active box nil)) box) (let ((box (om-load-boxcall (quote genfun) "REVEL-CRIBLE 4" (quote revel-crible) (quote ((om-load-inputfun (quote input-funbox) "" "SELF" nil))) (om-make-point 453 75) nil nil nil nil 1))) (when (fboundp (quote set-active)) (set-active box nil)) box) (let ((box (om-load-boxcall (quote genfun) "REVEL-CRIBLE 3" (quote revel-crible) (quote ((om-load-inputfun (quote input-funbox) "" "SELF" nil))) (om-make-point 54 103) nil nil nil nil 1))) (when (fboundp (quote set-active)) (set-active box nil)) box) (let ((box (om-load-editor-box1 "TEXT-BOX 4" (quote text-box) (quote ((om-load-inputfun (quote input-funbox) "dialog-item text (string)" "text" "untitled"))) (om-make-point 434 163) (om-make-point 101 41) (om-make-dialog-item (quote text-box) (om-make-point 1 1) (om-make-point 73 17) "(16 35 54)" :font (om-make-font "Verdana" 11.25 :family "Verdana" :style (quote (:plain)) :mode (quote nil))) nil nil (pairlis (quote (winpos winsize)) (list (om-make-point 10 40) (om-make-point 335 275))) nil nil nil nil))) (when (fboundp (quote set-active)) (set-active box nil)) box) (let ((box (om-load-editor-box1 "TEXT-BOX 3" (quote text-box) (quote ((om-load-inputfun (quote input-funbox) "dialog-item text (string)" "text" "untitled"))) (om-make-point 16 183) (om-make-point 136 41) (om-make-dialog-item (quote text-box) (om-make-point 1 1) (om-make-point 108 17) "(16 27 38 49 60)" :font (om-make-font "Verdana" 11.25 :family "Verdana" :style (quote (:plain)) :mode (quote nil))) nil nil (pairlis (quote (winpos winsize)) (list (om-make-point 10 40) (om-make-point 335 275))) nil nil nil nil))) (when (fboundp (quote set-active)) (set-active box nil)) box) (let ((box (om-load-editor-box1 "TEXT-BOX 2" (quote text-box) (quote ((om-load-inputfun (quote input-funbox) "dialog-item text (string)" "text" "untitled"))) (om-make-point 312 316) (om-make-point 76 42) (om-make-dialog-item (quote text-box) (om-make-point 1 1) (om-make-point 48 18) "(16)" :font (om-make-font "Verdana" 11.25 :family "Verdana" :style (quote (:plain)) :mode (quote nil))) nil nil (pairlis (quote (winpos winsize)) (list (om-make-point 10 40) (om-make-point 335 275))) nil nil nil nil))) (when (fboundp (quote set-active)) (set-active box nil)) box) (let ((box (om-load-boxcall (quote genfun) "REVEL-CRIBLE 2" (quote revel-crible) (quote ((om-load-inputfun (quote input-funbox) "" "SELF" nil))) (om-make-point 323 236) nil nil nil nil 1))) (when (fboundp (quote set-active)) (set-active box nil)) box) (let ((box (om-load-boxcall (quote genfun) "C-INTERSECTION" (quote c-intersection) (quote ((om-load-inputfun (quote input-funbox) "" "SELF" nil) (om-load-inputfun (quote input-funbox) "" "CRIBLE" nil))) (om-make-point 321 149) nil nil nil nil 1))) (when (fboundp (quote set-active)) (set-active box nil)) box) (let ((box (om-load-editor-box1 "TEXT-BOX" (quote text-box) (quote ((om-load-inputfun (quote input-funbox) "dialog-item text (string)" "text" "untitled"))) (om-make-point 120 328) (om-make-point 164 41) (om-make-dialog-item (quote text-box) (om-make-point 1 1) (om-make-point 136 17) "(16 27 35 38 49 54 60)" :font (om-make-font "Verdana" 11.25 :family "Verdana" :style (quote (:plain)) :mode (quote nil))) nil nil (pairlis (quote (winpos winsize)) (list (om-make-point 10 40) (om-make-point 335 275))) nil nil nil nil))) (when (fboundp (quote set-active)) (set-active box nil)) box) (let ((box (om-load-boxcall (quote genfun) "REVEL-CRIBLE" (quote revel-crible) (quote ((om-load-inputfun (quote input-funbox) "" "SELF" nil))) (om-make-point 153 239) nil nil nil nil 1))) (when (fboundp (quote set-active)) (set-active box nil)) box) (let ((box (om-load-boxcall (quote bastype) "aux 2" (quote t) (quote nil) (om-make-point 281 15) (om-make-point 74 28) (list 19 16 64) "(19 16 64)" nil))) (when (fboundp (quote set-active)) (set-active box nil)) box) (let ((box (om-load-editor-box1 "CRIBLE 2" (quote crible) (quote ((om-load-inputfun (quote input-funbox) "object" "self" nil) (om-load-inputfun (quote input-funbox) "" "cr-exp" (list 2 0 18)))) (om-make-point 239 45) (om-make-point 70 50) (if (find-class (quote crible) nil) (make-instance (quote crible) :cr-exp (list 19 16 64) :from-file t)) nil nil (pairlis (quote (winsize winpos)) (list (om-make-point 335 275) (om-make-point 10 40))) nil nil nil nil))) (when (fboundp (quote set-active)) (set-active box nil)) box) (let ((box (om-load-boxcall (quote bastype) "aux" (quote t) (quote nil) (om-make-point 133 6) (om-make-point 74 28) (list 11 16 64) "(11 16 64)" nil))) (when (fboundp (quote set-active)) (set-active box nil)) box) (let ((box (om-load-editor-box1 "CRIBLE" (quote crible) (quote ((om-load-inputfun (quote input-funbox) "object" "self" nil) (om-load-inputfun (quote input-funbox) "" "cr-exp" (list 2 0 18)))) (om-make-point 91 36) (om-make-point 70 50) (if (find-class (quote crible) nil) (make-instance (quote crible) :cr-exp (list 11 16 64) :from-file t)) nil nil (pairlis (quote (winsize winpos)) (list (om-make-point 335 275) (om-make-point 10 40))) nil nil nil nil))) (when (fboundp (quote set-active)) (set-active box nil)) box))) (quote ((18 0 5 0 nil 2) (16 0 5 1 nil 1) (16 0 6 0 nil 1) (18 0 7 0 nil 2) (6 0 8 0 nil 0) (7 0 9 0 nil 2) (11 0 10 0 nil 0) (12 0 11 0 nil 0) (18 0 12 0 nil 2) (16 0 12 1 nil 1) (14 0 13 0 nil 3) (5 0 14 0 nil 3) (15 0 16 1 nil 0) (17 0 18 1 nil 0))) 6.16 nil "" (om-make-point 155 143) (om-make-point 609 447)) (quote nil) (om-make-point 89 0) nil (list (list 16 27 35 38 49 54 60)) "x" "sieve"))) (when (fboundp (quote set-active)) (set-active box nil)) box))) (quote ((3 0 2 0 nil 0) (51 0 3 0 nil 0) (1 0 3 1 nil 0) (0 0 3 2 nil 0) (8 0 5 0 nil 0) (15 0 7 0 nil 0) (6 0 7 1 nil 0) (7 0 8 0 nil 0) (30 0 9 0 nil 0) (11 0 10 0 nil 0) (10 0 12 0 nil 0) (32 0 12 1 nil 0) (26 0 12 2 nil 0) (38 0 13 0 nil 0) (44 2 15 0 nil 0) (16 2 15 1 nil 0) (14 1 16 2 nil 0) (18 0 19 0 nil 0) (17 0 19 1 nil 0) (21 0 22 0 nil 0) (20 0 22 1 nil 0) (15 0 24 0 nil 4) (23 0 24 1 nil 0) (27 0 26 0 nil 0) (19 0 26 1 nil 0) (25 0 26 2 nil 0) (51 0 27 0 nil 0) (9 0 29 0 nil 0) (28 0 29 1 nil 0) (12 0 30 0 nil 0) (51 0 32 0 nil 11) (31 0 32 1 nil 0) (22 0 32 2 nil 0) (36 0 35 1 nil 0) (54 1 36 0 nil 0) (39 0 37 0 nil 0) (37 0 38 0 nil 3) (5 0 38 1 nil 0) (53 0 39 0 nil 0) (52 0 39 1 nil 0) (42 0 39 2 nil 0) (41 0 39 3 nil 0) (34 0 40 0 nil 0) (29 0 40 1 nil 0) (33 0 40 2 nil 0) (40 0 43 1 nil 11) (14 0 44 2 nil 0) (24 0 47 0 nil 0) (46 0 47 1 nil 0) (45 0 47 2 nil 0) (13 0 48 1 nil 0) (47 0 48 2 nil 1) (43 1 50 1 nil 11) (48 0 50 2 nil 2) (49 0 50 3 nil 0) (54 0 53 0 nil 0) (35 0 53 1 nil 0))) nil 6.16))
