; OM File Header - Saved 2021/03/04 11:25:16
; (6.070005 :patc (om-make-point 184 28) (om-make-point 145 232) (om-make-point 966 509) "" 183 0 nil "2021/03/04 11:25:16")
; End File Header
; External resources 
; (list (list (quote :picture) "#P\"../../../../resources/pict/omsox\"") (list (quote :abstraction) "#P\"../../support/wsola-info.omp\"") (list (quote :sound) "#P\"../../../../../../../../Research/OM-SoX/OM-SoX 1.0/resources/sounds/seagull.wav\"" "#P\"../../../../../../../../Research/OM-SoX/OM-SoX 1.0/resources/sounds/men-of-goodwill.wav\"" "#P\"../../../../../../../../Research/OM-SoX/OM-SoX 1.0/resources/sounds/amen-break.wav\""))
(in-package :om)(load-lib-for (quote ("OM-SoX")))(setf *om-current-persistent* (om-load-patch1 "2-time-manipulations" (quote ((om-load-editor-box1 "seagull.wav" (quote sound) (quote ((om-load-inputfun (quote input-funbox) "object" "self" nil) (om-load-inputfun (quote input-funbox) "a track index for multichannel mixing" "tracknum" 0) (om-load-inputfun (quote input-funbox) "a list of markers (s)" "markers" nil))) (om-make-point 598 215) (om-make-point 80 50) (let ((newobj (let ((thesound (load-sound (om-make-pathname :directory (quote (:absolute "Users" "Marlon_MBPro3" "Research" "OM-SoX" "OM-SoX 1.0" "resources" "sounds")) :device nil :host nil :name "seagull" :type "wav") 0 100 0))) (when thesound (setf (markers thesound) (quote nil))) thesound))) (load-port-info newobj (quote nil)) (init-mus-color newobj (quote nil)) (set-extra-pairs newobj (quote nil)) (set-patch-pairs newobj (quote nil)) (set-name newobj "seagull.wav") (set-tonalite newobj nil) newobj) "x" nil (pairlis (quote (approx fontsize staff cmnpref deltapict outport inport player zoom notechancolor? grillestep mode winsize winpos score-mode obj-mode show-stems scale)) (list 2 24 (quote g) (let ((newobj (make-instance (quote edition-values)))) (setf (paper-size newobj) (om-make-point 600 800)) (setf (top-margin newobj) 2) (setf (left-margin newobj) 1) (setf (right-margin newobj) 1) (setf (bottom-margin newobj) 1) (setf (orientation newobj) nil) (setf (scale newobj) nil) (setf (system-space newobj) (quote (1))) (setf (system-color newobj) (quote nil)) (setf (line-space newobj) 1) (setf (title newobj) nil) (setf (show-title? newobj) nil) (setf (show-page? newobj) nil) (setf (sheet-id newobj) nil) (setf (page-mode newobj) nil) newobj) (om-make-point 0 0) nil 0 (quote :soxplayer) 1 nil 1000 0 (om-make-point 557 286) (om-make-point 400 22) 0 1 (quote t) nil)) t nil nil nil) (om-load-boxcall (quote patch-box) "wsola-info" (quote ("elements" "om-sox-tutorials" "support" "wsola-info")) (quote nil) (om-make-point 109 369) nil nil nil nil 0) (om-load-boxcomment "comment" (om-make-point 258 60) (quote "sox-stretch provide a number of presets $for different audio material:$speech, music, and linear") "" (om-make-point 558 112) nil (om-make-color 0.0 0.19194556 1.0) (om-make-font "Verdana" 12.0 :family "Verdana" :style (quote (:plain)) :mode (quote nil))) (om-load-boxcomment "comment" (om-make-point 287 55) (quote "sox-stretch uses the WSOLA algorithm$(Waveform Similarity Based Overlap-Add)") "" (om-make-point 91 104) nil (om-make-color 0.0 0.19194556 1.0) (om-make-font "Verdana" 12.0 :family "Verdana" :style (quote (:plain)) :mode (quote nil))) (om-load-boxcomment "comment" (om-make-point 140 36) (quote "Try these 2 sound using $the different presets") "" (om-make-point 619 183) nil (om-make-color 0.0 0.0 1.0) (om-make-font "Verdana" 10.0 :family "Verdana" :style (quote (:italic)) :mode (quote nil))) (om-load-boxcall (quote genfun) "SOX-STRETCH 2" (quote sox-stretch) (quote ((om-load-inputfun (quote input-funbox) "stretch-factor" "FACTOR" nil) (om-load-inputkeyword (quote input-keyword) "preset (default = linear)" "preset" (quote :preset) "-s" (list (list "music" "-m") (list "speech" "-s") (list "linear" "-l"))))) (om-make-point 785 193) nil nil nil nil 1) (om-load-boxcomment "comment" (om-make-point 549 34) (quote "Change the duration of audio without changing its pitch using \"sox-stretch\"") "" (om-make-point 123 20) nil (om-make-color 0.0 0.0 0.0) (om-make-font "Verdana" 14.0 :family "Verdana" :style (quote (:plain)) :mode (quote nil))) (om-load-boxcall (quote bastype) "aux 5" (quote t) (quote nil) (om-make-point 350 185) (om-make-point 27 30) 1 "1" nil) (om-load-boxcall (quote bastype) "aux 4" (quote t) (quote nil) (om-make-point 312 169) (om-make-point 34 30) 30 "30" nil) (om-load-boxcall (quote bastype) "aux 3" (quote t) (quote nil) (om-make-point 274 169) (om-make-point 34 30) 35 "35" nil) (om-load-editor-box1 "men-of-goodwill.wav" (quote sound) (quote ((om-load-inputfun (quote input-funbox) "object" "self" nil) (om-load-inputfun (quote input-funbox) "a track index for multichannel mixing" "tracknum" 0) (om-load-inputfun (quote input-funbox) "a list of markers (s)" "markers" nil))) (om-make-point 684 215) (om-make-point 80 50) (let ((newobj (let ((thesound (load-sound (om-make-pathname :directory (quote (:absolute "Users" "Marlon_MBPro3" "Research" "OM-SoX" "OM-SoX 1.0" "resources" "sounds")) :device nil :host nil :name "men-of-goodwill" :type "wav") 0 100 0))) (when thesound (setf (markers thesound) (quote nil))) thesound))) (load-port-info newobj (quote nil)) (init-mus-color newobj (quote nil)) (set-extra-pairs newobj (quote nil)) (set-patch-pairs newobj (quote nil)) (set-name newobj "men-of-goodwill.wav") (set-tonalite newobj nil) newobj) "x" nil (pairlis (quote (palette-mode scale show-stems obj-mode score-mode winpos winsize mode grillestep notechancolor? zoom player inport outport deltapict cmnpref staff fontsize approx)) (list 0 nil (quote t) 1 0 (om-make-point 400 20) (om-make-point 370 280) 0 1000 nil 1 (quote :libaudio) 0 nil (om-make-point 0 0) (let ((newobj (make-instance (quote edition-values)))) (setf (paper-size newobj) (om-make-point 600 800)) (setf (top-margin newobj) 2) (setf (left-margin newobj) 1) (setf (right-margin newobj) 1) (setf (bottom-margin newobj) 1) (setf (orientation newobj) nil) (setf (scale newobj) nil) (setf (system-space newobj) (quote (1))) (setf (system-color newobj) (quote nil)) (setf (line-space newobj) 1) (setf (title newobj) nil) (setf (show-title? newobj) nil) (setf (show-page? newobj) nil) (setf (sheet-id newobj) nil) (setf (page-mode newobj) nil) newobj) (quote g) 24 2)) t nil nil nil) (om-load-boxcall (quote bastype) "aux" (quote t) (quote nil) (om-make-point 797 160) (om-make-point 27 30) 2 "2" nil) (om-load-editor-box1 "SOUND" (quote sound) (quote ((om-load-inputfun (quote input-funbox) "object" "self" nil) (om-load-inputfun (quote input-funbox) "a track index for multichannel mixing" "tracknum" 0) (om-load-inputfun (quote input-funbox) "a list of markers (s)" "markers" nil))) (om-make-point 692 381) (om-make-point 80 50) (let ((newobj nil)) (load-port-info newobj (quote nil)) (init-mus-color newobj (quote nil)) (set-extra-pairs newobj (quote nil)) (set-patch-pairs newobj (quote nil)) (set-name newobj "") (set-tonalite newobj nil) newobj) nil nil (pairlis (quote (palette-mode scale show-stems obj-mode score-mode winpos winsize mode grillestep notechancolor? zoom player inport outport deltapict cmnpref staff fontsize approx)) (list 0 nil (quote t) 1 0 (om-make-point 400 22) (om-make-point 505 302) 0 1000 nil 1 (quote :soxplayer) 0 nil (om-make-point 0 0) (let ((newobj (make-instance (quote edition-values)))) (setf (paper-size newobj) (om-make-point 600 800)) (setf (top-margin newobj) 2) (setf (left-margin newobj) 1) (setf (right-margin newobj) 1) (setf (bottom-margin newobj) 1) (setf (orientation newobj) nil) (setf (scale newobj) nil) (setf (system-space newobj) (quote (1))) (setf (system-color newobj) (quote nil)) (setf (line-space newobj) 1) (setf (title newobj) nil) (setf (show-title? newobj) nil) (setf (show-page? newobj) nil) (setf (sheet-id newobj) nil) (setf (page-mode newobj) nil) newobj) (quote g) 24 2)) t nil nil nil) (om-load-boxcall (quote genfun) "SOX-PROCESS" (quote sox-process) (quote ((om-load-inputfun (quote input-funbox) "" "SND" nil) (om-load-inputfun (quote input-funbox) "" "COMMANDS" nil))) (om-make-point 676 284) nil nil nil nil 1) (om-load-editor-box1 "amen-break.wav" (quote sound) (quote ((om-load-inputfun (quote input-funbox) "object" "self" nil) (om-load-inputfun (quote input-funbox) "a track index for multichannel mixing" "tracknum" 0) (om-load-inputfun (quote input-funbox) "a list of markers (s)" "markers" nil))) (om-make-point 109 212) (om-make-point 80 50) (let ((newobj (let ((thesound (load-sound (om-make-pathname :directory (quote (:absolute "Users" "Marlon_MBPro3" "Research" "OM-SoX" "OM-SoX 1.0" "resources" "sounds")) :device nil :host nil :name "amen-break" :type "wav") 0 100 0))) (when thesound (setf (markers thesound) (quote nil))) thesound))) (load-port-info newobj (quote nil)) (init-mus-color newobj (quote nil)) (set-extra-pairs newobj (quote nil)) (set-patch-pairs newobj (quote nil)) (set-name newobj "amen-break.wav") (set-tonalite newobj nil) newobj) "x" nil (pairlis (quote (palette-mode scale show-stems obj-mode score-mode winpos winsize mode grillestep notechancolor? zoom player inport outport deltapict cmnpref staff fontsize approx)) (list 0 nil (quote t) 1 0 (om-make-point 400 22) (om-make-point 581 318) 0 1000 nil 1 (quote :soxplayer) 0 nil (om-make-point 0 0) (let ((newobj (make-instance (quote edition-values)))) (setf (paper-size newobj) (om-make-point 600 800)) (setf (top-margin newobj) 2) (setf (left-margin newobj) 1) (setf (right-margin newobj) 1) (setf (bottom-margin newobj) 1) (setf (orientation newobj) nil) (setf (scale newobj) nil) (setf (system-space newobj) (quote (1))) (setf (system-color newobj) (quote nil)) (setf (line-space newobj) 1) (setf (title newobj) nil) (setf (show-title? newobj) nil) (setf (show-page? newobj) nil) (setf (sheet-id newobj) nil) (setf (page-mode newobj) nil) newobj) (quote g) 24 2)) t nil nil nil) (om-load-editor-box1 "SOUND" (quote sound) (quote ((om-load-inputfun (quote input-funbox) "object" "self" nil) (om-load-inputfun (quote input-funbox) "a track index for multichannel mixing" "tracknum" 0) (om-load-inputfun (quote input-funbox) "a list of markers (s)" "markers" nil))) (om-make-point 220 385) (om-make-point 80 50) (let ((newobj nil)) (load-port-info newobj (quote nil)) (init-mus-color newobj (quote nil)) (set-extra-pairs newobj (quote nil)) (set-patch-pairs newobj (quote nil)) (set-name newobj "") (set-tonalite newobj nil) newobj) nil nil (pairlis (quote (palette-mode scale show-stems obj-mode score-mode winpos winsize mode grillestep notechancolor? zoom player inport outport deltapict cmnpref staff fontsize approx)) (list 0 nil (quote t) 1 0 (om-make-point 400 22) (om-make-point 505 302) 0 1000 nil 1 (quote :soxplayer) 0 nil (om-make-point 0 0) (let ((newobj (make-instance (quote edition-values)))) (setf (paper-size newobj) (om-make-point 600 800)) (setf (top-margin newobj) 2) (setf (left-margin newobj) 1) (setf (right-margin newobj) 1) (setf (bottom-margin newobj) 1) (setf (orientation newobj) nil) (setf (scale newobj) nil) (setf (system-space newobj) (quote (1))) (setf (system-color newobj) (quote nil)) (setf (line-space newobj) 1) (setf (title newobj) nil) (setf (show-title? newobj) nil) (setf (show-page? newobj) nil) (setf (sheet-id newobj) nil) (setf (page-mode newobj) nil) newobj) (quote g) 24 2)) t nil nil nil) (om-load-boxcall (quote bastype) "aux" (quote t) (quote nil) (om-make-point 211 169) (om-make-point 52 30) 1.414 "1.414" nil) (om-load-boxcall (quote genfun) "SOX-PROCESS" (quote sox-process) (quote ((om-load-inputfun (quote input-funbox) "" "SND" nil) (om-load-inputfun (quote input-funbox) "" "COMMANDS" nil))) (om-make-point 204 298) nil nil nil nil 1) (om-load-boxcall (quote genfun) "SOX-STRETCH" (quote sox-stretch) (quote ((om-load-inputfun (quote input-funbox) "stretch-factor" "FACTOR" nil) (om-load-inputkeyword (quote input-keyword) "segment-size (ms)" "segment" (quote :segment) nil nil) (om-load-inputkeyword (quote input-keyword) "search-size (ms)" "search" (quote :search) nil nil) (om-load-inputkeyword (quote input-keyword) "overlap (ms)" "overlap" (quote :overlap) nil nil))) (om-make-point 261 221) nil nil nil nil 1))) (quote ((11 0 5 0 nil 0) (13 0 12 0 nil 0) (10 0 13 0 nil 0) (5 0 13 1 nil 0) (17 0 15 0 nil 0) (14 0 17 0 nil 0) (18 0 17 1 nil 0) (16 0 18 0 nil 0) (9 0 18 1 nil 0) (8 0 18 2 nil 0) (7 0 18 3 nil 0))) (list (let ((newpict (make-instance (quote patch-picture) :name "omsox" :source (quote user) :pict-pathname (restore-pict-path (restore-path nil)) :thepict (om-get-picture "omsox" (quote user)) :storemode :external :draw-params (quote (p 0 0 100 100)) :extraobjs nil))) (setf (pict-pos newpict) (om-make-point 56 8)) (setf (pict-size newpict) (om-make-point 63 53)) newpict)) 6.070005))
